<svg id="svg2" xmlns="http://www.w3.org/2000/svg" viewBox="0 0 392 89"><style>.st0{fill:#fff}.st1{fill:#fc6}</style><title id="title4">Logotype</title><g id="Desktop-HD-Home" transform="translate(-603 -100)"><g id="l" transform="translate(173 100)"><g id="Logotype" transform="translate(430)"><path id="Fill-1" class="st0" d="M112.3 61.3c9.5 0 16.1-7.3 16.1-16.6 0-9-7.3-15.7-16.6-15.7H105v32.4h7.3zM99.7 23.9h14c10.4 0 20.4 8.9 20.4 21.1 0 12.1-9.7 21.4-21.8 21.4H99.7V23.9z"/><path id="Fill-4" class="st0" d="M265.3 37.2h5.4L260 66.3h-4.1l-7.8-22.7h-.1l-8 22.7h-4.1l-10.7-29.1h5.4l7.3 21.1h.1l7.3-21.1h5.4l7.3 21.1h.1l7.2-21.1z"/><path id="Fill-6" class="st0" d="M294.9 49.4c0-4.4-1.8-8.2-6.8-8.2-4.7 0-7.5 3.2-7.5 8.7v16.4h-5V23.9h5v16.8h.1c1.5-2.6 4.8-4.1 8-4.1 5.6 0 11.2 3.1 11.2 10.9v18.8h-5V49.4z"/><path id="Fill-8" class="st0" d="M329.6 49.6c-.5-4.8-4.4-8.3-9.6-8.3-6.2 0-9.1 4.4-9.6 8.3h19.2zm4.4 11.1c-3.9 4.3-8 6.3-13.1 6.3-10.3 0-15.9-7.5-15.9-15.2 0-8.3 5.9-15.2 15-15.2 9 0 15.3 6.9 15.3 17.1h-24.9c.8 5 4.8 8.6 10.5 8.6 3.6 0 6.8-1.7 9.3-4.7l3.8 3.1z"/><path id="Fill-11" class="st0" d="M364.8 49.6c-.5-4.8-4.4-8.3-9.6-8.3-6.1 0-9.1 4.4-9.6 8.3h19.2zm4.5 11.1c-3.9 4.4-8.1 6.3-13.1 6.3-10.3 0-15.9-7.5-15.9-15.2 0-8.3 5.9-15.2 15-15.2 9 0 15.3 6.9 15.3 17.1h-24.9c.8 5 4.8 8.6 10.5 8.6 3.6 0 6.8-1.7 9.3-4.7l3.8 3.1z"/><path id="Fill-14" class="st0" d="M142.5 51.4c0 5.6 3.3 11 9.4 11 6.3 0 9.6-5.1 9.6-10.9 0-5.8-3.6-10.4-9.7-10.4-5.6 0-9.3 5-9.3 10.3zm23.7 14.9h-4.9v-4.2h-.1c-2.5 3.2-5.9 4.8-9.9 4.8-8.5 0-13.8-7.2-13.8-15.1 0-8.2 5.2-15.3 13.9-15.3 3.9 0 7.5 1.8 9.9 4.9h.1v-4.2h4.9v29.1z"/><path id="Fill-16" class="st0" d="M196 51.4c0 5.6 3.3 11 9.4 11 6.3 0 9.6-5.1 9.6-10.9 0-5.8-3.6-10.4-9.7-10.4-5.6 0-9.3 5-9.3 10.3zm23.7 14.9h-4.9v-4.2h-.1c-2.5 3.2-5.9 4.8-9.9 4.8-8.5 0-13.8-7.2-13.8-15.1 0-8.2 5.2-15.3 13.9-15.3 3.9 0 7.5 1.8 9.9 4.9h.1v-4.2h4.9v29.1z"/><path id="Fill-18" class="st0" d="M181.8 66.3h-4.9V41.7h-5.1v-4.5h5.1V23.9h4.9v13.3h5.1v4.5h-5.1v24.6z"/><path id="Fill-20" class="st0" d="M380.2 66.3h-4.9V23.9h4.9v42.4z"/></g></g></g><g id="Welcome_1_"><g id="Desktop-HD-Home_1_" transform="translate(-503 -297)"><g id="l_1_" transform="translate(173 100)"><g id="LOGO" transform="rotate(24 -83.906 1089.264)"><path id="Fill-1_1_" class="st1" d="M-40.9 125.7c0-8.3 3-15.9 8-21.8l-2.7-2.7c-5.6 6.6-9.1 15.1-9.1 24.4 0 9.3 3.4 17.9 9.1 24.4l2.7-2.7c-5-5.7-8-13.3-8-21.6"/><path id="Fill-3" class="st1" d="M-7.2 92c8.3 0 15.9 3 21.8 8l2.7-2.7c-6.6-5.6-15.1-9.1-24.4-9.1-9.3 0-17.9 3.4-24.4 9.1l2.7 2.7c5.7-5 13.3-8 21.6-8"/><path id="Fill-6_1_" class="st1" d="M26.6 125.7c0 8.3-3 15.9-8 21.8l2.7 2.7c5.6-6.6 9.1-15.1 9.1-24.4 0-9.3-3.4-17.9-9.1-24.4l-2.7 2.7c5 5.7 8 13.3 8 21.6"/><path id="Fill-8_1_" class="st1" d="M-7.2 159.4c-8.3 0-15.9-3-21.8-8l-2.7 2.7c6.6 5.6 15.1 9.1 24.4 9.1 9.3 0 17.9-3.4 24.4-9.1l-2.7-2.7c-5.7 5-13.3 8-21.6 8"/><path id="Fill-10" class="st1" d="M9.3 102.9l-1.9 3.3c6 4.4 9.8 11.5 9.8 19.5s-3.9 15.1-9.8 19.5l1.9 3.3c7.1-5.1 11.7-13.4 11.7-22.8-.1-9.4-4.7-17.7-11.7-22.8"/><path id="Fill-12" class="st1" d="M-31.3 128.5h-3.8c1.4 14.2 13.4 25.3 28 25.3 4.1 0 8-.9 11.5-2.5L2.5 148c-3 1.3-6.2 2-9.7 2-12.5.1-22.7-9.3-24.1-21.5z"/><path id="Fill-14_1_" class="st1" d="M-7.2 101.4c3.4 0 6.7.7 9.7 2l1.9-3.3C.9 98.5-3 97.6-7.2 97.6c-14.6 0-26.5 11.1-28 25.3h3.8c1.5-12.1 11.7-21.5 24.2-21.5"/><path id="Fill-16_1_" class="st1" d="M-22 127.4c-.8-7.3 3.7-13.9 10.4-16l-.4-3.8c-8.8 2.4-14.8 10.9-13.7 20.2 1.1 9.3 8.8 16.3 17.9 16.6l-.4-3.8c-7.1-.5-13-5.9-13.8-13.2"/><path id="Fill-18_1_" class="st1" d="M-6 110.8c7 .5 12.9 6 13.8 13.2.8 7.3-3.7 13.9-10.4 16l.4 3.8c8.8-2.4 14.8-10.9 13.7-20.2-1.1-9.3-8.8-16.3-17.9-16.6l.4 3.8z"/></g></g></g></g></svg>