<svg id="Capa_1" xmlns="http://www.w3.org/2000/svg" xmlns:xlink="http://www.w3.org/1999/xlink" viewBox="0 0 210 92"><style>.st0{clip-path:url(#SVGID_2_);fill:url(#SVGID_3_)}.st1{enable-background:new}.st2{fill:#314e60}.st3,.st4{clip-path:url(#SVGID_5_);fill:#fff}.st4{clip-path:url(#SVGID_7_)}.st5,.st6{clip-path:url(#SVGID_9_);fill:#fff}.st6{clip-path:url(#SVGID_11_)}.st7,.st8{clip-path:url(#SVGID_13_);fill:#fff}.st8{clip-path:url(#SVGID_15_)}.st9{clip-path:url(#SVGID_17_)}.st10,.st9{fill:#fff}.st11{clip-path:url(#SVGID_19_)}.st11,.st12,.st13{fill:#314e60}.st12{clip-path:url(#SVGID_21_)}.st13{clip-path:url(#SVGID_23_)}.st14{clip-path:url(#SVGID_25_)}.st14,.st15,.st16{fill:#314e60}.st15{clip-path:url(#SVGID_27_)}.st16{clip-path:url(#SVGID_29_)}.st17{clip-path:url(#SVGID_31_)}.st17,.st18,.st19{fill:#314e60}.st18{clip-path:url(#SVGID_33_)}.st19{clip-path:url(#SVGID_35_)}.st20{clip-path:url(#SVGID_37_)}.st20,.st21,.st22{fill:#314e60}.st21{clip-path:url(#SVGID_39_)}.st22{clip-path:url(#SVGID_41_)}.st23{clip-path:url(#SVGID_43_);fill:#0c64ae}.st24{clip-path:url(#SVGID_45_);fill:#e73439}.st25,.st26{clip-path:url(#SVGID_47_);fill:#fff}.st26{clip-path:url(#SVGID_49_)}.st27,.st28{clip-path:url(#SVGID_51_);fill:#fff}.st28{clip-path:url(#SVGID_53_)}.st29,.st30{clip-path:url(#SVGID_55_);fill:#fff}.st30{clip-path:url(#SVGID_57_)}.st31,.st32{clip-path:url(#SVGID_59_);fill:#fff}.st32{clip-path:url(#SVGID_61_)}.st33,.st34{clip-path:url(#SVGID_63_);fill:#fff}.st34{clip-path:url(#SVGID_65_)}.st35,.st36{clip-path:url(#SVGID_67_);fill:#fff}.st36{clip-path:url(#SVGID_69_)}.st37,.st38{clip-path:url(#SVGID_71_);fill:#fff}.st38{clip-path:url(#SVGID_73_)}.st39,.st40{clip-path:url(#SVGID_75_);fill:#fff}.st40{clip-path:url(#SVGID_77_)}.st41,.st42{clip-path:url(#SVGID_79_);fill:#fff}.st42{clip-path:url(#SVGID_81_)}.st43,.st44{clip-path:url(#SVGID_83_);fill:#fff}.st44{clip-path:url(#SVGID_85_)}.st45,.st46{clip-path:url(#SVGID_87_);fill:#fff}.st46{clip-path:url(#SVGID_89_)}.st47,.st48{clip-path:url(#SVGID_91_);fill:#fff}.st48{clip-path:url(#SVGID_93_)}.st49,.st50{clip-path:url(#SVGID_95_);fill:#fff}.st50{clip-path:url(#SVGID_97_)}.st51,.st52{clip-path:url(#SVGID_99_);fill:#fff}.st52{clip-path:url(#SVGID_101_)}.st53,.st54{clip-path:url(#SVGID_103_);fill:#fff}.st54{clip-path:url(#SVGID_105_)}.st55,.st56{clip-path:url(#SVGID_107_);fill:#fff}.st56{clip-path:url(#SVGID_109_)}.st57,.st58{clip-path:url(#SVGID_111_);fill:#fff}.st58{clip-path:url(#SVGID_113_)}.st59,.st60{clip-path:url(#SVGID_115_);fill:#fff}.st60{clip-path:url(#SVGID_117_)}.st61,.st62{clip-path:url(#SVGID_119_);fill:#fff}.st62{clip-path:url(#SVGID_121_)}.st63,.st64{clip-path:url(#SVGID_123_);fill:#fff}.st64{clip-path:url(#SVGID_125_)}.st65,.st66{clip-path:url(#SVGID_127_);fill:#fff}.st66{clip-path:url(#SVGID_129_)}.st67,.st68{clip-path:url(#SVGID_131_);fill:#fff}.st68{clip-path:url(#SVGID_133_)}.st69,.st70{clip-path:url(#SVGID_135_);fill:#fff}.st70{clip-path:url(#SVGID_137_)}.st71,.st72{clip-path:url(#SVGID_139_);fill:#fff}.st72{clip-path:url(#SVGID_141_)}.st73,.st74{clip-path:url(#SVGID_143_);fill:#fff}.st74{clip-path:url(#SVGID_145_)}.st75,.st76{clip-path:url(#SVGID_147_);fill:#fff}.st76{clip-path:url(#SVGID_149_)}.st77,.st78{clip-path:url(#SVGID_151_);fill:#fff}.st78{clip-path:url(#SVGID_153_)}.st79,.st80{clip-path:url(#SVGID_155_);fill:#fff}.st80{clip-path:url(#SVGID_157_)}.st81,.st82{clip-path:url(#SVGID_159_);fill:#fff}.st82{clip-path:url(#SVGID_161_)}</style><defs><path id="SVGID_1_" d="M-92.2-225.2v396.9-396.9z"/></defs><clipPath id="SVGID_2_"><use xlink:href="#SVGID_1_" overflow="visible"/></clipPath><radialGradient id="SVGID_3_" cx="-624.3" cy="274.767" r=".707" gradientTransform="translate(123784.352 -54547.395) scale(198.4248)" gradientUnits="userSpaceOnUse"><stop offset="0" stop-color="#fff"/><stop offset=".482" stop-color="#fcfdfe"/><stop offset=".853" stop-color="#f2f8fa"/><stop offset="1" stop-color="#ecf4f8"/></radialGradient><path class="st0" d="M-92.2-225.2v396.9z"/><text transform="matrix(.99 0 0 1 269.198 -55.778)" class="st2" font-family="gobCL-Light" font-size="9">.</text><defs><path id="SVGID_4_" d="M-92.2-225.2h396.9v396.9H-92.2z"/></defs><clipPath id="SVGID_5_"><use xlink:href="#SVGID_4_" overflow="visible"/></clipPath><path class="st3" d="M102.4 59.8c4.4-.3 8.2-1.9 11.2-4.9 3.4-3.3 5-7.5 5-12.6 0-4.6-1.3-8.6-4.1-11.7-.1-.1-.2-.2-.4-.2-.3 0-.5.2-.5.5v.1c2.1 5.6.9 11.2-2.8 12.7-2.6 1-5.7-.2-8.1-2.9-.2-.2-.5-.2-.7 0s-.2.4 0 .6c0 0 0 .1.1.1 2.1 2.4 3.2 5.4 3.2 8.8 0 3.5-1.1 6.4-3.2 8.8-.1.1-.1.2-.1.3-.1.1.1.4.4.4"/><defs><path id="SVGID_6_" d="M-92.2-225.2h396.9v396.9H-92.2z"/></defs><clipPath id="SVGID_7_"><use xlink:href="#SVGID_6_" overflow="visible"/></clipPath><path class="st4" d="M68 58.2c-.4-.5-.9-1.3-1.5-2.4-1-1.7-1.7-2.9-2.3-3.6-.5-.7-1.1-1.2-1.7-1.6 1-.4 1.9-1 2.4-1.8s.8-1.7.8-2.8c0-1.6-.5-2.9-1.6-3.8-1-.9-2.6-1.4-4.4-1.4h-4.4v18.7H58v-8.2h.2c.8 0 1.4.1 1.8.3.3.2.7.5 1.2 1 .4.5.9 1.1 1.4 1.8l.8 1.5.8 1.4.5.7c.1.1.1.2.2.2l.8 1.2h3.2l-.9-1.2zm-6.5-9.8c-.4.2-1.4.3-2.6.3H58v-5.4h.8c1.1 0 2.1.1 2.6.3s.9.5 1.1.9c.3.4.4.9.4 1.5 0 .5-.1 1-.4 1.5-.2.4-.5.7-1 .9"/><defs><path id="SVGID_8_" d="M-92.2-225.2h396.9v396.9H-92.2z"/></defs><clipPath id="SVGID_9_"><use xlink:href="#SVGID_8_" overflow="visible"/></clipPath><path class="st5" d="M71.2 40.8h9.4v2.6H74v4.8h6.6v2.6H74v8.7h-2.8z"/><defs><path id="SVGID_10_" d="M-92.2-225.2h396.9v396.9H-92.2z"/></defs><clipPath id="SVGID_11_"><use xlink:href="#SVGID_10_" overflow="visible"/></clipPath><path class="st6" d="M49.7 43.3c-1.8-1.8-4.1-2.8-6.8-2.8s-5 .9-6.8 2.8c-1.8 1.8-2.7 4.2-2.7 7 0 2.7.9 5 2.7 6.8s4 2.7 6.6 2.7c2.8 0 5.1-.9 6.9-2.7 1.8-1.8 2.7-4.1 2.7-6.9.1-2.8-.8-5.1-2.6-6.9m-2 11.9c-1.3 1.4-2.8 2.1-4.7 2.1s-3.4-.7-4.7-2c-1.2-1.3-1.9-3-1.9-5.1s.6-3.8 1.9-5.2c1.2-1.3 2.8-2 4.8-2 1.8 0 3.4.7 4.7 2 1.3 1.4 1.9 3 1.9 5-.1 2.2-.8 3.9-2 5.2"/><defs><path id="SVGID_12_" d="M-92.2-225.2h396.9v396.9H-92.2z"/></defs><clipPath id="SVGID_13_"><use xlink:href="#SVGID_12_" overflow="visible"/></clipPath><path class="st7" d="M99.4 43.3c-1.8-1.8-4.1-2.8-6.8-2.8s-5 .9-6.8 2.8c-1.8 1.8-2.7 4.2-2.7 7 0 2.7.9 5 2.7 6.8 1.8 1.8 4 2.7 6.6 2.7 2.8 0 5.1-.9 6.9-2.7s2.7-4.1 2.7-6.9c.1-2.8-.8-5.1-2.6-6.9m-2 11.9c-1.3 1.4-2.8 2.1-4.7 2.1-1.9 0-3.4-.7-4.7-2-1.2-1.3-1.9-3-1.9-5.1s.6-3.8 1.9-5.2c1.2-1.3 2.8-2 4.8-2 1.8 0 3.4.7 4.7 2 1.3 1.4 1.9 3 1.9 5-.1 2.2-.8 3.9-2 5.2"/><defs><path id="SVGID_14_" d="M-92.2-225.2h396.9v396.9H-92.2z"/></defs><clipPath id="SVGID_15_"><use xlink:href="#SVGID_14_" overflow="visible"/></clipPath><path class="st8" d="M30.9 55.2c-1.4 1.4-3.2 2.1-5.4 2.1-2.1 0-3.9-.7-5.3-2s-2.1-3-2.1-5.1.7-3.8 2.1-5.2c1.4-1.3 3.2-2 5.4-2 2.1 0 3.9.7 5.3 2v-3.1c-2.3-1-4.3-1.5-6.2-1.5-2.7 0-4.9.9-6.8 2.8-1.8 1.9-2.7 4.2-2.7 6.9 0 1.7.4 3.3 1.2 4.8.8 1.5 1.9 2.6 3.3 3.5 1.4.8 3 1.3 5 1.3 2.4 0 4.6-.5 6.4-1.6v-3.2c-.1.2-.1.3-.2.3"/><defs><path id="SVGID_16_" d="M-92.2-225.2h396.9v396.9H-92.2z"/></defs><clipPath id="SVGID_17_"><use xlink:href="#SVGID_16_" overflow="visible"/></clipPath><path class="st9" d="M111.6 36.6c-.6-.7-1.5-1-2.4-1-1 0-1.8.3-2.4 1s-.9 1.5-.9 2.5.3 1.8.9 2.4c.6.6 1.4 1 2.4 1s1.8-.3 2.5-1c.6-.6 1-1.5 1-2.4-.2-1.1-.5-1.9-1.1-2.5"/><g class="st1"><path class="st10" d="M17.9 19.6h-1.2v2.8h-.5v-7h1.7c1.3 0 2.4.6 2.4 2 0 1.6-1.1 2.2-2.4 2.2zm-.1-3.7h-1.1v3.3h1.1c1.2 0 1.9-.5 1.9-1.7.1-1.2-.8-1.6-1.9-1.6z"/></g><g class="st1"><path class="st10" d="M23.6 17.8c-.1-.1-.4-.1-.7-.1-.5 0-1 .3-1.3.7v4.1h-.5v-5.1h.3l.1.6c.2-.3.7-.7 1.3-.7.4 0 .7.1.7.1l.1.4z"/></g><g class="st1"><path class="st10" d="M26.1 22.5c-1.3 0-2.1-.9-2.1-2.7 0-1.5.6-2.6 2.1-2.6 1.3 0 2.1 1.1 2.1 2.6 0 1.8-.8 2.7-2.1 2.7zm0-4.9c-1.1 0-1.6.9-1.6 2.2 0 1.3.4 2.3 1.6 2.3 1.1 0 1.6-.8 1.6-2.3 0-1.3-.5-2.2-1.6-2.2z"/></g><g class="st1"><path class="st10" d="M30.9 22.4h-.3l-1.7-5.1h.5l1.5 4.8 1.5-4.8h.6l-1.9 5.5c-.4 1.2-1 1.6-1.7 1.6-.4 0-.8-.2-1-.4l.2-.3c.2.1.5.3.8.3.6 0 1-.3 1.3-1.5l.2-.1zm3.4-2.4c0 1.5.7 2.1 1.8 2.1.7 0 1.3-.4 1.6-.6l.2.4c-.4.3-1.1.6-1.8.6-1.3 0-2.2-.9-2.2-2.7 0-1.6.8-2.6 2.1-2.6 1.4 0 2 1.1 2 2.4v.4h-3.7zm1.5-2.4c-1.1 0-1.6 1-1.6 2h3.1c0-1-.3-2-1.5-2zm6.9 4.5c-.3.2-.9.5-1.6.5-1.2 0-2.1-.7-2.1-2.6 0-1.7.9-2.6 2.1-2.6.5 0 1.2.1 1.6.4l-.2.2c-.4-.2-.9-.4-1.4-.4-1 0-1.6.9-1.6 2.2 0 1.6.6 2.2 1.6 2.2.7 0 1.2-.2 1.5-.4l.1.5z"/></g><g class="st1"><path class="st10" d="M45.1 22.5c-.6 0-1.2-.3-1.2-1.3v-3.5h-.8v-.4h.8v-.9l.5-.2v1.1H46v.4h-1.6v3.5c0 .6.2.9.7.9.3 0 .7-.1.8-.2l.1.4c0 .1-.5.2-.9.2z"/></g><g class="st1"><path class="st10" d="M48.7 22.5c-1.3 0-2.1-.9-2.1-2.7 0-1.5.6-2.6 2.1-2.6 1.3 0 2.1 1.1 2.1 2.6 0 1.8-.8 2.7-2.1 2.7zm0-4.9c-1.1 0-1.6.9-1.6 2.2 0 1.3.4 2.3 1.6 2.3 1.1 0 1.6-.8 1.6-2.3 0-1.3-.5-2.2-1.6-2.2z"/></g><g class="st1"><path class="st10" d="M57.3 22.4l-.1-.7c-.3.4-.9.8-1.6.8-1 0-1.6-.7-1.6-1.5s.6-1.4 1.7-1.4h1.4v-.5c0-1-.4-1.4-1.3-1.4-.7 0-1.2.2-1.6.3l-.1-.4c.4-.2.9-.4 1.8-.4 1.1 0 1.7.6 1.7 1.8v3.4h-.3zm-.1-2.4h-1.4c-1 0-1.3.4-1.3 1 0 .7.4 1.1 1.2 1.1.6 0 1.1-.4 1.5-.8V20zm2.4-2c.4-.4.9-.7 1.5-.7 1.3 0 1.9 1 1.9 2.6 0 1.8-.8 2.6-2 2.6-.6 0-1.1-.2-1.4-.6l.1.6v1.8h-.5v-7h.3l.1.7zm0 3.5c.4.4.8.6 1.4.6 1.1 0 1.5-.7 1.5-2.3 0-1.4-.4-2.2-1.5-2.2-.6 0-1.1.3-1.4.7v3.2z"/></g><g class="st1"><path class="st10" d="M65.8 22.5c-1.3 0-2.1-.9-2.1-2.7 0-1.5.6-2.6 2.1-2.6 1.3 0 2.1 1.1 2.1 2.6 0 1.8-.8 2.7-2.1 2.7zm0-4.9c-1.1 0-1.6.9-1.6 2.2 0 1.3.4 2.3 1.6 2.3 1.1 0 1.6-.8 1.6-2.3 0-1.3-.5-2.2-1.6-2.2z"/></g><g class="st1"><path class="st10" d="M70.7 22.4h-.3l-1.7-5.1h.5l1.5 4.8 1.5-4.8h.5L71 22.9c-.4 1.2-1 1.6-1.7 1.6-.4 0-.8-.2-1-.4l.2-.3c.2.1.5.3.8.3.6 0 1-.3 1.3-1.5l.1-.2z"/></g><g class="st1"><path class="st10" d="M76.6 22.4l-.1-.7c-.3.4-.9.8-1.6.8-1 0-1.6-.7-1.6-1.5s.6-1.4 1.7-1.4h1.4v-.5c0-1-.4-1.4-1.3-1.4-.7 0-1.2.2-1.6.3l-.1-.4c.4-.2.9-.4 1.8-.4 1.1 0 1.7.6 1.7 1.8v3.4h-.3zm-.1-2.4h-1.4c-1 0-1.3.4-1.3 1 0 .7.4 1.1 1.2 1.1.6 0 1.1-.4 1.5-.8V20zm5.3 1.8c-.3.4-1 .7-1.5.7-1.2 0-2-.9-2-2.7 0-1.5.7-2.6 2.1-2.6.7 0 1.1.2 1.4.4v-2.4h.5v7.1H82l-.2-.5zm0-3.8c-.3-.2-.7-.4-1.4-.4-1.1 0-1.6.9-1.6 2.2 0 1.3.4 2.3 1.5 2.3.5 0 1-.2 1.4-.7V18z"/></g><g class="st1"><path class="st10" d="M85.3 22.5c-1.3 0-2.1-.9-2.1-2.7 0-1.5.6-2.6 2.1-2.6 1.3 0 2.1 1.1 2.1 2.6 0 1.8-.8 2.7-2.1 2.7zm0-4.9c-1.1 0-1.6.9-1.6 2.2 0 1.3.4 2.3 1.6 2.3 1.1 0 1.6-.8 1.6-2.3 0-1.3-.5-2.2-1.6-2.2z"/></g><g class="st1"><path class="st10" d="M91.2 18c.4-.4.9-.7 1.5-.7 1.3 0 1.9 1 1.9 2.6 0 1.8-.8 2.6-2 2.6-.6 0-1.1-.2-1.4-.6l.1.6v1.8h-.5v-7h.3l.1.7zm.1 3.5c.4.4.8.6 1.4.6 1.1 0 1.5-.7 1.5-2.3 0-1.4-.4-2.2-1.5-2.2-.6 0-1.1.3-1.4.7v3.2z"/></g><g class="st1"><path class="st10" d="M97.6 22.5c-1.3 0-2.1-.9-2.1-2.7 0-1.5.6-2.6 2.1-2.6 1.3 0 2.1 1.1 2.1 2.6 0 1.8-.8 2.7-2.1 2.7zm0-4.9c-1.1 0-1.6.9-1.6 2.2 0 1.3.4 2.3 1.6 2.3 1.1 0 1.6-.8 1.6-2.3 0-1.3-.5-2.2-1.6-2.2z"/></g><g class="st1"><path class="st10" d="M103.3 17.8c-.1-.1-.4-.1-.7-.1-.5 0-1 .3-1.3.7v4.1h-.5v-5.1h.3l.1.6c.2-.3.7-.7 1.3-.7.4 0 .7.1.7.1l.1.4z"/></g><defs><path id="SVGID_18_" d="M-92.2-225.2h396.9v396.9H-92.2z"/></defs><clipPath id="SVGID_19_"><use xlink:href="#SVGID_18_" overflow="visible"/></clipPath><path class="st11" d="M-64.1-66.6l.1-.1z"/><defs><path id="SVGID_20_" d="M-92.2-225.2h396.9v396.9H-92.2z"/></defs><clipPath id="SVGID_21_"><use xlink:href="#SVGID_20_" overflow="visible"/></clipPath><path class="st12" d="M-63.6-66.9s0-.1 0 0l-.3.2c.1.2.2-.3.3-.2"/><defs><path id="SVGID_22_" d="M-92.2-225.2h396.9v396.9H-92.2z"/></defs><clipPath id="SVGID_23_"><use xlink:href="#SVGID_22_" overflow="visible"/></clipPath><path class="st13" d="M-63.5-66.9c.1.1.2-.1.2-.1-.1.1-.3 0-.2.1"/><defs><path id="SVGID_24_" d="M-92.2-225.2h396.9v396.9H-92.2z"/></defs><clipPath id="SVGID_25_"><use xlink:href="#SVGID_24_" overflow="visible"/></clipPath><defs><path id="SVGID_26_" d="M-92.2-225.2h396.9v396.9H-92.2z"/></defs><clipPath id="SVGID_27_"><use xlink:href="#SVGID_26_" overflow="visible"/></clipPath><defs><path id="SVGID_28_" d="M-92.2-225.2h396.9v396.9H-92.2z"/></defs><clipPath id="SVGID_29_"><use xlink:href="#SVGID_28_" overflow="visible"/></clipPath><defs><path id="SVGID_30_" d="M-92.2-225.2h396.9v396.9H-92.2z"/></defs><clipPath id="SVGID_31_"><use xlink:href="#SVGID_30_" overflow="visible"/></clipPath><path class="st17" d="M-68.1-33.5l-.1-.1z"/><defs><path id="SVGID_32_" d="M-92.2-225.2h396.9v396.9H-92.2z"/></defs><clipPath id="SVGID_33_"><use xlink:href="#SVGID_32_" overflow="visible"/></clipPath><path class="st18" d="M-68.2-34.1l.1.4c.2-.1-.2-.3-.1-.4"/><defs><path id="SVGID_34_" d="M-92.2-225.2h396.9v396.9H-92.2z"/></defs><clipPath id="SVGID_35_"><use xlink:href="#SVGID_34_" overflow="visible"/></clipPath><path class="st19" d="M-68.1-34.2c.1-.1 0-.2 0-.2 0 .1-.2.2 0 .2"/><defs><path id="SVGID_36_" d="M-92.2-225.2h396.9v396.9H-92.2z"/></defs><clipPath id="SVGID_37_"><use xlink:href="#SVGID_36_" overflow="visible"/></clipPath><defs><path id="SVGID_38_" d="M-92.2-225.2h396.9v396.9H-92.2z"/></defs><clipPath id="SVGID_39_"><use xlink:href="#SVGID_38_" overflow="visible"/></clipPath><path class="st21" d="M-64.4-41.1c0-.1 0 0 0 0"/><defs><path id="SVGID_40_" d="M-92.2-225.2h396.9v396.9H-92.2z"/></defs><clipPath id="SVGID_41_"><use xlink:href="#SVGID_40_" overflow="visible"/></clipPath><defs><path id="SVGID_42_" d="M-92.2-225.2h396.9v396.9H-92.2z"/></defs><clipPath id="SVGID_43_"><use xlink:href="#SVGID_42_" overflow="visible"/></clipPath><path class="st23" d="M136.5 15.5h29.3v65.2h-29.3z"/><defs><path id="SVGID_44_" d="M-92.2-225.2h396.9v396.9H-92.2z"/></defs><clipPath id="SVGID_45_"><use xlink:href="#SVGID_44_" overflow="visible"/></clipPath><path class="st24" d="M165.8 15.5h35.9v65.2h-35.9z"/><defs><path id="SVGID_46_" d="M136.5 15.5h65.2v65.2h-65.2z"/></defs><clipPath id="SVGID_47_"><use xlink:href="#SVGID_46_" overflow="visible"/></clipPath><path class="st25" d="M173.2 25.6c-.7.3-1.2.4-1.8.4-1.5 0-2.3-1-2.3-2.6 0-1.5.8-2.5 2.3-2.5.8 0 1.3.2 1.6.4l-.4.7c-.3-.2-.7-.3-1.2-.3-.9 0-1.3.7-1.3 1.7 0 1.2.4 1.8 1.3 1.8.3 0 .6 0 .8-.2v-.9h-.7l-.1-.7h1.6v2.2h.2z"/><defs><path id="SVGID_48_" d="M136.5 15.5h65.2v65.2h-65.2z"/></defs><clipPath id="SVGID_49_"><use xlink:href="#SVGID_48_" overflow="visible"/></clipPath><path class="st26" d="M176.3 24.1c0-.9-.3-1.2-.7-1.2-.5 0-.7.3-.7 1.2 0 .8.2 1.2.7 1.2.4 0 .7-.3.7-1.2m1 0c0 1.2-.6 1.9-1.7 1.9s-1.7-.7-1.7-1.9c0-1.1.6-1.9 1.7-1.9 1 .1 1.7.9 1.7 1.9"/><defs><path id="SVGID_50_" d="M136.5 15.5h65.2v65.2h-65.2z"/></defs><clipPath id="SVGID_51_"><use xlink:href="#SVGID_50_" overflow="visible"/></clipPath><path class="st27" d="M178.9 25c.1.2.4.4.7.4.4 0 .7-.3.7-1.2 0-.9-.3-1.2-.7-1.2-.2 0-.5.1-.7.3V25zm0-2.3c.2-.2.6-.4 1-.4.9 0 1.5.6 1.5 1.9s-.7 1.9-1.6 1.9c-.5 0-.8-.2-1.1-.5l-.2.4h-.5v-5.1h1v1.3l-.1.5z"/><defs><path id="SVGID_52_" d="M-92.2-225.2h396.9v396.9H-92.2z"/></defs><clipPath id="SVGID_53_"><use xlink:href="#SVGID_52_" overflow="visible"/></clipPath><path class="st28" d="M182.3 20.9h1v.8h-1v-.8zm0 5.1v-2.9l-.4-.1v-.6h1.4V26h-1z"/><defs><path id="SVGID_54_" d="M136.5 15.5h65.2v65.2h-65.2z"/></defs><clipPath id="SVGID_55_"><use xlink:href="#SVGID_54_" overflow="visible"/></clipPath><path class="st29" d="M185.7 23c-.5 0-.7.4-.7.9h1.3c0-.5-.1-.9-.6-.9m-.7 1.4c0 .6.3.9.9.9.4 0 .7-.1 1.1-.3l.2.7c-.3.2-.8.4-1.4.4-1.1 0-1.8-.7-1.8-1.9 0-1.1.5-1.9 1.7-1.9 1.1 0 1.5.8 1.5 1.7v.4H185z"/><defs><path id="SVGID_56_" d="M136.5 15.5h65.2v65.2h-65.2z"/></defs><clipPath id="SVGID_57_"><use xlink:href="#SVGID_56_" overflow="visible"/></clipPath><path class="st30" d="M190.1 23.1c-.1 0-.3-.1-.5-.1-.3 0-.5.1-.7.2v2.6h-1v-3.6h.7l.1.5c.1-.3.4-.6.9-.6.2 0 .3 0 .4.1l.1.9z"/><defs><path id="SVGID_58_" d="M136.5 15.5h65.2v65.2h-65.2z"/></defs><clipPath id="SVGID_59_"><use xlink:href="#SVGID_58_" overflow="visible"/></clipPath><path class="st31" d="M192.9 26v-2.2c0-.5-.2-.8-.7-.8-.3 0-.5.1-.6.2v2.7h-1v-3.6h.7l.1.4c.2-.2.6-.5 1.1-.5.9 0 1.3.5 1.3 1.5v2.2l-.9.1z"/><defs><path id="SVGID_60_" d="M136.5 15.5h65.2v65.2h-65.2z"/></defs><clipPath id="SVGID_61_"><use xlink:href="#SVGID_60_" overflow="visible"/></clipPath><path class="st32" d="M197 24.1c0-.9-.3-1.2-.7-1.2-.5 0-.7.3-.7 1.2 0 .8.2 1.2.7 1.2.4 0 .7-.3.7-1.2m.9 0c0 1.2-.6 1.9-1.7 1.9s-1.7-.7-1.7-1.9c0-1.1.6-1.9 1.7-1.9 1.1.1 1.7.9 1.7 1.9"/><defs><path id="SVGID_62_" d="M136.5 15.5h65.2v65.2h-65.2z"/></defs><clipPath id="SVGID_63_"><use xlink:href="#SVGID_62_" overflow="visible"/></clipPath><path class="st33" d="M171.5 29.7c-.1-.1-.4-.2-.7-.2-.5 0-.7.3-.7 1.2s.3 1.2.7 1.2c.2 0 .5-.1.7-.3v-1.9zm.1-.5c-.1-.2-.1-.4-.1-.7v-1.1h1v5.1h-.8l-.1-.4c-.2.2-.5.5-1 .5-.8 0-1.5-.6-1.5-1.9 0-1.2.7-1.9 1.6-1.9.4 0 .7.2.9.4"/><defs><path id="SVGID_64_" d="M136.5 15.5h65.2v65.2h-65.2z"/></defs><clipPath id="SVGID_65_"><use xlink:href="#SVGID_64_" overflow="visible"/></clipPath><path class="st34" d="M174.9 29.6c-.5 0-.7.4-.7.9h1.3c0-.5-.1-.9-.6-.9m-.7 1.4c0 .6.3.9.9.9.4 0 .7-.1 1.1-.3l.2.7c-.3.2-.8.4-1.4.4-1.1 0-1.8-.7-1.8-1.9 0-1.1.5-1.9 1.7-1.9 1.1 0 1.5.8 1.5 1.7v.4h-2.2z"/><defs><path id="SVGID_66_" d="M136.5 15.5h65.2v65.2h-65.2z"/></defs><clipPath id="SVGID_67_"><use xlink:href="#SVGID_66_" overflow="visible"/></clipPath><path class="st35" d="M180.9 32.6c-1.4 0-2.2-.9-2.2-2.6 0-1.6.7-2.5 2.2-2.5.7 0 1.3.1 1.7.4l-.4.8c-.3-.2-.7-.3-1.2-.3-.8 0-1.2.6-1.2 1.7 0 1.2.4 1.7 1.2 1.7.5 0 1-.2 1.3-.5l.3.8c-.5.3-1.1.5-1.7.5"/><defs><path id="SVGID_68_" d="M136.5 15.5h65.2v65.2h-65.2z"/></defs><clipPath id="SVGID_69_"><use xlink:href="#SVGID_68_" overflow="visible"/></clipPath><path class="st36" d="M183.2 32.5v-5.1h1v1.3c0 .3-.1.5-.1.6.2-.3.5-.5 1-.5 1 0 1.3.5 1.3 1.5v2.2h-1v-2.2c0-.5-.2-.8-.6-.8-.3 0-.5.1-.6.2v2.7l-1 .1z"/><defs><path id="SVGID_70_" d="M-92.2-225.2h396.9v396.9H-92.2z"/></defs><clipPath id="SVGID_71_"><use xlink:href="#SVGID_70_" overflow="visible"/></clipPath><path class="st37" d="M187.5 27.4h1v.9h-1v-.9zm.1 5.1v-2.9l-.4-.1v-.6h1.4v3.6h-1z"/><defs><path id="SVGID_72_" d="M136.5 15.5h65.2v65.2h-65.2z"/></defs><clipPath id="SVGID_73_"><use xlink:href="#SVGID_72_" overflow="visible"/></clipPath><path class="st38" d="M189.4 31.6v-4.1h1v4.1c0 .3.2.3.6.3v.7s-.3.1-.5.1c-.8-.1-1.1-.5-1.1-1.1"/><defs><path id="SVGID_74_" d="M136.5 15.5h65.2v65.2h-65.2z"/></defs><clipPath id="SVGID_75_"><use xlink:href="#SVGID_74_" overflow="visible"/></clipPath><path class="st39" d="M193.1 29.6c-.5 0-.7.4-.7.9h1.3c0-.5-.1-.9-.6-.9m-.7 1.4c0 .6.3.9.9.9.4 0 .7-.1 1.1-.3l.2.7c-.3.2-.8.4-1.4.4-1.1 0-1.8-.7-1.8-1.9 0-1.1.5-1.9 1.7-1.9 1.1 0 1.5.8 1.5 1.7v.4h-2.2z"/><defs><path id="SVGID_76_" d="M136.5 15.5h65.2v65.2h-65.2z"/></defs><clipPath id="SVGID_77_"><use xlink:href="#SVGID_76_" overflow="visible"/></clipPath><path class="st40" d="M170.8 75.6c0-.3-.3-.4-.5-.4s-.5.1-.5.4.3.4.5.4c.3 0 .5-.1.5-.4m-.6 1.7c-.3 0-.4.2-.4.4s.2.4.5.4.6-.2.6-.5c0-.2-.2-.3-.7-.3m1.5-2.6v.5c-.1 0-.3 0-.5-.1.1.1.3.3.3.4 0 .7-.7.9-1.1.9-.1 0-.2 0-.4-.1-.1 0-.1.1-.1.2 0 .3 1.8-.1 1.8 1 0 .6-.6 1-1.3 1-.6 0-1.2-.3-1.2-.8 0-.4.3-.5.7-.6-.3 0-.7-.1-.7-.5 0-.2.2-.4.5-.4-.3-.2-.5-.4-.5-.8 0-.7.7-.9 1.1-.9.3.1 1 .2 1.4.2"/><defs><path id="SVGID_78_" d="M136.5 15.5h65.2v65.2h-65.2z"/></defs><clipPath id="SVGID_79_"><use xlink:href="#SVGID_78_" overflow="visible"/></clipPath><path class="st41" d="M173.9 76.1c0-.7-.2-.9-.5-.9s-.5.2-.5.9c0 .6.2.9.5.9.4 0 .5-.3.5-.9m.8 0c0 .9-.5 1.4-1.3 1.4s-1.3-.5-1.3-1.4c0-.8.4-1.4 1.3-1.4.8-.1 1.3.5 1.3 1.4"/><defs><path id="SVGID_80_" d="M136.5 15.5h65.2v65.2h-65.2z"/></defs><clipPath id="SVGID_81_"><use xlink:href="#SVGID_80_" overflow="visible"/></clipPath><path class="st42" d="M176 76.7c.1.2.3.3.5.3.3 0 .6-.2.6-.9s-.2-.9-.5-.9c-.2 0-.4.1-.5.2v1.3h-.1zm-.1-1.7c.1-.2.4-.3.7-.3.6 0 1.1.5 1.1 1.4 0 1-.6 1.4-1.2 1.4-.4 0-.6-.2-.8-.4l-.1.3h-.4v-3.9h.7V75z"/><defs><path id="SVGID_82_" d="M-92.2-225.2h396.9v396.9H-92.2z"/></defs><clipPath id="SVGID_83_"><use xlink:href="#SVGID_82_" overflow="visible"/></clipPath><path class="st43" d="M178.2 76.6h.7v.8h-.7z"/><defs><path id="SVGID_84_" d="M136.5 15.5h65.2v65.2h-65.2z"/></defs><clipPath id="SVGID_85_"><use xlink:href="#SVGID_84_" overflow="visible"/></clipPath><path class="st44" d="M181.8 77.2c-.2.1-.5.2-.9.2-.8 0-1.3-.5-1.3-1.4s.5-1.4 1.3-1.4c.4 0 .7.1.9.2l-.2.5c-.2-.1-.4-.2-.7-.2-.4 0-.6.3-.6.9s.2.9.6.9c.3 0 .6-.1.7-.2l.2.5z"/><defs><path id="SVGID_86_" d="M136.5 15.5h65.2v65.2h-65.2z"/></defs><clipPath id="SVGID_87_"><use xlink:href="#SVGID_86_" overflow="visible"/></clipPath><path class="st45" d="M182.3 76.7v-3.2h.7v3.2c0 .2.1.3.4.3v.5h-.4c-.5 0-.7-.3-.7-.8"/><defs><path id="SVGID_88_" d="M136.5 15.5h65.2v65.2h-65.2z"/></defs><clipPath id="SVGID_89_"><use xlink:href="#SVGID_88_" overflow="visible"/></clipPath><path class="st46" d="M153.8 28.5v1c.2-.4.1-.8 0-1"/><defs><path id="SVGID_90_" d="M136.5 15.5h65.2v65.2h-65.2z"/></defs><clipPath id="SVGID_91_"><use xlink:href="#SVGID_90_" overflow="visible"/></clipPath><path class="st47" d="M156 22.5c0 .1-.2.1-.2.2-.1-.1.1-.3.2-.2m.7 0c.1-.1.2-.3.3-.2.1 0 .1.1.2.2s.2.1.2.2-.1.3-.2.1c-.1-.1-.2-.4-.4-.3s-.3.2-.3.1.1-.1.2-.1m0 .1c.1-.1.1.2.3.2-.2.2-.4 0-.3-.2m-.9.4s0-.1.1-.2c.1 0 .3.1.3.2s-.1.4.3.5v.1c0 .1 0 .1-.1.2h.1c.6 0 .9 0 1-.2 0 0 .1-.1.1-.2.1-.3.2-.5.1-.8v-.1c-.1-.2-.4-.5-.8-.6h-.1.1c.3 0 .8.3.9.6.1-.1.2-.2.2-.4 0 0 0-.2.1-.4v-.1h-.1c-.1.2-.2.1-.2-.1v-.1h-.1c-.1.1-.2.1-.2-.1v-.1h-.1c-.1.2-.2.1-.2-.1V21h-.1c-.1.1-.1.2-.1.2.3.1.7.2.9.5l.1.1-.1-.1c-.4-.3-.7-.4-1-.5-.2 0-.1.2-.1.3-.3-.1-.5.2-.5.4 0 .1 0 .2.1.2 0 0-.1 0-.1-.1v-.2c-.2 0-.5.1-.4.4-.3.6-.1.8-.1.8"/><defs><path id="SVGID_92_" d="M136.5 15.5h65.2v65.2h-65.2z"/></defs><clipPath id="SVGID_93_"><use xlink:href="#SVGID_92_" overflow="visible"/></clipPath><path class="st48" d="M162.5 33.3c-.2-.2-.6-.1-.6-.1.2-.7-.4-.9-.4-.9-.2-.1-.4 0-.5.1-.1.1-.1.1-.1.2 0 .2.2.3.3.3s.1 0 .2-.1c.1 0 .1-.1.1-.2.1.1.1.2.1.2.2.6-.5.8-.5.8-1.5.5-2.4-.3-2.4-.3l.3-.1c.1 0 .2-.1.2-.1 0 .2.1.3.3.3s.3-.1.3-.3V33c-.2-.3-.8-.1-.8-.1.2-.5 0-.9 0-.9-.1-.2-.1-.3-.1-.3v-.2c-.1-.1-.3-.1-.3-.1-.2.1-.3 0-.3 0-.2-.1-.3-.1-.3-.1-.1.1 0 .2 0 .2-.2 0-.3.3-.3.3-.1.5.3.5.3.5.3 0 .3-.2.3-.2 0-.2-.3-.2-.3-.2l.1-.1c.3-.1.5.3.5.3.3.4-.1.8-.1.8-.1.1-.1 0-.1 0-.2-.1-.4-.3-.4-.3h-.1c-.1 0-.2 0-.3.1l.5.5c-.3.2-.5.1-.5.1-.1-.2-.1-.4-.1-.5-.1.1-.3.1-.4.2.1.2.4.6.4.6-.3.1-.4-.3-.4-.6-.1 0-.1.1-.2.1v.1c0 .3.3.6.3.6-.2-.1-.4.1-.4.1-.2.1-.2.3-.1.4 0 .1.1.2.2.2s.2-.1.2-.2-.1-.2-.2-.2c.1-.2.3 0 .3 0 .3.2-.2.5-.2.5-.3.2-.6-.2-.6-.2.3-.6.4-.9.4-1.2-.1 0-.2.1-.3.1.1.5-.2.8-.2.8-.1-.1-.1-.3-.1-.3 0-.1-.1-.2-.1-.3-.1 0-.2.1-.3.1.1.3.2.8.2.8-.1.1-.2.1-.2.1-.2 0-.1-.1-.1-.1.1-.1.1-.2.1-.2-.1-.2-.3 0-.3 0-.4.2-.3.4-.3.4 0 .1.4.3.4.3-.2.1-.6.1-.6.1 0-.1-.1-.2-.2-.2s-.2 0-.2.1v.1h-.2c-.2 0-.2-.5-.3-.9h-.2c.1.4.1.8.1.8-.1 0-.4-.2-.4-.2-.4-.2-.7-.2-.7-.2-.2 0-.4.2-.4.4s.2.4.4.4.4-.2.4-.4c.2.1.3.2.3.2.4.3.8.3.9.3 0 .1.2.3.3.3s.2-.1.3-.2c.8 0 1.1-.4 1.1-.4.1-.1.1 0 .1 0 .3.4.9.2.9.2.1-.1.1 0 .1 0 .1.2.3.1.3.1.2-.1.1-.3.1-.3-.1-.1 0-.1 0-.1.3 0 .3-.1.3-.1.1-.1-.1-.2-.1-.2-.1-.1.1-.1.1-.1.2-.1.1-.2.1-.2.2 0 .2-.1.2-.1 0-.1-.3-.1-.3-.1-.2 0-.2-.1-.2-.1.3 0 .8-.1.8-.1.7.5 1.7.7 1.7.7v.3c-.1 0-.2.1-.2.2s.1.2.2.2c.3-.1.3-.6.3-.6.9.1 1.5-.6 1.5-.6.1-.1.1-.1.2 0 0 .1.1.1.2.1s.2 0 .2-.1v-.1c-.2-.7-.2-.8-.2-.8"/><defs><path id="SVGID_94_" d="M136.5 15.5h65.2v65.2h-65.2z"/></defs><clipPath id="SVGID_95_"><use xlink:href="#SVGID_94_" overflow="visible"/></clipPath><path class="st49" d="M151.5 34.5c.1 0 .1-.1.1-.1 0-.2-.2-.4-.2-.4h-.6s-.2.1-.2.4c0 0 0 .1.1.1 0 0-.2.1-.2.3 0 0 0 .1.2.3 0 0 .1.2.2.3 0 0 0 .2.3.2.2 0 .3-.2.3-.2 0-.1.2-.3.2-.3.1-.3.1-.4.1-.4 0-.1-.3-.2-.3-.2"/><defs><path id="SVGID_96_" d="M-92.2-225.2h396.9v396.9H-92.2z"/></defs><clipPath id="SVGID_97_"><use xlink:href="#SVGID_96_" overflow="visible"/></clipPath><path class="st50" d="M153.2 33.5l.1-.1v-.1z"/><defs><path id="SVGID_98_" d="M-92.2-225.2h396.9v396.9H-92.2z"/></defs><clipPath id="SVGID_99_"><use xlink:href="#SVGID_98_" overflow="visible"/></clipPath><path class="st51" d="M149.2 33.5h.1v-.2z"/><defs><path id="SVGID_100_" d="M136.5 15.5h65.2v65.2h-65.2z"/></defs><clipPath id="SVGID_101_"><use xlink:href="#SVGID_100_" overflow="visible"/></clipPath><path class="st52" d="M148.7 33.1v.2h.1v-.1l-.1-.1c.1 0 .1 0 0 0"/><defs><path id="SVGID_102_" d="M136.5 15.5h65.2v65.2h-65.2z"/></defs><clipPath id="SVGID_103_"><use xlink:href="#SVGID_102_" overflow="visible"/></clipPath><path class="st53" d="M150.5 33.3c-.1 0-.1 0 0 0-.1.1-.1.1-.1.2v.2l.1.1h.1v-.2c0-.2 0-.2-.1-.3"/><defs><path id="SVGID_104_" d="M136.5 15.5h65.2v65.2h-65.2z"/></defs><clipPath id="SVGID_105_"><use xlink:href="#SVGID_104_" overflow="visible"/></clipPath><path class="st54" d="M152 33.3c-.1 0-.1 0 0 0-.1.1-.1.1-.1.2v.2s.1.1.1 0c0 0 .1 0 .1-.1v-.2s0-.1-.1-.1c.1 0 0 0 0 0"/><path class="st10" d="M147.9 33.3h.1l-.1-.2z"/><defs><path id="SVGID_106_" d="M136.5 15.5h65.2v65.2h-65.2z"/></defs><clipPath id="SVGID_107_"><use xlink:href="#SVGID_106_" overflow="visible"/></clipPath><path class="st55" d="M145.6 32.4l-.1.2h.1v-.1c.1 0 .1-.1 0-.1"/><defs><path id="SVGID_108_" d="M136.5 15.5h65.2v65.2h-65.2z"/></defs><clipPath id="SVGID_109_"><use xlink:href="#SVGID_108_" overflow="visible"/></clipPath><path class="st56" d="M146.1 32.5h-.1l-.1.1v.2s0 .1.1.1h.1l.1-.1c0-.1 0-.1-.1-.3.1.1.1.1 0 0"/><defs><path id="SVGID_110_" d="M136.5 15.5h65.2v65.2h-65.2z"/></defs><clipPath id="SVGID_111_"><use xlink:href="#SVGID_110_" overflow="visible"/></clipPath><path class="st57" d="M146.7 32.7l-.1.2h.1v-.1c.1 0 .1 0 0-.1.1 0 0 0 0 0"/><defs><path id="SVGID_112_" d="M136.5 15.5h65.2v65.2h-65.2z"/></defs><clipPath id="SVGID_113_"><use xlink:href="#SVGID_112_" overflow="visible"/></clipPath><path class="st58" d="M155.7 32.7h-.1v.2h.1c.1-.1.1-.1 0-.2 0 .1 0 0 0 0"/><path class="st10" d="M156.7 32.7l.1-.1-.1-.1z"/><defs><path id="SVGID_114_" d="M136.5 15.5h65.2v65.2h-65.2z"/></defs><clipPath id="SVGID_115_"><use xlink:href="#SVGID_114_" overflow="visible"/></clipPath><path class="st59" d="M156.9 32.8c0-.1 0-.1 0 0 0-.1 0-.1 0 0 0-.1 0-.1 0 0h-.1.1l-.2.1v-.5l.3.3.1.1h-.2zm-.8.2l.1-.5h-.2v.1-.1l.4-.1-.1.5h.2v-.1.1l-.4.1zm-.2.1s-.1 0-.1-.1l-.1-.1h-.1v.1l-.3.1-.1-.3h.5v.1c0 .1 0 .1-.1.1 0 0 .1 0 .1.1.3-.1.3-.1.2 0l.1-.1-.1.1zm-.9.2c.1-.1.1-.1 0 0l-.1-.4h-.1l.4-.1v.1h-.1v.2l-.1.2.1.1h.2v-.2.2l-.3-.1zm-.2-.3v.4l-.1.1h-.3v-.4h-.1l.3-.1v.3h.2V33c-.1 0-.1-.1-.1-.1l.1.1c0-.1 0-.1 0 0 0-.1 0 0 0 0m-.6.1l-.1-.1h-.1v.2c.1 0 .1 0 .2-.1-.1.1-.1.1 0 0v.3h.1-.3v-.3h-.1.3zm-.8.5c0-.1 0-.1 0 0l-.2-.1.2.1h-.3s.1 0 .1-.1l.1-.4.2.4v.1h-.1zm-.8.1c0-.1.1-.1 0 0l.1-.1v-.3h.3v.3h.2v-.1.2h-.6zm-.4-.1c0 .1-.1.1-.2.1h-.2l-.1-.1v-.2l.1-.1h.1c.1 0 .2 0 .2.1.1 0 .1.1.1.2.1-.1 0 0 0 0m-.8-.3c-.1 0-.1 0 0 0-.1 0-.1 0 0 0l-.1.5-.3-.4v.3h.1-.3v-.2c0-.1 0-.1-.1-.1h.2l.3.3v-.2c0-.1 0-.1-.1-.1l.3-.1zm-.7.4c-.1 0-.1.1-.2.1h-.2l-.1-.1v-.2l.1-.1h.1c.1 0 .2 0 .2.1s.1.1.1.2c0-.1 0-.1 0 0m-.6-.5l-.3.4h.2v-.1.1h-.4l.3-.4h-.2v.1-.1h.4zm-.6.5h-.6s.1 0 .1-.1l.2-.4.1.4c.2 0 .2 0 .2.1 0-.1 0-.1 0 0zm-.5-.1h-.2s0-.1-.1-.1v-.1h-.1v.1h-.3v-.3h.4v.1c0 .1 0 .1-.1.1 0 0 0 .1.1.1.2 0 .3 0 .3.1zm-.8-.1h-.5s.1 0 .1-.1l.2-.3.2.4c-.1-.1-.1-.1 0 0 0-.1 0 0 0 0zm-.6-.1l-.4-.1.1-.3v-.1l.3.1h-.1l-.1.3.2.1c-.1-.1 0-.1 0 0v-.2.2zm-.8-.3c.1 0 .1.1 0 0 0 .1.1.1.1.1l-.1-.1c0-.1 0-.1-.1-.1v.1l-.3-.1.1-.3.2.1h.2v.2c0 .1-.1.1-.1.1 0-.1 0-.1 0 0m-.5-.3c0 .1-.1.1-.1.1h-.2c-.1 0-.1 0-.1-.1l-.1-.1v-.1s0-.1.1-.1l.1-.1h.1c.1 0 .1.1.2.1.1.2.1.3 0 .3m-.5-.3c0 .1-.1.1 0 0l-.1.1h-.1v.1l-.2-.1h.1l.1-.3.2.1h.2c-.2 0-.2 0-.2.1m4.7.6h.1-.1zm6.7-1.1s-.1-.1-.2-.1h-.1c-.2.1-2.3 1-5.7 1s-5.5-.9-5.7-1h-.1c-.1 0-.1 0-.2.1l-.7.6c.2 0 .4.1.4.1 1.8.8 3.9 1.1 6.3 1.2 2.4 0 4.5-.4 6.3-1.2 0 0 .2-.1.4-.1l-.7-.6z"/><defs><path id="SVGID_116_" d="M136.5 15.5h65.2v65.2h-65.2z"/></defs><clipPath id="SVGID_117_"><use xlink:href="#SVGID_116_" overflow="visible"/></clipPath><path class="st60" d="M148.9 25.2c-.1-.1-.2-.1-.3-.2-.1 0-.2.1-.3.2h.6z"/><defs><path id="SVGID_118_" d="M136.5 15.5h65.2v65.2h-65.2z"/></defs><clipPath id="SVGID_119_"><use xlink:href="#SVGID_118_" overflow="visible"/></clipPath><path class="st61" d="M150.2 25.1s-.1.1-.2.1h2.2c-.1 0-.2-.1-.2-.1-.1 0-.2-.1-.3-.1h-1.1c-.2 0-.3 0-.4.1"/><defs><path id="SVGID_120_" d="M136.5 15.5h65.2v65.2h-65.2z"/></defs><clipPath id="SVGID_121_"><use xlink:href="#SVGID_120_" overflow="visible"/></clipPath><path class="st62" d="M153.5 25.1c-.1 0-.1.1-.2.2h.5c-.1-.1-.2-.2-.3-.2"/><defs><path id="SVGID_122_" d="M136.5 15.5h65.2v65.2h-65.2z"/></defs><clipPath id="SVGID_123_"><use xlink:href="#SVGID_122_" overflow="visible"/></clipPath><path class="st63" d="M148.4 29.5v-1.1c-.1.2-.2.6 0 1.1"/><path class="st10" d="M151 27.6l-2.1-.7h1.7z"/><defs><path id="SVGID_124_" d="M136.5 15.5h65.2v65.2h-65.2z"/></defs><clipPath id="SVGID_125_"><use xlink:href="#SVGID_124_" overflow="visible"/></clipPath><path class="st64" d="M151 25.4h-2.8v.1l.1.1h2.6l.1-.2z"/><defs><path id="SVGID_126_" d="M136.5 15.5h65.2v65.2h-65.2z"/></defs><clipPath id="SVGID_127_"><use xlink:href="#SVGID_126_" overflow="visible"/></clipPath><path class="st65" d="M150.9 25.7h-2.5c0 .1.1.1.1.2h2.3l.1-.2z"/><defs><path id="SVGID_128_" d="M136.5 15.5h65.2v65.2h-65.2z"/></defs><clipPath id="SVGID_129_"><use xlink:href="#SVGID_128_" overflow="visible"/></clipPath><path class="st66" d="M150.8 26.1h-2.2c0 .1.1.1.1.2h2l.1-.2z"/><defs><path id="SVGID_130_" d="M136.5 15.5h65.2v65.2h-65.2z"/></defs><clipPath id="SVGID_131_"><use xlink:href="#SVGID_130_" overflow="visible"/></clipPath><path class="st67" d="M150.7 26.5h-1.9v.2h1.8l.1-.2z"/><defs><path id="SVGID_132_" d="M136.5 15.5h65.2v65.2h-65.2z"/></defs><clipPath id="SVGID_133_"><use xlink:href="#SVGID_132_" overflow="visible"/></clipPath><path class="st68" d="M149.5 27.3h-.7v.2h1l-.3-.2z"/><defs><path id="SVGID_134_" d="M136.5 15.5h65.2v65.2h-65.2z"/></defs><clipPath id="SVGID_135_"><use xlink:href="#SVGID_134_" overflow="visible"/></clipPath><path class="st69" d="M149.2 27.1l-.3-.2h-.1v.2h.4z"/><defs><path id="SVGID_136_" d="M136.5 15.5h65.2v65.2h-65.2z"/></defs><clipPath id="SVGID_137_"><use xlink:href="#SVGID_136_" overflow="visible"/></clipPath><path class="st70" d="M151.1 25.4v2.1l2.1-.7h-1.7v-.1h1.9v-.2h-2v-.2h2.1c0-.1.1-.2.1-.2h-2.2v-.2h2.3c0-.1.1-.2.1-.2h-2.5v-.1h2.7c.1-.1.1-.2.2-.2h-3.1z"/><defs><path id="SVGID_138_" d="M136.5 15.5h65.2v65.2h-65.2z"/></defs><clipPath id="SVGID_139_"><use xlink:href="#SVGID_138_" overflow="visible"/></clipPath><path class="st71" d="M151.6 28.8v1.7c.1 0 .1-.1.2-.1V29l-.2-.2z"/><defs><path id="SVGID_140_" d="M136.5 15.5h65.2v65.2h-65.2z"/></defs><clipPath id="SVGID_141_"><use xlink:href="#SVGID_140_" overflow="visible"/></clipPath><path class="st72" d="M151.2 28.5V31c0-.1.1-.1.1-.1 0-.1.1-.1.1-.2v-2l-.2-.2z"/><defs><path id="SVGID_142_" d="M136.5 15.5h65.2v65.2h-65.2z"/></defs><clipPath id="SVGID_143_"><use xlink:href="#SVGID_142_" overflow="visible"/></clipPath><path class="st73" d="M150.8 28.6v2l.2.2v.1-2.5l-.2.2z"/><defs><path id="SVGID_144_" d="M136.5 15.5h65.2v65.2h-65.2z"/></defs><clipPath id="SVGID_145_"><use xlink:href="#SVGID_144_" overflow="visible"/></clipPath><path class="st74" d="M150.4 28.9v1.5c.1 0 .2.1.2.1v-1.8l-.2.2z"/><defs><path id="SVGID_146_" d="M136.5 15.5h65.2v65.2h-65.2z"/></defs><clipPath id="SVGID_147_"><use xlink:href="#SVGID_146_" overflow="visible"/></clipPath><path class="st75" d="M151.9 30.3c.1 0 .2 0 .2-.1v-1l-.2-.2v1.3z"/><defs><path id="SVGID_148_" d="M136.5 15.5h65.2v65.2h-65.2z"/></defs><clipPath id="SVGID_149_"><use xlink:href="#SVGID_148_" overflow="visible"/></clipPath><path class="st76" d="M150 30.2h.2v-1.3l-.2.2v1.1z"/><defs><path id="SVGID_150_" d="M136.5 15.5h65.2v65.2h-65.2z"/></defs><clipPath id="SVGID_151_"><use xlink:href="#SVGID_150_" overflow="visible"/></clipPath><path class="st77" d="M149.9 27.9h.1v.7l-.1.4v-1.1zm1.1-.3l-.8.3-.3-.2h-1.3c0 .1-.1.1-.1.2s-.1.1-.1.2v1.6c0 .1.1.1.2.2v-2.1h.1V30c.1 0 .1.1.2.1v-2.3h.2v2.3h.2v-2.3h.2v2.4h.2v-1l-.1.1 1.4-1.7z"/><defs><path id="SVGID_152_" d="M136.5 15.5h65.2v65.2h-65.2z"/></defs><clipPath id="SVGID_153_"><use xlink:href="#SVGID_152_" overflow="visible"/></clipPath><path class="st78" d="M152.3 29.3l-.2-.4v-1h.2v1.4zm1.2-1.4c0-.1-.1-.2-.1-.2h-1.3l-.3.2-.6-.2-.2-.1 1.3 1.8v.9h.2v-2.4h.2v2.3h.2v-2.3h.1v2.3c.1 0 .2-.1.2-.1v-2.2h.3l-.1 2.1c.1-.1.2-.1.2-.2v-1.6c0-.1-.1-.2-.1-.3"/><defs><path id="SVGID_154_" d="M136.5 15.5h65.2v65.2h-65.2z"/></defs><clipPath id="SVGID_155_"><use xlink:href="#SVGID_154_" overflow="visible"/></clipPath><path class="st79" d="M152.3 27.5h1v-.2h-.7l-.3.2z"/><defs><path id="SVGID_156_" d="M136.5 15.5h65.2v65.2h-65.2z"/></defs><clipPath id="SVGID_157_"><use xlink:href="#SVGID_156_" overflow="visible"/></clipPath><path class="st80" d="M153.2 26.9l-.3.2h.5v-.3h-.2v.1z"/><defs><path id="SVGID_158_" d="M136.5 15.5h65.2v65.2h-65.2z"/></defs><clipPath id="SVGID_159_"><use xlink:href="#SVGID_158_" overflow="visible"/></clipPath><path class="st81" d="M154.3 21.5v-.4c-.1-.5-.5-.6-.8-.4 0 0 .3-.6 1-.4.2.1.3.2.4.4.1.2 0 .4 0 .5 0-.1 0-.3-.1-.4 0-.1-.1-.2-.2-.2.1.1.1.2.1.2v.2c0 .2-.1.4-.2.5.1-.3.1-.5 0-.7v-.1c-.1-.1-.2-.3-.4-.3.1.1.2.2.2.3.2.4.2.7 0 .8m-2.4-2.3s.4.1.5.5c0 .2-.1.3-.1.3.1-.2 0-.4-.1-.6-.1-.2-.3-.2-.3-.2m-.3 4.1c-.1-.2.1-.4.2-.5.3-.1 0 .4-.2.5m.1.4c-.1 0-.1-.2-.1-.2 0-.2.2-.2.3-.3 0 0 0 .2-.2.5m0-1.8c.2.1-.1.5-.1.6 0 0 .2-.2.3-.1s-.2.5-.3.5c-.5-.6.1-.8.1-1m-.3 2c-.1 0 0-.1 0-.2 0-.3 0-.6-.1-.9 0-.1-.1-.6-.4-1.1.1.1.5.8.6 1.3 0 .2 0 .6-.1.9m-.3-.2c-.2 0-.2-.1-.3-.3.1.1.2.2.2 0-.1-.1-.6-.2-.4-.4.1-.1.3.3.4.2 0-.3-.9-.4-.9-.7 0-.1.8.4.9.4 0-.2-1.1-.6-1.5-1.2v-.1c.2.3.8.8 1.5 1 .2-.1.3.7.1 1.1m-2.4-1.6c.1-.3.2-.8-.3-.9-.4-.1-.7.2-.9.3.1-.3.5-.6 1-.5-.1-.3-.5-.4-.9-.2-.1.1-.2.1-.2.2.1-.2.3-.4.5-.4.3-.1.7 0 .8.2.5.5.2 1.3 0 1.3m-.9.3c.3-.1.5-.2.4-.5 0-.1-.1-.1-.2-.1s-.2.1-.3.2c0-.2.2-.4.4-.4.1 0 .3.1.3.3.1.3-.3.5-.6.5m6.6 0h.2c.7-.2.7-1.1.6-1.1 0 .1 0 .1-.1.2 0 .1-.1.1-.1.1.2-.3.2-.5.1-.7-.1-.1-.1-.3-.3-.4-.4-.2-1.1-.3-1.5 0-.1-.1-.3-.2-.5-.3 0 .2-.3.5-.5.7l-.2.1c.4-.2.6-.5.6-.9 0-.2-.1-.5-.3-.8-.3-.4-1.3-.4-1.7-.1-.1.1-.2.3-.2.4 0-.1.1-.3.3-.3.2-.1.5 0 .6.2-.3-.3-.9-.1-1 .5v-.3c0-.2.1-.3.1-.5-.7-.1-1.6.2-1.6 1.3 0 .1.1.3.2.4 0 0-.1 0-.2-.1s-.1-.2-.2-.4c-.4-.2-.7-.2-1-.1-.3 0-.6.3-.7.4-.1.1-.1.2-.2.3-.1.2-.2.4-.1.6 0 .4.2.8.5.9.4.2.9.2 1.1.2.1 0 .2-.1.3-.1.2-.1.3-.4.3-.7v.2c0 .1 0 .2-.1.4v.2c.1.1.3.1.4.1 0 0-.1.1-.3.1h-.1c.1.2.4.3.7.3h-.2c-.1 0-.3 0-.4-.1.1.2.4.3.8.4h-.4c.2.8.6.7.6.7-.1 0-.2.2-.1.4.4-.2.8-.2.9-.2.1 0 .4 0 .9.2v-.2c-.1-.2-.7-.3-1.2-.2h-.1.1c.2-.1.7-.2 1 0 .2.1.4-.2.4-.3.2 0 .3-.1.3-.3h-.2.1c.3-.2.5-.6.4-.7 0 .1-.1.1-.2.1h-.1.1c.1-.1.2-.2.3-.4-.2-.2-.3-.4-.4-.7 0-.1-.1-.2-.3-.2h-.1c.2-.1.3 0 .4.1 0-.3.1-.4.1-.4-.2.6.2 1.1.5 1.3.4.2 1.1.3 1.6-.2h-.3c.5 0 .4-.1.4-.1"/><defs><path id="SVGID_160_" d="M136.5 15.5h65.2v65.2h-65.2z"/></defs><clipPath id="SVGID_161_"><use xlink:href="#SVGID_160_" overflow="visible"/></clipPath><path class="st82" d="M160.3 30.5c0 .2-.1.7-.2.7.4-4 .2-5 .1-5s-.1.5-.4.4c-.2-.1.5-1 .2-1.5-.1-.1-.1.1-.2.1-.3-.1.2-.9.1-.9-.1-.1-.3-.1-.3-.4 0-.1.1-.2 0-.3-.1-.1-.1.1-.2 0s0-.3-.1-.4c0 0-.1.1-.2 0s0-.2-.1-.2-.3.2-.3.4c0 .1.2.2.1.3 0 .1-.1.2-.2.3-.2.4.1.5.1.7 0 .1-.2.1-.2.1-.1 0-.1-.4-.1-.6s.3-.4.3-.5-.1-.2-.1-.4.2-.5.4-.4c.1 0 .2.2.3.3l.1.1c.3.3.5.9.6 1.4.6 1.2.8 3.4.3 5.8m-2-5.7c-.1.1-.2.1-.3.2-.2.1-.4 0-.5-.2.2 0 .3.1.5 0h.3c.1 0 .1 0 0 0m-2.2 6.7c-.1 0-.4-.1-.4-.1s-.1-.1-.2-.1-.1.1-.2.2v-.1h.2c.1 0 .2 0 .3.1s.2.1.3.1c.1-.3.1-.2 0-.1m-9.1-.6c0 .1 0 .1 0 0 0 .1 0 .1 0 0 0 .1 0 .1 0 0l-.1.1h-.2v.1h.1c0 .1-.1.1-.1.1-.1 0-.2-.1-.2-.2-.1 0-.2-.1-.3-.1 0-.2.6-.1.6-.1.1.1.1.1.2.1m9.4-1.5c-.5 0-.8-.4-.8-.4s.2.2.3.2c.2.1.6 0 .7-.1.1.1.1.3-.2.3m-1.8-.3s-.1 0 0 0c-.1 0-.1 0 0 0-.1.1-.1.1 0 0l-.1.1s-.1-.1 0-.1c0-.2 0-.4.1-.5v.5m-.7.6c0 .1-.4.6-1.4.6-.1 0-.9 0-1.1.5 0 .1-.1.2-.2.3 0-.1-.1-.2-.2-.3-.3-.5-1-.5-1.1-.5-1 0-1.3-.6-1.4-.6-.5-.7 0-1.5 0-1.5.4-.7.4-1.2.3-1.2 0-.8-.5-1.3-.5-1.4-.1-.1-.1-.1-.1-.2s.1-.1.1-.1c.1-.1.3-.2.4-.3 0 0 .1 0 .1.1.1.1.3.2.6.2h.2c.2 0 .4-.2.4-.2.1 0 .2-.1.2-.1.4-.2.8-.2.9-.2.1 0 .5 0 .9.2 0 0 .1.1.2.1 0 0 .3.1.4.2h.2c.3 0 .5-.1.6-.2l.1-.1c.1.1.3.2.4.3 0 0 .1 0 .1.1 0 0 0 .1-.1.2s-.5.6-.5 1.4c0 .1-.1.6.3 1.3.2-.1.6.7.2 1.4m-5.8-1.3v.1h-.2c0-.1.1-.1.1-.2s0-.1.1-.2h.1c-.1-.1-.1-.2 0-.4.2-.2 0-.6 0-.6.1 0 .1.2.1.3v.3c-.1.6-.1.6-.2.7.1-.1.1-.1 0 0m6.1-.8h.2s.1.1.1.2l.1.2c.1.1 0 .2-.1.1-.1 0-.3-.2-.2-.5h-.2s0 .1-.1.1c0-.1.1-.2.1-.2-.1.1 0 .1.1.1m-6.1-.9c-.1 0-.1-.3-.5-.2-.2.1-.4 0-.5 0 .5-.4 1-.1 1 .2m-2.1-2.4c-.3-.1-.6-.1-.7-.4.4 0 .8 0 1 .2.1.1.3.2.4.5-.3-.1-.4-.2-.7-.3m-.9-1.3c-.1 0-.2-.1-.3 0 0 0-.1.1-.1.2s-.1.1-.2.1c-.1-.2.2-.5.3-.5.2-.1.3 0 .5.1h.4c.2 0 .2.2.1.2-.2.1-.3-.1-.5-.1.1-.1 0 0-.2 0m-.3.3c.3.1.3-.2.3-.2.1.2-.1.4-.3.2m-1.5 9.3l.1.1-.1-.1c-.1.1-.1 0-.1 0 0 .1 0 .1.1.2h-.2c-.1 0-.1-.2-.1-.2 0-.1 0-.2-.1-.2.1-.1.4.2.4.2m12.1-7.8c-.1.1-.2.3-.3.3-.3.1-.6-.2-.6-.2s.2.1.5.1c.2 0 .3-.2.4-.2 0-.1.1-.1 0 0m-1.1-1.4c-.2-.1-.5-.1-.8 0-.2.1-.3.3-.3.3s.3-.4.8-.5c.3 0 .4.1.3.2m6.5 3.9c-.1-1.1-.2-2.1-.4-3-.2-.6-.5-1.7-1.2-1.9-.3-.1-.6.2-.6.5s.2.4.1.6c-.1.2-.2.3-.2.5s.1.3.1.4c-.2 0-.3.2-.7.1-.3.1-.6.1-.6.1.3 0 .6-.1.7-.3.1-.2 0-.6-.1-.7-.2 0-.3.2-.9.2-.5 0-.7.1-.8.4V24c0-.2.2-.3.4-.3 0-.1.1-.1.1-.2h-.3c-.3 0-.6.2-.7.4v.3c.1.2.3.3.7.3h-.2s-.4 0-.6-.2c-.1.1-.3.2-.5.2s-.4-.1-.5-.2c-.3-.4.1-1 .1-1.2 0-.6-.8-.3-1.1-.2-.4.2-.6.5-.9.8-.1.2-.3.4-.3.5.1 0 .4.2.7.2h.1c.1 0 .4 0 .5-.2 0 0 .1-.1.2-.1s.1 0 .2.1c0 0 .6.5.7.6l.1.1s0 .1-.1.2c0 0-.3.4-.5.8 0 .1 0 .1-.1.2-.1.2-.1.6.2.7 0 0 .3.1.3-.5 0 0 .1.4.3.4.1 0 .2-.1.2-.4v-.8.1c0 .1-.1 1.5 1 2.3 0 0-.5-.2-.8-.8-.2.1-.4.3-.3.8.1.2.2.3.3.4 0 0-.1.1-.2 0v-.1c0-.1-.1-.1-.1-.2-.1-.1-.2-.2-.4-.3-.1-.2 0-.7-.6-.7h-.1c-.1-.5-.1-.8-.1-.8.1-.7.6-1.2.6-1.3v-.1c-.2-.1-.7-.5-.7-.6l-.1-.1h-.1c-.2.2-.5.2-.6.2h-.1c-.3 0-.7-.2-.7-.2-.5-.2-.9-.2-1-.2s-.5 0-1 .2c-.1 0-.4.2-.7.2h-.1c-.1 0-.4 0-.6-.2h-.1s-.1 0-.1.1c-.1 0-.6.5-.7.6v.1c.1.1.5.6.6 1.3v.3c0-.1-.1-.3-.1-.4s0-.1-.1-.2l-.3-.3c-.1-.1-.2-.1-.3-.1-.1-.1-.3-.2-.4-.4 0-.3-.2-.6-.2-.6s.3.1.3.5c.2-.3.4-.6.5-1 .2-.3.7-.2.9-.1.1 0 .1 0 .2.1.1 0 .1.1.1.2h.3s0 .1.1.1h.1c.3 0 .7-.2.7-.2-.1-.1-.3-.2-.4-.2-.2 0-.3-.2-.5-.2h-.3c-.4.1-.7-.1-1.1-.1-.4 0-.4.2-.5.4-.1.1-.1.2-.2.2-.1.1-.2.1-.3.2 0-.1-.1-.3-.2-.5-.2-.3-.4-.5-.9-.7-.1 0-.1 0-.2-.1s0-.1 0-.1c.1-.1.3 0 .5-.1.3-.2.2-.5.1-.5-.2 0-.5-.1-.6-.2s-.1-.2-.3-.2h-.3c-.1 0-.1.1-.2.1.1-.1.2-.2.4-.2-.2 0-.1-.3-.2-.3s-.1 0-.2.1c0-.1-.1-.3-.2-.4-.1-.1-.2 0-.2.1s.2.1.2.4c0 0-.1 0-.1.1 0-.1-.1-.3-.2-.3-.1-.1-.2 0-.2.1s.2.1.2.4l-.1.1c-.2-.1-.3-.2-.3-.2-.1 0-.2 0-.1.1s.2.2.3.2l-.1.1c-.3-.1-.3-.2-.4-.2-.1 0-.2 0-.1.1.1.2.3.2.4.2 0 .1-.1.1-.1.2-.2 0-.6.1-.5.3.1.1.3-.2.5 0s.4.2.5.3c.1.1.1.2.1.3.1.2.2.4.3.5.1.2.3.4.4.6v.2c-.2.2-.6.5-.8.7s-2 1.6-2.2 2.2c-.1.1-.1.3-.1.5-.1.1-.3 0-.4 0-.1-.1.1-.3.1-.5 0-.1-.1-.1-.2-.1s-.2.3-.1.5c0 0 .1.1 0 .1s-.1 0-.1-.1c0 0-.1.1-.1.2s.2.1.2.2-.1.1-.2 0c-.1.1 0 .2 0 .2.1 0 .2-.1.3-.1 0 .1 0 .1-.1.1.2.2.3-.2.5-.1.1 0 .6.5.5 1v.1c-.1.2-.3.3-.5.4-.3.2.3 1.4.2 2 0 .2.2.2.3.6-.1 0-.3 0-.4.1v.1c0 .2.1.3.3.3s.3-.1.3-.3c.1 0 .2 0 .2.1l.3.1s-.9.8-2.4.3c0 0-.7-.2-.5-.8 0 0 0-.1.1-.2 0 .1.1.2.1.2.1 0 .1.1.2.1.2 0 .3-.2.3-.3s0-.2-.1-.2c-.1-.1-.3-.1-.5-.1 0 0-.7.2-.4.9 0 0-.4-.1-.6.1 0 0-.1.1-.1.2v.1c0 .1.1.1.2.1s.2 0 .2-.1h.2s.6.7 1.5.6c0 0 0 .5.3.6.1 0 .2-.1.2-.2s-.1-.2-.2-.2V34s1-.1 1.7-.7c0 0 .5.1.8.1 0 0 0 .1-.2.1 0 0-.3 0-.3.1 0 0 0 .1.2.1 0 0 0 .1.1.2l.1.1s-.2.1-.1.2c0 0 .1.2.3.1 0 0 .1 0 0 .1 0 0-.1.1.1.3 0 0 .2.1.3-.1 0 0 0-.1.1 0 0 0 .6.3.9-.2 0 0 0-.1.1 0 0 0 .3.4 1.1.4.1.1.2.2.3.2.2 0 .3-.1.3-.3.1 0 .5 0 .9-.3 0 0 .1-.1.3-.2 0 .2.2.4.4.4s.4-.2.4-.4-.2-.4-.4-.4c0 0-.3-.1-.7.2 0 0-.3.2-.4.2 0 0 .1-.4.1-.8h-.2c0 .4-.1.8-.3.8h-.2v-.1c0-.1-.1-.1-.2-.1s-.2.1-.2.2c0 0-.4.1-.6-.1 0 0 .4-.1.4-.3 0 0 .1-.2-.3-.4 0 0-.3-.2-.3 0 0 0 0 .1.1.2 0 0 .1.1-.1.1 0 0-.2 0-.2-.1 0 0 0-.5.2-.8-.1 0-.2 0-.3-.1 0 .1-.1.2-.1.3 0 0 0 .3-.1.3 0 0-.4-.3-.2-.8-.1 0-.2-.1-.3-.1 0 .2 0 .6.4 1.2 0 0-.3.4-.6.2 0 0-.4-.3-.2-.5 0 0 .2-.2.3 0-.1 0-.2.1-.2.2s.1.2.2.2.2-.1.2-.2 0-.3-.1-.4c0 0-.2-.2-.4-.1 0 0 .2-.3.3-.6v-.1c-.1 0-.1-.1-.2-.1 0 .3-.1.7-.4.6 0 0 .2-.4.4-.6-.1-.1-.3-.1-.4-.2 0 .1.1.4-.1.5 0 0-.2.2-.5-.1 0 0 .4-.3.5-.5-.1 0-.2-.1-.3-.1h-.1s-.3.2-.4.3h-.1s-.3-.4-.1-.8c0 0 .1-.4.5-.3 0 0 .1 0 .1.1 0 0-.3 0-.3.2 0 0 0 .2.3.2 0 0 .4 0 .3-.5 0 0-.1-.3-.3-.3 0 0 .1-.2 0-.2 0 0-.1-.1-.3.1 0 0-.1.1-.3 0 0 0-.2-.1-.3.1v.2s0 .1-.1.3c0 0-.1.1-.1.3-.1-.1-.2-.1-.3-.1-.1-.1-.1-.7-.3-1 0-.1.1-.4.1-.7.9-.2 1.3-.9 1.4-1.2.1-.5 0-1-.1-1.2 0 .1.1.2.1.2.4 0 .7 0 1-.1 0 0 .1 0 .1-.1.6-.3.9-.9 1.1-1.2-.1 0-.4-.1-.5-.2.2 0 .4.1.7.1s.6-.2 1-.1c0 0 0 .2.3.3 0 .2 0 .4.1.6v.1s-.3.2-.2.4c0 .1 0 .1.1.1l-.2.2c0 .1-.2.4-.1.4h.1c-.1.3-.1.8.2 1.1 0 0 .4.7 1.5.7.1 0 1.1 0 1.4.7 0 0 .1.1.2.1s.2-.1.2-.1c.4-.7 1.3-.7 1.4-.7 1.1 0 1.5-.7 1.5-.7.1-.2.2-.4.2-.6.2-.1.2-.6.2-.7.1.1.2.3.5.4 0 .2 0 .6.2.7.1 0 .1-.1.1-.2.2.6 0 1 .2 1s.2-.4.2-.4.1.1.1.3 0 .4.1.4c.3 0 .1-.8.4-.7-.1.4 0 .6.2.6 0 .2 0 .3-.1.3-.4.1-.8-.2-1.2-.1-.7-.4-1.1-.1-1.1-.1-.2-.2-.3.1-.3.1-.3-.2-.5.1-.6.2-.1 0-.2-.2-.4.2-.1.2-.5.2-.5.3-.2 0-.2-.1-.2-.1v-.1s0-.1-.1-.1-.1-.1-.2-.1-.2.1-.2.2v.1h.1c.1 0 .2.1.2.2 0 .2-.3.4-.3.4-.2.1-.4-.1-.4-.1-.1-.1-.2-.1-.2-.1-.1 0-.2.1-.2.1s-.1-.1-.2-.1c0 0-.1 0-.2.1 0 0-.2.2-.3.1 0 0-.3-.2-.3-.4 0-.1.1-.1.2-.2h.1v-.1c0-.1-.1-.2-.2-.2 0 0-.1 0-.2.1l-.1.1v.1s0 .1-.2.1c0 0-.4-.1-.5-.3-.2-.4-.3-.2-.4-.2-.1 0-.3-.3-.6-.2-.1 0-.1-.2-.3-.1 0 0-.4-.2-.9 0 0-.1-.2-.1-.2-.1-.1 0-.2-.1-.3-.2-.1-.1-.4 0-.6 0-.1 0-.2 0-.2-.1-.2-.1-.5-.3-.6-.5l-.1-.1c-.1-.1-.1-.1-.2-.3-.1-.3 0-.6.1-.8v-.3c-.2.1-.5.1-.8 0 .1.3.1.6.1.8.1.1.2.3.2.3v.4c.1.2.4.3.5.4.1 0 .8.6.9.6.1 0 .2-.1.3 0h.1s.1.1.2.1c-.2.1-.5.3-.7.4 0 0-.3.2-.2.2h.3s-.1 0-.3.1c.4.1.7.2 1.1.3.2-.2.5-.5.8-.6 0 0 .4 0 .6-.3 0-.1.2.2.6 0 0 0 .1.1.2.1 0 0-.2 0-.1.2 0 0-.3 0-.4.2 0 .1-.7 0-1.3.5.1 0 .2.1.3.1.2-.1.4-.2.7-.2 0 0 .4 0 .5.4.2 0 .4.1.7.1.1 0 .4-.2.2-.4 0 0-.1-.1-.2 0 0 0-.1.1-.1 0v-.1s-.1-.1.1 0h.2c.1 0 .2-.1.2-.2s-.1-.2-.2-.2v.1s0 .1-.1.1-.1-.3.1-.3c0 0 .2 0 .3.2 0 0 .3.4.6.5 0 0 0 .2.1.2 0 0 0 .1.2.1 0 0 0 .1.1.2h1c0-.1.1-.2.1-.2.2 0 .2-.1.2-.1.2-.1.1-.2.1-.2.3-.1.6-.5.6-.5.7.8.8.8.8.8.2 0 .2.3.1.3 0 0-.1 0-.1-.1v-.1c-.1 0-.2.1-.2.2s.1.2.2.2h.3v.1c0 .1-.1 0-.1 0-.1-.1-.2 0-.2 0-.1.2.2.3.2.4.2 0 .5-.1.7-.1.2-.4.5-.4.5-.4.3 0 .5.1.7.2.1 0 .2 0 .3-.1-.6-.5-1.2-.5-1.3-.5-.1-.2-.4-.2-.4-.2 0-.2-.1-.2-.1-.2.1 0 .2-.1.2-.1.4.2.5-.1.6 0 .1.3.6.3.6.3.3.1.6.4.8.6.3-.1.7-.2 1-.3v-.2c-.1-.1-.2-.3-.2-.3s.2-.4.4-.1c0 0 0 .1-.2.1 0 0 .2.3.2.5.1 0 .1 0 .2-.1-.1-.2-.2-.3-.2-.4 0 0 .2 0 .2-.1 0 0 0-.2.1-.3.1.1.2.1.2.1.2 0 .3-.4.3-.5l.2-.1c.1.2.5.4.4 0 .1.2.1.4.3.4s.1-.3.1-.3c0 .1.1.4.4.3.1 0 .1-.1.1-.2 0-.3-.9-1.9-1-2.6-.1 0-.1-.2-.1-.3-.1 0-.3-.1-.3-.4s.1-.4.1-.4c-.1.2-.1.5 0 .6 0 0 .1.1.2.1 0-.1.1-.1.1-.1-.1.1-.1.3 0 .4 0 0 .1.1.2.1.2-.1.4-.6.4-.7.2 0-.3 1 .1 1.2.1 0 .2-.2.3-.3.1.3-.3.9 0 1 .2.1.3-.5.3-.4.1.8-.4 1.2-.1 1.3.2.1.3-.5.3-.5 0 .8-.4 1.1-.2 1.2.2.1.4-.4.4-.3 0 .8-.4 1-.2 1.2.2.3.6-.5.6-.3s-.4 1-.2 1.1.3-.2.3-.3c.5-2.2.5-4.3.5-5"/><g><path class="st2" d="M-27.7 100.9l.1-.1h-.2zm-.4-.7l.4.4c.1-.2-.5-.2-.4-.4m0-.1c0-.2-.1-.2-.2-.3.1 0 .1.3.2.3m-2-11.4c0-.1 0-.1 0 0m37-60.3c0 .1 0 .1 0 0 0 .1 0 .1 0 0m4.5-6.7v-.1.1zm0 .2v-.2.2m-.9.5c-.1 0-.1 0 0 0"/></g></svg>