<svg xmlns="http://www.w3.org/2000/svg" viewBox="0 0 150.2 136.1"><style>.st0{fill:#eb3c46}.st1{fill:#0f69b4}.st2{fill:#fff}.st3{display:none}.st4{display:inline}</style><g id="Gobierno_de_Chile"><path class="st0" d="M61.3 0h88.9v136.1H61.3z"/><path class="st1" d="M0 0h61.3v136.1H0z"/><path class="st2" d="M36.3 26.5v2.1c.4-.9.2-1.6 0-2.1m4.4-12.4c-.1.2-.4.2-.4.4-.2-.2.2-.7.4-.4m1.5-.1c.2-.1.4-.5.7-.3.1.1.3.2.4.3.2.1.3.2.4.4.1.2-.2.6-.4.2-.2-.3-.4-.8-.8-.6-.3.2-.6.4-.6.2-.1-.2.2-.2.3-.2m0 .3c.1-.2.2.5.7.3-.4.5-.9 0-.7-.3m-1.8.7c.1 0 0-.3.2-.3s.6.2.7.4c.1.3-.2.9.7 1v.3c0 .2-.1.3-.1.5h.2c1.1.1 1.8 0 2.1-.4 0 0 .2-.2.3-.4.3-.6.3-1.1.2-1.6v-.1c0-.1 0-.1-.1-.2-.3-.5-.9-1-1.8-1.3h-.2.2c.6.1 1.7.7 1.9 1.3.2-.1.4-.5.4-.8 0-.1 0-.4.1-.8 0-.1 0-.2-.1-.3-.1 0-.2 0-.2.1-.2.3-.5.1-.4-.2 0-.1 0-.2-.1-.3-.1 0-.2 0-.3.1-.1.3-.5.1-.4-.2.1-.1 0-.2-.1-.3-.1 0-.2 0-.3.1-.1.3-.5.1-.4-.2 0-.1 0-.2-.1-.3-.1 0-.2 0-.2.1-.1.2-.2.4-.3.5.7.1 1.4.5 1.9 1 0 0 .2.2.2.3v.1c-.1-.1-.1-.2-.2-.2-.8-.6-1.4-.9-2-1-.4 0-.3.5-.2.7-.6-.1-1.1.3-1.1.8 0 .2 0 .3.1.5l-.2-.2c0-.1-.1-.2-.1-.3-.5 0-1 .3-.9.8.2.5.5.8.6.8m14 21.6c-.4-.4-1.3-.2-1.3-.2.5-1.5-.9-1.9-.9-1.9-.5-.1-.8 0-1 .1 0 0-.1 0-.1.1-.1.1-.2.3-.2.5 0 .4.3.7.7.7.2 0 .3 0 .4-.1.1-.1.2-.3.3-.4.2.1.3.3.3.3.4 1.3-1 1.7-1 1.7-3.2.9-5.1-.7-5.1-.7l.6-.3c.2-.1.4-.1.5-.1v.1c0 .3.3.6.6.6s.6-.3.6-.6c0-.1 0-.2-.1-.3V36c-.4-.6-1.7-.2-1.7-.2.4-1 0-1.8 0-1.8-.2-.4-.2-.5-.2-.5 0-.4-.1-.4-.1-.4-.2-.3-.5-.1-.5-.1-.5.1-.6-.1-.6-.1-.4-.3-.6-.1-.6-.1-.2.1.1.4.1.4-.5 0-.6.6-.6.6-.2 1 .6 1 .6 1 .6 0 .6-.4.6-.4.1-.4-.6-.5-.6-.5.1-.3.3-.3.3-.3.7-.2 1 .6 1 .6.5.8-.1 1.6-.1 1.6-.1.1-.2 0-.2 0-.4-.2-.9-.6-.9-.6H45c-.2 0-.5.1-.7.2.3.3 1.1 1 1.1 1-.6.5-1 .2-1 .2-.3-.3-.2-.9-.2-1.1h-.1c-.3.1-.6.2-.9.4.3.5.8 1.3.8 1.3-.7.3-.9-.7-.9-1.2-.1.1-.3.1-.4.2v.2c0 .5.5 1.2.5 1.2-.5-.1-.8.2-.8.2-.3.3-.3.7-.3.8 0 .2.2.3.4.3s.4-.2.4-.4-.2-.4-.3-.4c.2-.4.5-.1.5-.1.6.5-.3 1.1-.3 1.1-.6.4-1.2-.4-1.2-.4.7-1.2.8-2 .8-2.5-.2.1-.5.2-.7.2.3 1.1-.4 1.7-.4 1.7-.2-.1-.2-.7-.2-.7-.1-.2-.1-.5-.2-.7-.2.1-.4.1-.6.2.2.7.3 1.6.3 1.6-.1.1-.5.2-.5.2-.5 0-.2-.2-.2-.2.3-.2.2-.4.2-.4-.2-.4-.7 0-.7 0-.8.4-.5.9-.5.9.1.3.9.5.9.5-.4.3-1.2.2-1.3.2 0-.2-.2-.4-.4-.5-.3 0-.4.1-.5.2 0 0-.1.1-.1.2l-.5-.1c-.3 0-.5-1-.6-1.8H36c.1.9.3 1.6.3 1.6-.2 0-.8-.5-.8-.5-.8-.5-1.4-.4-1.4-.3-.4.1-.7.4-.7.9s.4.9.9.9.9-.4.9-.9c.3.2.6.3.6.3.8.5 1.6.6 1.8.6.1.3.3.5.6.5.2 0 .5-.1.6-.3 1.7-.1 2.4-.8 2.4-.8.2-.2.2-.1.2-.1.6.9 1.9.4 1.9.4.2-.1.3 0 .3 0 .3.4.6.2.6.2.5-.3.2-.6.2-.6-.2-.2 0-.2 0-.2.6.1.7-.2.7-.2.1-.3-.3-.5-.3-.5-.1-.1.1-.3.1-.3.3-.2.3-.4.3-.4.4 0 .4-.2.4-.2 0-.2-.5-.2-.5-.2-.4 0-.3-.3-.3-.3.6 0 1.6-.3 1.6-.3 1.4 1.1 3.5 1.4 3.5 1.4v.5c-.2 0-.3.1-.3.3 0 .2.2.3.3.3h.1c.7-.2.7-1.2.7-1.2 1.9.2 3.2-1.2 3.2-1.2.2-.2.3-.1.3-.1.1.1.2.2.4.2s.3-.1.4-.2c.1-.1.1-.2.1-.3-.6 0-.7-.1-.7-.1M31.5 39c.2-.1.2-.3.2-.3 0-.5-.3-.8-.4-.8h-1.4s-.4.2-.3.8c0 0 0 .2.2.3 0 0-.5.2-.5.5 0 0-.1.2.4.6 0 0 .3.3.4.6 0 0 0 .4.5.4s.5-.4.5-.4c.1-.3.4-.6.4-.6.4-.3.4-.6.4-.6.1-.3-.4-.5-.4-.5m3.5-2.1h.3l-.2-.3zm-8.4 0l.3.1-.1-.4zm-.9-.7c-.1 0-.1 0 0 0l-.1.4h.2s.1 0 .1-.1v-.3c-.1.1-.2.1-.2 0m3.6.3c-.1 0-.2 0-.2.1s-.1.2-.1.3c0 .2 0 .3.1.3 0 .1.1.1.2.1s.2 0 .2-.1.1-.2.1-.3c0-.1 0-.3-.1-.3s-.1-.1-.2-.1m3.1 0c-.1 0-.1 0-.2.1 0 .1-.1.2 0 .3 0 .2 0 .3.1.3 0 .1.1.1.2.1s.2 0 .2-.1.1-.2.1-.3c0-.1 0-.3-.1-.3s-.2-.1-.3-.1m-8.6 0l.3.1-.1-.4zM19 34.6l-.1.4h.2l.1-.1v-.1s0-.1-.1-.1c0 0 0-.1-.1-.1m1 .5c-.1.1-.1.1-.2.3 0 .2-.1.3 0 .3 0 .1.1.1.2.2h.2c.1 0 .1-.1.2-.3 0-.1.1-.3 0-.3 0-.1-.1-.1-.2-.2s-.1-.1-.2 0m1.4.3l-.1.4h.3s0-.1.1-.1v-.2c-.2-.1-.2-.1-.3-.1"/><path class="st2" d="M40.2 35.4H40l.1.4c.1 0 .1 0 .2-.1l.1-.1v-.1c-.1 0-.2-.1-.2-.1m2.1-.1l.2-.1-.2-.2z"/><path class="st2" d="M42.6 35.5v-.1l-.1-.1-.3.1v.2h.1v.1l-.3.1v-.1c.1 0 .1-.1.1-.2v-.9h.1l.6.6.1.1h.1v.1l-.4.1zm-1.5.6l.3-1.1-.2.1c-.1 0-.2.1-.2.1v.2h-.1l-.1-.3.8-.3v.1l-.3 1 .2-.1c.1 0 .1 0 .1-.1 0 0 0-.1.1-.1v-.1h.1l.1.3-.8.3zm-.5.1l-.2-.2-.1-.1h-.2l.1.2v.1h.1v.1l-.5.1v-.1s.1 0 .1-.1v-.1l-.2-.6v-.1h-.1v-.1l.4-.1h.4s.1 0 .1.1l.1.1c0 .1 0 .2-.1.3l.2.2c.1.1.1.1.2.1h.1v.1l-.4.1zm-1.9.5c0-.1.1-.1.1-.1v-.1l-.1-.6v-.1h-.1v-.1l.8-.2.1.3h-.1l-.1-.1h-.4l.1.3h.2v-.1h.1l.1.3h-.1v-.1h-.2l.1.2v.1h.2c.1 0 .1 0 .1-.1 0 0 0-.1.1-.1v-.1h.1l.1.3-1.1.3zm-.4-.7l.1.3v.3l-.1.1c-.1 0-.1.1-.2.1h-.2c-.1 0-.1 0-.2-.1l-.1-.1v-.2l-.1-.4v-.1h-.1v-.1l.5-.1v.1h-.1v.1l.1.4c0 .1 0 .1.1.2 0 0 0 .1.1.1h.2c.1 0 .1 0 .1-.1l.1-.1v-.2l-.2-.2c-.1-.1-.2-.1-.3-.1v-.1l.4-.1v.1h-.1v.2c-.1-.1-.1 0 0 0m-1.2.2s0-.1-.1-.1h-.4l.1.4h.2v-.1l.2-.2v.4H37v-.1h-.2v.4h.1v.1l-.5.1V37h.1v-.1l-.1-.6v-.1h-.1v-.1l.8-.1v.2zm-1.8 1.1c0-.1.1-.1.1-.1v-.1L35 37v.2h.1v.1h-.3v-.1c.1 0 .1-.1.1-.2l.2-.8h.1l.4.8c0 .1.1.1.1.1h.1v.1l-.5.1zm-1.6.1l.1-.1v-.1l-.1-.6v-.1h-.1v-.1h.5v.1H34v.8h.1c.1 0 .2 0 .2-.1 0 0 .1-.1.1-.2h.1v.3l-.8.1zm-.8-.1c-.1.1-.2.2-.4.2-.1 0-.2 0-.3-.1-.1 0-.2-.1-.2-.2s-.1-.2-.1-.3c0-.1 0-.2.1-.3 0-.1.1-.2.2-.2.1-.1.2-.1.3-.1.2 0 .3 0 .4.1.1.1.2.2.2.4-.1.3-.1.4-.2.5m-1.7-.7c-.1 0-.1 0 0 0-.1 0-.1.1-.1.1v.9H31l-.7-.8v.6h.1v.1H30v-.1h.1v-.7c0-.1 0-.2-.1-.2v-.1h.3l.6.6v-.4c0-.1 0-.2-.1-.2v-.1l.4.3zm-1.5.8c-.1.1-.2.1-.4.1-.1 0-.2 0-.3-.1-.1-.1-.2-.1-.2-.2s-.1-.2 0-.3c0-.1 0-.2.1-.3.1-.1.1-.2.2-.2s.2-.1.3-.1c.2 0 .3.1.4.2.1.1.1.2.1.4-.1.2-.1.4-.2.5m-1.3-.9l-.6.8h.3s.1 0 .1-.1l.1-.1h.1v.3l-.9-.1v-.1l.6-.8h-.4l-.1.1h-.1v-.3l.9.3zm-1.1.9h-.5v-.1h.1v-.2h-.3v.2h.1v.1h-.3v-.1c.1 0 .1 0 .2-.1l.4-.8h.1l.2.8c0 .1 0 .1.1.1-.1 0-.1 0-.1.1zm-1.1-.1h-.3s-.1-.1-.1-.3c0-.1-.1-.1-.1-.1h-.1v.3h.1v.1l-.5-.1v-.1h.1V37l.1-.6v-.1h-.1v-.1l.4.1h.3s.1 0 .1.1l.1.1v.1c0 .1-.1.2-.2.2 0 0 .1.1.1.2s.1.2.1.2v.1zm-1.7-.3l-.5-.1v-.1h.1v-.2l-.3-.1v.2h.1v.1l-.3-.1v-.1c.1 0 .1 0 .2-.1l.4-.7h.1l.2.8c0 .1 0 .1.1.2-.1.1-.1.1-.1.2zm-1.1-.2l-.9-.2v-.1h.1v-.1l.1-.6v-.1h-.1v-.1l.5.1v.1H23v.1l-.1.6v.1h.3c.1 0 .1-.1.1-.2h.1v.4zm-1.7-.7c0 .1.1.2.1.2h.1v.1l-.3-.1s0-.1-.1-.3v-.3h-.1l-.1.2v.1l.1.1v.1l-.5-.1V36h.1v-.1l.2-.6v-.1h-.1v-.1l.4.1h.1c.1 0 .1 0 .2.1 0 0 .1 0 .1.1l.1.1v.1c0 .1-.1.2-.3.2-.1.1-.1.2 0 .3m-1.1-.5c0 .1-.1.2-.3.3-.1.1-.3.1-.4 0-.1 0-.2-.1-.3-.2-.1-.1-.1-.2-.1-.3v-.3c0-.1.1-.2.2-.2.1-.1.2-.1.3-.1h.3c.2.1.3.1.4.3 0 .2 0 .4-.1.5m-1.1-.6c0 .1-.1.1-.1.1h-.2c-.1 0-.1 0-.2-.1h-.1l-.1.2v.1l.1.1v.1l-.5-.2v-.1h.1l.1-.1.2-.6v-.1l-.1-.1v-.1l.4.1c.1 0 .2.1.2.1.1 0 .1.1.1.1l.1.1v.4m9.8 1.1h.3l-.4.2h-.1l.2-.2zm13.6-2.2h-.2c-.5.1-4.8 2-12 2s-11.5-1.9-12-2h-.2c-.1 0-.3 0-.4.1l-1.5 1.2c.4 0 .9.2.9.2 3.8 1.7 8.2 2.4 13.1 2.4s9.3-.7 13.1-2.4c0 0 .5-.2.9-.2L43.3 34c-.1-.1-.3-.1-.4-.1M25.5 19.4c-.1.1-.3.2-.5.3h1.1c-.3-.1-.5-.2-.6-.3m7.2.3c-.2-.1-.4-.2-.5-.2h-.1c-.2-.1-.4-.2-.6-.2h-2.3c-.2.1-.4.1-.6.2h-.1c-.1 0-.3.1-.5.2h-.1 4.8c.1 0 0 0 0 0m3-.3c-.1 0-.1 0 0 0-.1.1-.3.2-.5.3h1c-.2-.1-.4-.2-.5-.3m-10.8 9.2v-2.4c-.2.5-.5 1.5 0 2.4m5.6-8.6h-5.9c0 .1 0 .1.1.2 0 0 .1.1.2.3h5.5l.1-.5zm-.3.8H25c.1.1.2.3.3.5h4.8l.1-.5zm-.4 1.3l.1-.5h-4.5c.1.2.1.3.2.5h4.2zm-.1.3h-4.1c0 .2.1.3.1.5h3.8l.2-.5zm-4 2.1h2.2l-.7-.5h-1.4c-.1.1-.1.3-.1.5m.1-1.3v.5h.9l-.7-.5h-.2z"/><path class="st2" d="M32.8 25.2h.3v3l-.3-.9v-2.1zm-2.3-.6l2.6 3.7v1.9h.5v-4.9h.3v4.9c.2 0 .3 0 .5-.1v-4.8h.3V30c.2-.1.3-.1.5-.2v-4.6h.3v4.4c.2-.1.3-.2.4-.4V26c-.2-.3-.3-.5-.4-.7-.1-.2-.1-.3-.2-.5h-2.7l-.6.4-1.2-.4-.3-.2 4.4-1.4h-3.5l-.1-.3h3.9c0-.2.1-.3.1-.5h-4.1l-.1-.3h4.3c.1-.2.1-.3.2-.5H31l-.1-.3h4.9c.1-.2.2-.3.3-.5h-5.3l-.1-.3h5.6c.2-.2.3-.4.3-.4V20h-6.1v-.1 4.7z"/><path class="st2" d="M31.5 30.7c.2-.1.3-.2.5-.2v-2.9l-.5-.4v3.5zm-.8 1c.1-.1.1-.2.2-.3.1-.1.2-.3.3-.4v-4.1l-.5-.4v5.2zm-.8-.8c.1.1.3.3.4.5 0 0 0 .1.1.1v-5.1l-.5.4v4.1zm-.7-.5c.2.1.3.1.5.2V27l-.5.4v3zm3.1-.1c.2 0 .3-.1.5-.1v-2.1l-.5-.4v2.6zm-3.9-.1c.1 0 .3.1.5.1v-2.7l-.5.4v2.2z"/><path class="st2" d="M28.1 25.2h.3v1.4l-.3.9v-2.3zm-2.4 4.3v-4.3h.3v4.5c.1.1.3.1.5.2v-4.7h.3V30c.1 0 .3.1.5.1v-4.9h.3v4.9h.5v-2l-.3.2 2.7-3.8-1-1.4H26l4.4 1.4-1.6.6-.6-.4h-2.7c0 .1-.1.3-.2.5 0 .1-.1.2-.2.4v3.5c.2.1.4.3.6.4m7.4-5h2.2c0-.2-.1-.3-.1-.5h-1.4l-.7.5zm2.1-1.3h-.3l-.7.5h1v-.5m-11.5-13c.7-.2 1.4 0 1.7.4 1.1 1.1.5 2.6.2 2.7.2-.6.3-1.6-.6-1.8-.8-.2-1.5.4-1.8.7.2-.7 1-1.2 2-1-.2-.6-1-.8-1.9-.4-.2.1-.4.3-.5.4.1-.5.5-.9.9-1m-.1 3.6c.5-.1 1-.4.9-.9 0-.1-.2-.3-.4-.3-.3 0-.5.2-.7.4 0-.5.3-.8.8-.7.3 0 .6.3.7.5.2.7-.5 1-1.3 1m3.7-1.8c.4.7 1.6 1.6 3 2 .5.1.7 1.7.3 2.5-.5 0-.5-.3-.6-.7.2.2.5.4.5 0-.2-.1-1.2-.4-.9-.9.2-.2.7.7.9.4.1-.7-2-.9-1.9-1.4 0-.3 1.6.8 1.8.8 0-.3-2.4-1.3-3.1-2.6 0-.1-.1-.1 0-.1 0-.1 0-.1 0 0m4 3c.1.6.2 1.4-.1 1.9-.2 0-.1-.3-.1-.4 0-.7 0-1.3-.2-1.9-.1-.3-.3-1.2-.9-2.3.3.2 1.2 1.6 1.3 2.7m.6-2.2c.4.2-.2 1-.3 1.2.1 0 .4-.4.6-.3.2.2-.5 1.1-.6 1.1-.9-1.2.3-1.5.3-2M33.3 8c0 .5-.2.6-.3.6v-.1c.1-.3.1-.9-.2-1.2-.2-.2-.5-.3-.5-.4-.1.1.8.3 1 1.1m-1.6 7.6c-.2-.3.3-.7.4-1.1.6 0-.1 1-.4 1.1m.1.9c-.1-.1-.1-.3-.1-.4 0-.3.4-.5.6-.6 0-.1 0 .5-.5 1m5.9-6.8c.3.1.6.4.8.8.2.4.1.8 0 1 0-.2 0-.6-.2-.9-.1-.2-.2-.4-.5-.5.1.2.2.4.3.5.1.2.1.3.1.4 0 .4-.2.9-.4 1.1.2-.5.2-1 .1-1.4 0 0 0-.1-.1-.1-.2-.3-.4-.6-.9-.6.2.1.4.4.5.6.2.5.2 1.2-.1 1.4v-.8c-.2-1-1-1.3-1.6-.7 0-.1.6-1.3 2-.8m-14.8 4.5c.9.5 2 .4 2.4.3.2 0 .4-.1.7-.3 0 0 .1 0 .1-.1.3-.3.6-.8.5-1.4 0 0 .1.2.1.4s-.1.5-.2.7v.1c0 .1 0 .2.1.2.2.2.6.2.9.1 0 0-.2.3-.6.3h-.2c.2.4.8.6 1.5.6 0 0-.2.1-.4.1-.3 0-.6-.1-.9-.2.3.4.8.7 1.7.8 0 .1-.7 0-.9 0 .4 1.6 1.3 1.4 1.3 1.5-.3.1-.4.4-.3.7.9-.3 1.6-.4 1.8-.4.2 0 .9 0 1.8.4.1-.1.1-.3.1-.4-.1-.4-1.4-.7-2.5-.4 0 0-.1 0-.2.1l.2-.1c.5-.3 1.6-.4 2.1-.1.5.2.9-.4.8-.7.4 0 .6-.2.7-.6-.1 0-.1.1-.2.1-.1.1-.3.1-.3.1.1 0 .1-.1.2-.1.7-.4 1-1.2.9-1.4-.1.1-.3.3-.5.3h-.2c.1 0 .2 0 .2-.1.2-.2.5-.5.6-.7-.4-.4-.6-.9-.8-1.5.1-.2-.1-.5-.4-.5h-.2c.3-.3.7 0 .9.1 0-.6.2-.7.3-.7-.4 1.2.4 2.4 1 2.8.9.5 2.4.5 3.4-.3-.2.1-.4.1-.6.1-.2 0-.4 0-.4-.1h.4c1.5-.4 1.5-2.2 1.3-2.3 0 .1-.1.2-.1.3-.1.2-.2.3-.2.3.3-.6.3-1 .1-1.6-.1-.3-.3-.6-.6-.8-.7-.5-2.2-.6-3 0-.3-.3-.6-.5-1.1-.6-.1.5-.6 1.1-1 1.4-.1.1-.3.2-.4.2 0 0-.1 0 0-.1.8-.5 1.2-1.1 1.2-1.8 0-.4-.1-1.1-.6-1.6-.7-.8-2.7-.9-3.5-.1-.2.2-.4.5-.5.9.1-.3.3-.5.7-.7.4-.1 1.1 0 1.3.4-.7-.7-1.9-.2-2 1 0 .1-.1.1-.1.1s-.1 0-.1-.5c0-.3.1-.7.3-1.1-1.5-.3-3.3.5-3.2 2.7 0 .3.1.6.4.9.1.1 0 .1 0 .1s-.2-.1-.3-.3c-.1-.2-.3-.5-.3-.7-.9-.3-1.5-.3-2-.3-.5.1-1.3.5-1.5.9-.1.1-.2.4-.3.5-.2.4-.3.8-.3 1.3-.2.7.3 1.5.9 1.8"/><path class="st2" d="M14.3 35.5s0-.1 0 0c-.1-.1-.2-.1-.3-.2-.1.1.1.3.2.4l-.1.1h-.2c-.2-.1-.2-.3-.2-.5 0-.1-.1-.4-.3-.5.4-.2.9.3.9.4.1.1.2.1.3.2l.1.1h-.4m4.2-18.4c.8.1 1.7.1 2.2.4h.1c.2.1.6.5.8 1.1-.7-.4-1-.5-1.5-.8-.7-.1-1.4-.2-1.6-.7m-1-1.5c.5.2.6-.5.7-.3.2.3-.4.8-.7.3m-.5.1c-.2-.4.5-1 .7-1.1.4-.1.7.1 1.1.2h.7c.5 0 .3.4.3.4-.4.1-.6-.2-1-.2-.2 0-.5.1-.7.1-.2 0-.4-.2-.6 0 0 0-.3.2-.2.5 0 .1-.2.2-.3.1m7.2 7.1c-.2 0-.2-.7-1.1-.5-.5.2-.8.1-1.1 0 1.3-.7 2.3 0 2.2.5m.1 1.3c.1.1.2.4.2.7v1.8s0 .1-.1.1v.2s0 .1-.1.1l-.1.1s-.1 0-.1.1h-.2v-.1c0-.1.1-.2.2-.4.1-.1 0-.2.1-.3.1 0 .2 0 .3-.1-.2-.2-.2-.5 0-.8.1-.5-.2-1.3-.2-1.4m.5 1.8c.8-1.4.7-2.4.7-2.6 0-1.6-1-2.8-1.1-2.9-.1-.1-.1-.2-.1-.3 0-.1.1-.2.2-.2.2-.2.7-.5.9-.6l.1-.1h.1c.1 0 .1 0 .2.1.2.2.6.4 1.2.4h.3c.3 0 .9-.3.9-.3.2-.1.4-.2.5-.2.9-.4 1.7-.4 1.9-.4.2 0 1 0 1.9.4h.1c.1 0 .3.1.5.2 0 0 .6.3.9.3h.4c.6 0 1-.3 1.2-.4.1-.1.1-.1.2-.1h.1l.1.1c.2.1.7.4.9.6 0 0 .1.1.1.2s0 .2-.1.3c-.1.1-1.1 1.3-1.1 2.9 0 .2-.1 1.2.7 2.6 0 .1.9 1.7-.1 3.2-.1.1-.9 1.3-2.9 1.3-.2 0-1.8 0-2.4 1.1-.1.1-.3.4-.4.6l-.1.1s-.1 0-.1-.1c-.1-.2-.3-.5-.4-.6-.6-1-2.2-1.1-2.4-1.1-2 0-2.8-1.2-2.9-1.3-.9-1.6 0-3.2 0-3.2m11.8-1.1c.1-.1.2-.1.3-.1h.4s.2.2.2.5c0 .1.1.4.2.5.1.1.1.3-.2.3-.3-.1-.6-.5-.5-1h-.4c-.1.1-.1.2-.2.2 0-.1.1-.3.2-.4m1.3 1.5v1c0 .2 0 .5-.1.6v.1l-.1.1h-.5l-.1-.1s-.1-.2.1-.3l.1.1h.2v-.3c0-.4 0-.8.1-1 .2-.3.2-.3.3-.2-.1-.1-.1-.1 0 0 0-.1 0 0 0 0m2.7 1.9c.5.2 1.2.1 1.5-.2h.1c.1.1 0 .4-.6.5-1.1.1-1.8-.9-1.7-.9 0 .1.3.4.7.6m-1-9.4c-.1.3-.4.6-.7.6-.6.1-1.2-.3-1.2-.4 0-.1.5.2 1 .2.4 0 .7-.3.9-.4 0-.1.1-.1 0 0m-2.2-3c-.1.1-.1.1 0 0-.4-.2-1.1-.2-1.6.1-.4.2-.6.5-.7.6-.1 0 .6-.9 1.6-1 .6 0 .7.3.7.3M45 19c.1 0 .3 0 .4-.1.1 0 .2-.2.4-.2.1.1-.1.1-.1.2-.1.1-.5.3-.7.3-.4.1-.8 0-1-.3.3-.1.6.2 1 .1m1.3-1.8c.1-.4.6-.8.6-1 0-.2-.3-.5-.3-.8 0-.5.3-1 .8-.9.3.1.5.3.7.6l.2.2c.6.7 1 1.9 1.3 2.9.8 2.9 1.2 7.5.2 12.6-.1.4-.3 1.5-.3 1.5.9-8.4.4-10.5.3-10.4-.1 0-.3 1-.7.7-.5-.3 1-2.1.4-3.2-.1-.2-.3.2-.5.2-.6-.2.3-1.8.2-2-.1-.1-.6-.2-.6-.8 0-.3.2-.5 0-.7-.2-.2-.1.2-.3.1-.3-.3 0-.7-.2-.9-.1-.1-.3.2-.4.1-.2-.1.1-.4-.1-.5-.3 0-.7.3-.6.8 0 .2.3.4.3.6 0 .2-.3.5-.3.6-.4.9.3 1.1.2 1.4 0 .2-.3.2-.5.2-.5-.1-.5-1-.4-1.3m-5.2 15.6c-.3.1-.8-.3-.8-.3-.1 0-.3-.2-.5-.1s-.3.3-.4.4v-.4h.1c.1-.1.2-.1.4-.1s.4.1.5.2c.2.2.5.2.7.2.1-.2 0 0 0 .1M22 31.7c0 .1 0 .1 0 0-.1.1-.2.1-.2.1h-.3c0 .1 0 .1.1.2h.1c.1 0 .1 0 .1.1s-.2.2-.3.2c-.2 0-.3-.2-.4-.4H21c-.2-.1-.4-.1-.7-.1 0-.5 1.3-.1 1.3-.1.1-.1.3-.1.4 0m5.8 6.8s-.6-.2-1.4.3c0 0-.7.5-.8.5 0 0 .2-.8.3-1.6h-.4c-.1.8-.3 1.7-.6 1.8l-.5.1c0-.1 0-.1-.1-.2s-.2-.2-.5-.2c-.2.1-.4.2-.4.5-.1 0-.9.1-1.3-.2 0 0 .8-.3.8-.5 0 0 .2-.4-.5-.9 0 0-.6-.3-.7 0 0 0-.1.2.2.4 0 0 .3.3-.2.2 0 0-.4 0-.5-.2 0 0 .1-1 .3-1.6-.2-.1-.4-.1-.6-.2-.1.2-.2.4-.2.7 0 0 0 .6-.2.7 0 0-.7-.6-.4-1.7-.2-.1-.5-.1-.7-.2 0 .5.1 1.3.8 2.5 0 0-.6.8-1.2.4 0 0-.9-.6-.3-1.1 0 0 .4-.3.5.1-.2 0-.4.2-.4.4s.2.4.4.4.4-.2.4-.3c0-.1 0-.5-.3-.8 0 0-.3-.3-.8-.2 0 0 .5-.6.5-1.2v-.2c-.1-.1-.3-.1-.4-.2 0 .5-.2 1.5-.9 1.2 0 0 .5-.8.8-1.3-.3-.1-.6-.2-.9-.4h-.1c0 .2.1.8-.2 1.1 0 0-.4.3-1-.2 0 0 .8-.7 1.1-1-.2-.1-.4-.1-.7-.1h-.2s-.5.4-.9.6c0 0-.1.1-.2 0 0 0-.7-.8-.2-1.6 0 0 .3-.7 1-.6 0 0 .2 0 .3.3 0 0-.6 0-.6.5 0 0 0 .5.6.4 0 0 .8-.1.6-1 0 0-.1-.6-.6-.6 0 0 .3-.3.1-.4 0 0-.2-.2-.6.1 0 0-.1.2-.6.1 0 0-.3-.1-.5.1 0 0-.1 0-.1.4 0 0 0 .1-.2.5 0 0-.1.3-.2.7-.2-.1-.3-.2-.5-.2-.3-.3-.3-1.5-.6-2.2-.1-.1.1-.8.1-1.5 1.9-.4 2.6-1.9 2.8-2.5.3-1.1-.1-2.1-.1-2.4.1.2.2.3.2.5.9.1 1.6-.1 2-.2h.2c.1 0 .2-.1.2-.1h.1c1.3-.7 1.9-1.8 2.3-2.4-.2 0-.8-.2-1-.5.5 0 .9.2 1.4.2.7 0 1.2-.4 2-.3 0 0 .1.4.6.6 0 .5 0 .8.2 1.2 0 .1.1.1.1.1s-.6.5-.4.9c0 .1.1.2.1.3H24c-.1 0-.2.1-.3.3-.1.1-.4.8-.1.8h.1c-.1.7-.1 1.6.4 2.4 0 .1.9 1.5 3.2 1.5.2 0 2.3 0 3 1.4 0 .1.2.3.4.3s.3-.2.4-.3c.7-1.4 2.8-1.4 3-1.4 2.3 0 3.2-1.4 3.2-1.5.3-.4.4-.8.5-1.3.5-.3.4-1.3.4-1.5.1.2.4.7 1 .8-.1.5-.1 1.3.5 1.4.2 0 .3-.2.3-.4.5 1.3.1 2.1.4 2.2.4 0 .5-.8.5-.8 0 .1.2.3.2.6 0 .4-.1.8.1.9.6.1.3-1.7.8-1.5-.1.8 0 1.2.3 1.3 0 .4 0 .7-.2.7-.9.2-1.7-.5-2.4-.3-.1 0-.1-.1-.1-.1-1.4-.7-2.3-.2-2.3-.3-.4-.4-.5.2-.7.1-.7-.4-1.1.3-1.3.3-.2 0-.5-.4-.8.5-.2.4-1 .5-1 .5-.3 0-.4-.2-.4-.2 0-.1-.1-.2-.1-.2 0-.1-.1-.1-.1-.2-.1-.1-.2-.1-.3-.1-.2 0-.4.2-.4.5 0 .1 0 .2.1.3 0 0 .1-.1.2-.1.2 0 .3.1.3.3 0 .4-.5.7-.5.7-.3.3-.7-.1-.7-.1-.2-.2-.4-.2-.4-.2-.2 0-.3.3-.3.3s-.1-.3-.3-.3c0 0-.2 0-.4.2 0 0-.4.4-.7.1 0 0-.6-.4-.5-.7 0-.2.1-.3.3-.3.1 0 .2.1.2.1.1-.1.1-.2.1-.3 0-.2-.2-.4-.4-.5-.1 0-.2 0-.3.1 0 0-.1.1-.1.2s-.1.1-.1.2c0 0-.1.2-.4.2-.1 0-.9-.2-1-.5-.8-.8-1.1-.4-1.3-.4-.2 0-.6-.7-1.3-.3-.1.1-.3-.5-.7-.1-.1.1-.8-.4-1.9 0-.1-.1-.4-.2-.5-.2l-.6-.3c-.3-.2-.8-.1-1.2-.1-.1 0-.3-.1-.5-.2-.5-.3-1-.6-1.3-1l-.2-.2c-.1-.2-.2-.3-.3-.6-.2-.6.1-1.2.2-1.7 0-.3 0-.4.1-.5-.4.1-1 .1-1.7-.1.2.6.2 1.2.1 1.7.3.2.4.6.5.7 0 .3-.1.6.1.8.2.3.8.7 1.1.9.1.1 1.7 1.3 1.9 1.3.2 0 .4-.1.6-.1.1 0 .1.1.2.1l.3.3c-.5.3-1.1.7-1.5.9 0 0-.7.4-.4.4 0 0 .5 0 .5.1 0 0-.2.1-.5.2.7.3 1.5.5 2.3.7.5-.5 1.1-1 1.7-1.2 0 0 .9 0 1.2-.6.1-.2.5.4 1.2-.1.1 0 .2.2.4.2.1 0-.3.1-.2.4 0 0-.6 0-.8.4-.1.1-1.4.1-2.6 1.1.2.1.5.1.7.2.4-.3.9-.5 1.4-.5 0 0 .7 0 1.1.9.5.1.9.1 1.4.2.1-.1.8-.4.5-.8 0 0-.2-.2-.4.1 0 0-.2.2-.2-.1 0 0 0-.1-.1-.3 0 0-.1-.2.1-.1 0 0 .2.1.5 0 .2 0 .4-.2.4-.4s-.2-.5-.4-.5h-.1l.1.1c0 .1-.1.2-.2.2-.3-.1-.2-.6.2-.6 0 0 .3 0 .6.3 0 0 .6.9 1.2 1.1 0 0-.1.3.3.4 0 0 0 .3.4.3 0 0 .1.1.2.3h2c.1-.2.2-.3.2-.3.4 0 .3-.3.4-.3.4-.1.2-.4.3-.4.6-.2 1.2-1.1 1.2-1.1.3-.3.6-.3.6-.3.4 0 .4.5.2.6-.1 0-.2-.1-.2-.2s0-.1.1-.1h-.1c-.2 0-.4.2-.4.5 0 .2.2.4.4.4h.5c.3-.1.1.1.1.1-.1.1-.1.3-.1.3-.1.2-.2.1-.2.1-.3-.3-.4-.1-.4-.1-.3.4.4.7.5.8.5 0 .9-.1 1.4-.2.3-.9 1.1-.9 1.1-.9.6 0 1 .2 1.4.5.2 0 .5-.1.7-.2-1.2-1-2.6-1-2.6-1.1-.2-.4-.9-.3-.8-.4.1-.3-.3-.4-.2-.4.2-.1.3-.3.4-.2.8.4 1.1-.1 1.2.1.3.6 1.2.6 1.2.6.6.2 1.2.7 1.7 1.2l2.1-.6V34c0-.1-.1-.1-.1-.2-.2-.3-.4-.6-.5-.7 0 0 .5-.8.8-.2 0 .1 0 .3-.3.3 0 0 .4.6.5 1 .2-.1.3-.1.3-.1h.1c-.2-.4-.5-.6-.4-.7.1 0 .4.1.5-.1 0-.1.1-.3.1-.6.2.1.4.1.5.1.5 0 .7-.8.6-1.1.1 0 .4-.3.4-.2.2.4 1 .8.9-.1.1.4.2.9.7.8.3-.1.1-.7.2-.7.1.2.2.8.8.7.2-.1.3-.2.3-.4 0-.6-1.8-4-2-5.5h-.1c-.9-.5-.9-.8-.9-1-.2 0-.6-.2-.6-.9 0-.6.2-.8.3-.8v.1c-.1.4-.2 1 .1 1.2.1.1.2.1.3.1.1-.2.2-.3.3-.3-.2.3-.2.7 0 .9.1.1.2.1.3.1.5-.2.8-1.2.9-1.5.3.1-.6 2.1.1 2.5.3 0 .4-.4.6-.6.2.6-.7 1.8 0 2.1.4.1.6-1 .6-.8.1 1.6-.7 2.4-.2 2.7.5.2.6-1.1.6-1 0 1.8-.9 2.2-.5 2.5.4.2.7-.9.7-.6 0 1.6-.8 2-.5 2.5.4.6 1.2-1 1.2-.7 0 .4-.9 2.2-.3 2.3.4.1.6-.5.6-.6 1.4-4.5 1.4-8.9 1.3-10.4-.1-2.3-.3-4.4-.9-6.3-.3-1.2-1-3.6-2.5-3.9-.7-.2-1.3.5-1.3 1.1 0 .5.4.8.2 1.3-.2.3-.4.7-.5 1.1-.1.4.2.5.1.9-.5-.1-.7.3-1.4.2-.6.3-1.3.1-1.3.1.7 0 1.3-.2 1.5-.6.1-.5.1-1.2-.3-1.4-.4.1-.6.4-2 .3-1.1-.1-1.4.1-1.6.8-.1-.1-.1-.2-.1-.3 0-.4.4-.6.9-.7.1-.2.1-.3.1-.5h-.6c-.5.1-1.3.4-1.5.9v.5c0 .1 0 .1.1.2.2.4.6.6 1.5.6 0 0-.2.1-.4 0 0 0-.8 0-1.2-.4l-.1.1c-.2.2-.7.5-1 .5-.4 0-.9-.2-1-.5-.5-.7.2-2 .2-2.5 0-1.3-1.8-.7-2.4-.4-.8.4-1.4 1-1.9 1.7-.3.3-.6.7-.7 1.1.2.1.9.4 1.4.4h.2c.3 0 .8 0 1.1-.3 0 0 .2-.2.4-.2s.3.1.4.2c.1.1 1.2.9 1.5 1.2 0 0 .2.1.2.3 0 .1 0 .2-.1.4-.1.1-.6.7-1 1.6-.1.1-.1.3-.1.4-.1.5-.2 1.2.4 1.4 0 0 .7.2.7-1 0 0 .1.8.7.7.2 0 .4-.2.4-.8-.1-.5 0-1 0-1.7v-.1s0 .1.1.3c0 .3-.2 3 2.1 4.9 0 0-.9-.5-1.6-1.6-.4.2-.9.7-.7 1.7.1.4.4.7.6.8 0 0-.1.1-.3-.1l-.1-.1c-.1-.1-.1-.2-.2-.3-.3-.2-.5-.5-.7-.7-.2-.4-.1-1.5-1.2-1.5h-.3c-.3-1-.2-1.6-.2-1.7.2-1.4 1.2-2.5 1.3-2.7 0 0 .1-.1.1-.2s0-.1-.1-.1c-.4-.2-1.4-1.1-1.6-1.2-.1-.1-.2-.1-.3-.1-.1 0-.2.1-.2.1-.4.4-1 .4-1.3.4h-.2c-.6 0-1.4-.4-1.5-.5-1.1-.4-1.9-.5-2-.5-.1 0-1 0-2 .5-.2.1-.9.4-1.5.5h-.2c-.3 0-.8-.1-1.3-.4 0 0-.1-.1-.2-.1s-.2 0-.3.1c-.1.1-1.2.9-1.6 1.2 0 0-.1 0-.1.1s0 .1.1.2 1.1 1.3 1.3 2.7v.6c-.1-.3-.2-.5-.2-.7 0-.2-.1-.3-.2-.4-.1-.2-.4-.4-.6-.5-.2-.1-.4-.1-.6-.3-.3-.2-.6-.4-.8-.8 0-.7-.4-1.2-.4-1.2.1 0 .5.3.6 1 .5-.5.8-1.3.9-2.2.4-.5 1.5-.3 1.9-.3.1 0 .3.1.4.1.1.1.1.3.3.3.2.1.4 0 .6 0 .1.1.1.2.2.3h.1c.6 0 1.4-.4 1.5-.4h.1c-.2-.3-.6-.4-.9-.4-.4-.1-.6-.4-1-.5-.1 0-.4-.1-.5 0-.9.1-1.5-.2-2.2-.3-.8-.1-.8.5-1.1.9-.1.2-.2.3-.4.5s-.5.2-.7.4c-.1-.3-.2-.7-.4-1 0 0 0-.1-.1-.1-.4-.6-.9-1.1-1.8-1.4-.2-.1-.2-.1-.3-.2-.1-.1 0-.3 0-.3.3-.1.7-.1 1-.2.7-.3.5-1 .2-1-.4-.1-1-.2-1.2-.3-.2-.1-.3-.4-.6-.5-.2-.1-.4-.1-.6 0-.2 0-.3.2-.4.1.2-.2.5-.3.8-.4-.3-.1-.2-.6-.5-.7-.1 0-.3 0-.5.1 0-.2-.1-.7-.4-.9-.2-.1-.3.1-.3.2s.4.3.4.8c-.1 0-.1.1-.2.1 0-.2-.2-.6-.4-.7-.2-.1-.3.1-.3.2s.3.3.4.7c-.1.1-.2.1-.2.2-.5-.1-.6-.5-.7-.5-.1 0-.4 0-.2.3.1.3.5.4.7.5l-.2.2c-.6-.1-.7-.5-.8-.5-.1 0-.4 0-.2.3s.7.5.9.5c-.1.2-.1.3-.1.4-.4-.1-1.2.2-1.1.7.1.1.7-.3 1.1-.1.3.5.8.5.9.6.2.1.2.4.3.6.1.4.4.8.7 1.1.3.4.6.8.8 1.2 0 .1.1.2 0 .4-.3.5-1.3 1.1-1.7 1.5-.4.4-4.2 3.3-4.7 4.5-.1.3-.2.6-.2 1-.2.1-.6 0-.8-.1-.3-.3.3-.6.1-1-.1-.2-.3-.2-.4-.2-.3.1-.3.7-.2 1 0 .1.2.2.1.3-.1.1-.2-.1-.2-.3-.1.1-.2.2-.1.3.1.3.4.3.5.4 0 .1-.2.2-.3.1-.2.3 0 .4.1.4.2 0 .5-.2.6-.2.1.2 0 .2-.3.3.4.5.7-.3 1.1-.2.1 0 1.3 1.1 1.1 2l-.1.2c-.3.3-.7.6-1 .9-.6.4.6 2.9.5 4.2-.1.5.4.4.7 1.2-.3 0-.6.1-.8.3v.1c-.1.1-.1.2-.1.3 0 .3.3.6.6.6s.6-.3.6-.6v-.1c.1 0 .3 0 .5.1l.6.3s-1.9 1.6-5.1.7c0 0-1.4-.5-1-1.7 0 0 .1-.2.3-.3 0 .2.1.3.3.4.1.1.3.1.4.1.4 0 .7-.3.7-.7 0-.2-.1-.4-.2-.5l-.1-.1c-.2-.1-.5-.2-1-.1 0 0-1.4.4-.9 1.9 0 0-.9-.2-1.3.2 0 0-.1.1-.1.4 0 .1 0 .2.1.3.1.1.3.2.4.2.2 0 .3-.1.4-.2 0-.1.1-.1.3.1 0 0 1.3 1.4 3.2 1.2 0 0 .1 1 .7 1.2h.1c.2 0 .3-.2.3-.3 0-.2-.1-.3-.3-.3 0 0-.1-.3 0-.5 0 0 2.1-.3 3.5-1.4 0 0 1 .3 1.6.3 0 0 .1.2-.3.3 0 0-.5 0-.5.2 0 0 0 .2.4.2 0 0-.1.2.3.4 0 0 .2.1.1.3 0 0-.4.2-.3.5 0 0 .1.3.7.2 0 0 .2 0 0 .2 0 0-.3.3.2.6 0 0 .4.2.6-.2 0 0 .1-.2.3 0 0 0 1.2.6 1.9-.4 0 0 0-.1.2.1 0 0 .6.8 2.4.8.1.2.3.3.6.3s.6-.2.6-.5c.2 0 1-.1 1.8-.6 0 0 .3-.2.6-.3 0 .5.4.9.9.9s.9-.4.9-.9c.2 0-.2-.4-.6-.5"/><path class="st2" d="M36.3 26.5v2.1c.4-.9.2-1.6 0-2.1M40.4 15c.1 0 0-.3.2-.3s.6.2.7.4c.1.3-.2.9.7 1v.3c0 .2-.1.3-.1.5h.2c1.1.1 1.8 0 2.1-.4 0 0 .2-.2.3-.4.3-.6.3-1.1.2-1.6v-.1c0-.1 0-.1-.1-.2-.3-.5-.9-1-1.8-1.3h-.2.2c.6.1 1.7.7 1.9 1.3.2-.1.4-.5.4-.8 0-.1 0-.4.1-.8 0-.1 0-.2-.1-.3-.1 0-.2 0-.3.1-.2.3-.5.1-.4-.2 0-.1 0-.2-.1-.3-.1 0-.2 0-.3.1-.1.3-.5.1-.4-.2 0-.1 0-.2-.1-.3-.1 0-.2 0-.3.1-.2.3-.5.1-.4-.2 0-.1 0-.2-.1-.3-.1 0-.2 0-.2.1-.1.2-.2.4-.3.5.7.1 1.4.5 1.9 1 0 0 .2.2.2.3v.1c-.1-.1-.1-.2-.2-.2-.8-.6-1.4-.9-2-1-.4 0-.3.5-.2.7-.6-.1-1.1.3-1.1.8 0 .2 0 .3.1.5l-.2-.2c0-.1-.1-.2-.1-.3-.5 0-1 .3-.9.8.3.5.6.8.7.8m1.8-.7c.1-.2.2.5.7.3-.4.5-.9 0-.7-.3m0-.3c.2-.1.4-.5.7-.3.1.1.3.2.4.3.2.1.3.2.4.4.1.2-.2.6-.4.2-.2-.3-.4-.8-.8-.6-.3.2-.6.4-.6.2-.1-.2.2-.2.3-.2m-1.5.1c-.1.2-.4.2-.4.4-.2-.2.2-.7.4-.4m13.7 22.5c-.4-.4-1.3-.2-1.3-.2.5-1.5-.9-1.9-.9-1.9-.5-.1-.8 0-1 .1l-.1.1c-.1.1-.2.3-.2.5 0 .4.3.7.7.7.2 0 .3 0 .4-.1.1-.1.2-.3.3-.4.2.1.3.3.3.3.4 1.3-1 1.7-1 1.7-3.2.9-5.1-.7-5.1-.7l.6-.3c.2-.1.4-.1.5-.1v.1c0 .3.3.6.6.6s.6-.3.6-.6c0-.1 0-.2-.1-.3V36c-.4-.6-1.6-.2-1.6-.2.4-1 0-1.8 0-1.8-.2-.4-.2-.5-.2-.5 0-.4-.1-.4-.1-.4-.2-.3-.5-.1-.5-.1-.5.1-.6-.1-.6-.1-.4-.3-.6-.1-.6-.1-.2.1.1.4.1.4-.5 0-.6.6-.6.6-.2 1 .6 1 .6 1 .6 0 .6-.4.6-.4.1-.4-.6-.5-.6-.5.1-.3.3-.3.3-.3.7-.2 1 .6 1 .6.5.8-.2 1.6-.2 1.6-.1.1-.2 0-.2 0-.4-.2-.9-.6-.9-.6H45c-.2 0-.5.1-.7.1.3.3 1.1 1 1.1 1-.6.5-1 .2-1 .2-.3-.3-.2-.9-.2-1.1h-.1c-.3.1-.6.2-.9.4.3.5.8 1.3.8 1.3-.7.3-.9-.7-.9-1.2-.1.1-.3.1-.4.2v.2c0 .5.5 1.2.5 1.2-.5-.1-.8.2-.8.2-.3.3-.3.7-.3.8 0 .2.2.3.4.3s.4-.2.4-.4-.2-.4-.3-.4c.2-.4.5-.1.5-.1.6.5-.3 1.1-.3 1.1-.6.4-1.2-.4-1.2-.4.7-1.2.8-2 .8-2.5-.2.1-.5.2-.7.2.3 1.1-.4 1.7-.4 1.7-.2-.1-.2-.7-.2-.7-.1-.2-.1-.5-.2-.7-.2.1-.4.1-.6.2.2.7.3 1.6.3 1.6-.1.1-.5.2-.5.2-.5 0-.2-.2-.2-.2.3-.2.2-.4.2-.4-.2-.4-.7 0-.7 0-.8.4-.5.9-.5.9.1.3.9.5.9.5-.4.3-1.2.2-1.3.2 0-.2-.2-.4-.4-.4-.3 0-.4.1-.5.2 0 0-.1.1-.1.2l-.5-.1c-.3 0-.5-1-.6-1.8H36c.1.9.3 1.6.3 1.6-.2 0-.8-.5-.8-.5-.8-.5-1.4-.4-1.5-.3-.4.1-.8.4-.8.9s.4.9.9.9.9-.4.9-.9c.3.2.6.3.6.3.8.5 1.6.6 1.8.6.1.3.3.5.6.5.2 0 .5-.1.6-.3 1.7-.1 2.4-.8 2.4-.8.2-.2.2-.1.2-.1.6.9 1.9.4 1.9.4.2-.1.3 0 .3 0 .3.4.6.2.6.2.5-.3.2-.6.2-.6-.2-.2 0-.2 0-.2.6.1.7-.2.7-.2.1-.3-.3-.5-.3-.5-.1-.1.1-.3.1-.3.3-.2.3-.4.3-.4.4 0 .4-.2.4-.2 0-.2-.5-.2-.5-.2-.4 0-.3-.3-.3-.3.6 0 1.6-.3 1.6-.3 1.4 1.1 3.5 1.4 3.5 1.4v.5c-.2 0-.3.1-.3.3 0 .2.2.3.3.3h.1c.7-.2.7-1.2.7-1.2 1.9.2 3.2-1.2 3.2-1.2.2-.2.3-.1.3-.1.1.1.2.2.4.2s.3-.1.4-.2c.1-.1.1-.2.1-.3-.4 0-.5-.1-.5-.1M31.5 39c.2-.1.2-.3.2-.3 0-.5-.3-.8-.4-.8h-1.4s-.4.2-.4.8c0 0 0 .2.2.3 0 0-.5.2-.5.5 0 0-.1.2.4.6 0 0 .3.3.4.6 0 0 0 .4.5.4s.5-.4.5-.4c.1-.3.4-.6.4-.6.4-.3.4-.6.4-.6.2-.3-.3-.5-.3-.5m3.5-2.1h.3l-.2-.3zm-8.4 0l.3.1-.1-.4zm-.9-.7c-.1 0-.1 0 0 0l-.1.4h.2s.1 0 .1-.1v-.3c-.1.1-.2.1-.2 0m3.6.3c-.1 0-.2 0-.2.1s-.1.2-.1.3c0 .2 0 .3.1.3 0 .1.1.1.2.1s.2 0 .2-.1.1-.2.1-.3c0-.1 0-.3-.1-.3s-.1-.1-.2-.1m3.1 0c-.1 0-.1 0-.2.1 0 .1-.1.2 0 .3 0 .2 0 .3.1.3 0 .1.1.1.2.1s.2 0 .2-.1.1-.2.1-.3c0-.1 0-.3-.1-.3s-.2-.1-.3-.1m-8.6 0l.3.1-.1-.4zM19 34.6l-.1.4h.2l.1-.1v-.1s0-.1-.1-.1c0 0 0-.1-.1-.1m1.2.4H20c-.1.1-.1.1-.2.3 0 .2-.1.3 0 .3 0 .1.1.1.2.2h.2c.1 0 .1-.1.2-.3 0-.1.1-.2 0-.3 0-.1-.1-.1-.2-.2m1.2.4l-.1.4h.3s0-.1.1-.1v-.2c-.2-.1-.2-.1-.3-.1"/><path class="st2" d="M40.2 35.4H40l.1.4c.1 0 .1 0 .2-.1l.1-.1v-.1c-.1 0-.2-.1-.2-.1m2.1-.1l.2-.1-.2-.2z"/><path class="st2" d="M43.3 34c-.1-.1-.2-.1-.4-.1h-.2c-.5.1-4.8 2-12 2s-11.5-1.9-12-2h-.2c-.1 0-.3 0-.3.1l-1.5 1.2c.4 0 .9.2.9.2 3.8 1.7 8.2 2.4 13.1 2.4s9.3-.7 13.1-2.4c0 0 .5-.2.9-.2L43.3 34zm-14 2.1h.3l-.4.2h-.1l.2-.2zM19.5 35c0 .1-.1.1-.1.1h-.2c-.1 0-.1 0-.2-.1h-.1l-.1.2v.1l.1.1v.1l-.5-.2v-.1h.1l.1-.1.2-.6v-.1l-.1-.1v-.1l.4.1c.1 0 .2.1.2.1.1 0 .1.1.1.1l.1.1v.4m1.1.6c0 .1-.1.2-.3.3-.1.1-.3.1-.4 0-.1 0-.2-.1-.3-.2-.1-.1-.1-.2-.1-.3v-.3c0-.1.1-.2.2-.2.1-.1.2-.1.3-.1h.3c.2.1.3.1.4.3 0 .2 0 .4-.1.5m1.1.5c0 .1.1.2.1.2h.1v.1l-.3-.1s0-.1-.1-.3v-.3h-.1l-.1.2v.1l.1.1v.1l-.5-.1V36h.1v-.1l.2-.6v-.1l-.1-.1V35l.4.1h.1c.1 0 .2 0 .2.1 0 0 .1 0 .1.1l.1.1v.1c0 .1-.1.2-.3.2-.1.2-.1.3 0 .4m1.7.7l-.9-.2v-.1h.1v-.1l.1-.6v-.1h-.1v-.1l.5.1v.1H23v.1l-.1.6v.1h.3c.1 0 .1-.1.1-.2h.1v.4zm1.1.2l-.5-.1v-.1h.1v-.2l-.3-.1v.2h.1v.1l-.3-.1v-.1c.1 0 .1 0 .2-.1l.5-.7h.1l.2.8c0 .1 0 .1.1.2-.2.1-.2.1-.2.2zm1.7.3h-.3s-.1-.1-.1-.3c0-.1-.1-.1-.1-.1h-.1v.3h.1v.1l-.6-.1v-.1h.1V37l.1-.6v-.1h-.1v-.1l.4.1h.3s.1 0 .1.1l.1.1v.1c0 .1-.1.2-.2.2 0 0 .1.1.1.2s.1.2.1.2c.1 0 .1 0 .1.1zm1.1.1h-.5v-.1h.1v-.2h-.3v.2h.1v.1h-.3v-.1c.1 0 .1 0 .2-.1l.4-.8h.1l.2.8c0 .1 0 .1.1.1-.1 0-.1 0-.1.1zm1.1-.9l-.6.8h.3s.1 0 .1-.1l.1-.1h.1v.3l-.9-.1v-.1l.6-.8h-.4l-.1.1h-.1v-.3l.9.3zm1.3.9c-.1.1-.2.1-.4.1-.1 0-.2 0-.3-.1-.1-.1-.2-.1-.2-.2s-.1-.2 0-.3c0-.1 0-.2.1-.3l.2-.2c.1 0 .2-.1.3-.1.2 0 .3.1.4.2.1.1.1.2.1.4-.1.2-.1.4-.2.5m1.5-.8c-.1 0-.1 0 0 0-.1 0-.1.1-.1.1v.9H31l-.7-.8v.6h.1v.1H30v-.1h.1v-.7c0-.1 0-.2-.1-.2v-.1h.3l.6.6v-.4c0-.1-.1-.2-.1-.2v-.1l.4.3zm1.7.7c-.1.1-.2.2-.4.2-.1 0-.2 0-.3-.1-.1 0-.2-.1-.2-.2s-.1-.2-.1-.3c0-.1 0-.2.1-.3 0-.1.1-.2.2-.2s.2-.1.3-.1c.2 0 .3 0 .4.1.1.1.2.2.2.4-.1.3-.1.4-.2.5m.8.1l.1-.1v-.8h-.1v-.1h.5v.1h-.1v.1l.1.6v.1h.1c.1 0 .2 0 .2-.1 0 0 .1-.1.1-.2h.1v.3l-1 .1zm1.6-.1c0-.1.1-.1.1-.1v-.1L35 37v.2h.1v.1h-.3v-.1c.1 0 .1-.1.1-.2l.2-.8h.1l.4.8c0 .1.1.1.1.1h.1v.1l-.5.1zm1.8-1.1s0-.1-.1-.1h-.4l.1.4h.2v-.1l.2-.2v.4H37v-.1h-.2v.4h.1v.1l-.5.1V37h.1v-.1l-.1-.6v-.1h-.1v-.1l.8-.1v.2zm1.2-.2l.1.3v.3c0 .1-.1.1-.1.1-.1 0-.1.1-.2.1h-.2c-.1 0-.1 0-.2-.1l-.1-.1v-.2l-.1-.4v-.1h-.1v-.1l.5-.1v.1h-.1v.1l.1.4c0 .1 0 .1.1.2 0 0 0 .1.1.1h.2c.1 0 .1 0 .1-.1l.1-.1v-.2l-.2-.2c-.1-.1-.2-.1-.3-.1v-.1l.4-.1v.1h-.1v.2c-.1-.1-.1 0 0 0m.4.7c0-.1.1-.1.1-.1v-.1l-.1-.6v-.1h-.1v-.1l.9-.2.1.3h-.1l-.1-.1H39v.3h.2v-.1h.1l.1.3h-.1v-.1h-.2l.1.2v.1h.2c.1 0 .1 0 .1-.1 0 0 0-.1.1-.1v-.1h.1l.1.3-1.1.3zm1.9-.5l-.2-.2-.1-.1h-.2l.1.2v.1h.1v.1l-.5.1v-.1s.1 0 .1-.1v-.1l-.2-.6v-.1h-.1v-.1l.4-.1h.4c.1 0 .1 0 .1.1l.1.1c0 .1 0 .2-.1.3l.2.2c.1.1.1.1.2.1h.1v.1l-.4.1zm.5-.1l.3-1.1-.2.1c-.1 0-.2.1-.2.1v.2h-.1l-.1-.3.8-.3v.1l-.3 1 .2-.1c.1 0 .1 0 .1-.1 0 0 0-.1.1-.1v-.1h.1l.1.3-.8.3zm1.5-.6v-.1l-.1-.1-.3.1v.2h.1v.1l-.3.1v-.1c.1 0 .1-.1.1-.2v-.9h.1l.6.6.1.1h.1v.1l-.4.1zM26.1 19.7c-.2-.1-.4-.3-.6-.3-.1.1-.3.2-.5.3h1.1zm2.6-.2c-.1 0-.3.1-.5.2h-.1 4.5c-.2-.1-.4-.2-.5-.2H32c-.2-.1-.4-.2-.6-.2h-2.3c.1 0-.1.1-.4.2m6.9-.1c-.1.1-.3.2-.5.3h1c-.1-.1-.3-.2-.5-.3.1 0 .1 0 0 0m-10.7 9.2v-2.4c-.2.5-.5 1.5 0 2.4m5.6-4L26 23.2h3.5zm0-4.6h-5.9c0 .1 0 .1.1.2 0 0 .1.1.2.3h5.5l.1-.5zm-.3.8H25c.1.1.2.3.3.5h4.8l.1-.5zm-.2.8h-4.5c.1.2.1.3.2.5h4.2l.1-.5zm-.3.8h-4.1c0 .2.1.3.1.5h3.8l.2-.5zM27.1 24h-1.4c0 .1-.1.3-.1.5h2.2l-.7-.5zm-.4-.3l-.7-.5h-.3v.4h1z"/><path class="st2" d="M30.5 20v4.6l4.4-1.4h-3.5l-.1-.3h3.9c0-.2 0-.3.1-.5h-4.1l-.1-.3h4.3c.1-.2.1-.3.2-.5H31l-.1-.3h4.9c.1-.2.2-.3.3-.5h-5.3l-.1-.3h5.6c.2-.2.3-.4.3-.4V20h-6.1zm1 7.1v3.6c.2-.1.3-.2.5-.2v-2.9l-.5-.5zm-.8-.6v5.1c.1-.1.1-.2.2-.3.1-.1.2-.3.3-.4v-4.1l-.5-.3zm-.8.2v4.1c.2.1.3.3.4.5 0 0 0 .1.1.1v-5.1l-.5.4zm-.7.6v3.1c.2.1.3.1.5.2V27l-.5.3zm3.1 3c.2 0 .3-.1.5-.1v-2.1l-.5-.4v2.6zm-3.9-.1c.1 0 .3.1.5.1v-2.7l-.5.4v2.2z"/><path class="st2" d="M30.5 24.6l-1.6.6-.6-.4h-2.7c0 .2-.1.3-.2.5 0 .1-.1.2-.2.4v3.5c.1.1.3.3.5.4v-4.3h.3v4.5c.1.1.3.1.5.2v-4.7h.3V30c.1 0 .3.1.5.1v-4.9h.3v4.9h.5v-2l-.3.2 2.7-3.7zm-2.4.6h.3v1.4l-.3.9v-2.3zm7.5 0c-.1-.2-.1-.3-.2-.5h-2.7l-.6.4-1.2-.4-.4-.2 2.6 3.7V30h.5v-4.9h.3V30c.2 0 .3 0 .5-.1v-4.8h.3V30c.2-.1.3-.1.5-.2v-4.6h.3v4.4c.2-.1.3-.2.4-.4V26c-.1-.3-.2-.5-.3-.8m-2.5 3l-.3-.9v-2h.3v2.9zm0-3.7h2.2c0-.2-.1-.3-.1-.5h-1.4l-.7.5zm1.8-1.3l-.7.5h1v-.4h-.3zm2.6-9.4h.4c1.5-.4 1.5-2.2 1.3-2.3 0 .1-.1.2-.1.3-.1.2-.2.3-.2.3.3-.6.3-1 .1-1.6-.1-.3-.3-.6-.6-.8-.7-.5-2.2-.6-3 0-.3-.3-.6-.5-1.1-.6-.1.5-.6 1.1-1 1.4-.1.1-.3.2-.4.2 0 0-.1 0 0-.1.8-.5 1.2-1.1 1.2-1.8 0-.4-.1-1.1-.6-1.6-.7-.8-2.7-.9-3.5-.2-.2.2-.4.5-.5.9.1-.3.3-.5.7-.7.4-.1 1.1 0 1.3.4-.7-.7-1.9-.2-2 1 0 .1-.1.1-.1.1s-.1 0-.1-.5c0-.3.1-.7.3-1.1-1.5-.3-3.3.5-3.2 2.7 0 .3.1.6.4.9.1.1 0 .1 0 .1s-.2-.1-.3-.3c-.1-.2-.3-.5-.3-.7-.9-.3-1.5-.3-2-.3-.5.1-1.3.5-1.5.9-.1.1-.2.4-.3.5-.2.4-.3.8-.3 1.3.1.9.5 1.6 1.1 1.9.9.5 2 .4 2.4.4.2 0 .4-.1.7-.3 0 0 .1 0 .1-.1.3-.3.6-.8.5-1.4 0 0 .1.2.1.4s-.1.5-.2.7v.1c0 .1 0 .2.1.2.2.2.6.2.9.1 0 0-.2.3-.6.3H27c.2.4.8.6 1.5.6 0 0-.2.1-.4.1-.3 0-.6-.1-.9-.2.3.4.8.7 1.7.8 0 .1-.7 0-.9 0 .4 1.6 1.3 1.4 1.3 1.5-.3.1-.4.4-.3.7.9-.3 1.6-.4 1.8-.4.2 0 .9 0 1.8.4.1-.1.1-.3.1-.4-.1-.4-1.4-.7-2.5-.4 0 0-.1 0-.2.1l.2-.1c.5-.3 1.6-.4 2.1-.1.5.2.9-.4.8-.7.4 0 .6-.2.7-.6-.1 0-.1.1-.2.1-.1.1-.3.1-.3.1.1 0 .1-.1.2-.1.7-.4 1-1.2.9-1.4-.1.1-.3.3-.5.3h-.2c.1 0 .2 0 .2-.1.2-.2.5-.5.6-.7-.4-.4-.6-.9-.8-1.5-.2-.2-.4-.5-.7-.5h-.2c.3-.3.7 0 .9.1 0-.6.2-.8.3-.7-.4 1.2.4 2.4 1 2.8.9.5 2.4.5 3.4-.3-.2.1-.4.1-.6.1-.2-.1-.3-.1-.3-.2m-13.9 0c.5-.1 1-.4.9-.9 0-.1-.2-.3-.4-.3-.3 0-.5.2-.7.4 0-.5.3-.8.8-.7.3 0 .6.3.7.5.2.7-.5 1-1.3 1m2-.6c.2-.6.3-1.6-.6-1.8-.8-.2-1.5.4-1.8.7.2-.7 1-1.2 2-1-.2-.6-1-.8-1.9-.4-.2.1-.4.3-.5.4.2-.5.5-.8 1-.9.7-.2 1.4 0 1.7.4 1 1 .4 2.5.1 2.6m5.1 3.3c-.5 0-.5-.3-.6-.7.2.2.5.4.5 0-.2-.1-1.2-.4-.9-.9.2-.2.7.7.9.4.1-.7-2-.9-1.9-1.4 0-.3 1.6.8 1.8.8 0-.3-2.4-1.3-3.1-2.6-.1-.1-.1-.2-.1-.2.4.7 1.6 1.6 3 2 .5.2.8 1.8.4 2.6m.5.4c-.2 0-.1-.3-.1-.4 0-.7 0-1.3-.2-1.9-.1-.3-.3-1.2-.9-2.3.2.3 1.1 1.7 1.3 2.7.1.6.2 1.4-.1 1.9m.7-4.1c.4.2-.2 1-.3 1.2.1 0 .4-.4.6-.3.2.2-.5 1.1-.6 1.1-.9-1.2.3-1.5.3-2m-.1 3.7c-.1-.1-.1-.3-.1-.4 0-.3.4-.5.6-.6 0-.1 0 .5-.5 1m-.1-.9c-.2-.3.3-.7.4-1.1.6 0-.1 1-.4 1.1m.5-8.5s.9.2 1 1c0 .5-.2.6-.3.6v-.1c.1-.3.1-.9-.2-1.2-.1-.2-.4-.3-.5-.3m5.1 4.9c0-.1 0-.1 0 0v-.8c-.2-1-1-1.3-1.6-.7 0 0 .6-1.2 2-.7.3.1.6.4.8.8.2.4.1.8 0 1 0-.2 0-.6-.2-.9-.1-.2-.2-.4-.5-.5.1.2.2.4.3.5.1.2.1.3.1.4 0 .4-.2.9-.4 1.1.2-.5.2-1 .1-1.4 0 0 0-.1-.1-.1-.2-.3-.4-.6-.9-.6.2.1.4.4.5.6.2.4.2 1-.1 1.3"/><path class="st2" d="M50.8 24.1c-.1-2.3-.3-4.4-.9-6.3-.3-1.2-1-3.6-2.5-3.9-.7-.2-1.3.5-1.3 1.1 0 .5.4.8.2 1.3-.2.3-.4.7-.5 1.1-.1.4.2.5.1.9-.5-.1-.7.3-1.4.2-.6.3-1.3.1-1.3.1.7 0 1.3-.2 1.5-.6.1-.5.1-1.2-.3-1.4-.4.1-.6.4-2 .3-1.1-.1-1.4.1-1.6.8-.1-.1-.1-.2-.1-.3 0-.4.4-.6.9-.7.1-.2.1-.3.1-.5h-.6c-.5.1-1.3.4-1.5.9v.5c0 .1 0 .1.1.2.2.4.6.6 1.5.6 0 0-.2.1-.4 0 0 0-.8 0-1.2-.4l-.1.1c-.2.2-.7.5-1 .5-.4 0-.9-.2-1-.5-.5-.7.2-2 .2-2.5 0-1.3-1.8-.7-2.4-.4-.8.4-1.4 1-1.9 1.7-.3.3-.6.7-.7 1.1.2.1.9.4 1.4.4h.2c.3 0 .8 0 1.1-.3 0 0 .2-.1.4-.1s.3.1.4.2c.1.1 1.2.9 1.5 1.2 0 0 .2.1.2.3 0 .1 0 .2-.1.4-.1.1-.6.7-1 1.6 0 .1-.1.3-.1.4-.1.5-.2 1.2.4 1.4 0 0 .7.2.7-1 0 0 .1.8.7.7.2 0 .4-.2.4-.8-.1-.5 0-1 .1-1.7v-.1s0 .1.1.3c0 .3-.2 3 2.1 4.9 0 0-1-.5-1.6-1.6-.4.2-.9.7-.7 1.7.1.4.4.7.6.8 0 0-.1.1-.3-.1l-.1-.1c-.1-.1-.1-.2-.2-.3-.3-.2-.5-.5-.7-.7-.2-.4-.1-1.5-1.2-1.5h-.3c-.3-1-.2-1.6-.2-1.7.2-1.4 1.2-2.5 1.3-2.7 0 0 .1-.1.1-.2s0-.1-.1-.1c-.4-.2-1.4-1.1-1.6-1.2-.1-.1-.2-.1-.3-.1-.1 0-.2.1-.2.1-.4.4-1 .4-1.3.4h-.2c-.6 0-1.4-.4-1.5-.5-1.1-.4-1.9-.5-2-.5-.2 0-1 0-2 .5-.2.1-.9.4-1.5.5H27c-.3 0-.8-.1-1.3-.4 0 0-.1-.1-.2-.1s-.2 0-.3.1c-.1.1-1.2.9-1.6 1.2 0 0-.1 0-.1.1s0 .1.1.2 1.1 1.3 1.3 2.7v.6c-.1-.3-.2-.5-.2-.7 0-.2-.1-.3-.2-.4-.1-.2-.4-.4-.6-.5-.2-.1-.4-.1-.6-.3-.3-.2-.6-.4-.8-.8 0-.7-.4-1.2-.4-1.2.1 0 .5.3.6 1 .5-.5.8-1.3.9-2.2.4-.5 1.5-.3 1.9-.3.1 0 .3.1.4.1.1.1.1.3.3.3.2.1.4 0 .6 0 .1.1.1.2.2.3h.1c.6 0 1.4-.4 1.5-.4h.1c-.2-.3-.6-.4-.9-.4-.4-.1-.6-.4-1-.5-.1 0-.4-.1-.6 0-.9.1-1.5-.2-2.2-.3-.8-.1-.8.5-1.1.9-.1.2-.2.3-.4.5s-.5.2-.7.4c0-.3-.2-.7-.3-1 0 0 0-.1-.1-.1-.4-.6-.9-1.1-1.8-1.4-.2-.1-.2-.1-.3-.2-.1-.1 0-.3 0-.3.3-.1.7-.1 1-.2.7-.3.5-1 .2-1-.4-.1-1-.2-1.2-.3-.2-.1-.3-.4-.6-.5-.2-.1-.4-.1-.6 0-.2 0-.3.2-.4.1.2-.2.5-.3.8-.4-.3-.1-.2-.6-.5-.7-.1 0-.3 0-.5.1 0-.2-.1-.7-.4-.9-.2-.1-.3.1-.3.2s.4.3.4.8c-.1 0-.1.1-.2.1 0-.2-.2-.6-.4-.7-.2-.1-.3.1-.3.2s.3.3.4.7c-.1.1-.2.1-.2.2-.5-.1-.6-.5-.7-.5-.1 0-.4 0-.2.3.1.3.5.4.7.5 0 .1-.1.1-.1.2-.6-.1-.7-.5-.8-.5-.1 0-.4 0-.2.3s.7.5.9.5c-.1.2-.1.3-.1.4-.4-.1-1.2.2-1.1.7.1.1.7-.3 1.1-.1.3.5.8.5.9.6.2.1.2.4.3.6.1.4.4.8.7 1.1.3.4.5.8.8 1.2 0 .1.1.2.1.4-.3.5-1.3 1.1-1.7 1.5-.4.4-4.2 3.3-4.7 4.5-.1.3-.2.6-.2 1-.2.1-.6.1-.8-.1-.3-.3.3-.6.1-1-.1-.2-.3-.2-.4-.2-.3.1-.3.7-.2 1 0 .1.2.2.1.3-.1.1-.2-.1-.2-.3-.1.1-.2.2-.1.3.1.3.4.3.5.4 0 .1-.2.2-.3.1-.2.3 0 .4.1.4.2 0 .5-.2.6-.2.1.2 0 .2-.3.3.4.5.7-.3 1.1-.2.1 0 1.3 1.1 1.1 2l-.1.2c-.3.3-.7.6-1 .9-.6.4.6 2.9.5 4.2-.1.5.4.4.7 1.2-.3 0-.6.1-.8.3v.1c0 .1-.1.2-.1.3 0 .3.3.6.6.6s.6-.3.6-.6v-.1c.1 0 .3 0 .5.1l.6.3s-1.9 1.6-5.1.7c0 0-1.4-.5-1-1.7 0 0 .1-.2.3-.3 0 .2.1.3.3.4.1.1.3.1.4.1.4 0 .7-.3.7-.7 0-.2-.1-.4-.2-.5l-.1-.1c-.2-.1-.5-.2-1-.1 0 0-1.4.4-.9 1.9 0 0-.9-.2-1.3.2 0 0-.1.1-.1.4 0 .1 0 .2.1.3.1.1.3.2.4.2.2 0 .3-.1.4-.2 0-.1.1-.1.3.1 0 0 1.3 1.4 3.2 1.2 0 0 .1 1 .7 1.2h.1c.2 0 .3-.2.3-.3 0-.2-.1-.3-.3-.3 0 0-.1-.3 0-.5 0 0 2.1-.3 3.5-1.4 0 0 1 .3 1.6.3 0 0 .1.2-.3.3 0 0-.5 0-.5.2 0 0 0 .2.4.2 0 0-.1.2.3.4 0 0 .2.1.1.3 0 0-.4.2-.3.5 0 0 .1.3.7.2 0 0 .2 0 0 .2 0 0-.3.3.2.6 0 0 .4.2.6-.2 0 0 .1-.2.3 0 0 0 1.2.6 1.9-.4 0 0 0-.1.2.1 0 0 .6.8 2.4.8.1.2.3.3.6.3s.6-.2.6-.5c.2 0 1-.1 1.8-.6 0 0 .3-.2.6-.3 0 .5.4.9.9.9s.9-.4.9-.9c0-.4-.3-.8-.8-.9 0 0-.6-.2-1.4.3 0 0-.7.5-.8.5 0 0 .2-.8.3-1.6h-.4c-.1.8-.3 1.7-.6 1.8l-.5.1c0-.1 0-.1-.1-.2s-.2-.2-.5-.2c-.2.1-.4.2-.4.4-.1 0-.9.2-1.3-.2 0 0 .8-.3.9-.5 0 0 .2-.4-.5-.9 0 0-.6-.3-.7 0 0 0-.1.2.2.4 0 0 .3.3-.2.2 0 0-.4 0-.5-.2 0 0 .1-1 .3-1.6-.2-.1-.4-.1-.6-.2-.1.2-.2.4-.2.7 0 0 0 .6-.2.7 0 0-.7-.6-.4-1.7-.2-.1-.5-.1-.7-.2 0 .5.1 1.3.8 2.5 0 0-.6.8-1.2.4 0 0-.9-.6-.3-1.1 0 0 .4-.3.5.1-.2 0-.4.2-.4.4s.2.4.4.4.4-.2.4-.3c0-.1 0-.5-.3-.8 0 0-.3-.3-.8-.2 0 0 .5-.6.5-1.2v-.2c-.1-.1-.3-.1-.4-.2 0 .5-.2 1.5-.9 1.2 0 0 .5-.8.8-1.3-.3-.1-.6-.2-.9-.4h-.1c0 .2.1.8-.2 1.1 0 0-.4.3-1-.2 0 0 .8-.7 1.1-1-.2-.1-.4-.1-.7-.1h-.2s-.5.4-.9.6c0 0-.1.1-.2 0 0 0-.7-.8-.2-1.6 0 0 .3-.7 1-.6 0 0 .2 0 .3.3 0 0-.6 0-.6.5 0 0 0 .5.6.4 0 0 .8-.1.6-1 0 0-.1-.6-.6-.6 0 0 .3-.3.1-.4 0 0-.2-.2-.6.1 0 0-.1.2-.6.1 0 0-.3-.1-.5.1 0 0-.1 0-.1.4 0 0 0 .1-.2.5 0 0-.1.3-.1.7-.2-.1-.3-.2-.5-.2-.3-.3-.3-1.5-.6-2.2-.1-.1.1-.8.1-1.5 1.9-.4 2.6-1.9 2.8-2.5.3-1.1-.1-2.1-.1-2.4.1.2.2.3.2.5.9.1 1.6-.1 2-.2h.2c.1 0 .2-.1.2-.1h.1c1.3-.7 1.9-1.8 2.3-2.4-.2 0-.8-.2-1-.5.5 0 .9.2 1.4.3.7 0 1.2-.4 2-.3 0 0 .1.4.6.6 0 .5 0 .8.2 1.2 0 .1.1.2.1.2s-.6.5-.4.9c0 .1.1.2.1.3h-.1c-.1 0-.2.1-.3.3-.1.1-.4.8-.1.8h.2c-.1.7-.1 1.6.4 2.4 0 .1.9 1.5 3.2 1.5.2 0 2.3 0 3 1.4 0 .1.2.3.4.3s.3-.2.4-.3c.7-1.4 2.8-1.4 3-1.4 2.3 0 3.2-1.4 3.2-1.5.3-.4.4-.8.5-1.3.5-.3.4-1.3.4-1.5.1.2.4.7 1 .8-.1.5-.1 1.3.5 1.4.2 0 .3-.2.2-.4.5 1.3.1 2.1.4 2.2.4 0 .5-.8.5-.8 0 .1.2.3.2.6 0 .4-.1.8.1.9.6.1.3-1.7.8-1.5-.1.8 0 1.2.3 1.3 0 .4 0 .7-.2.7-.9.2-1.6-.5-2.4-.3-.1 0-.1-.1-.1-.1-1.4-.7-2.3-.2-2.3-.3-.4-.4-.5.2-.6.1-.7-.4-1.1.3-1.3.3-.2 0-.5-.4-.8.5-.2.4-1 .5-1 .5-.3 0-.4-.2-.4-.2 0-.1-.1-.2-.1-.2 0-.1-.1-.1-.1-.2-.1-.1-.2-.1-.3-.1-.2 0-.4.2-.4.5 0 .1 0 .2.1.3 0 0 .1-.1.2-.1.2 0 .3.1.3.3 0 .4-.5.7-.5.7-.3.3-.7-.1-.7-.1-.2-.2-.4-.2-.4-.2-.2 0-.3.3-.3.3s-.1-.3-.3-.3c0 0-.2 0-.4.2 0 0-.4.4-.7.1 0 0-.6-.4-.5-.7 0-.2.1-.3.3-.3.1 0 .2.1.2.1.1-.1.1-.2.1-.3 0-.2-.2-.4-.4-.5-.1 0-.2 0-.3.1 0 .1-.1.1-.1.2s-.1.1-.1.2c0 0-.1.2-.4.2-.1 0-.9-.2-1-.5-1.2-.6-1.5-.2-1.7-.2-.2 0-.6-.7-1.3-.3-.1.1-.3-.5-.7-.1-.1.1-.8-.4-1.9 0-.1-.1-.4-.2-.5-.2l-.6-.3c-.3-.2-.8-.1-1.2-.1-.1 0-.3-.1-.5-.2-.5-.3-1-.6-1.3-1 0-.1-.2-.2-.2-.3-.1-.2-.2-.3-.3-.6-.2-.6.1-1.2.2-1.7 0-.3 0-.4.1-.5-.4.1-1 .1-1.7-.1.2.6.2 1.2.1 1.7.3.2.4.6.5.7 0 .3-.1.6.1.8.2.3.8.7 1.1.9.1.1 1.7 1.3 1.9 1.3.2 0 .4-.1.6-.1.1 0 .1.1.2.1l.3.3c-.5.3-1.1.7-1.5.9 0 0-.7.4-.4.4 0 0 .5 0 .5.1 0 0-.2.1-.5.2.7.3 1.5.5 2.3.7.5-.5 1.1-1 1.7-1.2 0 0 .9 0 1.2-.6.1-.2.5.4 1.2-.1.1 0 .2.2.4.2.1 0-.3.1-.2.4 0 0-.6 0-.8.4-.1.1-1.4.1-2.6 1.1.2.1.5.1.7.2.4-.3.9-.5 1.4-.5 0 0 .7 0 1.1.9.5.1.9.1 1.4.2.1-.1.8-.4.5-.8 0 0-.2-.2-.4.1 0 0-.2.2-.2-.1 0 0 0-.1-.1-.3 0 0-.1-.2.1-.1 0 0 .2.1.5 0 .2 0 .4-.2.4-.4s-.2-.5-.4-.5h-.1l.1.1c0 .1-.1.2-.2.2-.3-.1-.2-.6.2-.6 0 0 .3 0 .6.3 0 0 .6.9 1.2 1.1 0 0-.1.3.3.4 0 0 0 .3.4.3 0 0 .1.1.2.3h2c.1-.2.2-.3.2-.3.4 0 .3-.2.4-.3.4-.1.2-.4.3-.4.6-.2 1.2-1.1 1.2-1.1.3-.3.6-.3.6-.3.4 0 .4.5.2.6-.1 0-.2-.1-.2-.2s0-.1.1-.1h-.1c-.2 0-.4.2-.4.5 0 .2.2.4.4.4h.5c.3-.1.1.1.1.1-.1.1-.1.3-.1.3-.1.2-.2.1-.2.1-.3-.3-.4-.1-.4-.1-.3.4.4.7.5.8.5 0 .9-.1 1.4-.2.3-.9 1.1-.9 1.1-.9.6 0 1 .2 1.4.5.2 0 .5-.1.7-.2-1.2-1-2.6-1-2.6-1.1-.2-.4-.9-.3-.8-.4.1-.3-.3-.4-.2-.4.2-.1.3-.3.4-.2.8.4 1.1-.1 1.2.1.3.6 1.2.6 1.2.6.6.2 1.2.7 1.7 1.2l2.1-.6v-.1c0-.1-.1-.1-.1-.2-.2-.3-.4-.6-.5-.7 0 0 .5-.8.8-.2 0 .1 0 .3-.3.3 0 0 .4.6.5 1 .2-.1.3-.1.3-.1h.1c-.2-.4-.5-.6-.4-.7.1 0 .4.1.5-.1 0-.1.1-.3.1-.6.2.1.4.1.5.1.5 0 .7-.8.6-1.1.1 0 .4-.3.4-.2.2.4 1 .8.9-.1.1.4.2.9.7.8.3-.1.1-.7.2-.7.1.2.2.8.8.7.2-.1.3-.2.3-.4 0-.6-1.8-4-2-5.5h-.1c-.9-.4-.9-.7-.9-.9-.2 0-.6-.2-.6-.9 0-.6.2-.8.3-.8v.1c-.1.4-.2 1 .1 1.2.1.1.2.1.3.1.1-.2.2-.3.3-.3-.2.3-.2.7 0 .9.1.1.2.1.3.1.5-.2.8-1.2.9-1.5.3.1-.6 2.1.1 2.5.3 0 .4-.3.6-.6.2.6-.7 1.8 0 2.1.4.1.6-1 .6-.8.1 1.6-.7 2.4-.2 2.7.5.2.6-1.1.6-1 0 1.8-.9 2.2-.5 2.5.4.2.7-.9.7-.6 0 1.6-.8 2-.5 2.5.4.6 1.2-1 1.2-.7 0 .4-.9 2.2-.3 2.3.4.1.6-.5.6-.6 1.3-4.5 1.4-8.9 1.3-10.4m-13.4-8.3c-.1.1-.1.1 0 0-.4-.2-1.1-.2-1.6.1-.4.2-.6.5-.7.6-.1 0 .6-.9 1.6-1 .6 0 .7.3.7.3m2.2 3c-.1.3-.4.6-.7.6-.6.1-1.2-.3-1.2-.4 0-.1.5.2 1 .2.4 0 .7-.3.9-.4 0-.1.1-.1 0 0M14.2 35.2c.1.1.2.1.3.2l.1.1c0 .1-.1.1-.3 0-.1-.1-.2-.1-.3-.2-.1.1.1.3.2.4l-.1.1h-.2c-.2-.1-.2-.3-.2-.5 0-.1-.1-.4-.3-.5.2-.3.8.3.8.4m3.3-19.6c.5.2.6-.5.7-.3.2.3-.4.8-.7.3m.6-.5c-.2 0-.4-.2-.6 0 0 0-.3.2-.2.5 0 .2-.2.3-.3.1-.2-.4.5-1 .7-1.1.4-.1.7.1 1.1.2h.7c.5 0 .3.4.3.4-.4.1-.6-.2-1-.2-.2 0-.4.1-.7.1m1.8 2.8c-.6-.2-1.2-.3-1.5-.8.8.1 1.7.1 2.2.4h.1c.2.1.6.5.8 1.1-.7-.4-1-.5-1.6-.7m4.3 4.9c-.2 0-.2-.7-1.1-.5-.5.2-.8.1-1.1 0 1.3-.7 2.3 0 2.2.5M37 24.7h.4s.2.2.2.5c0 .1.1.4.2.5.1.1.1.3-.2.3-.3-.1-.6-.5-.5-1h-.4c-.1.1-.1.2-.2.2 0-.2.1-.3.3-.4-.1-.1 0-.1.2-.1m-12.6 1.6s0 .1 0 0c0 .1-.1.1-.1.2v.1s0 .1-.1.1l-.1.1s-.1 0-.1.1h-.2v-.1c0-.1.1-.2.2-.4.1-.1 0-.2.1-.3.1 0 .2 0 .3-.1-.2-.2-.2-.5 0-.8.4-.4 0-1.2.1-1.3.1.1.2.4.2.7v1.5c-.3.1-.3.1-.3.2m12 2.7c-.1.1-.9 1.3-2.9 1.3-.2 0-1.8 0-2.4 1.1-.1.1-.3.4-.4.6l-.1.1s-.1 0-.1-.1c-.1-.2-.3-.5-.4-.6-.6-1-2.2-1.1-2.4-1.1-2 0-2.8-1.2-2.9-1.3-1-1.5-.1-3.2 0-3.2.8-1.4.7-2.4.7-2.6 0-1.6-1-2.8-1.1-2.9-.1-.1-.1-.2-.1-.3 0-.1.1-.2.2-.2.2-.2.7-.5.9-.6l.1-.1h.1c.1 0 .1 0 .2.1.2.2.6.4 1.2.4h.3c.3 0 .9-.3.9-.3.2-.1.4-.2.5-.2.9-.4 1.7-.4 1.9-.4.2 0 1 0 1.9.4h.1c.1 0 .3.1.5.2 0 0 .6.3.9.3h.4c.6 0 1-.3 1.2-.4.1-.1.1-.1.2-.1h.1l.1.1c.2.1.7.4.9.6 0 0 .1.1.1.2s0 .2-.1.3c-.1.1-1.1 1.3-1.1 2.9 0 .2-.1 1.2.7 2.6 0 .1.9 1.8-.1 3.2m1.4-1.2s0 .1 0 0l-.1.1h-.5l-.1-.1s-.1-.2.1-.3l.1.1h.2v-.4c0-.4 0-.8.1-1h.1v.9c.3.3.2.5.1.7m3.8.7c-1.1.1-1.8-.9-1.7-.9.1 0 .4.4.7.5.5.2 1.2.1 1.5-.2h.1c0 .1 0 .5-.6.6M22 31.7c0 .1 0 .1 0 0-.1.1-.2.1-.2.1h-.3c0 .1 0 .1.1.2 0 0 .1 0 .1.1.1 0 .1 0 .1.1s-.2.2-.3.2c-.2 0-.3-.2-.4-.4H21c-.2-.1-.4-.1-.7-.1 0-.5 1.3-.1 1.3-.1.1-.2.3-.2.4-.1m19.1 1.1c-.3.1-.8-.3-.8-.3-.1 0-.3-.2-.5-.1s-.3.3-.4.4v-.5h.1c.1-.1.2-.1.4-.1s.4.1.5.2c.2.2.5.2.7.2.1-.1 0 .1 0 .2m4.6-13.9c-.1.1-.5.3-.7.3-.4.1-.8 0-1-.3.3-.1.6.1 1 .1.1 0 .3 0 .4-.1.1 0 .2-.2.4-.2.1.1 0 .2-.1.2m4.2 11.9c-.1.4-.3 1.5-.3 1.5.9-8.4.4-10.5.3-10.4-.1 0-.3 1-.7.7-.5-.3 1-2.1.4-3.2-.1-.2-.3.2-.5.2-.6-.2.3-1.8.2-2-.1-.1-.6-.2-.6-.8 0-.3.2-.5 0-.7-.2-.2-.1.2-.3.1-.3-.3 0-.7-.2-.9-.1-.1-.3.2-.4.1-.2-.1.1-.4-.1-.5-.3 0-.7.3-.6.8 0 .2.3.4.3.6 0 .2-.3.5-.3.6-.4.9.3 1.1.2 1.4 0 .2-.3.2-.5.2-.2-.1-.3-.9-.2-1.2.1-.4.6-.8.6-1.1 0-.2-.3-.5-.3-.8 0-.5.3-1 .8-.9.3.1.5.3.7.6l.2.2c.6.7 1 1.9 1.3 2.9.5 2.9.9 7.5 0 12.6m26-15.6c-.1-2.2-.1-4.4-.2-6.6-.2 1-.4 1.9-.6 2.6l-1 4H72l-1.2-5.1-.3-1.5h-.1l-.1 6.6h-1.5l.3-8.3h2.7c.2.6 1 4.1 1.5 6.7h.1c.5-2.6 1.5-6.1 1.7-6.7h2.5l.3 8.3h-2zm3.6 0v-4.8l-.7-.1v-1h2.3v5.9h-1.6zm0-8.4h1.6v1.4h-1.6V6.8zm6.7 8.4v-3.5c0-.9-.3-1.3-1.1-1.3-.4 0-.8.2-1 .4v4.5h-1.6V9.2h1.1l.2.7c.3-.4 1-.8 1.9-.8 1.5 0 2.1.9 2.1 2.4v3.7h-1.6zm3.4 0v-4.8l-.6-.2v-1h2.3v5.9h-1.7zm0-8.4h1.6v1.4h-1.6V6.8zm4.4 4c0 .9 2.6.6 2.6 2.6 0 1.1-.8 1.9-2.3 1.9-.7 0-1.4-.2-1.8-.4l.3-1.1c.3.2.9.4 1.4.4.5 0 .9-.3.9-.7 0-1.1-2.5-.7-2.5-2.7 0-.9.7-1.7 2.3-1.7.6 0 1.3.1 1.7.3l-.2 1.2c-.4-.2-.9-.3-1.4-.3-.7-.1-1 .2-1 .5zm6.1 4.5c-1.1 0-1.8-.6-1.8-2.1v-2.8h-.9V9.2h.9v-1l1.6-.5v1.5h1.6v1.1h-1.6v2.9c0 .4.2.7.6.7.3 0 .7-.1.9-.3l.2 1.2c-.3.3-.9.5-1.5.5zm3.6-2.7c0 .9.5 1.5 1.5 1.5.6 0 1.2-.3 1.7-.5l.3 1.1c-.5.3-1.3.6-2.2.6-1.9 0-2.9-1.1-2.9-3.1 0-1.8.9-3.1 2.8-3.1 1.8 0 2.5 1.3 2.5 2.8v.7h-3.7zm1.1-2.3c-.8 0-1.1.7-1.1 1.4h2.2c0-.8-.2-1.4-1.1-1.4zm7.2.3c-.2-.1-.5-.1-.7-.1-.4 0-.8.2-1.1.4v4.3h-1.6v-6h1.1c.1.3.1.5.2.8.2-.4.7-.9 1.4-.9.3 0 .5 0 .7.1v1.4zm1.5 4.6v-4.8l-.7-.1v-1h2.3v5.9h-1.6zm-.1-8.4h1.6v1.4h-1.6V6.8zm8.4 5.4c0 2-1 3.1-2.8 3.1-1.8 0-2.8-1.1-2.8-3.1 0-1.7 1-3.1 2.8-3.1 1.8 0 2.8 1.3 2.8 3.1zm-1.6 0c0-1.4-.4-1.9-1.2-1.9-.7 0-1.2.5-1.2 1.9s.4 1.9 1.2 1.9c.8 0 1.2-.5 1.2-1.9zm9.3-2.5c-.1-.3-.1-.6-.1-1.1V6.8h1.6v8.4h-1.3l-.2-.7c-.2.4-.8.8-1.6.8-1.3 0-2.4-1-2.4-3.1 0-2 1.1-3.1 2.6-3.1.6 0 1.1.2 1.4.6zm-.1.9c-.2-.1-.6-.3-1.1-.3-.8 0-1.2.5-1.2 1.9s.4 2 1.2 2c.4 0 .8-.2 1.1-.5v-3.1zm4.4 2c0 .9.5 1.5 1.5 1.5.6 0 1.2-.3 1.7-.5l.3 1.1c-.5.3-1.3.6-2.2.6-1.9 0-2.9-1.1-2.9-3.1 0-1.8.9-3.1 2.8-3.1 1.8 0 2.5 1.3 2.5 2.8v.7h-3.7zm1.1-2.3c-.8 0-1.1.7-1.1 1.4h2.2c-.1-.8-.3-1.4-1.1-1.4zm-66.1 17V19h5v1.3h-3.4v2.1H73l-.1 1.4h-2.5V26h3.4v1.3h-5zm11-.4c-.3.2-1.1.5-2 .5-1.8 0-2.8-1-2.8-3.1 0-1.9 1.1-3.1 2.8-3.1.8 0 1.5.2 2 .5l-.4 1.1c-.4-.3-1-.4-1.5-.4-.8 0-1.3.6-1.3 1.9 0 1.3.5 1.9 1.4 1.9.6 0 1.2-.2 1.6-.4l.2 1.1zm6.3-2.6c0 2-1 3.1-2.8 3.1-1.8 0-2.8-1.1-2.8-3.1 0-1.7 1-3.1 2.8-3.1 1.9 0 2.8 1.4 2.8 3.1zm-1.6 0c0-1.4-.4-1.9-1.2-1.9-.7 0-1.2.5-1.2 1.9s.4 1.9 1.2 1.9c.8.1 1.2-.4 1.2-1.9zm6.5 3v-3.5c0-.9-.3-1.3-1.1-1.3-.4 0-.8.2-1 .4v4.5h-1.6v-5.9h1.1l.2.7c.3-.4 1-.8 1.9-.8 1.5 0 2.1.9 2.1 2.4v3.7H91zm8.3-3c0 2-1 3.1-2.8 3.1-1.8 0-2.8-1.1-2.8-3.1 0-1.7 1-3.1 2.8-3.1 1.8 0 2.8 1.4 2.8 3.1zm-1.6 0c0-1.4-.4-1.9-1.2-1.9-.7 0-1.2.5-1.2 1.9s.4 1.9 1.2 1.9c.8.1 1.2-.4 1.2-1.9zm8-.7v3.7h-1.6v-3.5c0-.9-.3-1.3-1.1-1.3-.4 0-.7.2-1 .4v4.5h-1.6v-5.9h1.1l.3.7c.3-.4.9-.8 1.8-.8 1 0 1.6.3 1.9.8.4-.4 1-.8 1.8-.8 1.7 0 2.2.9 2.2 2.4v3.7h-1.6V24c0-.9-.4-1.3-1.1-1.3-.4 0-.7.2-1 .4-.1 0-.1.2-.1.5zm4.8-3.2l-.2-.9 3.1-.9c0 .2.2 1 .2 1.2l-3.1.6zm.7 6.9v-4.8l-.7-.1v-1h2.3v5.9h-1.6zm6.7 0l-.2-.7c-.3.4-.9.8-1.7.8-1.2 0-2-.8-2-1.9 0-1.1.8-1.8 2.3-1.8h1.2v-.3c0-.8-.4-1-1.1-1-.7 0-1.3.2-1.8.4l-.4-1.1c.6-.3 1.4-.5 2.4-.5 1.7 0 2.4.8 2.4 2.3v3.8h-1.1zm-.4-2.6h-1c-.7 0-1 .3-1 .8s.3.9.9.9c.4 0 .8-.2 1.1-.4v-1.3zm2.7.9h1.6v1.8c0 1-.6 1.4-1.6 1.6v-.8c.2 0 .4-.3.4-.8l-.4-.2v-1.6zm-49.8 7v2.3H73l-.1 1.4h-2.5v3.2h-1.6v-8.3h5v1.3h-3.4zm9.3 3.9c0 2-1 3.1-2.8 3.1-1.8 0-2.8-1.1-2.8-3.1 0-1.7 1-3.1 2.8-3.1 1.8 0 2.8 1.3 2.8 3.1zm-1.6 0c0-1.4-.4-1.9-1.2-1.9-.7 0-1.2.5-1.2 1.9s.4 1.9 1.2 1.9c.8 0 1.2-.5 1.2-1.9zm8.1-.7v3.7h-1.6V36c0-.9-.3-1.3-1.1-1.3-.4 0-.7.2-1 .4v4.5h-1.6v-5.9H82l.3.7c.3-.4.9-.8 1.8-.8 1 0 1.6.3 1.9.8.4-.4 1-.8 1.8-.8 1.7 0 2.2.9 2.2 2.4v3.7h-1.6v-3.5c0-.9-.4-1.3-1.1-1.3-.4 0-.7.2-1 .4-.1-.1-.1.2-.1.5zm6.3 1.1c0 .9.5 1.5 1.5 1.5.6 0 1.2-.3 1.7-.5L96 39c-.5.3-1.3.6-2.2.6-1.9 0-2.9-1.1-2.9-3.1 0-1.8.9-3.1 2.8-3.1 1.8 0 2.5 1.3 2.5 2.8v.7h-3.7zm1.1-2.3c-.8 0-1.1.7-1.1 1.4h2.2c0-.8-.3-1.4-1.1-1.4zm7.5 4.9V36c0-.9-.3-1.3-1.1-1.3-.4 0-.8.2-1 .4v4.5h-1.6v-5.9h1.1l.2.7c.3-.4 1-.8 1.9-.8 1.5 0 2.1.9 2.1 2.4v3.7h-1.6zm5.1.1c-1.1 0-1.8-.6-1.8-2.1v-2.8h-.9v-1.1h.9v-1l1.6-.6v1.5h1.6v1.1H106v2.9c0 .4.2.7.6.7.3 0 .7-.1.9-.3l.2 1.2c-.2.2-.8.5-1.5.5zm8-3.1c0 2-1 3.1-2.8 3.1-1.8 0-2.8-1.1-2.8-3.1 0-1.7 1-3.1 2.8-3.1 1.8 0 2.8 1.3 2.8 3.1zm-1.7 0c0-1.4-.4-1.9-1.2-1.9-.7 0-1.2.5-1.2 1.9s.4 1.9 1.2 1.9c.9 0 1.2-.5 1.2-1.9zm7.9 2.8l-1 .2-1.8-6h1.8l1.3 5c.2-.9 1-4.1 1.3-5h1.6l-1.8 6.1c-.5 1.7-1.4 2.3-2.6 2.3-.7 0-1.4-.4-1.7-.6l.5-1.1h.1s.5.4 1.1.4c.6 0 1.1-.4 1.3-1.2l-.1-.1zm-48.6 5.4v6.9h-1.7v-6.9h-2v-1.3h5.7v1.3h-2zm6.6 6.9l-.2-.7c-.3.4-.9.8-1.9.8-1.5 0-2.2-.8-2.2-2.5v-3.6h1.6v3.6c0 .9.3 1.2 1.1 1.2.4 0 .8-.2 1.1-.4v-4.5h1.6v5.9h-1.1zm5.7-4.6c-.2-.1-.5-.1-.7-.1-.4 0-.8.2-1.1.4v4.3h-1.6v-5.9h1.1c.1.3.1.5.2.8.2-.4.7-.9 1.4-.9.3 0 .5 0 .7.1V47zm1.5 4.6v-4.8l-.7-.1v-1h2.3v5.9h-1.6zm-.1-8.4h1.6v1.4h-1.6v-1.4zm4.4 4c0 .9 2.6.6 2.6 2.6 0 1.1-.8 1.9-2.3 1.9-.7 0-1.4-.2-1.8-.4l.3-1.1c.3.2.9.4 1.4.4.5 0 .9-.3.9-.7 0-1.1-2.5-.7-2.5-2.7 0-.9.7-1.7 2.3-1.7.6 0 1.3.1 1.7.3l-.3 1.2c-.4-.2-.9-.3-1.4-.3-.6 0-.9.2-.9.5zm9.1.7v3.7h-1.6v-3.5c0-.9-.3-1.3-1.1-1.3-.4 0-.7.2-1 .4v4.5h-1.6v-5.9h1.1l.3.7c.3-.4.9-.8 1.8-.8 1 0 1.6.3 1.9.8.4-.4 1-.8 1.8-.8 1.7 0 2.2.9 2.2 2.4v3.7h-1.6v-3.5c0-.9-.4-1.3-1.1-1.3-.4 0-.7.2-1 .4-.1 0-.1.2-.1.5zm10.3.7c0 2-1 3.1-2.8 3.1-1.8 0-2.8-1.1-2.8-3.1 0-1.7 1-3.1 2.8-3.1 1.8 0 2.8 1.4 2.8 3.1zm-1.6 0c0-1.4-.4-1.9-1.2-1.9-.7 0-1.2.5-1.2 1.9s.4 1.9 1.2 1.9c.8.1 1.2-.5 1.2-1.9zm-34.2 80c-.9.4-1.6.6-2.4.6-2 0-3-1.4-3-3.5 0-2 1-3.3 3.1-3.3 1 0 1.7.2 2.2.6l-.5 1c-.4-.3-1-.4-1.6-.4-1.2 0-1.7.9-1.7 2.2 0 1.6.6 2.4 1.7 2.4.4 0 .8-.1 1.1-.2v-1.2h-.9l-.1-1h2.2v2.8zm5.4-1.9c0 1.6-.8 2.5-2.3 2.5-1.4 0-2.3-.9-2.3-2.5 0-1.4.8-2.5 2.3-2.5 1.5 0 2.3 1.1 2.3 2.5zm-1.3 0c0-1.2-.3-1.6-.9-1.6-.6 0-.9.4-.9 1.6 0 1.1.3 1.6.9 1.6.6 0 .9-.4.9-1.6zm3.4-1.9c.2-.3.7-.6 1.3-.6 1.1 0 1.9.8 1.9 2.5s-1 2.5-2.1 2.5c-.7 0-1.1-.3-1.4-.7l-.2.6h-.7v-6.8h1.3v1.7l-.1.8zm.1 3c.2.3.5.5.9.5.6 0 1-.4 1-1.6 0-1.1-.4-1.6-1-1.6-.3 0-.7.2-.9.4v2.3zm4.5 1.3v-3.9l-.6-.1v-.8h1.8v4.8h-1.2zm0-6.7h1.3v1.2h-1.3v-1.2zm3.6 4.7c0 .8.4 1.2 1.2 1.2.5 0 1-.2 1.4-.4l.2.9c-.4.2-1.1.5-1.8.5-1.5 0-2.4-.9-2.4-2.5 0-1.5.7-2.5 2.3-2.5 1.5 0 2 1.1 2 2.3v.6h-2.9zm.9-1.9c-.6 0-.9.6-.9 1.1H91c-.1-.6-.3-1.1-.9-1.1zm5.8.2c-.2 0-.4-.1-.6-.1-.3 0-.6.1-.9.3v3.5h-1.3v-4.8h.9l.1.6c.1-.3.6-.7 1.1-.7.3 0 .5 0 .6.1l.1 1.1zm3.7 3.7v-2.9c0-.7-.3-1.1-.9-1.1-.3 0-.6.1-.8.3v3.6h-1.3v-4.8h.9l.2.6c.3-.3.8-.6 1.5-.6 1.2 0 1.7.7 1.7 1.9v3h-1.3zm6.7-2.4c0 1.6-.8 2.5-2.3 2.5-1.4 0-2.3-.9-2.3-2.5 0-1.4.8-2.5 2.3-2.5 1.5 0 2.3 1.1 2.3 2.5zm-1.3 0c0-1.2-.3-1.6-.9-1.6-.6 0-.9.4-.9 1.6 0 1.1.3 1.6.9 1.6.6 0 .9-.4.9-1.6zm7.5-2c-.1-.3-.1-.5-.1-.9v-1.5h1.3v6.8h-1l-.1-.5c-.2.3-.7.6-1.3.6-1.1 0-2-.8-2-2.5 0-1.6.9-2.5 2.1-2.5.4 0 .9.2 1.1.5zm-.1.7c-.2-.1-.5-.2-.9-.2-.6 0-1 .4-1 1.5s.4 1.6 1 1.6c.3 0 .6-.2.9-.4v-2.5zm3.5 1.7c0 .8.4 1.2 1.2 1.2.5 0 1-.2 1.4-.4l.2.9c-.4.2-1.1.5-1.8.5-1.5 0-2.4-.9-2.4-2.5 0-1.5.7-2.5 2.3-2.5 1.5 0 2 1.1 2 2.3v.6h-2.9zm.9-1.9c-.6 0-.9.6-.9 1.1h1.8c0-.6-.2-1.1-.9-1.1zm8 4c-1.9 0-2.9-1.2-2.9-3.4 0-2.1 1-3.4 2.9-3.4.9 0 1.7.2 2.3.6l-.5 1c-.3-.3-.9-.5-1.6-.5-1.1 0-1.7.8-1.7 2.2 0 1.5.6 2.3 1.6 2.3.6 0 1.3-.3 1.7-.6l.4 1c-.6.6-1.3.8-2.2.8zm3.1-.1v-6.8h1.3v1.8c0 .3-.1.6-.1.7.3-.3.7-.7 1.4-.7 1.4 0 1.8.7 1.8 1.9v3H131v-2.9c0-.7-.3-1.1-.9-1.1-.3 0-.6.1-.9.3v3.6h-1.3zm5.8 0v-3.9l-.6-.1v-.8h1.8v4.8h-1.2zm-.1-6.7h1.3v1.2h-1.3v-1.2zm2.5 5.5v-5.5h1.3v5.4c0 .4.2.5.8.5v.9s-.4.1-.7.1c-1-.1-1.4-.6-1.4-1.4zm4-.8c0 .8.4 1.2 1.2 1.2.5 0 1-.2 1.4-.4l.2.9c-.4.2-1.1.5-1.8.5-1.5 0-2.4-.9-2.4-2.5 0-1.5.7-2.5 2.3-2.5 1.5 0 2 1.1 2 2.3v.6h-2.9zm.9-1.9c-.6 0-.9.6-.9 1.1h1.8c-.1-.6-.2-1.1-.9-1.1z"/></g></svg>