<svg id="svg2" xmlns="http://www.w3.org/2000/svg" viewBox="0 0 774.2 189.2"><style>.st0{fill:#fff}.st1{fill:#f57917}</style><g id="_x23_005f9fff" transform="translate(-40.387 -24.312)"><path id="path6" class="st0" d="M101 27.2c20.2-4.8 42.1-3.8 61.4 4.3 18.5 7.8 33.1 23.6 40.3 42.2 6.8 16.7 7.6 35 6.9 52.8-.2 4.2-4.4 7.1-8.4 6.8h-96.3c-5.4.1-10.8-.4-16.1.7-1.5 11 2.9 22.5 11.2 29.8 7.7 7.1 18.4 10.1 28.7 10.4 9.2.2 18.7-.6 27.1-4.5 5.6-2.5 10.4-6.3 15.4-9.8 1.9-1.4 4.9-2.4 6.6-.2 7.4 7.2 15.5 13.8 22.6 21.3 2.3 2.8-.9 5.9-3.1 7.6-21.7 16.1-48.7 27-76.1 24.5-20.3-1.1-41.3-7.3-56.1-21.9-14.6-13.9-21.3-34-23.6-53.6-2.7-25.1-.7-51.9 11.8-74.3C63.2 45.4 81 32 101 27.2m-5 49.2c-5.2 7.3-7.4 16.3-7.8 25.2H162c-.7-8.9-2.6-18.2-8.1-25.4-13.4-18.1-44.7-18-57.9.2z"/><path id="path8" class="st0" d="M591.7 52.6c-.1-2.3.2-5.7 3.2-5.9 6.7-.3 13.4-.1 20.1-.1 1.8-.1 3.8 1.5 3.7 3.4.3 6.3 0 12.5.1 18.8 5.8.1 11.6-.2 17.4.1 2-.2 3.7 1.8 3.6 3.7.2 5.5.1 10.9 0 16.4.3 1.9-.9 3.8-2.7 4.6-5.3.7-10.7-.3-15.9.6-2 .5-2.4 2.9-2.3 4.6v40.1c.1 4.6.4 10 4.2 13.1 3.9 3.4 9.4 1.4 14 2.2 1.2.7 2.7 1.8 2.7 3.3.2 5.5.2 11 0 16.4.1 1.8-1.5 4-3.5 3.8-10.7 0-22.5 1.5-31.9-4.7-8.9-5.6-12.6-16.6-12.6-26.7-.2-31.1 0-62.4-.1-93.7z"/><path id="path10" class="st0" d="M767.9 46.8c6.9-.7 13.9-.2 20.8-.2 2.5-.2 4.1 2.4 3.7 4.7v87.6c.2 4.8.4 10.7 4.9 13.6 4.8 3.4 11.4-.3 16.1 2.9 1.8 3.8.6 8.3 1 12.3-.3 3.3 1.1 7.6-2.1 9.9-11.4.3-24.1 2-34.2-4.5-8.9-5.6-12.7-16.6-12.6-26.7V52.6c.1-2.1-.2-5.1 2.4-5.8z"/><path id="path12" class="st0" d="M375.2 78c12.1-12.3 30.8-16 47.3-13 12.6 2 24.6 9.1 31.5 20 8.3 12.4 10 28 8.8 42.5-.6 2.3-3.2 3.2-5.3 2.9h-63.8c-1.6.1-3.6-.3-4.4 1.5-.3 7.5 3.3 15.2 9.8 19.2 7.6 4.9 17.2 4.8 25.8 3.3 6.6-1.2 11.5-5.9 17.2-9.1 5.3 5 11.1 9.4 15.8 15-.1 2.5-2.3 3.8-4 5.1-12.4 8.6-27.3 14.7-42.6 13.8-14.1-.3-29.1-4.7-38.6-15.7-10-11.5-12.8-27.3-12.7-42.1-.2-15.5 4-32 15.2-43.4m19.4 16.9c-3.9 4.5-5 10.6-5.6 16.3h45c-.2-8.6-4-17.9-12.3-21.6-8.9-3.8-20.8-2.5-27.1 5.3z"/><path id="path14" class="st0" d="M505.5 74.7c9.6-7.7 22.2-12.3 34.5-10.2 11.1 1.1 21.5 7.3 27.4 16.8 6.2 9.6 6.2 21.5 6.1 32.6v58.8c.3 2.2-1 5.3-3.6 5.1-7.5.1-15.1.1-22.6 0-2.1.2-3.7-1.8-3.5-3.8-.1-20.5.1-40.9-.1-61.4 0-7.7-2.2-16.7-9.4-20.8-6.4-3.3-14.7-3.1-21 .5-5.8 3.3-8.8 10.1-8.6 16.5-.1 21.3 0 42.6 0 63.8.2 2.2-.9 5.3-3.5 5.1-7.5.2-15.1.1-22.6 0-2.8.3-3.9-2.9-3.6-5.2V69.9c-.3-2.2 1.3-4.5 3.6-4.7 5-.3 10 0 15.1-.1 3.4 0 7.2-.5 10.1 1.8.2 2.8-.4 5.8 1.7 7.8z"/><path id="path16" class="st0" d="M692.2 64.9c13.4-2.2 27.9-.2 39.5 7.2 10.7 6.8 17.8 18.3 20.5 30.6 1.9 7.8 1.7 16 1.5 24 0 2.5-2.6 4.1-4.9 3.8-18.4.1-36.7 0-55.1 0-4.7.1-9.4-.5-14 .8.2 6.4 2 13 6.8 17.4 7.6 7.3 19.2 7.7 29 5.8 6.4-1.2 11.3-5.9 16.9-8.9 1.9.5 3.2 2.3 4.7 3.5 4 4.1 8.8 7.4 12.2 12.1-13.6 12.2-32.3 19.6-50.7 17.8-12.8-.8-26.1-5.3-34.8-15.2-10-11.1-13-26.7-13-41.2-.3-15 3.1-30.8 13.1-42.4 7.1-8.3 17.5-13.6 28.3-15.3m-8.3 32c-2.8 4.3-3.8 9.4-4.2 14.3h45.2c-.8-5.2-1.6-10.7-4.8-15-8.1-11.8-28.5-11.6-36.2.7z"/></g><g id="_x23_f57917ff" transform="translate(-40.387 -24.312)"><path id="path19" class="st1" d="M246.7 35.9c3.5-1.4 7.5-.3 10.2 2.2 16.6 14.1 27.8 33.9 32.6 55 7 31 2.1 65.4-16.5 91.6-5.2 7.5-11.4 14.4-18.7 20-3.2 2.6-8.3 2.7-11.3-.2-5.5-4.9-11-9.8-16.4-14.9-2.8-2.2-2.7-6.6.2-8.6 16.7-15.1 26.9-37.1 27.3-59.6.3-22-7.9-44.8-24.7-59.5-1.9-1.8-4.8-4-3.3-6.9 2.1-3.9 6.1-6.3 9.2-9.4 3.9-3.2 7.1-7.2 11.4-9.7z"/></g></svg>