<svg id="Capa_1" xmlns="http://www.w3.org/2000/svg" viewBox="0 0 638 212"><style>.st0{fill:#fff}.st1{fill:#e04327}.st2{fill:#5c9fb9}.st3{fill:#e67b20}.st4{fill:#fed83b}.st5{fill:none}</style><path class="st0" d="M231.7 129.8L263.8 61c.8-1.6 1.8-2.7 3.8-2.7h.2c1.9 0 3 1.1 3.8 2.7l32 68.6c.3.6.4 1.2.4 1.7 0 1.4-1.2 2.5-2.7 2.5-1.3 0-2.3-1-2.8-2.1l-8.8-19.1h-44.3l-8.8 19.2c-.5 1.3-1.4 2-2.7 2-1.4 0-2.6-1.1-2.6-2.3 0-.5.1-1.1.4-1.7m55.7-22.2l-19.8-43-19.9 43h39.7zm29.2 16.4c-.5-.4-1.1-1.2-1.1-2.1 0-1.5 1.3-2.8 2.8-2.8.7 0 1.4.3 1.8.6 7.5 6.7 15 9.7 25.3 9.7 11.3 0 19-6.3 19-14.8v-.2c0-7.9-4.2-12.4-21.3-15.8-18-3.6-25.3-9.7-25.3-20.9v-.2c0-11 10.2-19.5 24.2-19.5 10.1 0 17.1 2.5 23.9 7.6.5.4 1.2 1.2 1.2 2.2 0 1.5-1.3 2.8-2.8 2.8-.6 0-1.3-.2-1.8-.6-6.6-5-13.1-7-20.7-7-11.1 0-18.4 6.3-18.4 14v.2c0 7.9 4.1 12.6 21.9 16.2 17.4 3.5 24.7 9.7 24.7 20.5v.2c0 12-10.4 20.3-24.9 20.3-11.3 0-20.1-3.5-28.5-10.4m71.8 6.6V61.8c0-1.5 1.3-2.8 2.8-2.8h48.5c1.4 0 2.6 1.2 2.6 2.6 0 1.4-1.2 2.5-2.6 2.5H394v29.2h40.9c1.4 0 2.6 1.2 2.6 2.5 0 1.4-1.2 2.6-2.6 2.6H394v29.8h46.3c1.4 0 2.6 1.2 2.6 2.5 0 1.4-1.2 2.5-2.6 2.5h-49.1c-1.5.2-2.8-1.1-2.8-2.6M457 96.4v-.2c0-21 15.9-38.4 37.6-38.4 12.5 0 20.3 4.2 27.6 10.4.5.5 1.1 1.3 1.1 2.2 0 1.5-1.4 2.8-2.9 2.8-.8 0-1.5-.3-1.9-.7-6.2-5.6-13.4-9.7-23.9-9.7-18 0-31.7 14.6-31.7 33.2v.2c0 18.8 13.8 33.5 31.8 33.5 10.2 0 17.4-3.6 24.5-10.3.4-.4 1.1-.8 1.9-.8 1.4 0 2.7 1.3 2.7 2.6 0 .8-.4 1.5-.9 1.9-7.6 7-15.9 11.6-28.5 11.6-21.5-.1-37.4-16.9-37.4-38.3m82.6-35c0-1.5 1.3-2.8 2.8-2.8 1.5 0 2.8 1.3 2.8 2.8v32.1h48.1V61.4c0-1.5 1.3-2.8 2.8-2.8 1.5 0 2.8 1.3 2.8 2.8V131c0 1.5-1.3 2.8-2.8 2.8-1.5 0-2.8-1.3-2.8-2.8V98.5h-48.1V131c0 1.5-1.3 2.8-2.8 2.8-1.5 0-2.8-1.3-2.8-2.8V61.4zm-308.5 98.3l4.9-10.5c.1-.2.3-.4.6-.4s.5.2.6.4l4.9 10.5c.1.1.1.2.1.3 0 .2-.2.4-.4.4s-.3-.1-.4-.3l-1.4-2.9h-6.8l-1.3 2.9c-.1.2-.2.3-.4.3s-.4-.2-.4-.4c-.1-.1-.1-.2 0-.3m8.5-3.4l-3-6.6-3 6.6h6zm4.1 2.5c-.1-.1-.2-.2-.2-.3 0-.2.2-.4.4-.4.1 0 .2 0 .3.1 1.1 1 2.3 1.5 3.9 1.5 1.7 0 2.9-1 2.9-2.3 0-1.2-.6-1.9-3.2-2.4-2.8-.6-3.9-1.5-3.9-3.2 0-1.7 1.6-3 3.7-3 1.5 0 2.6.4 3.7 1.2.1.1.2.2.2.3 0 .2-.2.4-.4.4-.1 0-.2 0-.3-.1-1-.8-2-1.1-3.2-1.1-1.7 0-2.8 1-2.8 2.1 0 1.2.6 1.9 3.3 2.5 2.7.5 3.8 1.5 3.8 3.1 0 1.8-1.6 3.1-3.8 3.1-1.7.1-3.1-.5-4.4-1.5m10.1-4.2c0-3.1 2.3-5.9 5.8-5.9s5.8 2.7 5.8 5.8c0 3.1-2.3 5.9-5.8 5.9s-5.8-2.7-5.8-5.8m10.7 0c0-2.8-2.1-5.1-4.9-5.1-2.8 0-4.9 2.3-4.9 5.1s2.1 5.1 4.9 5.1 4.9-2.3 4.9-5.1m2.9 0c0-3.2 2.4-5.9 5.7-5.9 1.9 0 3.1.7 4.2 1.6.1.1.2.2.2.3 0 .2-.2.4-.4.4-.1 0-.2 0-.3-.1-1-.9-2.1-1.5-3.7-1.5-2.8 0-4.8 2.2-4.8 5.1 0 2.9 2.1 5.1 4.9 5.1 1.6 0 2.7-.5 3.7-1.6.1-.1.2-.1.3-.1.2 0 .4.2.4.4 0 .1-.1.2-.1.3-1.2 1.1-2.4 1.8-4.4 1.8-3.2 0-5.7-2.6-5.7-5.8m12.4-5.4c0-.2.2-.4.4-.4s.4.2.4.4v10.6c0 .2-.2.4-.4.4s-.4-.2-.4-.4v-10.6zm3.3 10.5l4.9-10.5c.1-.2.3-.4.6-.4s.5.2.6.4l4.9 10.5c0 .1.1.2.1.3 0 .2-.2.4-.4.4s-.3-.1-.4-.3L292 157h-6.8l-1.3 2.9c-.1.2-.2.3-.4.3s-.4-.2-.4-.4v-.1m8.5-3.4l-3-6.6-3 6.6h6zm3.7-1.7c0-3.2 2.4-5.9 5.7-5.9 1.9 0 3.1.7 4.2 1.6.1.1.2.2.2.3 0 .2-.2.4-.4.4-.1 0-.2 0-.3-.1-1-.9-2.1-1.5-3.7-1.5-2.7 0-4.8 2.2-4.8 5.1 0 2.9 2.1 5.1 4.9 5.1 1.6 0 2.7-.5 3.7-1.6.1-.1.2-.1.3-.1.2 0 .4.2.4.4 0 .1-.1.2-.1.3-1.2 1.1-2.4 1.8-4.4 1.8-3.3 0-5.7-2.6-5.7-5.8m12.4-5.4c0-.2.2-.4.4-.4s.4.2.4.4v10.6c0 .2-.2.4-.4.4s-.4-.2-.4-.4v-10.6zm3.5 5.4c0-3.1 2.3-5.9 5.8-5.9s5.8 2.7 5.8 5.8c0 3.1-2.3 5.9-5.8 5.9s-5.8-2.7-5.8-5.8m10.7 0c0-2.8-2.1-5.1-4.9-5.1-2.8 0-4.9 2.3-4.9 5.1s2.1 5.1 4.9 5.1c2.9 0 4.9-2.3 4.9-5.1m-5.1-7.1c0-.1 0-.1.1-.2l1-1.5c.1-.2.3-.3.5-.3.3 0 .7.2.7.4 0 .1-.1.2-.2.3l-1.3 1.3c-.2.2-.3.2-.5.2s-.3-.1-.3-.2m8.5 1.7c0-.2.2-.4.4-.4h.1c.2 0 .3.1.4.2l7.8 9.7v-9.6c0-.2.2-.4.4-.4s.4.2.4.4v10.7c0 .2-.1.4-.3.4h-.1c-.2 0-.3-.1-.4-.3l-7.9-9.9v9.8c0 .2-.2.4-.4.4s-.4-.2-.4-.4v-10.6zm17.2.1c0-.2.2-.4.4-.4h3.4c3.6 0 6.1 2.4 6.1 5.6 0 3.2-2.5 5.7-6.1 5.7H343c-.2 0-.4-.2-.4-.4v-10.5zm3.9 10.1c3.2 0 5.2-2.2 5.2-4.9s-2-4.9-5.2-4.9h-3v9.8h3zm8.6.4v-10.5c0-.2.2-.4.4-.4h7.4c.2 0 .4.2.4.4s-.2.4-.4.4h-7v4.5h6.3c.2 0 .4.2.4.4s-.2.4-.4.4h-6.3v4.6h7.1c.2 0 .4.2.4.4s-.2.4-.4.4h-7.5c-.2-.2-.4-.4-.4-.6m15.2 0v-10.5c0-.2.2-.4.4-.4h7.4c.2 0 .4.2.4.4s-.2.4-.4.4h-7v4.5h6.3c.2 0 .4.2.4.4s-.2.4-.4.4H371v4.6h7.1c.2 0 .4.2.4.4s-.2.4-.4.4h-7.5c-.2-.2-.4-.4-.4-.6m10.7-10.6c0-.2.2-.4.4-.4h.1c.2 0 .3.1.4.2l4.5 6.5 4.5-6.5c.1-.2.2-.2.4-.2h.1c.2 0 .4.2.4.4v10.6c0 .2-.2.4-.4.4s-.4-.2-.4-.4v-9.5l-4.2 6.1c-.1.1-.2.2-.4.2s-.3-.1-.4-.2l-4.2-6.1v9.5c0 .2-.2.4-.4.4s-.4-.2-.4-.4v-10.6zm13.9.1c0-.2.2-.4.4-.4h3.7c2.5 0 4.3 1.3 4.3 3.5 0 2.4-2.1 3.6-4.5 3.6h-3.1v3.9c0 .2-.2.4-.4.4s-.4-.2-.4-.4v-10.6zm4 5.9c2.1 0 3.6-1.1 3.6-2.8 0-1.8-1.4-2.7-3.5-2.7h-3.2v5.6h3.1zm6.6-5.9c0-.2.2-.4.4-.4h4.4c1.4 0 2.5.4 3.2 1.1.5.5.9 1.3.9 2.1 0 1.9-1.4 3-3.4 3.2l3.3 4.2c.1.1.1.2.1.3 0 .2-.2.4-.4.4s-.3-.1-.4-.2l-3.5-4.5h-3.8v4.4c0 .2-.2.4-.4.4s-.4-.2-.4-.4v-10.6zm4.7 5.4c1.9 0 3.3-1 3.3-2.6 0-1.5-1.2-2.5-3.3-2.5h-3.9v5.1h3.9zm6.8 5.1v-10.5c0-.2.2-.4.4-.4h7.4c.2 0 .4.2.4.4s-.2.4-.4.4h-7v4.5h6.2c.2 0 .4.2.4.4s-.2.4-.4.4h-6.2v4.6h7.1c.2 0 .4.2.4.4s-.2.4-.4.4h-7.5c-.2-.2-.4-.4-.4-.6m10.7-10.6c0-.2.2-.4.4-.4h.1c.2 0 .3.1.4.2l7.7 9.7v-9.6c0-.2.2-.4.4-.4s.4.2.4.4v10.7c0 .2-.1.4-.3.4h-.1c-.2 0-.3-.1-.4-.3l-7.9-9.9v9.8c0 .2-.2.4-.4.4s-.4-.2-.4-.4v-10.6zm12.6.1c0-.2.2-.4.4-.4h3.4c3.6 0 6.1 2.4 6.1 5.6 0 3.2-2.5 5.7-6.1 5.7h-3.4c-.2 0-.4-.2-.4-.4v-10.5zm3.8 10.1c3.2 0 5.2-2.2 5.2-4.9s-2-4.9-5.2-4.9h-3v9.8h3zm8.7.4v-10.5c0-.2.2-.4.4-.4h7.4c.2 0 .4.2.4.4s-.2.4-.4.4h-7v4.5h6.3c.2 0 .4.2.4.4s-.2.4-.4.4h-6.3v4.6h7.1c.2 0 .4.2.4.4s-.2.4-.4.4h-7.5c-.2-.2-.4-.4-.4-.6m10.6-10.5c0-.2.2-.4.4-.4h3.4c3.6 0 6.1 2.4 6.1 5.6 0 3.2-2.5 5.7-6.1 5.7h-3.4c-.2 0-.4-.2-.4-.4v-10.5zm3.9 10.1c3.2 0 5.2-2.2 5.2-4.9s-2-4.9-5.2-4.9h-3v9.8h3zm8.1-4.8c0-3.1 2.3-5.9 5.8-5.9s5.8 2.7 5.8 5.8c0 3.1-2.3 5.9-5.8 5.9s-5.8-2.7-5.8-5.8m10.7 0c0-2.8-2.1-5.1-4.9-5.1-2.8 0-4.9 2.3-4.9 5.1s2.1 5.1 4.9 5.1c2.8 0 4.9-2.3 4.9-5.1m3.4-5.3c0-.2.2-.4.4-.4h4.4c1.4 0 2.5.4 3.2 1.1.5.5.9 1.3.9 2.1 0 1.9-1.4 3-3.4 3.2l3.3 4.2c.1.1.1.2.1.3 0 .2-.2.4-.4.4s-.3-.1-.4-.2l-3.5-4.5h-3.8v4.4c0 .2-.2.4-.4.4s-.4-.2-.4-.4v-10.6zm4.7 5.4c1.9 0 3.3-1 3.3-2.6 0-1.5-1.2-2.5-3.3-2.5h-3.9v5.1h3.9zm6.8 5.1v-10.5c0-.2.2-.4.4-.4h7.4c.2 0 .4.2.4.4s-.2.4-.4.4h-7v4.5h6.3c.2 0 .4.2.4.4s-.2.4-.4.4h-6.3v4.6h7.1c.2 0 .4.2.4.4s-.2.4-.4.4h-7.5c-.2-.2-.4-.4-.4-.6m10.2-1c-.1-.1-.2-.2-.2-.3 0-.2.2-.4.4-.4.1 0 .2 0 .3.1 1.1 1 2.3 1.5 3.9 1.5 1.7 0 2.9-1 2.9-2.3 0-1.2-.6-1.9-3.2-2.4-2.8-.6-3.9-1.5-3.9-3.2 0-1.7 1.6-3 3.7-3 1.5 0 2.6.4 3.7 1.2.1.1.2.2.2.3 0 .2-.2.4-.4.4-.1 0-.2 0-.3-.1-1-.8-2-1.1-3.2-1.1-1.7 0-2.8 1-2.8 2.1 0 1.2.6 1.9 3.3 2.5 2.7.5 3.8 1.5 3.8 3.1 0 1.8-1.6 3.1-3.8 3.1-1.8.1-3.1-.5-4.4-1.5m15.2-9.5c0-.2.2-.4.4-.4h3.4c3.6 0 6.1 2.4 6.1 5.6 0 3.2-2.5 5.7-6.1 5.7h-3.4c-.2 0-.4-.2-.4-.4v-10.5zm3.8 10.1c3.2 0 5.2-2.2 5.2-4.9s-2-4.9-5.2-4.9h-3v9.8h3zm8.7.4v-10.5c0-.2.2-.4.4-.4h7.4c.2 0 .4.2.4.4s-.2.4-.4.4h-7v4.5h6.3c.2 0 .4.2.4.4s-.2.4-.4.4h-6.3v4.6h7.1c.2 0 .4.2.4.4s-.2.4-.4.4h-7.5c-.2-.2-.4-.4-.4-.6m14.7-5.2c0-3.2 2.4-5.9 5.7-5.9 1.9 0 3.1.7 4.2 1.6.1.1.2.2.2.3 0 .2-.2.4-.4.4-.1 0-.2 0-.3-.1-1-.9-2.1-1.5-3.7-1.5-2.8 0-4.8 2.2-4.8 5.1 0 2.9 2.1 5.1 4.9 5.1 1.6 0 2.7-.5 3.7-1.6.1-.1.2-.1.3-.1.2 0 .4.2.4.4 0 .1-.1.2-.1.3-1.2 1.1-2.4 1.8-4.4 1.8-3.3 0-5.7-2.6-5.7-5.8m12.3-5.4c0-.2.2-.4.4-.4s.4.2.4.4v4.9h7.3v-4.9c0-.2.2-.4.4-.4s.4.2.4.4v10.6c0 .2-.2.4-.4.4s-.4-.2-.4-.4v-5h-7.3v5c0 .2-.2.4-.4.4s-.4-.2-.4-.4v-10.6zm12.2 0c0-.2.2-.4.4-.4s.4.2.4.4v10.6c0 .2-.2.4-.4.4s-.4-.2-.4-.4v-10.6zm4.1 0c0-.2.2-.4.4-.4s.4.2.4.4v10.2h6.4c.2 0 .4.2.4.4s-.2.4-.4.4h-6.8c-.2 0-.4-.2-.4-.4v-10.6zm9.8 10.6v-10.5c0-.2.2-.4.4-.4h7.4c.2 0 .4.2.4.4s-.2.4-.4.4h-7v4.5h6.3c.2 0 .4.2.4.4s-.2.4-.4.4h-6.3v4.6h7.1c.2 0 .4.2.4.4s-.2.4-.4.4h-7.5c-.2-.2-.4-.4-.4-.6"/><path class="st1" d="M85.1 106.2c0-10.2-8.5-18.4-19-18.4s-19 8.2-19 18.4 8.5 18.4 19 18.4c10.5-.1 19-8.3 19-18.4"/><path class="st1" d="M117.2 106.7c0 25.5-11.3 42.7-12 43.8-4.3 6.4-13.2 8.2-19.8 4-6.6-4.2-8.5-12.7-4.2-19.1.8-1.3 16.7-26.7-.7-59.4-3.6-6.8-.9-15.2 6.2-18.7 7-3.5 15.7-.8 19.3 6 8.4 15.8 11.2 30.6 11.2 43.4"/><path class="st2" d="M131 150.7c-10.5 0-19 8.2-19 18.4s8.5 18.4 19 18.4 19-8.2 19-18.4-8.5-18.4-19-18.4"/><path class="st3" d="M177.1 106.2c0 10.2 8.5 18.4 19 18.4s19-8.2 19-18.4-8.5-18.4-19-18.4-19 8.2-19 18.4"/><path class="st4" d="M131.1 61.6c10.5 0 19-8.2 19-18.4s-8.5-18.4-19-18.4-19 8.2-19 18.4c.1 10.2 8.6 18.4 19 18.4"/><path class="st2" d="M183.2 143.5c0 .2 0 .4-.1.6.1-.2.1-.4.1-.6m-.2 1.4c0 .2-.1.4-.1.5.1-.1.1-.3.1-.5m0-4.2c0 .3.1.6.1.8 0-.2 0-.5-.1-.8m-.3-1.5c.1.3.2.7.2 1 0-.3-.1-.6-.2-1m0 7.1c0 .1-.1.2-.1.4.1-.1.1-.3.1-.4m-.5 1.6s0-.1.1-.1c-.1 0-.1.1-.1.1m.5-8.9c-.3-1-.7-2-1.2-3 .1.1.1.3.2.4.4.9.7 1.8 1 2.6m-26.6 10.2c-5.3-10-8.4-19.6-10-28.5-4.5-.7-9.4-1.1-14.6-1.1-13.2 0-28.5 2.8-44.9 10.9-7 3.5-9.8 11.9-6.2 18.7 3.6 6.8 12.3 9.5 19.3 6 31.8-15.9 57-3.1 60.9-1-1.8-1.3-3.4-3-4.5-5"/><path class="st3" d="M161.1 154.5c-.1 0-.2-.1-.5-.3 4.2 2.9 9.9 3.4 14.8 1 3.2-1.6 5.5-4.2 6.8-7.2-.3.8-.8 1.7-1.3 2.5-4.3 6.3-13.2 8.1-19.8 4m21.6-15.5c0 .1 0 .1.1.2-.1 0-.1-.1-.1-.2m.3 1.3c0 .1.1.3.1.4-.1-.1-.1-.3-.1-.4m.1 1.2v.6c.1-.2.1-.4 0-.6m0 2.7c0 .3-.1.5-.1.8.1-.3.1-.6.1-.8"/><path class="st3" d="M183.2 142.1v-.6c0-.3-.1-.6-.1-.8 0-.1 0-.3-.1-.4-.1-.3-.1-.7-.2-1 0-.1 0-.2-.1-.2-.3-.9-.6-1.7-1-2.6-.1-.1-.1-.3-.2-.4-17-32.5-1.3-57.8-.5-59 .2-.2.3-.5.4-.7-1.3 2.3-3.3 4.2-5.9 5.5-10.4 5.1-20.3 8.1-29.5 9.6-.7 4.4-1.2 9.1-1.2 14.1 0 4.7.4 9.7 1.3 15 1.6 8.9 4.7 18.5 10 28.5 1.1 2.1 2.7 3.8 4.5 5 .2.1.4.2.5.3 6.6 4.1 15.4 2.3 19.7-4.1.5-.8 1-1.6 1.3-2.5 0 0 0-.1.1-.1.1-.4.3-.7.4-1.1 0-.1.1-.3.1-.4.1-.3.1-.6.2-.9 0-.2.1-.4.1-.5 0-.2.1-.5.1-.8 0-.2 0-.4.1-.6v-1.3"/><path class="st3" d="M182.9 145.4c-.1.3-.1.6-.2.9.1-.3.2-.6.2-.9"/><path class="st4" d="M181.6 63.2c-3.6-6.8-12.3-9.5-19.3-6-33.8 16.8-60.1 1.5-61.4.7-6.6-4.1-8.5 1.4-12.8 7.8-4.3 6.3-9.4 11.3-2.7 15.4.5.3 4.6 2.8 11.5 5.5 7.9 3 19.6 6.2 33.7 6.2 4.9 0 10.1-.4 15.5-1.3 9.2-1.5 19.1-4.5 29.4-9.7 2.6-1.3 4.6-3.2 5.9-5.5.1-.2.2-.4.3-.5 1.9-3.8 2.1-8.5-.1-12.6"/><path class="st1" d="M100.6 57.6c-.2-.1-.5-.3-.7-.4l-.6-.3-.6-.3c-.3-.1-.5-.2-.8-.3-.2-.1-.3-.1-.5-.2-.3-.1-.6-.2-.8-.2-.2 0-.3-.1-.5-.1-.3-.1-.5-.1-.8-.1-.2 0-.4-.1-.6-.1-.2 0-.5 0-.8-.1h-1.3c-.2 0-.5 0-.7.1-.2 0-.4 0-.6.1-.3 0-.5.1-.7.1-.4.2-.6.2-.8.2-.2.1-.5.1-.7.2-.2.1-.5.2-.7.2-.2.1-.4.1-.6.2-.3.1-.6.2-.9.4-.1.1-.3.1-.4.2-.3.2-.6.3-.9.5-.1.1-.2.1-.3.2-.3.2-.6.4-.8.6-.1.1-.2.2-.3.2-.2.2-.4.4-.6.5l-.4.4c-.2.1-.3.3-.4.4-.2.2-.4.4-.5.6-.1.1-.2.3-.3.4-.2.2-.4.5-.5.7-.1.2-.2.3-.3.5-.1.2-.3.5-.4.7l-.3.6-.3.6c-.1.3-.2.5-.3.8-.1.2-.1.3-.2.5-.1.3-.2.6-.2.8 0 .2-.1.3-.1.5-.1.3-.1.5-.1.8 0 .2-.1.3-.1.5 0 .3 0 .5-.1.7v2c0 .2 0 .4.1.6 0 .2.1.5.1.7.1.2.1.4.1.6.1.2.1.5.2.7.1.2.1.5.2.7.1.2.1.4.2.6.1.3.2.5.4.8 1.1 2.2 2.8 4.2 5.1 5.6.5.3 4.5 12.6 11.6 15.2 4.9 1.8 12.7 4.2 18.9-4.7-1.6-8.9-4.7-18.5-10-28.5-1.3-2.2-3.2-4.1-5.4-5.4"/><path class="st5" d="M47.1 24.9h553.1v162.6H47.1z"/></svg>