<svg xmlns="http://www.w3.org/2000/svg" viewBox="0 0 150.2 136.1"><style>.st0{fill:#eb3c46}.st1{fill:#0f69b4}.st2{fill:#fff}.st3{display:none}.st4{display:inline}</style><g id="Gobierno_de_Chile"><path class="st0" d="M61.3 0h88.9v136.1H61.3z"/><path class="st1" d="M-.1 0h61.3v136.1H-.1z"/><path class="st2" d="M36.2 26.5v2.1c.4-.9.2-1.6 0-2.1m4.5-12.4c-.1.2-.4.2-.4.4-.3-.2.2-.7.4-.4m1.4-.1c.2-.1.4-.5.7-.3.1.1.3.2.4.3.2.1.3.2.4.4.1.2-.2.6-.4.2-.2-.3-.4-.8-.8-.6-.3.2-.6.4-.6.2-.1-.2.2-.2.3-.2m.1.3c.1-.2.2.5.7.3-.4.5-.9 0-.7-.3m-1.8.7c.1 0 0-.3.2-.3s.6.2.7.4c.1.3-.2.9.7 1v.3c0 .2-.1.3-.1.5h.2c1.1.1 1.8 0 2.1-.4 0 0 .2-.2.3-.4.3-.6.3-1.1.2-1.6v-.1c0-.1 0-.1-.1-.2-.3-.5-.9-1-1.8-1.3h-.2.2c.6.1 1.7.7 1.9 1.3.2-.1.4-.5.4-.8 0-.1 0-.4.1-.8 0-.1 0-.2-.1-.3-.1 0-.2 0-.2.1-.2.3-.5.1-.4-.2 0-.1 0-.2-.1-.3-.1 0-.2 0-.3.1-.1.3-.5.1-.4-.2 0-.1 0-.2-.1-.3-.1 0-.2 0-.3.1-.1.3-.5.1-.4-.2 0-.1 0-.2-.1-.3-.1 0-.2 0-.2.1-.1.2-.2.4-.3.5.7.1 1.4.5 1.9 1 0 0 .2.2.2.3v.1c-.1-.1-.1-.2-.2-.2-.8-.6-1.4-.9-2-1-.4 0-.3.5-.2.7-.6-.1-1.1.3-1.1.8 0 .2 0 .3.1.5l-.2-.2c0-.1-.1-.2-.1-.3-.5 0-1 .3-.9.8.1.5.4.8.6.8m13.9 21.6c-.4-.4-1.3-.2-1.3-.2.5-1.5-.9-1.9-.9-1.9-.5-.1-.8 0-1 .1 0 0-.1 0-.1.1-.1.1-.2.3-.2.5 0 .4.3.7.7.7.2 0 .3 0 .4-.1.1-.1.2-.3.3-.4.2.1.3.3.3.3.4 1.3-1 1.7-1 1.7-3.2.9-5.1-.7-5.1-.7l.6-.3c.2-.1.4-.1.5-.1v.1c0 .3.3.6.6.6s.6-.3.6-.6c0-.1 0-.2-.1-.3V36c-.4-.6-1.6-.2-1.6-.2.4-1 0-1.8 0-1.8-.2-.4-.2-.5-.2-.5 0-.4-.1-.4-.1-.4-.2-.3-.5-.1-.5-.1-.5.1-.6-.1-.6-.1-.4-.3-.6-.1-.6-.1-.2.1.1.4.1.4-.5 0-.6.6-.6.6-.2 1 .6 1 .6 1 .6 0 .6-.4.6-.4.1-.4-.6-.5-.6-.5.1-.3.3-.3.3-.3.7-.2 1 .6 1 .6.5.8-.1 1.6-.1 1.6-.1.1-.2 0-.2 0-.4-.2-.9-.6-.9-.6H45c-.2 0-.5.1-.7.2.3.3 1.1 1 1.1 1-.6.5-1 .2-1 .2-.3-.3-.2-.9-.2-1.1h-.1c-.3.1-.6.2-.9.4.3.5.8 1.3.8 1.3-.7.3-.9-.7-.9-1.2-.1.1-.3.1-.4.2v.2c0 .5.5 1.2.5 1.2-.5-.1-.8.2-.8.2-.3.3-.3.7-.3.8 0 .2.2.3.4.3s.4-.2.4-.4-.2-.4-.3-.4c.2-.4.5-.1.5-.1.6.5-.3 1.1-.3 1.1-.6.4-1.2-.4-1.2-.4.7-1.2.8-2 .8-2.5-.2.1-.5.2-.7.2.3 1.1-.4 1.7-.4 1.7-.2-.1-.2-.7-.2-.7-.1-.2-.1-.5-.2-.7-.2.1-.4.1-.6.2.2.7.3 1.6.3 1.6-.1.1-.5.2-.5.2-.5 0-.2-.2-.2-.2.3-.2.2-.4.2-.4-.2-.4-.7 0-.7 0-.8.4-.5.9-.5.9.1.3.9.5.9.5-.4.3-1.2.2-1.3.2 0-.2-.2-.4-.4-.5-.3 0-.4.1-.5.2 0 0-.1.1-.1.2l-.5-.1c-.3 0-.5-1-.6-1.8H36c.1.9.3 1.6.3 1.6-.2 0-.8-.5-.8-.5-.8-.5-1.4-.4-1.4-.3-.4.1-.7.4-.7.9s.4.9.9.9.9-.4.9-.9c.3.2.6.3.6.3.8.5 1.6.6 1.8.6.1.3.3.5.6.5.2 0 .5-.1.6-.3 1.7-.1 2.4-.8 2.4-.8.2-.2.2-.1.2-.1.6.9 1.9.4 1.9.4.2-.1.3 0 .3 0 .3.4.6.2.6.2.5-.3.2-.6.2-.6-.2-.2 0-.2 0-.2.6.1.7-.2.7-.2.1-.3-.3-.5-.3-.5-.1-.1.1-.3.1-.3.3-.2.3-.4.3-.4.4 0 .4-.2.4-.2 0-.2-.5-.2-.5-.2-.4 0-.3-.3-.3-.3.6 0 1.6-.3 1.6-.3 1.4 1.1 3.5 1.4 3.5 1.4v.5c-.2 0-.3.1-.3.3 0 .2.2.3.3.3h.1c.7-.2.7-1.2.7-1.2 1.9.2 3.2-1.2 3.2-1.2.2-.2.3-.1.3-.1.1.1.2.2.4.2s.3-.1.4-.2c.1-.1.1-.2.1-.3-.7 0-.8-.1-.8-.1M31.4 39c.2-.1.2-.3.2-.3 0-.5-.3-.8-.4-.8h-1.4s-.4.2-.3.8c0 0 0 .2.2.3 0 0-.5.2-.5.5 0 0-.1.2.4.6 0 0 .3.3.4.6 0 0 0 .4.5.4s.5-.4.5-.4c.1-.3.4-.6.4-.6.4-.3.4-.6.4-.6.1-.3-.4-.5-.4-.5m3.6-2.1h.2l-.1-.3zm-8.4 0l.2.1-.1-.4zm-1-.7l-.1.4h.2s.1 0 .1-.1v-.3c-.1.1-.1.1-.2 0m3.6.3c-.1 0-.2 0-.2.1s-.1.2-.1.3c0 .2 0 .3.1.3 0 .1.1.1.2.1s.2 0 .2-.1.1-.2.1-.3c0-.1 0-.3-.1-.3 0 0-.1-.1-.2-.1m3.1 0c-.1 0-.1 0-.2.1 0 .1-.1.2 0 .3 0 .2 0 .3.1.3 0 .1.1.1.2.1s.2 0 .2-.1.1-.2.1-.3c0-.1 0-.3-.1-.3s-.2-.1-.3-.1m-8.6 0l.3.1-.1-.4zM19 34.6l-.2.4h.2l.1-.1v-.1s0-.1-.1-.1c.1 0 0-.1 0-.1m.9.5c-.1.1-.1.1-.2.3 0 .2-.1.3 0 .3 0 .1.1.1.2.2h.2c.1 0 .1-.1.2-.3 0-.1.1-.3 0-.3 0-.1-.1-.1-.2-.2 0-.1-.1-.1-.2 0m1.4.3l-.1.4h.3s0-.1.1-.1v-.2c-.1-.1-.2-.1-.3-.1"/><path class="st2" d="M40.1 35.4h-.2l.1.4c.1 0 .1 0 .2-.1l.1-.1v-.1c-.1 0-.1-.1-.2-.1m2.1-.1l.3-.1-.3-.2z"/><path class="st2" d="M42.6 35.5v-.1l-.1-.1-.3.1v.2h.1v.1l-.3.1v-.1c.1 0 .1-.1.1-.2v-.9h.1l.6.6.1.1h.1v.1l-.4.1zm-1.6.6l.3-1.1-.2.1c-.1 0-.2.1-.2.1v.2h-.1l-.1-.3.8-.3v.1l-.3 1 .2-.1c.1 0 .1 0 .1-.1 0 0 0-.1.1-.1v-.1h.1l.1.3-.8.3zm-.4.1l-.2-.2-.1-.1h-.2l.1.2v.1h.1v.1l-.5.1v-.1s.1 0 .1-.1v-.1l-.2-.6v-.1h-.1v-.1l.4-.1h.4s.1 0 .1.1l.1.1c0 .1 0 .2-.1.3l.2.2c.1.1.1.1.2.1h.1v.1l-.4.1zm-1.9.5c0-.1.1-.1.1-.1v-.1l-.1-.6v-.1h-.1v-.1l.8-.2.1.3h-.1l-.1-.1h-.4l.1.3h.2v-.1h.1l.1.3h-.1v-.1h-.2l.1.2v.1h.2c.1 0 .1 0 .1-.1 0 0 0-.1.1-.1v-.1h.1l.1.3-1.1.3zm-.5-.7l.1.3v.3l-.1.1c-.1 0-.1.1-.2.1h-.2c-.1 0-.1 0-.2-.1l-.1-.1s0-.1-.1-.2l-.1-.4v-.1h-.1v-.1l.5-.1v.1h-.1v.1l.1.4c0 .1 0 .1.1.2l.1.1h.2c.1 0 .1 0 .1-.1l.1-.1v-.2l-.1-.2c-.1-.1-.2-.1-.3-.1v-.1l.4-.1v.1h-.1v.2c0-.1 0 0 0 0m-1.2.2s0-.1-.1-.1h-.4l.1.4h.2v-.1l.2-.2v.4h-.1v-.1h-.2v.4h.1v.1l-.5.1V37h.1v-.1l-.1-.6v-.1h-.1v-.1l.8-.1v.2zm-1.8 1.1c0-.1.1-.1.1-.1v-.1H35v.2h.1v.1h-.3v-.1c.1 0 .1-.1.1-.2l.2-.8h.1l.4.8c0 .1.1.1.1.1h.1v.1h-.6zm-1.5.1l.1-.1v-.1l-.1-.6v-.1h-.1v-.1h.5v.1H34v.1l.1.6v.1h.1c.1 0 .2 0 .2-.1 0 0 .1-.1.1-.2h.1v.3l-.9.1zm-.9-.1c-.1.1-.2.2-.4.2-.1 0-.2 0-.3-.1-.1 0-.2-.1-.2-.2s-.1-.2-.1-.3c0-.1 0-.2.1-.3 0-.1.1-.2.2-.2.1-.1.2-.1.3-.1.2 0 .3 0 .4.1.1.1.2.2.2.4-.1.3-.1.4-.2.5m-1.7-.7s-.1 0 0 0c-.1 0-.1.1-.1.1v.9h-.1l-.7-.8v.6h.1v.1H30v-.1h.1v-.7c0-.1 0-.2-.1-.2v-.1h.3l.6.6v-.4c0-.1 0-.2-.1-.2v-.1l.3.3zm-1.5.8c-.1.1-.2.1-.4.1-.1 0-.2 0-.3-.1-.1-.1-.2-.1-.2-.2s-.1-.2 0-.3c0-.1 0-.2.1-.3.1-.1.1-.2.2-.2s.2-.1.3-.1c.2 0 .3.1.4.2.1.1.1.2.1.4-.1.2-.1.4-.2.5m-1.2-.9l-.6.8h.3s.1 0 .1-.1l.1-.1h.1v.3l-.9-.1v-.1l.6-.8h-.4l-.1.1h-.1v-.3l.9.3zm-1.1.9h-.5v-.1h.1v-.2h-.3v.2h.1v.1h-.3v-.1c.1 0 .1 0 .2-.1l.4-.8h.1l.2.8c0 .1 0 .1.1.1-.2 0-.1 0-.1.1zm-1.2-.1h-.3s-.1-.1-.1-.3c0-.1-.1-.1-.1-.1h-.1v.3h.1v.1l-.6-.2V37h.1v-.1l.1-.6v-.1h-.1v-.1l.4.1h.3s.1 0 .1.1l.1.1v.1c0 .1-.1.2-.2.2 0 0 .1.1.1.2s.1.2.1.2c.1.1.1.1.1.2zm-1.7-.3l-.5-.1v-.1h.1v-.2l-.3-.1v.2h.1v.1l-.3-.1v-.1c.1 0 .1 0 .2-.1l.4-.7h.1l.2.8c0 .1 0 .1.1.2-.1.1-.1.1-.1.2zm-1.1-.2l-.9-.2v-.1h.1v-.1l.1-.6v-.1h-.1v-.1l.5.1v.1h-.1v.1l-.1.6v.1h.3c.1 0 .1-.1.1-.2h.1v.4zm-1.7-.7c0 .1.1.2.1.2h.1v.1l-.3-.1s0-.1-.1-.3v-.3h-.1l-.1.2v.1l.1.1v.1l-.5-.1V36h.1v-.1l.2-.6v-.1H21v-.1l.4.1h.1c.1 0 .1 0 .2.1 0 0 .1 0 .1.1l.1.1v.1c0 .1-.1.2-.3.2-.1.1 0 .2 0 .3m-1-.5c0 .1-.1.2-.3.3-.1.1-.3.1-.4.1-.1 0-.2-.1-.3-.2-.1-.1-.1-.2-.1-.3v-.3c0-.1.1-.2.2-.2.1-.1.2-.1.3-.1h.3c.2.1.3.1.4.3-.1.2-.1.3-.1.4m-1.2-.6c0 .1-.1.1-.1.1h-.2c-.1 0-.1 0-.2-.1h-.1l-.1.2v.1l.1.1v.1l-.5-.2v-.1h.1l.1-.1.2-.6v-.1l-.1-.1v-.1l.4.1c.1 0 .2.1.2.1.1 0 .1.1.1.1l.1.1v.4m9.8 1.1h.3l-.4.2H29l.2-.2zm13.6-2.2h-.2c-.5.1-4.8 2-12 2s-11.5-1.9-12-2h-.2c-.1 0-.3 0-.4.1l-1.5 1.2c.4 0 .9.2.9.2 3.8 1.7 8.2 2.4 13.1 2.4s9.3-.7 13.1-2.4c0 0 .5-.2.9-.2L43.2 34c-.1-.1-.2-.1-.4-.1M25.4 19.4c-.1.1-.3.2-.5.3H26l-.6-.3m7.3.3c-.2-.1-.4-.2-.5-.2h-.1c-.2-.1-.4-.2-.6-.2h-2.3c-.2.1-.4.1-.6.2h-.1c-.1 0-.3.1-.5.2h-.1 4.8m2.9-.3c-.1.1-.3.2-.5.3h1c-.2-.1-.4-.2-.5-.3m-10.8 9.2v-2.4c-.2.5-.4 1.5 0 2.4m5.6-8.6h-5.9c0 .1 0 .1.1.2 0 0 .1.1.2.3h5.5l.1-.5zm-.3.8H25c.1.1.2.3.3.5H30l.1-.5zm-.3 1.3l.1-.5h-4.5c.1.2.1.3.2.5h4.2zm-.1.3h-4.1c0 .2.1.3.1.5h3.8l.2-.5zm-4.1 2.1h2.2l-.7-.5h-1.4c0 .1-.1.3-.1.5m.1-1.3v.5h.9l-.6-.5h-.3z"/><path class="st2" d="M32.7 25.2h.3v3l-.3-.9v-2.1zm-2.3-.6l2.6 3.7v1.9h.5v-4.9h.3v4.9c.2 0 .3 0 .5-.1v-4.8h.3V30c.2-.1.3-.1.5-.2v-4.6h.3v4.4c.2-.1.3-.2.4-.4V26c-.2-.3-.3-.5-.4-.7-.1-.2-.1-.3-.2-.5h-2.7l-.5.4-1.2-.4-.4-.2 4.4-1.4h-3.5l-.1-.3h3.9c0-.2.1-.3.1-.5h-4.1l-.1-.3h4.3c.1-.2.1-.3.2-.5h-4.6l-.1-.3h4.9c.1-.2.2-.3.3-.5h-5.3l-.1-.3h5.6c.2-.2.3-.4.3-.4V20h-6.1v-.1 4.7z"/><path class="st2" d="M31.5 30.7c.2-.1.3-.2.5-.2v-2.9l-.5-.4v3.5zm-.8 1c.1-.1.1-.2.2-.3.1-.1.2-.3.3-.4v-4.1l-.5-.4v5.2zm-.8-.8c.1.1.3.3.4.5 0 0 0 .1.1.1v-5.1l-.5.4v4.1zm-.8-.5c.2.1.3.1.5.2V27l-.5.4v3zm3.2-.1c.2 0 .3-.1.5-.1v-2.1l-.5-.4v2.6zm-4-.1c.1 0 .3.1.5.1v-2.7l-.5.4v2.2z"/><path class="st2" d="M28 25.2h.3v1.4l-.3 1v-2.4zm-2.4 4.4v-4.3h.3v4.5c.1.1.3.1.5.2v-4.7h.3v4.8c.1 0 .3.1.5.1v-4.9h.3v4.9h.5v-2l-.3.2 2.7-3.8-1-1.4H26l4.4 1.4-1.6.6-.6-.4h-2.7c0 .1-.1.3-.2.5-.1.1-.1.2-.2.4v3.5c.1 0 .3.2.5.4m7.5-5.1h2.2c0-.2-.1-.3-.1-.5h-1.4l-.7.5zm2.1-1.3h-.3l-.7.5h1v-.5m-11.6-13c.7-.2 1.4 0 1.7.4 1.1 1.1.5 2.6.2 2.7.2-.6.3-1.6-.6-1.8-.8-.2-1.5.4-1.8.7.2-.7 1-1.2 2-1-.2-.6-1-.8-1.9-.4-.2.1-.4.3-.5.4.1-.5.5-.9.9-1m0 3.6c.5-.1 1-.4.9-.9 0-.1-.2-.3-.4-.3-.3 0-.5.2-.7.4 0-.5.3-.8.8-.7.3 0 .6.3.7.5.1.7-.6 1-1.3 1m3.6-1.8c.4.7 1.6 1.6 3 2 .5.1.7 1.7.3 2.5-.5 0-.5-.3-.6-.7.2.2.5.4.5 0-.2-.1-1.2-.4-.9-.9.2-.2.7.7.9.4.1-.7-2-.9-1.9-1.4 0-.3 1.6.8 1.8.8 0-.3-2.4-1.3-3.1-2.6V12c0-.1 0-.1 0 0m4 3c.1.6.2 1.4-.1 1.9-.2 0-.1-.3-.1-.4 0-.7 0-1.3-.2-1.9-.1-.3-.3-1.2-.9-2.3.3.2 1.2 1.6 1.3 2.7m.7-2.1c.4.2-.2 1-.3 1.2.1 0 .4-.4.6-.3.2.2-.5 1.1-.6 1.1-1-1.3.2-1.6.3-2M33.2 8c0 .5-.2.6-.3.6v-.1c.1-.2.1-.8-.2-1.1-.2-.2-.5-.3-.5-.4-.1 0 .8.2 1 1m-1.6 7.6c-.2-.3.3-.7.4-1.1.6 0-.1 1-.4 1.1m.2.9c-.1-.1-.1-.3-.1-.4 0-.3.4-.5.6-.6 0-.1-.1.5-.5 1m5.8-6.8c.3.1.6.4.8.8.2.4.1.8 0 1 0-.2 0-.6-.2-.9-.1-.2-.2-.4-.5-.5.1.2.2.4.3.5.1.2.1.3.1.4 0 .4-.2.9-.4 1.1.2-.5.2-1 .1-1.4 0 0 0-.1-.1-.1-.2-.3-.4-.6-.9-.6.2.1.4.4.5.6.2.5.2 1.2-.1 1.4v-.8c-.2-1-1-1.3-1.6-.7 0-.1.6-1.3 2-.8m-14.8 4.5c.9.5 2 .4 2.4.3.2 0 .4-.1.7-.3 0 0 .1 0 .1-.1.3-.3.6-.8.5-1.4 0 0 .1.2.1.4s-.1.5-.2.7v.1c0 .1 0 .2.1.2.2.2.6.2.9.1 0 0-.2.3-.6.3h-.2c.2.4.8.6 1.5.6 0 0-.2.1-.4.1-.3 0-.6-.1-.9-.2.3.4.8.7 1.7.8 0 .1-.7 0-.9 0 .4 1.6 1.3 1.4 1.3 1.5-.3.1-.4.4-.3.7.9-.3 1.6-.4 1.8-.4.2 0 .9 0 1.8.4.1-.1.1-.3.1-.4-.1-.4-1.4-.7-2.5-.4 0 0-.1 0-.2.1l.2-.1c.5-.3 1.6-.4 2.1-.1.5.2.9-.4.8-.7.4 0 .6-.2.7-.6-.1 0-.1.1-.2.1-.1.1-.3.1-.3.1.1 0 .1-.1.2-.1.7-.4 1-1.2.9-1.4-.1.1-.3.3-.5.3h-.2c.1 0 .2 0 .2-.1.2-.2.5-.5.6-.7-.4-.4-.6-.9-.8-1.5-.1-.2-.3-.5-.6-.5h-.2c.3-.3.7 0 .9.1 0-.6.2-.7.3-.7-.4 1.2.4 2.4 1 2.8.9.5 2.4.5 3.4-.3-.2.1-.4.1-.6.1-.2 0-.4 0-.4-.1h.4c1.5-.4 1.5-2.2 1.3-2.3 0 .1-.1.2-.1.3-.1.2-.2.3-.2.3.3-.6.3-1 .1-1.6-.1-.3-.3-.6-.6-.8-.7-.5-2.2-.6-3 0-.3-.3-.6-.5-1.1-.6-.1.5-.6 1.1-1 1.4-.1.1-.3.2-.4.2 0 0-.1 0 0-.1.8-.5 1.2-1.1 1.2-1.8 0-.4-.1-1.1-.6-1.6-.7-.8-2.7-.9-3.5-.1-.2.2-.4.5-.5.9.1-.3.3-.5.7-.7.4-.1 1.1 0 1.3.4-.7-.7-1.9-.2-2 1 0 .1-.1.1-.1.1s-.1 0-.1-.5c0-.3.1-.7.3-1.1-1.5-.3-3.3.5-3.2 2.7 0 .3.1.6.4.9.1.1 0 .1 0 .1s-.2-.1-.3-.3c-.1-.2-.3-.5-.3-.7-.9-.3-1.5-.3-2-.3-.5.1-1.3.5-1.5.9-.1.1-.2.4-.3.5-.2.4-.3.8-.3 1.3.1.7.5 1.5 1.1 1.8"/><path class="st2" d="M14.2 35.5c-.1-.1-.2-.1-.3-.2-.1.1.1.3.2.4l-.1.1h-.2c-.2-.1-.2-.3-.2-.5 0-.1-.1-.4-.3-.5.4-.2.9.3.9.4.1.1.2.1.3.2l.1.1h-.4m4.2-18.4c.8.1 1.7.1 2.2.4h.1c.2.1.6.5.8 1.1-.7-.4-1-.5-1.5-.8-.7-.1-1.4-.2-1.6-.7m-1-1.5c.5.2.6-.5.7-.3.2.3-.3.8-.7.3m-.5.1c-.2-.4.5-1 .7-1.1.4-.1.7.1 1.1.2h.7c.5 0 .3.4.3.4-.4.1-.6-.2-1-.2-.2 0-.5.1-.8.1-.2 0-.4-.2-.6 0 0 0-.3.2-.2.5.2.1-.1.2-.2.1m7.2 7.1c-.2 0-.2-.7-1.1-.5-.5.2-.8.1-1.1 0 1.3-.7 2.3 0 2.2.5m.2 1.3c.1.1.2.4.2.7v1.8s0 .1-.1.1v.2s0 .1-.1.1l-.1.1s-.1 0-.1.1h-.2v-.1c0-.1.1-.2.2-.4.1-.1 0-.2.1-.3.1 0 .2 0 .3-.1-.2-.2-.2-.5 0-.8.1-.5-.3-1.3-.2-1.4m.5 1.8c.8-1.4.7-2.4.7-2.6 0-1.6-1-2.8-1.1-2.9-.1-.1-.1-.2-.1-.3 0-.1.1-.2.2-.2.2-.2.7-.5.9-.6l.1-.1h.1c.1 0 .1 0 .2.1.2.2.6.4 1.2.4h.3c.3 0 .9-.3.9-.3.2-.1.4-.2.5-.2.9-.4 1.7-.4 1.9-.4.2 0 1 0 1.9.4.1 0 .3.1.5.2 0 0 .6.3.9.3h.4c.6 0 1-.3 1.2-.4.1-.1.1-.1.2-.1h.1l.1.1c.2.1.7.4.9.6 0 0 .1.1.1.2s0 .2-.1.3c-.1.1-1.1 1.3-1.1 2.9 0 .2-.1 1.2.7 2.6 0 .1.9 1.7-.1 3.2-.1.1-.9 1.3-2.9 1.3-.2 0-1.8 0-2.4 1.1-.1.1-.3.4-.4.6l-.1.1s-.1 0-.1-.1c-.1-.2-.3-.5-.4-.6-.6-1-2.2-1.1-2.4-1.1-2 0-2.8-1.2-2.9-1.3-.9-1.5.1-3.2.1-3.2m11.8-1.1c.1-.1.2-.1.3-.1h.4s.2.2.2.5c0 .1.1.4.2.5.1.1.1.3-.2.3-.3-.1-.6-.5-.5-1h-.4c-.1.1-.1.2-.2.2-.1-.1 0-.3.2-.4m1.2 1.5v1c0 .2 0 .5-.1.6l-.1.1-.1.1H37l-.1-.1s-.1-.2.1-.3l.1.1h.2v-.3c0-.4 0-.8.1-1 .3-.3.3-.3.4-.2-.1-.1 0-.1 0 0 0-.1 0 0 0 0m2.7 1.9c.5.2 1.2.1 1.5-.2h.1c.1.1 0 .4-.6.5-1.1.1-1.8-.9-1.7-.9 0 .1.4.4.7.6m-.9-9.4c-.1.3-.4.6-.7.6-.6.1-1.2-.3-1.2-.4 0-.1.5.2 1 .2.3 0 .6-.3.9-.4 0-.1 0-.1 0 0m-2.3-3c0 .1-.1.1 0 0-.4-.2-1.1-.2-1.6.1-.4.2-.6.5-.7.6-.1 0 .6-.9 1.6-1 .7 0 .7.3.7.3M45 19c.1 0 .3 0 .4-.1.1 0 .2-.2.4-.2.1.1-.1.1-.1.2-.1.1-.5.3-.7.3-.4.1-.8 0-1-.3.3-.1.5.2 1 .1m1.2-1.8c.1-.4.6-.8.6-1 0-.2-.3-.5-.3-.8 0-.5.3-1 .8-.9.3.1.5.3.7.6l.2.2c.6.7 1 1.9 1.3 2.9.8 2.9 1.2 7.5.2 12.6-.1.4-.3 1.5-.3 1.5.9-8.4.4-10.5.3-10.4-.1 0-.3 1-.7.7-.5-.3 1-2.1.4-3.2-.1-.2-.3.2-.5.2-.6-.2.3-1.8.2-2-.1-.1-.6-.2-.6-.8 0-.3.2-.5 0-.7-.2-.2-.1.2-.3.1-.3-.3 0-.7-.2-.9-.1-.1-.3.2-.4.1-.2-.1.1-.4-.1-.5-.3 0-.7.3-.6.8 0 .2.3.4.3.6 0 .2-.3.5-.3.6-.4.9.3 1.1.2 1.4 0 .2-.3.2-.5.2-.4-.1-.5-1-.4-1.3M41 32.8c-.3.1-.8-.3-.8-.3-.1 0-.3-.2-.5-.1s-.3.3-.4.4v-.4h.1c.1-.1.2-.1.4-.1s.4.1.5.2c.2.2.5.2.7.2.2-.2.1 0 0 .1m-19.1-1.1c0 .1 0 .1 0 0-.1.1-.2.1-.2.1h-.3c0 .1 0 .1.1.2h.1c.1 0 .1 0 .1.1s-.2.2-.3.2c-.2 0-.3-.2-.4-.4h-.1c-.2-.1-.4-.1-.7-.1 0-.5 1.3-.1 1.3-.1.2-.1.3-.1.4 0m5.8 6.8s-.6-.2-1.4.3c0 0-.7.5-.8.5 0 0 .2-.8.3-1.6h-.4c-.1.8-.3 1.7-.6 1.8l-.5.1c0-.1 0-.1-.1-.2s-.2-.2-.5-.2c-.2.1-.4.2-.4.5-.1 0-.9.1-1.3-.2 0 0 .8-.3.8-.5 0 0 .2-.4-.5-.9 0 0-.6-.3-.7 0 0 0-.1.2.2.4 0 0 .3.3-.2.2 0 0-.4 0-.5-.2 0 0 .1-1 .3-1.6-.2-.1-.4-.1-.6-.2-.1.2-.2.4-.2.7 0 0 0 .6-.2.7 0 0-.7-.6-.4-1.7-.2-.1-.5-.1-.7-.2 0 .5.1 1.3.8 2.5 0 0-.6.8-1.2.4 0 0-.9-.6-.3-1.1 0 0 .4-.3.5.1-.2 0-.4.2-.4.4s.2.4.4.4.4-.2.4-.3c0-.1 0-.5-.3-.8 0 0-.3-.3-.8-.2 0 0 .5-.6.5-1.2v-.2c-.1-.1-.3-.1-.4-.2 0 .5-.2 1.5-.9 1.2 0 0 .5-.8.8-1.3-.3-.1-.6-.2-.9-.4h-.1c0 .2.1.8-.2 1.1 0 0-.4.3-1-.2 0 0 .8-.7 1.1-1-.2-.1-.4-.1-.7-.1h-.2s-.5.4-.9.6c0 0-.1.1-.2 0 0 0-.7-.8-.2-1.6 0 0 .3-.7 1-.6 0 0 .2 0 .3.3 0 0-.6 0-.6.5 0 0 0 .5.6.4 0 0 .8-.1.6-1 0 0-.1-.6-.6-.6 0 0 .3-.3.1-.4 0 0-.2-.2-.6.1 0 0-.1.2-.6.1 0 0-.3-.1-.5.1 0 0-.1 0-.1.4 0 0 0 .1-.2.5 0 0-.1.3-.2.7-.2-.1-.3-.2-.5-.2-.3-.3-.3-1.5-.6-2.2-.1-.1.1-.8.1-1.5 1.9-.4 2.6-1.9 2.8-2.5.3-1.1-.1-2.1-.1-2.4h.1c.1.2.2.3.2.5.9.1 1.6-.1 2-.2h.2c.1 0 .2-.1.2-.1h.1c1.3-.7 1.9-1.8 2.3-2.4-.2 0-.8-.2-1-.5.5 0 .9.2 1.4.2.7 0 1.2-.4 2-.3 0 0 .1.4.6.6 0 .5 0 .8.2 1.2 0 .1.1.1.1.1s-.6.5-.4.9c0 .1.1.2.1.3H24c-.1 0-.2.1-.3.3-.1.1-.4.8-.1.8h.1c-.1.7-.1 1.6.4 2.4 0 .1.9 1.5 3.2 1.5.2 0 2.3 0 3 1.4 0 .1.2.3.4.3s.3-.2.4-.3c.7-1.4 2.8-1.4 3-1.4 2.3 0 3.2-1.4 3.2-1.5.3-.4.4-.8.5-1.3.5-.3.4-1.3.4-1.5.1.2.4.7 1 .8-.2.4-.2 1.2.4 1.3.2 0 .3-.2.3-.4.5 1.3.1 2.1.4 2.2.4 0 .5-.8.5-.8 0 .1.2.3.2.6 0 .4-.1.8.1.9.6.1.3-1.7.8-1.5-.1.8 0 1.2.3 1.3 0 .4-.1.7-.2.7-.9.2-1.7-.5-2.4-.3-.1 0-.1-.1-.1-.1-1.4-.7-2.3-.2-2.3-.3-.4-.4-.5.2-.7.1-.7-.4-1.1.3-1.3.3-.2 0-.5-.4-.8.5-.2.4-1 .5-1 .5-.3 0-.4-.2-.4-.2 0-.1-.1-.2-.1-.2 0-.1-.1-.1-.1-.2-.1-.1-.2-.1-.3-.1-.2 0-.4.2-.4.5 0 .1 0 .2.1.3 0 0 .1-.1.2-.1.2 0 .3.1.3.3 0 .4-.5.7-.5.7-.3.3-.7-.1-.7-.1-.2-.2-.4-.2-.4-.2-.2 0-.3.3-.3.3s-.1-.3-.3-.3c0 0-.2 0-.4.2 0 0-.4.4-.7.1 0 0-.6-.4-.5-.7 0-.2.1-.3.3-.3.1 0 .2.1.2.1.1-.1.1-.2.1-.3 0-.2-.2-.4-.4-.5-.1 0-.2 0-.3.1 0 0-.1.1-.1.2s-.1.1-.1.2c0 0-.1.2-.4.2-.1 0-.9-.2-1-.5-.7-.7-1.1-.3-1.2-.3-.2 0-.6-.7-1.3-.3-.1.1-.3-.5-.7-.1-.1.1-.8-.4-1.9 0-.1-.1-.4-.2-.5-.2l-.6-.3c-.3-.2-.8-.1-1.2-.1-.1 0-.3-.1-.5-.2-.5-.3-1-.6-1.3-1 0-.1-.2-.2-.2-.3-.1-.2-.2-.3-.3-.6-.2-.6.1-1.2.2-1.7 0-.3 0-.4.1-.5-.4.1-1 .1-1.7-.1.2.6.2 1.2.1 1.7.3.2.4.6.5.7 0 .3-.1.6.1.8.2.3.8.7 1.1.9.1.1 1.7 1.3 1.9 1.3.2 0 .4-.1.6-.1.1 0 .1.1.2.1l.3.3c-.5.3-1.1.7-1.5.9 0 0-.7.4-.4.4 0 0 .5 0 .5.1 0 0-.2.1-.5.2.7.3 1.5.5 2.3.7.5-.5 1.1-1 1.7-1.2 0 0 .9 0 1.2-.6.1-.2.5.4 1.2-.1.1 0 .2.2.4.2.1 0-.3.1-.2.4 0 0-.6 0-.8.4-.1.1-1.4.1-2.6 1.1.2.1.5.1.7.2.4-.3.9-.5 1.4-.5 0 0 .7 0 1.1.9.5.1.9.1 1.4.2.1-.1.8-.4.5-.8 0 0-.2-.2-.4.1 0 0-.2.2-.2-.1 0 0 0-.1-.1-.3 0 0-.1-.2.1-.1 0 0 .2.1.5 0 .2 0 .4-.2.4-.4s-.2-.5-.4-.5h-.1l.1.1c0 .1-.1.2-.2.2-.3-.1-.2-.6.2-.6 0 0 .3 0 .6.3 0 0 .6.9 1.2 1.1 0 0-.1.3.3.4 0 0 0 .3.4.3 0 0 .1.1.2.3h2c.1-.2.2-.3.2-.3.4 0 .3-.3.4-.3.4-.1.2-.4.3-.4.6-.2 1.2-1.1 1.2-1.1.3-.3.6-.3.6-.3.4 0 .4.5.2.6-.1 0-.2-.1-.2-.2s0-.1.1-.1h-.1c-.2 0-.4.2-.4.5 0 .2.2.4.4.4h.5c.3-.1.1.1.1.1-.1.1-.1.3-.1.3-.1.2-.2.1-.2.1-.3-.3-.4-.1-.4-.1-.3.4.4.7.5.8.5 0 .9-.1 1.4-.2.3-.9 1.1-.9 1.1-.9.6 0 1 .2 1.4.5.2 0 .5-.1.7-.2-1.2-1-2.6-1-2.6-1.1-.2-.4-.9-.3-.8-.4.1-.3-.3-.4-.2-.4.2-.1.3-.3.4-.2.8.4 1.1-.1 1.2.1.3.6 1.2.6 1.2.6.6.2 1.2.7 1.7 1.2l2.1-.6v-.1c0-.1-.1-.1-.1-.2-.2-.3-.4-.6-.5-.7 0 0 .5-.8.8-.2 0 .1 0 .3-.3.3 0 0 .4.6.5 1 .2-.1.3-.1.3-.1h.1c-.2-.4-.5-.6-.4-.7.1 0 .4.1.5-.1 0-.1.1-.3.1-.6.2.1.4.1.5.1.5 0 .7-.8.6-1.1.1 0 .4-.3.4-.2.2.4 1 .8.9-.1.1.4.2.9.7.8.3-.1.1-.7.2-.7.1.2.2.8.8.7.2-.1.3-.2.3-.4 0-.6-1.8-4-2-5.5h-.1c-.2-.1-.2-.4-.2-.6-.2 0-.6-.2-.6-.9 0-.6.2-.8.3-.8v.1c-.1.4-.2 1 .1 1.2.1.1.2.1.3.1.1-.2.2-.3.3-.3-.2.3-.2.7 0 .9.1.1.2.1.3.1.5-.2.8-1.2.9-1.5.3.1-.6 2.1.1 2.5.3 0 .4-.4.6-.6.2.6-.7 1.8 0 2.1.4.1.6-1 .6-.8.1 1.6-.7 2.4-.2 2.7.5.2.6-1.1.6-1 0 1.8-.9 2.2-.5 2.5.4.2.7-.9.7-.6 0 1.6-.8 2-.5 2.5.4.6 1.2-1 1.2-.7 0 .4-.9 2.2-.3 2.3.4.1.6-.5.6-.6 1.4-4.5 1.4-8.9 1.3-10.4-.1-2.3-.3-4.4-.9-6.3-.3-1.2-1-3.6-2.5-3.9-.7-.2-1.3.5-1.3 1.1 0 .5.4.8.2 1.3-.2.3-.4.7-.5 1.1-.1.4.2.5.1.9-.5-.1-.7.3-1.4.2-.6.3-1.3.1-1.3.1.7 0 1.3-.2 1.5-.6.1-.5.1-1.2-.3-1.4-.4.1-.6.4-2 .3-1.1-.1-1.4.1-1.6.8-.1-.1-.1-.2-.1-.3 0-.4.4-.6.9-.7.1-.2.1-.3.1-.5h-.6c-.5.1-1.3.4-1.5.9v.5c0 .1 0 .1.1.2.2.4.6.6 1.5.6 0 0-.2.1-.4 0 0 0-.8 0-1.2-.4l-.1.1c-.2.2-.7.5-1 .5-.4 0-.9-.2-1-.5-.5-.7.2-2 .2-2.5 0-1.3-1.8-.7-2.4-.4-.8.4-1.4 1-1.9 1.7-.3.3-.6.7-.7 1.1.2.1.9.4 1.4.4h.2c.3 0 .8 0 1.1-.3 0 0 .2-.2.4-.2s.3.1.4.2c.1.1 1.2.9 1.5 1.2 0 0 .2.1.2.3 0 .1 0 .2-.1.4-.1.1-.6.7-1 1.6-.1.1-.1.3-.1.4-.1.5-.2 1.2.4 1.4 0 0 .7.2.7-1 0 0 .1.8.7.7.2 0 .4-.2.4-.8-.1-.5 0-1 .1-1.7v-.1s0 .1.1.3c0 .3-.2 3 2.1 4.9 0 0-.9-.5-1.6-1.6-.4.2-.9.7-.7 1.7.1.4.4.7.6.8 0 0-.1.1-.3-.1l-.1-.1c-.1-.1-.1-.2-.2-.3-.3-.2-.5-.5-.7-.7-.2-.4-.1-1.5-1.2-1.5h-.3c-.3-1-.2-1.6-.2-1.7.2-1.4 1.2-2.5 1.3-2.7 0 0 .1-.1.1-.2s0-.1-.1-.1c-.4-.2-1.4-1.1-1.6-1.2-.1-.1-.2-.1-.3-.1-.1 0-.2.1-.2.1-.4.4-1 .4-1.3.4h-.2c-.6 0-1.4-.4-1.5-.5-1.1-.4-1.9-.5-2-.5-.1 0-1 0-2 .5-1 .4-1.8.8-2.4.8h-.2c-.3 0-.8-.1-1.3-.4 0 0-.1-.1-.2-.1s-.2 0-.3.1c-.1.1-1.2.9-1.6 1.2 0 0-.1 0-.1.1s0 .1.1.2 1.1 1.3 1.3 2.7v.6c-.1-.3-.2-.5-.2-.7 0-.2-.1-.3-.2-.4-.1-.2-.4-.4-.6-.5-.2-.1-.4-.1-.6-.3-.3-.2-.6-.4-.8-.8 0-.7-.4-1.2-.4-1.2.1 0 .5.3.6 1 .5-.5.8-1.3.9-2.2.4-.5 1.5-.3 1.9-.3.1 0 .3.1.4.1.1.1.1.3.3.3.2.1.4 0 .6 0 .1.1.1.2.2.3h.1c.6 0 1.4-.4 1.5-.4h.1c-.2-.3-.6-.4-.9-.4-.4-.1-.6-.4-1-.5-.1 0-.4-.1-.5 0-.9.1-1.5-.2-2.2-.3-.8-.1-.8.5-1.1.9-.1.2-.2.3-.4.5s-.5.2-.7.4c-.1-.3-.2-.7-.4-1 0 0 0-.1-.1-.1-.4-.6-.9-1.1-1.8-1.4-.2-.1-.2-.1-.3-.2-.1-.1 0-.3 0-.3.3-.1.7-.1 1-.2.7-.3.5-1 .2-1-.4-.1-1-.2-1.2-.3-.2-.1-.3-.4-.6-.5-.2-.1-.4-.1-.6 0-.2 0-.3.2-.4.1.2-.2.5-.3.8-.4-.3-.1-.2-.6-.5-.7-.1 0-.3 0-.5.1 0-.2-.1-.7-.4-.9-.2-.1-.3.1-.3.2s.4.3.4.8c-.1 0-.1.1-.2.1 0-.2-.2-.6-.4-.7-.2-.1-.3.1-.3.2s.3.3.4.7c-.1.1-.2.1-.2.2-.5-.1-.6-.5-.7-.5-.1 0-.4 0-.2.3.1.3.5.4.7.5-.1.1-.1.2-.1.2-.6-.1-.7-.5-.8-.5-.1 0-.4 0-.2.3s.7.5.9.5c-.1.2-.1.3-.1.4-.4-.1-1.2.2-1.1.7.1.1.7-.3 1.1-.1.3.5.8.5.9.6.2.1.2.4.3.6.1.4.4.8.7 1.1.3.4.6.8.8 1.2 0 .1.1.2 0 .4-.3.5-1.3 1.1-1.7 1.5-.4.4-4.2 3.3-4.7 4.5-.1.4-.1.7-.1 1.1-.2.1-.6 0-.8-.1-.3-.3.3-.6.1-1-.1-.2-.3-.2-.4-.2-.3.1-.3.7-.2 1 0 .1.2.2.1.3-.1.1-.2-.1-.2-.3-.1.1-.2.2-.1.3.1.3.4.3.5.4 0 .1-.2.2-.3.1-.2.3 0 .4.1.4.2 0 .5-.2.6-.2.1.2 0 .2-.3.3.4.5.7-.3 1.1-.2.1 0 1.3 1.1 1.1 2l-.1.2c-.3.3-.7.6-1 .9-.6.4.6 2.9.5 4.2-.1.5.4.4.7 1.2-.3 0-.6.1-.8.3v.1c-.1.1-.1.2-.1.3 0 .3.3.6.6.6s.6-.3.6-.6v-.1c.1 0 .3 0 .5.1l.6.3s-1.9 1.6-5.1.7c0 0-1.4-.5-1-1.7 0 0 .1-.2.3-.3 0 .2.1.3.3.4.1.1.3.1.4.1.4 0 .7-.3.7-.7 0-.2-.1-.4-.2-.5l-.1-.1c-.2-.1-.5-.2-1-.1 0 0-1.4.4-.9 1.9 0 0-.9-.2-1.3.2 0 0-.1.1-.1.4 0 .1 0 .2.1.3.1.1.3.2.4.2.2 0 .3-.1.4-.2 0-.1.1-.1.3.1 0 0 1.3 1.4 3.2 1.2 0 0 .1 1 .7 1.2h.1c.2 0 .3-.2.3-.3 0-.2-.1-.3-.3-.3 0 0-.1-.3 0-.5 0 0 2.1-.3 3.5-1.4 0 0 1 .3 1.6.3 0 0 .1.2-.3.3 0 0-.5 0-.5.2 0 0 0 .2.4.2 0 0-.1.2.3.4 0 0 .2.1.1.3 0 0-.4.2-.3.5 0 0 .1.3.7.2 0 0 .2 0 0 .2 0 0-.3.3.2.6 0 0 .4.2.6-.2 0 0 .1-.2.3 0 0 0 1.2.6 1.9-.4 0 0 0-.1.2.1 0 0 .6.8 2.4.8.1.2.3.3.6.3s.6-.2.6-.5c.2 0 1-.1 1.8-.6 0 0 .3-.2.6-.3 0 .5.4.9.9.9s.9-.4.9-.9c0-.7-.3-1.1-.8-1.2"/><path class="st2" d="M36.2 26.5v2.1c.4-.9.2-1.6 0-2.1M40.4 15c.1 0 0-.3.2-.3s.6.2.7.4c.1.3-.2.9.7 1v.3c0 .2-.1.3-.1.5h.2c1.1.1 1.8 0 2.1-.4 0 0 .2-.2.3-.4.3-.6.3-1.1.2-1.6v-.1c0-.1 0-.1-.1-.2-.3-.5-.9-1-1.8-1.3h-.2.2c.6.1 1.7.7 1.9 1.3.2-.1.4-.5.4-.8 0-.1 0-.4.1-.8 0-.1 0-.2-.1-.3-.1 0-.2 0-.3.1-.2.3-.5.1-.4-.2 0-.1 0-.2-.1-.3-.1 0-.2 0-.3.1-.1.3-.5.1-.4-.2 0-.1 0-.2-.1-.3-.1 0-.2 0-.3.1-.1.3-.5.1-.4-.2 0-.1 0-.2-.1-.3-.1 0-.2 0-.2.1-.1.2-.2.4-.3.5.7.1 1.4.5 1.9 1 0 0 .2.2.2.3v.1c-.1-.1-.1-.2-.2-.2-.8-.6-1.4-.9-2-1-.4 0-.3.5-.2.7-.6-.1-1.1.3-1.1.8 0 .2 0 .3.1.5l-.2-.2c0-.1-.1-.2-.1-.3-.5 0-1 .3-.9.8.2.5.5.8.7.8m1.8-.7c.1-.2.2.5.7.3-.4.5-.9 0-.7-.3m-.1-.3c.2-.1.4-.5.7-.3.1.1.3.2.4.3.2.1.3.2.4.4.1.2-.2.6-.4.2-.2-.3-.4-.8-.8-.6-.3.2-.6.4-.6.2-.1-.2.2-.2.3-.2m-1.4.1c-.1.2-.4.2-.4.4-.3-.2.2-.7.4-.4m13.6 22.5c-.4-.4-1.3-.2-1.3-.2.5-1.5-.9-1.9-.9-1.9-.5-.1-.8 0-1 .1l-.1.1c-.1.1-.2.3-.2.5 0 .4.3.7.7.7.2 0 .3 0 .4-.1.1-.1.2-.3.3-.4.2.1.3.3.3.3.4 1.3-1 1.7-1 1.7-3.2.9-5.1-.7-5.1-.7l.6-.3c.2-.1.4-.1.5-.1v.1c0 .3.3.6.6.6s.6-.3.6-.6c0-.1 0-.2-.1-.3V36c-.4-.6-1.6-.2-1.6-.2.4-1 0-1.8 0-1.8-.2-.4-.2-.5-.2-.5 0-.4-.1-.4-.1-.4-.2-.3-.5-.1-.5-.1-.5.1-.6-.1-.6-.1-.4-.3-.6-.1-.6-.1-.2.1.1.4.1.4-.5 0-.6.6-.6.6-.2 1 .6 1 .6 1 .6 0 .6-.4.6-.4.1-.4-.6-.5-.6-.5.1-.3.3-.3.3-.3.7-.2 1 .6 1 .6.5.8-.2 1.6-.2 1.6-.1.1-.2 0-.2 0-.4-.2-.9-.6-.9-.6h-.2c-.2 0-.5.1-.7.1.3.3 1.1 1 1.1 1-.6.5-1 .2-1 .2-.3-.3-.2-.9-.2-1.1H44c-.3.1-.6.2-.9.4.3.5.8 1.3.8 1.3-.7.3-.9-.7-.9-1.2-.1.1-.3.1-.4.2v.2c0 .5.5 1.2.5 1.2-.5-.1-.8.2-.8.2-.3.3-.3.7-.3.8 0 .2.2.3.4.3s.4-.2.4-.4-.2-.4-.3-.4c.2-.4.5-.1.5-.1.6.5-.3 1.1-.3 1.1-.6.4-1.2-.4-1.2-.4.7-1.2.8-2 .8-2.5-.2.1-.5.2-.7.2.3 1.1-.4 1.7-.4 1.7-.2-.1-.2-.7-.2-.7-.1-.2-.1-.5-.2-.7-.2.1-.4.1-.6.2.2.7.3 1.6.3 1.6-.1.1-.5.2-.5.2-.5 0-.2-.2-.2-.2.3-.2.2-.4.2-.4-.2-.4-.7 0-.7 0-.8.4-.5.9-.5.9.1.3.9.5.9.5-.4.3-1.2.2-1.3.2 0-.2-.2-.4-.4-.4-.3 0-.4.1-.5.2 0 0-.1.1-.1.2l-.5-.1c-.3 0-.5-1-.6-1.8h-.4c.1.9.3 1.6.3 1.6-.2 0-.8-.5-.8-.5-.8-.5-1.4-.4-1.5-.3-.4.1-.7.4-.7.9s.4.9.9.9.9-.4.9-.9c.3.2.6.3.6.3.8.5 1.6.6 1.8.6.1.3.3.5.6.5.2 0 .5-.1.6-.3 1.7-.1 2.4-.8 2.4-.8.2-.2.2-.1.2-.1.6.9 1.9.4 1.9.4.2-.1.3 0 .3 0 .3.4.6.2.6.2.5-.3.2-.6.2-.6-.2-.2 0-.2 0-.2.6.1.7-.2.7-.2.1-.3-.3-.5-.3-.5-.1-.1.1-.3.1-.3.3-.2.3-.4.3-.4.4 0 .4-.2.4-.2 0-.2-.5-.2-.5-.2-.4 0-.3-.3-.3-.3.6 0 1.6-.3 1.6-.3 1.4 1.1 3.5 1.4 3.5 1.4v.5c-.2 0-.3.1-.3.3 0 .2.1.3.3.3h.1c.7-.2.7-1.2.7-1.2 1.9.2 3.2-1.2 3.2-1.2.2-.2.3-.1.3-.1.1.1.2.2.4.2s.3-.1.4-.2c.1-.1.1-.2.1-.3-.5 0-.6-.1-.6-.1M31.4 39c.2-.1.2-.3.2-.3 0-.5-.3-.8-.4-.8h-1.4s-.4.2-.4.8c0 0 0 .2.2.3 0 0-.5.2-.5.5 0 0-.1.2.4.6 0 0 .3.3.4.6 0 0 0 .4.5.4s.5-.4.5-.4c.1-.3.4-.6.4-.6.4-.3.4-.6.4-.6.2-.3-.3-.5-.3-.5m3.6-2.1h.2l-.1-.3zm-8.4 0l.2.1-.1-.4zm-1-.7l-.1.4h.2s.1 0 .1-.1v-.3c-.1.1-.1.1-.2 0m3.6.3c-.1 0-.2 0-.2.1s-.1.2-.1.3c0 .2 0 .3.1.3 0 .1.1.1.2.1s.2 0 .2-.1c.1-.1.1-.2.1-.3 0-.1 0-.3-.1-.3 0 0-.1-.1-.2-.1m3.1 0c-.1 0-.1 0-.2.1 0 .1-.1.2 0 .3 0 .2 0 .3.1.3 0 .1.1.1.2.1s.2 0 .2-.1.1-.2.1-.3c0-.1 0-.3-.1-.3s-.2-.1-.3-.1m-8.6 0l.3.1-.1-.4zM19 34.6l-.2.4h.2l.1-.1v-.1s0-.1-.1-.1c.1 0 0-.1 0-.1m1.2.4H20c-.1.1-.1.1-.2.3 0 .2-.1.3 0 .3 0 .1.1.1.2.2h.2c.1 0 .1-.1.2-.3 0-.1.1-.2 0-.3-.1-.1-.2-.1-.2-.2m1.1.4l-.1.4h.3s0-.1.1-.1v-.2c-.1-.1-.2-.1-.3-.1"/><path class="st2" d="M40.1 35.4h-.2l.1.4c.1 0 .1 0 .2-.1l.1-.1v-.1c-.1 0-.1-.1-.2-.1m2.1-.1l.3-.1-.3-.2z"/><path class="st2" d="M43.2 34c-.1-.1-.2-.1-.4-.1h-.2c-.5.1-4.8 2-12 2s-11.5-1.9-12-2h-.2c-.1 0-.3 0-.3.1l-1.5 1.2c.4 0 .9.2.9.2 3.8 1.7 8.2 2.4 13.1 2.4s9.3-.7 13.1-2.4c0 0 .5-.2.9-.2L43.2 34zm-14 2.1h.3l-.4.2H29l.2-.2zM19.4 35c0 .1-.1.1-.1.1h-.2c-.1 0-.1 0-.2-.1h-.1l-.1.2v.1l.1.1v.1l-.5-.2v-.1h.1l.1-.1.2-.6v-.1l-.1-.1v-.1l.4.1c.1 0 .2.1.2.1.1 0 .1.1.1.1l.1.1v.4m1.2.6c0 .1-.1.2-.3.3-.1.1-.3.1-.4.1-.1 0-.2-.1-.3-.2-.1-.1-.1-.2-.1-.3v-.3c0-.1.1-.2.2-.2.1-.1.2-.1.3-.1h.3c.2.1.3.1.4.3-.1.2-.1.3-.1.4m1 .5c0 .1.1.2.1.2h.1v.1l-.3-.1s0-.1-.1-.3v-.3h-.1l-.1.2v.1l.1.1v.1l-.5-.1V36h.1v-.1l.2-.6v-.1l-.1-.1V35l.4.1h.1c.1 0 .2 0 .2.1 0 0 .1 0 .1.1l.1.1v.1c0 .1-.1.2-.3.2-.1.2 0 .3 0 .4m1.7.7l-.9-.2v-.1h.1v-.1l.1-.6v-.1h-.1v-.1l.5.1v.1h-.1v.1l-.1.6v.1h.3c.1 0 .1-.1.1-.2h.1v.4zm1.1.2l-.5-.1v-.1h.1v-.2l-.3-.1v.2h.1v.1l-.3-.1v-.1c.1 0 .1 0 .2-.1l.5-.7h.1l.2.8c0 .1 0 .1.1.2-.2.1-.2.1-.2.2zm1.7.3h-.3s-.1-.1-.1-.3c0-.1-.1-.1-.1-.1h-.1v.3h.1v.1l-.6-.2V37h.1v-.1l.1-.6v-.1h-.1v-.1l.4.1h.3s.1 0 .1.1l.1.1v.1c0 .1-.1.2-.2.2 0 0 .1.1.1.2s.1.2.1.2c.1.1.1.1.1.2zm1.2.1h-.5v-.1h.1v-.2h-.3v.2h.1v.1h-.3v-.1c.1 0 .1 0 .2-.1l.4-.8h.1l.2.8c0 .1 0 .1.1.1-.2 0-.1 0-.1.1zm1.1-.9l-.6.8h.3s.1 0 .1-.1l.1-.1h.1v.3l-.9-.1v-.1l.6-.8h-.4l-.1.1h-.1v-.3l.9.3zm1.2.9c-.1.1-.2.1-.4.1-.1 0-.2 0-.3-.1-.1-.1-.2-.1-.2-.2s-.1-.2 0-.3c0-.1 0-.2.1-.3l.2-.2c.1 0 .2-.1.3-.1.2 0 .3.1.4.2.1.1.1.2.1.4-.1.2-.1.4-.2.5m1.5-.8s-.1 0 0 0c-.1 0-.1.1-.1.1v.9h-.1l-.7-.8v.6h.1v.1H30v-.1h.1v-.7c0-.1 0-.2-.1-.2v-.1h.3l.6.6v-.4c0-.1-.1-.2-.1-.2v-.1l.3.3zm1.7.7c-.1.1-.2.2-.4.2-.1 0-.2 0-.3-.1-.1 0-.2-.1-.2-.2s-.1-.2-.1-.3c0-.1 0-.2.1-.3 0-.1.1-.2.2-.2s.2-.1.3-.1c.2 0 .3 0 .4.1.1.1.2.2.2.4-.1.3-.1.4-.2.5m.9.1l.1-.1v-.1l-.1-.6v-.1h-.1v-.1h.5v.1H34v.1l.1.6v.1h.1c.1 0 .2 0 .2-.1 0 0 .1-.1.1-.2h.1v.3l-.9.1zm1.5-.1c0-.1.1-.1.1-.1v-.1H35v.2h.1v.1h-.3v-.1c.1 0 .1-.1.1-.2l.2-.8h.1l.4.8c0 .1.1.1.1.1h.1v.1h-.6zm1.8-1.1s0-.1-.1-.1h-.4l.1.4h.2v-.1l.2-.2v.4h-.1v-.1h-.2v.4h.1v.1l-.5.1V37h.1v-.1l-.1-.6v-.1h-.1v-.1l.8-.1v.2zm1.2-.2l.1.3v.3c0 .1-.1.1-.1.1-.1 0-.1.1-.2.1h-.2c-.1 0-.1 0-.2-.1l-.1-.1v-.2l-.1-.4v-.1h-.1v-.1l.5-.1v.1h-.1v.1l.1.4c0 .1 0 .1.1.2 0 0 0 .1.1.1h.2c.1 0 .1 0 .1-.1l.1-.1v-.2l-.2-.2c-.1-.1-.2-.1-.3-.1v-.1l.4-.1v.1h-.1v.2c0-.1 0 0 0 0m.5.7c0-.1.1-.1.1-.1v-.1l-.1-.6v-.1h-.1v-.1l.9-.2.1.3h-.1l-.1-.1H39l.1.3h.2v-.1h.1l.1.3h-.1v-.1h-.2l.1.2v.1h.2c.1 0 .1 0 .1-.1 0 0 0-.1.1-.1v-.1h.1l.1.3-1.2.3zm1.9-.5l-.2-.2-.1-.1h-.2l.1.2v.1h.1v.1l-.5.1v-.1s.1 0 .1-.1v-.1l-.2-.6s0-.1-.1-.1h-.1v-.1l.4-.1h.4s.1 0 .1.1l.1.1c0 .1 0 .2-.1.3l.2.2c.1.1.1.1.2.1h.1v.1l-.3.1zm.4-.1l.3-1.1-.2.1c-.1 0-.2.1-.2.1v.2h-.1l-.1-.3.8-.3v.1l-.3 1 .2-.1c.1 0 .1 0 .1-.1 0 0 0-.1.1-.1v-.1h.1l.1.3-.8.3zm1.6-.6v-.1l-.1-.1-.3.1v.2h.1v.1l-.3.1v-.1c.1 0 .1-.1.1-.2v-.9h.1l.6.6.1.1h.1v.1l-.4.1zM26 19.7c-.2-.1-.4-.3-.6-.3-.1.1-.3.2-.5.3H26zm2.6-.2c-.1 0-.3.1-.5.2H28h4.5c-.2-.1-.4-.2-.5-.2h-.1c-.2-.1-.4-.2-.6-.2H29c.1 0-.1.1-.4.2.1 0 0 0 0 0m7-.1c-.1.1-.3.2-.5.3h1c-.2-.1-.4-.2-.5-.3m-10.8 9.2v-2.4c-.2.5-.4 1.5 0 2.4m5.6-4L26 23.2h3.4zm0-4.6h-5.9c0 .1 0 .1.1.2 0 0 .1.1.2.3h5.5l.1-.5zm-.3.8H25c.1.1.2.3.3.5H30l.1-.5zm-.2.8h-4.5c.1.2.1.3.2.5h4.2l.1-.5zm-.2.8h-4.1c0 .2.1.3.1.5h3.8l.2-.5zM27.1 24h-1.4c0 .1-.1.3-.1.5h2.2l-.7-.5zm-.5-.3l-.6-.5h-.3v.4h.9z"/><path class="st2" d="M30.4 20v4.6l4.4-1.4h-3.5l-.1-.3h3.9c0-.2 0-.3.1-.5h-4.1l-.1-.3h4.3c.1-.2.1-.3.2-.5h-4.6l-.1-.3h4.9c.1-.2.2-.3.3-.5h-5.3l-.1-.3h5.6c.2-.2.3-.4.3-.4V20h-6.1zm1.1 7.1v3.6c.2-.1.3-.2.5-.2v-2.9l-.5-.5zm-.8-.6v5.1c.1-.1.1-.2.2-.3.1-.1.2-.3.3-.4v-4.1l-.5-.3zm-.8.2v4.1c.2.1.3.3.4.5 0 0 0 .1.1.1v-5.1l-.5.4zm-.8.6v3.1c.2.1.3.1.5.2V27l-.5.3zm3.2 3c.2 0 .3-.1.5-.1v-2.1l-.5-.4v2.6zm-4-.1c.1 0 .3.1.5.1v-2.7l-.5.4v2.2z"/><path class="st2" d="M30.4 24.6l-1.6.6-.6-.4h-2.7c0 .2-.1.3-.2.5 0 .1-.1.2-.2.4v3.5c.1.1.3.3.5.4v-4.3h.3v4.5c.1.1.3.1.5.2v-4.7h.3v4.8c.1 0 .3.1.5.1v-4.9h.3v4.9h.5v-2l-.3.2 2.7-3.8zm-2.4.6h.3v1.4l-.3 1v-2.4z"/><path class="st2" d="M35.5 25.2c-.1-.2-.1-.3-.2-.5h-2.7l-.6.5-1.2-.4-.4-.2 2.6 3.7v1.8h.5v-4.9h.3v4.9c.2 0 .3 0 .5-.1v-4.8h.3V30c.2-.1.3-.1.5-.2v-4.6h.3v4.4c.2-.1.3-.2.4-.4V26c-.1-.3-.2-.5-.3-.8m-2.5 3l-.3-.9v-2h.3v2.9zm.1-3.7h2.2c0-.2-.1-.3-.1-.5h-1.4l-.7.5zm1.7-1.3l-.7.5h1v-.4h-.3zm2.6-9.4h.4c1.5-.4 1.5-2.2 1.3-2.3 0 .1-.1.2-.1.3-.1.2-.2.3-.2.3.3-.6.3-1 .1-1.6-.1-.3-.3-.6-.6-.8-.7-.5-2.2-.6-3 0-.3-.3-.6-.5-1.1-.6-.1.5-.6 1.1-1 1.4-.1.1-.3.2-.4.2 0 0-.1 0 0-.1.8-.5 1.2-1.1 1.2-1.8 0-.4-.1-1.1-.6-1.6-.7-.8-2.7-.9-3.6-.2-.2.2-.4.5-.5.9.1-.3.3-.5.7-.7.4-.1 1.1 0 1.3.4-.7-.7-1.9-.2-2 1 0 .1-.1.1-.1.1s-.1 0-.1-.5c0-.3.1-.7.3-1.1-1.5-.3-3.3.5-3.2 2.7 0 .3.1.6.4.9.1.1 0 .1 0 .1s-.2-.1-.3-.3c-.1-.2-.3-.5-.3-.7-.9-.3-1.5-.3-2-.3-.5.1-1.3.5-1.5.9-.1.1-.2.4-.3.5-.2.4-.3.8-.3 1.3.1.9.5 1.6 1.1 1.9.9.5 2 .4 2.4.4.2 0 .4-.1.7-.3 0 0 .1 0 .1-.1.3-.3.6-.8.5-1.4 0 0 .1.2.1.4s-.1.5-.2.7v.1c0 .1 0 .2.1.2.2.2.6.2.9.1 0 0-.2.3-.6.3h-.2c.2.4.8.6 1.5.6 0 0-.2.1-.4.1-.3 0-.6-.1-.9-.2.3.4.8.7 1.7.8 0 .1-.7 0-.9 0 .4 1.6 1.3 1.4 1.3 1.5-.3.1-.4.4-.3.7.9-.3 1.6-.4 1.8-.4.2 0 .9 0 1.8.4.1-.1.1-.3.1-.4-.1-.4-1.4-.7-2.5-.4 0 0-.1 0-.2.1l.2-.1c.5-.3 1.6-.4 2.1-.1.5.2.9-.4.8-.7.4 0 .6-.2.7-.6-.1 0-.1.1-.2.1-.1.1-.3.1-.3.1.1 0 .1-.1.2-.1.7-.4 1-1.2.9-1.4-.1.1-.3.3-.5.3h-.2c.1 0 .2 0 .2-.1.2-.2.5-.5.6-.7-.4-.4-.6-.9-.8-1.5-.1-.2-.3-.5-.6-.5h-.2c.3-.3.7 0 .9.1 0-.6.2-.8.3-.7-.4 1.2.4 2.4 1 2.8.9.5 2.4.5 3.4-.3-.2.1-.4.1-.6.1-.1 0-.3-.1-.3-.2m-13.8 0c.5-.1 1-.4.9-.9 0-.1-.2-.3-.4-.3-.3 0-.5.2-.7.4 0-.5.3-.8.8-.7.3 0 .6.3.7.5.1.7-.6 1-1.3 1m1.9-.6c.2-.6.3-1.6-.6-1.8-.8-.2-1.5.4-1.8.7.2-.7 1-1.2 2-1-.2-.6-1-.8-1.9-.4-.2.1-.4.3-.5.4.2-.5.5-.8 1-.9.7-.2 1.4 0 1.7.4 1 1 .4 2.5.1 2.6m5.1 3.3c-.5 0-.5-.3-.6-.7.2.2.5.4.5 0-.2-.1-1.2-.4-.9-.9.2-.2.7.7.9.4.1-.7-2-.9-1.9-1.4 0-.3 1.6.8 1.8.8 0-.3-2.4-1.3-3.1-2.6-.1-.1-.1-.2-.1-.2.4.7 1.6 1.6 3 2 .6.2.8 1.8.4 2.6m.5.4c-.2 0-.1-.3-.1-.4 0-.7 0-1.3-.2-1.9-.1-.3-.3-1.2-.9-2.3.2.3 1.1 1.7 1.3 2.7.1.6.2 1.4-.1 1.9m.8-4c.4.2-.2 1-.3 1.2.1 0 .4-.4.6-.3.2.2-.5 1.1-.6 1.1-1-1.3.2-1.6.3-2m-.2 3.6c-.1-.1-.1-.3-.1-.4 0-.3.4-.5.6-.6.1-.1 0 .5-.5 1m-.1-.9c-.2-.3.3-.7.4-1.1.6 0-.1 1-.4 1.1m.6-8.5s.9.2 1 1c0 .5-.2.6-.3.6v-.1c.1-.3.1-.9-.2-1.2-.2-.2-.5-.3-.5-.3m5 4.9c0-.1 0-.1 0 0v-.8c-.2-1-1-1.3-1.6-.7 0 0 .6-1.2 2-.7.3.1.6.4.8.8.2.4.1.8 0 1 0-.2 0-.6-.2-.9-.1-.2-.2-.4-.5-.5.1.2.2.4.3.5.1.2.1.3.1.4 0 .4-.2.9-.4 1.1.2-.5.2-1 .1-1.4 0 0 0-.1-.1-.1-.2-.3-.4-.6-.9-.6.2.1.4.4.5.6.3.4.2 1-.1 1.3"/><path class="st2" d="M50.7 24.1c-.1-2.3-.3-4.4-.9-6.3-.3-1.2-1-3.6-2.5-3.9-.7-.2-1.3.5-1.3 1.1 0 .5.4.8.2 1.3-.2.3-.4.7-.5 1.1-.1.4.2.5.1.9-.5-.1-.7.3-1.4.2-.6.3-1.3.1-1.3.1.7 0 1.3-.2 1.5-.6.1-.5.1-1.2-.3-1.4-.4.1-.6.4-2 .3-1.1-.1-1.4.1-1.6.8-.1-.1-.1-.2-.1-.3 0-.4.4-.6.9-.7.1-.2.1-.3.1-.5H41c-.5.1-1.3.4-1.5.9v.5c0 .1 0 .1.1.2.2.4.6.6 1.5.6 0 0-.2.1-.4 0 0 0-.8 0-1.2-.4l-.1.1c-.2.2-.7.5-1 .5-.4 0-.9-.2-1-.5-.5-.7.2-2 .2-2.5 0-1.3-1.8-.7-2.4-.4-.8.4-1.4 1-1.9 1.7-.3.3-.6.7-.7 1.1.2.1.9.4 1.4.4h.2c.3 0 .8 0 1.1-.3 0 0 .2-.1.4-.1s.3.1.4.2c.1.1 1.2.9 1.5 1.2 0 0 .2.1.2.3 0 .1 0 .2-.1.4-.1.1-.6.7-1 1.6 0 .1-.1.3-.1.4-.1.5-.2 1.2.4 1.4 0 0 .7.2.7-1 0 0 .1.8.7.7.2 0 .4-.2.4-.8-.1-.5 0-1 .1-1.7v-.1s0 .1.1.3c0 .3-.2 3 2.1 4.9 0 0-1-.5-1.6-1.6-.4.2-.9.7-.7 1.7.1.4.4.7.6.8 0 0-.1.1-.3-.1l-.1-.1c-.1-.1-.1-.2-.2-.3-.3-.2-.5-.5-.7-.7-.2-.4-.1-1.5-1.2-1.5h-.3c-.3-1-.2-1.6-.2-1.7.2-1.4 1.2-2.5 1.3-2.7 0 0 .1-.1.1-.2s0-.1-.1-.1c-.4-.2-1.4-1.1-1.6-1.2-.1-.1-.2-.1-.3-.1-.1 0-.2.1-.2.1-.4.4-1 .4-1.3.4h-.2c-.6 0-1.4-.4-1.5-.5-1.1-.4-1.9-.5-2-.5-.2 0-1 0-2 .5-.2.6-1 1-1.6 1h-.2c-.3 0-.8-.1-1.3-.4 0 0-.1-.1-.2-.1s-.2 0-.3.1c-.1.1-1.2.9-1.6 1.2 0 0-.1 0-.1.1s0 .1.1.2 1.1 1.3 1.3 2.7v.6c-.1-.3-.2-.5-.2-.7 0-.2-.1-.3-.2-.4-.1-.2-.4-.4-.6-.5-.2-.1-.4-.1-.6-.3-.3-.2-.6-.4-.8-.8 0-.7-.4-1.2-.4-1.2.1 0 .5.3.6 1 .5-.5.8-1.3.9-2.2.4-.5 1.5-.3 1.9-.3.1 0 .3.1.4.1.1.1.1.3.3.3.2.1.4 0 .6 0 .1.1.1.2.2.3h.1c.6 0 1.4-.4 1.5-.4h.1c-.2-.3-.6-.4-.9-.4-.4-.1-.6-.4-1-.5-.1 0-.4-.1-.6 0-.9.1-1.5-.2-2.2-.3-.8-.1-.8.5-1.1.9-.1.2-.2.3-.4.5s-.5.2-.7.4c0-.3-.2-.7-.3-1 0 0 0-.1-.1-.1-.4-.6-.9-1.1-1.8-1.4-.2-.1-.2-.1-.3-.2-.1-.1 0-.3 0-.3.3-.1.7-.1 1-.2.7-.3.5-1 .2-1-.4-.1-1-.2-1.2-.3-.2-.1-.3-.4-.6-.5-.2-.1-.4-.1-.6 0-.2 0-.3.2-.4.1.2-.2.5-.3.8-.4-.3-.1-.2-.6-.5-.7-.1 0-.3 0-.5.1 0-.2-.1-.7-.4-.9-.2-.1-.3.1-.3.2s.4.3.4.8c-.1 0-.1.1-.2.1 0-.2-.2-.6-.4-.7-.2-.1-.3.1-.3.2s.3.3.4.7c-.1.1-.2.1-.2.2-.5-.1-.6-.5-.7-.5-.1 0-.4 0-.2.3.1.3.5.4.7.5 0 .1-.1.2-.1.2-.6-.1-.7-.5-.8-.5-.1 0-.4 0-.3.3.2.3.7.5.9.5-.1.2-.1.3-.1.4-.4-.1-1.2.2-1.1.7.1.1.7-.3 1.1-.1.3.5.8.5.9.6.2.1.2.4.3.6.1.4.4.8.7 1.1.3.4.5.8.8 1.2 0 .1.1.2.1.4-.3.5-1.3 1.1-1.7 1.5-.4.4-4.2 3.3-4.7 4.5-.1.4-.1.7-.1 1.1-.2.1-.6.1-.8-.1-.3-.3.3-.6.1-1-.1-.2-.3-.2-.4-.2-.3.1-.3.7-.2 1 0 .1.2.2.1.3-.1.1-.2-.1-.2-.3-.1.1-.2.2-.1.3.1.3.4.3.5.4 0 .1-.2.2-.3.1-.2.3 0 .4.1.4.2 0 .5-.2.6-.2.1.2 0 .2-.3.3.4.5.7-.3 1.1-.2.1 0 1.3 1.1 1.1 2l-.1.2c-.3.3-.7.6-1 .9-.6.4.6 2.9.5 4.2-.1.5.4.4.7 1.2-.3 0-.6.1-.8.3v.1c-.1.1-.1.2-.1.3 0 .3.3.6.6.6s.6-.3.6-.6v-.1c.1 0 .3 0 .5.1l.6.3s-1.9 1.6-5.1.7c0 0-1.4-.5-1-1.7 0 0 .1-.2.3-.3 0 .2.1.3.3.4.1.1.3.1.4.1.4 0 .7-.3.7-.7 0-.2-.1-.4-.2-.5l-.1-.1c-.2-.1-.5-.2-1-.1 0 0-1.4.4-.9 1.9 0 0-.9-.2-1.3.2 0 0-.1.1-.1.4 0 .1 0 .2.1.3.1.1.3.2.4.2.2 0 .3-.1.4-.2 0-.1.1-.1.3.1 0 0 1.3 1.4 3.2 1.2 0 0 .1 1 .7 1.2h.1c.2 0 .3-.2.3-.3 0-.2-.1-.3-.3-.3 0 0-.1-.3 0-.5 0 0 2.1-.3 3.5-1.4 0 0 1 .3 1.6.3 0 0 .1.2-.3.3 0 0-.5 0-.5.2 0 0 0 .2.4.2 0 0-.1.2.3.4 0 0 .2.1.1.3 0 0-.4.2-.3.5 0 0 .1.3.7.2 0 0 .2 0 0 .2 0 0-.3.3.2.6 0 0 .4.2.6-.2 0 0 .1-.2.3 0 0 0 1.2.6 1.9-.4 0 0 0-.1.2.1 0 0 .6.8 2.4.8.1.2.3.3.6.3s.6-.2.6-.5c.2 0 1-.1 1.8-.6 0 0 .3-.2.6-.3 0 .5.4.9.9.9s.9-.4.9-.9c0-.4-.3-.8-.8-.9 0 0-.6-.2-1.4.3 0 0-.7.5-.8.5 0 0 .2-.8.3-1.6h-.4c-.1.8-.3 1.7-.6 1.8l-.5.1c0-.1 0-.1-.1-.2s-.2-.2-.5-.2c-.2.1-.4.2-.4.4-.1 0-.9.2-1.3-.2 0 0 .8-.3.9-.5 0 0 .2-.4-.5-.9 0 0-.6-.3-.7 0 0 0-.1.2.2.4 0 0 .3.3-.2.2 0 0-.4 0-.5-.2 0 0 .1-1 .3-1.6-.2-.1-.4-.1-.6-.2-.1.2-.2.4-.2.7 0 0 0 .6-.2.7 0 0-.7-.6-.4-1.7-.2-.1-.5-.1-.7-.2 0 .5.1 1.3.8 2.5 0 0-.6.8-1.2.4 0 0-.9-.6-.3-1.1 0 0 .4-.3.5.1-.2 0-.4.2-.4.4s.2.4.4.4.4-.2.4-.3c0-.1 0-.5-.3-.8 0 0-.3-.3-.8-.2 0 0 .5-.6.5-1.2v-.2c-.1-.1-.3-.1-.4-.2 0 .5-.2 1.5-.9 1.2 0 0 .5-.8.8-1.3-.3-.1-.6-.2-.9-.4h-.1c0 .2.1.8-.2 1.1 0 0-.4.3-1-.2 0 0 .8-.7 1.1-1-.2-.1-.4-.1-.7-.1h-.2s-.5.4-.9.6c0 0-.1.1-.2 0 0 0-.7-.8-.2-1.6 0 0 .3-.7 1-.6 0 0 .2 0 .3.3 0 0-.6 0-.6.5 0 0 0 .5.6.4 0 0 .8-.1.6-1 0 0-.1-.6-.6-.6 0 0 .3-.3.1-.4 0 0-.2-.2-.6.1 0 0-.1.2-.6.1 0 0-.3-.1-.5.1 0 0-.1 0-.1.4 0 0 0 .1-.2.5 0 0-.1.3-.1.7-.2-.1-.3-.2-.5-.2-.3-.3-.3-1.5-.6-2.2-.1-.1.1-.8.1-1.5 1.9-.4 2.6-1.9 2.8-2.5.3-1.1-.1-2.1-.1-2.4.1.2.2.3.2.5.9.1 1.6-.1 2-.2h.2c.1 0 .2-.1.2-.1h.1c1.3-.7 1.9-1.8 2.3-2.4-.2 0-.8-.2-1-.5.5 0 .9.2 1.4.3.7 0 1.2-.4 2-.3 0 0 .1.4.6.6 0 .5 0 .8.2 1.2 0 .1.1.2.1.2s-.6.5-.4.9c0 .1.1.2.1.3h-.1c-.1 0-.2.1-.3.3-.1.1-.4.8-.1.8h.2c-.1.7-.1 1.6.4 2.4 0 .1.9 1.5 3.2 1.5.2 0 2.3 0 3 1.4 0 .1.2.3.4.3s.3-.2.4-.3c.7-1.4 2.8-1.4 3-1.4 2.3 0 3.2-1.4 3.2-1.5.3-.4.4-.8.5-1.3.5-.3.4-1.3.4-1.5.1.2.4.7 1 .8-.4 0-.4.8.2.9.2 0 .3-.2.3-.4.4 1.3.1 2.1.4 2.2.4 0 .5-.8.5-.8 0 .1.2.3.2.6 0 .4-.1.8.1.9.6.1.3-1.7.8-1.5-.1.8 0 1.2.3 1.3 0 .4 0 .7-.2.7-.9.2-1.6-.5-2.4-.3-.1 0-.1-.1-.1-.1-1.4-.7-2.3-.2-2.3-.3-.4-.4-.5.2-.6.1-.7-.4-1.1.3-1.3.3-.2 0-.5-.4-.8.5-.2.4-1 .5-1 .5-.3 0-.4-.2-.4-.2 0-.1-.1-.2-.1-.2 0-.1-.1-.1-.1-.2-.1-.1-.2-.1-.3-.1-.2 0-.4.2-.4.5 0 .1 0 .2.1.3 0 0 .1-.1.2-.1.2 0 .3.1.3.3 0 .4-.5.7-.5.7-.3.3-.7-.1-.7-.1-.2-.2-.4-.2-.4-.2-.2 0-.3.3-.3.3s-.1-.3-.3-.3c0 0-.2 0-.4.2 0 0-.4.4-.7.1 0 0-.6-.4-.5-.7 0-.2.1-.3.3-.3.1 0 .2.1.2.1.1-.1.1-.2.1-.3 0-.2-.2-.4-.4-.5-.1 0-.2 0-.3.1 0 .1-.1.1-.1.2s-.1.1-.1.2c0 0-.1.2-.4.2-.1 0-.9-.2-1-.5-.8-.7-1.2-.3-1.3-.3-.2 0-.6-.7-1.3-.3-.1.1-.3-.5-.7-.1-.1.1-.8-.4-1.9 0-.1-.1-.4-.2-.5-.2l-.6-.3c-.3-.2-.8-.1-1.2-.1-.1 0-.3-.1-.5-.2-.5-.3-1-.6-1.3-1 0-.1-.2-.2-.2-.3-.1-.2-.2-.3-.3-.6-.2-.6.1-1.2.2-1.7 0-.3 0-.4.1-.5-.4.1-1 .1-1.7-.1.2.6.2 1.2.1 1.7.3.2.4.6.5.7 0 .3-.1.6.1.8.2.3.8.7 1.1.9.1.1 1.7 1.3 1.9 1.3.2 0 .4-.1.6-.1.1 0 .1.1.2.1l.3.3c-.5.3-1.1.7-1.5.9 0 0-.7.4-.4.4 0 0 .5 0 .5.1 0 0-.2.1-.5.2.7.3 1.5.5 2.3.7.5-.5 1.1-1 1.7-1.2 0 0 .9 0 1.2-.6.1-.2.5.4 1.2-.1.1 0 .2.2.4.2.1 0-.3.1-.2.4 0 0-.6 0-.8.4-.1.1-1.4.1-2.6 1.1.2.1.5.1.7.2.4-.3.9-.5 1.4-.5 0 0 .7 0 1.1.9.5.1.9.1 1.4.2.1-.1.8-.4.5-.8 0 0-.2-.2-.4.1 0 0-.2.2-.2-.1 0 0 0-.1-.1-.3 0 0-.1-.2.1-.1 0 0 .2.1.5 0 .2 0 .4-.2.4-.4s-.2-.5-.4-.5h-.1l.1.1c0 .1-.1.2-.2.2-.3-.1-.2-.6.2-.6 0 0 .3 0 .6.3 0 0 .6.9 1.2 1.1 0 0-.1.3.3.4 0 0 0 .3.4.3 0 0 .1.1.2.3h2c.1-.2.2-.3.2-.3.4 0 .3-.2.4-.3.4-.1.2-.4.3-.4.6-.2 1.2-1.1 1.2-1.1.3-.3.6-.3.6-.3.4 0 .4.5.2.6-.1 0-.2-.1-.2-.2s0-.1.1-.1h-.1c-.2 0-.4.2-.4.5 0 .2.2.4.4.4h.5c.3-.1.1.1.1.1-.1.1-.1.3-.1.3-.1.2-.2.1-.2.1-.3-.3-.4-.1-.4-.1-.3.4.4.7.5.8.5 0 .9-.1 1.4-.2.3-.9 1.1-.9 1.1-.9.6 0 1 .2 1.4.5.2 0 .5-.1.7-.2-1.2-1-2.6-1-2.6-1.1-.2-.4-.9-.3-.8-.4.1-.3-.3-.4-.2-.4.2-.1.3-.3.4-.2.8.4 1.1-.1 1.2.1.3.6 1.2.6 1.2.6.6.2 1.2.7 1.7 1.2l2.1-.6v-.1c0-.1-.1-.1-.1-.2-.2-.3-.4-.6-.5-.7 0 0 .5-.8.8-.2 0 .1 0 .3-.3.3 0 0 .4.6.5 1 .2-.1.3-.1.3-.1h.1c-.2-.4-.5-.6-.4-.7.1 0 .4.1.5-.1 0-.1.1-.3.1-.6.2.1.4.1.5.1.5 0 .7-.8.6-1.1.1 0 .4-.3.4-.2.2.4 1 .8.9-.1.1.4.2.9.7.8.3-.1.1-.7.2-.7.1.2.2.8.8.7.2-.1.3-.2.3-.4 0-.6-1.8-4-2-5.5h-.1c-.2-.1-.2-.4-.2-.6-.2 0-.6-.2-.6-.9 0-.6.2-.8.3-.8v.1c-.1.4-.2 1 .1 1.2.1.1.2.1.3.1.1-.2.2-.3.3-.3-.2.3-.2.7 0 .9.1.1.2.1.3.1.5-.2.8-1.2.9-1.5.3.1-.6 2.1.1 2.5.3 0 .4-.3.6-.6.2.6-.7 1.8 0 2.1.4.1.6-1 .6-.8.1 1.6-.7 2.4-.2 2.7.5.2.6-1.1.6-1 0 1.8-.9 2.2-.5 2.5.4.2.7-.9.7-.6 0 1.6-.8 2-.5 2.5.4.6 1.2-1 1.2-.7 0 .4-.9 2.2-.3 2.3.4.1.6-.5.6-.6.6-4.8.6-9.2.5-10.7m-13.4-8.3c0 .1-.1.1 0 0-.4-.2-1.1-.2-1.6.1-.4.2-.6.5-.7.6-.1 0 .6-.9 1.6-1 .7 0 .7.3.7.3m2.3 3c-.1.3-.4.6-.7.6-.6.1-1.2-.3-1.2-.4 0-.1.5.2 1 .2.3 0 .6-.3.9-.4 0-.1 0-.1 0 0M14.2 35.2c.1.1.2.1.3.2l.1.1c0 .1-.1.1-.3 0-.1-.1-.2-.1-.3-.2-.1.1.1.3.2.4l-.1.1h-.2c-.2-.1-.2-.3-.2-.5 0-.1-.1-.4-.3-.5.2-.3.7.3.8.4m3.2-19.6c.5.2.6-.5.7-.3.2.3-.3.8-.7.3m.7-.5c-.2 0-.4-.2-.6 0 0 0-.3.2-.2.5 0 .2-.2.3-.3.1-.2-.4.5-1 .7-1.1.4-.1.7.1 1.1.2h.7c.5 0 .3.4.3.4-.4.1-.6-.2-1-.2-.2 0-.5.1-.7.1m1.8 2.8c-.6-.2-1.2-.3-1.5-.8.8.1 1.7.1 2.2.4h.1c.2.1.6.5.8 1.1-.8-.4-1-.5-1.6-.7m4.2 4.9c-.2 0-.2-.7-1.1-.5-.5.2-.8.1-1.1 0 1.3-.7 2.3 0 2.2.5m12.8 1.9h.4s.2.2.2.5c0 .1.1.4.2.5.1.1.1.3-.2.3-.3-.1-.6-.5-.5-1h-.4c-.1.1-.1.2-.2.2 0-.2.1-.3.3-.4 0-.1.1-.1.2-.1m-12.6 1.6s0 .1 0 0c0 .1-.1.1-.1.2v.1s0 .1-.1.1l-.1.1s-.1 0-.1.1h-.2v-.1c0-.1.1-.2.2-.4.1-.1 0-.2.1-.3.1 0 .2 0 .3-.1-.2-.2-.2-.5 0-.8.4-.4 0-1.2.1-1.3.1.1.2.4.2.7v1.5c-.2.1-.2.1-.3.2m12 2.7c-.1.1-.9 1.3-2.9 1.3-.2 0-1.8 0-2.4 1.1-.1.1-.3.4-.4.6l-.1.1s-.1 0-.1-.1c-.1-.2-.3-.5-.4-.6-.6-1-2.2-1.1-2.4-1.1-2 0-2.8-1.2-2.9-1.3-1-1.5-.1-3.2-.1-3.2.8-1.4.7-2.4.7-2.6 0-1.6-1-2.8-1.1-2.9-.1-.1-.1-.2-.1-.3 0-.1.1-.2.2-.2.2-.2.7-.5.9-.6l.1-.1h.1c.1 0 .1 0 .2.1.2.2.6.4 1.2.4h.3c.3 0 .9-.3.9-.3.2-.1.4-.2.5-.2.9-.4 1.7-.4 1.9-.4.2 0 1 0 1.9.4h.1c.1 0 .3.1.5.2 0 0 .6.3.9.3h.4c.6 0 1-.3 1.2-.4.1-.1.1-.1.2-.1h.1l.1.1c.2.1.7.4.9.6 0 0 .1.1.1.2s0 .2-.1.3c-.1.1-1.1 1.3-1.1 2.9 0 .2-.1 1.2.7 2.6.1.1 1 1.8 0 3.2m1.4-1.2s0 .1 0 0l-.1.1h-.5l-.1-.1s-.1-.2.1-.3l.1.1h.2v-.4c0-.4 0-.8.1-1h.1v.9c.3.3.2.5.1.7m3.8.7c-1.1.1-1.8-.9-1.7-.9.1 0 .4.4.7.5.5.2 1.2.1 1.5-.2h.1c.1.1 0 .5-.6.6m-19.6 3.2c0 .1 0 .1 0 0-.1.1-.2.1-.2.1h-.3c0 .1 0 .1.1.2 0 0 .1 0 .1.1.1 0 .1 0 .1.1s-.2.2-.3.2c-.2 0-.3-.2-.4-.4h-.1c-.2-.1-.4-.1-.7-.1 0-.5 1.3-.1 1.3-.1.2-.2.3-.2.4-.1M41 32.8c-.3.1-.8-.3-.8-.3-.1 0-.3-.2-.5-.1s-.3.3-.4.4v-.5h.1c.1-.1.2-.1.4-.1s.4.1.5.2c.2.2.5.2.7.2.2-.1.1.1 0 .2m4.7-13.9c-.1.1-.5.3-.7.3-.4.1-.8 0-1-.3.3-.1.6.1 1 .1.1 0 .3 0 .4-.1.1 0 .2-.2.4-.2 0 .1-.1.2-.1.2m4.1 11.9c-.1.4-.3 1.5-.3 1.5.9-8.4.4-10.5.3-10.4-.1 0-.3 1-.7.7-.5-.3 1-2.1.4-3.2-.1-.2-.3.2-.5.2-.6-.2.3-1.8.2-2-.1-.1-.6-.2-.6-.8 0-.3.2-.5 0-.7-.2-.2-.1.2-.3.1-.3-.3 0-.7-.2-.9-.1-.1-.3.2-.4.1-.2-.1.1-.4-.1-.5-.3 0-.7.3-.6.8 0 .2.3.4.3.6 0 .2-.3.5-.3.6-.4.9.3 1.1.2 1.4 0 .2-.3.2-.5.2-.2-.1-.3-.9-.2-1.2.1-.4.6-.8.6-1.1 0-.2-.3-.5-.3-.8 0-.5.3-1 .8-.9.3.1.5.3.7.6l.2.2c.6.7 1 1.9 1.3 2.9.6 2.9 1 7.5 0 12.6m23.7 97.8c-.9.4-1.6.6-2.4.6-2 0-3-1.4-3-3.5 0-2 1-3.3 3.1-3.3 1 0 1.7.2 2.2.6l-.5 1c-.4-.3-1-.4-1.6-.4-1.2 0-1.7.9-1.7 2.2 0 1.6.6 2.4 1.7 2.4.4 0 .8-.1 1.1-.2v-1.2h-.9l-.1-1h2.2v2.8zm5.3-1.9c0 1.6-.8 2.5-2.3 2.5-1.4 0-2.3-.9-2.3-2.5 0-1.4.8-2.5 2.3-2.5 1.5 0 2.3 1.1 2.3 2.5zm-1.3 0c0-1.2-.3-1.6-.9-1.6-.6 0-.9.4-.9 1.6 0 1.1.3 1.6.9 1.6.6 0 .9-.4.9-1.6zm3.5-1.9c.2-.3.7-.6 1.3-.6 1.1 0 1.9.8 1.9 2.5s-1 2.5-2.1 2.5c-.7 0-1.1-.3-1.4-.7l-.2.6h-.7v-6.8h1.3v1.7l-.1.8zm.1 3c.2.3.5.5.9.5.6 0 1-.4 1-1.6 0-1.1-.4-1.6-1-1.6-.3 0-.7.2-.9.4v2.3zm4.5 1.3v-3.9l-.6-.1v-.8h1.8v4.8h-1.2zm-.1-6.7h1.3v1.2h-1.3v-1.2zm3.6 4.7c0 .8.4 1.2 1.2 1.2.5 0 1-.2 1.4-.4l.2.9c-.4.2-1.1.5-1.8.5-1.5 0-2.4-.9-2.4-2.5 0-1.5.7-2.5 2.3-2.5 1.5 0 2 1.1 2 2.3v.6h-2.9zm.9-1.9c-.6 0-.9.6-.9 1.1h1.8c0-.6-.2-1.1-.9-1.1zm5.8.2c-.2 0-.4-.1-.6-.1-.3 0-.6.1-.9.3v3.5H93v-4.8h.9l.1.6c.1-.3.6-.7 1.1-.7.3 0 .5 0 .6.1l.1 1.1zm3.8 3.7v-2.9c0-.7-.3-1.1-.9-1.1-.3 0-.6.1-.8.3v3.6h-1.3v-4.8h.9l.2.6c.3-.3.8-.6 1.5-.6 1.2 0 1.7.7 1.7 1.9v3h-1.3zm6.6-2.4c0 1.6-.8 2.5-2.3 2.5-1.4 0-2.3-.9-2.3-2.5 0-1.4.8-2.5 2.3-2.5 1.5 0 2.3 1.1 2.3 2.5zm-1.3 0c0-1.2-.3-1.6-.9-1.6-.6 0-.9.4-.9 1.6 0 1.1.3 1.6.9 1.6.6 0 .9-.4.9-1.6zm7.6-2c-.1-.3-.1-.5-.1-.9v-1.5h1.3v6.8h-1l-.1-.5c-.2.3-.7.6-1.3.6-1.1 0-2-.8-2-2.5 0-1.6.9-2.5 2.1-2.5.4 0 .8.2 1.1.5zm-.2.7c-.2-.1-.5-.2-.9-.2-.6 0-1 .4-1 1.5s.4 1.6 1 1.6c.3 0 .6-.2.9-.4v-2.5zm3.6 1.7c0 .8.4 1.2 1.2 1.2.5 0 1-.2 1.4-.4l.2.9c-.4.2-1.1.5-1.8.5-1.5 0-2.4-.9-2.4-2.5 0-1.5.7-2.5 2.3-2.5 1.5 0 2 1.1 2 2.3v.6h-2.9zm.9-1.9c-.6 0-.9.6-.9 1.1h1.8c-.1-.6-.3-1.1-.9-1.1zm7.9 4c-1.9 0-2.9-1.2-2.9-3.4 0-2.1 1-3.4 2.9-3.4.9 0 1.7.2 2.3.6l-.5 1c-.3-.3-.9-.5-1.6-.5-1.1 0-1.7.8-1.7 2.2 0 1.5.6 2.3 1.6 2.3.6 0 1.3-.3 1.7-.6l.4 1c-.6.6-1.3.8-2.2.8zm3.2-.1v-6.8h1.3v1.8c0 .3-.1.6-.1.7.3-.3.7-.7 1.4-.7 1.4 0 1.8.7 1.8 1.9v3H131v-2.9c0-.7-.3-1.1-.9-1.1-.3 0-.6.1-.9.3v3.6h-1.3zm5.7 0v-3.9l-.6-.1v-.8h1.8v4.8h-1.2zm0-6.7h1.3v1.2h-1.3v-1.2zm2.4 5.5v-5.5h1.3v5.4c0 .4.2.5.8.5v.9s-.4.1-.7.1c-1-.1-1.4-.6-1.4-1.4zm4-.8c0 .8.4 1.2 1.2 1.2.5 0 1-.2 1.4-.4l.2.9c-.4.2-1.1.5-1.8.5-1.5 0-2.4-.9-2.4-2.5 0-1.5.7-2.5 2.3-2.5 1.5 0 2 1.1 2 2.3v.6H140zm.9-1.9c-.6 0-.9.6-.9 1.1h1.8c0-.6-.2-1.1-.9-1.1zM71.8 15.3c-1.2 0-2.2-.2-2.9-.4V7h2.7c2.4 0 3.9 1 3.9 4 0 2.6-1.2 4.3-3.7 4.3zm-.3-7h-1.1v5.5c.3.1.8.2 1.4.2 1.1 0 1.9-.6 1.9-3 .1-2-.5-2.7-2.2-2.7zm5.6 6.8V7h1.6v8.2h-1.6zm4.9 0h-1.6V7H83c1.7 0 3 .7 3 2.4 0 1.1-.6 1.9-1.6 2.4.6 1.1 1.2 2.2 1.7 3.4h-1.9L83 12.1h-.9v3zm.8-6.9H82v2.6h.8c1 0 1.5-.5 1.5-1.4 0-.9-.5-1.2-1.5-1.2zm4.5 6.9V7h5v1.3h-3.4v2h2.6l-.1 1.4h-2.5v2.1h3.4v1.3h-5zm9.3.2c-2.3 0-3.5-1.5-3.5-4.3 0-2.5 1.2-4.2 3.5-4.2 1.1 0 2.1.2 2.8.7l-.6 1.3c-.4-.3-1.2-.6-2-.6-1.4 0-2 1-2 2.8 0 1.9.7 2.9 2 2.9.8 0 1.6-.3 2.2-.8l.5 1.3c-.9.6-1.8.9-2.9.9zm6.9 0c-2.7 0-3.5-2-3.5-4.3 0-2.1.8-4.1 3.5-4.1 2.8 0 3.5 2 3.5 4.1 0 2.2-.8 4.3-3.5 4.3zm0-7.1c-1.4 0-1.8 1.3-1.8 2.8 0 1.6.4 3 1.8 3s1.8-1.3 1.8-3c0-1.5-.3-2.8-1.8-2.8zm8.8 6.9l-2.5-6.4.1 6.4h-1.4V7h2.4l2.6 6.6-.2-6.6h1.5v8.2h-2.5zm-39 12.2l-.1-4.6c-.1.6-.2 1-.3 1.3l-.8 3.3h-1.6l-.6-3.3c-.1-.3-.2-.7-.3-1.3l-.1 4.6h-1l.2-5.4h1.8s.6 2.7.9 4.5c.4-1.8 1.1-4.5 1.1-4.5h1.8l.2 5.4h-1.2zm2.4 0v-3.2l-.5-.1v-.7h1.5v4h-1zm-.1-5.6h1.1v1h-1.1v-1zm4.4 5.6V25c0-.6-.2-.9-.7-.9-.3 0-.5.1-.7.2v3h-1.1v-4h.7l.2.5c.2-.3.7-.5 1.3-.5 1 0 1.4.6 1.4 1.6v2.4H80zm2.1 0v-3.2l-.4-.1v-.7h1.5v4h-1.1zm0-5.6h1.1v1h-1.1v-1zm2.8 2.6c0 .6 1.7.4 1.7 1.7 0 .7-.5 1.3-1.6 1.3-.5 0-.9-.1-1.2-.3l.2-.7c.2.1.6.3.9.3.3 0 .6-.2.6-.4 0-.7-1.7-.5-1.7-1.8 0-.6.4-1.1 1.5-1.1.4 0 .8.1 1.1.2l-.1.8c-.3-.1-.6-.2-1-.2-.2-.1-.4 0-.4.2zm3.9 3c-.7 0-1.2-.3-1.2-1.3v-2H87v-.8h.6v-.7l1-.3v1h1.1v.8h-1.1v2c0 .3.1.5.4.5.2 0 .4-.1.6-.1l.2.8c-.1 0-.6.1-1 .1zm2.4-1.7c0 .6.4 1 1 1 .4 0 .8-.2 1.2-.3l.2.7c-.3.2-.9.4-1.5.4-1.2 0-1.9-.8-1.9-2.1 0-1.2.6-2.1 1.9-2.1 1.2 0 1.7.9 1.7 1.9v.5h-2.6zm.7-1.6c-.5 0-.7.5-.7.9h1.4c0-.5-.2-.9-.7-.9zm4.6.2c-.1 0-.3-.1-.5-.1-.3 0-.5.1-.7.3v2.9h-1v-4h.7l.1.5c.1-.3.5-.6.9-.6.2 0 .4 0 .5.1v.9zm.9 3.1v-3.2l-.5-.1v-.7h1.5v4h-1zm-.1-5.6h1.1v1h-1.1v-1zm5.5 3.6c0 1.3-.7 2.1-1.9 2.1s-1.9-.7-1.9-2.1c0-1.2.6-2.1 1.9-2.1 1.3 0 1.9.9 1.9 2.1zm-1.1 0c0-1-.3-1.3-.8-1.3s-.8.3-.8 1.3c0 .9.2 1.3.8 1.3.6 0 .8-.4.8-1.3zm6-1.7c-.1-.2-.1-.4-.1-.7v-1.2h1v5.6h-.9l-.1-.4c-.2.2-.5.5-1 .5-.9 0-1.6-.6-1.6-2.1 0-1.3.7-2.1 1.7-2.1.5 0 .8.2 1 .4zm-.1.6c-.2-.1-.4-.2-.7-.2-.5 0-.8.3-.8 1.3 0 .9.3 1.3.8 1.3.3 0 .5-.1.7-.3v-2.1zm2.8 1.4c0 .6.4 1 1 1 .4 0 .8-.2 1.2-.3l.2.7c-.3.2-.9.4-1.5.4-1.2 0-1.9-.8-1.9-2.1 0-1.2.6-2.1 1.9-2.1 1.2 0 1.7.9 1.7 1.9v.5h-2.6zm.7-1.6c-.5 0-.7.5-.7.9h1.4c0-.5-.1-.9-.7-.9zM69.7 35.3h-1v-5.4h1.8c1.1 0 1.9.5 1.9 1.6 0 .7-.4 1.3-1 1.6.4.8.8 1.5 1.2 2.2h-1.2l-.9-2.1h-.6v2.1zm.5-4.6h-.5v1.7h.5c.7 0 1-.3 1-.9 0-.6-.4-.8-1-.8zm3.4 2.9c0 .6.4 1 1 1 .4 0 .8-.2 1.2-.3l.2.7c-.3.2-.9.4-1.5.4-1.2 0-1.9-.8-1.9-2.1 0-1.2.6-2.1 1.9-2.1 1.2 0 1.7.9 1.7 1.9v.5h-2.6zm.8-1.5c-.5 0-.7.5-.7.9h1.4c0-.5-.2-.9-.7-.9zm2.4 2.2v-4.5h1v4.5c0 .3.2.4.6.4v.7s-.3.1-.6.1c-.7-.1-1-.5-1-1.2zm4.6 1l-.1-.5c-.2.3-.6.5-1.2.5-.8 0-1.3-.5-1.3-1.3 0-.7.5-1.2 1.5-1.2h.8v-.2c0-.5-.3-.7-.7-.7-.5 0-.9.1-1.2.3l-.2-.6c.4-.2.9-.3 1.6-.3 1.1 0 1.6.5 1.6 1.5v2.5h-.8zm-.3-1.7h-.7c-.4 0-.6.2-.6.5 0 .4.2.6.6.6.2 0 .5-.1.7-.3v-.8zm5 1.5c-.2.1-.8.3-1.4.3-1.2 0-1.9-.7-1.9-2.1 0-1.3.7-2.1 1.9-2.1.5 0 1 .1 1.4.3l-.3.7c-.3-.2-.6-.2-1-.2-.5 0-.9.4-.9 1.3s.3 1.3.9 1.3c.4 0 .8-.2 1.1-.3l.2.8zm.9.2v-3.2l-.4-.1v-.7h1.5v4H87zm0-5.5h1.1v1H87v-1zm5.5 3.6c0 1.3-.7 2.1-1.9 2.1s-1.9-.7-1.9-2.1c0-1.2.6-2.1 1.9-2.1 1.2 0 1.9.9 1.9 2.1zm-1.1 0c0-1-.3-1.3-.8-1.3s-.8.3-.8 1.3c0 .9.2 1.3.8 1.3.5-.1.8-.4.8-1.3zm4.2 1.9V33c0-.6-.2-.9-.7-.9-.3 0-.5.1-.7.2v3h-1.1v-4h.7l.2.5c.2-.3.7-.5 1.3-.5 1 0 1.4.6 1.4 1.6v2.4h-1.1zm2.7-1.7c0 .6.4 1 1 1 .4 0 .8-.2 1.2-.3l.2.7c-.3.2-.9.4-1.5.4-1.2 0-1.9-.8-1.9-2.1 0-1.2.6-2.1 1.9-2.1 1.2 0 1.7.9 1.7 1.9v.5h-2.6zm.8-1.5c-.5 0-.7.5-.7.9h1.4c0-.5-.2-.9-.7-.9zm3.3.3c0 .6 1.7.4 1.7 1.7 0 .7-.5 1.3-1.6 1.3-.5 0-.9-.1-1.2-.3l.2-.7c.2.1.6.3.9.3.3 0 .6-.2.6-.4 0-.7-1.7-.5-1.7-1.8 0-.6.4-1.1 1.5-1.1.4 0 .8.1 1.1.2l-.1.8c-.3-.1-.6-.2-1-.2-.3-.1-.4 0-.4.2zm4.1 2.9v-5.4h3.3v.9h-2.3v1.3h1.8l-.1.9h-1.7v1.4h2.3v.9h-3.3zm5.3-1.2l-.7 1.3H110l1.4-2.1-1.3-1.9h1.4l.6 1.1.6-1.1h1.1l-1.2 2 1.3 2h-1.3l-.8-1.3zm3.9 1.3c-.7 0-1.2-.3-1.2-1.3v-2h-.6v-.8h.6v-.7l1-.3v1h1.1v.8h-1.1V34c0 .3.1.5.4.5.2 0 .4-.1.6-.1l.2.8c-.2.1-.6.2-1 .2zm2.3-1.8c0 .6.4 1 1 1 .4 0 .8-.2 1.2-.3l.2.7c-.3.2-.9.4-1.5.4-1.2 0-1.9-.8-1.9-2.1 0-1.2.6-2.1 1.9-2.1 1.2 0 1.7.9 1.7 1.9v.5H118zm.7-1.5c-.5 0-.7.5-.7.9h1.4c0-.5-.1-.9-.7-.9zm4.7.2c-.1 0-.3-.1-.5-.1-.3 0-.5.1-.7.3v2.9h-1v-4h.7l.1.5c.1-.3.5-.6.9-.6.2 0 .4 0 .5.1v.9zm.8 3v-3.2l-.5-.1v-.7h1.5v4h-1zm0-5.5h1.1v1h-1.1v-1zm5.5 3.6c0 1.3-.7 2.1-1.9 2.1s-1.9-.7-1.9-2.1c0-1.2.6-2.1 1.9-2.1 1.2 0 1.9.9 1.9 2.1zm-1.1 0c0-1-.3-1.3-.8-1.3s-.8.3-.8 1.3c0 .9.2 1.3.8 1.3s.8-.4.8-1.3zm4-1.1c-.1 0-.3-.1-.5-.1-.3 0-.5.1-.7.3v2.9h-1v-4h.7l.1.5c.1-.3.5-.6.9-.6.2 0 .4 0 .5.1v.9zm1.2 1.3c0 .6.4 1 1 1 .4 0 .8-.2 1.2-.3l.2.7c-.3.2-.9.4-1.5.4-1.2 0-1.9-.8-1.9-2.1 0-1.2.6-2.1 1.9-2.1 1.2 0 1.7.9 1.7 1.9v.5h-2.6zm.7-1.5c-.5 0-.7.5-.7.9h1.4c.1-.5-.1-.9-.7-.9zm3.4.3c0 .6 1.7.4 1.7 1.7 0 .7-.5 1.3-1.6 1.3-.5 0-.9-.1-1.2-.3l.2-.7c.2.1.6.3.9.3.3 0 .6-.2.6-.4 0-.7-1.7-.5-1.7-1.8 0-.6.4-1.1 1.5-1.1.4 0 .8.1 1.1.2l-.1.8c-.3-.1-.6-.2-1-.2-.3-.1-.4 0-.4.2z"/></g></svg>