<svg id="Capa_1" xmlns="http://www.w3.org/2000/svg" xmlns:xlink="http://www.w3.org/1999/xlink" viewBox="0 0 210 92"><style>.st0{clip-path:url(#SVGID_2_);fill:url(#SVGID_3_)}.st1{fill:#314e60}.st2{clip-path:url(#SVGID_5_)}.st2,.st3{fill:#fff}.st4{font-family:&apos;gobCL-Light&apos;}.st5{font-size:10.351px}.st6{fill:#314e60}.st6,.st7,.st8{clip-path:url(#SVGID_9_)}.st7{fill:#0c64ae}.st8{fill:#e73439}.st10,.st9{fill:#fff}.st9{clip-path:url(#SVGID_11_)}.st10{clip-path:url(#SVGID_13_)}.st11,.st12{clip-path:url(#SVGID_15_);fill:#fff}.st12{clip-path:url(#SVGID_17_)}.st13,.st14{clip-path:url(#SVGID_19_);fill:#fff}.st14{clip-path:url(#SVGID_21_)}.st15,.st16{clip-path:url(#SVGID_23_);fill:#fff}.st16{clip-path:url(#SVGID_25_)}.st17,.st18{clip-path:url(#SVGID_27_);fill:#fff}.st18{clip-path:url(#SVGID_29_)}.st19,.st20{clip-path:url(#SVGID_31_);fill:#fff}.st20{clip-path:url(#SVGID_33_)}</style><defs><path id="SVGID_1_" d="M-94-222.9V174v-396.9z"/></defs><clipPath id="SVGID_2_"><use xlink:href="#SVGID_1_" overflow="visible"/></clipPath><radialGradient id="SVGID_3_" cx="-93" cy="174" r=".707" gradientTransform="matrix(198.4248 0 0 -198.4248 18359.508 34501.492)" gradientUnits="userSpaceOnUse"><stop offset="0" stop-color="#fff"/><stop offset=".482" stop-color="#fcfdfe"/><stop offset=".853" stop-color="#f2f8fa"/><stop offset="1" stop-color="#ecf4f8"/></radialGradient><path class="st0" d="M-94-222.9V174z"/><text transform="matrix(1 0 0 1.0101 267.441 -53.477)" class="st1 st4" font-size="8.91">.</text><defs><path id="SVGID_4_" d="M-94-222.9h396.9V174H-94z"/></defs><clipPath id="SVGID_5_"><use xlink:href="#SVGID_4_" overflow="visible"/></clipPath><path class="st2" d="M100.6 62.1c4.4-.3 8.2-1.9 11.2-4.9 3.4-3.3 5-7.5 5-12.6 0-4.6-1.3-8.6-4.1-11.7-.1-.1-.2-.2-.4-.2-.3 0-.5.2-.5.5v.1c2.1 5.6.9 11.2-2.8 12.7-2.6 1-5.7-.2-8.1-2.9-.2-.2-.5-.2-.7 0-.2.2-.2.4 0 .6 0 0 0 .1.1.1 2.1 2.4 3.2 5.4 3.2 8.8 0 3.5-1.1 6.4-3.2 8.8-.1.1-.1.2-.1.3-.1.1.1.4.4.4m-34.4-1.6c-.4-.5-.9-1.3-1.5-2.4-1-1.7-1.7-2.9-2.3-3.6-.5-.7-1.1-1.2-1.7-1.6 1-.4 1.9-1 2.4-1.8s.8-1.7.8-2.8c0-1.6-.5-2.9-1.6-3.8-1-.9-2.6-1.4-4.4-1.4h-4.4v18.7h2.7v-8.2h.2c.8 0 1.4.1 1.8.3.3.2.7.5 1.2 1 .4.5.9 1.1 1.4 1.8l.8 1.5.8 1.4.5.7c.1.1.1.2.2.2l.8 1.2h3.2l-.9-1.2zm-6.5-9.8c-.4.2-1.4.3-2.6.3h-.9v-5.4h.8c1.1 0 2.1.1 2.6.3.5.2.9.5 1.1.9.3.4.4.9.4 1.5 0 .5-.1 1-.4 1.5-.2.4-.5.7-1 .9m9.7-7.6h9.4v2.6h-6.6v4.8h6.6v2.6h-6.6v8.7h-2.8zm-21.5 2.5c-1.8-1.8-4.1-2.8-6.8-2.8s-5 .9-6.8 2.8c-1.8 1.8-2.7 4.2-2.7 7 0 2.7.9 5 2.7 6.8 1.8 1.8 4 2.7 6.6 2.7 2.8 0 5.1-.9 6.9-2.7 1.8-1.8 2.7-4.1 2.7-6.9.1-2.8-.8-5.1-2.6-6.9m-2 11.9c-1.3 1.4-2.8 2.1-4.7 2.1-1.9 0-3.4-.7-4.7-2-1.2-1.3-1.9-3-1.9-5.1 0-2.1.6-3.8 1.9-5.2 1.2-1.3 2.8-2 4.8-2 1.8 0 3.4.7 4.7 2 1.3 1.4 1.9 3 1.9 5-.1 2.2-.8 3.9-2 5.2"/><path class="st2" d="M97.6 45.6c-1.8-1.8-4.1-2.8-6.8-2.8s-5 .9-6.8 2.8c-1.8 1.8-2.7 4.2-2.7 7 0 2.7.9 5 2.7 6.8 1.8 1.8 4 2.7 6.6 2.7 2.8 0 5.1-.9 6.9-2.7 1.8-1.8 2.7-4.1 2.7-6.9.1-2.8-.8-5.1-2.6-6.9m-2 11.9c-1.3 1.4-2.8 2.1-4.7 2.1-1.9 0-3.4-.7-4.7-2-1.2-1.3-1.9-3-1.9-5.1 0-2.1.6-3.8 1.9-5.2 1.2-1.3 2.8-2 4.8-2 1.8 0 3.4.7 4.7 2 1.3 1.4 1.9 3 1.9 5-.1 2.2-.8 3.9-2 5.2m-66.5 0c-1.4 1.4-3.2 2.1-5.4 2.1-2.1 0-3.9-.7-5.3-2s-2.1-3-2.1-5.1c0-2.1.7-3.8 2.1-5.2 1.4-1.3 3.2-2 5.4-2 2.1 0 3.9.7 5.3 2v-3.1c-2.3-1-4.3-1.5-6.2-1.5-2.7 0-4.9.9-6.8 2.8-1.8 1.9-2.7 4.2-2.7 6.9 0 1.7.4 3.3 1.2 4.8.8 1.5 1.9 2.6 3.3 3.5 1.4.8 3 1.3 5 1.3 2.4 0 4.6-.5 6.4-1.6v-3.2c-.1.2-.1.3-.2.3m80.7-18.6c-.6-.7-1.5-1-2.4-1-1 0-1.8.3-2.4 1-.6.7-.9 1.5-.9 2.5s.3 1.8.9 2.4c.6.6 1.4 1 2.4 1s1.8-.3 2.5-1c.6-.6 1-1.5 1-2.4-.2-1.1-.5-1.9-1.1-2.5"/><text transform="translate(13.72 24.716)"><tspan x="0" y="0" class="st3 st4 st5">P</tspan><tspan x="5" y="0" class="st3 st4 st5">r</tspan><tspan x="8" y="0" class="st3 st4 st5">o</tspan><tspan x="13.1" y="0" class="st3 st4 st5">yec</tspan><tspan x="27.3" y="0" class="st3 st4 st5">t</tspan><tspan x="30.6" y="0" class="st3 st4 st5">o</tspan><tspan x="35.7" y="0" class="st3 st4 st5"> ap</tspan><tspan x="47.7" y="0" class="st3 st4 st5">o</tspan><tspan x="52.9" y="0" class="st3 st4 st5">y</tspan><tspan x="57.3" y="0" class="st3 st4 st5">ad</tspan><tspan x="67.2" y="0" class="st3 st4 st5">o</tspan><tspan x="72.3" y="0" class="st3 st4 st5"> p</tspan><tspan x="79.5" y="0" class="st3 st4 st5">o</tspan><tspan x="84.7" y="0" class="st3 st4 st5">r</tspan></text><defs><path id="SVGID_6_" d="M-94-222.9h396.9V174H-94z"/></defs><clipPath id="SVGID_7_"><use xlink:href="#SVGID_6_" overflow="visible"/></clipPath><defs><path id="SVGID_8_" d="M-94-222.9h396.9V174H-94z"/></defs><clipPath id="SVGID_9_"><use xlink:href="#SVGID_8_" overflow="visible"/></clipPath><path class="st6" d="M-65.9-64.3l.1-.1zm.5-.3s0-.1 0 0l-.3.2c.1.2.2-.3.3-.2m.1 0c.1.1.2-.1.2-.1-.1.1-.3 0-.2.1m-4.6 33.4l-.1-.1zm-.1-.6l.1.4c.2-.1-.2-.3-.1-.4m.1-.1c.1-.1 0-.2 0-.2 0 .1-.2.2 0 .2m3.7-6.9c0-.1 0 0 0 0m0-2.4"/><path class="st7" d="M134.7 17.8H164V83h-29.3z"/><path class="st8" d="M164 17.8h35.9V83H164z"/><defs><path id="SVGID_10_" d="M134.7 17.8h65.2V83h-65.2z"/></defs><clipPath id="SVGID_11_"><use xlink:href="#SVGID_10_" overflow="visible"/></clipPath><path class="st9" d="M171.4 27.9c-.7.3-1.2.4-1.8.4-1.5 0-2.3-1-2.3-2.6 0-1.5.8-2.5 2.3-2.5.8 0 1.3.2 1.6.4l-.4.7c-.3-.2-.7-.3-1.2-.3-.9 0-1.3.7-1.3 1.7 0 1.2.4 1.8 1.3 1.8.3 0 .6 0 .8-.2v-.9h-.7l-.1-.7h1.6v2.2zm3.1-1.5c0-.9-.3-1.2-.7-1.2-.5 0-.7.3-.7 1.2 0 .8.2 1.2.7 1.2.4 0 .7-.3.7-1.2m1 0c0 1.2-.6 1.9-1.7 1.9s-1.7-.7-1.7-1.9c0-1.1.6-1.9 1.7-1.9 1 .1 1.7.9 1.7 1.9m1.6.9c.1.2.4.4.7.4.4 0 .7-.3.7-1.2 0-.9-.3-1.2-.7-1.2-.2 0-.5.1-.7.3v1.7zm0-2.3c.2-.2.6-.4 1-.4.9 0 1.5.6 1.5 1.9 0 1.3-.7 1.9-1.6 1.9-.5 0-.8-.2-1.1-.5l-.2.4h-.5v-5.1h1v1.3l-.1.5z"/><defs><path id="SVGID_12_" d="M-94-222.9h396.9V174H-94z"/></defs><clipPath id="SVGID_13_"><use xlink:href="#SVGID_12_" overflow="visible"/></clipPath><path class="st10" d="M180.5 23.2h1v.8h-1v-.8zm0 5.1v-2.9l-.4-.1v-.6h1.4v3.6h-1z"/><defs><path id="SVGID_14_" d="M134.7 17.8h65.2V83h-65.2z"/></defs><clipPath id="SVGID_15_"><use xlink:href="#SVGID_14_" overflow="visible"/></clipPath><path class="st11" d="M183.9 25.3c-.5 0-.7.4-.7.9h1.3c0-.5-.1-.9-.6-.9m-.7 1.4c0 .6.3.9.9.9.4 0 .7-.1 1.1-.3l.2.7c-.3.2-.8.4-1.4.4-1.1 0-1.8-.7-1.8-1.9 0-1.1.5-1.9 1.7-1.9 1.1 0 1.5.8 1.5 1.7v.4h-2.2zm5.1-1.3c-.1 0-.3-.1-.5-.1-.3 0-.5.1-.7.2v2.6h-1v-3.6h.7l.1.5c.1-.3.4-.6.9-.6.2 0 .3 0 .4.1l.1.9zm2.8 2.9v-2.2c0-.5-.2-.8-.7-.8-.3 0-.5.1-.6.2v2.7h-1v-3.6h.7l.1.4c.2-.2.6-.5 1.1-.5.9 0 1.3.5 1.3 1.5v2.2h-.9zm4.1-1.9c0-.9-.3-1.2-.7-1.2-.5 0-.7.3-.7 1.2 0 .8.2 1.2.7 1.2.4 0 .7-.3.7-1.2m.9 0c0 1.2-.6 1.9-1.7 1.9s-1.7-.7-1.7-1.9c0-1.1.6-1.9 1.7-1.9 1.1.1 1.7.9 1.7 1.9M169.7 32c-.1-.1-.4-.2-.7-.2-.5 0-.7.3-.7 1.2 0 .9.3 1.2.7 1.2.2 0 .5-.1.7-.3V32zm.1-.5c-.1-.2-.1-.4-.1-.7v-1.1h1v5.1h-.8l-.1-.4c-.2.2-.5.5-1 .5-.8 0-1.5-.6-1.5-1.9 0-1.2.7-1.9 1.6-1.9.4 0 .7.2.9.4m3.3.4c-.5 0-.7.4-.7.9h1.3c0-.5-.1-.9-.6-.9m-.7 1.4c0 .6.3.9.9.9.4 0 .7-.1 1.1-.3l.2.7c-.3.2-.8.4-1.4.4-1.1 0-1.8-.7-1.8-1.9 0-1.1.5-1.9 1.7-1.9 1.1 0 1.5.8 1.5 1.7v.4h-2.2zm6.7 1.6c-1.4 0-2.2-.9-2.2-2.6 0-1.6.7-2.5 2.2-2.5.7 0 1.3.1 1.7.4l-.4.8c-.3-.2-.7-.3-1.2-.3-.8 0-1.2.6-1.2 1.7 0 1.2.4 1.7 1.2 1.7.5 0 1-.2 1.3-.5l.3.8c-.5.3-1.1.5-1.7.5m2.3-.1v-5.1h1V31c0 .3-.1.5-.1.6.2-.3.5-.5 1-.5 1 0 1.3.5 1.3 1.5v2.2h-1v-2.2c0-.5-.2-.8-.6-.8-.3 0-.5.1-.6.2v2.7h-1z"/><defs><path id="SVGID_16_" d="M-94-222.9h396.9V174H-94z"/></defs><clipPath id="SVGID_17_"><use xlink:href="#SVGID_16_" overflow="visible"/></clipPath><path class="st12" d="M185.7 29.7h1v.9h-1v-.9zm.1 5.1v-2.9l-.4-.1v-.6h1.4v3.6h-1z"/><defs><path id="SVGID_18_" d="M134.7 17.8h65.2V83h-65.2z"/></defs><clipPath id="SVGID_19_"><use xlink:href="#SVGID_18_" overflow="visible"/></clipPath><path class="st13" d="M187.6 33.9v-4.1h1v4.1c0 .3.2.3.6.3v.7s-.3.1-.5.1c-.8-.1-1.1-.5-1.1-1.1m3.7-2c-.5 0-.7.4-.7.9h1.3c0-.5-.1-.9-.6-.9m-.7 1.4c0 .6.3.9.9.9.4 0 .7-.1 1.1-.3l.2.7c-.3.2-.8.4-1.4.4-1.1 0-1.8-.7-1.8-1.9 0-1.1.5-1.9 1.7-1.9 1.1 0 1.5.8 1.5 1.7v.4h-2.2zM169 77.9c0-.3-.3-.4-.5-.4s-.5.1-.5.4c0 .3.3.4.5.4.3 0 .5-.1.5-.4m-.6 1.7c-.3 0-.4.2-.4.4s.2.4.5.4.6-.2.6-.5c0-.2-.2-.3-.7-.3m1.5-2.6v.5c-.1 0-.3 0-.5-.1.1.1.3.3.3.4 0 .7-.7.9-1.1.9-.1 0-.2 0-.4-.1-.1 0-.1.1-.1.2 0 .3 1.8-.1 1.8 1 0 .6-.6 1-1.3 1-.6 0-1.2-.3-1.2-.8 0-.4.3-.5.7-.6-.3 0-.7-.1-.7-.5 0-.2.2-.4.5-.4-.3-.2-.5-.4-.5-.8 0-.7.7-.9 1.1-.9.3.1 1 .2 1.4.2m2.2 1.4c0-.7-.2-.9-.5-.9s-.5.2-.5.9c0 .6.2.9.5.9.4 0 .5-.3.5-.9m.8 0c0 .9-.5 1.4-1.3 1.4s-1.3-.5-1.3-1.4c0-.8.4-1.4 1.3-1.4.8-.1 1.3.5 1.3 1.4m1.3.6c.1.2.3.3.5.3.3 0 .6-.2.6-.9s-.2-.9-.5-.9c-.2 0-.4.1-.5.2V79zm-.1-1.7c.1-.2.4-.3.7-.3.6 0 1.1.5 1.1 1.4 0 1-.6 1.4-1.2 1.4-.4 0-.6-.2-.8-.4l-.1.3h-.4v-3.9h.7v1.5z"/><defs><path id="SVGID_20_" d="M-94-222.9h396.9V174H-94z"/></defs><clipPath id="SVGID_21_"><use xlink:href="#SVGID_20_" overflow="visible"/></clipPath><path class="st14" d="M176.4 78.9h.7v.8h-.7z"/><defs><path id="SVGID_22_" d="M134.7 17.8h65.2V83h-65.2z"/></defs><clipPath id="SVGID_23_"><use xlink:href="#SVGID_22_" overflow="visible"/></clipPath><path class="st15" d="M180 79.5c-.2.1-.5.2-.9.2-.8 0-1.3-.5-1.3-1.4 0-.9.5-1.4 1.3-1.4.4 0 .7.1.9.2l-.2.5c-.2-.1-.4-.2-.7-.2-.4 0-.6.3-.6.9 0 .6.2.9.6.9.3 0 .6-.1.7-.2l.2.5zm.5-.5v-3.2h.7V79c0 .2.1.3.4.3v.5h-.4c-.5 0-.7-.3-.7-.8M152 30.8v1c.2-.4.1-.8 0-1m2.2-6c0 .1-.2.1-.2.2-.1-.1.1-.3.2-.2m.7 0c.1-.1.2-.3.3-.2.1 0 .1.1.2.2s.2.1.2.2-.1.3-.2.1c-.1-.1-.2-.4-.4-.3-.2.1-.3.2-.3.1s.1-.1.2-.1m0 .1c.1-.1.1.2.3.2-.2.2-.4 0-.3-.2m-.9.4s0-.1.1-.2c.1 0 .3.1.3.2s-.1.4.3.5v.1c0 .1 0 .1-.1.2h.1c.6 0 .9 0 1-.2 0 0 .1-.1.1-.2.1-.3.2-.5.1-.8v-.1c-.1-.2-.4-.5-.8-.6h-.1.1c.3 0 .8.3.9.6.1-.1.2-.2.2-.4 0 0 0-.2.1-.4v-.1h-.1c-.1.2-.2.1-.2-.1v-.1h-.1c-.1.1-.2.1-.2-.1v-.1h-.1c-.1.2-.2.1-.2-.1v-.1h-.1c-.1.1-.1.2-.1.2.3.1.7.2.9.5l.1.1-.1-.1c-.4-.3-.7-.4-1-.5-.2 0-.1.2-.1.3-.3-.1-.5.2-.5.4 0 .1 0 .2.1.2 0 0-.1 0-.1-.1v-.2c-.2 0-.5.1-.4.4-.3.6-.1.8-.1.8m6.7 10.3c-.2-.2-.6-.1-.6-.1.2-.7-.4-.9-.4-.9-.2-.1-.4 0-.5.1-.1.1-.1.1-.1.2 0 .2.2.3.3.3.1 0 .1 0 .2-.1.1 0 .1-.1.1-.2.1.1.1.2.1.2.2.6-.5.8-.5.8-1.5.5-2.4-.3-2.4-.3l.3-.1c.1 0 .2-.1.2-.1 0 .2.1.3.3.3.2 0 .3-.1.3-.3v-.1c-.2-.3-.8-.1-.8-.1.2-.5 0-.9 0-.9-.1-.2-.1-.3-.1-.3v-.2c-.1-.1-.3-.1-.3-.1-.2.1-.3 0-.3 0-.2-.1-.3-.1-.3-.1-.1.1 0 .2 0 .2-.2 0-.3.3-.3.3-.1.5.3.5.3.5.3 0 .3-.2.3-.2 0-.2-.3-.2-.3-.2l.1-.1c.3-.1.5.3.5.3.3.4-.1.8-.1.8-.1.1-.1 0-.1 0-.2-.1-.4-.3-.4-.3h-.1c-.1 0-.2 0-.3.1l.5.5c-.3.2-.5.1-.5.1-.1-.2-.1-.4-.1-.5-.1.1-.3.1-.4.2.1.2.4.6.4.6-.3.1-.4-.3-.4-.6-.1 0-.1.1-.2.1v.1c0 .3.3.6.3.6-.2-.1-.4.1-.4.1-.2.1-.2.3-.1.4 0 .1.1.2.2.2s.2-.1.2-.2-.1-.2-.2-.2c.1-.2.3 0 .3 0 .3.2-.2.5-.2.5-.3.2-.6-.2-.6-.2.3-.6.4-.9.4-1.2-.1 0-.2.1-.3.1.1.5-.2.8-.2.8-.1-.1-.1-.3-.1-.3 0-.1-.1-.2-.1-.3-.1 0-.2.1-.3.1.1.3.2.8.2.8-.1.1-.2.1-.2.1-.2 0-.1-.1-.1-.1.1-.1.1-.2.1-.2-.1-.2-.3 0-.3 0-.4.2-.3.4-.3.4 0 .1.4.3.4.3-.2.1-.6.1-.6.1 0-.1-.1-.2-.2-.2s-.2 0-.2.1v.1h-.2c-.2 0-.2-.5-.3-.9h-.2c.1.4.1.8.1.8-.1 0-.4-.2-.4-.2-.4-.2-.7-.2-.7-.2-.2 0-.4.2-.4.4s.2.4.4.4.4-.2.4-.4c.2.1.3.2.3.2.4.3.8.3.9.3 0 .1.2.3.3.3.1 0 .2-.1.3-.2.8 0 1.1-.4 1.1-.4.1-.1.1 0 .1 0 .3.4.9.2.9.2.1-.1.1 0 .1 0 .1.2.3.1.3.1.2-.1.1-.3.1-.3-.1-.1 0-.1 0-.1.3 0 .3-.1.3-.1.1-.1-.1-.2-.1-.2-.1-.1.1-.1.1-.1.2-.1.1-.2.1-.2.2 0 .2-.1.2-.1 0-.1-.3-.1-.3-.1-.2 0-.2-.1-.2-.1.3 0 .8-.1.8-.1.7.5 1.7.7 1.7.7v.3c-.1 0-.2.1-.2.2s.1.2.2.2c.3-.1.3-.6.3-.6.9.1 1.5-.6 1.5-.6.1-.1.1-.1.2 0 0 .1.1.1.2.1s.2 0 .2-.1v-.1c-.2-.7-.2-.8-.2-.8m-11 1.2c.1 0 .1-.1.1-.1 0-.2-.2-.4-.2-.4h-.6s-.2.1-.2.4c0 0 0 .1.1.1 0 0-.2.1-.2.3 0 0 0 .1.2.3 0 0 .1.2.2.3 0 0 0 .2.3.2.2 0 .3-.2.3-.2 0-.1.2-.3.2-.3.1-.3.1-.4.1-.4 0-.1-.3-.2-.3-.2"/><defs><path id="SVGID_24_" d="M-94-222.9h396.9V174H-94z"/></defs><clipPath id="SVGID_25_"><use xlink:href="#SVGID_24_" overflow="visible"/></clipPath><path class="st16" d="M151.4 35.8l.1-.1v-.1zm-4 0h.1v-.2z"/><defs><path id="SVGID_26_" d="M134.7 17.8h65.2V83h-65.2z"/></defs><clipPath id="SVGID_27_"><use xlink:href="#SVGID_26_" overflow="visible"/></clipPath><path class="st17" d="M146.9 35.4v.2h.1v-.1l-.1-.1c.1 0 .1 0 0 0m1.8.2c-.1 0-.1 0 0 0-.1.1-.1.1-.1.2v.2l.1.1h.1v-.2c0-.2 0-.2-.1-.3m1.5 0c-.1 0-.1 0 0 0-.1.1-.1.1-.1.2v.2s.1.1.1 0c0 0 .1 0 .1-.1v-.2s0-.1-.1-.1c.1 0 0 0 0 0"/><path class="st3" d="M146.1 35.6h.1l-.1-.2z"/><defs><path id="SVGID_28_" d="M134.7 17.8h65.2V83h-65.2z"/></defs><clipPath id="SVGID_29_"><use xlink:href="#SVGID_28_" overflow="visible"/></clipPath><path class="st18" d="M143.8 34.7l-.1.2h.1v-.1c.1 0 .1-.1 0-.1m.5.1h-.1l-.1.1v.2s0 .1.1.1h.1l.1-.1c0-.1 0-.1-.1-.3.1.1.1.1 0 0m.6.2l-.1.2h.1v-.1c.1 0 .1 0 0-.1.1 0 0 0 0 0m9 0h-.1v.2h.1c.1-.1.1-.1 0-.2 0 .1 0 0 0 0"/><path class="st3" d="M154.9 35l.1-.1-.1-.1z"/><defs><path id="SVGID_30_" d="M134.7 17.8h65.2V83h-65.2z"/></defs><clipPath id="SVGID_31_"><use xlink:href="#SVGID_30_" overflow="visible"/></clipPath><path class="st19" d="M155.1 35.1c0-.1 0-.1 0 0 0-.1 0-.1 0 0 0-.1 0-.1 0 0V35l-.1.1h.1l-.2.1v-.5l.3.3.1.1h-.2zm-.8.2l.1-.5h-.2v.1-.1l.4-.1-.1.5h.2v-.1.1l-.4.1zm-.2.1s-.1 0-.1-.1l-.1-.1h-.1v.1l-.3.1-.1-.3h.5v.1c0 .1 0 .1-.1.1 0 0 .1 0 .1.1.3-.1.3-.1.2 0l.1-.1-.1.1zm-.9.2c.1-.1.1-.1 0-.1l-.1-.3h-.1l.4-.1v.1h-.1v.5h.2v-.2.2l-.3-.1zm-.2-.3v.4l-.1.1h-.3v-.4h-.1l.3-.1v.3h.2v-.3c-.1 0-.1-.1-.1-.1h.2l-.1.1c0-.1 0-.1 0 0 0-.1 0 0 0 0m-.6.1l-.1-.1h-.1v.2c.1 0 .1 0 .2-.1-.1.1-.1.1 0 0v.3h.1-.3v-.3h-.1l.4-.1-.1.1zm-.8.5c0-.1 0-.1 0 0v-.1h-.2l.2.1h-.3s.1 0 .1-.1l.1-.4.2.4v.1h-.1zm-.8.1c0-.1.1-.1 0 0l.1-.1v-.3h.3v.3h.2v-.1.2h-.6zm-.4-.1c0 .1-.1.1-.2.1h-.2l-.1-.1v-.2l.1-.1h.1c.1 0 .2 0 .2.1.1 0 .1.1.1.2.1-.1 0 0 0 0m-.8-.3c-.1 0-.1 0 0 0-.1 0-.1 0 0 0l-.1.5-.3-.4v.3h.1-.3v-.2c0-.1 0-.1-.1-.1h.2l.3.3v-.2c0-.1 0-.1-.1-.1l.3-.1zm-.7.4c-.1 0-.1.1-.2.1h-.2l-.1-.1v-.2l.1-.1h.1c.1 0 .2 0 .2.1s.1.1.1.2c0-.1 0-.1 0 0m-.6-.5l-.3.4h.2v-.1.1h-.4l.3-.4h-.2v.1-.1h.4zm-.6.5h-.6s.1 0 .1-.1l.2-.4.1.4c.2 0 .2 0 .2.1 0-.1 0-.1 0 0zm-.5-.1h-.2s0-.1-.1-.1v-.1h-.1v.1h-.3v-.3h.4v.1c0 .1 0 .1-.1.1 0 0 0 .1.1.1.2 0 .3 0 .3.1zm-.8-.1h-.5s.1 0 .1-.1l.2-.3.1.4c0-.1 0-.1.1 0 0-.1 0 0 0 0zm-.6-.1l-.4-.1.1-.3v-.1l.3.1h-.1l-.1.3h.1s.1 0 .1.1v-.2.2zm-.8-.3c.1 0 .1.1 0 0 0 .1.1.1.1.1h-.1v-.2h-.1v.1l-.3-.1.1-.3.2.1h.2v.2c0 .1-.1.1-.1.1 0-.1 0-.1 0 0m-.5-.3c0 .1-.1.1-.1.1h-.2c-.1 0-.1 0-.1-.1l-.1-.1v-.1s0-.1.1-.1l.1-.1h.1c.1 0 .1.1.2.1.1.2.1.3 0 .3m-.5-.3c0 .1-.1.1 0 0l-.1.1h-.1v.1l-.2-.1h.1l.1-.3.2.1h.2c-.2 0-.2 0-.2.1m4.7.6h.1l-.2.1.1-.1zm6.7-1.1s-.1-.1-.2-.1h-.1c-.2.1-2.3 1-5.7 1-3.4 0-5.5-.9-5.7-1h-.1c-.1 0-.1 0-.2.1l-.7.6c.2 0 .4.1.4.1 1.8.8 3.9 1.1 6.3 1.2 2.4 0 4.5-.4 6.3-1.2 0 0 .2-.1.4-.1l-.7-.6zm-8.3-6.8c-.1-.1-.2-.1-.3-.2-.1 0-.2.1-.3.2h.6zm1.3-.1s-.1.1-.2.1h2.2c-.1 0-.2-.1-.2-.1-.1 0-.2-.1-.3-.1h-1.1c-.2 0-.3 0-.4.1m3.3 0c-.1 0-.1.1-.2.2h.5c-.1-.1-.2-.2-.3-.2m-5.1 4.4v-1.1c-.1.2-.2.6 0 1.1"/><path class="st3" d="M149.2 29.9l-2.1-.7h1.7z"/><defs><path id="SVGID_32_" d="M134.7 17.8h65.2V83h-65.2z"/></defs><clipPath id="SVGID_33_"><use xlink:href="#SVGID_32_" overflow="visible"/></clipPath><path class="st20" d="M149.2 27.7h-2.8v.1l.1.1h2.6l.1-.2zm-.1.3h-2.5c0 .1.1.1.1.2h2.3l.1-.2zm-.1.4h-2.2c0 .1.1.1.1.2h2l.1-.2zm-.1.4H147v.2h1.8l.1-.2zm-1.2.8h-.7v.2h1l-.3-.2zm-.3-.2l-.3-.2h-.1v.2h.4zm1.9-1.7v2.1l2.1-.7h-1.7V29h1.9v-.2h-2v-.2h2.1c0-.1.1-.2.1-.2h-2.2v-.2h2.3c0-.1.1-.2.1-.2h-2.5v-.1h2.7c.1-.1.1-.2.2-.2h-3.1zm.5 3.4v1.7c.1 0 .1-.1.2-.1v-1.4l-.2-.2zm-.4-.3v2.5c0-.1.1-.1.1-.1 0-.1.1-.1.1-.2v-2l-.2-.2zm-.4.1v2l.2.2v.1-2.5l-.2.2zm-.4.3v1.5c.1 0 .2.1.2.1V31l-.2.2zm1.5 1.4c.1 0 .2 0 .2-.1v-1l-.2-.2v1.3zm-1.9-.1h.2v-1.3l-.2.2v1.1z"/><path class="st20" d="M148.1 30.2h.1v.7l-.1.4v-1.1zm1.1-.3l-.8.3-.3-.2h-1.3c0 .1-.1.1-.1.2s-.1.1-.1.2V32c0 .1.1.1.2.2v-2.1h.1v2.2c.1 0 .1.1.2.1v-2.3h.2v2.3h.2v-2.3h.2v2.4h.2v-1l-.1.1 1.4-1.7zm1.3 1.7l-.2-.4v-1h.2v1.4zm1.2-1.4c0-.1-.1-.2-.1-.2h-1.3l-.3.2-.6-.2-.2-.1 1.3 1.8v.9h.2v-2.4h.2v2.3h.2v-2.3h.1v2.3c.1 0 .2-.1.2-.1v-2.2h.3l-.1 2.1c.1-.1.2-.1.2-.2v-1.6c0-.1-.1-.2-.1-.3m-1.2-.4h1v-.2h-.7l-.3.2zm.9-.6l-.3.2h.5v-.3h-.2zm1.1-5.4v-.4c-.1-.5-.5-.6-.8-.4 0 0 .3-.6 1-.4.2.1.3.2.4.4.1.2 0 .4 0 .5 0-.1 0-.3-.1-.4 0-.1-.1-.2-.2-.2.1.1.1.2.1.2v.2c0 .2-.1.4-.2.5.1-.3.1-.5 0-.7V23c-.1-.1-.2-.3-.4-.3.1.1.2.2.2.3.2.4.2.7 0 .8m-2.4-2.3s.4.1.5.5c0 .2-.1.3-.1.3.1-.2 0-.4-.1-.6-.1-.2-.3-.2-.3-.2m-.3 4.1c-.1-.2.1-.4.2-.5.3-.1 0 .4-.2.5m.1.4c-.1 0-.1-.2-.1-.2 0-.2.2-.2.3-.3 0 0 0 .2-.2.5m0-1.8c.2.1-.1.5-.1.6 0 0 .2-.2.3-.1.1.1-.2.5-.3.5-.5-.6.1-.8.1-1m-.3 2c-.1 0 0-.1 0-.2 0-.3 0-.6-.1-.9 0-.1-.1-.6-.4-1.1.1.1.5.8.6 1.3 0 .2 0 .6-.1.9m-.3-.2c-.2 0-.2-.1-.3-.3.1.1.2.2.2 0-.1-.1-.6-.2-.4-.4.1-.1.3.3.4.2 0-.3-.9-.4-.9-.7 0-.1.8.4.9.4 0-.2-1.1-.6-1.5-1.2v-.1c.2.3.8.8 1.5 1 .2-.1.3.7.1 1.1m-2.4-1.6c.1-.3.2-.8-.3-.9-.4-.1-.7.2-.9.3.1-.3.5-.6 1-.5-.1-.3-.5-.4-.9-.2-.1.1-.2.1-.2.2.1-.2.3-.4.5-.4.3-.1.7 0 .8.2.5.5.2 1.3 0 1.3m-.9.3c.3-.1.5-.2.4-.5 0-.1-.1-.1-.2-.1s-.2.1-.3.2c0-.2.2-.4.4-.4.1 0 .3.1.3.3.1.3-.3.5-.6.5m6.6 0h.2c.7-.2.7-1.1.6-1.1 0 .1 0 .1-.1.2 0 .1-.1.1-.1.1.2-.3.2-.5.1-.7-.1-.1-.1-.3-.3-.4-.4-.2-1.1-.3-1.5 0-.1-.1-.3-.2-.5-.3 0 .2-.3.5-.5.7l-.2.1c.4-.2.6-.5.6-.9 0-.2-.1-.5-.3-.8-.3-.4-1.3-.4-1.7-.1-.1.1-.2.3-.2.4 0-.1.1-.3.3-.3.2-.1.5 0 .6.2-.3-.3-.9-.1-1 .5V22c0-.2.1-.3.1-.5-.7-.1-1.6.2-1.6 1.3 0 .1.1.3.2.4 0 0-.1 0-.2-.1s-.1-.2-.2-.4c-.4-.2-.7-.2-1-.1-.3 0-.6.3-.7.4-.1.1-.1.2-.2.3-.1.2-.2.4-.1.6 0 .4.2.8.5.9.4.2.9.2 1.1.2.1 0 .2-.1.3-.1.2-.1.3-.4.3-.7v.2c0 .1 0 .2-.1.4v.2c.1.1.3.1.4.1 0 0-.1.1-.3.1h-.1c.1.2.4.3.7.3h-.2c-.1 0-.3 0-.4-.1.1.2.4.3.8.4h-.4c.2.8.6.7.6.7-.1 0-.2.2-.1.4.4-.2.8-.2.9-.2.1 0 .4 0 .9.2v-.2c-.1-.2-.7-.3-1.2-.2h-.1.1c.2-.1.7-.2 1 0 .2.1.4-.2.4-.3.2 0 .3-.1.3-.3h-.2.1c.3-.2.5-.6.4-.7 0 .1-.1.1-.2.1h-.1.1c.1-.1.2-.2.3-.4-.2-.2-.3-.4-.4-.7 0-.1-.1-.2-.3-.2h-.1c.2-.1.3 0 .4.1 0-.3.1-.4.1-.4-.2.6.2 1.1.5 1.3.4.2 1.1.3 1.6-.2h-.3c.5 0 .4-.1.4-.1"/><path class="st20" d="M158.5 32.8c0 .2-.1.7-.2.7.4-4 .2-5 .1-5s-.1.5-.4.4c-.2-.1.5-1 .2-1.5-.1-.1-.1.1-.2.1-.3-.1.2-.9.1-.9-.1-.1-.3-.1-.3-.4 0-.1.1-.2 0-.3-.1-.1-.1.1-.2 0s0-.3-.1-.4c0 0-.1.1-.2 0s0-.2-.1-.2-.3.2-.3.4c0 .1.2.2.1.3 0 .1-.1.2-.2.3-.2.4.1.5.1.7 0 .1-.2.1-.2.1-.1 0-.1-.4-.1-.6 0-.2.3-.4.3-.5 0-.1-.1-.2-.1-.4s.2-.5.4-.4c.1 0 .2.2.3.3l.1.1c.3.3.5.9.6 1.4.6 1.2.8 3.4.3 5.8m-2-5.7c-.1.1-.2.1-.3.2-.2.1-.4 0-.5-.2.2 0 .3.1.5 0h.3c.1 0 .1 0 0 0m-2.2 6.7c-.1 0-.4-.1-.4-.1s-.1-.1-.2-.1-.1.1-.2.2v-.1h.2c.1 0 .2 0 .3.1.1.1.2.1.3.1.1-.3.1-.2 0-.1m-9.1-.6c0 .1 0 .1 0 0 0 .1 0 .1 0 0 0 .1 0 .1 0 0l-.1.1h-.2v.1h.1c0 .1-.1.1-.1.1-.1 0-.2-.1-.2-.2-.1 0-.2-.1-.3-.1 0-.2.6-.1.6-.1.1.1.1.1.2.1m9.4-1.5c-.5 0-.8-.4-.8-.4s.2.2.3.2c.2.1.6 0 .7-.1.1.1.1.3-.2.3m-1.8-.3s-.1 0 0 0c-.1 0-.1 0 0 0-.1.1-.1.1 0 0l-.1.1s-.1-.1 0-.1c0-.2 0-.4.1-.5v.5m-.7.6c0 .1-.4.6-1.4.6-.1 0-.9 0-1.1.5 0 .1-.1.2-.2.3 0-.1-.1-.2-.2-.3-.3-.5-1-.5-1.1-.5-1 0-1.3-.6-1.4-.6-.5-.7 0-1.5 0-1.5.4-.7.4-1.2.3-1.2 0-.8-.5-1.3-.5-1.4-.1-.1-.1-.1-.1-.2s.1-.1.1-.1c.1-.1.3-.2.4-.3 0 0 .1 0 .1.1.1.1.3.2.6.2h.2c.2 0 .4-.2.4-.2.1 0 .2-.1.2-.1.4-.2.8-.2.9-.2.1 0 .5 0 .9.2 0 0 .1.1.2.1 0 0 .3.1.4.2h.2c.3 0 .5-.1.6-.2l.1-.1c.1.1.3.2.4.3 0 0 .1 0 .1.1 0 0 0 .1-.1.2s-.5.6-.5 1.4c0 .1-.1.6.3 1.3.2-.1.6.7.2 1.4m-5.8-1.3v.1h-.2c0-.1.1-.1.1-.2s0-.1.1-.2h.1c-.1-.1-.1-.2 0-.4.2-.2 0-.6 0-.6.1 0 .1.2.1.3v.3c-.1.6-.1.6-.2.7.1-.1.1-.1 0 0m6.1-.8h.2s.1.1.1.2l.1.2c.1.1 0 .2-.1.1-.1 0-.3-.2-.2-.5h-.2s0 .1-.1.1c0-.1.1-.2.1-.2-.1.1 0 .1.1.1m-6.1-.9c-.1 0-.1-.3-.5-.2-.2.1-.4 0-.5 0 .5-.4 1-.1 1 .2m-2.1-2.4c-.3-.1-.6-.1-.7-.4.4 0 .8 0 1 .2.1.1.3.2.4.5-.3-.1-.4-.2-.7-.3m-.9-1.3c-.1 0-.2-.1-.3 0 0 0-.1.1-.1.2s-.1.1-.2.1c-.1-.2.2-.5.3-.5.2-.1.3 0 .5.1h.4c.2 0 .2.2.1.2-.2.1-.3-.1-.5-.1.1-.1 0 0-.2 0m-.3.3c.3.1.3-.2.3-.2.1.2-.1.4-.3.2m-1.5 9.3l.1.1h-.1c-.1 0-.1-.1-.1-.1 0 .1 0 .1.1.2h-.2c-.1 0-.1-.2-.1-.2 0-.1 0-.2-.1-.2.1-.1.4.2.4.2m12.1-7.8c-.1.1-.2.3-.3.3-.3.1-.6-.2-.6-.2s.2.1.5.1c.2 0 .3-.2.4-.2 0-.1.1-.1 0 0m-1.1-1.4c-.2-.1-.5-.1-.8 0-.2.1-.3.3-.3.3s.3-.4.8-.5c.3 0 .4.1.3.2m6.5 3.9c-.1-1.1-.2-2.1-.4-3-.2-.6-.5-1.7-1.2-1.9-.3-.1-.6.2-.6.5s.2.4.1.6c-.1.2-.2.3-.2.5s.1.3.1.4c-.2 0-.3.2-.7.1-.3.1-.6.1-.6.1.3 0 .6-.1.7-.3.1-.2 0-.6-.1-.7-.2 0-.3.2-.9.2-.5 0-.7.1-.8.4v-.2c0-.2.2-.3.4-.3 0-.1.1-.1.1-.2h-.3c-.3 0-.6.2-.7.4v.3c.1.2.3.3.7.3h-.2s-.4 0-.6-.2c-.1.1-.3.2-.5.2s-.4-.1-.5-.2c-.3-.4.1-1 .1-1.2 0-.6-.8-.3-1.1-.2-.4.2-.6.5-.9.8-.1.2-.3.4-.3.5.1 0 .4.2.7.2h.1c.1 0 .4 0 .5-.2 0 0 .1-.1.2-.1s.1 0 .2.1c0 0 .6.5.7.6l.1.1s0 .1-.1.2c0 0-.3.4-.5.8 0 .1 0 .1-.1.2-.1.2-.1.6.2.7 0 0 .3.1.3-.5 0 0 .1.4.3.4.1 0 .2-.1.2-.4v-.8.1c0 .1-.1 1.5 1 2.3 0 0-.5-.2-.8-.8-.2.1-.4.3-.3.8.1.2.2.3.3.4 0 0-.1.1-.2 0v-.1c0-.1-.1-.1-.1-.2-.1-.1-.2-.2-.4-.3-.1-.2 0-.7-.6-.7h-.1c-.1-.5-.1-.8-.1-.8.1-.7.6-1.2.6-1.3v-.1c-.2-.1-.7-.5-.7-.6l-.1-.1h-.1c-.2.2-.5.2-.6.2h-.1c-.3 0-.7-.2-.7-.2-.5-.2-.9-.2-1-.2-.1 0-.5 0-1 .2-.1 0-.4.2-.7.2h-.1c-.1 0-.4 0-.6-.2h-.1s-.1 0-.1.1c-.1 0-.6.5-.7.6v.1c.1.1.5.6.6 1.3v.3c0-.1-.1-.3-.1-.4 0-.1 0-.1-.1-.2l-.3-.3c-.1-.1-.2-.1-.3-.1-.1-.1-.3-.2-.4-.4 0-.3-.2-.6-.2-.6s.3.1.3.5c.2-.3.4-.6.5-1 .2-.3.7-.2.9-.1.1 0 .1 0 .2.1.1 0 .1.1.1.2h.3s0 .1.1.1h.1c.3 0 .7-.2.7-.2-.1-.1-.3-.2-.4-.2-.2 0-.3-.2-.5-.2h-.3c-.4.1-.7-.1-1.1-.1-.4 0-.4.2-.5.4-.1.1-.1.2-.2.2-.1.1-.2.1-.3.2 0-.1-.1-.3-.2-.5-.2-.3-.4-.5-.9-.7-.1 0-.1 0-.2-.1s0-.1 0-.1c.1-.1.3 0 .5-.1.3-.2.2-.5.1-.5-.2 0-.5-.1-.6-.2-.1-.1-.1-.2-.3-.2h-.3c-.1 0-.1.1-.2.1.1-.1.2-.2.4-.2-.2 0-.1-.3-.2-.3s-.1 0-.2.1c0-.1-.1-.3-.2-.4-.1-.1-.2 0-.2.1s.2.1.2.4c0 0-.1 0-.1.1 0-.1-.1-.3-.2-.3-.1-.1-.2 0-.2.1s.2.1.2.4l-.1.1c-.2-.1-.3-.2-.3-.2-.1 0-.2 0-.1.1s.2.2.3.2l-.1.1c-.3-.1-.3-.2-.4-.2-.1 0-.2 0-.1.1.1.2.3.2.4.2 0 .1-.1.1-.1.2-.2 0-.6.1-.5.3.1.1.3-.2.5 0s.4.2.5.3c.1.1.1.2.1.3.1.2.2.4.3.5.1.2.3.4.4.6v.2c-.2.2-.6.5-.8.7-.2.2-2 1.6-2.2 2.2-.1.1-.1.3-.1.5-.1.1-.3 0-.4 0-.1-.1.1-.3.1-.5 0-.1-.1-.1-.2-.1s-.2.3-.1.5c0 0 .1.1 0 .1s-.1 0-.1-.1c0 0-.1.1-.1.2s.2.1.2.2-.1.1-.2 0c-.1.1 0 .2 0 .2.1 0 .2-.1.3-.1 0 .1 0 .1-.1.1.2.2.3-.2.5-.1.1 0 .6.5.5 1v.1c-.1.2-.3.3-.5.4-.3.2.3 1.4.2 2 0 .2.2.2.3.6-.1 0-.3 0-.4.1v.1c0 .2.1.3.3.3.2 0 .3-.1.3-.3.1 0 .2 0 .2.1l.3.1s-.9.8-2.4.3c0 0-.7-.2-.5-.8 0 0 0-.1.1-.2 0 .1.1.2.1.2.1 0 .1.1.2.1.2 0 .3-.2.3-.3 0-.1 0-.2-.1-.2-.1-.1-.3-.1-.5-.1 0 0-.7.2-.4.9 0 0-.4-.1-.6.1 0 0-.1.1-.1.2v.1c0 .1.1.1.2.1s.2 0 .2-.1h.2s.6.7 1.5.6c0 0 0 .5.3.6.1 0 .2-.1.2-.2s-.1-.2-.2-.2v-.3s1-.1 1.7-.7c0 0 .5.1.8.1 0 0 0 .1-.2.1 0 0-.3 0-.3.1 0 0 0 .1.2.1 0 0 0 .1.1.2l.1.1s-.2.1-.1.2c0 0 .1.2.3.1 0 0 .1 0 0 .1 0 0-.1.1.1.3 0 0 .2.1.3-.1 0 0 0-.1.1 0 0 0 .6.3.9-.2 0 0 0-.1.1 0 0 0 .3.4 1.1.4.1.1.2.2.3.2.2 0 .3-.1.3-.3.1 0 .5 0 .9-.3 0 0 .1-.1.3-.2 0 .2.2.4.4.4s.4-.2.4-.4-.2-.4-.4-.4c0 0-.3-.1-.7.2 0 0-.3.2-.4.2 0 0 .1-.4.1-.8h-.2c0 .4-.1.8-.3.8h-.2v-.1c0-.1-.1-.1-.2-.1s-.2.1-.2.2c0 0-.4.1-.6-.1 0 0 .4-.1.4-.3 0 0 .1-.2-.3-.4 0 0-.3-.2-.3 0 0 0 0 .1.1.2 0 0 .1.1-.1.1 0 0-.2 0-.2-.1 0 0 0-.5.2-.8-.1 0-.2 0-.3-.1 0 .1-.1.2-.1.3 0 0 0 .3-.1.3 0 0-.4-.3-.2-.8-.1 0-.2-.1-.3-.1 0 .2 0 .6.4 1.2 0 0-.3.4-.6.2 0 0-.4-.3-.2-.5 0 0 .2-.2.3 0-.1 0-.2.1-.2.2s.1.2.2.2.2-.1.2-.2 0-.3-.1-.4c0 0-.2-.2-.4-.1 0 0 .2-.3.3-.6v-.1c-.1 0-.1-.1-.2-.1 0 .3-.1.7-.4.6 0 0 .2-.4.4-.6-.1-.1-.3-.1-.4-.2 0 .1.1.4-.1.5 0 0-.2.2-.5-.1 0 0 .4-.3.5-.5-.1 0-.2-.1-.3-.1h-.1s-.3.2-.4.3h-.1s-.3-.4-.1-.8c0 0 .1-.4.5-.3 0 0 .1 0 .1.1 0 0-.3 0-.3.2 0 0 0 .2.3.2 0 0 .4 0 .3-.5 0 0-.1-.3-.3-.3 0 0 .1-.2 0-.2 0 0-.1-.1-.3.1 0 0-.1.1-.3 0 0 0-.2-.1-.3.1v.2s0 .1-.1.3c0 0-.1.1-.1.3-.1-.1-.2-.1-.3-.1-.1-.1-.1-.7-.3-1 0-.1.1-.4.1-.7.9-.2 1.3-.9 1.4-1.2.1-.5 0-1-.1-1.2 0 .1.1.2.1.2.4 0 .7 0 1-.1 0 0 .1 0 .1-.1.6-.3.9-.9 1.1-1.2-.1 0-.4-.1-.5-.2.2 0 .4.1.7.1.3 0 .6-.2 1-.1 0 0 0 .2.3.3 0 .2 0 .4.1.6v.1s-.3.2-.2.4c0 .1 0 .1.1.1l-.2.2c0 .1-.2.4-.1.4h.1c-.1.3-.1.8.2 1.1 0 0 .4.7 1.5.7.1 0 1.1 0 1.4.7 0 0 .1.1.2.1s.2-.1.2-.1c.4-.7 1.3-.7 1.4-.7 1.1 0 1.5-.7 1.5-.7.1-.2.2-.4.2-.6.2-.1.2-.6.2-.7.1.1.2.3.5.4 0 .2 0 .6.2.7.1 0 .1-.1.1-.2.2.6 0 1 .2 1s.2-.4.2-.4.1.1.1.3c0 .2 0 .4.1.4.3 0 .1-.8.4-.7-.1.4 0 .6.2.6 0 .2 0 .3-.1.3-.4.1-.8-.2-1.2-.1-.7-.4-1.1-.1-1.1-.1-.2-.2-.3.1-.3.1-.3-.2-.5.1-.6.2-.1 0-.2-.2-.4.2-.1.2-.5.2-.5.3-.2 0-.2-.1-.2-.1v-.1s0-.1-.1-.1-.1-.1-.2-.1-.2.1-.2.2v.1h.1c.1 0 .2.1.2.2 0 .2-.3.4-.3.4-.2.1-.4-.1-.4-.1-.1-.1-.2-.1-.2-.1-.1 0-.2.1-.2.1s-.1-.1-.2-.1c0 0-.1 0-.2.1 0 0-.2.2-.3.1 0 0-.3-.2-.3-.4 0-.1.1-.1.2-.2h.1v-.1c0-.1-.1-.2-.2-.2 0 0-.1 0-.2.1l-.1.1v.1s0 .1-.2.1c0 0-.4-.1-.5-.3-.2-.4-.3-.2-.4-.2-.1 0-.3-.3-.6-.2-.1 0-.1-.2-.3-.1 0 0-.4-.2-.9 0 0-.1-.2-.1-.2-.1-.1 0-.2-.1-.3-.2-.1-.1-.4 0-.6 0-.1 0-.2 0-.2-.1-.2-.1-.5-.3-.6-.5l-.1-.1c-.1-.1-.1-.1-.2-.3-.1-.3 0-.6.1-.8v-.3c-.2.1-.5.1-.8 0 .1.3.1.6.1.8.1.1.2.3.2.3v.4c.1.2.4.3.5.4.1 0 .8.6.9.6.1 0 .2-.1.3 0h.1s.1.1.2.1c-.2.1-.5.3-.7.4 0 0-.3.2-.2.2h.3s-.1 0-.3.1c.4.1.7.2 1.1.3.2-.2.5-.5.8-.6 0 0 .4 0 .6-.3 0-.1.2.2.6 0 0 0 .1.1.2.1 0 0-.2 0-.1.2 0 0-.3 0-.4.2 0 .1-.7 0-1.3.5.1 0 .2.1.3.1.2-.1.4-.2.7-.2 0 0 .4 0 .5.4.2 0 .4.1.7.1.1 0 .4-.2.2-.4 0 0-.1-.1-.2 0 0 0-.1.1-.1 0v-.1s-.1-.1.1 0h.2c.1 0 .2-.1.2-.2s-.1-.2-.2-.2v.1s0 .1-.1.1-.1-.3.1-.3c0 0 .2 0 .3.2 0 0 .3.4.6.5 0 0 0 .2.1.2 0 0 0 .1.2.1 0 0 0 .1.1.2h1c0-.1.1-.2.1-.2.2 0 .2-.1.2-.1.2-.1.1-.2.1-.2.3-.1.6-.5.6-.5.7.8.8.8.8.8.2 0 .2.3.1.3 0 0-.1 0-.1-.1v-.1c-.1 0-.2.1-.2.2s.1.2.2.2h.3v.1c0 .1-.1 0-.1 0-.1-.1-.2 0-.2 0-.1.2.2.3.2.4.2 0 .5-.1.7-.1.2-.4.5-.4.5-.4.3 0 .5.1.7.2.1 0 .2 0 .3-.1-.6-.5-1.2-.5-1.3-.5-.1-.2-.4-.2-.4-.2 0-.2-.1-.2-.1-.2.1 0 .2-.1.2-.1.4.2.5-.1.6 0 .1.3.6.3.6.3.3.1.6.4.8.6.3-.1.7-.2 1-.3V34c-.1-.1-.2-.3-.2-.3s.2-.4.4-.1c0 0 0 .1-.2.1 0 0 .2.3.2.5.1 0 .1 0 .2-.1-.1-.2-.2-.3-.2-.4 0 0 .2 0 .2-.1 0 0 0-.2.1-.3.1.1.2.1.2.1.2 0 .3-.4.3-.5l.2-.1c.1.2.5.4.4 0 .1.2.1.4.3.4.2 0 .1-.3.1-.3 0 .1.1.4.4.3.1 0 .1-.1.1-.2 0-.3-.9-1.9-1-2.6-.1 0-.1-.2-.1-.3-.1 0-.3-.1-.3-.4 0-.3.1-.4.1-.4-.1.2-.1.5 0 .6 0 0 .1.1.2.1 0-.1.1-.1.1-.1-.1.1-.1.3 0 .4 0 0 .1.1.2.1.2-.1.4-.6.4-.7.2 0-.3 1 .1 1.2.1 0 .2-.2.3-.3.1.3-.3.9 0 1 .2.1.3-.5.3-.4.1.8-.4 1.2-.1 1.3.2.1.3-.5.3-.5 0 .8-.4 1.1-.2 1.2.2.1.4-.4.4-.3 0 .8-.4 1-.2 1.2.2.3.6-.5.6-.3s-.4 1-.2 1.1c.2.1.3-.2.3-.3.5-2.2.5-4.3.5-5"/><path class="st1" d="M-29.5 103.2l.1-.1h-.2zm-.4-.7l.4.4c.1-.2-.5-.2-.4-.4m0-.1c0-.2-.1-.2-.2-.3.1 0 .1.3.2.3m-2-11.4c0-.1 0-.1 0 0m37-60.3c0 .1 0 .1 0 0 0 .1 0 .1 0 0M9.6 24v-.1.1zm0 .2V24v.2m-.9.5c-.1 0-.1 0 0 0"/></svg>