<?xml version="1.0" encoding="utf-8"?>
<!-- Generator: Adobe Illustrator 21.0.0, SVG Export Plug-In . SVG Version: 6.00 Build 0)  -->
<svg version="1.1" id="Capa_1" xmlns="http://www.w3.org/2000/svg" xmlns:xlink="http://www.w3.org/1999/xlink" x="0px" y="0px"
	 viewBox="0 0 638 212" style="enable-background:new 0 0 638 212;" xml:space="preserve">
<style type="text/css">
	.st0{fill:#FFFFFF;}
	.st1{fill:#E04327;}
	.st2{fill:#5C9FB9;}
	.st3{fill:#E67B20;}
	.st4{fill:#FED83B;}
	.st5{fill:none;}
</style>
<g>
	<path class="st0" d="M231.7,129.8L263.8,61c0.8-1.6,1.8-2.7,3.8-2.7h0.2c1.9,0,3,1.1,3.8,2.7l32,68.6c0.3,0.6,0.4,1.2,0.4,1.7
		c0,1.4-1.2,2.5-2.7,2.5c-1.3,0-2.3-1-2.8-2.1l-8.8-19.1h-44.3l-8.8,19.2c-0.5,1.3-1.4,2-2.7,2c-1.4,0-2.6-1.1-2.6-2.3
		C231.3,131,231.4,130.4,231.7,129.8 M287.4,107.6l-19.8-43l-19.9,43H287.4z"/>
	<path class="st0" d="M316.6,124c-0.5-0.4-1.1-1.2-1.1-2.1c0-1.5,1.3-2.8,2.8-2.8c0.7,0,1.4,0.3,1.8,0.6c7.5,6.7,15,9.7,25.3,9.7
		c11.3,0,19-6.3,19-14.8v-0.2c0-7.9-4.2-12.4-21.3-15.8c-18-3.6-25.3-9.7-25.3-20.9v-0.2c0-11,10.2-19.5,24.2-19.5
		c10.1,0,17.1,2.5,23.9,7.6c0.5,0.4,1.2,1.2,1.2,2.2c0,1.5-1.3,2.8-2.8,2.8c-0.6,0-1.3-0.2-1.8-0.6c-6.6-5-13.1-7-20.7-7
		c-11.1,0-18.4,6.3-18.4,14v0.2c0,7.9,4.1,12.6,21.9,16.2c17.4,3.5,24.7,9.7,24.7,20.5v0.2c0,12-10.4,20.3-24.9,20.3
		C333.8,134.4,325,130.9,316.6,124"/>
	<path class="st0" d="M388.4,130.6V61.8c0-1.5,1.3-2.8,2.8-2.8h48.5c1.4,0,2.6,1.2,2.6,2.6c0,1.4-1.2,2.5-2.6,2.5H394v29.2h40.9
		c1.4,0,2.6,1.2,2.6,2.5c0,1.4-1.2,2.6-2.6,2.6H394v29.8h46.3c1.4,0,2.6,1.2,2.6,2.5c0,1.4-1.2,2.5-2.6,2.5h-49.1
		C389.7,133.4,388.4,132.1,388.4,130.6"/>
	<path class="st0" d="M457,96.4v-0.2c0-21,15.9-38.4,37.6-38.4c12.5,0,20.3,4.2,27.6,10.4c0.5,0.5,1.1,1.3,1.1,2.2
		c0,1.5-1.4,2.8-2.9,2.8c-0.8,0-1.5-0.3-1.9-0.7c-6.2-5.6-13.4-9.7-23.9-9.7c-18,0-31.7,14.6-31.7,33.2v0.2
		c0,18.8,13.8,33.5,31.8,33.5c10.2,0,17.4-3.6,24.5-10.3c0.4-0.4,1.1-0.8,1.9-0.8c1.4,0,2.7,1.3,2.7,2.6c0,0.8-0.4,1.5-0.9,1.9
		c-7.6,7-15.9,11.6-28.5,11.6C472.9,134.6,457,117.8,457,96.4"/>
	<path class="st0" d="M539.6,61.4c0-1.5,1.3-2.8,2.8-2.8c1.5,0,2.8,1.3,2.8,2.8v32.1h48.1V61.4c0-1.5,1.3-2.8,2.8-2.8
		c1.5,0,2.8,1.3,2.8,2.8V131c0,1.5-1.3,2.8-2.8,2.8c-1.5,0-2.8-1.3-2.8-2.8V98.5h-48.1V131c0,1.5-1.3,2.8-2.8,2.8
		c-1.5,0-2.8-1.3-2.8-2.8V61.4z"/>
	<path class="st0" d="M231.1,159.7l4.9-10.5c0.1-0.2,0.3-0.4,0.6-0.4h0c0.3,0,0.5,0.2,0.6,0.4l4.9,10.5c0.1,0.1,0.1,0.2,0.1,0.3
		c0,0.2-0.2,0.4-0.4,0.4c-0.2,0-0.3-0.1-0.4-0.3l-1.4-2.9h-6.8l-1.3,2.9c-0.1,0.2-0.2,0.3-0.4,0.3c-0.2,0-0.4-0.2-0.4-0.4
		C231,159.9,231,159.8,231.1,159.7 M239.6,156.3l-3-6.6l-3,6.6H239.6z"/>
	<path class="st0" d="M243.7,158.8c-0.1-0.1-0.2-0.2-0.2-0.3c0-0.2,0.2-0.4,0.4-0.4c0.1,0,0.2,0,0.3,0.1c1.1,1,2.3,1.5,3.9,1.5
		c1.7,0,2.9-1,2.9-2.3v0c0-1.2-0.6-1.9-3.2-2.4c-2.8-0.6-3.9-1.5-3.9-3.2v0c0-1.7,1.6-3,3.7-3c1.5,0,2.6,0.4,3.7,1.2
		c0.1,0.1,0.2,0.2,0.2,0.3c0,0.2-0.2,0.4-0.4,0.4c-0.1,0-0.2,0-0.3-0.1c-1-0.8-2-1.1-3.2-1.1c-1.7,0-2.8,1-2.8,2.1v0
		c0,1.2,0.6,1.9,3.3,2.5c2.7,0.5,3.8,1.5,3.8,3.1v0c0,1.8-1.6,3.1-3.8,3.1C246.4,160.4,245,159.8,243.7,158.8"/>
	<path class="st0" d="M253.8,154.6L253.8,154.6c0-3.1,2.3-5.9,5.8-5.9c3.5,0,5.8,2.7,5.8,5.8v0c0,3.1-2.3,5.9-5.8,5.9
		C256.1,160.4,253.8,157.7,253.8,154.6 M264.5,154.6L264.5,154.6c0-2.8-2.1-5.1-4.9-5.1c-2.8,0-4.9,2.3-4.9,5.1v0
		c0,2.8,2.1,5.1,4.9,5.1S264.5,157.4,264.5,154.6"/>
	<path class="st0" d="M267.4,154.6L267.4,154.6c0-3.2,2.4-5.9,5.7-5.9c1.9,0,3.1,0.7,4.2,1.6c0.1,0.1,0.2,0.2,0.2,0.3
		c0,0.2-0.2,0.4-0.4,0.4c-0.1,0-0.2,0-0.3-0.1c-1-0.9-2.1-1.5-3.7-1.5c-2.8,0-4.8,2.2-4.8,5.1v0c0,2.9,2.1,5.1,4.9,5.1
		c1.6,0,2.7-0.5,3.7-1.6c0.1-0.1,0.2-0.1,0.3-0.1c0.2,0,0.4,0.2,0.4,0.4c0,0.1-0.1,0.2-0.1,0.3c-1.2,1.1-2.4,1.8-4.4,1.8
		C269.9,160.4,267.4,157.8,267.4,154.6"/>
	<path class="st0" d="M279.8,149.2c0-0.2,0.2-0.4,0.4-0.4c0.2,0,0.4,0.2,0.4,0.4v10.6c0,0.2-0.2,0.4-0.4,0.4c-0.2,0-0.4-0.2-0.4-0.4
		V149.2z"/>
	<path class="st0" d="M283.1,159.7l4.9-10.5c0.1-0.2,0.3-0.4,0.6-0.4h0c0.3,0,0.5,0.2,0.6,0.4l4.9,10.5c0,0.1,0.1,0.2,0.1,0.3
		c0,0.2-0.2,0.4-0.4,0.4c-0.2,0-0.3-0.1-0.4-0.3L292,157h-6.8l-1.3,2.9c-0.1,0.2-0.2,0.3-0.4,0.3c-0.2,0-0.4-0.2-0.4-0.4
		C283.1,159.9,283.1,159.8,283.1,159.7 M291.6,156.3l-3-6.6l-3,6.6H291.6z"/>
	<path class="st0" d="M295.3,154.6L295.3,154.6c0-3.2,2.4-5.9,5.7-5.9c1.9,0,3.1,0.7,4.2,1.6c0.1,0.1,0.2,0.2,0.2,0.3
		c0,0.2-0.2,0.4-0.4,0.4c-0.1,0-0.2,0-0.3-0.1c-1-0.9-2.1-1.5-3.7-1.5c-2.7,0-4.8,2.2-4.8,5.1v0c0,2.9,2.1,5.1,4.9,5.1
		c1.6,0,2.7-0.5,3.7-1.6c0.1-0.1,0.2-0.1,0.3-0.1c0.2,0,0.4,0.2,0.4,0.4c0,0.1-0.1,0.2-0.1,0.3c-1.2,1.1-2.4,1.8-4.4,1.8
		C297.7,160.4,295.3,157.8,295.3,154.6"/>
	<path class="st0" d="M307.7,149.2c0-0.2,0.2-0.4,0.4-0.4c0.2,0,0.4,0.2,0.4,0.4v10.6c0,0.2-0.2,0.4-0.4,0.4c-0.2,0-0.4-0.2-0.4-0.4
		V149.2z"/>
	<path class="st0" d="M311.2,154.6L311.2,154.6c0-3.1,2.3-5.9,5.8-5.9c3.5,0,5.8,2.7,5.8,5.8v0c0,3.1-2.3,5.9-5.8,5.9
		C313.5,160.4,311.2,157.7,311.2,154.6 M321.9,154.6L321.9,154.6c0-2.8-2.1-5.1-4.9-5.1c-2.8,0-4.9,2.3-4.9,5.1v0
		c0,2.8,2.1,5.1,4.9,5.1C319.9,159.7,321.9,157.4,321.9,154.6 M316.8,147.5c0-0.1,0-0.1,0.1-0.2l1-1.5c0.1-0.2,0.3-0.3,0.5-0.3
		c0.3,0,0.7,0.2,0.7,0.4c0,0.1-0.1,0.2-0.2,0.3l-1.3,1.3c-0.2,0.2-0.3,0.2-0.5,0.2C316.9,147.7,316.8,147.6,316.8,147.5"/>
	<path class="st0" d="M325.3,149.2c0-0.2,0.2-0.4,0.4-0.4h0.1c0.2,0,0.3,0.1,0.4,0.2l7.8,9.7v-9.6c0-0.2,0.2-0.4,0.4-0.4
		c0.2,0,0.4,0.2,0.4,0.4v10.7c0,0.2-0.1,0.4-0.3,0.4h-0.1c-0.2,0-0.3-0.1-0.4-0.3l-7.9-9.9v9.8c0,0.2-0.2,0.4-0.4,0.4
		c-0.2,0-0.4-0.2-0.4-0.4V149.2z"/>
	<path class="st0" d="M342.5,149.3c0-0.2,0.2-0.4,0.4-0.4h3.4c3.6,0,6.1,2.4,6.1,5.6v0c0,3.2-2.5,5.7-6.1,5.7H343
		c-0.2,0-0.4-0.2-0.4-0.4V149.3z M346.4,159.4c3.2,0,5.2-2.2,5.2-4.9v0c0-2.7-2-4.9-5.2-4.9h-3v9.8H346.4z"/>
	<path class="st0" d="M355,159.8v-10.5c0-0.2,0.2-0.4,0.4-0.4h7.4c0.2,0,0.4,0.2,0.4,0.4c0,0.2-0.2,0.4-0.4,0.4h-7v4.5h6.3
		c0.2,0,0.4,0.2,0.4,0.4c0,0.2-0.2,0.4-0.4,0.4h-6.3v4.6h7.1c0.2,0,0.4,0.2,0.4,0.4c0,0.2-0.2,0.4-0.4,0.4h-7.5
		C355.2,160.2,355,160,355,159.8"/>
	<path class="st0" d="M370.2,159.8v-10.5c0-0.2,0.2-0.4,0.4-0.4h7.4c0.2,0,0.4,0.2,0.4,0.4c0,0.2-0.2,0.4-0.4,0.4h-7v4.5h6.3
		c0.2,0,0.4,0.2,0.4,0.4c0,0.2-0.2,0.4-0.4,0.4h-6.3v4.6h7.1c0.2,0,0.4,0.2,0.4,0.4c0,0.2-0.2,0.4-0.4,0.4h-7.5
		C370.4,160.2,370.2,160,370.2,159.8"/>
	<path class="st0" d="M380.9,149.2c0-0.2,0.2-0.4,0.4-0.4h0.1c0.2,0,0.3,0.1,0.4,0.2l4.5,6.5l4.5-6.5c0.1-0.2,0.2-0.2,0.4-0.2h0.1
		c0.2,0,0.4,0.2,0.4,0.4v10.6c0,0.2-0.2,0.4-0.4,0.4c-0.2,0-0.4-0.2-0.4-0.4v-9.5l-4.2,6.1c-0.1,0.1-0.2,0.2-0.4,0.2
		c-0.2,0-0.3-0.1-0.4-0.2l-4.2-6.1v9.5c0,0.2-0.2,0.4-0.4,0.4c-0.2,0-0.4-0.2-0.4-0.4V149.2z"/>
	<path class="st0" d="M394.8,149.3c0-0.2,0.2-0.4,0.4-0.4h3.7c2.5,0,4.3,1.3,4.3,3.5v0c0,2.4-2.1,3.6-4.5,3.6l-3.1,0v3.9
		c0,0.2-0.2,0.4-0.4,0.4c-0.2,0-0.4-0.2-0.4-0.4V149.3z M398.8,155.2c2.1,0,3.6-1.1,3.6-2.8v0c0-1.8-1.4-2.7-3.5-2.7h-3.2v5.6H398.8
		z"/>
	<path class="st0" d="M405.4,149.3c0-0.2,0.2-0.4,0.4-0.4h4.4c1.4,0,2.5,0.4,3.2,1.1c0.5,0.5,0.9,1.3,0.9,2.1v0c0,1.9-1.4,3-3.4,3.2
		l3.3,4.2c0.1,0.1,0.1,0.2,0.1,0.3c0,0.2-0.2,0.4-0.4,0.4c-0.2,0-0.3-0.1-0.4-0.2l-3.5-4.5h-3.8v4.4c0,0.2-0.2,0.4-0.4,0.4
		c-0.2,0-0.4-0.2-0.4-0.4V149.3z M410.1,154.7c1.9,0,3.3-1,3.3-2.6v0c0-1.5-1.2-2.5-3.3-2.5h-3.9v5.1H410.1z"/>
	<path class="st0" d="M416.9,159.8v-10.5c0-0.2,0.2-0.4,0.4-0.4h7.4c0.2,0,0.4,0.2,0.4,0.4c0,0.2-0.2,0.4-0.4,0.4h-7v4.5h6.2
		c0.2,0,0.4,0.2,0.4,0.4c0,0.2-0.2,0.4-0.4,0.4h-6.2v4.6h7.1c0.2,0,0.4,0.2,0.4,0.4c0,0.2-0.2,0.4-0.4,0.4h-7.5
		C417.1,160.2,416.9,160,416.9,159.8"/>
	<path class="st0" d="M427.6,149.2c0-0.2,0.2-0.4,0.4-0.4h0.1c0.2,0,0.3,0.1,0.4,0.2l7.7,9.7v-9.6c0-0.2,0.2-0.4,0.4-0.4
		c0.2,0,0.4,0.2,0.4,0.4v10.7c0,0.2-0.1,0.4-0.3,0.4h-0.1c-0.2,0-0.3-0.1-0.4-0.3l-7.9-9.9v9.8c0,0.2-0.2,0.4-0.4,0.4
		c-0.2,0-0.4-0.2-0.4-0.4V149.2z"/>
	<path class="st0" d="M440.2,149.3c0-0.2,0.2-0.4,0.4-0.4h3.4c3.6,0,6.1,2.4,6.1,5.6v0c0,3.2-2.5,5.7-6.1,5.7h-3.4
		c-0.2,0-0.4-0.2-0.4-0.4V149.3z M444,159.4c3.2,0,5.2-2.2,5.2-4.9v0c0-2.7-2-4.9-5.2-4.9h-3v9.8H444z"/>
	<path class="st0" d="M452.7,159.8v-10.5c0-0.2,0.2-0.4,0.4-0.4h7.4c0.2,0,0.4,0.2,0.4,0.4c0,0.2-0.2,0.4-0.4,0.4h-7v4.5h6.3
		c0.2,0,0.4,0.2,0.4,0.4c0,0.2-0.2,0.4-0.4,0.4h-6.3v4.6h7.1c0.2,0,0.4,0.2,0.4,0.4c0,0.2-0.2,0.4-0.4,0.4h-7.5
		C452.9,160.2,452.7,160,452.7,159.8"/>
	<path class="st0" d="M463.3,149.3c0-0.2,0.2-0.4,0.4-0.4h3.4c3.6,0,6.1,2.4,6.1,5.6v0c0,3.2-2.5,5.7-6.1,5.7h-3.4
		c-0.2,0-0.4-0.2-0.4-0.4V149.3z M467.2,159.4c3.2,0,5.2-2.2,5.2-4.9v0c0-2.7-2-4.9-5.2-4.9h-3v9.8H467.2z"/>
	<path class="st0" d="M475.3,154.6L475.3,154.6c0-3.1,2.3-5.9,5.8-5.9c3.5,0,5.8,2.7,5.8,5.8v0c0,3.1-2.3,5.9-5.8,5.9
		C477.6,160.4,475.3,157.7,475.3,154.6 M486,154.6L486,154.6c0-2.8-2.1-5.1-4.9-5.1c-2.8,0-4.9,2.3-4.9,5.1v0c0,2.8,2.1,5.1,4.9,5.1
		C483.9,159.7,486,157.4,486,154.6"/>
	<path class="st0" d="M489.4,149.3c0-0.2,0.2-0.4,0.4-0.4h4.4c1.4,0,2.5,0.4,3.2,1.1c0.5,0.5,0.9,1.3,0.9,2.1v0c0,1.9-1.4,3-3.4,3.2
		l3.3,4.2c0.1,0.1,0.1,0.2,0.1,0.3c0,0.2-0.2,0.4-0.4,0.4c-0.2,0-0.3-0.1-0.4-0.2l-3.5-4.5h-3.8v4.4c0,0.2-0.2,0.4-0.4,0.4
		c-0.2,0-0.4-0.2-0.4-0.4V149.3z M494.1,154.7c1.9,0,3.3-1,3.3-2.6v0c0-1.5-1.2-2.5-3.3-2.5h-3.9v5.1H494.1z"/>
	<path class="st0" d="M500.9,159.8v-10.5c0-0.2,0.2-0.4,0.4-0.4h7.4c0.2,0,0.4,0.2,0.4,0.4c0,0.2-0.2,0.4-0.4,0.4h-7v4.5h6.3
		c0.2,0,0.4,0.2,0.4,0.4c0,0.2-0.2,0.4-0.4,0.4h-6.3v4.6h7.1c0.2,0,0.4,0.2,0.4,0.4c0,0.2-0.2,0.4-0.4,0.4h-7.5
		C501.1,160.2,500.9,160,500.9,159.8"/>
	<path class="st0" d="M511.1,158.8c-0.1-0.1-0.2-0.2-0.2-0.3c0-0.2,0.2-0.4,0.4-0.4c0.1,0,0.2,0,0.3,0.1c1.1,1,2.3,1.5,3.9,1.5
		c1.7,0,2.9-1,2.9-2.3v0c0-1.2-0.6-1.9-3.2-2.4c-2.8-0.6-3.9-1.5-3.9-3.2v0c0-1.7,1.6-3,3.7-3c1.5,0,2.6,0.4,3.7,1.2
		c0.1,0.1,0.2,0.2,0.2,0.3c0,0.2-0.2,0.4-0.4,0.4c-0.1,0-0.2,0-0.3-0.1c-1-0.8-2-1.1-3.2-1.1c-1.7,0-2.8,1-2.8,2.1v0
		c0,1.2,0.6,1.9,3.3,2.5c2.7,0.5,3.8,1.5,3.8,3.1v0c0,1.8-1.6,3.1-3.8,3.1C513.7,160.4,512.4,159.8,511.1,158.8"/>
	<path class="st0" d="M526.3,149.3c0-0.2,0.2-0.4,0.4-0.4h3.4c3.6,0,6.1,2.4,6.1,5.6v0c0,3.2-2.5,5.7-6.1,5.7h-3.4
		c-0.2,0-0.4-0.2-0.4-0.4V149.3z M530.1,159.4c3.2,0,5.2-2.2,5.2-4.9v0c0-2.7-2-4.9-5.2-4.9h-3v9.8H530.1z"/>
	<path class="st0" d="M538.8,159.8v-10.5c0-0.2,0.2-0.4,0.4-0.4h7.4c0.2,0,0.4,0.2,0.4,0.4c0,0.2-0.2,0.4-0.4,0.4h-7v4.5h6.3
		c0.2,0,0.4,0.2,0.4,0.4c0,0.2-0.2,0.4-0.4,0.4h-6.3v4.6h7.1c0.2,0,0.4,0.2,0.4,0.4c0,0.2-0.2,0.4-0.4,0.4h-7.5
		C539,160.2,538.8,160,538.8,159.8"/>
	<path class="st0" d="M553.5,154.6L553.5,154.6c0-3.2,2.4-5.9,5.7-5.9c1.9,0,3.1,0.7,4.2,1.6c0.1,0.1,0.2,0.2,0.2,0.3
		c0,0.2-0.2,0.4-0.4,0.4c-0.1,0-0.2,0-0.3-0.1c-1-0.9-2.1-1.5-3.7-1.5c-2.8,0-4.8,2.2-4.8,5.1v0c0,2.9,2.1,5.1,4.9,5.1
		c1.6,0,2.7-0.5,3.7-1.6c0.1-0.1,0.2-0.1,0.3-0.1c0.2,0,0.4,0.2,0.4,0.4c0,0.1-0.1,0.2-0.1,0.3c-1.2,1.1-2.4,1.8-4.4,1.8
		C555.9,160.4,553.5,157.8,553.5,154.6"/>
	<path class="st0" d="M565.8,149.2c0-0.2,0.2-0.4,0.4-0.4c0.2,0,0.4,0.2,0.4,0.4v4.9h7.3v-4.9c0-0.2,0.2-0.4,0.4-0.4
		c0.2,0,0.4,0.2,0.4,0.4v10.6c0,0.2-0.2,0.4-0.4,0.4c-0.2,0-0.4-0.2-0.4-0.4v-5h-7.3v5c0,0.2-0.2,0.4-0.4,0.4
		c-0.2,0-0.4-0.2-0.4-0.4V149.2z"/>
	<path class="st0" d="M578,149.2c0-0.2,0.2-0.4,0.4-0.4c0.2,0,0.4,0.2,0.4,0.4v10.6c0,0.2-0.2,0.4-0.4,0.4c-0.2,0-0.4-0.2-0.4-0.4
		V149.2z"/>
	<path class="st0" d="M582.1,149.2c0-0.2,0.2-0.4,0.4-0.4c0.2,0,0.4,0.2,0.4,0.4v10.2h6.4c0.2,0,0.4,0.2,0.4,0.4
		c0,0.2-0.2,0.4-0.4,0.4h-6.8c-0.2,0-0.4-0.2-0.4-0.4V149.2z"/>
	<path class="st0" d="M591.9,159.8v-10.5c0-0.2,0.2-0.4,0.4-0.4h7.4c0.2,0,0.4,0.2,0.4,0.4c0,0.2-0.2,0.4-0.4,0.4h-7v4.5h6.3
		c0.2,0,0.4,0.2,0.4,0.4c0,0.2-0.2,0.4-0.4,0.4h-6.3v4.6h7.1c0.2,0,0.4,0.2,0.4,0.4c0,0.2-0.2,0.4-0.4,0.4h-7.5
		C592.1,160.2,591.9,160,591.9,159.8"/>
	<path class="st1" d="M85.1,106.2c0-10.2-8.5-18.4-19-18.4c-10.5,0-19,8.2-19,18.4c0,10.2,8.5,18.4,19,18.4
		C76.6,124.5,85.1,116.3,85.1,106.2"/>
	<path class="st1" d="M117.2,106.7c0,25.5-11.3,42.7-12,43.8c-4.3,6.4-13.2,8.2-19.8,4c-6.6-4.2-8.5-12.7-4.2-19.1
		c0.8-1.3,16.7-26.7-0.7-59.4c-3.6-6.8-0.9-15.2,6.2-18.7c7-3.5,15.7-0.8,19.3,6C114.4,79.1,117.2,93.9,117.2,106.7"/>
	<path class="st2" d="M131,150.7c-10.5,0-19,8.2-19,18.4c0,10.2,8.5,18.4,19,18.4c10.5,0,19-8.2,19-18.4
		C150,158.9,141.5,150.7,131,150.7"/>
	<path class="st3" d="M177.1,106.2c0,10.2,8.5,18.4,19,18.4c10.5,0,19-8.2,19-18.4c0-10.2-8.5-18.4-19-18.4
		C185.6,87.8,177.1,96,177.1,106.2"/>
	<path class="st4" d="M131.1,61.6c10.5,0,19-8.2,19-18.4c0-10.2-8.5-18.4-19-18.4c-10.5,0-19,8.2-19,18.4
		C112.2,53.4,120.7,61.6,131.1,61.6"/>
	<path class="st2" d="M183.2,143.5c0,0.2,0,0.4-0.1,0.6C183.2,143.9,183.2,143.7,183.2,143.5"/>
	<path class="st2" d="M183,144.9c0,0.2-0.1,0.4-0.1,0.5C183,145.3,183,145.1,183,144.9"/>
	<path class="st2" d="M183.2,142.1c0,0.2,0,0.5,0,0.7C183.2,142.6,183.2,142.4,183.2,142.1"/>
	<path class="st2" d="M183,140.7c0,0.3,0.1,0.6,0.1,0.8C183.1,141.3,183.1,141,183,140.7"/>
	<path class="st2" d="M182.7,139.2c0.1,0.3,0.2,0.7,0.2,1C182.9,139.9,182.8,139.6,182.7,139.2"/>
	<path class="st2" d="M182.7,146.3c0,0.1-0.1,0.2-0.1,0.4C182.7,146.6,182.7,146.4,182.7,146.3"/>
	<path class="st2" d="M182.2,147.9c0,0,0-0.1,0.1-0.1C182.2,147.8,182.2,147.9,182.2,147.9"/>
	<path class="st2" d="M182.7,139c-0.3-1-0.7-2-1.2-3c0.1,0.1,0.1,0.3,0.2,0.4C182.1,137.3,182.4,138.2,182.7,139"/>
	<path class="st2" d="M156.1,149.2c-5.3-10-8.4-19.6-10-28.5c-4.5-0.7-9.4-1.1-14.6-1.1c-13.2,0-28.5,2.8-44.9,10.9
		c-7,3.5-9.8,11.9-6.2,18.7c3.6,6.8,12.3,9.5,19.3,6c31.8-15.9,57-3.1,60.9-1C158.8,152.9,157.2,151.2,156.1,149.2"/>
	<path class="st3" d="M182.6,146.7c-0.1,0.4-0.2,0.7-0.4,1.1C182.4,147.4,182.5,147.1,182.6,146.7"/>
	<path class="st3" d="M161.1,154.5c-0.1,0-0.2-0.1-0.5-0.3c4.2,2.9,9.9,3.4,14.8,1c3.2-1.6,5.5-4.2,6.8-7.2
		c-0.3,0.8-0.8,1.7-1.3,2.5C176.6,156.8,167.7,158.6,161.1,154.5"/>
	<path class="st3" d="M182.7,139c0,0.1,0,0.1,0.1,0.2C182.7,139.2,182.7,139.1,182.7,139"/>
	<path class="st3" d="M183,140.3c0,0.1,0.1,0.3,0.1,0.4C183,140.6,183,140.4,183,140.3"/>
	<path class="st3" d="M183.1,141.5c0,0.2,0,0.4,0,0.6C183.2,141.9,183.2,141.7,183.1,141.5"/>
	<path class="st3" d="M183.2,142.8c0,0.2,0,0.5,0,0.7C183.2,143.3,183.2,143.1,183.2,142.8"/>
	<path class="st3" d="M183.1,144.2c0,0.3-0.1,0.5-0.1,0.8C183.1,144.7,183.1,144.4,183.1,144.2"/>
	<path class="st3" d="M183.2,142.1c0-0.2,0-0.4,0-0.6c0-0.3-0.1-0.6-0.1-0.8c0-0.1,0-0.3-0.1-0.4c-0.1-0.3-0.1-0.7-0.2-1
		c0-0.1,0-0.2-0.1-0.2c-0.3-0.9-0.6-1.7-1-2.6c-0.1-0.1-0.1-0.3-0.2-0.4c-17-32.5-1.3-57.8-0.5-59c0.2-0.2,0.3-0.5,0.4-0.7
		c-1.3,2.3-3.3,4.2-5.9,5.5C165.1,87,155.2,90,146,91.5c-0.7,4.4-1.2,9.1-1.2,14.1c0,4.7,0.4,9.7,1.3,15c1.6,8.9,4.7,18.5,10,28.5
		c1.1,2.1,2.7,3.8,4.5,5c0.2,0.1,0.4,0.2,0.5,0.3c6.6,4.1,15.4,2.3,19.7-4.1c0.5-0.8,1-1.6,1.3-2.5c0,0,0-0.1,0.1-0.1
		c0.1-0.4,0.3-0.7,0.4-1.1c0-0.1,0.1-0.3,0.1-0.4c0.1-0.3,0.1-0.6,0.2-0.9c0-0.2,0.1-0.4,0.1-0.5c0-0.2,0.1-0.5,0.1-0.8
		c0-0.2,0-0.4,0.1-0.6c0-0.2,0-0.5,0-0.7C183.2,142.6,183.2,142.4,183.2,142.1"/>
	<path class="st3" d="M182.9,145.4c-0.1,0.3-0.1,0.6-0.2,0.9C182.8,146,182.9,145.7,182.9,145.4"/>
	<path class="st4" d="M181.6,63.2c-3.6-6.8-12.3-9.5-19.3-6c-33.8,16.8-60.1,1.5-61.4,0.7c-6.6-4.1-8.5,1.4-12.8,7.8
		C83.8,72,78.7,77,85.4,81.1c0.5,0.3,4.6,2.8,11.5,5.5c7.9,3,19.6,6.2,33.7,6.2c4.9,0,10.1-0.4,15.5-1.3c9.2-1.5,19.1-4.5,29.4-9.7
		c2.6-1.3,4.6-3.2,5.9-5.5c0.1-0.2,0.2-0.4,0.3-0.5C183.6,72,183.8,67.3,181.6,63.2"/>
	<path class="st1" d="M100.6,57.6c-0.2-0.1-0.5-0.3-0.7-0.4c-0.2-0.1-0.4-0.2-0.6-0.3c-0.2-0.1-0.4-0.2-0.6-0.3
		c-0.3-0.1-0.5-0.2-0.8-0.3c-0.2-0.1-0.3-0.1-0.5-0.2c-0.3-0.1-0.6-0.2-0.8-0.2c-0.2,0-0.3-0.1-0.5-0.1c-0.3-0.1-0.5-0.1-0.8-0.1
		c-0.2,0-0.4-0.1-0.6-0.1c-0.2,0-0.5,0-0.8-0.1c-0.2,0-0.4,0-0.6,0c-0.2,0-0.5,0-0.7,0c-0.2,0-0.5,0-0.7,0.1c-0.2,0-0.4,0-0.6,0.1
		c-0.3,0-0.5,0.1-0.7,0.1C90.2,56,90,56,89.8,56c-0.2,0.1-0.5,0.1-0.7,0.2c-0.2,0.1-0.5,0.2-0.7,0.2c-0.2,0.1-0.4,0.1-0.6,0.2
		c-0.3,0.1-0.6,0.2-0.9,0.4c-0.1,0.1-0.3,0.1-0.4,0.2c-0.3,0.2-0.6,0.3-0.9,0.5c-0.1,0.1-0.2,0.1-0.3,0.2c-0.3,0.2-0.6,0.4-0.8,0.6
		c-0.1,0.1-0.2,0.2-0.3,0.2c-0.2,0.2-0.4,0.4-0.6,0.5c-0.1,0.1-0.3,0.3-0.4,0.4c-0.2,0.1-0.3,0.3-0.4,0.4c-0.2,0.2-0.4,0.4-0.5,0.6
		c-0.1,0.1-0.2,0.3-0.3,0.4c-0.2,0.2-0.4,0.5-0.5,0.7c-0.1,0.2-0.2,0.3-0.3,0.5c-0.1,0.2-0.3,0.5-0.4,0.7c-0.1,0.2-0.2,0.4-0.3,0.6
		c-0.1,0.2-0.2,0.4-0.3,0.6c-0.1,0.3-0.2,0.5-0.3,0.8c-0.1,0.2-0.1,0.3-0.2,0.5c-0.1,0.3-0.2,0.6-0.2,0.8c0,0.2-0.1,0.3-0.1,0.5
		c-0.1,0.3-0.1,0.5-0.1,0.8c0,0.2-0.1,0.3-0.1,0.5c0,0.3,0,0.5-0.1,0.7c0,0.2,0,0.4,0,0.6c0,0.2,0,0.4,0,0.7c0,0.2,0,0.5,0,0.7
		c0,0.2,0,0.4,0.1,0.6c0,0.2,0.1,0.5,0.1,0.7c0.1,0.2,0.1,0.4,0.1,0.6c0.1,0.2,0.1,0.5,0.2,0.7c0.1,0.2,0.1,0.5,0.2,0.7
		c0.1,0.2,0.1,0.4,0.2,0.6c0.1,0.3,0.2,0.5,0.4,0.8c1.1,2.2,2.8,4.2,5.1,5.6c0.5,0.3,4.5,12.6,11.6,15.2c4.9,1.8,12.7,4.2,18.9-4.7
		c-1.6-8.9-4.7-18.5-10-28.5C104.7,60.8,102.8,58.9,100.6,57.6"/>
</g>
<rect x="47.1" y="24.9" class="st5" width="553.1" height="162.6"/>
</svg>
