<?xml version="1.0" encoding="utf-8"?>
<!-- Generator: Adobe Illustrator 21.0.0, SVG Export Plug-In . SVG Version: 6.00 Build 0)  -->
<svg version="1.1"
	 id="svg2" inkscape:version="0.48.1 " sodipodi:docname="AJAX.svg" xmlns:cc="http://creativecommons.org/ns#" xmlns:dc="http://purl.org/dc/elements/1.1/" xmlns:inkscape="http://www.inkscape.org/namespaces/inkscape" xmlns:rdf="http://www.w3.org/1999/02/22-rdf-syntax-ns#" xmlns:sodipodi="http://sodipodi.sourceforge.net/DTD/sodipodi-0.dtd" xmlns:svg="http://www.w3.org/2000/svg"
	 xmlns="http://www.w3.org/2000/svg" xmlns:xlink="http://www.w3.org/1999/xlink" x="0px" y="0px" viewBox="0 0 774.2 189.2"
	 style="enable-background:new 0 0 774.2 189.2;" xml:space="preserve">
<style type="text/css">
	.st0{fill:#FFFFFF;}
	.st1{fill:#F57917;}
</style>
<g id="_x23_005f9fff" transform="translate(-40.387485,-24.31156)">
	<path id="path6" inkscape:connector-curvature="0" class="st0" d="M101,27.2c20.2-4.8,42.1-3.8,61.4,4.3
		c18.5,7.8,33.1,23.6,40.3,42.2c6.8,16.7,7.6,35,6.9,52.8c-0.2,4.2-4.4,7.1-8.4,6.8c-32.1,0-64.2,0-96.3,0
		c-5.4,0.1-10.8-0.4-16.1,0.7c-1.5,11,2.9,22.5,11.2,29.8c7.7,7.1,18.4,10.1,28.7,10.4c9.2,0.2,18.7-0.6,27.1-4.5
		c5.6-2.5,10.4-6.3,15.4-9.8c1.9-1.4,4.9-2.4,6.6-0.2c7.4,7.2,15.5,13.8,22.6,21.3c2.3,2.8-0.9,5.9-3.1,7.6
		c-21.7,16.1-48.7,27-76.1,24.5c-20.3-1.1-41.3-7.3-56.1-21.9c-14.6-13.9-21.3-34-23.6-53.6c-2.7-25.1-0.7-51.9,11.8-74.3
		C63.2,45.4,81,32,101,27.2 M96,76.4c-5.2,7.3-7.4,16.3-7.8,25.2c24.6,0,49.2,0,73.8,0c-0.7-8.9-2.6-18.2-8.1-25.4
		C140.5,58.1,109.2,58.2,96,76.4z"/>
	<path id="path8" inkscape:connector-curvature="0" class="st0" d="M591.7,52.6c-0.1-2.3,0.2-5.7,3.2-5.9c6.7-0.3,13.4-0.1,20.1-0.1
		c1.8-0.1,3.8,1.5,3.7,3.4c0.3,6.3,0,12.5,0.1,18.8c5.8,0.1,11.6-0.2,17.4,0.1c2-0.2,3.7,1.8,3.6,3.7c0.2,5.5,0.1,10.9,0,16.4
		c0.3,1.9-0.9,3.8-2.7,4.6c-5.3,0.7-10.7-0.3-15.9,0.6c-2,0.5-2.4,2.9-2.3,4.6c0,13.4,0,26.8,0,40.1c0.1,4.6,0.4,10,4.2,13.1
		c3.9,3.4,9.4,1.4,14,2.2c1.2,0.7,2.7,1.8,2.7,3.3c0.2,5.5,0.2,11,0,16.4c0.1,1.8-1.5,4-3.5,3.8c-10.7,0-22.5,1.5-31.9-4.7
		c-8.9-5.6-12.6-16.6-12.6-26.7C591.6,115.2,591.8,83.9,591.7,52.6L591.7,52.6z"/>
	<path id="path10" inkscape:connector-curvature="0" class="st0" d="M767.9,46.8c6.9-0.7,13.9-0.2,20.8-0.2c2.5-0.2,4.1,2.4,3.7,4.7
		c0,29.2,0,58.4,0,87.6c0.2,4.8,0.4,10.7,4.9,13.6c4.8,3.4,11.4-0.3,16.1,2.9c1.8,3.8,0.6,8.3,1,12.3c-0.3,3.3,1.1,7.6-2.1,9.9
		c-11.4,0.3-24.1,2-34.2-4.5c-8.9-5.6-12.7-16.6-12.6-26.7c0-31.3,0-62.5,0-93.8C765.6,50.5,765.3,47.5,767.9,46.8L767.9,46.8z"/>
	<path id="path12" inkscape:connector-curvature="0" class="st0" d="M375.2,78c12.1-12.3,30.8-16,47.3-13c12.6,2,24.6,9.1,31.5,20
		c8.3,12.4,10,28,8.8,42.5c-0.6,2.3-3.2,3.2-5.3,2.9c-21.3,0-42.6,0-63.8,0c-1.6,0.1-3.6-0.3-4.4,1.5c-0.3,7.5,3.3,15.2,9.8,19.2
		c7.6,4.9,17.2,4.8,25.8,3.3c6.6-1.2,11.5-5.9,17.2-9.1c5.3,5,11.1,9.4,15.8,15c-0.1,2.5-2.3,3.8-4,5.1
		c-12.4,8.6-27.3,14.7-42.6,13.8c-14.1-0.3-29.1-4.7-38.6-15.7c-10-11.5-12.8-27.3-12.7-42.1C359.8,105.9,364,89.4,375.2,78
		 M394.6,94.9c-3.9,4.5-5,10.6-5.6,16.3c15,0,30,0,45,0c-0.2-8.6-4-17.9-12.3-21.6C412.8,85.8,400.9,87.1,394.6,94.9z"/>
	<path id="path14" inkscape:connector-curvature="0" class="st0" d="M505.5,74.7c9.6-7.7,22.2-12.3,34.5-10.2
		c11.1,1.1,21.5,7.3,27.4,16.8c6.2,9.6,6.2,21.5,6.1,32.6c0,19.6,0,39.2,0,58.8c0.3,2.2-1,5.3-3.6,5.1c-7.5,0.1-15.1,0.1-22.6,0
		c-2.1,0.2-3.7-1.8-3.5-3.8c-0.1-20.5,0.1-40.9-0.1-61.4c0-7.7-2.2-16.7-9.4-20.8c-6.4-3.3-14.7-3.1-21,0.5
		c-5.8,3.3-8.8,10.1-8.6,16.5c-0.1,21.3,0,42.6,0,63.8c0.2,2.2-0.9,5.3-3.5,5.1c-7.5,0.2-15.1,0.1-22.6,0c-2.8,0.3-3.9-2.9-3.6-5.2
		c0-34.2,0-68.4,0-102.6c-0.3-2.2,1.3-4.5,3.6-4.7c5-0.3,10,0,15.1-0.1c3.4,0,7.2-0.5,10.1,1.8C504,69.7,503.4,72.7,505.5,74.7
		L505.5,74.7z"/>
	<path id="path16" inkscape:connector-curvature="0" class="st0" d="M692.2,64.9c13.4-2.2,27.9-0.2,39.5,7.2
		c10.7,6.8,17.8,18.3,20.5,30.6c1.9,7.8,1.7,16,1.5,24c0,2.5-2.6,4.1-4.9,3.8c-18.4,0.1-36.7,0-55.1,0c-4.7,0.1-9.4-0.5-14,0.8
		c0.2,6.4,2,13,6.8,17.4c7.6,7.3,19.2,7.7,29,5.8c6.4-1.2,11.3-5.9,16.9-8.9c1.9,0.5,3.2,2.3,4.7,3.5c4,4.1,8.8,7.4,12.2,12.1
		c-13.6,12.2-32.3,19.6-50.7,17.8c-12.8-0.8-26.1-5.3-34.8-15.2c-10-11.1-13-26.7-13-41.2c-0.3-15,3.1-30.8,13.1-42.4
		C671,71.9,681.4,66.6,692.2,64.9 M683.9,96.9c-2.8,4.3-3.8,9.4-4.2,14.3c15,0,30.1,0,45.2,0c-0.8-5.2-1.6-10.7-4.8-15
		C712,84.4,691.6,84.6,683.9,96.9z"/>
</g>
<g id="_x23_f57917ff" transform="translate(-40.387485,-24.31156)">
	<path id="path19" inkscape:connector-curvature="0" class="st1" d="M246.7,35.9c3.5-1.4,7.5-0.3,10.2,2.2
		c16.6,14.1,27.8,33.9,32.6,55c7,31,2.1,65.4-16.5,91.6c-5.2,7.5-11.4,14.4-18.7,20c-3.2,2.6-8.3,2.7-11.3-0.2
		c-5.5-4.9-11-9.8-16.4-14.9c-2.8-2.2-2.7-6.6,0.2-8.6c16.7-15.1,26.9-37.1,27.3-59.6c0.3-22-7.9-44.8-24.7-59.5
		c-1.9-1.8-4.8-4-3.3-6.9c2.1-3.9,6.1-6.3,9.2-9.4C239.2,42.4,242.4,38.4,246.7,35.9L246.7,35.9z"/>
</g>
</svg>
