<?xml version="1.0" encoding="utf-8"?>
<!-- Generator: Adobe Illustrator 21.0.0, SVG Export Plug-In . SVG Version: 6.00 Build 0)  -->
<svg version="1.1"
	 id="svg2" inkscape:export-filename="/Users/pacha/Downloads/type_white.png" inkscape:export-xdpi="190.78" inkscape:export-ydpi="190.78" inkscape:version="0.91 r13725" sodipodi:docname="type_white.svg" xmlns:cc="http://creativecommons.org/ns#" xmlns:dc="http://purl.org/dc/elements/1.1/" xmlns:inkscape="http://www.inkscape.org/namespaces/inkscape" xmlns:rdf="http://www.w3.org/1999/02/22-rdf-syntax-ns#" xmlns:sodipodi="http://sodipodi.sourceforge.net/DTD/sodipodi-0.dtd" xmlns:svg="http://www.w3.org/2000/svg"
	 xmlns="http://www.w3.org/2000/svg" xmlns:xlink="http://www.w3.org/1999/xlink" x="0px" y="0px" viewBox="0 0 392 89"
	 style="enable-background:new 0 0 392 89;" xml:space="preserve">
<style type="text/css">
	.st0{fill:#FFFFFF;}
	.st1{fill:#FFCC66;}
</style>
<sodipodi:namedview  bordercolor="#666666" borderopacity="1" gridtolerance="10" guidetolerance="10" id="namedview43" inkscape:current-layer="svg2" inkscape:cx="117" inkscape:cy="18" inkscape:pageopacity="0" inkscape:pageshadow="2" inkscape:window-height="672" inkscape:window-maximized="0" inkscape:window-width="996" inkscape:window-x="0" inkscape:window-y="1" inkscape:zoom="1.3247863" objecttolerance="10" pagecolor="#ffffff" showgrid="false">
	</sodipodi:namedview>
<title  id="title4">Logotype</title>
<desc  id="desc6">Created with Sketch.</desc>
<g id="Desktop-HD-Home" transform="translate(-603.000000, -100.000000)">
	<g id="l" transform="translate(173.000000, 100.000000)">
		<g id="Logotype" transform="translate(430.000000, 0.000000)">
			<g id="Clip-2">
			</g>
			<path id="Fill-1" class="st0" d="M112.3,61.3c9.5,0,16.1-7.3,16.1-16.6c0-9-7.3-15.7-16.6-15.7H105v32.4H112.3z M99.7,23.9h14
				c10.4,0,20.4,8.9,20.4,21.1c0,12.1-9.7,21.4-21.8,21.4H99.7V23.9z"/>
			<path id="Fill-4" class="st0" d="M265.3,37.2h5.4l-10.7,29.1h-4.1l-7.8-22.7h-0.1L240,66.3h-4.1l-10.7-29.1h5.4l7.3,21.1h0.1
				l7.3-21.1h5.4l7.3,21.1h0.1L265.3,37.2z"/>
			<path id="Fill-6" class="st0" d="M294.9,49.4c0-4.4-1.8-8.2-6.8-8.2c-4.7,0-7.5,3.2-7.5,8.7v16.4h-5V23.9h5v16.8h0.1
				c1.5-2.6,4.8-4.1,8-4.1c5.6,0,11.2,3.1,11.2,10.9v18.8h-5V49.4z"/>
			<g id="Clip-9">
			</g>
			<path id="Fill-8" class="st0" d="M329.6,49.6c-0.5-4.8-4.4-8.3-9.6-8.3c-6.2,0-9.1,4.4-9.6,8.3H329.6z M334,60.7
				C330.1,65,326,67,320.9,67c-10.3,0-15.9-7.5-15.9-15.2c0-8.3,5.9-15.2,15-15.2c9,0,15.3,6.9,15.3,17.1h-24.9
				c0.8,5,4.8,8.6,10.5,8.6c3.6,0,6.8-1.7,9.3-4.7L334,60.7z"/>
			<g id="Clip-12">
			</g>
			<path id="Fill-11" class="st0" d="M364.8,49.6c-0.5-4.8-4.4-8.3-9.6-8.3c-6.1,0-9.1,4.4-9.6,8.3H364.8z M369.3,60.7
				c-3.9,4.4-8.1,6.3-13.1,6.3c-10.3,0-15.9-7.5-15.9-15.2c0-8.3,5.9-15.2,15-15.2c9,0,15.3,6.9,15.3,17.1h-24.9
				c0.8,5,4.8,8.6,10.5,8.6c3.6,0,6.8-1.7,9.3-4.7L369.3,60.7z"/>
			<path id="Fill-14" class="st0" d="M142.5,51.4c0,5.6,3.3,11,9.4,11c6.3,0,9.6-5.1,9.6-10.9c0-5.8-3.6-10.4-9.7-10.4
				C146.2,41.1,142.5,46.1,142.5,51.4L142.5,51.4z M166.2,66.3h-4.9v-4.2h-0.1c-2.5,3.2-5.9,4.8-9.9,4.8c-8.5,0-13.8-7.2-13.8-15.1
				c0-8.2,5.2-15.3,13.9-15.3c3.9,0,7.5,1.8,9.9,4.9h0.1v-4.2h4.9V66.3z"/>
			<path id="Fill-16" class="st0" d="M196,51.4c0,5.6,3.3,11,9.4,11c6.3,0,9.6-5.1,9.6-10.9c0-5.8-3.6-10.4-9.7-10.4
				C199.7,41.1,196,46.1,196,51.4L196,51.4z M219.7,66.3h-4.9v-4.2h-0.1c-2.5,3.2-5.9,4.8-9.9,4.8c-8.5,0-13.8-7.2-13.8-15.1
				c0-8.2,5.2-15.3,13.9-15.3c3.9,0,7.5,1.8,9.9,4.9h0.1v-4.2h4.9V66.3z"/>
			<path id="Fill-18" class="st0" d="M181.8,66.3h-4.9V41.7h-5.1v-4.5h5.1V23.9h4.9v13.3h5.1v4.5h-5.1V66.3z"/>
			<g id="Clip-21">
			</g>
			<path id="Fill-20" class="st0" d="M380.2,66.3h-4.9V23.9h4.9V66.3z"/>
		</g>
	</g>
</g>
<g id="Welcome_1_">
	<g id="Desktop-HD-Home_1_" transform="translate(-503.000000, -297.000000)">
		<g id="l_1_" transform="translate(173.000000, 100.000000)">
			
				<g id="LOGO" transform="translate(544.500000, 411.500000) rotate(-336.000000) translate(-544.500000, -411.500000) translate(330.000000, 197.000000)">
				<path id="Fill-1_1_" class="st1" d="M-40.9,125.7c0-8.3,3-15.9,8-21.8l-2.7-2.7c-5.6,6.6-9.1,15.1-9.1,24.4
					c0,9.3,3.4,17.9,9.1,24.4l2.7-2.7C-37.9,141.6-40.9,134-40.9,125.7"/>
				<path id="Fill-3" class="st1" d="M-7.2,92c8.3,0,15.9,3,21.8,8l2.7-2.7c-6.6-5.6-15.1-9.1-24.4-9.1c-9.3,0-17.9,3.4-24.4,9.1
					l2.7,2.7C-23.1,95-15.5,92-7.2,92"/>
				<path id="Fill-6_1_" class="st1" d="M26.6,125.7c0,8.3-3,15.9-8,21.8l2.7,2.7c5.6-6.6,9.1-15.1,9.1-24.4
					c0-9.3-3.4-17.9-9.1-24.4l-2.7,2.7C23.6,109.8,26.6,117.4,26.6,125.7"/>
				<path id="Fill-8_1_" class="st1" d="M-7.2,159.4c-8.3,0-15.9-3-21.8-8l-2.7,2.7c6.6,5.6,15.1,9.1,24.4,9.1
					c9.3,0,17.9-3.4,24.4-9.1l-2.7-2.7C8.7,156.4,1.1,159.4-7.2,159.4"/>
				<path id="Fill-10" class="st1" d="M9.3,102.9l-1.9,3.3c6,4.4,9.8,11.5,9.8,19.5c0,8-3.9,15.1-9.8,19.5l1.9,3.3
					c7.1-5.1,11.7-13.4,11.7-22.8C20.9,116.3,16.3,108,9.3,102.9"/>
				<path id="Fill-12" class="st1" d="M-31.3,128.5h-3.8c1.4,14.2,13.4,25.3,28,25.3c4.1,0,8-0.9,11.5-2.5l-1.9-3.3
					c-3,1.3-6.2,2-9.7,2C-19.7,150.1-29.9,140.7-31.3,128.5z"/>
				<path id="Fill-14_1_" class="st1" d="M-7.2,101.4c3.4,0,6.7,0.7,9.7,2l1.9-3.3C0.9,98.5-3,97.6-7.2,97.6
					c-14.6,0-26.5,11.1-28,25.3h3.8C-29.9,110.8-19.7,101.4-7.2,101.4"/>
				<path id="Fill-16_1_" class="st1" d="M-22,127.4c-0.8-7.3,3.7-13.9,10.4-16l-0.4-3.8c-8.8,2.4-14.8,10.9-13.7,20.2
					c1.1,9.3,8.8,16.3,17.9,16.6l-0.4-3.8C-15.3,140.1-21.2,134.7-22,127.4"/>
				<path id="Fill-18_1_" class="st1" d="M-6,110.8c7,0.5,12.9,6,13.8,13.2c0.8,7.3-3.7,13.9-10.4,16l0.4,3.8
					c8.8-2.4,14.8-10.9,13.7-20.2c-1.1-9.3-8.8-16.3-17.9-16.6L-6,110.8z"/>
			</g>
		</g>
	</g>
</g>
</svg>
