<?xml version="1.0" encoding="utf-8"?>
<!-- Generator: Adobe Illustrator 21.0.0, SVG Export Plug-In . SVG Version: 6.00 Build 0)  -->
<svg version="1.1" xmlns="http://www.w3.org/2000/svg" xmlns:xlink="http://www.w3.org/1999/xlink" x="0px" y="0px"
	 viewBox="0 0 150.2 136.1" style="enable-background:new 0 0 150.2 136.1;" xml:space="preserve">
<style type="text/css">
	.st0{fill:#EB3C46;}
	.st1{fill:#0F69B4;}
	.st2{fill:#FFFFFF;}
	.st3{display:none;}
	.st4{display:inline;}
</style>
<g id="Todos_por_Chile">
</g>
<g id="Gobierno_de_Chile">
	<rect x="61.3" y="0" class="st0" width="88.9" height="136.1"/>
	<rect x="-0.1" y="0" class="st1" width="61.3" height="136.1"/>
	<g>
		<path class="st2" d="M36.2,26.5v2.1C36.6,27.7,36.4,27,36.2,26.5"/>
		<path class="st2" d="M40.7,14.1c-0.1,0.2-0.4,0.2-0.4,0.4C40,14.3,40.5,13.8,40.7,14.1 M42.1,14c0.2-0.1,0.4-0.5,0.7-0.3
			c0.1,0.1,0.3,0.2,0.4,0.3c0.2,0.1,0.3,0.2,0.4,0.4c0.1,0.2-0.2,0.6-0.4,0.2c-0.2-0.3-0.4-0.8-0.8-0.6c-0.3,0.2-0.6,0.4-0.6,0.2
			C41.7,14,42,14,42.1,14 M42.2,14.3c0.1-0.2,0.2,0.5,0.7,0.3C42.5,15.1,42,14.6,42.2,14.3 M40.4,15c0.1,0,0-0.3,0.2-0.3
			c0.2,0,0.6,0.2,0.7,0.4c0.1,0.3-0.2,0.9,0.7,1c0,0,0,0.1,0,0.3h0c0,0.2-0.1,0.3-0.1,0.5c0.1,0,0.1,0,0.2,0c1.1,0.1,1.8,0,2.1-0.4
			c0,0,0.2-0.2,0.3-0.4c0.3-0.6,0.3-1.1,0.2-1.6h0c0,0,0-0.1,0-0.1c0-0.1,0-0.1-0.1-0.2c-0.3-0.5-0.9-1-1.8-1.3c-0.1,0-0.1,0-0.2,0
			c0,0,0,0,0,0c0,0,0,0,0,0l0,0h0c0,0,0.2,0,0.2,0c0.6,0.1,1.7,0.7,1.9,1.3c0.2-0.1,0.4-0.5,0.4-0.8h0c0-0.1,0-0.4,0.1-0.8
			c0-0.1,0-0.2-0.1-0.3c-0.1,0-0.2,0-0.2,0.1c-0.2,0.3-0.5,0.1-0.4-0.2c0-0.1,0-0.2-0.1-0.3c-0.1,0-0.2,0-0.3,0.1
			c-0.1,0.3-0.5,0.1-0.4-0.2c0-0.1,0-0.2-0.1-0.3c-0.1,0-0.2,0-0.3,0.1c-0.1,0.3-0.5,0.1-0.4-0.2c0-0.1,0-0.2-0.1-0.3
			c-0.1,0-0.2,0-0.2,0.1c-0.1,0.2-0.2,0.4-0.3,0.5c0.7,0.1,1.4,0.5,1.9,1c0,0,0.2,0.2,0.2,0.3c0,0,0,0,0,0c0,0,0,0,0,0
			c0,0,0,0.1,0,0.1c0,0,0,0,0,0c-0.1-0.1-0.1-0.2-0.2-0.2c-0.8-0.6-1.4-0.9-2-1c-0.4,0-0.3,0.5-0.2,0.7c-0.6-0.1-1.1,0.3-1.1,0.8
			c0,0.2,0,0.3,0.1,0.5c0,0,0,0,0,0c0,0-0.1-0.1-0.2-0.2c0-0.1-0.1-0.2-0.1-0.3c-0.5,0-1,0.3-0.9,0.8C39.9,14.7,40.2,15,40.4,15"/>
		<path class="st2" d="M54.3,36.6c-0.4-0.4-1.3-0.2-1.3-0.2c0.5-1.5-0.9-1.9-0.9-1.9c-0.5-0.1-0.8,0-1,0.1c0,0,0,0,0,0c0,0,0,0,0,0
			c0,0-0.1,0-0.1,0.1c-0.1,0.1-0.2,0.3-0.2,0.5c0,0.4,0.3,0.7,0.7,0.7c0.2,0,0.3,0,0.4-0.1c0.1-0.1,0.2-0.3,0.3-0.4
			c0.2,0.1,0.3,0.3,0.3,0.3c0.4,1.3-1,1.7-1,1.7c-3.2,0.9-5.1-0.7-5.1-0.7l0.6-0.3c0.2-0.1,0.4-0.1,0.5-0.1c0,0,0,0.1,0,0.1
			c0,0.3,0.3,0.6,0.6,0.6c0.3,0,0.6-0.3,0.6-0.6c0-0.1,0-0.2-0.1-0.3l0,0c0,0,0-0.1,0-0.1c-0.4-0.6-1.6-0.2-1.6-0.2
			c0.4-1,0-1.8,0-1.8c-0.2-0.4-0.2-0.5-0.2-0.5c0-0.4-0.1-0.4-0.1-0.4c-0.2-0.3-0.5-0.1-0.5-0.1c-0.5,0.1-0.6-0.1-0.6-0.1
			c-0.4-0.3-0.6-0.1-0.6-0.1c-0.2,0.1,0.1,0.4,0.1,0.4c-0.5,0-0.6,0.6-0.6,0.6c-0.2,1,0.6,1,0.6,1c0.6,0,0.6-0.4,0.6-0.4
			c0.1-0.4-0.6-0.5-0.6-0.5c0.1-0.3,0.3-0.3,0.3-0.3c0.7-0.2,1,0.6,1,0.6c0.5,0.8-0.1,1.6-0.1,1.6c-0.1,0.1-0.2,0-0.2,0
			c-0.4-0.2-0.9-0.6-0.9-0.6c0,0,0,0,0,0h-0.2c-0.2,0-0.5,0.1-0.7,0.2c0.3,0.3,1.1,1,1.1,1c-0.6,0.5-1,0.2-1,0.2
			c-0.3-0.3-0.2-0.9-0.2-1.1c0,0,0,0-0.1,0c-0.3,0.1-0.6,0.2-0.9,0.4c0.3,0.5,0.8,1.3,0.8,1.3c-0.7,0.3-0.9-0.7-0.9-1.2
			c-0.1,0.1-0.3,0.1-0.4,0.2c0,0.1,0,0.2,0,0.2c0,0.5,0.5,1.2,0.5,1.2c-0.5-0.1-0.8,0.2-0.8,0.2c-0.3,0.3-0.3,0.7-0.3,0.8
			c0,0.2,0.2,0.3,0.4,0.3c0.2,0,0.4-0.2,0.4-0.4c0-0.2-0.2-0.4-0.3-0.4c0.2-0.4,0.5-0.1,0.5-0.1c0.6,0.5-0.3,1.1-0.3,1.1
			c-0.6,0.4-1.2-0.4-1.2-0.4c0.7-1.2,0.8-2,0.8-2.5c-0.2,0.1-0.5,0.2-0.7,0.2c0.3,1.1-0.4,1.7-0.4,1.7c-0.2-0.1-0.2-0.7-0.2-0.7
			c-0.1-0.2-0.1-0.5-0.2-0.7c-0.2,0.1-0.4,0.1-0.6,0.2c0.2,0.7,0.3,1.6,0.3,1.6c-0.1,0.1-0.5,0.2-0.5,0.2c-0.5,0-0.2-0.2-0.2-0.2
			c0.3-0.2,0.2-0.4,0.2-0.4c-0.2-0.4-0.7,0-0.7,0c-0.8,0.4-0.5,0.9-0.5,0.9c0.1,0.3,0.9,0.5,0.9,0.5c-0.4,0.3-1.2,0.2-1.3,0.2
			c0-0.2-0.2-0.4-0.4-0.5c0,0,0,0,0,0c-0.3,0-0.4,0.1-0.5,0.2c0,0-0.1,0.1-0.1,0.2l-0.5-0.1c-0.3,0-0.5-1-0.6-1.8
			c-0.1,0-0.3,0-0.4,0c0.1,0.9,0.3,1.6,0.3,1.6c-0.2,0-0.8-0.5-0.8-0.5c-0.8-0.5-1.4-0.4-1.4-0.3c-0.4,0.1-0.7,0.4-0.7,0.9
			c0,0.5,0.4,0.9,0.9,0.9c0.5,0,0.9-0.4,0.9-0.9c0.3,0.2,0.6,0.3,0.6,0.3c0.8,0.5,1.6,0.6,1.8,0.6c0.1,0.3,0.3,0.5,0.6,0.5
			c0.2,0,0.5-0.1,0.6-0.3c1.7-0.1,2.4-0.8,2.4-0.8c0.2-0.2,0.2-0.1,0.2-0.1c0.6,0.9,1.9,0.4,1.9,0.4c0.2-0.1,0.3,0,0.3,0
			c0.3,0.4,0.6,0.2,0.6,0.2c0.5-0.3,0.2-0.6,0.2-0.6c-0.2-0.2,0-0.2,0-0.2c0.6,0.1,0.7-0.2,0.7-0.2c0.1-0.3-0.3-0.5-0.3-0.5
			c-0.1-0.1,0.1-0.3,0.1-0.3c0.3-0.2,0.3-0.4,0.3-0.4c0.4,0,0.4-0.2,0.4-0.2c0-0.2-0.5-0.2-0.5-0.2c-0.4,0-0.3-0.3-0.3-0.3
			c0.6,0,1.6-0.3,1.6-0.3c1.4,1.1,3.5,1.4,3.5,1.4c0,0.2,0,0.5,0,0.5c0,0,0,0,0,0c-0.2,0-0.3,0.1-0.3,0.3c0,0.2,0.2,0.3,0.3,0.3
			c0,0,0.1,0,0.1,0c0.7-0.2,0.7-1.2,0.7-1.2c1.9,0.2,3.2-1.2,3.2-1.2c0.2-0.2,0.3-0.1,0.3-0.1c0,0,0,0,0,0c0.1,0.1,0.2,0.2,0.4,0.2
			c0.2,0,0.3-0.1,0.4-0.2c0.1-0.1,0.1-0.2,0.1-0.3v0v0C54.4,36.7,54.3,36.6,54.3,36.6"/>
		<path class="st2" d="M31.4,39c0.2-0.1,0.2-0.3,0.2-0.3c0-0.5-0.3-0.8-0.4-0.8c-0.2,0-0.5,0-0.7,0h0c-0.2,0-0.5,0-0.7,0
			c0,0-0.4,0.2-0.3,0.8c0,0,0,0.2,0.2,0.3c0,0-0.5,0.2-0.5,0.5c0,0-0.1,0.2,0.4,0.6c0,0,0.3,0.3,0.4,0.6c0,0,0,0.4,0.5,0.4
			c0.5,0,0.5-0.4,0.5-0.4c0.1-0.3,0.4-0.6,0.4-0.6c0.4-0.3,0.4-0.6,0.4-0.6C31.9,39.2,31.4,39,31.4,39"/>
		<polygon class="st2" points="35,36.9 35.2,36.9 35.1,36.6 		"/>
		<polygon class="st2" points="26.6,36.9 26.8,37 26.7,36.6 		"/>
		<path class="st2" d="M25.6,36.2C25.6,36.2,25.6,36.2,25.6,36.2l-0.1,0.4c0.1,0,0.1,0,0.2,0c0,0,0.1,0,0.1-0.1c0,0,0-0.1,0-0.1
			c0-0.1,0-0.1,0-0.2C25.7,36.3,25.7,36.3,25.6,36.2"/>
		<path class="st2" d="M29.2,36.5c-0.1,0-0.2,0-0.2,0.1c0,0.1-0.1,0.2-0.1,0.3c0,0.2,0,0.3,0.1,0.3c0,0.1,0.1,0.1,0.2,0.1
			c0.1,0,0.2,0,0.2-0.1c0-0.1,0.1-0.2,0.1-0.3c0-0.1,0-0.3-0.1-0.3C29.4,36.6,29.3,36.5,29.2,36.5"/>
		<path class="st2" d="M32.3,36.5c-0.1,0-0.1,0-0.2,0.1c0,0.1-0.1,0.2,0,0.3c0,0.2,0,0.3,0.1,0.3c0,0.1,0.1,0.1,0.2,0.1
			c0.1,0,0.2,0,0.2-0.1c0-0.1,0.1-0.2,0.1-0.3c0-0.1,0-0.3-0.1-0.3C32.5,36.6,32.4,36.5,32.3,36.5"/>
		<polygon class="st2" points="23.7,36.5 24,36.6 23.9,36.2 		"/>
		<path class="st2" d="M19,34.6L18.8,35l0,0c0.1,0,0.1,0,0.2,0c0,0,0.1-0.1,0.1-0.1c0-0.1,0-0.1,0-0.1c0,0,0-0.1-0.1-0.1
			C19.1,34.7,19,34.6,19,34.6"/>
		<path class="st2" d="M19.9,35.1c-0.1,0.1-0.1,0.1-0.2,0.3c0,0.2-0.1,0.3,0,0.3c0,0.1,0.1,0.1,0.2,0.2c0.1,0,0.2,0,0.2,0
			c0.1,0,0.1-0.1,0.2-0.3c0-0.1,0.1-0.3,0-0.3c0-0.1-0.1-0.1-0.2-0.2C20.1,35,20,35,19.9,35.1"/>
		<path class="st2" d="M21.3,35.4C21.3,35.4,21.3,35.4,21.3,35.4l-0.1,0.4c0.1,0,0.1,0,0.2,0c0,0,0.1,0,0.1,0c0,0,0-0.1,0.1-0.1
			c0-0.1,0-0.1,0-0.2C21.5,35.4,21.4,35.4,21.3,35.4"/>
		<path class="st2" d="M40.1,35.4c0,0-0.1,0-0.2,0c0,0,0,0,0,0l0.1,0.4c0.1,0,0.1,0,0.2-0.1c0,0,0,0,0.1-0.1c0,0,0-0.1,0-0.1
			C40.2,35.5,40.2,35.4,40.1,35.4"/>
		<polygon class="st2" points="42.2,35.3 42.5,35.2 42.2,35 		"/>
		<path class="st2" d="M42.6,35.5L42.6,35.5c0-0.1,0-0.1,0-0.1c0,0,0,0,0,0c0,0,0,0,0,0l0,0l-0.1-0.1l-0.3,0.1l0,0.1
			c0,0,0,0.1,0,0.1c0,0,0,0,0,0c0,0,0,0,0.1,0l0,0.1l-0.3,0.1l0-0.1c0.1,0,0.1-0.1,0.1-0.2l0-0.9l0.1,0l0.6,0.6
			c0.1,0.1,0.1,0.1,0.1,0.1c0,0,0.1,0,0.1,0l0,0.1L42.6,35.5z M41,36.1L41,36.1l0.3-1.1l-0.2,0.1c-0.1,0-0.2,0.1-0.2,0.1
			c0,0,0,0.1,0,0.2l-0.1,0l-0.1-0.3l0.8-0.3l0,0.1l-0.3,1l0.2-0.1c0.1,0,0.1,0,0.1-0.1c0,0,0-0.1,0.1-0.1c0,0,0-0.1,0-0.1l0.1,0
			l0.1,0.3L41,36.1z M40.6,36.2c0,0-0.1-0.1-0.2-0.2c-0.1-0.1-0.1-0.1-0.1-0.1c0,0,0,0-0.1,0c0,0-0.1,0-0.1,0l0.1,0.2
			c0,0,0,0.1,0,0.1c0,0,0.1,0,0.1,0l0,0l0,0.1l-0.5,0.1l0-0.1l0,0c0,0,0.1,0,0.1-0.1c0,0,0-0.1,0-0.1l-0.2-0.6c0,0,0-0.1,0-0.1
			c0,0-0.1,0-0.1,0l0,0l0-0.1l0.4-0.1l0.1,0c0.1,0,0.2,0,0.2,0c0,0,0.1,0,0.1,0c0,0,0.1,0,0.1,0.1c0,0,0.1,0.1,0.1,0.1
			c0,0.1,0,0.2-0.1,0.3c0,0,0.1,0.1,0.2,0.2c0.1,0.1,0.1,0.1,0.2,0.1c0,0,0.1,0,0.1,0l0,0.1L40.6,36.2z M38.7,36.7L38.7,36.7
			L38.7,36.7c0-0.1,0.1-0.1,0.1-0.1c0,0,0-0.1,0-0.1l-0.1-0.6c0,0,0-0.1,0-0.1c0,0-0.1,0-0.1,0l0,0l0-0.1l0.8-0.2l0.1,0.3l-0.1,0
			c0,0-0.1-0.1-0.1-0.1c0,0,0,0-0.1,0c0,0-0.1,0-0.1,0l-0.2,0l0.1,0.3l0.1,0c0,0,0.1,0,0.1,0c0,0,0-0.1,0-0.1l0.1,0l0.1,0.3l-0.1,0
			c0,0,0,0,0,0c0,0,0-0.1,0-0.1c0,0-0.1,0-0.1,0l-0.1,0l0.1,0.2c0,0,0,0.1,0,0.1c0,0,0,0,0.1,0c0,0,0.1,0,0.1,0c0.1,0,0.1,0,0.1-0.1
			c0,0,0-0.1,0.1-0.1c0,0,0-0.1,0-0.1l0.1,0l0.1,0.3L38.7,36.7z M38.2,36l0.1,0.3c0,0.1,0,0.1,0,0.2c0,0,0,0.1,0,0.1
			c0,0-0.1,0.1-0.1,0.1c-0.1,0-0.1,0.1-0.2,0.1c-0.1,0-0.2,0-0.2,0c-0.1,0-0.1,0-0.2-0.1c0,0-0.1-0.1-0.1-0.1c0,0,0-0.1-0.1-0.2
			l-0.1-0.4c0,0,0-0.1,0-0.1c0,0-0.1,0-0.1,0l0-0.1l0.5-0.1l0,0.1l0,0c-0.1,0-0.1,0-0.1,0c0,0,0,0.1,0,0.1l0.1,0.4
			c0,0.1,0,0.1,0.1,0.2c0,0,0.1,0.1,0.1,0.1c0,0,0.1,0,0.2,0c0.1,0,0.1,0,0.1-0.1c0,0,0.1-0.1,0.1-0.1c0,0,0-0.1,0-0.2L38.2,36
			c-0.1-0.1-0.2-0.1-0.3-0.1l0-0.1l0.4-0.1l0,0.1c0,0,0,0-0.1,0C38.2,35.9,38.2,35.9,38.2,36C38.2,35.9,38.2,36,38.2,36 M37,36.2
			c0,0,0-0.1-0.1-0.1c0,0,0,0-0.1,0c0,0-0.1,0-0.1,0l-0.2,0l0.1,0.4l0.1,0c0,0,0.1,0,0.1,0c0,0,0-0.1,0-0.1L37,36.2l0,0.4l-0.1,0
			c0-0.1,0-0.1,0-0.1c0,0,0,0-0.1,0l-0.1,0l0,0.3c0,0,0,0.1,0,0.1c0,0,0.1,0,0.1,0l0,0l0,0.1l-0.5,0.1l0-0.1l0,0c0.1,0,0.1,0,0.1,0
			c0,0,0-0.1,0-0.1l-0.1-0.6c0,0,0-0.1,0-0.1c0,0-0.1,0-0.1,0l0,0l0-0.1L37,36L37,36.2L37,36.2z M35.2,37.3L35.2,37.3
			c0-0.1,0.1-0.1,0.1-0.1c0,0,0,0,0,0c0,0,0,0,0,0l0,0l0-0.1l-0.3,0l0,0.1c0,0,0,0.1,0,0.1c0,0,0,0,0,0c0,0,0,0,0.1,0l0,0.1l-0.3,0
			l0-0.1c0.1,0,0.1-0.1,0.1-0.2l0.2-0.8l0.1,0l0.4,0.8c0,0.1,0.1,0.1,0.1,0.1c0,0,0.1,0,0.1,0l0,0.1L35.2,37.3z M33.7,37.4
			L33.7,37.4L33.7,37.4c0.1-0.1,0.1-0.1,0.1-0.1c0,0,0-0.1,0-0.1l-0.1-0.6c0,0,0-0.1,0-0.1c0,0-0.1,0-0.1,0l0,0l0-0.1l0.5,0l0,0.1
			l0,0c0,0-0.1,0-0.1,0c0,0,0,0.1,0,0.1l0.1,0.6c0,0,0,0.1,0,0.1c0,0,0,0,0,0c0,0,0.1,0,0.1,0c0.1,0,0.2,0,0.2-0.1
			c0,0,0.1-0.1,0.1-0.2l0.1,0l0,0.3L33.7,37.4z M32.8,37.3c-0.1,0.1-0.2,0.2-0.4,0.2c-0.1,0-0.2,0-0.3-0.1c-0.1,0-0.2-0.1-0.2-0.2
			c0-0.1-0.1-0.2-0.1-0.3c0-0.1,0-0.2,0.1-0.3c0-0.1,0.1-0.2,0.2-0.2c0.1-0.1,0.2-0.1,0.3-0.1c0.2,0,0.3,0,0.4,0.1
			c0.1,0.1,0.2,0.2,0.2,0.4C32.9,37.1,32.9,37.2,32.8,37.3 M31.1,36.6C31.1,36.6,31,36.6,31.1,36.6c-0.1,0-0.1,0.1-0.1,0.1
			c0,0,0,0.1,0,0.1l0,0.8h-0.1l-0.7-0.8l0,0.5c0,0.1,0,0.1,0,0.1c0,0,0.1,0,0.1,0v0.1H30v-0.1c0,0,0.1,0,0.1,0c0,0,0,0,0-0.1
			c0,0,0-0.1,0-0.1l0-0.5c0-0.1,0-0.2-0.1-0.2v-0.1l0.3,0l0.6,0.6l0-0.4c0-0.1,0-0.2-0.1-0.2v-0.1L31.1,36.6L31.1,36.6z M29.6,37.4
			c-0.1,0.1-0.2,0.1-0.4,0.1c-0.1,0-0.2,0-0.3-0.1c-0.1-0.1-0.2-0.1-0.2-0.2c0-0.1-0.1-0.2,0-0.3c0-0.1,0-0.2,0.1-0.3
			c0.1-0.1,0.1-0.2,0.2-0.2c0.1,0,0.2-0.1,0.3-0.1c0.2,0,0.3,0.1,0.4,0.2c0.1,0.1,0.1,0.2,0.1,0.4C29.7,37.1,29.7,37.3,29.6,37.4
			 M28.4,36.5l-0.6,0.8l0.2,0c0.1,0,0.1,0,0.1,0c0,0,0.1,0,0.1-0.1c0,0,0.1-0.1,0.1-0.1l0.1,0l0,0.3l-0.9-0.1l0-0.1l0.6-0.8l-0.2,0
			c-0.1,0-0.2,0-0.2,0c0,0-0.1,0.1-0.1,0.1l-0.1,0l0-0.3L28.4,36.5L28.4,36.5z M27.3,37.4l-0.5,0l0-0.1c0,0,0.1,0,0.1,0c0,0,0,0,0,0
			c0,0,0,0,0-0.1l0,0l0-0.1l-0.3,0l0,0c0,0,0,0.1,0,0.1c0,0,0,0,0,0.1c0,0,0,0,0.1,0l0,0.1l-0.3,0l0-0.1c0.1,0,0.1,0,0.2-0.1
			l0.4-0.8l0.1,0l0.2,0.8c0,0.1,0,0.1,0.1,0.1C27.2,37.3,27.3,37.3,27.3,37.4L27.3,37.4z M26.1,37.3l-0.3,0c0,0-0.1-0.1-0.1-0.3
			c0-0.1-0.1-0.1-0.1-0.1c0,0,0,0,0,0c0,0-0.1,0-0.1,0l0,0.2c0,0,0,0.1,0,0.1c0,0,0,0,0.1,0h0l0,0.1L25,37.1l0-0.1l0,0
			c0,0,0.1,0,0.1,0c0,0,0,0,0-0.1l0.1-0.6c0,0,0-0.1,0-0.1c0,0,0,0-0.1,0l0,0l0-0.1l0.4,0.1l0.1,0c0.1,0,0.2,0,0.2,0
			c0,0,0.1,0,0.1,0.1c0,0,0.1,0.1,0.1,0.1c0,0,0,0.1,0,0.1c0,0.1-0.1,0.2-0.2,0.2c0,0,0.1,0.1,0.1,0.2c0,0.1,0.1,0.2,0.1,0.2
			C26.1,37.2,26.1,37.2,26.1,37.3L26.1,37.3z M24.4,37l-0.5-0.1l0-0.1c0,0,0.1,0,0.1,0c0,0,0,0,0,0c0,0,0,0,0-0.1l0,0l0-0.1
			l-0.3-0.1l0,0c0,0,0,0.1,0,0.1c0,0,0,0,0,0.1c0,0,0,0,0.1,0l0,0.1l-0.3-0.1l0-0.1c0.1,0,0.1,0,0.2-0.1l0.4-0.7l0.1,0l0.2,0.8
			c0,0.1,0,0.1,0.1,0.2C24.4,36.9,24.4,36.9,24.4,37L24.4,37z M23.3,36.8l-0.9-0.2l0-0.1h0c0,0,0.1,0,0.1,0c0,0,0,0,0-0.1l0.1-0.6
			c0,0,0-0.1,0-0.1c0,0,0,0-0.1,0l0,0l0-0.1l0.5,0.1l0,0.1l0,0c-0.1,0-0.1,0-0.1,0c0,0,0,0,0,0.1l-0.1,0.6c0,0,0,0.1,0,0.1
			c0,0,0,0,0,0c0,0,0.1,0,0.1,0c0.1,0,0.2,0,0.2,0c0.1,0,0.1-0.1,0.1-0.2l0.1,0L23.3,36.8z M21.6,36.1c0,0.1,0.1,0.2,0.1,0.2
			c0,0,0,0,0.1,0l0,0.1l-0.3-0.1c0,0,0-0.1-0.1-0.3c0-0.1,0-0.1,0-0.2c0,0,0,0,0-0.1c0,0-0.1,0-0.1,0l-0.1,0.2c0,0,0,0.1,0,0.1
			c0,0,0,0,0.1,0.1l0,0l0,0.1l-0.5-0.1l0-0.1l0,0c0,0,0.1,0,0.1,0c0,0,0,0,0-0.1l0.2-0.6c0,0,0-0.1,0-0.1c0,0,0,0-0.1,0l0,0l0-0.1
			l0.4,0.1l0.1,0c0.1,0,0.1,0,0.2,0.1c0,0,0.1,0,0.1,0.1c0,0,0.1,0.1,0.1,0.1c0,0,0,0.1,0,0.1c0,0.1-0.1,0.2-0.3,0.2
			C21.5,35.9,21.6,36,21.6,36.1 M20.6,35.6c0,0.1-0.1,0.2-0.3,0.3C20.2,36,20,36,19.9,36c-0.1,0-0.2-0.1-0.3-0.2
			c-0.1-0.1-0.1-0.2-0.1-0.3c0-0.1,0-0.2,0-0.3c0-0.1,0.1-0.2,0.2-0.2c0.1-0.1,0.2-0.1,0.3-0.1c0.1,0,0.2,0,0.3,0
			c0.2,0.1,0.3,0.1,0.4,0.3C20.6,35.4,20.6,35.5,20.6,35.6 M19.4,35c0,0.1-0.1,0.1-0.1,0.1c-0.1,0-0.1,0-0.2,0c-0.1,0-0.1,0-0.2-0.1
			l-0.1,0l-0.1,0.2c0,0,0,0.1,0,0.1c0,0,0,0,0.1,0.1l0,0l0,0.1l-0.5-0.2l0-0.1l0,0c0,0,0.1,0,0.1,0c0,0,0,0,0.1-0.1l0.2-0.6
			c0,0,0-0.1,0-0.1c0,0,0,0-0.1-0.1l0,0l0-0.1l0.4,0.1c0.1,0,0.2,0.1,0.2,0.1c0.1,0,0.1,0.1,0.1,0.1c0,0,0.1,0.1,0.1,0.1
			C19.4,34.9,19.4,35,19.4,35 M29.2,36.1l0.3,0l-0.4,0.2h-0.1L29.2,36.1z M42.8,33.9c-0.1,0-0.2,0-0.2,0c-0.5,0.1-4.8,2-12,2
			c-7.2,0-11.5-1.9-12-2c0,0-0.1,0-0.2,0c-0.1,0-0.3,0-0.4,0.1l-1.5,1.2h0c0.4,0,0.9,0.2,0.9,0.2c3.8,1.7,8.2,2.4,13.1,2.4
			c4.9,0,9.3-0.7,13.1-2.4c0,0,0.5-0.2,0.9-0.2h0L43.2,34C43.1,33.9,43,33.9,42.8,33.9"/>
		<path class="st2" d="M25.4,19.4c-0.1,0.1-0.3,0.2-0.5,0.3H26C25.8,19.6,25.6,19.5,25.4,19.4"/>
		<path class="st2" d="M32.7,19.7c-0.2-0.1-0.4-0.2-0.5-0.2c0,0,0,0-0.1,0c-0.2-0.1-0.4-0.2-0.6-0.2h-2.3c-0.2,0.1-0.4,0.1-0.6,0.2
			c0,0,0,0-0.1,0c-0.1,0-0.3,0.1-0.5,0.2c0,0,0,0-0.1,0L32.7,19.7C32.7,19.7,32.7,19.7,32.7,19.7"/>
		<path class="st2" d="M35.6,19.4C35.6,19.4,35.6,19.4,35.6,19.4C35.6,19.4,35.6,19.4,35.6,19.4c-0.1,0.1-0.3,0.2-0.5,0.3h1
			C35.9,19.6,35.7,19.5,35.6,19.4"/>
		<path class="st2" d="M24.8,28.6v-2.4C24.6,26.7,24.4,27.7,24.8,28.6"/>
		<path class="st2" d="M30.4,20h-5.9c0,0,0,0,0,0c0,0.1,0,0.1,0.1,0.2c0,0,0.1,0.1,0.2,0.3h5.5L30.4,20z"/>
		<path class="st2" d="M30.1,20.8H25c0.1,0.1,0.2,0.3,0.3,0.5H30L30.1,20.8z"/>
		<path class="st2" d="M29.8,22.1l0.1-0.5h-4.5c0.1,0.2,0.1,0.3,0.2,0.5H29.8z"/>
		<path class="st2" d="M29.7,22.4h-4.1c0,0.2,0.1,0.3,0.1,0.5h3.8L29.7,22.4z"/>
		<path class="st2" d="M25.6,24.5h2.2L27.1,24h-1.4C25.7,24.1,25.6,24.3,25.6,24.5"/>
		<path class="st2" d="M25.7,23.2C25.7,23.2,25.7,23.2,25.7,23.2c0,0.1,0,0.3,0,0.5h0.9L26,23.2H25.7z"/>
		<path class="st2" d="M32.7,25.2H33v3l-0.3-0.9V25.2z M30.4,24.6l2.6,3.7v1.9c0.2,0,0.3,0,0.4,0c0,0,0.1,0,0.1,0v-4.9h0.3v4.9
			c0.2,0,0.3,0,0.5-0.1v-4.8h0.3V30c0.2-0.1,0.3-0.1,0.5-0.2v-4.6h0.3v4.4c0.2-0.1,0.3-0.2,0.4-0.4c0,0,0,0,0-0.1V26
			c-0.2-0.3-0.3-0.5-0.4-0.7h0c-0.1-0.2-0.1-0.3-0.2-0.5h-2.7L32,25.2l-1.2-0.4L30.4,24.6l4.4-1.4h-3.5l-0.1-0.3h3.9
			c0-0.2,0.1-0.3,0.1-0.5h-4.1L31,22.1h4.3c0.1-0.2,0.1-0.3,0.2-0.5h-4.6l-0.1-0.3h4.9c0.1-0.2,0.2-0.3,0.3-0.5h-5.3l-0.1-0.3h5.6
			c0.2-0.2,0.3-0.4,0.3-0.4c0,0,0-0.1,0-0.1h-6.1l0-0.1V20v0.5v0.3v0.5v0.3v0.5v0.3v0.5V24.6L30.4,24.6z"/>
		<path class="st2" d="M31.5,30.7c0.2-0.1,0.3-0.2,0.5-0.2v-2.9l-0.5-0.4V30.7z"/>
		<path class="st2" d="M30.7,31.7c0.1-0.1,0.1-0.2,0.2-0.3l0,0c0.1-0.1,0.2-0.3,0.3-0.4v-4.1l-0.5-0.4V31.7z"/>
		<path class="st2" d="M29.9,30.9c0.1,0.1,0.3,0.3,0.4,0.5l0,0c0,0,0,0.1,0.1,0.1v-5.1l-0.5,0.4V30.9z"/>
		<path class="st2" d="M29.1,30.4c0.2,0.1,0.3,0.1,0.5,0.2V27l-0.5,0.4V30.4z"/>
		<path class="st2" d="M32.3,30.3c0.2,0,0.3-0.1,0.5-0.1v-2.1l-0.5-0.4V30.3z"/>
		<path class="st2" d="M28.3,30.2c0.1,0,0.3,0.1,0.5,0.1v-2.7l-0.5,0.4V30.2z"/>
		<path class="st2" d="M28,25.2h0.3v1.4L28,27.6V25.2z M25.6,29.6v-4.3h0.3v4.5c0.1,0.1,0.3,0.1,0.5,0.2v-4.7h0.3v4.8
			c0.1,0,0.3,0.1,0.5,0.1v-4.9h0.3v4.9c0.1,0,0.1,0,0.2,0c0,0,0.1,0,0.3,0v-2l-0.3,0.2l2.7-3.8h0l0,0h0h0l-1-1.4H26l4.4,1.4
			l-1.6,0.6l-0.6-0.4h-2.7c0,0.1-0.1,0.3-0.2,0.5c-0.1,0.1-0.1,0.2-0.2,0.4v3.5C25.2,29.2,25.4,29.4,25.6,29.6"/>
		<path class="st2" d="M33.1,24.5h2.2c0-0.2-0.1-0.3-0.1-0.5h-1.4L33.1,24.5z"/>
		<path class="st2" d="M35.2,23.2h-0.3l-0.7,0.5h1c0-0.2,0-0.3,0-0.3C35.2,23.3,35.2,23.2,35.2,23.2"/>
		<path class="st2" d="M23.6,10.2c0.7-0.2,1.4,0,1.7,0.4c1.1,1.1,0.5,2.6,0.2,2.7c0.2-0.6,0.3-1.6-0.6-1.8c-0.8-0.2-1.5,0.4-1.8,0.7
			c0.2-0.7,1-1.2,2-1c-0.2-0.6-1-0.8-1.9-0.4c-0.2,0.1-0.4,0.3-0.5,0.4C22.8,10.7,23.2,10.3,23.6,10.2 M23.6,13.8
			c0.5-0.1,1-0.4,0.9-0.9c0-0.1-0.2-0.3-0.4-0.3c-0.3,0-0.5,0.2-0.7,0.4c0-0.5,0.3-0.8,0.8-0.7c0.3,0,0.6,0.3,0.7,0.5
			C25,13.5,24.3,13.8,23.6,13.8 M27.2,12c0.4,0.7,1.6,1.6,3,2c0.5,0.1,0.7,1.7,0.3,2.5c-0.5,0-0.5-0.3-0.6-0.7
			c0.2,0.2,0.5,0.4,0.5,0c-0.2-0.1-1.2-0.4-0.9-0.9c0.2-0.2,0.7,0.7,0.9,0.4c0.1-0.7-2-0.9-1.9-1.4c0-0.3,1.6,0.8,1.8,0.8
			c0-0.3-2.4-1.3-3.1-2.6C27.2,12,27.2,12,27.2,12C27.2,11.9,27.2,11.9,27.2,12 M31.2,15c0.1,0.6,0.2,1.4-0.1,1.9
			c-0.2,0-0.1-0.3-0.1-0.4c0-0.7,0-1.3-0.2-1.9c-0.1-0.3-0.3-1.2-0.9-2.3C30.2,12.5,31.1,13.9,31.2,15 M31.9,12.9
			c0.4,0.2-0.2,1-0.3,1.2c0.1,0,0.4-0.4,0.6-0.3c0.2,0.2-0.5,1.1-0.6,1.1C30.6,13.6,31.8,13.3,31.9,12.9 M33.2,8
			c0,0.5-0.2,0.6-0.3,0.6c0,0,0,0,0-0.1C33,8.3,33,7.7,32.7,7.4c-0.2-0.2-0.5-0.3-0.5-0.4C32.1,7,33,7.2,33.2,8 M31.6,15.6
			c-0.2-0.3,0.3-0.7,0.4-1.1C32.6,14.5,31.9,15.5,31.6,15.6 M31.8,16.5c-0.1-0.1-0.1-0.3-0.1-0.4c0-0.3,0.4-0.5,0.6-0.6
			C32.3,15.4,32.2,16,31.8,16.5 M37.6,9.7c0.3,0.1,0.6,0.4,0.8,0.8c0.2,0.4,0.1,0.8,0,1c0,0,0,0,0,0c0,0,0,0,0,0
			c0-0.2,0-0.6-0.2-0.9c-0.1-0.2-0.2-0.4-0.5-0.5c0.1,0.2,0.2,0.4,0.3,0.5c0.1,0.2,0.1,0.3,0.1,0.4c0,0.4-0.2,0.9-0.4,1.1
			c0,0,0,0,0,0c0,0,0,0,0,0c0.2-0.5,0.2-1,0.1-1.4c0,0,0-0.1-0.1-0.1c-0.2-0.3-0.4-0.6-0.9-0.6c0.2,0.1,0.4,0.4,0.5,0.6
			c0.2,0.5,0.2,1.2-0.1,1.4c0,0,0,0,0,0c0,0,0,0,0,0c0-0.1,0-0.2,0-0.2c0-0.2,0-0.4,0-0.6c-0.2-1-1-1.3-1.6-0.7
			C35.6,10.4,36.2,9.2,37.6,9.7 M22.8,14.2c0.9,0.5,2,0.4,2.4,0.3c0.2,0,0.4-0.1,0.7-0.3c0,0,0.1,0,0.1-0.1c0,0,0,0,0,0
			c0.3-0.3,0.6-0.8,0.5-1.4c0,0,0,0,0,0c0,0,0.1,0.2,0.1,0.4c0,0.2-0.1,0.5-0.2,0.7c0,0,0,0.1,0,0.1c0,0.1,0,0.2,0.1,0.2
			c0.2,0.2,0.6,0.2,0.9,0.1c0,0,0,0,0,0c0,0-0.2,0.3-0.6,0.3c-0.1,0-0.2,0-0.2,0c0.2,0.4,0.8,0.6,1.5,0.6c0,0,0,0,0,0
			c0,0-0.2,0.1-0.4,0.1c-0.3,0-0.6-0.1-0.9-0.2c0.3,0.4,0.8,0.7,1.7,0.8c0,0.1-0.7,0-0.9,0c0.4,1.6,1.3,1.4,1.3,1.5
			c-0.3,0.1-0.4,0.4-0.3,0.7c0.9-0.3,1.6-0.4,1.8-0.4c0.2,0,0.9,0,1.8,0.4c0.1-0.1,0.1-0.3,0.1-0.4c-0.1-0.4-1.4-0.7-2.5-0.4
			c0,0-0.1,0-0.2,0.1c0,0,0,0,0,0c0,0,0,0,0,0l0,0c0,0,0.2-0.1,0.2-0.1c0.5-0.3,1.6-0.4,2.1-0.1c0,0,0,0,0,0
			c0.5,0.2,0.9-0.4,0.8-0.7c0.4,0,0.6-0.2,0.7-0.6c-0.1,0-0.1,0.1-0.2,0.1l0,0c-0.1,0.1-0.3,0.1-0.3,0.1c0,0,0,0,0,0h0c0,0,0,0,0,0
			c0,0,0,0,0,0c0.1,0,0.1-0.1,0.2-0.1c0.7-0.4,1-1.2,0.9-1.4c-0.1,0.1-0.3,0.3-0.5,0.3c-0.1,0-0.2,0-0.2,0c0,0,0,0,0,0
			c0.1,0,0.2,0,0.2-0.1c0.2-0.2,0.5-0.5,0.6-0.7c-0.4-0.4-0.6-0.9-0.8-1.5c-0.1-0.2-0.3-0.5-0.6-0.5c0,0-0.1,0-0.1,0
			c0,0-0.1,0-0.1,0c0,0,0,0,0,0c0.3-0.3,0.7,0,0.9,0.1c0-0.6,0.2-0.7,0.3-0.7c0,0,0,0,0,0c-0.4,1.2,0.4,2.4,1,2.8
			c0.9,0.5,2.4,0.5,3.4-0.3h0c-0.2,0.1-0.4,0.1-0.6,0.1c-0.2,0-0.4,0-0.4-0.1c0,0,0,0,0,0c0.1,0,0.3,0,0.4,0
			c1.5-0.4,1.5-2.2,1.3-2.3c0,0,0,0,0,0c0,0.1-0.1,0.2-0.1,0.3c-0.1,0.2-0.2,0.3-0.2,0.3c0,0,0,0,0,0c0.3-0.6,0.3-1,0.1-1.6
			c-0.1-0.3-0.3-0.6-0.6-0.8c-0.7-0.5-2.2-0.6-3,0c-0.3-0.3-0.6-0.5-1.1-0.6c-0.1,0.5-0.6,1.1-1,1.4c-0.1,0.1-0.3,0.2-0.4,0.2
			c0,0-0.1,0,0-0.1c0.8-0.5,1.2-1.1,1.2-1.8v0c0-0.4-0.1-1.1-0.6-1.6c-0.7-0.8-2.7-0.9-3.5-0.1c-0.2,0.2-0.4,0.5-0.5,0.9
			c0.1-0.3,0.3-0.5,0.7-0.7c0.4-0.1,1.1,0,1.3,0.4c-0.7-0.7-1.9-0.2-2,1v0c0,0.1-0.1,0.1-0.1,0.1h0c0,0-0.1,0-0.1-0.5
			c0-0.3,0.1-0.7,0.3-1.1c-1.5-0.3-3.3,0.5-3.2,2.7c0,0.3,0.1,0.6,0.4,0.9c0.1,0.1,0,0.1,0,0.1c0,0-0.2-0.1-0.3-0.3
			c-0.1-0.2-0.3-0.5-0.3-0.7c-0.9-0.3-1.5-0.3-2-0.3c-0.5,0.1-1.3,0.5-1.5,0.9c-0.1,0.1-0.2,0.4-0.3,0.5c-0.2,0.4-0.3,0.8-0.3,1.3
			C21.8,13.1,22.2,13.9,22.8,14.2"/>
		<path class="st2" d="M14.2,35.5C14.2,35.5,14.2,35.5,14.2,35.5c-0.1-0.1-0.2-0.1-0.3-0.2c-0.1,0.1,0.1,0.3,0.2,0.4
			c0,0-0.1,0.1-0.1,0.1l0,0c-0.1,0-0.1,0-0.2,0h0c0,0,0,0,0,0c-0.2-0.1-0.2-0.3-0.2-0.5c0-0.1-0.1-0.4-0.3-0.5
			c0.4-0.2,0.9,0.3,0.9,0.4l0,0h0v0c0.1,0.1,0.2,0.1,0.3,0.2c0,0,0,0,0.1,0.1C14.4,35.5,14.3,35.5,14.2,35.5 M18.4,17.1
			c0.8,0.1,1.7,0.1,2.2,0.4c0,0,0,0,0.1,0c0.2,0.1,0.6,0.5,0.8,1.1c-0.7-0.4-1-0.5-1.5-0.8C19.3,17.7,18.6,17.6,18.4,17.1
			 M17.4,15.6c0.5,0.2,0.6-0.5,0.7-0.3C18.3,15.6,17.8,16.1,17.4,15.6 M16.9,15.7c-0.2-0.4,0.5-1,0.7-1.1c0.4-0.1,0.7,0.1,1.1,0.2
			c0.3,0,0.5,0,0.7,0c0.5,0,0.3,0.4,0.3,0.4c-0.4,0.1-0.6-0.2-1-0.2c-0.2,0-0.5,0.1-0.8,0.1c-0.2,0-0.4-0.2-0.6,0
			c0,0-0.3,0.2-0.2,0.5C17.3,15.7,17,15.8,16.9,15.7 M24.1,22.8c-0.2,0-0.2-0.7-1.1-0.5c-0.5,0.2-0.8,0.1-1.1,0
			C23.2,21.6,24.2,22.3,24.1,22.8 M24.3,24.1c0.1,0.1,0.2,0.4,0.2,0.7c0,0,0,0.1,0,0.1c0,0,0,0.1,0,0.1c0,0,0,0.1,0,0.1
			c0,0,0,0.1,0,0.1v0.1c0,0,0,0.1,0,0.1c0,0,0,0.1,0,0.1c0,0,0,0.1,0,0.1c0,0,0,0,0,0.1c0,0,0,0.1,0,0.1c0,0,0,0.1,0,0.1
			c0,0,0,0.1,0,0.1c0,0,0,0,0,0.1c0,0,0,0.1,0,0.1c0,0,0,0.1,0,0.1c0,0,0,0,0,0.1c0,0,0,0,0,0.1c0,0,0,0,0,0.1c0,0,0,0.1-0.1,0.1
			c0,0,0,0,0,0.1c0,0,0,0,0,0.1c0,0,0,0,0,0c0,0,0,0.1-0.1,0.1c0,0,0,0,0,0c0,0,0,0-0.1,0.1c0,0,0,0,0,0c0,0-0.1,0-0.1,0.1
			c0,0,0,0,0,0c0,0-0.1,0-0.1,0c0,0,0,0,0,0c0,0-0.1,0-0.1,0c0,0,0-0.1,0-0.1c0-0.1,0.1-0.2,0.2-0.4c0.1-0.1,0-0.2,0.1-0.3
			c0.1,0,0.2,0,0.3-0.1c-0.2-0.2-0.2-0.5,0-0.8C24.6,25,24.2,24.2,24.3,24.1 M24.8,25.9c0.8-1.4,0.7-2.4,0.7-2.6
			c0-1.6-1-2.8-1.1-2.9c-0.1-0.1-0.1-0.2-0.1-0.3c0-0.1,0.1-0.2,0.2-0.2c0.2-0.2,0.7-0.5,0.9-0.6l0.1-0.1c0,0,0.1,0,0.1,0
			c0.1,0,0.1,0,0.2,0.1c0.2,0.2,0.6,0.4,1.2,0.4c0.1,0,0.2,0,0.3,0c0.3,0,0.9-0.3,0.9-0.3c0.2-0.1,0.4-0.2,0.5-0.2l0,0
			c0.9-0.4,1.7-0.4,1.9-0.4c0.2,0,1,0,1.9,0.4l0,0c0.1,0,0.3,0.1,0.5,0.2c0,0,0.6,0.3,0.9,0.3c0.1,0,0.2,0,0.4,0
			c0.6,0,1-0.3,1.2-0.4c0.1-0.1,0.1-0.1,0.2-0.1c0,0,0.1,0,0.1,0c0,0,0,0,0.1,0.1c0.2,0.1,0.7,0.4,0.9,0.6c0,0,0.1,0.1,0.1,0.2
			c0,0.1,0,0.2-0.1,0.3c-0.1,0.1-1.1,1.3-1.1,2.9c0,0.2-0.1,1.2,0.7,2.6c0,0.1,0.9,1.7-0.1,3.2c-0.1,0.1-0.9,1.3-2.9,1.3
			c-0.2,0-1.8,0-2.4,1.1c0,0,0,0,0,0c-0.1,0.1-0.3,0.4-0.4,0.6c0,0-0.1,0.1-0.1,0.1c0,0-0.1,0-0.1-0.1c-0.1-0.2-0.3-0.5-0.4-0.6
			c0,0,0,0,0,0c-0.6-1-2.2-1.1-2.4-1.1c-2,0-2.8-1.2-2.9-1.3C23.8,27.6,24.8,25.9,24.8,25.9 M36.6,24.8
			C36.6,24.8,36.6,24.8,36.6,24.8c0.1-0.1,0.2-0.1,0.3-0.1c0.1,0,0.1,0,0.2,0h0c0.1,0,0.1,0,0.2,0c0,0,0.2,0.2,0.2,0.5h0
			c0,0.1,0.1,0.4,0.2,0.5c0.1,0.1,0.1,0.3-0.2,0.3h0c-0.3-0.1-0.6-0.5-0.5-1c-0.1,0-0.2,0-0.2,0h0c0,0-0.1,0-0.1,0c0,0,0,0,0,0
			c0,0,0,0-0.1,0c0,0,0,0,0,0c-0.1,0.1-0.1,0.2-0.2,0.2C36.3,25.1,36.4,24.9,36.6,24.8 M37.8,26.3C37.8,26.3,37.8,26.3,37.8,26.3
			C37.8,26.3,37.8,26.3,37.8,26.3c0,0.1,0,0.1,0,0.1c0,0,0,0,0,0c0,0,0,0,0,0.1v0c0,0.1,0,0.2,0,0.4c0,0,0,0,0,0.1c0,0,0,0,0,0
			c0,0.1,0,0.2,0,0.3c0,0.2,0,0.5-0.1,0.6c0,0,0,0-0.1,0.1c0,0,0,0-0.1,0.1c0,0,0,0,0,0c0,0,0,0-0.1,0c0,0,0,0,0,0c0,0,0,0-0.1,0
			c0,0,0,0,0,0c0,0,0,0-0.1,0h0c0,0,0,0-0.1,0c0,0,0,0,0,0c0,0,0,0-0.1,0c0,0,0,0,0,0c0,0,0,0-0.1-0.1c0,0,0,0,0,0
			c0,0-0.1-0.2,0.1-0.3c0,0,0.1,0.1,0.1,0.1c0,0,0,0,0,0c0,0,0,0,0.1,0c0,0,0,0,0,0c0,0,0,0,0.1,0c0,0,0,0,0,0c0,0,0,0,0,0
			c0,0,0,0,0,0c0,0,0,0,0,0c0,0,0,0,0,0c0,0,0-0.1,0-0.1c0,0,0,0,0,0c0,0,0,0,0-0.1c0,0,0,0,0,0c0,0,0,0,0-0.1c0-0.4,0-0.8,0.1-1
			c0,0,0,0,0,0c0,0,0,0,0,0C37.7,26.2,37.7,26.2,37.8,26.3L37.8,26.3L37.8,26.3C37.7,26.2,37.8,26.2,37.8,26.3
			C37.8,26.2,37.8,26.3,37.8,26.3 M40.5,28.2c0.5,0.2,1.2,0.1,1.5-0.2c0,0,0.1,0,0.1,0c0.1,0.1,0,0.4-0.6,0.5
			c-1.1,0.1-1.8-0.9-1.7-0.9C39.8,27.7,40.2,28,40.5,28.2 M39.6,18.8c-0.1,0.3-0.4,0.6-0.7,0.6c-0.6,0.1-1.2-0.3-1.2-0.4
			c0-0.1,0.5,0.2,1,0.2C39,19.2,39.3,18.9,39.6,18.8C39.6,18.7,39.6,18.7,39.6,18.8 M37.3,15.8C37.3,15.9,37.2,15.9,37.3,15.8
			c-0.4-0.2-1.1-0.2-1.6,0.1c-0.4,0.2-0.6,0.5-0.7,0.6c-0.1,0,0.6-0.9,1.6-1C37.3,15.5,37.3,15.8,37.3,15.8 M45,19
			c0.1,0,0.3,0,0.4-0.1c0.1,0,0.2-0.2,0.4-0.2c0.1,0.1-0.1,0.1-0.1,0.2c-0.1,0.1-0.5,0.3-0.7,0.3c-0.4,0.1-0.8,0-1-0.3
			C44.3,18.8,44.5,19.1,45,19 M46.2,17.2c0.1-0.4,0.6-0.8,0.6-1c0-0.2-0.3-0.5-0.3-0.8c0-0.5,0.3-1,0.8-0.9c0.3,0.1,0.5,0.3,0.7,0.6
			c0.1,0.1,0.2,0.2,0.2,0.2c0.6,0.7,1,1.9,1.3,2.9c0.8,2.9,1.2,7.5,0.2,12.6c-0.1,0.4-0.3,1.5-0.3,1.5c0.9-8.4,0.4-10.5,0.3-10.4
			c-0.1,0-0.3,1-0.7,0.7c-0.5-0.3,1-2.1,0.4-3.2c-0.1-0.2-0.3,0.2-0.5,0.2c-0.6-0.2,0.3-1.8,0.2-2c-0.1-0.1-0.6-0.2-0.6-0.8
			c0-0.3,0.2-0.5,0-0.7c-0.2-0.2-0.1,0.2-0.3,0.1c-0.3-0.3,0-0.7-0.2-0.9c-0.1-0.1-0.3,0.2-0.4,0.1c-0.2-0.1,0.1-0.4-0.1-0.5
			c-0.3,0-0.7,0.3-0.6,0.8c0,0.2,0.3,0.4,0.3,0.6c0,0.2-0.3,0.5-0.3,0.6c-0.4,0.9,0.3,1.1,0.2,1.4c0,0.2-0.3,0.2-0.5,0.2
			C46.2,18.4,46.1,17.5,46.2,17.2 M41,32.8L41,32.8C41,32.8,41,32.8,41,32.8c-0.3,0.1-0.8-0.3-0.8-0.3c-0.1,0-0.3-0.2-0.5-0.1h0l0,0
			c-0.2,0.1-0.3,0.3-0.4,0.4c0,0,0-0.1,0-0.1c0,0,0,0,0,0c0,0,0-0.1,0-0.1v0c0,0,0-0.1,0-0.1c0,0,0,0,0,0c0,0,0-0.1,0-0.1
			c0,0,0,0,0,0c0,0,0,0,0,0c0,0,0,0,0.1,0c0,0,0,0,0,0c0.1-0.1,0.2-0.1,0.4-0.1l0,0c0.2,0,0.4,0.1,0.5,0.2c0.2,0.2,0.5,0.2,0.7,0.2
			C41.2,32.5,41.1,32.7,41,32.8 M21.9,31.7C21.9,31.7,21.9,31.7,21.9,31.7C21.9,31.7,21.9,31.7,21.9,31.7
			C21.9,31.8,21.9,31.8,21.9,31.7c-0.1,0.1-0.2,0.1-0.2,0.1c-0.1,0-0.2,0-0.3,0c0,0.1,0,0.1,0.1,0.2v0c0,0,0,0,0,0c0,0,0.1,0,0.1,0
			c0.1,0,0.1,0,0.1,0.1c0,0.1-0.2,0.2-0.3,0.2c-0.2,0-0.3-0.2-0.4-0.4c0,0,0,0-0.1,0c0,0,0,0,0,0c-0.2-0.1-0.4-0.1-0.7-0.1
			c0-0.5,1.3-0.1,1.3-0.1C21.7,31.6,21.8,31.6,21.9,31.7C21.9,31.7,21.9,31.7,21.9,31.7 M27.7,38.5c0,0-0.6-0.2-1.4,0.3
			c0,0-0.7,0.5-0.8,0.5c0,0,0.2-0.8,0.3-1.6c-0.1,0-0.3,0-0.4,0c-0.1,0.8-0.3,1.7-0.6,1.8l-0.5,0.1c0-0.1,0-0.1-0.1-0.2
			c-0.1-0.1-0.2-0.2-0.5-0.2c0,0,0,0,0,0c-0.2,0.1-0.4,0.2-0.4,0.5c-0.1,0-0.9,0.1-1.3-0.2c0,0,0.8-0.3,0.8-0.5c0,0,0.2-0.4-0.5-0.9
			c0,0-0.6-0.3-0.7,0c0,0-0.1,0.2,0.2,0.4c0,0,0.3,0.3-0.2,0.2c0,0-0.4,0-0.5-0.2c0,0,0.1-1,0.3-1.6c-0.2-0.1-0.4-0.1-0.6-0.2
			c-0.1,0.2-0.2,0.4-0.2,0.7c0,0,0,0.6-0.2,0.7c0,0-0.7-0.6-0.4-1.7c-0.2-0.1-0.5-0.1-0.7-0.2c0,0.5,0.1,1.3,0.8,2.5
			c0,0-0.6,0.8-1.2,0.4c0,0-0.9-0.6-0.3-1.1c0,0,0.4-0.3,0.5,0.1c-0.2,0-0.4,0.2-0.4,0.4c0,0.2,0.2,0.4,0.4,0.4
			c0.2,0,0.4-0.2,0.4-0.3c0-0.1,0-0.5-0.3-0.8c0,0-0.3-0.3-0.8-0.2c0,0,0.5-0.6,0.5-1.2c0,0,0-0.1,0-0.2c-0.1-0.1-0.3-0.1-0.4-0.2
			c0,0.5-0.2,1.5-0.9,1.2c0,0,0.5-0.8,0.8-1.3c-0.3-0.1-0.6-0.2-0.9-0.4c0,0,0,0-0.1,0c0,0.2,0.1,0.8-0.2,1.1c0,0-0.4,0.3-1-0.2
			c0,0,0.8-0.7,1.1-1c-0.2-0.1-0.4-0.1-0.7-0.1h-0.2c0,0,0,0,0,0c0,0-0.5,0.4-0.9,0.6c0,0-0.1,0.1-0.2,0c0,0-0.7-0.8-0.2-1.6
			c0,0,0.3-0.7,1-0.6c0,0,0.2,0,0.3,0.3c0,0-0.6,0-0.6,0.5c0,0,0,0.5,0.6,0.4c0,0,0.8-0.1,0.6-1c0,0-0.1-0.6-0.6-0.6
			c0,0,0.3-0.3,0.1-0.4c0,0-0.2-0.2-0.6,0.1c0,0-0.1,0.2-0.6,0.1c0,0-0.3-0.1-0.5,0.1c0,0-0.1,0-0.1,0.4c0,0,0,0.1-0.2,0.5
			c0,0-0.1,0.3-0.2,0.7c-0.2-0.1-0.3-0.2-0.5-0.2c-0.3-0.3-0.3-1.5-0.6-2.2c-0.1-0.1,0.1-0.8,0.1-1.5c1.9-0.4,2.6-1.9,2.8-2.5
			c0.3-1.1-0.1-2.1-0.1-2.4c0,0,0,0,0.1,0c0.1,0.2,0.2,0.3,0.2,0.5c0.9,0.1,1.6-0.1,2-0.2c0,0,0,0,0.1,0c0,0,0.1,0,0.1,0
			c0.1,0,0.2-0.1,0.2-0.1c0,0,0.1,0,0.1,0c1.3-0.7,1.9-1.8,2.3-2.4c-0.2,0-0.8-0.2-1-0.5c0.5,0,0.9,0.2,1.4,0.2c0.7,0,1.2-0.4,2-0.3
			c0,0,0.1,0.4,0.6,0.6c0,0.5,0,0.8,0.2,1.2c0,0.1,0.1,0.1,0.1,0.1s-0.6,0.5-0.4,0.9c0,0.1,0.1,0.2,0.1,0.3c0,0-0.1,0-0.1,0
			c-0.1,0-0.2,0.1-0.3,0.3c-0.1,0.1-0.4,0.8-0.1,0.8c0.1,0,0.1,0,0.1,0c-0.1,0.7-0.1,1.6,0.4,2.4l0,0c0,0.1,0.9,1.5,3.2,1.5h0
			c0.2,0,2.3,0,3,1.4c0,0.1,0.2,0.3,0.4,0.3c0.2,0,0.3-0.2,0.4-0.3c0.7-1.4,2.8-1.4,3-1.4h0c2.3,0,3.2-1.4,3.2-1.5l0,0
			c0.3-0.4,0.4-0.8,0.5-1.3c0.5-0.3,0.4-1.3,0.4-1.5c0.1,0.2,0.4,0.7,1,0.8C39,28.2,39,29,39.6,29.1c0.2,0,0.3-0.2,0.3-0.4
			c0.5,1.3,0.1,2.1,0.4,2.2c0.4,0,0.5-0.8,0.5-0.8c0,0.1,0.2,0.3,0.2,0.6c0,0.4-0.1,0.8,0.1,0.9c0.6,0.1,0.3-1.7,0.8-1.5
			c-0.1,0.8,0,1.2,0.3,1.3c0,0.4-0.1,0.7-0.2,0.7c-0.9,0.2-1.7-0.5-2.4-0.3c-0.1,0-0.1-0.1-0.1-0.1c-1.4-0.7-2.3-0.2-2.3-0.3
			c-0.4-0.4-0.5,0.2-0.7,0.1c-0.7-0.4-1.1,0.3-1.3,0.3c-0.2,0-0.5-0.4-0.8,0.5c-0.2,0.4-1,0.5-1,0.5c-0.3,0-0.4-0.2-0.4-0.2
			c0-0.1-0.1-0.2-0.1-0.2c0-0.1-0.1-0.1-0.1-0.2c-0.1-0.1-0.2-0.1-0.3-0.1c-0.2,0-0.4,0.2-0.4,0.5c0,0.1,0,0.2,0.1,0.3
			c0,0,0.1-0.1,0.2-0.1c0.2,0,0.3,0.1,0.3,0.3v0c0,0.4-0.5,0.7-0.5,0.7c-0.3,0.3-0.7-0.1-0.7-0.1c-0.2-0.2-0.4-0.2-0.4-0.2
			c-0.2,0-0.3,0.3-0.3,0.3s-0.1-0.3-0.3-0.3c0,0-0.2,0-0.4,0.2c0,0-0.4,0.4-0.7,0.1c0,0-0.6-0.4-0.5-0.7v0c0-0.2,0.1-0.3,0.3-0.3
			c0.1,0,0.2,0.1,0.2,0.1c0.1-0.1,0.1-0.2,0.1-0.3c0-0.2-0.2-0.4-0.4-0.5c-0.1,0-0.2,0-0.3,0.1c0,0-0.1,0.1-0.1,0.2
			c0,0.1-0.1,0.1-0.1,0.2c0,0-0.1,0.2-0.4,0.2c-0.1,0-0.9-0.2-1-0.5C26.5,31.6,26.1,32,26,32c-0.2,0-0.6-0.7-1.3-0.3
			c-0.1,0.1-0.3-0.5-0.7-0.1c-0.1,0.1-0.8-0.4-1.9,0c-0.1-0.1-0.4-0.2-0.5-0.2c-0.2-0.1-0.4-0.2-0.6-0.3c-0.3-0.2-0.8-0.1-1.2-0.1
			c-0.1,0-0.3-0.1-0.5-0.2c-0.5-0.3-1-0.6-1.3-1c0-0.1-0.2-0.2-0.2-0.3c-0.1-0.2-0.2-0.3-0.3-0.6c-0.2-0.6,0.1-1.2,0.2-1.7
			c0-0.3,0-0.4,0.1-0.5c-0.4,0.1-1,0.1-1.7-0.1c0.2,0.6,0.2,1.2,0.1,1.7c0.3,0.2,0.4,0.6,0.5,0.7c0,0.3-0.1,0.6,0.1,0.8
			c0.2,0.3,0.8,0.7,1.1,0.9c0.1,0.1,1.7,1.3,1.9,1.3c0.2,0,0.4-0.1,0.6-0.1c0.1,0,0.1,0.1,0.2,0.1c0,0,0.1,0.1,0.3,0.3
			c-0.5,0.3-1.1,0.7-1.5,0.9c0,0-0.7,0.4-0.4,0.4c0,0,0.5,0,0.5,0.1c0,0-0.2,0.1-0.5,0.2c0.7,0.3,1.5,0.5,2.3,0.7
			c0.5-0.5,1.1-1,1.7-1.2c0,0,0.9,0,1.2-0.6c0.1-0.2,0.5,0.4,1.2-0.1c0.1,0,0.2,0.2,0.4,0.2c0.1,0-0.3,0.1-0.2,0.4
			c0,0-0.6,0-0.8,0.4c-0.1,0.1-1.4,0.1-2.6,1.1c0.2,0.1,0.5,0.1,0.7,0.2c0.4-0.3,0.9-0.5,1.4-0.5c0,0,0.7,0,1.1,0.9
			c0.5,0.1,0.9,0.1,1.4,0.2c0,0,0,0,0,0c0.1-0.1,0.8-0.4,0.5-0.8c0,0-0.2-0.2-0.4,0.1c0,0-0.2,0.2-0.2-0.1c0,0,0-0.1-0.1-0.3
			c0,0-0.1-0.2,0.1-0.1c0,0,0.2,0.1,0.5,0c0.2,0,0.4-0.2,0.4-0.4c0-0.2-0.2-0.5-0.4-0.5c0,0-0.1,0-0.1,0c0,0,0.1,0.1,0.1,0.1
			c0,0.1-0.1,0.2-0.2,0.2c-0.3-0.1-0.2-0.6,0.2-0.6c0,0,0.3,0,0.6,0.3c0,0,0.6,0.9,1.2,1.1c0,0-0.1,0.3,0.3,0.4c0,0,0,0.3,0.4,0.3
			c0,0,0.1,0.1,0.2,0.3c0.3,0,0.6,0,1,0c0.3,0,0.7,0,1,0c0.1-0.2,0.2-0.3,0.2-0.3c0.4,0,0.3-0.3,0.4-0.3c0.4-0.1,0.2-0.4,0.3-0.4
			c0.6-0.2,1.2-1.1,1.2-1.1c0.3-0.3,0.6-0.3,0.6-0.3c0.4,0,0.4,0.5,0.2,0.6c-0.1,0-0.2-0.1-0.2-0.2c0-0.1,0-0.1,0.1-0.1
			c0,0,0,0-0.1,0c-0.2,0-0.4,0.2-0.4,0.5c0,0.2,0.2,0.4,0.4,0.4c0.2,0,0.5,0,0.5,0c0.3-0.1,0.1,0.1,0.1,0.1
			c-0.1,0.1-0.1,0.3-0.1,0.3c-0.1,0.2-0.2,0.1-0.2,0.1c-0.3-0.3-0.4-0.1-0.4-0.1c-0.3,0.4,0.4,0.7,0.5,0.8c0,0,0,0,0,0
			c0.5,0,0.9-0.1,1.4-0.2c0.3-0.9,1.1-0.9,1.1-0.9c0.6,0,1,0.2,1.4,0.5c0.2,0,0.5-0.1,0.7-0.2c-1.2-1-2.6-1-2.6-1.1
			c-0.2-0.4-0.9-0.3-0.8-0.4c0.1-0.3-0.3-0.4-0.2-0.4c0.2-0.1,0.3-0.3,0.4-0.2c0.8,0.4,1.1-0.1,1.2,0.1c0.3,0.6,1.2,0.6,1.2,0.6
			c0.6,0.2,1.2,0.7,1.7,1.2c0.7-0.2,1.4-0.4,2.1-0.6c0,0,0,0,0,0c0,0,0-0.1,0-0.1c0,0,0,0,0,0l0,0c0-0.1-0.1-0.1-0.1-0.2
			c-0.2-0.3-0.4-0.6-0.5-0.7c0,0,0,0,0,0c0,0,0,0,0,0c0,0,0.5-0.8,0.8-0.2c0,0.1,0,0.3-0.3,0.3c0,0,0.4,0.6,0.5,1c0,0,0,0,0,0
			c0.2-0.1,0.3-0.1,0.3-0.1c0,0,0.1,0,0.1,0c-0.2-0.4-0.5-0.6-0.4-0.7c0.1,0,0.4,0.1,0.5-0.1c0-0.1,0.1-0.3,0.1-0.6
			c0.2,0.1,0.4,0.1,0.5,0.1c0.5,0,0.7-0.8,0.6-1.1c0.1,0,0.4-0.3,0.4-0.2c0.2,0.4,1,0.8,0.9-0.1c0.1,0.4,0.2,0.9,0.7,0.8
			c0.3-0.1,0.1-0.7,0.2-0.7c0.1,0.2,0.2,0.8,0.8,0.7c0.2-0.1,0.3-0.2,0.3-0.4c0-0.6-1.8-4-2-5.5c0,0-0.1,0-0.1,0
			c-0.2-0.1-0.2-0.4-0.2-0.6c0,0,0,0,0,0c-0.2,0-0.6-0.2-0.6-0.9c0-0.6,0.2-0.8,0.3-0.8c0,0,0,0,0,0.1c-0.1,0.4-0.2,1,0.1,1.2
			c0.1,0.1,0.2,0.1,0.3,0.1c0.1-0.2,0.2-0.3,0.3-0.3c0,0,0,0,0,0c-0.2,0.3-0.2,0.7,0,0.9c0.1,0.1,0.2,0.1,0.3,0.1
			c0.5-0.2,0.8-1.2,0.9-1.5c0.3,0.1-0.6,2.1,0.1,2.5c0.3,0,0.4-0.4,0.6-0.6c0.2,0.6-0.7,1.8,0,2.1c0.4,0.1,0.6-1,0.6-0.8
			c0.1,1.6-0.7,2.4-0.2,2.7c0.5,0.2,0.6-1.1,0.6-1c0,1.8-0.9,2.2-0.5,2.5c0.4,0.2,0.7-0.9,0.7-0.6c0,1.6-0.8,2-0.5,2.5
			c0.4,0.6,1.2-1,1.2-0.7c0,0.4-0.9,2.2-0.3,2.3c0.4,0.1,0.6-0.5,0.6-0.6c1.4-4.5,1.4-8.9,1.3-10.4c-0.1-2.3-0.3-4.4-0.9-6.3
			c-0.3-1.2-1-3.6-2.5-3.9c-0.7-0.2-1.3,0.5-1.3,1.1c0,0.5,0.4,0.8,0.2,1.3c-0.2,0.3-0.4,0.7-0.5,1.1c-0.1,0.4,0.2,0.5,0.1,0.9
			c-0.5-0.1-0.7,0.3-1.4,0.2c-0.6,0.3-1.3,0.1-1.3,0.1c0,0,0,0,0,0c0.7,0,1.3-0.2,1.5-0.6c0.1-0.5,0.1-1.2-0.3-1.4
			c-0.4,0.1-0.6,0.4-2,0.3c-1.1-0.1-1.4,0.1-1.6,0.8c-0.1-0.1-0.1-0.2-0.1-0.3c0-0.4,0.4-0.6,0.9-0.7c0.1-0.2,0.1-0.3,0.1-0.5
			c-0.2,0-0.3,0-0.6,0c-0.5,0.1-1.3,0.4-1.5,0.9c0,0.1,0,0.2,0,0.3c0,0.1,0,0.2,0,0.2c0,0.1,0,0.1,0.1,0.2c0.2,0.4,0.6,0.6,1.5,0.6
			c0,0,0,0,0,0c0,0-0.2,0.1-0.4,0c0,0-0.8,0-1.2-0.4c0,0-0.1,0.1-0.1,0.1c-0.2,0.2-0.7,0.5-1,0.5c-0.4,0-0.9-0.2-1-0.5
			c-0.5-0.7,0.2-2,0.2-2.5c0-1.3-1.8-0.7-2.4-0.4c-0.8,0.4-1.4,1-1.9,1.7c-0.3,0.3-0.6,0.7-0.7,1.1c0.2,0.1,0.9,0.4,1.4,0.4l0,0
			c0,0,0.1,0,0.2,0c0.3,0,0.8,0,1.1-0.3c0,0,0.2-0.2,0.4-0.2c0.2,0,0.3,0.1,0.4,0.2c0.1,0.1,1.2,0.9,1.5,1.2c0,0,0.2,0.1,0.2,0.3
			c0,0.1,0,0.2-0.1,0.4c-0.1,0.1-0.6,0.7-1,1.6c-0.1,0.1-0.1,0.3-0.1,0.4c-0.1,0.5-0.2,1.2,0.4,1.4c0,0,0.7,0.2,0.7-1
			c0,0,0.1,0.8,0.7,0.7c0.2,0,0.4-0.2,0.4-0.8c0,0,0,0,0,0c-0.1-0.5,0-1,0.1-1.7c0,0,0,0,0-0.1c0,0,0,0.1,0.1,0.3
			c0,0.3-0.2,3,2.1,4.9c0,0-0.9-0.5-1.6-1.6c-0.4,0.2-0.9,0.7-0.7,1.7c0.1,0.4,0.4,0.7,0.6,0.8c0,0,0,0,0,0c0,0-0.1,0.1-0.3-0.1h0
			c0,0-0.1-0.1-0.1-0.1c-0.1-0.1-0.1-0.2-0.2-0.3c-0.3-0.2-0.5-0.5-0.7-0.7l0,0c-0.2-0.4-0.1-1.5-1.2-1.5c0,0,0,0-0.1,0h0
			c-0.1,0-0.1,0-0.2,0c0,0,0,0,0,0c-0.3-1-0.2-1.6-0.2-1.7c0.2-1.4,1.2-2.5,1.3-2.7c0,0,0.1-0.1,0.1-0.2c0-0.1,0-0.1-0.1-0.1l0,0
			c-0.4-0.2-1.4-1.1-1.6-1.2l0,0c-0.1-0.1-0.2-0.1-0.3-0.1c-0.1,0-0.2,0.1-0.2,0.1c-0.4,0.4-1,0.4-1.3,0.4c-0.1,0-0.2,0-0.2,0h0
			c-0.6,0-1.4-0.4-1.5-0.5c-1.1-0.4-1.9-0.5-2-0.5c-0.1,0-1,0-2,0.5C28.4,18.6,27.6,19,27,19h0c0,0-0.1,0-0.2,0
			c-0.3,0-0.8-0.1-1.3-0.4l0,0c0,0-0.1-0.1-0.2-0.1c-0.1,0-0.2,0-0.3,0.1l0,0c-0.1,0.1-1.2,0.9-1.6,1.2l0,0c0,0-0.1,0-0.1,0.1
			c0,0.1,0,0.1,0.1,0.2c0.1,0.1,1.1,1.3,1.3,2.7c0,0.1,0,0.3,0,0.6c-0.1-0.3-0.2-0.5-0.2-0.7c0-0.2-0.1-0.3-0.2-0.4l0,0
			c-0.1-0.2-0.4-0.4-0.6-0.5c-0.2-0.1-0.4-0.1-0.6-0.3c-0.3-0.2-0.6-0.4-0.8-0.8c0-0.7-0.4-1.2-0.4-1.2c0.1,0,0.5,0.3,0.6,1
			c0.5-0.5,0.8-1.3,0.9-2.2c0.4-0.5,1.5-0.3,1.9-0.3c0.1,0,0.3,0.1,0.4,0.1c0.1,0.1,0.1,0.3,0.3,0.3c0.2,0.1,0.4,0,0.6,0
			c0.1,0.1,0.1,0.2,0.2,0.3c0.1,0,0.1,0,0.1,0l0,0h0c0.6,0,1.4-0.4,1.5-0.4l0,0c0,0,0.1,0,0.1,0c-0.2-0.3-0.6-0.4-0.9-0.4
			c-0.4-0.1-0.6-0.4-1-0.5c-0.1,0-0.4-0.1-0.5,0c-0.9,0.1-1.5-0.2-2.2-0.3c-0.8-0.1-0.8,0.5-1.1,0.9c-0.1,0.2-0.2,0.3-0.4,0.5
			c-0.2,0.2-0.5,0.2-0.7,0.4c0,0,0,0,0,0c-0.1-0.3-0.2-0.7-0.4-1c0,0,0,0,0,0c0,0,0-0.1-0.1-0.1c-0.4-0.6-0.9-1.1-1.8-1.4
			c-0.2-0.1-0.2-0.1-0.3-0.2c-0.1-0.1,0-0.3,0-0.3c0.3-0.1,0.7-0.1,1-0.2c0.7-0.3,0.5-1,0.2-1c-0.4-0.1-1-0.2-1.2-0.3
			c-0.2-0.1-0.3-0.4-0.6-0.5c-0.2-0.1-0.4-0.1-0.6,0c-0.2,0-0.3,0.2-0.4,0.1c0.2-0.2,0.5-0.3,0.8-0.4c-0.3-0.1-0.2-0.6-0.5-0.7
			c-0.1,0-0.3,0-0.5,0.1c0-0.2-0.1-0.7-0.4-0.9c-0.2-0.1-0.3,0.1-0.3,0.2c0,0.1,0.4,0.3,0.4,0.8c-0.1,0-0.1,0.1-0.2,0.1
			c0-0.2-0.2-0.6-0.4-0.7c-0.2-0.1-0.3,0.1-0.3,0.2c0,0.1,0.3,0.3,0.4,0.7c-0.1,0.1-0.2,0.1-0.2,0.2c-0.5-0.1-0.6-0.5-0.7-0.5
			c-0.1,0-0.4,0-0.2,0.3c0.1,0.3,0.5,0.4,0.7,0.5C16,14,16,14.1,16,14.1c-0.6-0.1-0.7-0.5-0.8-0.5c-0.1,0-0.4,0-0.2,0.3
			c0.2,0.3,0.7,0.5,0.9,0.5c-0.1,0.2-0.1,0.3-0.1,0.4c-0.4-0.1-1.2,0.2-1.1,0.7c0.1,0.1,0.7-0.3,1.1-0.1c0.3,0.5,0.8,0.5,0.9,0.6
			c0.2,0.1,0.2,0.4,0.3,0.6c0.1,0.4,0.4,0.8,0.7,1.1c0.3,0.4,0.6,0.8,0.8,1.2c0,0.1,0.1,0.2,0,0.4c-0.3,0.5-1.3,1.1-1.7,1.5
			c-0.4,0.4-4.2,3.3-4.7,4.5C12,25.7,12,26,12,26.4c-0.2,0.1-0.6,0-0.8-0.1c-0.3-0.3,0.3-0.6,0.1-1c-0.1-0.2-0.3-0.2-0.4-0.2
			c-0.3,0.1-0.3,0.7-0.2,1c0,0.1,0.2,0.2,0.1,0.3c-0.1,0.1-0.2-0.1-0.2-0.3c-0.1,0.1-0.2,0.2-0.1,0.3c0.1,0.3,0.4,0.3,0.5,0.4
			c0,0.1-0.2,0.2-0.3,0.1c-0.2,0.3,0,0.4,0.1,0.4c0.2,0,0.5-0.2,0.6-0.2c0.1,0.2,0,0.2-0.3,0.3c0.4,0.5,0.7-0.3,1.1-0.2
			c0.1,0,1.3,1.1,1.1,2c0,0-0.1,0.2-0.1,0.2c-0.3,0.3-0.7,0.6-1,0.9c-0.6,0.4,0.6,2.9,0.5,4.2c-0.1,0.5,0.4,0.4,0.7,1.2
			c-0.3,0-0.6,0.1-0.8,0.3c0,0,0,0,0,0.1l0,0c-0.1,0.1-0.1,0.2-0.1,0.3c0,0.3,0.3,0.6,0.6,0.6c0.3,0,0.6-0.3,0.6-0.6
			c0,0,0-0.1,0-0.1c0.1,0,0.3,0,0.5,0.1l0.6,0.3c0,0-1.9,1.6-5.1,0.7c0,0-1.4-0.5-1-1.7c0,0,0.1-0.2,0.3-0.3c0,0.2,0.1,0.3,0.3,0.4
			c0.1,0.1,0.3,0.1,0.4,0.1c0.4,0,0.7-0.3,0.7-0.7c0-0.2-0.1-0.4-0.2-0.5c0,0-0.1-0.1-0.1-0.1c0,0,0,0,0,0c0,0,0,0,0,0
			c-0.2-0.1-0.5-0.2-1-0.1c0,0-1.4,0.4-0.9,1.9c0,0-0.9-0.2-1.3,0.2c0,0-0.1,0.1-0.1,0.4v0v0c0,0.1,0,0.2,0.1,0.3
			c0.1,0.1,0.3,0.2,0.4,0.2c0.2,0,0.3-0.1,0.4-0.2c0,0,0,0,0,0c0-0.1,0.1-0.1,0.3,0.1c0,0,1.3,1.4,3.2,1.2c0,0,0.1,1,0.7,1.2
			c0,0,0.1,0,0.1,0c0.2,0,0.3-0.2,0.3-0.3c0-0.2-0.1-0.3-0.3-0.3c0,0,0,0,0,0c0,0-0.1-0.3,0-0.5c0,0,2.1-0.3,3.5-1.4
			c0,0,1,0.3,1.6,0.3c0,0,0.1,0.2-0.3,0.3c0,0-0.5,0-0.5,0.2c0,0,0,0.2,0.4,0.2c0,0-0.1,0.2,0.3,0.4c0,0,0.2,0.1,0.1,0.3
			c0,0-0.4,0.2-0.3,0.5c0,0,0.1,0.3,0.7,0.2c0,0,0.2,0,0,0.2c0,0-0.3,0.3,0.2,0.6c0,0,0.4,0.2,0.6-0.2c0,0,0.1-0.2,0.3,0
			c0,0,1.2,0.6,1.9-0.4c0,0,0-0.1,0.2,0.1c0,0,0.6,0.8,2.4,0.8c0.1,0.2,0.3,0.3,0.6,0.3c0.3,0,0.6-0.2,0.6-0.5c0.2,0,1-0.1,1.8-0.6
			c0,0,0.3-0.2,0.6-0.3c0,0.5,0.4,0.9,0.9,0.9c0.5,0,0.9-0.4,0.9-0.9C28.5,39,28.2,38.6,27.7,38.5"/>
		<path class="st2" d="M36.2,26.5v2.1C36.6,27.7,36.4,27,36.2,26.5"/>
		<path class="st2" d="M40.4,15c0.1,0,0-0.3,0.2-0.3c0.2,0,0.6,0.2,0.7,0.4c0.1,0.3-0.2,0.9,0.7,1c0,0,0,0.1,0,0.3h0
			c0,0.2-0.1,0.3-0.1,0.5c0.1,0,0.1,0,0.2,0c1.1,0.1,1.8,0,2.1-0.4c0,0,0.2-0.2,0.3-0.4c0.3-0.6,0.3-1.1,0.2-1.6h0c0,0,0-0.1,0-0.1
			c0-0.1,0-0.1-0.1-0.2c-0.3-0.5-0.9-1-1.8-1.3c-0.1,0-0.1,0-0.2,0c0,0,0,0,0,0c0,0,0,0,0,0l0,0h0c0,0,0.2,0,0.2,0
			c0.6,0.1,1.7,0.7,1.9,1.3c0.2-0.1,0.4-0.5,0.4-0.8c0-0.1,0-0.4,0.1-0.8c0-0.1,0-0.2-0.1-0.3c-0.1,0-0.2,0-0.3,0.1
			c-0.2,0.3-0.5,0.1-0.4-0.2c0-0.1,0-0.2-0.1-0.3c-0.1,0-0.2,0-0.3,0.1c-0.1,0.3-0.5,0.1-0.4-0.2c0-0.1,0-0.2-0.1-0.3
			c-0.1,0-0.2,0-0.3,0.1c-0.1,0.3-0.5,0.1-0.4-0.2c0-0.1,0-0.2-0.1-0.3c-0.1,0-0.2,0-0.2,0.1c-0.1,0.2-0.2,0.4-0.3,0.5
			c0.7,0.1,1.4,0.5,1.9,1c0,0,0.2,0.2,0.2,0.3l0,0h0c0,0,0,0.1,0,0.1c0,0,0,0,0,0c-0.1-0.1-0.1-0.2-0.2-0.2c-0.8-0.6-1.4-0.9-2-1
			c-0.4,0-0.3,0.5-0.2,0.7c-0.6-0.1-1.1,0.3-1.1,0.8c0,0.2,0,0.3,0.1,0.5c0,0,0,0,0,0c0,0-0.1-0.1-0.2-0.2c0-0.1-0.1-0.2-0.1-0.3
			c-0.5,0-1,0.3-0.9,0.8C39.9,14.7,40.2,15,40.4,15 M42.2,14.3c0.1-0.2,0.2,0.5,0.7,0.3C42.5,15.1,42,14.6,42.2,14.3 M42.1,14
			c0.2-0.1,0.4-0.5,0.7-0.3c0.1,0.1,0.3,0.2,0.4,0.3c0.2,0.1,0.3,0.2,0.4,0.4c0.1,0.2-0.2,0.6-0.4,0.2c-0.2-0.3-0.4-0.8-0.8-0.6
			c-0.3,0.2-0.6,0.4-0.6,0.2C41.7,14,42,14,42.1,14 M40.7,14.1c-0.1,0.2-0.4,0.2-0.4,0.4C40,14.3,40.5,13.8,40.7,14.1"/>
		<path class="st2" d="M54.3,36.6c-0.4-0.4-1.3-0.2-1.3-0.2c0.5-1.5-0.9-1.9-0.9-1.9c-0.5-0.1-0.8,0-1,0.1c0,0,0,0,0,0c0,0,0,0,0,0
			c0,0-0.1,0.1-0.1,0.1c-0.1,0.1-0.2,0.3-0.2,0.5c0,0.4,0.3,0.7,0.7,0.7c0.2,0,0.3,0,0.4-0.1c0.1-0.1,0.2-0.3,0.3-0.4
			c0.2,0.1,0.3,0.3,0.3,0.3c0.4,1.3-1,1.7-1,1.7c-3.2,0.9-5.1-0.7-5.1-0.7l0.6-0.3c0.2-0.1,0.4-0.1,0.5-0.1c0,0,0,0.1,0,0.1
			c0,0.3,0.3,0.6,0.6,0.6c0.3,0,0.6-0.3,0.6-0.6c0-0.1,0-0.2-0.1-0.3l0,0c0,0,0-0.1,0-0.1c-0.4-0.6-1.6-0.2-1.6-0.2
			c0.4-1,0-1.8,0-1.8c-0.2-0.4-0.2-0.5-0.2-0.5c0-0.4-0.1-0.4-0.1-0.4c-0.2-0.3-0.5-0.1-0.5-0.1c-0.5,0.1-0.6-0.1-0.6-0.1
			c-0.4-0.3-0.6-0.1-0.6-0.1c-0.2,0.1,0.1,0.4,0.1,0.4c-0.5,0-0.6,0.6-0.6,0.6c-0.2,1,0.6,1,0.6,1c0.6,0,0.6-0.4,0.6-0.4
			c0.1-0.4-0.6-0.5-0.6-0.5c0.1-0.3,0.3-0.3,0.3-0.3c0.7-0.2,1,0.6,1,0.6c0.5,0.8-0.2,1.6-0.2,1.6c-0.1,0.1-0.2,0-0.2,0
			c-0.4-0.2-0.9-0.6-0.9-0.6c0,0,0,0,0,0h-0.2c-0.2,0-0.5,0.1-0.7,0.1c0.3,0.3,1.1,1,1.1,1c-0.6,0.5-1,0.2-1,0.2
			c-0.3-0.3-0.2-0.9-0.2-1.1c0,0,0,0-0.1,0c-0.3,0.1-0.6,0.2-0.9,0.4c0.3,0.5,0.8,1.3,0.8,1.3c-0.7,0.3-0.9-0.7-0.9-1.2
			c-0.1,0.1-0.3,0.1-0.4,0.2c0,0.1,0,0.2,0,0.2c0,0.5,0.5,1.2,0.5,1.2c-0.5-0.1-0.8,0.2-0.8,0.2c-0.3,0.3-0.3,0.7-0.3,0.8
			c0,0.2,0.2,0.3,0.4,0.3c0.2,0,0.4-0.2,0.4-0.4c0-0.2-0.2-0.4-0.3-0.4c0.2-0.4,0.5-0.1,0.5-0.1c0.6,0.5-0.3,1.1-0.3,1.1
			c-0.6,0.4-1.2-0.4-1.2-0.4c0.7-1.2,0.8-2,0.8-2.5c-0.2,0.1-0.5,0.2-0.7,0.2c0.3,1.1-0.4,1.7-0.4,1.7c-0.2-0.1-0.2-0.7-0.2-0.7
			c-0.1-0.2-0.1-0.5-0.2-0.7c-0.2,0.1-0.4,0.1-0.6,0.2c0.2,0.7,0.3,1.6,0.3,1.6c-0.1,0.1-0.5,0.2-0.5,0.2c-0.5,0-0.2-0.2-0.2-0.2
			c0.3-0.2,0.2-0.4,0.2-0.4c-0.2-0.4-0.7,0-0.7,0c-0.8,0.4-0.5,0.9-0.5,0.9c0.1,0.3,0.9,0.5,0.9,0.5c-0.4,0.3-1.2,0.2-1.3,0.2
			c0-0.2-0.2-0.4-0.4-0.4c0,0,0,0,0,0c-0.3,0-0.4,0.1-0.5,0.2c0,0-0.1,0.1-0.1,0.2l-0.5-0.1c-0.3,0-0.5-1-0.6-1.8
			c-0.1,0-0.3,0-0.4,0c0.1,0.9,0.3,1.6,0.3,1.6c-0.2,0-0.8-0.5-0.8-0.5c-0.8-0.5-1.4-0.4-1.5-0.3c-0.4,0.1-0.7,0.4-0.7,0.9
			c0,0.5,0.4,0.9,0.9,0.9c0.5,0,0.9-0.4,0.9-0.9c0.3,0.2,0.6,0.3,0.6,0.3c0.8,0.5,1.6,0.6,1.8,0.6c0.1,0.3,0.3,0.5,0.6,0.5
			c0.2,0,0.5-0.1,0.6-0.3c1.7-0.1,2.4-0.8,2.4-0.8c0.2-0.2,0.2-0.1,0.2-0.1c0.6,0.9,1.9,0.4,1.9,0.4c0.2-0.1,0.3,0,0.3,0
			c0.3,0.4,0.6,0.2,0.6,0.2c0.5-0.3,0.2-0.6,0.2-0.6c-0.2-0.2,0-0.2,0-0.2c0.6,0.1,0.7-0.2,0.7-0.2c0.1-0.3-0.3-0.5-0.3-0.5
			c-0.1-0.1,0.1-0.3,0.1-0.3c0.3-0.2,0.3-0.4,0.3-0.4c0.4,0,0.4-0.2,0.4-0.2c0-0.2-0.5-0.2-0.5-0.2c-0.4,0-0.3-0.3-0.3-0.3
			c0.6,0,1.6-0.3,1.6-0.3c1.4,1.1,3.5,1.4,3.5,1.4c0,0.2,0,0.5,0,0.5c0,0,0,0,0,0c-0.2,0-0.3,0.1-0.3,0.3c0,0.2,0.1,0.3,0.3,0.3
			c0,0,0.1,0,0.1,0c0.7-0.2,0.7-1.2,0.7-1.2c1.9,0.2,3.2-1.2,3.2-1.2c0.2-0.2,0.3-0.1,0.3-0.1c0,0,0,0,0,0c0.1,0.1,0.2,0.2,0.4,0.2
			c0.2,0,0.3-0.1,0.4-0.2c0.1-0.1,0.1-0.2,0.1-0.3v0v0C54.4,36.7,54.3,36.6,54.3,36.6"/>
		<path class="st2" d="M31.4,39c0.2-0.1,0.2-0.3,0.2-0.3c0-0.5-0.3-0.8-0.4-0.8c-0.2,0-0.5,0-0.7,0h0c-0.2,0-0.5,0-0.7,0
			c0,0-0.4,0.2-0.4,0.8c0,0,0,0.2,0.2,0.3c0,0-0.5,0.2-0.5,0.5c0,0-0.1,0.2,0.4,0.6c0,0,0.3,0.3,0.4,0.6c0,0,0,0.4,0.5,0.4
			c0.5,0,0.5-0.4,0.5-0.4c0.1-0.3,0.4-0.6,0.4-0.6c0.4-0.3,0.4-0.6,0.4-0.6C31.9,39.2,31.4,39,31.4,39"/>
		<polygon class="st2" points="35,36.9 35.2,36.9 35.1,36.6 		"/>
		<polygon class="st2" points="26.6,36.9 26.8,37 26.7,36.6 		"/>
		<path class="st2" d="M25.6,36.2C25.6,36.2,25.6,36.2,25.6,36.2l-0.1,0.4c0.1,0,0.1,0,0.2,0c0,0,0.1,0,0.1-0.1c0,0,0-0.1,0-0.1
			c0-0.1,0-0.1,0-0.2C25.7,36.3,25.7,36.3,25.6,36.2"/>
		<path class="st2" d="M29.2,36.5c-0.1,0-0.2,0-0.2,0.1c0,0.1-0.1,0.2-0.1,0.3c0,0.2,0,0.3,0.1,0.3c0,0.1,0.1,0.1,0.2,0.1
			c0.1,0,0.2,0,0.2-0.1c0.1-0.1,0.1-0.2,0.1-0.3c0-0.1,0-0.3-0.1-0.3C29.4,36.6,29.3,36.5,29.2,36.5"/>
		<path class="st2" d="M32.3,36.5c-0.1,0-0.1,0-0.2,0.1c0,0.1-0.1,0.2,0,0.3c0,0.2,0,0.3,0.1,0.3c0,0.1,0.1,0.1,0.2,0.1
			c0.1,0,0.2,0,0.2-0.1c0-0.1,0.1-0.2,0.1-0.3c0-0.1,0-0.3-0.1-0.3C32.5,36.6,32.4,36.5,32.3,36.5"/>
		<polygon class="st2" points="23.7,36.5 24,36.6 23.9,36.2 		"/>
		<path class="st2" d="M19,34.6L18.8,35l0,0c0.1,0,0.1,0,0.2,0c0,0,0.1-0.1,0.1-0.1c0-0.1,0-0.1,0-0.1c0,0,0-0.1-0.1-0.1
			C19.1,34.7,19,34.6,19,34.6"/>
		<path class="st2" d="M20.2,35c-0.1,0-0.2,0-0.2,0c-0.1,0.1-0.1,0.1-0.2,0.3c0,0.2-0.1,0.3,0,0.3c0,0.1,0.1,0.1,0.2,0.2
			c0.1,0,0.2,0,0.2,0c0.1,0,0.1-0.1,0.2-0.3c0-0.1,0.1-0.2,0-0.3C20.3,35.1,20.2,35.1,20.2,35"/>
		<path class="st2" d="M21.3,35.4C21.3,35.4,21.3,35.4,21.3,35.4l-0.1,0.4c0.1,0,0.1,0,0.2,0c0,0,0.1,0,0.1,0c0,0,0-0.1,0.1-0.1
			c0-0.1,0-0.1,0-0.2C21.5,35.4,21.4,35.4,21.3,35.4"/>
		<path class="st2" d="M40.1,35.4c0,0-0.1,0-0.2,0c0,0,0,0,0,0l0.1,0.4c0.1,0,0.1,0,0.2-0.1c0,0,0,0,0.1-0.1c0,0,0-0.1,0-0.1
			C40.2,35.5,40.2,35.4,40.1,35.4"/>
		<polygon class="st2" points="42.2,35.3 42.5,35.2 42.2,35 		"/>
		<path class="st2" d="M43.2,34c-0.1-0.1-0.2-0.1-0.4-0.1c-0.1,0-0.2,0-0.2,0c-0.5,0.1-4.8,2-12,2c-7.2,0-11.5-1.9-12-2
			c0,0-0.1,0-0.2,0c-0.1,0-0.3,0-0.3,0.1l-1.5,1.2h0c0.4,0,0.9,0.2,0.9,0.2c3.8,1.7,8.2,2.4,13.1,2.4c4.9,0,9.3-0.7,13.1-2.4
			c0,0,0.5-0.2,0.9-0.2h0L43.2,34z M29.2,36.1l0.3,0l-0.4,0.2h-0.1L29.2,36.1z M19.4,35c0,0.1-0.1,0.1-0.1,0.1c-0.1,0-0.1,0-0.2,0
			c-0.1,0-0.1,0-0.2-0.1l-0.1,0l-0.1,0.2c0,0,0,0.1,0,0.1c0,0,0,0,0.1,0.1l0,0l0,0.1l-0.5-0.2l0-0.1l0,0c0.1,0,0.1,0,0.1,0
			c0,0,0,0,0.1-0.1l0.2-0.6c0,0,0-0.1,0-0.1c0,0,0,0-0.1-0.1l0,0l0-0.1l0.4,0.1c0.1,0,0.2,0.1,0.2,0.1c0.1,0,0.1,0.1,0.1,0.1
			c0,0,0.1,0.1,0.1,0.1C19.4,34.9,19.4,35,19.4,35 M20.6,35.6c0,0.1-0.1,0.2-0.3,0.3C20.2,36,20,36,19.9,36c-0.1,0-0.2-0.1-0.3-0.2
			c-0.1-0.1-0.1-0.2-0.1-0.3c0-0.1,0-0.2,0-0.3c0-0.1,0.1-0.2,0.2-0.2c0.1-0.1,0.2-0.1,0.3-0.1c0.1,0,0.2,0,0.3,0
			c0.2,0.1,0.3,0.1,0.4,0.3C20.6,35.4,20.6,35.5,20.6,35.6 M21.6,36.1c0,0.1,0.1,0.2,0.1,0.2c0,0,0,0,0.1,0l0,0.1l-0.3-0.1
			c0,0,0-0.1-0.1-0.3c0-0.1,0-0.1,0-0.2c0,0,0,0,0-0.1c0,0,0,0-0.1,0l-0.1,0.2c0,0,0,0.1,0,0.1c0,0,0,0,0.1,0.1l0,0l0,0.1l-0.5-0.1
			l0-0.1l0,0c0.1,0,0.1,0,0.1,0c0,0,0,0,0-0.1l0.2-0.6c0,0,0-0.1,0-0.1c0,0,0,0-0.1-0.1l0,0l0-0.1l0.4,0.1l0.1,0
			c0.1,0,0.2,0,0.2,0.1c0,0,0.1,0,0.1,0.1c0,0,0.1,0.1,0.1,0.1c0,0,0,0.1,0,0.1c0,0.1-0.1,0.2-0.3,0.2C21.5,35.9,21.6,36,21.6,36.1
			 M23.3,36.8l-0.9-0.2l0-0.1h0c0,0,0.1,0,0.1,0c0,0,0,0,0-0.1l0.1-0.6c0,0,0-0.1,0-0.1c0,0,0,0-0.1,0l0,0l0-0.1l0.5,0.1l0,0.1l0,0
			c-0.1,0-0.1,0-0.1,0c0,0,0,0,0,0.1l-0.1,0.6c0,0,0,0.1,0,0.1c0,0,0,0,0,0c0,0,0.1,0,0.1,0c0.1,0,0.2,0,0.2,0
			c0.1,0,0.1-0.1,0.1-0.2l0.1,0L23.3,36.8z M24.4,37l-0.5-0.1l0-0.1c0,0,0.1,0,0.1,0c0,0,0,0,0,0c0,0,0,0,0-0.1l0,0l0-0.1l-0.3-0.1
			l0,0c0,0,0,0.1,0,0.1c0,0,0,0,0,0.1c0,0,0,0,0.1,0l0,0.1l-0.3-0.1l0-0.1c0.1,0,0.1,0,0.2-0.1l0.5-0.7l0.1,0l0.2,0.8
			c0,0.1,0,0.1,0.1,0.2C24.4,36.9,24.4,36.9,24.4,37L24.4,37z M26.1,37.3l-0.3,0c0,0-0.1-0.1-0.1-0.3c0-0.1-0.1-0.1-0.1-0.1
			c0,0,0,0,0,0c0,0-0.1,0-0.1,0l0,0.2c0,0,0,0.1,0,0.1c0,0,0,0,0.1,0h0l0,0.1L25,37.1l0-0.1l0,0c0.1,0,0.1,0,0.1,0c0,0,0,0,0-0.1
			l0.1-0.6c0,0,0-0.1,0-0.1c0,0,0,0-0.1,0l0,0l0-0.1l0.4,0.1l0.1,0c0.1,0,0.2,0,0.2,0c0,0,0.1,0,0.1,0.1c0,0,0.1,0.1,0.1,0.1
			c0,0,0,0.1,0,0.1c0,0.1-0.1,0.2-0.2,0.2c0,0,0.1,0.1,0.1,0.2c0,0.1,0.1,0.2,0.1,0.2C26.1,37.2,26.1,37.2,26.1,37.3L26.1,37.3z
			 M27.3,37.4l-0.5,0l0-0.1c0,0,0.1,0,0.1,0c0,0,0,0,0,0c0,0,0,0,0-0.1l0,0l0-0.1l-0.3,0l0,0c0,0,0,0.1,0,0.1c0,0,0,0,0,0.1
			c0,0,0,0,0.1,0l0,0.1l-0.3,0l0-0.1c0.1,0,0.1,0,0.2-0.1l0.4-0.8l0.1,0l0.2,0.8c0,0.1,0,0.1,0.1,0.1C27.2,37.3,27.3,37.3,27.3,37.4
			L27.3,37.4z M28.4,36.5l-0.6,0.8l0.2,0c0.1,0,0.1,0,0.1,0c0,0,0.1,0,0.1-0.1c0,0,0.1-0.1,0.1-0.1l0.1,0l0,0.3l-0.9-0.1l0-0.1
			l0.6-0.8l-0.2,0c-0.1,0-0.2,0-0.2,0c0,0-0.1,0.1-0.1,0.1l-0.1,0l0-0.3L28.4,36.5L28.4,36.5z M29.6,37.4c-0.1,0.1-0.2,0.1-0.4,0.1
			c-0.1,0-0.2,0-0.3-0.1c-0.1-0.1-0.2-0.1-0.2-0.2c0-0.1-0.1-0.2,0-0.3c0-0.1,0-0.2,0.1-0.3c0.1-0.1,0.1-0.1,0.2-0.2
			c0.1,0,0.2-0.1,0.3-0.1c0.2,0,0.3,0.1,0.4,0.2c0.1,0.1,0.1,0.2,0.1,0.4C29.7,37.1,29.7,37.3,29.6,37.4 M31.1,36.6
			C31.1,36.6,31,36.6,31.1,36.6c-0.1,0-0.1,0.1-0.1,0.1c0,0,0,0.1,0,0.1l0,0.8h-0.1l-0.7-0.8v0.5c0,0.1,0,0.1,0,0.1c0,0,0.1,0,0.1,0
			v0.1H30v-0.1c0,0,0.1,0,0.1,0c0,0,0,0,0-0.1c0,0,0-0.1,0-0.1l0-0.5c0-0.1,0-0.2-0.1-0.2v-0.1l0.3,0l0.6,0.6l0-0.4
			c0-0.1-0.1-0.2-0.1-0.2v-0.1L31.1,36.6L31.1,36.6z M32.8,37.3c-0.1,0.1-0.2,0.2-0.4,0.2c-0.1,0-0.2,0-0.3-0.1
			c-0.1,0-0.2-0.1-0.2-0.2c0-0.1-0.1-0.2-0.1-0.3c0-0.1,0-0.2,0.1-0.3c0-0.1,0.1-0.2,0.2-0.2c0.1,0,0.2-0.1,0.3-0.1
			c0.2,0,0.3,0,0.4,0.1c0.1,0.1,0.2,0.2,0.2,0.4C32.9,37.1,32.9,37.2,32.8,37.3 M33.7,37.4L33.7,37.4L33.7,37.4
			c0.1-0.1,0.1-0.1,0.1-0.1c0,0,0-0.1,0-0.1l-0.1-0.6c0,0,0-0.1,0-0.1c0,0,0,0-0.1,0l0,0l0-0.1l0.5,0l0,0.1l0,0c-0.1,0-0.1,0-0.1,0
			c0,0,0,0.1,0,0.1l0.1,0.6c0,0,0,0.1,0,0.1c0,0,0,0,0,0c0,0,0.1,0,0.1,0c0.1,0,0.2,0,0.2-0.1c0,0,0.1-0.1,0.1-0.2l0.1,0l0,0.3
			L33.7,37.4z M35.2,37.3L35.2,37.3c0-0.1,0.1-0.1,0.1-0.1c0,0,0,0,0,0c0,0,0,0,0,0l0,0l0-0.1l-0.3,0l0,0.1c0,0,0,0.1,0,0.1
			c0,0,0,0,0,0c0,0,0,0,0.1,0l0,0.1l-0.3,0l0-0.1c0.1,0,0.1-0.1,0.1-0.2l0.2-0.8l0.1,0l0.4,0.8c0,0.1,0.1,0.1,0.1,0.1
			c0,0,0.1,0,0.1,0l0,0.1L35.2,37.3z M37,36.2c0,0,0-0.1-0.1-0.1c0,0,0,0-0.1,0c0,0-0.1,0-0.1,0l-0.2,0l0.1,0.4l0.1,0
			c0,0,0.1,0,0.1,0c0,0,0-0.1,0-0.1L37,36.2l0,0.4l-0.1,0c0-0.1,0-0.1,0-0.1c0,0,0,0-0.1,0l-0.1,0l0,0.3c0,0,0,0.1,0,0.1
			c0,0,0.1,0,0.1,0l0,0l0,0.1l-0.5,0.1l0-0.1l0,0c0.1,0,0.1,0,0.1,0c0,0,0-0.1,0-0.1l-0.1-0.6c0,0,0-0.1,0-0.1c0,0-0.1,0-0.1,0l0,0
			l0-0.1L37,36L37,36.2L37,36.2z M38.2,36l0.1,0.3c0,0.1,0,0.1,0,0.2c0,0,0,0.1,0,0.1c0,0.1-0.1,0.1-0.1,0.1c-0.1,0-0.1,0.1-0.2,0.1
			c-0.1,0-0.1,0-0.2,0c-0.1,0-0.1,0-0.2-0.1c0,0-0.1-0.1-0.1-0.1c0,0,0-0.1,0-0.2l-0.1-0.4c0,0,0-0.1,0-0.1c0,0-0.1,0-0.1,0l0-0.1
			l0.5-0.1l0,0.1l0,0c0,0-0.1,0-0.1,0c0,0,0,0.1,0,0.1l0.1,0.4c0,0.1,0,0.1,0.1,0.2c0,0,0,0.1,0.1,0.1c0,0,0.1,0,0.2,0
			c0.1,0,0.1,0,0.1-0.1c0,0,0.1-0.1,0.1-0.1c0,0,0-0.1,0-0.2L38.2,36c-0.1-0.1-0.2-0.1-0.3-0.1l0-0.1l0.4-0.1l0,0.1c0,0,0,0-0.1,0
			C38.2,35.9,38.2,35.9,38.2,36C38.2,35.9,38.2,36,38.2,36 M38.7,36.7L38.7,36.7L38.7,36.7c0-0.1,0.1-0.1,0.1-0.1c0,0,0-0.1,0-0.1
			l-0.1-0.6c0,0,0-0.1,0-0.1c0,0,0,0-0.1,0l0,0l0-0.1l0.9-0.2l0.1,0.3l-0.1,0c0,0-0.1-0.1-0.1-0.1c0,0,0,0-0.1,0c0,0-0.1,0-0.1,0
			l-0.2,0l0.1,0.3l0.1,0c0,0,0.1,0,0.1,0c0,0,0-0.1,0-0.1l0.1,0l0.1,0.3l-0.1,0c0,0,0,0,0,0c0,0,0-0.1,0-0.1c0,0-0.1,0-0.1,0l-0.1,0
			l0.1,0.2c0,0.1,0,0.1,0,0.1c0,0,0,0,0.1,0c0,0,0.1,0,0.1,0c0.1,0,0.1,0,0.1-0.1c0,0,0-0.1,0.1-0.1c0,0,0-0.1,0-0.1l0.1,0l0.1,0.3
			L38.7,36.7z M40.6,36.2c0,0-0.1-0.1-0.2-0.2c-0.1-0.1-0.1-0.1-0.1-0.1c0,0,0,0-0.1,0c0,0-0.1,0-0.1,0l0.1,0.2c0,0,0,0.1,0,0.1
			c0,0,0.1,0,0.1,0l0,0l0,0.1l-0.5,0.1l0-0.1l0,0c0,0,0.1,0,0.1-0.1c0,0,0-0.1,0-0.1l-0.2-0.6c0,0,0-0.1-0.1-0.1c0,0-0.1,0-0.1,0
			l0,0l0-0.1l0.4-0.1l0.1,0c0.1,0,0.2,0,0.2,0c0,0,0.1,0,0.1,0c0,0,0.1,0,0.1,0.1c0,0,0.1,0.1,0.1,0.1c0,0.1,0,0.2-0.1,0.3
			c0,0,0.1,0.1,0.2,0.2c0.1,0.1,0.1,0.1,0.2,0.1c0,0,0.1,0,0.1,0l0,0.1L40.6,36.2z M41,36.1L41,36.1l0.3-1.1l-0.2,0.1
			c-0.1,0-0.2,0.1-0.2,0.1c0,0,0,0.1,0,0.2l-0.1,0l-0.1-0.3l0.8-0.3l0,0.1l-0.3,1l0.2-0.1c0.1,0,0.1,0,0.1-0.1c0,0,0-0.1,0.1-0.1
			c0,0,0-0.1,0-0.1l0.1,0l0.1,0.3L41,36.1z M42.6,35.5L42.6,35.5c0-0.1,0-0.1,0-0.1c0,0,0,0,0,0c0,0,0,0,0,0l0,0l-0.1-0.1l-0.3,0.1
			l0,0.1c0,0,0,0.1,0,0.1c0,0,0,0,0,0c0,0,0,0,0.1,0l0,0.1l-0.3,0.1l0-0.1c0.1,0,0.1-0.1,0.1-0.2l0-0.9l0.1,0l0.6,0.6
			c0.1,0.1,0.1,0.1,0.1,0.1c0,0,0.1,0,0.1,0l0,0.1L42.6,35.5z"/>
		<path class="st2" d="M26,19.7c-0.2-0.1-0.4-0.3-0.6-0.3c-0.1,0.1-0.3,0.2-0.5,0.3H26z"/>
		<path class="st2" d="M28.6,19.5c-0.1,0-0.3,0.1-0.5,0.2c0,0,0,0-0.1,0h4.6c0,0-0.1,0-0.1,0c-0.2-0.1-0.4-0.2-0.5-0.2
			c0,0,0,0-0.1,0c-0.2-0.1-0.4-0.2-0.6-0.2h-2.3C29.1,19.3,28.9,19.4,28.6,19.5C28.7,19.5,28.6,19.5,28.6,19.5"/>
		<path class="st2" d="M35.6,19.4C35.6,19.4,35.6,19.4,35.6,19.4c-0.1,0.1-0.3,0.2-0.5,0.3h1C35.9,19.6,35.7,19.5,35.6,19.4
			C35.6,19.4,35.6,19.4,35.6,19.4"/>
		<path class="st2" d="M24.8,28.6v-2.4C24.6,26.7,24.4,27.7,24.8,28.6"/>
		<polygon class="st2" points="30.4,24.6 26,23.2 29.4,23.2 		"/>
		<path class="st2" d="M30.4,20h-5.9c0,0,0,0,0,0c0,0.1,0,0.1,0.1,0.2c0,0,0.1,0.1,0.2,0.3h5.5L30.4,20z"/>
		<path class="st2" d="M30.1,20.8H25c0.1,0.1,0.2,0.3,0.3,0.5H30L30.1,20.8z"/>
		<path class="st2" d="M29.9,21.6h-4.5c0.1,0.2,0.1,0.3,0.2,0.5h4.2L29.9,21.6z"/>
		<path class="st2" d="M29.7,22.4h-4.1c0,0.2,0.1,0.3,0.1,0.5h3.8L29.7,22.4z"/>
		<path class="st2" d="M27.1,24h-1.4c0,0.1-0.1,0.3-0.1,0.5h2.2L27.1,24z"/>
		<path class="st2" d="M26.6,23.7L26,23.2h-0.3v0c0,0.1,0,0.2,0,0.4H26.6z"/>
		<path class="st2" d="M30.4,20L30.4,20L30.4,20l0,0.5v0.3v0.5v0.3v0.5v0.3v0.5v1.7l4.4-1.4h-3.5l-0.1-0.3h3.9c0-0.2,0-0.3,0.1-0.5
			h-4.1L31,22.1h4.3c0.1-0.2,0.1-0.3,0.2-0.5h-4.6l-0.1-0.3h4.9c0.1-0.2,0.2-0.3,0.3-0.5h-5.3l-0.1-0.3h5.6c0.2-0.2,0.3-0.4,0.3-0.4
			c0,0,0,0,0-0.1H30.4z"/>
		<path class="st2" d="M31.5,27.1v3.6c0.2-0.1,0.3-0.2,0.5-0.2v-2.9L31.5,27.1z"/>
		<path class="st2" d="M30.7,26.5v5.1c0.1-0.1,0.1-0.2,0.2-0.3l0,0c0.1-0.1,0.2-0.3,0.3-0.4v-4.1L30.7,26.5z"/>
		<path class="st2" d="M29.9,26.7v4.1c0.2,0.1,0.3,0.3,0.4,0.5l0,0c0,0,0,0.1,0.1,0.1v-5.1L29.9,26.7z"/>
		<path class="st2" d="M29.1,27.3v3.1c0.2,0.1,0.3,0.1,0.5,0.2V27L29.1,27.3z"/>
		<path class="st2" d="M32.3,30.3c0.2,0,0.3-0.1,0.5-0.1v-2.1l-0.5-0.4V30.3z"/>
		<path class="st2" d="M28.3,30.2c0.1,0,0.3,0.1,0.5,0.1v-2.7l-0.5,0.4V30.2z"/>
		<path class="st2" d="M30.4,24.6l-1.6,0.6l-0.6-0.4h-2.7c0,0.2-0.1,0.3-0.2,0.5h0h0c0,0.1-0.1,0.2-0.2,0.4v3.5
			c0.1,0.1,0.3,0.3,0.5,0.4v-4.3h0.3v4.5c0.1,0.1,0.3,0.1,0.5,0.2v-4.7h0.3v4.8c0.1,0,0.3,0.1,0.5,0.1v-4.9h0.3v4.9
			c0.1,0,0.1,0,0.2,0c0,0,0.1,0,0.3,0v-2l-0.3,0.2L30.4,24.6z M28,25.2h0.3v1.4L28,27.6V25.2z"/>
		<path class="st2" d="M35.5,25.2L35.5,25.2c-0.1-0.2-0.1-0.3-0.2-0.5h-2.7L32,25.2l-1.2-0.4l-0.4-0.2l2.6,3.7v1.8
			c0.2,0,0.3,0,0.4,0c0,0,0.1,0,0.1,0v-4.9h0.3v4.9c0.2,0,0.3,0,0.5-0.1v-4.8h0.3V30c0.2-0.1,0.3-0.1,0.5-0.2v-4.6h0.3v4.4
			c0.2-0.1,0.3-0.2,0.4-0.4c0,0,0,0,0-0.1V26C35.7,25.7,35.6,25.5,35.5,25.2 M33,28.2l-0.3-0.9v-2H33V28.2z"/>
		<path class="st2" d="M33.1,24.5h2.2c0-0.2-0.1-0.3-0.1-0.5h-1.4L33.1,24.5z"/>
		<path class="st2" d="M34.8,23.2l-0.7,0.5h1c0-0.2,0-0.3,0-0.3c0,0,0-0.1,0-0.1H34.8z"/>
		<path class="st2" d="M37.4,13.8c0.1,0,0.3,0,0.4,0c1.5-0.4,1.5-2.2,1.3-2.3c0,0,0,0,0,0c0,0.1-0.1,0.2-0.1,0.3
			c-0.1,0.2-0.2,0.3-0.2,0.3c0,0,0,0,0,0c0.3-0.6,0.3-1,0.1-1.6c-0.1-0.3-0.3-0.6-0.6-0.8c-0.7-0.5-2.2-0.6-3,0
			c-0.3-0.3-0.6-0.5-1.1-0.6c-0.1,0.5-0.6,1.1-1,1.4c-0.1,0.1-0.3,0.2-0.4,0.2c0,0-0.1,0,0-0.1c0.8-0.5,1.2-1.1,1.2-1.8v0
			c0-0.4-0.1-1.1-0.6-1.6c-0.7-0.8-2.7-0.9-3.6-0.2c-0.2,0.2-0.4,0.5-0.5,0.9c0.1-0.3,0.3-0.5,0.7-0.7c0.4-0.1,1.1,0,1.3,0.4
			c-0.7-0.7-1.9-0.2-2,1v0c0,0.1-0.1,0.1-0.1,0.1h0c0,0-0.1,0-0.1-0.5c0-0.3,0.1-0.7,0.3-1.1c-1.5-0.3-3.3,0.5-3.2,2.7
			c0,0.3,0.1,0.6,0.4,0.9c0.1,0.1,0,0.1,0,0.1c0,0-0.2-0.1-0.3-0.3c-0.1-0.2-0.3-0.5-0.3-0.7c-0.9-0.3-1.5-0.3-2-0.3
			c-0.5,0.1-1.3,0.5-1.5,0.9c-0.1,0.1-0.2,0.4-0.3,0.5c-0.2,0.4-0.3,0.8-0.3,1.3c0.1,0.9,0.5,1.6,1.1,1.9c0.9,0.5,2,0.4,2.4,0.4
			c0.2,0,0.4-0.1,0.7-0.3c0,0,0.1,0,0.1-0.1c0,0,0,0,0,0c0.3-0.3,0.6-0.8,0.5-1.4c0,0,0,0,0,0c0,0,0.1,0.2,0.1,0.4
			c0,0.2-0.1,0.5-0.2,0.7c0,0,0,0.1,0,0.1c0,0.1,0,0.2,0.1,0.2c0.2,0.2,0.6,0.2,0.9,0.1c0,0,0,0,0,0c0,0-0.2,0.3-0.6,0.3
			c-0.1,0-0.2,0-0.2,0c0.2,0.4,0.8,0.6,1.5,0.6c0,0,0,0,0,0c0,0-0.2,0.1-0.4,0.1c-0.3,0-0.6-0.1-0.9-0.2c0.3,0.4,0.8,0.7,1.7,0.8
			c0,0.1-0.7,0-0.9,0c0.4,1.6,1.3,1.4,1.3,1.5c-0.3,0.1-0.4,0.4-0.3,0.7c0.9-0.3,1.6-0.4,1.8-0.4c0.2,0,0.9,0,1.8,0.4
			c0.1-0.1,0.1-0.3,0.1-0.4c-0.1-0.4-1.4-0.7-2.5-0.4c0,0-0.1,0-0.2,0.1c0,0,0,0,0,0c0,0,0,0,0,0l0,0l0,0c0,0,0.2-0.1,0.2-0.1
			c0.5-0.3,1.6-0.4,2.1-0.1c0,0,0,0,0,0c0.5,0.2,0.9-0.4,0.8-0.7c0.4,0,0.6-0.2,0.7-0.6c-0.1,0-0.1,0.1-0.2,0.1l0,0
			c-0.1,0.1-0.3,0.1-0.3,0.1c0,0,0,0,0,0l0,0c0,0,0,0,0,0c0,0,0,0,0,0c0.1,0,0.1-0.1,0.2-0.1c0.7-0.4,1-1.2,0.9-1.4
			c-0.1,0.1-0.3,0.3-0.5,0.3c-0.1,0-0.2,0-0.2,0c0,0,0,0,0,0c0.1,0,0.2,0,0.2-0.1c0.2-0.2,0.5-0.5,0.6-0.7c-0.4-0.4-0.6-0.9-0.8-1.5
			c-0.1-0.2-0.3-0.5-0.6-0.5c0,0-0.1,0-0.1,0c0,0-0.1,0-0.1,0c0,0,0,0,0,0c0.3-0.3,0.7,0,0.9,0.1c0-0.6,0.2-0.8,0.3-0.7c0,0,0,0,0,0
			c-0.4,1.2,0.4,2.4,1,2.8c0.9,0.5,2.4,0.5,3.4-0.3c-0.2,0.1-0.4,0.1-0.6,0.1C37.6,14,37.4,13.9,37.4,13.8
			C37.4,13.8,37.4,13.8,37.4,13.8 M23.6,13.8c0.5-0.1,1-0.4,0.9-0.9c0-0.1-0.2-0.3-0.4-0.3c-0.3,0-0.5,0.2-0.7,0.4
			c0-0.5,0.3-0.8,0.8-0.7c0.3,0,0.6,0.3,0.7,0.5C25,13.5,24.3,13.8,23.6,13.8 M25.5,13.2c0.2-0.6,0.3-1.6-0.6-1.8
			c-0.8-0.2-1.5,0.4-1.8,0.7c0.2-0.7,1-1.2,2-1c-0.2-0.6-1-0.8-1.9-0.4c-0.2,0.1-0.4,0.3-0.5,0.4c0.2-0.5,0.5-0.8,1-0.9
			c0.7-0.2,1.4,0,1.7,0.4C26.4,11.6,25.8,13.1,25.5,13.2 M30.6,16.5c-0.5,0-0.5-0.3-0.6-0.7c0.2,0.2,0.5,0.4,0.5,0
			c-0.2-0.1-1.2-0.4-0.9-0.9c0.2-0.2,0.7,0.7,0.9,0.4c0.1-0.7-2-0.9-1.9-1.4c0-0.3,1.6,0.8,1.8,0.8c0-0.3-2.4-1.3-3.1-2.6
			c-0.1-0.1-0.1-0.2-0.1-0.2c0,0,0,0,0,0c0.4,0.7,1.6,1.6,3,2C30.8,14.1,31,15.7,30.6,16.5 M31.1,16.9c-0.2,0-0.1-0.3-0.1-0.4
			c0-0.7,0-1.3-0.2-1.9c-0.1-0.3-0.3-1.2-0.9-2.3c0.2,0.3,1.1,1.7,1.3,2.7C31.3,15.6,31.4,16.4,31.1,16.9 M31.9,12.9
			c0.4,0.2-0.2,1-0.3,1.2c0.1,0,0.4-0.4,0.6-0.3c0.2,0.2-0.5,1.1-0.6,1.1C30.6,13.6,31.8,13.3,31.9,12.9 M31.7,16.5
			c-0.1-0.1-0.1-0.3-0.1-0.4c0-0.3,0.4-0.5,0.6-0.6C32.3,15.4,32.2,16,31.7,16.5 M31.6,15.6c-0.2-0.3,0.3-0.7,0.4-1.1
			C32.6,14.5,31.9,15.5,31.6,15.6 M32.2,7.1c0,0,0.9,0.2,1,1c0,0.5-0.2,0.6-0.3,0.6c0,0,0,0,0-0.1C33,8.3,33,7.7,32.7,7.4
			C32.5,7.2,32.2,7.1,32.2,7.1 M37.2,12C37.2,12,37.2,12,37.2,12C37.2,11.9,37.2,11.9,37.2,12c0-0.1,0-0.2,0-0.2c0-0.2,0-0.4,0-0.6
			c-0.2-1-1-1.3-1.6-0.7c0,0,0.6-1.2,2-0.7c0.3,0.1,0.6,0.4,0.8,0.8c0.2,0.4,0.1,0.8,0,1c0,0,0,0,0,0c0,0,0,0,0,0
			c0-0.2,0-0.6-0.2-0.9c-0.1-0.2-0.2-0.4-0.5-0.5c0.1,0.2,0.2,0.4,0.3,0.5c0.1,0.2,0.1,0.3,0.1,0.4c0,0.4-0.2,0.9-0.4,1.1
			c0,0,0,0,0,0c0,0,0,0,0,0c0.2-0.5,0.2-1,0.1-1.4c0,0,0-0.1-0.1-0.1c-0.2-0.3-0.4-0.6-0.9-0.6c0.2,0.1,0.4,0.4,0.5,0.6
			C37.6,11.1,37.5,11.7,37.2,12"/>
		<path class="st2" d="M50.7,24.1c-0.1-2.3-0.3-4.4-0.9-6.3c-0.3-1.2-1-3.6-2.5-3.9c-0.7-0.2-1.3,0.5-1.3,1.1c0,0.5,0.4,0.8,0.2,1.3
			c-0.2,0.3-0.4,0.7-0.5,1.1c-0.1,0.4,0.2,0.5,0.1,0.9c-0.5-0.1-0.7,0.3-1.4,0.2c-0.6,0.3-1.3,0.1-1.3,0.1c0,0,0,0,0,0
			c0.7,0,1.3-0.2,1.5-0.6c0.1-0.5,0.1-1.2-0.3-1.4c-0.4,0.1-0.6,0.4-2,0.3c-1.1-0.1-1.4,0.1-1.6,0.8c-0.1-0.1-0.1-0.2-0.1-0.3
			c0-0.4,0.4-0.6,0.9-0.7c0.1-0.2,0.1-0.3,0.1-0.5c-0.2,0-0.3,0-0.6,0c-0.5,0.1-1.3,0.4-1.5,0.9c0,0.1,0,0.2,0,0.3
			c0,0.1,0,0.2,0,0.2c0,0.1,0,0.1,0.1,0.2c0.2,0.4,0.6,0.6,1.5,0.6c0,0,0,0,0,0c0,0-0.2,0.1-0.4,0c0,0-0.8,0-1.2-0.4
			c0,0-0.1,0.1-0.1,0.1c-0.2,0.2-0.7,0.5-1,0.5c-0.4,0-0.9-0.2-1-0.5c-0.5-0.7,0.2-2,0.2-2.5c0-1.3-1.8-0.7-2.4-0.4
			c-0.8,0.4-1.4,1-1.9,1.7c-0.3,0.3-0.6,0.7-0.7,1.1c0.2,0.1,0.9,0.4,1.4,0.4l0,0c0,0,0.1,0,0.2,0c0.3,0,0.8,0,1.1-0.3
			c0,0,0.2-0.1,0.4-0.1c0.2,0,0.3,0.1,0.4,0.2c0.1,0.1,1.2,0.9,1.5,1.2c0,0,0.2,0.1,0.2,0.3c0,0.1,0,0.2-0.1,0.4
			c-0.1,0.1-0.6,0.7-1,1.6c0,0.1-0.1,0.3-0.1,0.4c-0.1,0.5-0.2,1.2,0.4,1.4c0,0,0.7,0.2,0.7-1c0,0,0.1,0.8,0.7,0.7
			c0.2,0,0.4-0.2,0.4-0.8l0,0c-0.1-0.5,0-1,0.1-1.7c0,0,0,0,0-0.1c0,0,0,0.1,0.1,0.3c0,0.3-0.2,3,2.1,4.9c0,0-1-0.5-1.6-1.6
			c-0.4,0.2-0.9,0.7-0.7,1.7c0.1,0.4,0.4,0.7,0.6,0.8c0,0,0,0,0,0c0,0-0.1,0.1-0.3-0.1h0c0,0-0.1-0.1-0.1-0.1
			c-0.1-0.1-0.1-0.2-0.2-0.3c-0.3-0.2-0.5-0.5-0.7-0.7l0,0c-0.2-0.4-0.1-1.5-1.2-1.5c0,0,0,0-0.1,0h0c0,0-0.1,0-0.2,0c0,0,0,0,0,0
			c-0.3-1-0.2-1.6-0.2-1.7c0.2-1.4,1.2-2.5,1.3-2.7c0,0,0.1-0.1,0.1-0.2c0-0.1,0-0.1-0.1-0.1l0,0c-0.4-0.2-1.4-1.1-1.6-1.2l0,0
			c-0.1-0.1-0.2-0.1-0.3-0.1c-0.1,0-0.2,0.1-0.2,0.1c-0.4,0.4-1,0.4-1.3,0.4c-0.1,0-0.2,0-0.2,0h0c-0.6,0-1.4-0.4-1.5-0.5
			c-1.1-0.4-1.9-0.5-2-0.5c-0.2,0-1,0-2,0.5C28.4,18.6,27.6,19,27,19h0c0,0-0.1,0-0.2,0c-0.3,0-0.8-0.1-1.3-0.4l0,0
			c0,0-0.1-0.1-0.2-0.1c-0.1,0-0.2,0-0.3,0.1l0,0c-0.1,0.1-1.2,0.9-1.6,1.2l0,0c0,0-0.1,0-0.1,0.1c0,0.1,0,0.1,0.1,0.2
			c0.1,0.1,1.1,1.3,1.3,2.7c0,0.1,0,0.3,0,0.6c-0.1-0.3-0.2-0.5-0.2-0.7c0-0.2-0.1-0.3-0.2-0.4c-0.1-0.2-0.4-0.4-0.6-0.5
			c-0.2-0.1-0.4-0.1-0.6-0.3c-0.3-0.2-0.6-0.4-0.8-0.8c0-0.7-0.4-1.2-0.4-1.2c0.1,0,0.5,0.3,0.6,1c0.5-0.5,0.8-1.3,0.9-2.2
			c0.4-0.5,1.5-0.3,1.9-0.3c0.1,0,0.3,0.1,0.4,0.1c0.1,0.1,0.1,0.3,0.3,0.3c0.2,0.1,0.4,0,0.6,0c0.1,0.1,0.1,0.2,0.2,0.3
			c0.1,0,0.1,0,0.1,0l0,0h0c0.6,0,1.4-0.4,1.5-0.4l0,0c0,0,0.1,0,0.1,0c-0.2-0.3-0.6-0.4-0.9-0.4c-0.4-0.1-0.6-0.4-1-0.5
			c-0.1,0-0.4-0.1-0.6,0c-0.9,0.1-1.5-0.2-2.2-0.3c-0.8-0.1-0.8,0.5-1.1,0.9c-0.1,0.2-0.2,0.3-0.4,0.5c-0.2,0.2-0.5,0.2-0.7,0.4
			c0,0,0,0,0,0c0-0.3-0.2-0.7-0.3-1c0,0,0,0,0,0c0,0,0-0.1-0.1-0.1c-0.4-0.6-0.9-1.1-1.8-1.4c-0.2-0.1-0.2-0.1-0.3-0.2
			c-0.1-0.1,0-0.3,0-0.3c0.3-0.1,0.7-0.1,1-0.2c0.7-0.3,0.5-1,0.2-1c-0.4-0.1-1-0.2-1.2-0.3c-0.2-0.1-0.3-0.4-0.6-0.5
			c-0.2-0.1-0.4-0.1-0.6,0c-0.2,0-0.3,0.2-0.4,0.1c0.2-0.2,0.5-0.3,0.8-0.4c-0.3-0.1-0.2-0.6-0.5-0.7c-0.1,0-0.3,0-0.5,0.1
			c0-0.2-0.1-0.7-0.4-0.9c-0.2-0.1-0.3,0.1-0.3,0.2c0,0.1,0.4,0.3,0.4,0.8c-0.1,0-0.1,0.1-0.2,0.1c0-0.2-0.2-0.6-0.4-0.7
			c-0.2-0.1-0.3,0.1-0.3,0.2c0,0.1,0.3,0.3,0.4,0.7c-0.1,0.1-0.2,0.1-0.2,0.2c-0.5-0.1-0.6-0.5-0.7-0.5c-0.1,0-0.4,0-0.2,0.3
			c0.1,0.3,0.5,0.4,0.7,0.5C16.1,14,16,14.1,16,14.1c-0.6-0.1-0.7-0.5-0.8-0.5c-0.1,0-0.4,0-0.3,0.3c0.2,0.3,0.7,0.5,0.9,0.5
			c-0.1,0.2-0.1,0.3-0.1,0.4c-0.4-0.1-1.2,0.2-1.1,0.7c0.1,0.1,0.7-0.3,1.1-0.1c0.3,0.5,0.8,0.5,0.9,0.6c0.2,0.1,0.2,0.4,0.3,0.6
			c0.1,0.4,0.4,0.8,0.7,1.1c0.3,0.4,0.5,0.8,0.8,1.2c0,0.1,0.1,0.2,0.1,0.4c-0.3,0.5-1.3,1.1-1.7,1.5c-0.4,0.4-4.2,3.3-4.7,4.5
			C12,25.7,12,26,12,26.4c-0.2,0.1-0.6,0.1-0.8-0.1c-0.3-0.3,0.3-0.6,0.1-1c-0.1-0.2-0.3-0.2-0.4-0.2c-0.3,0.1-0.3,0.7-0.2,1
			c0,0.1,0.2,0.2,0.1,0.3c-0.1,0.1-0.2-0.1-0.2-0.3c-0.1,0.1-0.2,0.2-0.1,0.3c0.1,0.3,0.4,0.3,0.5,0.4c0,0.1-0.2,0.2-0.3,0.1
			c-0.2,0.3,0,0.4,0.1,0.4c0.2,0,0.5-0.2,0.6-0.2c0.1,0.2,0,0.2-0.3,0.3c0.4,0.5,0.7-0.3,1.1-0.2c0.1,0,1.3,1.1,1.1,2
			c0,0-0.1,0.2-0.1,0.2c-0.3,0.3-0.7,0.6-1,0.9c-0.6,0.4,0.6,2.9,0.5,4.2c-0.1,0.5,0.4,0.4,0.7,1.2c-0.3,0-0.6,0.1-0.8,0.3
			c0,0,0,0,0,0.1l0,0c-0.1,0.1-0.1,0.2-0.1,0.3c0,0.3,0.3,0.6,0.6,0.6c0.3,0,0.6-0.3,0.6-0.6c0,0,0-0.1,0-0.1c0.1,0,0.3,0,0.5,0.1
			l0.6,0.3c0,0-1.9,1.6-5.1,0.7c0,0-1.4-0.5-1-1.7c0,0,0.1-0.2,0.3-0.3c0,0.2,0.1,0.3,0.3,0.4c0.1,0.1,0.3,0.1,0.4,0.1
			c0.4,0,0.7-0.3,0.7-0.7c0-0.2-0.1-0.4-0.2-0.5c0,0-0.1-0.1-0.1-0.1c0,0,0,0,0,0c0,0,0,0,0,0c-0.2-0.1-0.5-0.2-1-0.1
			c0,0-1.4,0.4-0.9,1.9c0,0-0.9-0.2-1.3,0.2c0,0-0.1,0.1-0.1,0.4v0v0c0,0.1,0,0.2,0.1,0.3c0.1,0.1,0.3,0.2,0.4,0.2
			c0.2,0,0.3-0.1,0.4-0.2c0,0,0,0,0,0c0-0.1,0.1-0.1,0.3,0.1c0,0,1.3,1.4,3.2,1.2c0,0,0.1,1,0.7,1.2c0,0,0.1,0,0.1,0
			c0.2,0,0.3-0.2,0.3-0.3c0-0.2-0.1-0.3-0.3-0.3c0,0,0,0,0,0c0,0-0.1-0.3,0-0.5c0,0,2.1-0.3,3.5-1.4c0,0,1,0.3,1.6,0.3
			c0,0,0.1,0.2-0.3,0.3c0,0-0.5,0-0.5,0.2c0,0,0,0.2,0.4,0.2c0,0-0.1,0.2,0.3,0.4c0,0,0.2,0.1,0.1,0.3c0,0-0.4,0.2-0.3,0.5
			c0,0,0.1,0.3,0.7,0.2c0,0,0.2,0,0,0.2c0,0-0.3,0.3,0.2,0.6c0,0,0.4,0.2,0.6-0.2c0,0,0.1-0.2,0.3,0c0,0,1.2,0.6,1.9-0.4
			c0,0,0-0.1,0.2,0.1c0,0,0.6,0.8,2.4,0.8c0.1,0.2,0.3,0.3,0.6,0.3c0.3,0,0.6-0.2,0.6-0.5c0.2,0,1-0.1,1.8-0.6c0,0,0.3-0.2,0.6-0.3
			c0,0.5,0.4,0.9,0.9,0.9c0.5,0,0.9-0.4,0.9-0.9c0-0.4-0.3-0.8-0.8-0.9c0,0-0.6-0.2-1.4,0.3c0,0-0.7,0.5-0.8,0.5
			c0,0,0.2-0.8,0.3-1.6c-0.1,0-0.3,0-0.4,0c-0.1,0.8-0.3,1.7-0.6,1.8l-0.5,0.1c0-0.1,0-0.1-0.1-0.2c-0.1-0.1-0.2-0.2-0.5-0.2
			c0,0,0,0,0,0c-0.2,0.1-0.4,0.2-0.4,0.4c-0.1,0-0.9,0.2-1.3-0.2c0,0,0.8-0.3,0.9-0.5c0,0,0.2-0.4-0.5-0.9c0,0-0.6-0.3-0.7,0
			c0,0-0.1,0.2,0.2,0.4c0,0,0.3,0.3-0.2,0.2c0,0-0.4,0-0.5-0.2c0,0,0.1-1,0.3-1.6c-0.2-0.1-0.4-0.1-0.6-0.2
			c-0.1,0.2-0.2,0.4-0.2,0.7c0,0,0,0.6-0.2,0.7c0,0-0.7-0.6-0.4-1.7c-0.2-0.1-0.5-0.1-0.7-0.2c0,0.5,0.1,1.3,0.8,2.5
			c0,0-0.6,0.8-1.2,0.4c0,0-0.9-0.6-0.3-1.1c0,0,0.4-0.3,0.5,0.1c-0.2,0-0.4,0.2-0.4,0.4c0,0.2,0.2,0.4,0.4,0.4
			c0.2,0,0.4-0.2,0.4-0.3c0-0.1,0-0.5-0.3-0.8c0,0-0.3-0.3-0.8-0.2c0,0,0.5-0.6,0.5-1.2c0,0,0-0.1,0-0.2c-0.1-0.1-0.3-0.1-0.4-0.2
			c0,0.5-0.2,1.5-0.9,1.2c0,0,0.5-0.8,0.8-1.3c-0.3-0.1-0.6-0.2-0.9-0.4c0,0,0,0-0.1,0c0,0.2,0.1,0.8-0.2,1.1c0,0-0.4,0.3-1-0.2
			c0,0,0.8-0.7,1.1-1c-0.2-0.1-0.4-0.1-0.7-0.1h-0.2c0,0,0,0,0,0c0,0-0.5,0.4-0.9,0.6c0,0-0.1,0.1-0.2,0c0,0-0.7-0.8-0.2-1.6
			c0,0,0.3-0.7,1-0.6c0,0,0.2,0,0.3,0.3c0,0-0.6,0-0.6,0.5c0,0,0,0.5,0.6,0.4c0,0,0.8-0.1,0.6-1c0,0-0.1-0.6-0.6-0.6
			c0,0,0.3-0.3,0.1-0.4c0,0-0.2-0.2-0.6,0.1c0,0-0.1,0.2-0.6,0.1c0,0-0.3-0.1-0.5,0.1c0,0-0.1,0-0.1,0.4c0,0,0,0.1-0.2,0.5
			c0,0-0.1,0.3-0.1,0.7c-0.2-0.1-0.3-0.2-0.5-0.2c-0.3-0.3-0.3-1.5-0.6-2.2c-0.1-0.1,0.1-0.8,0.1-1.5c1.9-0.4,2.6-1.9,2.8-2.5
			c0.3-1.1-0.1-2.1-0.1-2.4c0,0,0,0,0,0c0.1,0.2,0.2,0.3,0.2,0.5c0.9,0.1,1.6-0.1,2-0.2c0,0,0,0,0.1,0c0,0,0.1,0,0.1,0
			c0.1,0,0.2-0.1,0.2-0.1c0,0,0.1,0,0.1,0c1.3-0.7,1.9-1.8,2.3-2.4c-0.2,0-0.8-0.2-1-0.5c0.5,0,0.9,0.2,1.4,0.3c0.7,0,1.2-0.4,2-0.3
			c0,0,0.1,0.4,0.6,0.6c0,0.5,0,0.8,0.2,1.2c0,0.1,0.1,0.2,0.1,0.2s-0.6,0.5-0.4,0.9c0,0.1,0.1,0.2,0.1,0.3c0,0-0.1,0-0.1,0
			c-0.1,0-0.2,0.1-0.3,0.3c-0.1,0.1-0.4,0.8-0.1,0.8c0.1,0,0.1,0,0.2,0c-0.1,0.7-0.1,1.6,0.4,2.4l0,0c0,0.1,0.9,1.5,3.2,1.5h0
			c0.2,0,2.3,0,3,1.4c0,0.1,0.2,0.3,0.4,0.3c0.2,0,0.3-0.2,0.4-0.3c0.7-1.4,2.8-1.4,3-1.4h0c2.3,0,3.2-1.4,3.2-1.5l0,0
			c0.3-0.4,0.4-0.8,0.5-1.3c0.5-0.3,0.4-1.3,0.4-1.5c0.1,0.2,0.4,0.7,1,0.8C39,28.2,39,29,39.6,29.1c0.2,0,0.3-0.2,0.3-0.4
			c0.4,1.3,0.1,2.1,0.4,2.2c0.4,0,0.5-0.8,0.5-0.8c0,0.1,0.2,0.3,0.2,0.6c0,0.4-0.1,0.8,0.1,0.9c0.6,0.1,0.3-1.7,0.8-1.5
			c-0.1,0.8,0,1.2,0.3,1.3c0,0.4,0,0.7-0.2,0.7c-0.9,0.2-1.6-0.5-2.4-0.3c-0.1,0-0.1-0.1-0.1-0.1c-1.4-0.7-2.3-0.2-2.3-0.3
			c-0.4-0.4-0.5,0.2-0.6,0.1c-0.7-0.4-1.1,0.3-1.3,0.3c-0.2,0-0.5-0.4-0.8,0.5c-0.2,0.4-1,0.5-1,0.5c-0.3,0-0.4-0.2-0.4-0.2
			c0-0.1-0.1-0.2-0.1-0.2c0-0.1-0.1-0.1-0.1-0.2c-0.1-0.1-0.2-0.1-0.3-0.1c-0.2,0-0.4,0.2-0.4,0.5c0,0.1,0,0.2,0.1,0.3
			c0,0,0.1-0.1,0.2-0.1c0.2,0,0.3,0.1,0.3,0.3v0c0,0.4-0.5,0.7-0.5,0.7c-0.3,0.3-0.7-0.1-0.7-0.1c-0.2-0.2-0.4-0.2-0.4-0.2
			c-0.2,0-0.3,0.3-0.3,0.3s-0.1-0.3-0.3-0.3c0,0-0.2,0-0.4,0.2c0,0-0.4,0.4-0.7,0.1c0,0-0.6-0.4-0.5-0.7v0c0-0.2,0.1-0.3,0.3-0.3
			c0.1,0,0.2,0.1,0.2,0.1c0.1-0.1,0.1-0.2,0.1-0.3c0-0.2-0.2-0.4-0.4-0.5c-0.1,0-0.2,0-0.3,0.1c0,0.1-0.1,0.1-0.1,0.2
			c0,0.1-0.1,0.1-0.1,0.2c0,0-0.1,0.2-0.4,0.2c-0.1,0-0.9-0.2-1-0.5C26.5,31.6,26.1,32,26,32c-0.2,0-0.6-0.7-1.3-0.3
			c-0.1,0.1-0.3-0.5-0.7-0.1c-0.1,0.1-0.8-0.4-1.9,0c-0.1-0.1-0.4-0.2-0.5-0.2c-0.2-0.1-0.4-0.2-0.6-0.3c-0.3-0.2-0.8-0.1-1.2-0.1
			c-0.1,0-0.3-0.1-0.5-0.2c-0.5-0.3-1-0.6-1.3-1c0-0.1-0.2-0.2-0.2-0.3c-0.1-0.2-0.2-0.3-0.3-0.6c-0.2-0.6,0.1-1.2,0.2-1.7
			c0-0.3,0-0.4,0.1-0.5c-0.4,0.1-1,0.1-1.7-0.1c0.2,0.6,0.2,1.2,0.1,1.7c0.3,0.2,0.4,0.6,0.5,0.7c0,0.3-0.1,0.6,0.1,0.8
			c0.2,0.3,0.8,0.7,1.1,0.9c0.1,0.1,1.7,1.3,1.9,1.3c0.2,0,0.4-0.1,0.6-0.1c0.1,0,0.1,0.1,0.2,0.1c0,0,0.1,0.1,0.3,0.3
			c-0.5,0.3-1.1,0.7-1.5,0.9c0,0-0.7,0.4-0.4,0.4c0,0,0.5,0,0.5,0.1c0,0-0.2,0.1-0.5,0.2c0.7,0.3,1.5,0.5,2.3,0.7
			c0.5-0.5,1.1-1,1.7-1.2c0,0,0.9,0,1.2-0.6c0.1-0.2,0.5,0.4,1.2-0.1c0.1,0,0.2,0.2,0.4,0.2c0.1,0-0.3,0.1-0.2,0.4
			c0,0-0.6,0-0.8,0.4c-0.1,0.1-1.4,0.1-2.6,1.1c0.2,0.1,0.5,0.1,0.7,0.2c0.4-0.3,0.9-0.5,1.4-0.5c0,0,0.7,0,1.1,0.9
			c0.5,0.1,0.9,0.1,1.4,0.2c0,0,0,0,0,0c0.1-0.1,0.8-0.4,0.5-0.8c0,0-0.2-0.2-0.4,0.1c0,0-0.2,0.2-0.2-0.1c0,0,0-0.1-0.1-0.3
			c0,0-0.1-0.2,0.1-0.1c0,0,0.2,0.1,0.5,0c0.2,0,0.4-0.2,0.4-0.4c0-0.2-0.2-0.5-0.4-0.5c0,0-0.1,0-0.1,0c0,0,0.1,0.1,0.1,0.1
			c0,0.1-0.1,0.2-0.2,0.2c-0.3-0.1-0.2-0.6,0.2-0.6c0,0,0.3,0,0.6,0.3c0,0,0.6,0.9,1.2,1.1c0,0-0.1,0.3,0.3,0.4c0,0,0,0.3,0.4,0.3
			c0,0,0.1,0.1,0.2,0.3c0.3,0,0.7,0,1,0c0.3,0,0.7,0,1,0c0.1-0.2,0.2-0.3,0.2-0.3c0.4,0,0.3-0.2,0.4-0.3c0.4-0.1,0.2-0.4,0.3-0.4
			c0.6-0.2,1.2-1.1,1.2-1.1c0.3-0.3,0.6-0.3,0.6-0.3c0.4,0,0.4,0.5,0.2,0.6c-0.1,0-0.2-0.1-0.2-0.2c0-0.1,0-0.1,0.1-0.1
			c0,0,0,0-0.1,0c-0.2,0-0.4,0.2-0.4,0.5c0,0.2,0.2,0.4,0.4,0.4c0.2,0,0.5,0,0.5,0c0.3-0.1,0.1,0.1,0.1,0.1
			c-0.1,0.1-0.1,0.3-0.1,0.3c-0.1,0.2-0.2,0.1-0.2,0.1c-0.3-0.3-0.4-0.1-0.4-0.1c-0.3,0.4,0.4,0.7,0.5,0.8c0,0,0,0,0,0
			c0.5,0,0.9-0.1,1.4-0.2c0.3-0.9,1.1-0.9,1.1-0.9c0.6,0,1,0.2,1.4,0.5c0.2,0,0.5-0.1,0.7-0.2c-1.2-1-2.6-1-2.6-1.1
			c-0.2-0.4-0.9-0.3-0.8-0.4c0.1-0.3-0.3-0.4-0.2-0.4c0.2-0.1,0.3-0.3,0.4-0.2c0.8,0.4,1.1-0.1,1.2,0.1c0.3,0.6,1.2,0.6,1.2,0.6
			c0.6,0.2,1.2,0.7,1.7,1.2c0.7-0.2,1.4-0.4,2.1-0.6c0,0,0,0,0,0c0,0,0-0.1,0-0.1c0,0,0,0,0,0l0,0c0-0.1-0.1-0.1-0.1-0.2h0
			c-0.2-0.3-0.4-0.6-0.5-0.7c0,0,0,0,0,0c0,0,0,0,0,0c0,0,0.5-0.8,0.8-0.2c0,0.1,0,0.3-0.3,0.3c0,0,0.4,0.6,0.5,1c0,0,0,0,0,0
			c0.2-0.1,0.3-0.1,0.3-0.1c0,0,0.1,0,0.1,0c-0.2-0.4-0.5-0.6-0.4-0.7c0.1,0,0.4,0.1,0.5-0.1c0-0.1,0.1-0.3,0.1-0.6
			c0.2,0.1,0.4,0.1,0.5,0.1c0.5,0,0.7-0.8,0.6-1.1c0.1,0,0.4-0.3,0.4-0.2c0.2,0.4,1,0.8,0.9-0.1c0.1,0.4,0.2,0.9,0.7,0.8
			c0.3-0.1,0.1-0.7,0.2-0.7c0.1,0.2,0.2,0.8,0.8,0.7c0.2-0.1,0.3-0.2,0.3-0.4c0-0.6-1.8-4-2-5.5c0,0-0.1,0-0.1,0
			c-0.2-0.1-0.2-0.4-0.2-0.6c0,0,0,0,0,0c-0.2,0-0.6-0.2-0.6-0.9c0-0.6,0.2-0.8,0.3-0.8c0,0,0,0,0,0.1c-0.1,0.4-0.2,1,0.1,1.2
			c0.1,0.1,0.2,0.1,0.3,0.1c0.1-0.2,0.2-0.3,0.3-0.3c0,0,0,0,0,0c-0.2,0.3-0.2,0.7,0,0.9c0.1,0.1,0.2,0.1,0.3,0.1
			c0.5-0.2,0.8-1.2,0.9-1.5c0.3,0.1-0.6,2.1,0.1,2.5c0.3,0,0.4-0.3,0.6-0.6c0.2,0.6-0.7,1.8,0,2.1c0.4,0.1,0.6-1,0.6-0.8
			c0.1,1.6-0.7,2.4-0.2,2.7c0.5,0.2,0.6-1.1,0.6-1c0,1.8-0.9,2.2-0.5,2.5c0.4,0.2,0.7-0.9,0.7-0.6c0,1.6-0.8,2-0.5,2.5
			c0.4,0.6,1.2-1,1.2-0.7c0,0.4-0.9,2.2-0.3,2.3c0.4,0.1,0.6-0.5,0.6-0.6C50.8,30,50.8,25.6,50.7,24.1 M37.3,15.8
			C37.3,15.9,37.2,15.9,37.3,15.8c-0.4-0.2-1.1-0.2-1.6,0.1c-0.4,0.2-0.6,0.5-0.7,0.6c-0.1,0,0.6-0.9,1.6-1
			C37.3,15.5,37.3,15.8,37.3,15.8 M39.6,18.8c-0.1,0.3-0.4,0.6-0.7,0.6c-0.6,0.1-1.2-0.3-1.2-0.4c0-0.1,0.5,0.2,1,0.2
			C39,19.2,39.3,18.9,39.6,18.8C39.6,18.7,39.6,18.7,39.6,18.8 M14.2,35.2L14.2,35.2L14.2,35.2L14.2,35.2L14.2,35.2
			c0.1,0.1,0.2,0.1,0.3,0.2c0,0,0,0,0.1,0.1c0,0.1-0.1,0.1-0.3,0c0,0,0,0,0,0c-0.1-0.1-0.2-0.1-0.3-0.2c-0.1,0.1,0.1,0.3,0.2,0.4
			c0,0-0.1,0.1-0.1,0.1l0,0c-0.1,0-0.1,0-0.2,0h0c0,0,0,0,0,0c-0.2-0.1-0.2-0.3-0.2-0.5c0-0.1-0.1-0.4-0.3-0.5
			C13.6,34.5,14.1,35.1,14.2,35.2 M17.4,15.6c0.5,0.2,0.6-0.5,0.7-0.3C18.3,15.6,17.8,16.1,17.4,15.6 M18.1,15.1
			c-0.2,0-0.4-0.2-0.6,0c0,0-0.3,0.2-0.2,0.5c0,0.2-0.2,0.3-0.3,0.1c-0.2-0.4,0.5-1,0.7-1.1c0.4-0.1,0.7,0.1,1.1,0.2
			c0.3,0,0.5,0,0.7,0c0.5,0,0.3,0.4,0.3,0.4c-0.4,0.1-0.6-0.2-1-0.2C18.6,15,18.3,15.1,18.1,15.1 M19.9,17.9
			c-0.6-0.2-1.2-0.3-1.5-0.8c0.8,0.1,1.7,0.1,2.2,0.4c0,0,0,0,0.1,0c0.2,0.1,0.6,0.5,0.8,1.1C20.7,18.2,20.5,18.1,19.9,17.9
			 M24.1,22.8c-0.2,0-0.2-0.7-1.1-0.5c-0.5,0.2-0.8,0.1-1.1,0C23.2,21.6,24.2,22.3,24.1,22.8 M36.9,24.7c0.1,0,0.1,0,0.2,0h0
			c0.1,0,0.1,0,0.2,0c0,0,0.2,0.2,0.2,0.5c0,0.1,0.1,0.4,0.2,0.5c0.1,0.1,0.1,0.3-0.2,0.3h0c-0.3-0.1-0.6-0.5-0.5-1
			c-0.1,0-0.2,0-0.2,0h0c0,0-0.1,0-0.1,0c0,0,0,0,0,0c0,0,0,0-0.1,0c0,0,0,0,0,0c-0.1,0.1-0.1,0.2-0.2,0.2c0-0.2,0.1-0.3,0.3-0.4
			c0,0,0,0,0,0C36.7,24.7,36.8,24.7,36.9,24.7 M24.3,26.3C24.3,26.3,24.3,26.4,24.3,26.3c0,0.1-0.1,0.1-0.1,0.2c0,0,0,0,0,0
			c0,0,0,0,0,0.1c0,0,0,0,0,0c0,0,0,0.1-0.1,0.1c0,0,0,0,0,0c0,0,0,0-0.1,0.1c0,0,0,0,0,0c0,0-0.1,0-0.1,0.1c0,0,0,0,0,0
			c0,0-0.1,0-0.1,0c0,0,0,0,0,0c0,0-0.1,0-0.1,0c0,0,0-0.1,0-0.1c0-0.1,0.1-0.2,0.2-0.4c0.1-0.1,0-0.2,0.1-0.3c0.1,0,0.2,0,0.3-0.1
			c-0.2-0.2-0.2-0.5,0-0.8c0.4-0.4,0-1.2,0.1-1.3c0.1,0.1,0.2,0.4,0.2,0.7c0,0,0,0.1,0,0.1c0,0,0,0.1,0,0.1c0,0,0,0.1,0,0.1
			c0,0,0,0.1,0,0.1v0.1c0,0,0,0.1,0,0.1c0,0,0,0.1,0,0.1c0,0,0,0.1,0,0.1c0,0,0,0,0,0.1c0,0,0,0.1,0,0.1c0,0,0,0.1,0,0.1
			c0,0,0,0.1,0,0.1c0,0,0,0,0,0.1c0,0,0,0.1,0,0.1c0,0,0,0.1,0,0.1C24.4,26.2,24.4,26.2,24.3,26.3C24.3,26.3,24.3,26.3,24.3,26.3
			 M36.3,29c-0.1,0.1-0.9,1.3-2.9,1.3c-0.2,0-1.8,0-2.4,1.1c0,0,0,0,0,0c-0.1,0.1-0.3,0.4-0.4,0.6c0,0-0.1,0.1-0.1,0.1
			c0,0-0.1,0-0.1-0.1c-0.1-0.2-0.3-0.5-0.4-0.6c0,0,0,0,0,0c-0.6-1-2.2-1.1-2.4-1.1c-2,0-2.8-1.2-2.9-1.3c-1-1.5-0.1-3.2-0.1-3.2
			c0.8-1.4,0.7-2.4,0.7-2.6c0-1.6-1-2.8-1.1-2.9c-0.1-0.1-0.1-0.2-0.1-0.3c0-0.1,0.1-0.2,0.2-0.2c0.2-0.2,0.7-0.5,0.9-0.6l0.1-0.1
			c0,0,0.1,0,0.1,0c0.1,0,0.1,0,0.2,0.1c0.2,0.2,0.6,0.4,1.2,0.4c0.1,0,0.2,0,0.3,0c0.3,0,0.9-0.3,0.9-0.3c0.2-0.1,0.4-0.2,0.5-0.2
			l0,0c0.9-0.4,1.7-0.4,1.9-0.4c0.2,0,1,0,1.9,0.4l0.1,0c0.1,0,0.3,0.1,0.5,0.2c0,0,0.6,0.3,0.9,0.3c0.1,0,0.2,0,0.4,0
			c0.6,0,1-0.3,1.2-0.4c0.1-0.1,0.1-0.1,0.2-0.1c0,0,0.1,0,0.1,0c0,0,0,0,0.1,0.1c0.2,0.1,0.7,0.4,0.9,0.6c0,0,0.1,0.1,0.1,0.2
			c0,0.1,0,0.2-0.1,0.3c-0.1,0.1-1.1,1.3-1.1,2.9c0,0.2-0.1,1.2,0.7,2.6C36.4,25.9,37.3,27.6,36.3,29 M37.7,27.8L37.7,27.8
			C37.7,27.8,37.7,27.9,37.7,27.8c-0.1,0.1-0.1,0.1-0.1,0.1c0,0,0,0,0,0c0,0,0,0-0.1,0c0,0,0,0,0,0c0,0,0,0-0.1,0c0,0,0,0,0,0
			c0,0,0,0-0.1,0h0c0,0,0,0-0.1,0c0,0,0,0,0,0c0,0,0,0-0.1,0c0,0,0,0,0,0c0,0,0,0-0.1-0.1c0,0,0,0,0,0c0,0-0.1-0.2,0.1-0.3
			c0,0,0.1,0.1,0.1,0.1c0,0,0,0,0,0c0,0,0,0,0.1,0c0,0,0,0,0,0c0,0,0,0,0.1,0c0,0,0,0,0,0c0,0,0,0,0,0c0,0,0,0,0,0c0,0,0,0,0,0
			c0,0,0,0,0,0c0,0,0,0,0-0.1c0,0,0,0,0,0c0,0,0,0,0-0.1c0,0,0,0,0-0.1c0,0,0,0,0-0.1c0-0.4,0-0.8,0.1-1c0,0,0,0,0,0c0,0,0,0,0,0
			c0,0,0,0,0,0h0c0,0,0,0,0.1,0c0,0,0,0,0,0c0,0,0,0,0,0c0,0,0,0,0,0c0,0,0,0,0,0c0,0,0,0,0,0c0,0,0,0,0,0.1v0c0,0.1,0,0.2,0,0.4
			c0,0,0,0,0,0.1v0c0,0.1,0,0.2,0,0.3C37.9,27.4,37.8,27.6,37.7,27.8 M41.5,28.5c-1.1,0.1-1.8-0.9-1.7-0.9c0.1,0,0.4,0.4,0.7,0.5
			c0.5,0.2,1.2,0.1,1.5-0.2c0,0,0.1,0,0.1,0C42.2,28,42.1,28.4,41.5,28.5 M21.9,31.7C21.9,31.7,21.9,31.7,21.9,31.7
			C21.9,31.7,21.9,31.7,21.9,31.7C21.9,31.8,21.9,31.8,21.9,31.7c-0.1,0.1-0.2,0.1-0.2,0.1c-0.1,0-0.3,0-0.3,0c0,0.1,0,0.1,0.1,0.2
			v0c0,0,0,0,0,0c0,0,0.1,0,0.1,0.1c0.1,0,0.1,0,0.1,0.1c0,0.1-0.2,0.2-0.3,0.2c-0.2,0-0.3-0.2-0.4-0.4c0,0,0,0-0.1,0c0,0,0,0,0,0
			c-0.2-0.1-0.4-0.1-0.7-0.1c0-0.5,1.3-0.1,1.3-0.1C21.7,31.6,21.8,31.6,21.9,31.7C21.9,31.7,21.9,31.7,21.9,31.7 M41,32.8L41,32.8
			C41,32.8,41,32.8,41,32.8c-0.3,0.1-0.8-0.3-0.8-0.3c-0.1,0-0.3-0.2-0.5-0.1h0l0,0c-0.2,0.1-0.3,0.3-0.4,0.4c0,0,0-0.1,0-0.1
			c0,0,0,0,0,0c0,0,0-0.1,0-0.1v0c0,0,0-0.1,0-0.1c0,0,0,0,0,0c0,0,0-0.1,0-0.1c0,0,0,0,0-0.1c0,0,0,0,0,0c0,0,0,0,0.1,0
			c0,0,0,0,0,0c0.1-0.1,0.2-0.1,0.4-0.1c0.2,0,0.4,0.1,0.5,0.2c0.2,0.2,0.5,0.2,0.7,0.2C41.2,32.5,41.1,32.7,41,32.8 M45.7,18.9
			c-0.1,0.1-0.5,0.3-0.7,0.3c-0.4,0.1-0.8,0-1-0.3c0.3-0.1,0.6,0.1,1,0.1c0.1,0,0.3,0,0.4-0.1c0.1,0,0.2-0.2,0.4-0.2
			C45.8,18.8,45.7,18.9,45.7,18.9 M49.8,30.8c-0.1,0.4-0.3,1.5-0.3,1.5c0.9-8.4,0.4-10.5,0.3-10.4c-0.1,0-0.3,1-0.7,0.7
			c-0.5-0.3,1-2.1,0.4-3.2c-0.1-0.2-0.3,0.2-0.5,0.2c-0.6-0.2,0.3-1.8,0.2-2c-0.1-0.1-0.6-0.2-0.6-0.8c0-0.3,0.2-0.5,0-0.7
			c-0.2-0.2-0.1,0.2-0.3,0.1c-0.3-0.3,0-0.7-0.2-0.9c-0.1-0.1-0.3,0.2-0.4,0.1c-0.2-0.1,0.1-0.4-0.1-0.5c-0.3,0-0.7,0.3-0.6,0.8
			c0,0.2,0.3,0.4,0.3,0.6c0,0.2-0.3,0.5-0.3,0.6c-0.4,0.9,0.3,1.1,0.2,1.4c0,0.2-0.3,0.2-0.5,0.2c-0.2-0.1-0.3-0.9-0.2-1.2
			c0.1-0.4,0.6-0.8,0.6-1.1c0-0.2-0.3-0.5-0.3-0.8c0-0.5,0.3-1,0.8-0.9c0.3,0.1,0.5,0.3,0.7,0.6c0.1,0.1,0.2,0.2,0.2,0.2
			c0.6,0.7,1,1.9,1.3,2.9C50.4,21.1,50.8,25.7,49.8,30.8"/>
	</g>
	<g>
		<path class="st2" d="M73.5,128.6c-0.9,0.4-1.6,0.6-2.4,0.6c-2,0-3-1.4-3-3.5c0-2,1-3.3,3.1-3.3c1,0,1.7,0.2,2.2,0.6l-0.5,1
			c-0.4-0.3-1-0.4-1.6-0.4c-1.2,0-1.7,0.9-1.7,2.2c0,1.6,0.6,2.4,1.7,2.4c0.4,0,0.8-0.1,1.1-0.2v-1.2h-0.9l-0.1-1h2.2V128.6z"/>
		<path class="st2" d="M78.8,126.7c0,1.6-0.8,2.5-2.3,2.5c-1.4,0-2.3-0.9-2.3-2.5c0-1.4,0.8-2.5,2.3-2.5
			C78,124.2,78.8,125.3,78.8,126.7z M77.5,126.7c0-1.2-0.3-1.6-0.9-1.6c-0.6,0-0.9,0.4-0.9,1.6c0,1.1,0.3,1.6,0.9,1.6
			C77.2,128.3,77.5,127.9,77.5,126.7z"/>
		<path class="st2" d="M81,124.8c0.2-0.3,0.7-0.6,1.3-0.6c1.1,0,1.9,0.8,1.9,2.5c0,1.7-1,2.5-2.1,2.5c-0.7,0-1.1-0.3-1.4-0.7
			l-0.2,0.6h-0.7v-6.8h1.3v1.7L81,124.8z M81.1,127.8c0.2,0.3,0.5,0.5,0.9,0.5c0.6,0,1-0.4,1-1.6c0-1.1-0.4-1.6-1-1.6
			c-0.3,0-0.7,0.2-0.9,0.4V127.8z"/>
		<path class="st2" d="M85.6,129.1v-3.9l-0.6-0.1v-0.8h1.8v4.8H85.6z M85.5,122.4h1.3v1.2h-1.3V122.4z"/>
		<path class="st2" d="M89.1,127.1c0,0.8,0.4,1.2,1.2,1.2c0.5,0,1-0.2,1.4-0.4l0.2,0.9c-0.4,0.2-1.1,0.5-1.8,0.5
			c-1.5,0-2.4-0.9-2.4-2.5c0-1.5,0.7-2.5,2.3-2.5c1.5,0,2,1.1,2,2.3v0.6H89.1z M90,125.2c-0.6,0-0.9,0.6-0.9,1.1h1.8
			C90.9,125.7,90.7,125.2,90,125.2z"/>
		<path class="st2" d="M95.8,125.4c-0.2,0-0.4-0.1-0.6-0.1c-0.3,0-0.6,0.1-0.9,0.3v3.5h-1.3v-4.8h0.9l0.1,0.6h0
			c0.1-0.3,0.6-0.7,1.1-0.7c0.3,0,0.5,0,0.6,0.1L95.8,125.4z"/>
		<path class="st2" d="M99.6,129.1v-2.9c0-0.7-0.3-1.1-0.9-1.1c-0.3,0-0.6,0.1-0.8,0.3v3.6h-1.3v-4.8h0.9l0.2,0.6
			c0.3-0.3,0.8-0.6,1.5-0.6c1.2,0,1.7,0.7,1.7,1.9v3H99.6z"/>
		<path class="st2" d="M106.2,126.7c0,1.6-0.8,2.5-2.3,2.5c-1.4,0-2.3-0.9-2.3-2.5c0-1.4,0.8-2.5,2.3-2.5
			C105.4,124.2,106.2,125.3,106.2,126.7z M104.9,126.7c0-1.2-0.3-1.6-0.9-1.6c-0.6,0-0.9,0.4-0.9,1.6c0,1.1,0.3,1.6,0.9,1.6
			C104.6,128.3,104.9,127.9,104.9,126.7z"/>
		<path class="st2" d="M112.5,124.7c-0.1-0.3-0.1-0.5-0.1-0.9v-1.5h1.3v6.8h-1l-0.1-0.5c-0.2,0.3-0.7,0.6-1.3,0.6
			c-1.1,0-2-0.8-2-2.5c0-1.6,0.9-2.5,2.1-2.5C111.8,124.2,112.2,124.4,112.5,124.7z M112.3,125.4c-0.2-0.1-0.5-0.2-0.9-0.2
			c-0.6,0-1,0.4-1,1.5c0,1.1,0.4,1.6,1,1.6c0.3,0,0.6-0.2,0.9-0.4V125.4z"/>
		<path class="st2" d="M115.9,127.1c0,0.8,0.4,1.2,1.2,1.2c0.5,0,1-0.2,1.4-0.4l0.2,0.9c-0.4,0.2-1.1,0.5-1.8,0.5
			c-1.5,0-2.4-0.9-2.4-2.5c0-1.5,0.7-2.5,2.3-2.5c1.5,0,2,1.1,2,2.3v0.6H115.9z M116.8,125.2c-0.6,0-0.9,0.6-0.9,1.1h1.8
			C117.6,125.7,117.4,125.2,116.8,125.2z"/>
		<path class="st2" d="M124.7,129.2c-1.9,0-2.9-1.2-2.9-3.4c0-2.1,1-3.4,2.9-3.4c0.9,0,1.7,0.2,2.3,0.6l-0.5,1
			c-0.3-0.3-0.9-0.5-1.6-0.5c-1.1,0-1.7,0.8-1.7,2.2c0,1.5,0.6,2.3,1.6,2.3c0.6,0,1.3-0.3,1.7-0.6l0.4,1
			C126.3,129,125.6,129.2,124.7,129.2z"/>
		<path class="st2" d="M127.9,129.1v-6.8h1.3v1.8c0,0.3-0.1,0.6-0.1,0.7c0.3-0.3,0.7-0.7,1.4-0.7c1.4,0,1.8,0.7,1.8,1.9v3h-1.3v-2.9
			c0-0.7-0.3-1.1-0.9-1.1c-0.3,0-0.6,0.1-0.9,0.3v3.6H127.9z"/>
		<path class="st2" d="M133.6,129.1v-3.9l-0.6-0.1v-0.8h1.8v4.8H133.6z M133.6,122.4h1.3v1.2h-1.3V122.4z"/>
		<path class="st2" d="M136,127.9v-5.5h1.3v5.4c0,0.4,0.2,0.5,0.8,0.5v0.9c0,0-0.4,0.1-0.7,0.1C136.4,129.2,136,128.7,136,127.9z"/>
		<path class="st2" d="M140,127.1c0,0.8,0.4,1.2,1.2,1.2c0.5,0,1-0.2,1.4-0.4l0.2,0.9c-0.4,0.2-1.1,0.5-1.8,0.5
			c-1.5,0-2.4-0.9-2.4-2.5c0-1.5,0.7-2.5,2.3-2.5c1.5,0,2,1.1,2,2.3v0.6H140z M140.9,125.2c-0.6,0-0.9,0.6-0.9,1.1h1.8
			C141.8,125.7,141.6,125.2,140.9,125.2z"/>
	</g>
	<g>
		<path class="st2" d="M71.8,15.3c-1.2,0-2.2-0.2-2.9-0.4V7h2.7c2.4,0,3.9,1,3.9,4C75.5,13.6,74.3,15.3,71.8,15.3z M71.5,8.3h-1.1
			v5.5c0.3,0.1,0.8,0.2,1.4,0.2c1.1,0,1.9-0.6,1.9-3C73.8,9,73.2,8.3,71.5,8.3z"/>
		<path class="st2" d="M77.1,15.1V7h1.6v8.2H77.1z"/>
		<path class="st2" d="M82,15.1h-1.6V7h2.6C84.7,7,86,7.7,86,9.4c0,1.1-0.6,1.9-1.6,2.4c0.6,1.1,1.2,2.2,1.7,3.4h-1.9L83,12.1
			c-0.4,0-0.6,0-0.9,0V15.1z M82.8,8.2H82v2.6h0.8c1,0,1.5-0.5,1.5-1.4C84.3,8.5,83.8,8.2,82.8,8.2z"/>
		<path class="st2" d="M87.3,15.1V7h5v1.3h-3.4v2h2.6l-0.1,1.4h-2.5v2.1h3.4v1.3H87.3z"/>
		<path class="st2" d="M96.6,15.3c-2.3,0-3.5-1.5-3.5-4.3c0-2.5,1.2-4.2,3.5-4.2c1.1,0,2.1,0.2,2.8,0.7l-0.6,1.3
			c-0.4-0.3-1.2-0.6-2-0.6c-1.4,0-2,1-2,2.8c0,1.9,0.7,2.9,2,2.9c0.8,0,1.6-0.3,2.2-0.8l0.5,1.3C98.6,15,97.7,15.3,96.6,15.3z"/>
		<path class="st2" d="M103.5,15.3c-2.7,0-3.5-2-3.5-4.3c0-2.1,0.8-4.1,3.5-4.1c2.8,0,3.5,2,3.5,4.1C107,13.2,106.2,15.3,103.5,15.3
			z M103.5,8.2c-1.4,0-1.8,1.3-1.8,2.8c0,1.6,0.4,3,1.8,3c1.4,0,1.8-1.3,1.8-3C105.3,9.5,105,8.2,103.5,8.2z"/>
		<path class="st2" d="M112.3,15.1l-2.5-6.4h0l0.1,6.4h-1.4V7h2.4l2.6,6.6h0L113.3,7h1.5v8.2H112.3z"/>
		<path class="st2" d="M73.3,27.3l-0.1-4.6h0c-0.1,0.6-0.2,1-0.3,1.3l-0.8,3.3h-1.6L69.9,24c-0.1-0.3-0.2-0.7-0.3-1.3h0l-0.1,4.6h-1
			l0.2-5.4h1.8c0,0,0.6,2.7,0.9,4.5h0c0.4-1.8,1.1-4.5,1.1-4.5h1.8l0.2,5.4H73.3z"/>
		<path class="st2" d="M75.7,27.3v-3.2L75.2,24v-0.7h1.5v4H75.7z M75.6,21.7h1.1v1h-1.1V21.7z"/>
		<path class="st2" d="M80,27.3v-2.3c0-0.6-0.2-0.9-0.7-0.9c-0.3,0-0.5,0.1-0.7,0.2v3h-1.1v-4h0.7l0.2,0.5c0.2-0.3,0.7-0.5,1.3-0.5
			c1,0,1.4,0.6,1.4,1.6v2.4H80z"/>
		<path class="st2" d="M82.1,27.3v-3.2L81.7,24v-0.7h1.5v4H82.1z M82.1,21.7h1.1v1h-1.1V21.7z"/>
		<path class="st2" d="M84.9,24.3c0,0.6,1.7,0.4,1.7,1.7c0,0.7-0.5,1.3-1.6,1.3c-0.5,0-0.9-0.1-1.2-0.3l0.2-0.7
			c0.2,0.1,0.6,0.3,0.9,0.3c0.3,0,0.6-0.2,0.6-0.4c0-0.7-1.7-0.5-1.7-1.8c0-0.6,0.4-1.1,1.5-1.1c0.4,0,0.8,0.1,1.1,0.2l-0.1,0.8
			c-0.3-0.1-0.6-0.2-1-0.2C85.1,24,84.9,24.1,84.9,24.3z"/>
		<path class="st2" d="M88.8,27.3c-0.7,0-1.2-0.3-1.2-1.3v-2h-0.6v-0.8h0.6v-0.7l1-0.3v1h1.1v0.8h-1.1V26c0,0.3,0.1,0.5,0.4,0.5
			c0.2,0,0.4-0.1,0.6-0.1l0.2,0.8C89.7,27.2,89.2,27.3,88.8,27.3z"/>
		<path class="st2" d="M91.2,25.6c0,0.6,0.4,1,1,1c0.4,0,0.8-0.2,1.2-0.3l0.2,0.7c-0.3,0.2-0.9,0.4-1.5,0.4c-1.2,0-1.9-0.8-1.9-2.1
			c0-1.2,0.6-2.1,1.9-2.1c1.2,0,1.7,0.9,1.7,1.9v0.5H91.2z M91.9,24c-0.5,0-0.7,0.5-0.7,0.9h1.4C92.6,24.4,92.4,24,91.9,24z"/>
		<path class="st2" d="M96.5,24.2c-0.1,0-0.3-0.1-0.5-0.1c-0.3,0-0.5,0.1-0.7,0.3v2.9h-1v-4H95l0.1,0.5h0c0.1-0.3,0.5-0.6,0.9-0.6
			c0.2,0,0.4,0,0.5,0.1L96.5,24.2z"/>
		<path class="st2" d="M97.4,27.3v-3.2L96.9,24v-0.7h1.5v4H97.4z M97.3,21.7h1.1v1h-1.1V21.7z"/>
		<path class="st2" d="M102.8,25.3c0,1.3-0.7,2.1-1.9,2.1c-1.2,0-1.9-0.7-1.9-2.1c0-1.2,0.6-2.1,1.9-2.1
			C102.2,23.2,102.8,24.1,102.8,25.3z M101.7,25.3c0-1-0.3-1.3-0.8-1.3c-0.5,0-0.8,0.3-0.8,1.3c0,0.9,0.2,1.3,0.8,1.3
			C101.5,26.6,101.7,26.2,101.7,25.3z"/>
		<path class="st2" d="M107.7,23.6c-0.1-0.2-0.1-0.4-0.1-0.7v-1.2h1v5.6h-0.9l-0.1-0.4c-0.2,0.2-0.5,0.5-1,0.5
			c-0.9,0-1.6-0.6-1.6-2.1c0-1.3,0.7-2.1,1.7-2.1C107.2,23.2,107.5,23.4,107.7,23.6z M107.6,24.2c-0.2-0.1-0.4-0.2-0.7-0.2
			c-0.5,0-0.8,0.3-0.8,1.3c0,0.9,0.3,1.3,0.8,1.3c0.3,0,0.5-0.1,0.7-0.3V24.2z"/>
		<path class="st2" d="M110.4,25.6c0,0.6,0.4,1,1,1c0.4,0,0.8-0.2,1.2-0.3l0.2,0.7c-0.3,0.2-0.9,0.4-1.5,0.4c-1.2,0-1.9-0.8-1.9-2.1
			c0-1.2,0.6-2.1,1.9-2.1c1.2,0,1.7,0.9,1.7,1.9v0.5H110.4z M111.1,24c-0.5,0-0.7,0.5-0.7,0.9h1.4C111.8,24.4,111.7,24,111.1,24z"/>
		<path class="st2" d="M69.7,35.3h-1v-5.4h1.8c1.1,0,1.9,0.5,1.9,1.6c0,0.7-0.4,1.3-1,1.6c0.4,0.8,0.8,1.5,1.2,2.2h-1.2l-0.9-2.1
			c-0.2,0-0.4,0-0.6,0V35.3z M70.2,30.7h-0.5v1.7h0.5c0.7,0,1-0.3,1-0.9C71.2,30.9,70.8,30.7,70.2,30.7z"/>
		<path class="st2" d="M73.6,33.6c0,0.6,0.4,1,1,1c0.4,0,0.8-0.2,1.2-0.3L76,35c-0.3,0.2-0.9,0.4-1.5,0.4c-1.2,0-1.9-0.8-1.9-2.1
			c0-1.2,0.6-2.1,1.9-2.1c1.2,0,1.7,0.9,1.7,1.9v0.5H73.6z M74.4,32.1c-0.5,0-0.7,0.5-0.7,0.9h1.4C75.1,32.5,74.9,32.1,74.4,32.1z"
			/>
		<path class="st2" d="M76.8,34.3v-4.5h1v4.5c0,0.3,0.2,0.4,0.6,0.4v0.7c0,0-0.3,0.1-0.6,0.1C77.1,35.4,76.8,35,76.8,34.3z"/>
		<path class="st2" d="M81.4,35.3l-0.1-0.5c-0.2,0.3-0.6,0.5-1.2,0.5c-0.8,0-1.3-0.5-1.3-1.3c0-0.7,0.5-1.2,1.5-1.2h0.8v-0.2
			c0-0.5-0.3-0.7-0.7-0.7c-0.5,0-0.9,0.1-1.2,0.3L79,31.6c0.4-0.2,0.9-0.3,1.6-0.3c1.1,0,1.6,0.5,1.6,1.5v2.5H81.4z M81.1,33.6h-0.7
			c-0.4,0-0.6,0.2-0.6,0.5c0,0.4,0.2,0.6,0.6,0.6c0.2,0,0.5-0.1,0.7-0.3V33.6z"/>
		<path class="st2" d="M86.1,35.1c-0.2,0.1-0.8,0.3-1.4,0.3c-1.2,0-1.9-0.7-1.9-2.1c0-1.3,0.7-2.1,1.9-2.1c0.5,0,1,0.1,1.4,0.3
			l-0.3,0.7c-0.3-0.2-0.6-0.2-1-0.2c-0.5,0-0.9,0.4-0.9,1.3c0,0.9,0.3,1.3,0.9,1.3c0.4,0,0.8-0.2,1.1-0.3L86.1,35.1z"/>
		<path class="st2" d="M87,35.3v-3.2L86.6,32v-0.7h1.5v4H87z M87,29.8h1.1v1H87V29.8z"/>
		<path class="st2" d="M92.5,33.4c0,1.3-0.7,2.1-1.9,2.1c-1.2,0-1.9-0.7-1.9-2.1c0-1.2,0.6-2.1,1.9-2.1
			C91.8,31.3,92.5,32.2,92.5,33.4z M91.4,33.4c0-1-0.3-1.3-0.8-1.3c-0.5,0-0.8,0.3-0.8,1.3c0,0.9,0.2,1.3,0.8,1.3
			C91.1,34.6,91.4,34.3,91.4,33.4z"/>
		<path class="st2" d="M95.6,35.3V33c0-0.6-0.2-0.9-0.7-0.9c-0.3,0-0.5,0.1-0.7,0.2v3h-1.1v-4h0.7l0.2,0.5c0.2-0.3,0.7-0.5,1.3-0.5
			c1,0,1.4,0.6,1.4,1.6v2.4H95.6z"/>
		<path class="st2" d="M98.3,33.6c0,0.6,0.4,1,1,1c0.4,0,0.8-0.2,1.2-0.3l0.2,0.7c-0.3,0.2-0.9,0.4-1.5,0.4c-1.2,0-1.9-0.8-1.9-2.1
			c0-1.2,0.6-2.1,1.9-2.1c1.2,0,1.7,0.9,1.7,1.9v0.5H98.3z M99.1,32.1c-0.5,0-0.7,0.5-0.7,0.9h1.4C99.8,32.5,99.6,32.1,99.1,32.1z"
			/>
		<path class="st2" d="M102.4,32.4c0,0.6,1.7,0.4,1.7,1.7c0,0.7-0.5,1.3-1.6,1.3c-0.5,0-0.9-0.1-1.2-0.3l0.2-0.7
			c0.2,0.1,0.6,0.3,0.9,0.3c0.3,0,0.6-0.2,0.6-0.4c0-0.7-1.7-0.5-1.7-1.8c0-0.6,0.4-1.1,1.5-1.1c0.4,0,0.8,0.1,1.1,0.2l-0.1,0.8
			c-0.3-0.1-0.6-0.2-1-0.2C102.5,32.1,102.4,32.2,102.4,32.4z"/>
		<path class="st2" d="M106.5,35.3v-5.4h3.3v0.9h-2.3v1.3h1.8l-0.1,0.9h-1.7v1.4h2.3v0.9H106.5z"/>
		<path class="st2" d="M111.8,34.1l-0.7,1.3h-1.1l1.4-2.1l-1.3-1.9h1.4l0.6,1.1l0.6-1.1h1.1l-1.2,2l1.3,2h-1.3L111.8,34.1z"/>
		<path class="st2" d="M115.7,35.4c-0.7,0-1.2-0.3-1.2-1.3v-2h-0.6v-0.8h0.6v-0.7l1-0.3v1h1.1v0.8h-1.1v1.9c0,0.3,0.1,0.5,0.4,0.5
			c0.2,0,0.4-0.1,0.6-0.1l0.2,0.8C116.5,35.3,116.1,35.4,115.7,35.4z"/>
		<path class="st2" d="M118,33.6c0,0.6,0.4,1,1,1c0.4,0,0.8-0.2,1.2-0.3l0.2,0.7c-0.3,0.2-0.9,0.4-1.5,0.4c-1.2,0-1.9-0.8-1.9-2.1
			c0-1.2,0.6-2.1,1.9-2.1c1.2,0,1.7,0.9,1.7,1.9v0.5H118z M118.7,32.1c-0.5,0-0.7,0.5-0.7,0.9h1.4C119.4,32.5,119.3,32.1,118.7,32.1
			z"/>
		<path class="st2" d="M123.4,32.3c-0.1,0-0.3-0.1-0.5-0.1c-0.3,0-0.5,0.1-0.7,0.3v2.9h-1v-4h0.7l0.1,0.5h0c0.1-0.3,0.5-0.6,0.9-0.6
			c0.2,0,0.4,0,0.5,0.1L123.4,32.3z"/>
		<path class="st2" d="M124.2,35.3v-3.2l-0.5-0.1v-0.7h1.5v4H124.2z M124.2,29.8h1.1v1h-1.1V29.8z"/>
		<path class="st2" d="M129.7,33.4c0,1.3-0.7,2.1-1.9,2.1c-1.2,0-1.9-0.7-1.9-2.1c0-1.2,0.6-2.1,1.9-2.1
			C129,31.3,129.7,32.2,129.7,33.4z M128.6,33.4c0-1-0.3-1.3-0.8-1.3c-0.5,0-0.8,0.3-0.8,1.3c0,0.9,0.2,1.3,0.8,1.3
			S128.6,34.3,128.6,33.4z"/>
		<path class="st2" d="M132.6,32.3c-0.1,0-0.3-0.1-0.5-0.1c-0.3,0-0.5,0.1-0.7,0.3v2.9h-1v-4h0.7l0.1,0.5h0c0.1-0.3,0.5-0.6,0.9-0.6
			c0.2,0,0.4,0,0.5,0.1L132.6,32.3z"/>
		<path class="st2" d="M133.8,33.6c0,0.6,0.4,1,1,1c0.4,0,0.8-0.2,1.2-0.3l0.2,0.7c-0.3,0.2-0.9,0.4-1.5,0.4c-1.2,0-1.9-0.8-1.9-2.1
			c0-1.2,0.6-2.1,1.9-2.1c1.2,0,1.7,0.9,1.7,1.9v0.5H133.8z M134.5,32.1c-0.5,0-0.7,0.5-0.7,0.9h1.4
			C135.3,32.5,135.1,32.1,134.5,32.1z"/>
		<path class="st2" d="M137.9,32.4c0,0.6,1.7,0.4,1.7,1.7c0,0.7-0.5,1.3-1.6,1.3c-0.5,0-0.9-0.1-1.2-0.3l0.2-0.7
			c0.2,0.1,0.6,0.3,0.9,0.3c0.3,0,0.6-0.2,0.6-0.4c0-0.7-1.7-0.5-1.7-1.8c0-0.6,0.4-1.1,1.5-1.1c0.4,0,0.8,0.1,1.1,0.2l-0.1,0.8
			c-0.3-0.1-0.6-0.2-1-0.2C138,32.1,137.9,32.2,137.9,32.4z"/>
	</g>
</g>
<g id="Guias" class="st3">
	<g class="st4">
	</g>
</g>
</svg>
