<?xml version="1.0" encoding="utf-8"?>
<!-- Generator: Adobe Illustrator 21.0.0, SVG Export Plug-In . SVG Version: 6.00 Build 0)  -->
<svg version="1.1" id="Capa_1" xmlns="http://www.w3.org/2000/svg" xmlns:xlink="http://www.w3.org/1999/xlink" x="0px" y="0px"
	 viewBox="0 0 210 92" style="enable-background:new 0 0 210 92;" xml:space="preserve">
<style type="text/css">
	.st0{clip-path:url(#SVGID_2_);fill:url(#SVGID_3_);}
	.st1{enable-background:new    ;}
	.st2{fill:#314E60;}
	.st3{clip-path:url(#SVGID_5_);fill:#FFFFFF;}
	.st4{clip-path:url(#SVGID_7_);fill:#FFFFFF;}
	.st5{clip-path:url(#SVGID_9_);fill:#FFFFFF;}
	.st6{clip-path:url(#SVGID_11_);fill:#FFFFFF;}
	.st7{clip-path:url(#SVGID_13_);fill:#FFFFFF;}
	.st8{clip-path:url(#SVGID_15_);fill:#FFFFFF;}
	.st9{clip-path:url(#SVGID_17_);fill:#FFFFFF;}
	.st10{fill:#FFFFFF;}
	.st11{clip-path:url(#SVGID_19_);fill:#314E60;}
	.st12{clip-path:url(#SVGID_21_);fill:#314E60;}
	.st13{clip-path:url(#SVGID_23_);fill:#314E60;}
	.st14{clip-path:url(#SVGID_25_);fill:#314E60;}
	.st15{clip-path:url(#SVGID_27_);fill:#314E60;}
	.st16{clip-path:url(#SVGID_29_);fill:#314E60;}
	.st17{clip-path:url(#SVGID_31_);fill:#314E60;}
	.st18{clip-path:url(#SVGID_33_);fill:#314E60;}
	.st19{clip-path:url(#SVGID_35_);fill:#314E60;}
	.st20{clip-path:url(#SVGID_37_);fill:#314E60;}
	.st21{clip-path:url(#SVGID_39_);fill:#314E60;}
	.st22{clip-path:url(#SVGID_41_);fill:#314E60;}
	.st23{clip-path:url(#SVGID_43_);fill:#0C64AE;}
	.st24{clip-path:url(#SVGID_45_);fill:#E73439;}
	.st25{clip-path:url(#SVGID_47_);fill:#FFFFFF;}
	.st26{clip-path:url(#SVGID_49_);fill:#FFFFFF;}
	.st27{clip-path:url(#SVGID_51_);fill:#FFFFFF;}
	.st28{clip-path:url(#SVGID_53_);fill:#FFFFFF;}
	.st29{clip-path:url(#SVGID_55_);fill:#FFFFFF;}
	.st30{clip-path:url(#SVGID_57_);fill:#FFFFFF;}
	.st31{clip-path:url(#SVGID_59_);fill:#FFFFFF;}
	.st32{clip-path:url(#SVGID_61_);fill:#FFFFFF;}
	.st33{clip-path:url(#SVGID_63_);fill:#FFFFFF;}
	.st34{clip-path:url(#SVGID_65_);fill:#FFFFFF;}
	.st35{clip-path:url(#SVGID_67_);fill:#FFFFFF;}
	.st36{clip-path:url(#SVGID_69_);fill:#FFFFFF;}
	.st37{clip-path:url(#SVGID_71_);fill:#FFFFFF;}
	.st38{clip-path:url(#SVGID_73_);fill:#FFFFFF;}
	.st39{clip-path:url(#SVGID_75_);fill:#FFFFFF;}
	.st40{clip-path:url(#SVGID_77_);fill:#FFFFFF;}
	.st41{clip-path:url(#SVGID_79_);fill:#FFFFFF;}
	.st42{clip-path:url(#SVGID_81_);fill:#FFFFFF;}
	.st43{clip-path:url(#SVGID_83_);fill:#FFFFFF;}
	.st44{clip-path:url(#SVGID_85_);fill:#FFFFFF;}
	.st45{clip-path:url(#SVGID_87_);fill:#FFFFFF;}
	.st46{clip-path:url(#SVGID_89_);fill:#FFFFFF;}
	.st47{clip-path:url(#SVGID_91_);fill:#FFFFFF;}
	.st48{clip-path:url(#SVGID_93_);fill:#FFFFFF;}
	.st49{clip-path:url(#SVGID_95_);fill:#FFFFFF;}
	.st50{clip-path:url(#SVGID_97_);fill:#FFFFFF;}
	.st51{clip-path:url(#SVGID_99_);fill:#FFFFFF;}
	.st52{clip-path:url(#SVGID_101_);fill:#FFFFFF;}
	.st53{clip-path:url(#SVGID_103_);fill:#FFFFFF;}
	.st54{clip-path:url(#SVGID_105_);fill:#FFFFFF;}
	.st55{clip-path:url(#SVGID_107_);fill:#FFFFFF;}
	.st56{clip-path:url(#SVGID_109_);fill:#FFFFFF;}
	.st57{clip-path:url(#SVGID_111_);fill:#FFFFFF;}
	.st58{clip-path:url(#SVGID_113_);fill:#FFFFFF;}
	.st59{clip-path:url(#SVGID_115_);fill:#FFFFFF;}
	.st60{clip-path:url(#SVGID_117_);fill:#FFFFFF;}
	.st61{clip-path:url(#SVGID_119_);fill:#FFFFFF;}
	.st62{clip-path:url(#SVGID_121_);fill:#FFFFFF;}
	.st63{clip-path:url(#SVGID_123_);fill:#FFFFFF;}
	.st64{clip-path:url(#SVGID_125_);fill:#FFFFFF;}
	.st65{clip-path:url(#SVGID_127_);fill:#FFFFFF;}
	.st66{clip-path:url(#SVGID_129_);fill:#FFFFFF;}
	.st67{clip-path:url(#SVGID_131_);fill:#FFFFFF;}
	.st68{clip-path:url(#SVGID_133_);fill:#FFFFFF;}
	.st69{clip-path:url(#SVGID_135_);fill:#FFFFFF;}
	.st70{clip-path:url(#SVGID_137_);fill:#FFFFFF;}
	.st71{clip-path:url(#SVGID_139_);fill:#FFFFFF;}
	.st72{clip-path:url(#SVGID_141_);fill:#FFFFFF;}
	.st73{clip-path:url(#SVGID_143_);fill:#FFFFFF;}
	.st74{clip-path:url(#SVGID_145_);fill:#FFFFFF;}
	.st75{clip-path:url(#SVGID_147_);fill:#FFFFFF;}
	.st76{clip-path:url(#SVGID_149_);fill:#FFFFFF;}
	.st77{clip-path:url(#SVGID_151_);fill:#FFFFFF;}
	.st78{clip-path:url(#SVGID_153_);fill:#FFFFFF;}
	.st79{clip-path:url(#SVGID_155_);fill:#FFFFFF;}
	.st80{clip-path:url(#SVGID_157_);fill:#FFFFFF;}
	.st81{clip-path:url(#SVGID_159_);fill:#FFFFFF;}
	.st82{clip-path:url(#SVGID_161_);fill:#FFFFFF;}
</style>
<g>
	<g>
		<g>
			<defs>
				<path id="SVGID_1_" d="M-92.2-225.2v396.9V-225.2z"/>
			</defs>
			<clipPath id="SVGID_2_">
				<use xlink:href="#SVGID_1_"  style="overflow:visible;"/>
			</clipPath>
			
				<radialGradient id="SVGID_3_" cx="-624.2999" cy="274.7673" r="0.7072" gradientTransform="matrix(198.4248 0 0 198.4248 123784.3516 -54547.3945)" gradientUnits="userSpaceOnUse">
				<stop  offset="0" style="stop-color:#FFFFFF"/>
				<stop  offset="0.4824" style="stop-color:#FCFDFE"/>
				<stop  offset="0.853" style="stop-color:#F2F8FA"/>
				<stop  offset="1" style="stop-color:#ECF4F8"/>
			</radialGradient>
			<polygon class="st0" points="-92.2,-225.2 -92.2,-225.2 -92.2,171.7 			"/>
		</g>
	</g>
	<text transform="matrix(0.99 0 0 1 269.1984 -55.7775)" class="st2" style="font-family:'gobCL-Light'; font-size:9px;">.</text>
	<g>
		<g>
			<defs>
				<rect id="SVGID_4_" x="-92.2" y="-225.2" width="396.9" height="396.9"/>
			</defs>
			<clipPath id="SVGID_5_">
				<use xlink:href="#SVGID_4_"  style="overflow:visible;"/>
			</clipPath>
			<path class="st3" d="M102.4,59.8c4.4-0.3,8.2-1.9,11.2-4.9c3.4-3.3,5-7.5,5-12.6c0-4.6-1.3-8.6-4.1-11.7
				c-0.1-0.1-0.2-0.2-0.4-0.2c-0.3,0-0.5,0.2-0.5,0.5V31c2.1,5.6,0.9,11.2-2.8,12.7c-2.6,1-5.7-0.2-8.1-2.9c-0.2-0.2-0.5-0.2-0.7,0
				s-0.2,0.4,0,0.6c0,0,0,0.1,0.1,0.1c2.1,2.4,3.2,5.4,3.2,8.8c0,3.5-1.1,6.4-3.2,8.8c-0.1,0.1-0.1,0.2-0.1,0.3
				C101.9,59.5,102.1,59.8,102.4,59.8"/>
		</g>
		<g>
			<defs>
				<rect id="SVGID_6_" x="-92.2" y="-225.2" width="396.9" height="396.9"/>
			</defs>
			<clipPath id="SVGID_7_">
				<use xlink:href="#SVGID_6_"  style="overflow:visible;"/>
			</clipPath>
			<path class="st4" d="M68,58.2c-0.4-0.5-0.9-1.3-1.5-2.4c-1-1.7-1.7-2.9-2.3-3.6c-0.5-0.7-1.1-1.2-1.7-1.6c1-0.4,1.9-1,2.4-1.8
				s0.8-1.7,0.8-2.8c0-1.6-0.5-2.9-1.6-3.8c-1-0.9-2.6-1.4-4.4-1.4h-4.4v18.7H58v-8.2h0.2c0.8,0,1.4,0.1,1.8,0.3
				c0.3,0.2,0.7,0.5,1.2,1c0.4,0.5,0.9,1.1,1.4,1.8l0.8,1.5l0.8,1.4l0.5,0.7c0.1,0.1,0.1,0.2,0.2,0.2l0.8,1.2h3.2L68,58.2z
				 M61.5,48.4c-0.4,0.2-1.4,0.3-2.6,0.3H58v-5.4h0.8c1.1,0,2.1,0.1,2.6,0.3s0.9,0.5,1.1,0.9c0.3,0.4,0.4,0.9,0.4,1.5
				c0,0.5-0.1,1-0.4,1.5C62.3,47.9,62,48.2,61.5,48.4"/>
		</g>
		<g>
			<defs>
				<rect id="SVGID_8_" x="-92.2" y="-225.2" width="396.9" height="396.9"/>
			</defs>
			<clipPath id="SVGID_9_">
				<use xlink:href="#SVGID_8_"  style="overflow:visible;"/>
			</clipPath>
			<polygon class="st5" points="71.2,40.8 80.6,40.8 80.6,43.4 74,43.4 74,48.2 80.6,48.2 80.6,50.8 74,50.8 74,59.5 71.2,59.5 			
				"/>
		</g>
		<g>
			<defs>
				<rect id="SVGID_10_" x="-92.2" y="-225.2" width="396.9" height="396.9"/>
			</defs>
			<clipPath id="SVGID_11_">
				<use xlink:href="#SVGID_10_"  style="overflow:visible;"/>
			</clipPath>
			<path class="st6" d="M49.7,43.3c-1.8-1.8-4.1-2.8-6.8-2.8s-5,0.9-6.8,2.8c-1.8,1.8-2.7,4.2-2.7,7c0,2.7,0.9,5,2.7,6.8
				s4,2.7,6.6,2.7c2.8,0,5.1-0.9,6.9-2.7c1.8-1.8,2.7-4.1,2.7-6.9C52.4,47.4,51.5,45.1,49.7,43.3 M47.7,55.2
				c-1.3,1.4-2.8,2.1-4.7,2.1s-3.4-0.7-4.7-2c-1.2-1.3-1.9-3-1.9-5.1s0.6-3.8,1.9-5.2c1.2-1.3,2.8-2,4.8-2c1.8,0,3.4,0.7,4.7,2
				c1.3,1.4,1.9,3,1.9,5C49.6,52.2,48.9,53.9,47.7,55.2"/>
		</g>
		<g>
			<defs>
				<rect id="SVGID_12_" x="-92.2" y="-225.2" width="396.9" height="396.9"/>
			</defs>
			<clipPath id="SVGID_13_">
				<use xlink:href="#SVGID_12_"  style="overflow:visible;"/>
			</clipPath>
			<path class="st7" d="M99.4,43.3c-1.8-1.8-4.1-2.8-6.8-2.8c-2.7,0-5,0.9-6.8,2.8c-1.8,1.8-2.7,4.2-2.7,7c0,2.7,0.9,5,2.7,6.8
				c1.8,1.8,4,2.7,6.6,2.7c2.8,0,5.1-0.9,6.9-2.7s2.7-4.1,2.7-6.9C102.1,47.4,101.2,45.1,99.4,43.3 M97.4,55.2
				c-1.3,1.4-2.8,2.1-4.7,2.1c-1.9,0-3.4-0.7-4.7-2c-1.2-1.3-1.9-3-1.9-5.1s0.6-3.8,1.9-5.2c1.2-1.3,2.8-2,4.8-2
				c1.8,0,3.4,0.7,4.7,2c1.3,1.4,1.9,3,1.9,5C99.3,52.2,98.6,53.9,97.4,55.2"/>
		</g>
		<g>
			<defs>
				<rect id="SVGID_14_" x="-92.2" y="-225.2" width="396.9" height="396.9"/>
			</defs>
			<clipPath id="SVGID_15_">
				<use xlink:href="#SVGID_14_"  style="overflow:visible;"/>
			</clipPath>
			<path class="st8" d="M30.9,55.2c-1.4,1.4-3.2,2.1-5.4,2.1c-2.1,0-3.9-0.7-5.3-2s-2.1-3-2.1-5.1s0.7-3.8,2.1-5.2
				c1.4-1.3,3.2-2,5.4-2c2.1,0,3.9,0.7,5.3,2l0,0v-0.2v-2.6v-0.3c-2.3-1-4.3-1.5-6.2-1.5c-2.7,0-4.9,0.9-6.8,2.8
				c-1.8,1.9-2.7,4.2-2.7,6.9c0,1.7,0.4,3.3,1.2,4.8c0.8,1.5,1.9,2.6,3.3,3.5c1.4,0.8,3,1.3,5,1.3c2.4,0,4.6-0.5,6.4-1.6v-0.3v-2.7
				v-0.2l0,0C31,55.1,31,55.2,30.9,55.2"/>
		</g>
		<g>
			<defs>
				<rect id="SVGID_16_" x="-92.2" y="-225.2" width="396.9" height="396.9"/>
			</defs>
			<clipPath id="SVGID_17_">
				<use xlink:href="#SVGID_16_"  style="overflow:visible;"/>
			</clipPath>
			<path class="st9" d="M111.6,36.6c-0.6-0.7-1.5-1-2.4-1c-1,0-1.8,0.3-2.4,1s-0.9,1.5-0.9,2.5s0.3,1.8,0.9,2.4c0.6,0.6,1.4,1,2.4,1
				s1.8-0.3,2.5-1c0.6-0.6,1-1.5,1-2.4C112.5,38,112.2,37.2,111.6,36.6"/>
		</g>
	</g>
	<g class="st1">
		<path class="st10" d="M17.9,19.6h-1.2v2.8h-0.5v-7h1.7c1.3,0,2.4,0.6,2.4,2C20.3,19,19.2,19.6,17.9,19.6z M17.8,15.9h-1.1v3.3h1.1
			c1.2,0,1.9-0.5,1.9-1.7C19.8,16.3,18.9,15.9,17.8,15.9z"/>
	</g>
	<g class="st1">
		<path class="st10" d="M23.6,17.8c-0.1-0.1-0.4-0.1-0.7-0.1c-0.5,0-1,0.3-1.3,0.7v4.1h-0.5v-5.1h0.3l0.1,0.6
			c0.2-0.3,0.7-0.7,1.3-0.7c0.4,0,0.7,0.1,0.7,0.1L23.6,17.8z"/>
	</g>
	<g class="st1">
		<path class="st10" d="M26.1,22.5c-1.3,0-2.1-0.9-2.1-2.7c0-1.5,0.6-2.6,2.1-2.6c1.3,0,2.1,1.1,2.1,2.6
			C28.2,21.6,27.4,22.5,26.1,22.5z M26.1,17.6c-1.1,0-1.6,0.9-1.6,2.2c0,1.3,0.4,2.3,1.6,2.3c1.1,0,1.6-0.8,1.6-2.3
			C27.7,18.5,27.2,17.6,26.1,17.6z"/>
	</g>
	<g class="st1">
		<path class="st10" d="M30.9,22.4h-0.3l-1.7-5.1h0.5l1.5,4.8l1.5-4.8H33l-1.9,5.5c-0.4,1.2-1,1.6-1.7,1.6c-0.4,0-0.8-0.2-1-0.4
			l0.2-0.3h0c0.2,0.1,0.5,0.3,0.8,0.3c0.6,0,1-0.3,1.3-1.5L30.9,22.4z"/>
		<path class="st10" d="M34.3,20c0,1.5,0.7,2.1,1.8,2.1c0.7,0,1.3-0.4,1.6-0.6l0.2,0.4c-0.4,0.3-1.1,0.6-1.8,0.6
			c-1.3,0-2.2-0.9-2.2-2.7c0-1.6,0.8-2.6,2.1-2.6c1.4,0,2,1.1,2,2.4V20H34.3z M35.8,17.6c-1.1,0-1.6,1-1.6,2h3.1
			C37.3,18.6,37,17.6,35.8,17.6z"/>
		<path class="st10" d="M42.7,22.1c-0.3,0.2-0.9,0.5-1.6,0.5c-1.2,0-2.1-0.7-2.1-2.6c0-1.7,0.9-2.6,2.1-2.6c0.5,0,1.2,0.1,1.6,0.4
			L42.5,18c-0.4-0.2-0.9-0.4-1.4-0.4c-1,0-1.6,0.9-1.6,2.2c0,1.6,0.6,2.2,1.6,2.2c0.7,0,1.2-0.2,1.5-0.4L42.7,22.1z"/>
	</g>
	<g class="st1">
		<path class="st10" d="M45.1,22.5c-0.6,0-1.2-0.3-1.2-1.3v-3.5h-0.8v-0.4h0.8v-0.9l0.5-0.2v1.1H46v0.4h-1.6v3.5
			c0,0.6,0.2,0.9,0.7,0.9c0.3,0,0.7-0.1,0.8-0.2l0.1,0.4C46,22.4,45.5,22.5,45.1,22.5z"/>
	</g>
	<g class="st1">
		<path class="st10" d="M48.7,22.5c-1.3,0-2.1-0.9-2.1-2.7c0-1.5,0.6-2.6,2.1-2.6c1.3,0,2.1,1.1,2.1,2.6
			C50.8,21.6,50,22.5,48.7,22.5z M48.7,17.6c-1.1,0-1.6,0.9-1.6,2.2c0,1.3,0.4,2.3,1.6,2.3c1.1,0,1.6-0.8,1.6-2.3
			C50.3,18.5,49.8,17.6,48.7,17.6z"/>
	</g>
	<g class="st1">
		<path class="st10" d="M57.3,22.4l-0.1-0.7c-0.3,0.4-0.9,0.8-1.6,0.8c-1,0-1.6-0.7-1.6-1.5c0-0.8,0.6-1.4,1.7-1.4h1.4v-0.5
			c0-1-0.4-1.4-1.3-1.4c-0.7,0-1.2,0.2-1.6,0.3l-0.1-0.4c0.4-0.2,0.9-0.4,1.8-0.4c1.1,0,1.7,0.6,1.7,1.8v3.4H57.3z M57.2,20h-1.4
			c-1,0-1.3,0.4-1.3,1c0,0.7,0.4,1.1,1.2,1.1c0.6,0,1.1-0.4,1.5-0.8V20z"/>
		<path class="st10" d="M59.6,18c0.4-0.4,0.9-0.7,1.5-0.7c1.3,0,1.9,1,1.9,2.6c0,1.8-0.8,2.6-2,2.6c-0.6,0-1.1-0.2-1.4-0.6l0.1,0.6
			v1.8h-0.5v-7h0.3L59.6,18z M59.6,21.5c0.4,0.4,0.8,0.6,1.4,0.6c1.1,0,1.5-0.7,1.5-2.3c0-1.4-0.4-2.2-1.5-2.2
			c-0.6,0-1.1,0.3-1.4,0.7V21.5z"/>
	</g>
	<g class="st1">
		<path class="st10" d="M65.8,22.5c-1.3,0-2.1-0.9-2.1-2.7c0-1.5,0.6-2.6,2.1-2.6c1.3,0,2.1,1.1,2.1,2.6
			C67.9,21.6,67.1,22.5,65.8,22.5z M65.8,17.6c-1.1,0-1.6,0.9-1.6,2.2c0,1.3,0.4,2.3,1.6,2.3c1.1,0,1.6-0.8,1.6-2.3
			C67.4,18.5,66.9,17.6,65.8,17.6z"/>
	</g>
	<g class="st1">
		<path class="st10" d="M70.7,22.4h-0.3l-1.7-5.1h0.5l1.5,4.8l1.5-4.8h0.5L71,22.9c-0.4,1.2-1,1.6-1.7,1.6c-0.4,0-0.8-0.2-1-0.4
			l0.2-0.3h0c0.2,0.1,0.5,0.3,0.8,0.3c0.6,0,1-0.3,1.3-1.5L70.7,22.4z"/>
	</g>
	<g class="st1">
		<path class="st10" d="M76.6,22.4l-0.1-0.7c-0.3,0.4-0.9,0.8-1.6,0.8c-1,0-1.6-0.7-1.6-1.5c0-0.8,0.6-1.4,1.7-1.4h1.4v-0.5
			c0-1-0.4-1.4-1.3-1.4c-0.7,0-1.2,0.2-1.6,0.3l-0.1-0.4c0.4-0.2,0.9-0.4,1.8-0.4c1.1,0,1.7,0.6,1.7,1.8v3.4H76.6z M76.5,20h-1.4
			c-1,0-1.3,0.4-1.3,1c0,0.7,0.4,1.1,1.2,1.1c0.6,0,1.1-0.4,1.5-0.8V20z"/>
		<path class="st10" d="M81.8,21.8c-0.3,0.4-1,0.7-1.5,0.7c-1.2,0-2-0.9-2-2.7c0-1.5,0.7-2.6,2.1-2.6c0.7,0,1.1,0.2,1.4,0.4l0-0.8
			v-1.6h0.5v7.1h-0.3L81.8,21.8z M81.8,18c-0.3-0.2-0.7-0.4-1.4-0.4c-1.1,0-1.6,0.9-1.6,2.2c0,1.3,0.4,2.3,1.5,2.3
			c0.5,0,1-0.2,1.4-0.7V18z"/>
	</g>
	<g class="st1">
		<path class="st10" d="M85.3,22.5c-1.3,0-2.1-0.9-2.1-2.7c0-1.5,0.6-2.6,2.1-2.6c1.3,0,2.1,1.1,2.1,2.6
			C87.4,21.6,86.6,22.5,85.3,22.5z M85.3,17.6c-1.1,0-1.6,0.9-1.6,2.2c0,1.3,0.4,2.3,1.6,2.3c1.1,0,1.6-0.8,1.6-2.3
			C86.9,18.5,86.4,17.6,85.3,17.6z"/>
	</g>
	<g class="st1">
		<path class="st10" d="M91.2,18c0.4-0.4,0.9-0.7,1.5-0.7c1.3,0,1.9,1,1.9,2.6c0,1.8-0.8,2.6-2,2.6c-0.6,0-1.1-0.2-1.4-0.6l0.1,0.6
			v1.8h-0.5v-7h0.3L91.2,18z M91.3,21.5c0.4,0.4,0.8,0.6,1.4,0.6c1.1,0,1.5-0.7,1.5-2.3c0-1.4-0.4-2.2-1.5-2.2
			c-0.6,0-1.1,0.3-1.4,0.7V21.5z"/>
	</g>
	<g class="st1">
		<path class="st10" d="M97.6,22.5c-1.3,0-2.1-0.9-2.1-2.7c0-1.5,0.6-2.6,2.1-2.6c1.3,0,2.1,1.1,2.1,2.6
			C99.7,21.6,98.9,22.5,97.6,22.5z M97.6,17.6c-1.1,0-1.6,0.9-1.6,2.2c0,1.3,0.4,2.3,1.6,2.3c1.1,0,1.6-0.8,1.6-2.3
			C99.2,18.5,98.7,17.6,97.6,17.6z"/>
	</g>
	<g class="st1">
		<path class="st10" d="M103.3,17.8c-0.1-0.1-0.4-0.1-0.7-0.1c-0.5,0-1,0.3-1.3,0.7v4.1h-0.5v-5.1h0.3l0.1,0.6
			c0.2-0.3,0.7-0.7,1.3-0.7c0.4,0,0.7,0.1,0.7,0.1L103.3,17.8z"/>
	</g>
	<g>
		<g>
			<defs>
				<rect id="SVGID_18_" x="-92.2" y="-225.2" width="396.9" height="396.9"/>
			</defs>
			<clipPath id="SVGID_19_">
				<use xlink:href="#SVGID_18_"  style="overflow:visible;"/>
			</clipPath>
			<polygon class="st11" points="-64.1,-66.6 -64.1,-66.6 -64,-66.7 			"/>
		</g>
		<g>
			<defs>
				<rect id="SVGID_20_" x="-92.2" y="-225.2" width="396.9" height="396.9"/>
			</defs>
			<clipPath id="SVGID_21_">
				<use xlink:href="#SVGID_20_"  style="overflow:visible;"/>
			</clipPath>
			<path class="st12" d="M-63.6-66.9C-63.6-66.9-63.6-67-63.6-66.9l-0.3,0.2C-63.8-66.5-63.7-67-63.6-66.9"/>
		</g>
		<g>
			<defs>
				<rect id="SVGID_22_" x="-92.2" y="-225.2" width="396.9" height="396.9"/>
			</defs>
			<clipPath id="SVGID_23_">
				<use xlink:href="#SVGID_22_"  style="overflow:visible;"/>
			</clipPath>
			<path class="st13" d="M-63.5-66.9c0.1,0.1,0.2-0.1,0.2-0.1C-63.4-66.9-63.6-67-63.5-66.9"/>
		</g>
		<g>
			<defs>
				<rect id="SVGID_24_" x="-92.2" y="-225.2" width="396.9" height="396.9"/>
			</defs>
			<clipPath id="SVGID_25_">
				<use xlink:href="#SVGID_24_"  style="overflow:visible;"/>
			</clipPath>
			<path class="st14" d="M-53-64.8L-53-64.8L-53-64.8"/>
		</g>
		<g>
			<defs>
				<rect id="SVGID_26_" x="-92.2" y="-225.2" width="396.9" height="396.9"/>
			</defs>
			<clipPath id="SVGID_27_">
				<use xlink:href="#SVGID_26_"  style="overflow:visible;"/>
			</clipPath>
			<path class="st15" d="M-55.6-66.4L-55.6-66.4L-55.6-66.4"/>
		</g>
		<g>
			<defs>
				<rect id="SVGID_28_" x="-92.2" y="-225.2" width="396.9" height="396.9"/>
			</defs>
			<clipPath id="SVGID_29_">
				<use xlink:href="#SVGID_28_"  style="overflow:visible;"/>
			</clipPath>
			<path class="st16" d="M-53.5-67.4L-53.5-67.4L-53.5-67.4"/>
		</g>
		<g>
			<defs>
				<rect id="SVGID_30_" x="-92.2" y="-225.2" width="396.9" height="396.9"/>
			</defs>
			<clipPath id="SVGID_31_">
				<use xlink:href="#SVGID_30_"  style="overflow:visible;"/>
			</clipPath>
			<polygon class="st17" points="-68.1,-33.5 -68.1,-33.5 -68.2,-33.6 			"/>
		</g>
		<g>
			<defs>
				<rect id="SVGID_32_" x="-92.2" y="-225.2" width="396.9" height="396.9"/>
			</defs>
			<clipPath id="SVGID_33_">
				<use xlink:href="#SVGID_32_"  style="overflow:visible;"/>
			</clipPath>
			<path class="st18" d="M-68.2-34.1L-68.2-34.1l0.1,0.4C-67.9-33.8-68.3-34-68.2-34.1"/>
		</g>
		<g>
			<defs>
				<rect id="SVGID_34_" x="-92.2" y="-225.2" width="396.9" height="396.9"/>
			</defs>
			<clipPath id="SVGID_35_">
				<use xlink:href="#SVGID_34_"  style="overflow:visible;"/>
			</clipPath>
			<path class="st19" d="M-68.1-34.2c0.1-0.1,0-0.2,0-0.2C-68.1-34.3-68.3-34.2-68.1-34.2"/>
		</g>
		<g>
			<defs>
				<rect id="SVGID_36_" x="-92.2" y="-225.2" width="396.9" height="396.9"/>
			</defs>
			<clipPath id="SVGID_37_">
				<use xlink:href="#SVGID_36_"  style="overflow:visible;"/>
			</clipPath>
			<path class="st20" d="M-61.9-42.9L-61.9-42.9L-61.9-42.9"/>
		</g>
		<g>
			<defs>
				<rect id="SVGID_38_" x="-92.2" y="-225.2" width="396.9" height="396.9"/>
			</defs>
			<clipPath id="SVGID_39_">
				<use xlink:href="#SVGID_38_"  style="overflow:visible;"/>
			</clipPath>
			<path class="st21" d="M-64.4-41.1L-64.4-41.1C-64.4-41.2-64.4-41.1-64.4-41.1"/>
		</g>
		<g>
			<defs>
				<rect id="SVGID_40_" x="-92.2" y="-225.2" width="396.9" height="396.9"/>
			</defs>
			<clipPath id="SVGID_41_">
				<use xlink:href="#SVGID_40_"  style="overflow:visible;"/>
			</clipPath>
			<path class="st22" d="M-64.4-43.5L-64.4-43.5L-64.4-43.5"/>
		</g>
		<g>
			<defs>
				<rect id="SVGID_42_" x="-92.2" y="-225.2" width="396.9" height="396.9"/>
			</defs>
			<clipPath id="SVGID_43_">
				<use xlink:href="#SVGID_42_"  style="overflow:visible;"/>
			</clipPath>
			<rect x="136.5" y="15.5" class="st23" width="29.3" height="65.2"/>
		</g>
		<g>
			<defs>
				<rect id="SVGID_44_" x="-92.2" y="-225.2" width="396.9" height="396.9"/>
			</defs>
			<clipPath id="SVGID_45_">
				<use xlink:href="#SVGID_44_"  style="overflow:visible;"/>
			</clipPath>
			<rect x="165.8" y="15.5" class="st24" width="35.9" height="65.2"/>
		</g>
	</g>
	<g>
		<g>
			<defs>
				<rect id="SVGID_46_" x="136.5" y="15.5" width="65.2" height="65.2"/>
			</defs>
			<clipPath id="SVGID_47_">
				<use xlink:href="#SVGID_46_"  style="overflow:visible;"/>
			</clipPath>
			<path class="st25" d="M173.2,25.6c-0.7,0.3-1.2,0.4-1.8,0.4c-1.5,0-2.3-1-2.3-2.6c0-1.5,0.8-2.5,2.3-2.5c0.8,0,1.3,0.2,1.6,0.4
				l-0.4,0.7c-0.3-0.2-0.7-0.3-1.2-0.3c-0.9,0-1.3,0.7-1.3,1.7c0,1.2,0.4,1.8,1.3,1.8c0.3,0,0.6,0,0.8-0.2v-0.9h-0.7l-0.1-0.7h1.6
				v2.2H173.2z"/>
		</g>
		<g>
			<defs>
				<rect id="SVGID_48_" x="136.5" y="15.5" width="65.2" height="65.2"/>
			</defs>
			<clipPath id="SVGID_49_">
				<use xlink:href="#SVGID_48_"  style="overflow:visible;"/>
			</clipPath>
			<path class="st26" d="M176.3,24.1c0-0.9-0.3-1.2-0.7-1.2c-0.5,0-0.7,0.3-0.7,1.2c0,0.8,0.2,1.2,0.7,1.2
				C176,25.3,176.3,25,176.3,24.1 M177.3,24.1c0,1.2-0.6,1.9-1.7,1.9c-1.1,0-1.7-0.7-1.7-1.9c0-1.1,0.6-1.9,1.7-1.9
				C176.6,22.3,177.3,23.1,177.3,24.1"/>
		</g>
		<g>
			<defs>
				<rect id="SVGID_50_" x="136.5" y="15.5" width="65.2" height="65.2"/>
			</defs>
			<clipPath id="SVGID_51_">
				<use xlink:href="#SVGID_50_"  style="overflow:visible;"/>
			</clipPath>
			<path class="st27" d="M178.9,25c0.1,0.2,0.4,0.4,0.7,0.4c0.4,0,0.7-0.3,0.7-1.2c0-0.9-0.3-1.2-0.7-1.2c-0.2,0-0.5,0.1-0.7,0.3V25
				z M178.9,22.7c0.2-0.2,0.6-0.4,1-0.4c0.9,0,1.5,0.6,1.5,1.9s-0.7,1.9-1.6,1.9c-0.5,0-0.8-0.2-1.1-0.5l-0.2,0.4H178v-5.1h1v1.3
				L178.9,22.7z"/>
		</g>
	</g>
	<g>
		<g>
			<defs>
				<rect id="SVGID_52_" x="-92.2" y="-225.2" width="396.9" height="396.9"/>
			</defs>
			<clipPath id="SVGID_53_">
				<use xlink:href="#SVGID_52_"  style="overflow:visible;"/>
			</clipPath>
			<path class="st28" d="M182.3,20.9h1v0.8h-1V20.9z M182.3,26v-2.9l-0.4-0.1v-0.6h1.4V26H182.3z"/>
		</g>
	</g>
	<g>
		<g>
			<defs>
				<rect id="SVGID_54_" x="136.5" y="15.5" width="65.2" height="65.2"/>
			</defs>
			<clipPath id="SVGID_55_">
				<use xlink:href="#SVGID_54_"  style="overflow:visible;"/>
			</clipPath>
			<path class="st29" d="M185.7,23c-0.5,0-0.7,0.4-0.7,0.9h1.3C186.3,23.4,186.2,23,185.7,23 M185,24.4c0,0.6,0.3,0.9,0.9,0.9
				c0.4,0,0.7-0.1,1.1-0.3l0.2,0.7c-0.3,0.2-0.8,0.4-1.4,0.4c-1.1,0-1.8-0.7-1.8-1.9c0-1.1,0.5-1.9,1.7-1.9c1.1,0,1.5,0.8,1.5,1.7
				v0.4C187.2,24.4,185,24.4,185,24.4z"/>
		</g>
		<g>
			<defs>
				<rect id="SVGID_56_" x="136.5" y="15.5" width="65.2" height="65.2"/>
			</defs>
			<clipPath id="SVGID_57_">
				<use xlink:href="#SVGID_56_"  style="overflow:visible;"/>
			</clipPath>
			<path class="st30" d="M190.1,23.1c-0.1,0-0.3-0.1-0.5-0.1c-0.3,0-0.5,0.1-0.7,0.2v2.6h-1v-3.6h0.7l0.1,0.5l0,0
				c0.1-0.3,0.4-0.6,0.9-0.6c0.2,0,0.3,0,0.4,0.1L190.1,23.1z"/>
		</g>
		<g>
			<defs>
				<rect id="SVGID_58_" x="136.5" y="15.5" width="65.2" height="65.2"/>
			</defs>
			<clipPath id="SVGID_59_">
				<use xlink:href="#SVGID_58_"  style="overflow:visible;"/>
			</clipPath>
			<path class="st31" d="M192.9,26v-2.2c0-0.5-0.2-0.8-0.7-0.8c-0.3,0-0.5,0.1-0.6,0.2v2.7h-1v-3.6h0.7l0.1,0.4
				c0.2-0.2,0.6-0.5,1.1-0.5c0.9,0,1.3,0.5,1.3,1.5v2.2L192.9,26L192.9,26z"/>
		</g>
		<g>
			<defs>
				<rect id="SVGID_60_" x="136.5" y="15.5" width="65.2" height="65.2"/>
			</defs>
			<clipPath id="SVGID_61_">
				<use xlink:href="#SVGID_60_"  style="overflow:visible;"/>
			</clipPath>
			<path class="st32" d="M197,24.1c0-0.9-0.3-1.2-0.7-1.2c-0.5,0-0.7,0.3-0.7,1.2c0,0.8,0.2,1.2,0.7,1.2C196.7,25.3,197,25,197,24.1
				 M197.9,24.1c0,1.2-0.6,1.9-1.7,1.9c-1.1,0-1.7-0.7-1.7-1.9c0-1.1,0.6-1.9,1.7-1.9C197.3,22.3,197.9,23.1,197.9,24.1"/>
		</g>
		<g>
			<defs>
				<rect id="SVGID_62_" x="136.5" y="15.5" width="65.2" height="65.2"/>
			</defs>
			<clipPath id="SVGID_63_">
				<use xlink:href="#SVGID_62_"  style="overflow:visible;"/>
			</clipPath>
			<path class="st33" d="M171.5,29.7c-0.1-0.1-0.4-0.2-0.7-0.2c-0.5,0-0.7,0.3-0.7,1.2s0.3,1.2,0.7,1.2c0.2,0,0.5-0.1,0.7-0.3V29.7z
				 M171.6,29.2c-0.1-0.2-0.1-0.4-0.1-0.7v-1.1h1v5.1h-0.8l-0.1-0.4c-0.2,0.2-0.5,0.5-1,0.5c-0.8,0-1.5-0.6-1.5-1.9
				c0-1.2,0.7-1.9,1.6-1.9C171.1,28.8,171.4,29,171.6,29.2"/>
		</g>
		<g>
			<defs>
				<rect id="SVGID_64_" x="136.5" y="15.5" width="65.2" height="65.2"/>
			</defs>
			<clipPath id="SVGID_65_">
				<use xlink:href="#SVGID_64_"  style="overflow:visible;"/>
			</clipPath>
			<path class="st34" d="M174.9,29.6c-0.5,0-0.7,0.4-0.7,0.9h1.3C175.5,30,175.4,29.6,174.9,29.6 M174.2,31c0,0.6,0.3,0.9,0.9,0.9
				c0.4,0,0.7-0.1,1.1-0.3l0.2,0.7c-0.3,0.2-0.8,0.4-1.4,0.4c-1.1,0-1.8-0.7-1.8-1.9c0-1.1,0.5-1.9,1.7-1.9c1.1,0,1.5,0.8,1.5,1.7
				V31C176.4,31,174.2,31,174.2,31z"/>
		</g>
		<g>
			<defs>
				<rect id="SVGID_66_" x="136.5" y="15.5" width="65.2" height="65.2"/>
			</defs>
			<clipPath id="SVGID_67_">
				<use xlink:href="#SVGID_66_"  style="overflow:visible;"/>
			</clipPath>
			<path class="st35" d="M180.9,32.6c-1.4,0-2.2-0.9-2.2-2.6c0-1.6,0.7-2.5,2.2-2.5c0.7,0,1.3,0.1,1.7,0.4l-0.4,0.8
				c-0.3-0.2-0.7-0.3-1.2-0.3c-0.8,0-1.2,0.6-1.2,1.7c0,1.2,0.4,1.7,1.2,1.7c0.5,0,1-0.2,1.3-0.5l0.3,0.8
				C182.1,32.4,181.5,32.6,180.9,32.6"/>
		</g>
		<g>
			<defs>
				<rect id="SVGID_68_" x="136.5" y="15.5" width="65.2" height="65.2"/>
			</defs>
			<clipPath id="SVGID_69_">
				<use xlink:href="#SVGID_68_"  style="overflow:visible;"/>
			</clipPath>
			<path class="st36" d="M183.2,32.5v-5.1h1v1.3c0,0.3-0.1,0.5-0.1,0.6c0.2-0.3,0.5-0.5,1-0.5c1,0,1.3,0.5,1.3,1.5v2.2h-1v-2.2
				c0-0.5-0.2-0.8-0.6-0.8c-0.3,0-0.5,0.1-0.6,0.2v2.7L183.2,32.5L183.2,32.5z"/>
		</g>
	</g>
	<g>
		<g>
			<defs>
				<rect id="SVGID_70_" x="-92.2" y="-225.2" width="396.9" height="396.9"/>
			</defs>
			<clipPath id="SVGID_71_">
				<use xlink:href="#SVGID_70_"  style="overflow:visible;"/>
			</clipPath>
			<path class="st37" d="M187.5,27.4h1v0.9h-1V27.4z M187.6,32.5v-2.9l-0.4-0.1v-0.6h1.4v3.6H187.6z"/>
		</g>
	</g>
	<g>
		<g>
			<defs>
				<rect id="SVGID_72_" x="136.5" y="15.5" width="65.2" height="65.2"/>
			</defs>
			<clipPath id="SVGID_73_">
				<use xlink:href="#SVGID_72_"  style="overflow:visible;"/>
			</clipPath>
			<path class="st38" d="M189.4,31.6v-4.1h1v4.1c0,0.3,0.2,0.3,0.6,0.3v0.7c0,0-0.3,0.1-0.5,0.1C189.7,32.6,189.4,32.2,189.4,31.6"
				/>
		</g>
		<g>
			<defs>
				<rect id="SVGID_74_" x="136.5" y="15.5" width="65.2" height="65.2"/>
			</defs>
			<clipPath id="SVGID_75_">
				<use xlink:href="#SVGID_74_"  style="overflow:visible;"/>
			</clipPath>
			<path class="st39" d="M193.1,29.6c-0.5,0-0.7,0.4-0.7,0.9h1.3C193.7,30,193.6,29.6,193.1,29.6 M192.4,31c0,0.6,0.3,0.9,0.9,0.9
				c0.4,0,0.7-0.1,1.1-0.3l0.2,0.7c-0.3,0.2-0.8,0.4-1.4,0.4c-1.1,0-1.8-0.7-1.8-1.9c0-1.1,0.5-1.9,1.7-1.9c1.1,0,1.5,0.8,1.5,1.7
				V31C194.6,31,192.4,31,192.4,31z"/>
		</g>
		<g>
			<defs>
				<rect id="SVGID_76_" x="136.5" y="15.5" width="65.2" height="65.2"/>
			</defs>
			<clipPath id="SVGID_77_">
				<use xlink:href="#SVGID_76_"  style="overflow:visible;"/>
			</clipPath>
			<path class="st40" d="M170.8,75.6c0-0.3-0.3-0.4-0.5-0.4s-0.5,0.1-0.5,0.4s0.3,0.4,0.5,0.4C170.6,76,170.8,75.9,170.8,75.6
				 M170.2,77.3c-0.3,0-0.4,0.2-0.4,0.4c0,0.2,0.2,0.4,0.5,0.4s0.6-0.2,0.6-0.5C170.9,77.4,170.7,77.3,170.2,77.3 M171.7,74.7v0.5
				c-0.1,0-0.3,0-0.5-0.1c0.1,0.1,0.3,0.3,0.3,0.4c0,0.7-0.7,0.9-1.1,0.9c-0.1,0-0.2,0-0.4-0.1c-0.1,0-0.1,0.1-0.1,0.2
				c0,0.3,1.8-0.1,1.8,1c0,0.6-0.6,1-1.3,1c-0.6,0-1.2-0.3-1.2-0.8c0-0.4,0.3-0.5,0.7-0.6c-0.3,0-0.7-0.1-0.7-0.5
				c0-0.2,0.2-0.4,0.5-0.4c-0.3-0.2-0.5-0.4-0.5-0.8c0-0.7,0.7-0.9,1.1-0.9C170.6,74.6,171.3,74.7,171.7,74.7"/>
		</g>
		<g>
			<defs>
				<rect id="SVGID_78_" x="136.5" y="15.5" width="65.2" height="65.2"/>
			</defs>
			<clipPath id="SVGID_79_">
				<use xlink:href="#SVGID_78_"  style="overflow:visible;"/>
			</clipPath>
			<path class="st41" d="M173.9,76.1c0-0.7-0.2-0.9-0.5-0.9s-0.5,0.2-0.5,0.9c0,0.6,0.2,0.9,0.5,0.9C173.8,77,173.9,76.7,173.9,76.1
				 M174.7,76.1c0,0.9-0.5,1.4-1.3,1.4s-1.3-0.5-1.3-1.4c0-0.8,0.4-1.4,1.3-1.4C174.2,74.6,174.7,75.2,174.7,76.1"/>
		</g>
		<g>
			<defs>
				<rect id="SVGID_80_" x="136.5" y="15.5" width="65.2" height="65.2"/>
			</defs>
			<clipPath id="SVGID_81_">
				<use xlink:href="#SVGID_80_"  style="overflow:visible;"/>
			</clipPath>
			<path class="st42" d="M176,76.7c0.1,0.2,0.3,0.3,0.5,0.3c0.3,0,0.6-0.2,0.6-0.9c0-0.7-0.2-0.9-0.5-0.9c-0.2,0-0.4,0.1-0.5,0.2
				v1.3H176z M175.9,75c0.1-0.2,0.4-0.3,0.7-0.3c0.6,0,1.1,0.5,1.1,1.4c0,1-0.6,1.4-1.2,1.4c-0.4,0-0.6-0.2-0.8-0.4l-0.1,0.3h-0.4
				v-3.9h0.7v1V75z"/>
		</g>
	</g>
	<g>
		<g>
			<defs>
				<rect id="SVGID_82_" x="-92.2" y="-225.2" width="396.9" height="396.9"/>
			</defs>
			<clipPath id="SVGID_83_">
				<use xlink:href="#SVGID_82_"  style="overflow:visible;"/>
			</clipPath>
			<rect x="178.2" y="76.6" class="st43" width="0.7" height="0.8"/>
		</g>
	</g>
	<g>
		<g>
			<defs>
				<rect id="SVGID_84_" x="136.5" y="15.5" width="65.2" height="65.2"/>
			</defs>
			<clipPath id="SVGID_85_">
				<use xlink:href="#SVGID_84_"  style="overflow:visible;"/>
			</clipPath>
			<path class="st44" d="M181.8,77.2c-0.2,0.1-0.5,0.2-0.9,0.2c-0.8,0-1.3-0.5-1.3-1.4s0.5-1.4,1.3-1.4c0.4,0,0.7,0.1,0.9,0.2
				l-0.2,0.5c-0.2-0.1-0.4-0.2-0.7-0.2c-0.4,0-0.6,0.3-0.6,0.9s0.2,0.9,0.6,0.9c0.3,0,0.6-0.1,0.7-0.2L181.8,77.2z"/>
		</g>
		<g>
			<defs>
				<rect id="SVGID_86_" x="136.5" y="15.5" width="65.2" height="65.2"/>
			</defs>
			<clipPath id="SVGID_87_">
				<use xlink:href="#SVGID_86_"  style="overflow:visible;"/>
			</clipPath>
			<path class="st45" d="M182.3,76.7v-3.2h0.7v3.2c0,0.2,0.1,0.3,0.4,0.3v0.5c0,0-0.2,0-0.4,0C182.5,77.5,182.3,77.2,182.3,76.7"/>
		</g>
		<g>
			<defs>
				<rect id="SVGID_88_" x="136.5" y="15.5" width="65.2" height="65.2"/>
			</defs>
			<clipPath id="SVGID_89_">
				<use xlink:href="#SVGID_88_"  style="overflow:visible;"/>
			</clipPath>
			<path class="st46" d="M153.8,28.5v1C154,29.1,153.9,28.7,153.8,28.5"/>
		</g>
		<g>
			<defs>
				<rect id="SVGID_90_" x="136.5" y="15.5" width="65.2" height="65.2"/>
			</defs>
			<clipPath id="SVGID_91_">
				<use xlink:href="#SVGID_90_"  style="overflow:visible;"/>
			</clipPath>
			<path class="st47" d="M156,22.5c0,0.1-0.2,0.1-0.2,0.2C155.7,22.6,155.9,22.4,156,22.5 M156.7,22.5c0.1-0.1,0.2-0.3,0.3-0.2
				c0.1,0,0.1,0.1,0.2,0.2s0.2,0.1,0.2,0.2s-0.1,0.3-0.2,0.1c-0.1-0.1-0.2-0.4-0.4-0.3s-0.3,0.2-0.3,0.1
				C156.5,22.5,156.6,22.5,156.7,22.5 M156.7,22.6c0.1-0.1,0.1,0.2,0.3,0.2C156.8,23,156.6,22.8,156.7,22.6 M155.8,23
				c0,0,0-0.1,0.1-0.2c0.1,0,0.3,0.1,0.3,0.2s-0.1,0.4,0.3,0.5v0.1c0,0.1,0,0.1-0.1,0.2c0,0,0,0,0.1,0c0.6,0,0.9,0,1-0.2
				c0,0,0.1-0.1,0.1-0.2c0.1-0.3,0.2-0.5,0.1-0.8l0,0l0,0v-0.1c-0.1-0.2-0.4-0.5-0.8-0.6h-0.1l0,0l0,0l0,0l0,0h0.1
				c0.3,0,0.8,0.3,0.9,0.6c0.1-0.1,0.2-0.2,0.2-0.4l0,0c0,0,0-0.2,0.1-0.4v-0.1H158c-0.1,0.2-0.2,0.1-0.2-0.1v-0.1h-0.1
				c-0.1,0.1-0.2,0.1-0.2-0.1v-0.1h-0.1c-0.1,0.2-0.2,0.1-0.2-0.1V21h-0.1c-0.1,0.1-0.1,0.2-0.1,0.2c0.3,0.1,0.7,0.2,0.9,0.5
				l0.1,0.1l0,0l0,0l0,0l0,0l-0.1-0.1c-0.4-0.3-0.7-0.4-1-0.5c-0.2,0-0.1,0.2-0.1,0.3c-0.3-0.1-0.5,0.2-0.5,0.4c0,0.1,0,0.2,0.1,0.2
				l0,0c0,0-0.1,0-0.1-0.1c0,0,0-0.1,0-0.2c-0.2,0-0.5,0.1-0.4,0.4C155.6,22.8,155.8,23,155.8,23"/>
		</g>
		<g>
			<defs>
				<rect id="SVGID_92_" x="136.5" y="15.5" width="65.2" height="65.2"/>
			</defs>
			<clipPath id="SVGID_93_">
				<use xlink:href="#SVGID_92_"  style="overflow:visible;"/>
			</clipPath>
			<path class="st48" d="M162.5,33.3c-0.2-0.2-0.6-0.1-0.6-0.1c0.2-0.7-0.4-0.9-0.4-0.9c-0.2-0.1-0.4,0-0.5,0.1l0,0l0,0l0,0
				c-0.1,0.1-0.1,0.1-0.1,0.2c0,0.2,0.2,0.3,0.3,0.3s0.1,0,0.2-0.1c0.1,0,0.1-0.1,0.1-0.2c0.1,0.1,0.1,0.2,0.1,0.2
				c0.2,0.6-0.5,0.8-0.5,0.8c-1.5,0.5-2.4-0.3-2.4-0.3l0.3-0.1c0.1,0,0.2-0.1,0.2-0.1l0,0c0,0.2,0.1,0.3,0.3,0.3s0.3-0.1,0.3-0.3
				c0-0.1,0-0.1,0-0.1l0,0l0,0c-0.2-0.3-0.8-0.1-0.8-0.1c0.2-0.5,0-0.9,0-0.9c-0.1-0.2-0.1-0.3-0.1-0.3c0-0.2,0-0.2,0-0.2
				c-0.1-0.1-0.3-0.1-0.3-0.1c-0.2,0.1-0.3,0-0.3,0c-0.2-0.1-0.3-0.1-0.3-0.1c-0.1,0.1,0,0.2,0,0.2c-0.2,0-0.3,0.3-0.3,0.3
				c-0.1,0.5,0.3,0.5,0.3,0.5c0.3,0,0.3-0.2,0.3-0.2c0-0.2-0.3-0.2-0.3-0.2c0.1-0.1,0.1-0.1,0.1-0.1c0.3-0.1,0.5,0.3,0.5,0.3
				c0.3,0.4-0.1,0.8-0.1,0.8c-0.1,0.1-0.1,0-0.1,0c-0.2-0.1-0.4-0.3-0.4-0.3l0,0h-0.1c-0.1,0-0.2,0-0.3,0.1c0.1,0.1,0.5,0.5,0.5,0.5
				c-0.3,0.2-0.5,0.1-0.5,0.1c-0.1-0.2-0.1-0.4-0.1-0.5l0,0c-0.1,0.1-0.3,0.1-0.4,0.2c0.1,0.2,0.4,0.6,0.4,0.6
				c-0.3,0.1-0.4-0.3-0.4-0.6c-0.1,0-0.1,0.1-0.2,0.1c0,0.1,0,0.1,0,0.1c0,0.3,0.3,0.6,0.3,0.6c-0.2-0.1-0.4,0.1-0.4,0.1
				c-0.2,0.1-0.2,0.3-0.1,0.4c0,0.1,0.1,0.2,0.2,0.2c0.1,0,0.2-0.1,0.2-0.2c0-0.1-0.1-0.2-0.2-0.2c0.1-0.2,0.3,0,0.3,0
				c0.3,0.2-0.2,0.5-0.2,0.5c-0.3,0.2-0.6-0.2-0.6-0.2c0.3-0.6,0.4-0.9,0.4-1.2c-0.1,0-0.2,0.1-0.3,0.1c0.1,0.5-0.2,0.8-0.2,0.8
				c-0.1-0.1-0.1-0.3-0.1-0.3c0-0.1-0.1-0.2-0.1-0.3c-0.1,0-0.2,0.1-0.3,0.1c0.1,0.3,0.2,0.8,0.2,0.8c-0.1,0.1-0.2,0.1-0.2,0.1
				c-0.2,0-0.1-0.1-0.1-0.1c0.1-0.1,0.1-0.2,0.1-0.2c-0.1-0.2-0.3,0-0.3,0c-0.4,0.2-0.3,0.4-0.3,0.4c0,0.1,0.4,0.3,0.4,0.3
				C155.4,35,155,35,155,35c0-0.1-0.1-0.2-0.2-0.2l0,0c-0.1,0-0.2,0-0.2,0.1V35h-0.2c-0.2,0-0.2-0.5-0.3-0.9c-0.1,0-0.1,0-0.2,0
				c0.1,0.4,0.1,0.8,0.1,0.8c-0.1,0-0.4-0.2-0.4-0.2c-0.4-0.2-0.7-0.2-0.7-0.2c-0.2,0-0.4,0.2-0.4,0.4s0.2,0.4,0.4,0.4
				s0.4-0.2,0.4-0.4c0.2,0.1,0.3,0.2,0.3,0.2c0.4,0.3,0.8,0.3,0.9,0.3c0,0.1,0.2,0.3,0.3,0.3s0.2-0.1,0.3-0.2c0.8,0,1.1-0.4,1.1-0.4
				c0.1-0.1,0.1,0,0.1,0c0.3,0.4,0.9,0.2,0.9,0.2c0.1-0.1,0.1,0,0.1,0c0.1,0.2,0.3,0.1,0.3,0.1c0.2-0.1,0.1-0.3,0.1-0.3
				c-0.1-0.1,0-0.1,0-0.1c0.3,0,0.3-0.1,0.3-0.1c0.1-0.1-0.1-0.2-0.1-0.2c-0.1-0.1,0.1-0.1,0.1-0.1c0.2-0.1,0.1-0.2,0.1-0.2
				c0.2,0,0.2-0.1,0.2-0.1c0-0.1-0.3-0.1-0.3-0.1c-0.2,0-0.2-0.1-0.2-0.1c0.3,0,0.8-0.1,0.8-0.1c0.7,0.5,1.7,0.7,1.7,0.7
				c0,0.1,0,0.2,0,0.3l0,0c-0.1,0-0.2,0.1-0.2,0.2c0,0.1,0.1,0.2,0.2,0.2l0,0c0.3-0.1,0.3-0.6,0.3-0.6c0.9,0.1,1.5-0.6,1.5-0.6
				c0.1-0.1,0.1-0.1,0.2,0l0,0c0,0.1,0.1,0.1,0.2,0.1c0.1,0,0.2,0,0.2-0.1s0-0.1,0-0.1l0,0l0,0C162.5,33.4,162.5,33.3,162.5,33.3"/>
		</g>
		<g>
			<defs>
				<rect id="SVGID_94_" x="136.5" y="15.5" width="65.2" height="65.2"/>
			</defs>
			<clipPath id="SVGID_95_">
				<use xlink:href="#SVGID_94_"  style="overflow:visible;"/>
			</clipPath>
			<path class="st49" d="M151.5,34.5c0.1,0,0.1-0.1,0.1-0.1c0-0.2-0.2-0.4-0.2-0.4c-0.1,0-0.2,0-0.3,0s-0.2,0-0.3,0
				c0,0-0.2,0.1-0.2,0.4c0,0,0,0.1,0.1,0.1c0,0-0.2,0.1-0.2,0.3c0,0,0,0.1,0.2,0.3c0,0,0.1,0.2,0.2,0.3c0,0,0,0.2,0.3,0.2
				c0.2,0,0.3-0.2,0.3-0.2c0-0.1,0.2-0.3,0.2-0.3c0.1-0.3,0.1-0.4,0.1-0.4C151.8,34.6,151.5,34.5,151.5,34.5"/>
		</g>
	</g>
	<g>
		<g>
			<defs>
				<rect id="SVGID_96_" x="-92.2" y="-225.2" width="396.9" height="396.9"/>
			</defs>
			<clipPath id="SVGID_97_">
				<use xlink:href="#SVGID_96_"  style="overflow:visible;"/>
			</clipPath>
			<polygon class="st50" points="153.2,33.5 153.3,33.4 153.3,33.3 			"/>
		</g>
		<g>
			<defs>
				<rect id="SVGID_98_" x="-92.2" y="-225.2" width="396.9" height="396.9"/>
			</defs>
			<clipPath id="SVGID_99_">
				<use xlink:href="#SVGID_98_"  style="overflow:visible;"/>
			</clipPath>
			<polygon class="st51" points="149.2,33.5 149.3,33.5 149.3,33.3 			"/>
		</g>
	</g>
	<g>
		<g>
			<defs>
				<rect id="SVGID_100_" x="136.5" y="15.5" width="65.2" height="65.2"/>
			</defs>
			<clipPath id="SVGID_101_">
				<use xlink:href="#SVGID_100_"  style="overflow:visible;"/>
			</clipPath>
			<path class="st52" d="M148.7,33.1L148.7,33.1v0.2h0.1l0,0c0,0,0,0,0-0.1C148.8,33.2,148.8,33.2,148.7,33.1
				C148.8,33.1,148.8,33.1,148.7,33.1"/>
		</g>
		<g>
			<defs>
				<rect id="SVGID_102_" x="136.5" y="15.5" width="65.2" height="65.2"/>
			</defs>
			<clipPath id="SVGID_103_">
				<use xlink:href="#SVGID_102_"  style="overflow:visible;"/>
			</clipPath>
			<path class="st53" d="M150.5,33.3C150.4,33.3,150.4,33.3,150.5,33.3c-0.1,0.1-0.1,0.1-0.1,0.2c0,0.1,0,0.1,0,0.2l0.1,0.1h0.1
				c0,0,0-0.1,0-0.2C150.6,33.4,150.6,33.4,150.5,33.3L150.5,33.3"/>
		</g>
		<g>
			<defs>
				<rect id="SVGID_104_" x="136.5" y="15.5" width="65.2" height="65.2"/>
			</defs>
			<clipPath id="SVGID_105_">
				<use xlink:href="#SVGID_104_"  style="overflow:visible;"/>
			</clipPath>
			<path class="st54" d="M152,33.3C151.9,33.3,151.9,33.3,152,33.3c-0.1,0.1-0.1,0.1-0.1,0.2c0,0.1,0,0.1,0,0.2c0,0,0.1,0.1,0.1,0
				c0,0,0.1,0,0.1-0.1c0,0,0-0.1,0-0.2C152.1,33.4,152.1,33.3,152,33.3C152.1,33.3,152,33.3,152,33.3"/>
		</g>
	</g>
	<g>
		<polygon class="st10" points="147.9,33.3 148,33.3 147.9,33.1 		"/>
	</g>
	<g>
		<g>
			<defs>
				<rect id="SVGID_106_" x="136.5" y="15.5" width="65.2" height="65.2"/>
			</defs>
			<clipPath id="SVGID_107_">
				<use xlink:href="#SVGID_106_"  style="overflow:visible;"/>
			</clipPath>
			<path class="st55" d="M145.6,32.4l-0.1,0.2l0,0h0.1c0,0,0,0,0-0.1C145.7,32.5,145.7,32.4,145.6,32.4L145.6,32.4L145.6,32.4"/>
		</g>
		<g>
			<defs>
				<rect id="SVGID_108_" x="136.5" y="15.5" width="65.2" height="65.2"/>
			</defs>
			<clipPath id="SVGID_109_">
				<use xlink:href="#SVGID_108_"  style="overflow:visible;"/>
			</clipPath>
			<path class="st56" d="M146.1,32.5H146l-0.1,0.1c0,0.1,0,0.1,0,0.2c0,0,0,0.1,0.1,0.1h0.1l0.1-0.1
				C146.2,32.7,146.2,32.7,146.1,32.5C146.2,32.6,146.2,32.6,146.1,32.5"/>
		</g>
		<g>
			<defs>
				<rect id="SVGID_110_" x="136.5" y="15.5" width="65.2" height="65.2"/>
			</defs>
			<clipPath id="SVGID_111_">
				<use xlink:href="#SVGID_110_"  style="overflow:visible;"/>
			</clipPath>
			<path class="st57" d="M146.7,32.7L146.7,32.7l-0.1,0.2h0.1l0,0c0,0,0,0,0-0.1C146.8,32.8,146.8,32.8,146.7,32.7
				C146.8,32.7,146.7,32.7,146.7,32.7"/>
		</g>
		<g>
			<defs>
				<rect id="SVGID_112_" x="136.5" y="15.5" width="65.2" height="65.2"/>
			</defs>
			<clipPath id="SVGID_113_">
				<use xlink:href="#SVGID_112_"  style="overflow:visible;"/>
			</clipPath>
			<path class="st58" d="M155.7,32.7L155.7,32.7c-0.1,0-0.1,0-0.1,0v0.2h0.1l0,0C155.8,32.8,155.8,32.8,155.7,32.7
				C155.7,32.8,155.7,32.7,155.7,32.7"/>
		</g>
	</g>
	<g>
		<polygon class="st10" points="156.7,32.7 156.8,32.6 156.7,32.5 		"/>
	</g>
	<g>
		<g>
			<defs>
				<rect id="SVGID_114_" x="136.5" y="15.5" width="65.2" height="65.2"/>
			</defs>
			<clipPath id="SVGID_115_">
				<use xlink:href="#SVGID_114_"  style="overflow:visible;"/>
			</clipPath>
			<path class="st59" d="M156.9,32.8L156.9,32.8C156.9,32.7,156.9,32.7,156.9,32.8C156.9,32.7,156.9,32.7,156.9,32.8
				C156.9,32.7,156.9,32.7,156.9,32.8L156.9,32.8L156.9,32.8h-0.1l0,0l0,0l0,0l0,0H156.9l-0.2,0.1l0,0c0,0,0,0,0-0.1v-0.4l0,0
				l0.3,0.3c0,0,0,0,0.1,0.1l0,0l0,0L156.9,32.8z M156.1,33L156.1,33l0.1-0.5h-0.1H156c0,0,0,0,0,0.1l0,0v-0.1l0.4-0.1l0,0l-0.1,0.5
				h0.1h0.1l0,0c0,0,0,0,0-0.1l0,0v0.1L156.1,33z M155.9,33.1c0,0-0.1,0-0.1-0.1c0,0,0,0-0.1-0.1l0,0c0,0,0,0-0.1,0V33l0,0l0,0l0,0
				l0,0l-0.3,0.1l0,0l0,0l0,0l0,0l-0.1-0.3l0,0l0,0l0,0l0,0h0.2l0,0h0.1c0,0,0,0,0.1,0c0,0,0,0,0.1,0c0,0,0,0,0,0.1s0,0.1-0.1,0.1
				c0,0,0.1,0,0.1,0.1C156,33,156,33,155.9,33.1C156,33,156,33,156,33l0,0L155.9,33.1z M155,33.3L155,33.3L155,33.3L155,33.3
				C155.1,33.2,155.1,33.2,155,33.3l-0.1-0.4l0,0c0,0,0,0-0.1,0l0,0l0,0l0.4-0.1v0.1l0,0l0,0l0,0l0,0h-0.1v0.2l0,0l0,0l0,0l0,0
				L155,33.3L155,33.3L155,33.3L155,33.3L155,33.3L155,33.3l0.1,0.1l0,0l0,0c0,0,0,0,0.1,0h0.1c0,0,0,0,0-0.1c0,0,0,0,0-0.1l0,0v0.2
				L155,33.3z M154.8,33v0.2v0.1c0,0,0,0,0,0.1c0,0,0,0-0.1,0.1h-0.1h-0.1h-0.1c0,0,0,0,0-0.1c0,0,0,0,0-0.1v-0.2l0,0c0,0,0,0-0.1,0
				l0,0l0.3-0.1l0,0l0,0l0,0l0,0v0.2v0.1l0,0c0,0,0,0,0.1,0h0.1c0,0,0,0,0-0.1v-0.1L154.8,33c-0.1,0-0.1-0.1-0.1-0.1l0,0L154.8,33
				L154.8,33C154.8,32.9,154.8,32.9,154.8,33C154.8,32.9,154.8,33,154.8,33L154.8,33 M154.2,33.1L154.2,33.1L154.2,33.1
				c-0.1-0.1-0.1-0.1-0.1-0.1H154v0.2l0,0C154.1,33.2,154.1,33.2,154.2,33.1C154.1,33.2,154.1,33.2,154.2,33.1L154.2,33.1v0.2l0,0
				l0,0l0,0l0,0v0.1l0,0c0,0,0,0,0.1,0l0,0l0,0H154l0,0l0,0l0,0l0,0v-0.3l0,0c0,0,0,0-0.1,0l0,0l0,0H154.2L154.2,33.1L154.2,33.1z
				 M153.4,33.6L153.4,33.6L153.4,33.6L153.4,33.6C153.4,33.5,153.4,33.5,153.4,33.6L153.4,33.6L153.4,33.6l-0.2-0.1l0,0l0,0l0,0
				l0,0L153.4,33.6h-0.3l0,0c0,0,0.1,0,0.1-0.1l0.1-0.4l0,0l0.2,0.4v0.1l0,0l0,0H153.4z M152.6,33.7L152.6,33.7L152.6,33.7
				C152.6,33.6,152.7,33.6,152.6,33.7c0.1-0.1,0.1-0.1,0.1-0.1v-0.3l0,0l0,0l0,0l0,0h0.3l0,0l0,0l0,0l0,0v0.3l0,0l0,0c0,0,0,0,0.1,0
				h0.1v-0.1l0,0v0.2L152.6,33.7z M152.2,33.6c0,0.1-0.1,0.1-0.2,0.1c-0.1,0-0.1,0-0.2,0l-0.1-0.1v-0.1v-0.1l0.1-0.1h0.1
				c0.1,0,0.2,0,0.2,0.1C152.2,33.4,152.2,33.5,152.2,33.6C152.3,33.5,152.2,33.6,152.2,33.6 M151.4,33.3L151.4,33.3
				C151.3,33.3,151.3,33.3,151.4,33.3C151.3,33.3,151.3,33.3,151.4,33.3l-0.1,0.5l0,0l-0.3-0.4v0.2v0.1c0,0,0,0,0.1,0l0,0h-0.3l0,0
				l0,0l0,0l0,0v-0.2c0-0.1,0-0.1-0.1-0.1l0,0h0.2l0.3,0.3v-0.2c0-0.1,0-0.1-0.1-0.1l0,0L151.4,33.3L151.4,33.3z M150.7,33.7
				c-0.1,0-0.1,0.1-0.2,0.1c-0.1,0-0.1,0-0.2,0l-0.1-0.1v-0.1v-0.1l0.1-0.1h0.1c0.1,0,0.2,0,0.2,0.1S150.7,33.6,150.7,33.7
				C150.7,33.6,150.7,33.6,150.7,33.7 M150.1,33.2l-0.3,0.4h0.1h0.1l0,0c0,0,0,0,0-0.1l0,0v0.1h-0.4l0,0l0.3-0.4h-0.1
				c-0.1,0-0.1,0-0.1,0s0,0,0,0.1l0,0v-0.1H150.1L150.1,33.2z M149.5,33.7h-0.2l0,0l0,0l0,0l0,0l0,0l0,0h-0.2l0,0l0,0l0,0l0,0l0,0
				h-0.2l0,0c0,0,0.1,0,0.1-0.1l0.2-0.4l0,0l0.1,0.4C149.5,33.6,149.5,33.6,149.5,33.7C149.5,33.6,149.5,33.6,149.5,33.7L149.5,33.7
				z M149,33.6h-0.2c0,0,0-0.1-0.1-0.1v-0.1l0,0c0,0,0,0-0.1,0v0.1l0,0l0,0l0,0l0,0h-0.3l0,0l0,0l0,0l0,0v-0.3l0,0l0,0l0,0l0,0h0.2
				l0,0h0.1c0,0,0,0,0.1,0l0,0c0,0,0,0,0,0.1s0,0.1-0.1,0.1c0,0,0,0.1,0.1,0.1C148.9,33.5,149,33.5,149,33.6L149,33.6L149,33.6z
				 M148.2,33.5H148l0,0l0,0l0,0l0,0l0,0l0,0h-0.1l0,0l0,0l0,0l0,0l0,0h-0.2l0,0c0,0,0.1,0,0.1-0.1l0.2-0.3l0,0L148.2,33.5
				C148.1,33.4,148.1,33.4,148.2,33.5C148.2,33.4,148.2,33.5,148.2,33.5L148.2,33.5z M147.6,33.4l-0.4-0.1l0,0l0,0l0,0l0,0l0.1-0.3
				c0,0,0,0,0-0.1l0,0l0,0l0,0l0.3,0.1l0,0l0,0c0,0,0,0-0.1,0l0,0l-0.1,0.3l0,0l0,0C147.4,33.3,147.4,33.3,147.6,33.4
				C147.5,33.3,147.6,33.3,147.6,33.4c0-0.1,0-0.1,0-0.2l0,0V33.4z M146.8,33.1C146.9,33.1,146.9,33.2,146.8,33.1
				c0,0.1,0.1,0.1,0.1,0.1l0,0L146.8,33.1L146.8,33.1L146.8,33.1L146.8,33.1c0-0.1,0-0.1-0.1-0.1v0.1l0,0l0,0l0,0l0,0l-0.3-0.1l0,0
				l0,0l0,0l0,0l0.1-0.3l0,0l0,0l0,0l0,0l0.2,0.1l0,0h0.1c0,0,0,0,0.1,0c0,0,0,0,0,0.1c0,0,0,0,0,0.1S146.8,33.1,146.8,33.1
				C146.8,33,146.8,33,146.8,33.1 M146.3,32.8c0,0.1-0.1,0.1-0.1,0.1c-0.1,0-0.1,0-0.2,0c-0.1,0-0.1,0-0.1-0.1l-0.1-0.1v-0.1
				c0,0,0-0.1,0.1-0.1l0.1-0.1h0.1c0.1,0,0.1,0.1,0.2,0.1C146.4,32.7,146.4,32.8,146.3,32.8 M145.8,32.5
				C145.8,32.6,145.7,32.6,145.8,32.5c-0.1,0.1-0.1,0.1-0.1,0.1h-0.1l0,0v0.1l0,0l0,0l0,0l0,0l-0.2-0.1l0,0l0,0c0,0,0,0,0.1,0l0,0
				l0.1-0.3l0,0l0,0l0,0l0,0l0.2,0.1h0.1c0,0,0,0,0.1,0C145.8,32.4,145.8,32.4,145.8,32.5L145.8,32.5 M150.5,33.1h0.1H150.5
				L150.5,33.1L150.5,33.1z M157.2,32c0,0-0.1-0.1-0.2-0.1c-0.1,0-0.1,0-0.1,0c-0.2,0.1-2.3,1-5.7,1s-5.5-0.9-5.7-1c0,0,0,0-0.1,0
				s-0.1,0-0.2,0.1l-0.7,0.6l0,0c0.2,0,0.4,0.1,0.4,0.1c1.8,0.8,3.9,1.1,6.3,1.2c2.4,0,4.5-0.4,6.3-1.2c0,0,0.2-0.1,0.4-0.1l0,0
				L157.2,32z"/>
		</g>
		<g>
			<defs>
				<rect id="SVGID_116_" x="136.5" y="15.5" width="65.2" height="65.2"/>
			</defs>
			<clipPath id="SVGID_117_">
				<use xlink:href="#SVGID_116_"  style="overflow:visible;"/>
			</clipPath>
			<path class="st60" d="M148.9,25.2c-0.1-0.1-0.2-0.1-0.3-0.2c-0.1,0-0.2,0.1-0.3,0.2H148.9z"/>
		</g>
		<g>
			<defs>
				<rect id="SVGID_118_" x="136.5" y="15.5" width="65.2" height="65.2"/>
			</defs>
			<clipPath id="SVGID_119_">
				<use xlink:href="#SVGID_118_"  style="overflow:visible;"/>
			</clipPath>
			<path class="st61" d="M150.2,25.1c0,0-0.1,0.1-0.2,0.1l0,0h2.2l0,0c-0.1,0-0.2-0.1-0.2-0.1l0,0c-0.1,0-0.2-0.1-0.3-0.1h-1.1
				C150.4,25,150.3,25,150.2,25.1L150.2,25.1"/>
		</g>
		<g>
			<defs>
				<rect id="SVGID_120_" x="136.5" y="15.5" width="65.2" height="65.2"/>
			</defs>
			<clipPath id="SVGID_121_">
				<use xlink:href="#SVGID_120_"  style="overflow:visible;"/>
			</clipPath>
			<path class="st62" d="M153.5,25.1L153.5,25.1c-0.1,0-0.1,0.1-0.2,0.2h0.5C153.7,25.2,153.6,25.1,153.5,25.1L153.5,25.1"/>
		</g>
		<g>
			<defs>
				<rect id="SVGID_122_" x="136.5" y="15.5" width="65.2" height="65.2"/>
			</defs>
			<clipPath id="SVGID_123_">
				<use xlink:href="#SVGID_122_"  style="overflow:visible;"/>
			</clipPath>
			<path class="st63" d="M148.4,29.5v-1.1C148.3,28.6,148.2,29,148.4,29.5"/>
		</g>
	</g>
	<g>
		<polygon class="st10" points="151,27.6 148.9,26.9 150.6,26.9 		"/>
	</g>
	<g>
		<g>
			<defs>
				<rect id="SVGID_124_" x="136.5" y="15.5" width="65.2" height="65.2"/>
			</defs>
			<clipPath id="SVGID_125_">
				<use xlink:href="#SVGID_124_"  style="overflow:visible;"/>
			</clipPath>
			<path class="st64" d="M151,25.4h-2.8l0,0v0.1l0.1,0.1h2.6L151,25.4z"/>
		</g>
		<g>
			<defs>
				<rect id="SVGID_126_" x="136.5" y="15.5" width="65.2" height="65.2"/>
			</defs>
			<clipPath id="SVGID_127_">
				<use xlink:href="#SVGID_126_"  style="overflow:visible;"/>
			</clipPath>
			<path class="st65" d="M150.9,25.7h-2.5c0,0.1,0.1,0.1,0.1,0.2h2.3L150.9,25.7z"/>
		</g>
		<g>
			<defs>
				<rect id="SVGID_128_" x="136.5" y="15.5" width="65.2" height="65.2"/>
			</defs>
			<clipPath id="SVGID_129_">
				<use xlink:href="#SVGID_128_"  style="overflow:visible;"/>
			</clipPath>
			<path class="st66" d="M150.8,26.1h-2.2c0,0.1,0.1,0.1,0.1,0.2h2L150.8,26.1z"/>
		</g>
		<g>
			<defs>
				<rect id="SVGID_130_" x="136.5" y="15.5" width="65.2" height="65.2"/>
			</defs>
			<clipPath id="SVGID_131_">
				<use xlink:href="#SVGID_130_"  style="overflow:visible;"/>
			</clipPath>
			<path class="st67" d="M150.7,26.5h-1.9c0,0.1,0,0.1,0,0.2h1.8L150.7,26.5z"/>
		</g>
		<g>
			<defs>
				<rect id="SVGID_132_" x="136.5" y="15.5" width="65.2" height="65.2"/>
			</defs>
			<clipPath id="SVGID_133_">
				<use xlink:href="#SVGID_132_"  style="overflow:visible;"/>
			</clipPath>
			<path class="st68" d="M149.5,27.3h-0.7c0,0.1,0,0.1,0,0.2h1L149.5,27.3z"/>
		</g>
		<g>
			<defs>
				<rect id="SVGID_134_" x="136.5" y="15.5" width="65.2" height="65.2"/>
			</defs>
			<clipPath id="SVGID_135_">
				<use xlink:href="#SVGID_134_"  style="overflow:visible;"/>
			</clipPath>
			<path class="st69" d="M149.2,27.1l-0.3-0.2h-0.1l0,0c0,0,0,0.1,0,0.2H149.2z"/>
		</g>
		<g>
			<defs>
				<rect id="SVGID_136_" x="136.5" y="15.5" width="65.2" height="65.2"/>
			</defs>
			<clipPath id="SVGID_137_">
				<use xlink:href="#SVGID_136_"  style="overflow:visible;"/>
			</clipPath>
			<path class="st70" d="M151.1,25.4L151.1,25.4L151.1,25.4v0.2v0.1v0.2v0.2v0.2v0.2v0.2v0.8l2.1-0.7h-1.7v-0.1h1.9
				c0-0.1,0-0.2,0-0.2h-2v-0.2h2.1c0-0.1,0.1-0.2,0.1-0.2h-2.2v-0.2h2.3c0-0.1,0.1-0.2,0.1-0.2h-2.5v-0.1h2.7
				c0.1-0.1,0.1-0.2,0.2-0.2l0,0C154.2,25.4,151.1,25.4,151.1,25.4z"/>
		</g>
		<g>
			<defs>
				<rect id="SVGID_138_" x="136.5" y="15.5" width="65.2" height="65.2"/>
			</defs>
			<clipPath id="SVGID_139_">
				<use xlink:href="#SVGID_138_"  style="overflow:visible;"/>
			</clipPath>
			<path class="st71" d="M151.6,28.8v1.7c0.1,0,0.1-0.1,0.2-0.1V29L151.6,28.8z"/>
		</g>
		<g>
			<defs>
				<rect id="SVGID_140_" x="136.5" y="15.5" width="65.2" height="65.2"/>
			</defs>
			<clipPath id="SVGID_141_">
				<use xlink:href="#SVGID_140_"  style="overflow:visible;"/>
			</clipPath>
			<path class="st72" d="M151.2,28.5V31c0-0.1,0.1-0.1,0.1-0.1l0,0c0-0.1,0.1-0.1,0.1-0.2v-2L151.2,28.5z"/>
		</g>
		<g>
			<defs>
				<rect id="SVGID_142_" x="136.5" y="15.5" width="65.2" height="65.2"/>
			</defs>
			<clipPath id="SVGID_143_">
				<use xlink:href="#SVGID_142_"  style="overflow:visible;"/>
			</clipPath>
			<path class="st73" d="M150.8,28.6v2c0.1,0.1,0.1,0.1,0.2,0.2l0,0c0,0,0,0,0,0.1v-2.5L150.8,28.6z"/>
		</g>
		<g>
			<defs>
				<rect id="SVGID_144_" x="136.5" y="15.5" width="65.2" height="65.2"/>
			</defs>
			<clipPath id="SVGID_145_">
				<use xlink:href="#SVGID_144_"  style="overflow:visible;"/>
			</clipPath>
			<path class="st74" d="M150.4,28.9v1.5c0.1,0,0.2,0.1,0.2,0.1v-1.8L150.4,28.9z"/>
		</g>
		<g>
			<defs>
				<rect id="SVGID_146_" x="136.5" y="15.5" width="65.2" height="65.2"/>
			</defs>
			<clipPath id="SVGID_147_">
				<use xlink:href="#SVGID_146_"  style="overflow:visible;"/>
			</clipPath>
			<path class="st75" d="M151.9,30.3c0.1,0,0.2,0,0.2-0.1v-1l-0.2-0.2V30.3z"/>
		</g>
		<g>
			<defs>
				<rect id="SVGID_148_" x="136.5" y="15.5" width="65.2" height="65.2"/>
			</defs>
			<clipPath id="SVGID_149_">
				<use xlink:href="#SVGID_148_"  style="overflow:visible;"/>
			</clipPath>
			<path class="st76" d="M150,30.2c0.1,0,0.1,0,0.2,0v-1.3l-0.2,0.2V30.2z"/>
		</g>
		<g>
			<defs>
				<rect id="SVGID_150_" x="136.5" y="15.5" width="65.2" height="65.2"/>
			</defs>
			<clipPath id="SVGID_151_">
				<use xlink:href="#SVGID_150_"  style="overflow:visible;"/>
			</clipPath>
			<path class="st77" d="M149.9,27.9h0.1v0.7l-0.1,0.4V27.9z M151,27.6l-0.8,0.3l-0.3-0.2h-1.3c0,0.1-0.1,0.1-0.1,0.2
				s-0.1,0.1-0.1,0.2v1.6c0,0.1,0.1,0.1,0.2,0.2v-2.1h0.1V30c0.1,0,0.1,0.1,0.2,0.1v-2.3h0.2v2.3c0.1,0,0.1,0,0.2,0v-2.3h0.2v2.4
				h0.1h0.1v-1l-0.1,0.1L151,27.6z"/>
		</g>
		<g>
			<defs>
				<rect id="SVGID_152_" x="136.5" y="15.5" width="65.2" height="65.2"/>
			</defs>
			<clipPath id="SVGID_153_">
				<use xlink:href="#SVGID_152_"  style="overflow:visible;"/>
			</clipPath>
			<path class="st78" d="M152.3,29.3l-0.2-0.4v-1h0.2V29.3z M153.5,27.9L153.5,27.9c0-0.1-0.1-0.2-0.1-0.2h-1.3l-0.3,0.2l-0.6-0.2
				l-0.2-0.1l1.3,1.8v0.9c0.1,0,0.2,0,0.2,0l0,0v-2.4h0.2v2.3c0.1,0,0.2,0,0.2,0v-2.3h0.1v2.3c0.1,0,0.2-0.1,0.2-0.1v-2.2H153.5
				l-0.1,2.1c0.1-0.1,0.2-0.1,0.2-0.2l0,0v-1.6C153.6,28.1,153.5,28,153.5,27.9"/>
		</g>
		<g>
			<defs>
				<rect id="SVGID_154_" x="136.5" y="15.5" width="65.2" height="65.2"/>
			</defs>
			<clipPath id="SVGID_155_">
				<use xlink:href="#SVGID_154_"  style="overflow:visible;"/>
			</clipPath>
			<path class="st79" d="M152.3,27.5h1c0-0.1,0-0.2,0-0.2h-0.7L152.3,27.5z"/>
		</g>
		<g>
			<defs>
				<rect id="SVGID_156_" x="136.5" y="15.5" width="65.2" height="65.2"/>
			</defs>
			<clipPath id="SVGID_157_">
				<use xlink:href="#SVGID_156_"  style="overflow:visible;"/>
			</clipPath>
			<path class="st80" d="M153.2,26.9l-0.3,0.2h0.5c0-0.1,0-0.1,0-0.2c0,0,0,0,0-0.1h-0.2V26.9z"/>
		</g>
		<g>
			<defs>
				<rect id="SVGID_158_" x="136.5" y="15.5" width="65.2" height="65.2"/>
			</defs>
			<clipPath id="SVGID_159_">
				<use xlink:href="#SVGID_158_"  style="overflow:visible;"/>
			</clipPath>
			<path class="st81" d="M154.3,21.5L154.3,21.5L154.3,21.5v-0.1c0-0.1,0-0.2,0-0.3c-0.1-0.5-0.5-0.6-0.8-0.4c0,0,0.3-0.6,1-0.4
				c0.2,0.1,0.3,0.2,0.4,0.4c0.1,0.2,0,0.4,0,0.5l0,0l0,0c0-0.1,0-0.3-0.1-0.4c0-0.1-0.1-0.2-0.2-0.2c0.1,0.1,0.1,0.2,0.1,0.2
				c0,0.1,0,0.2,0,0.2c0,0.2-0.1,0.4-0.2,0.5l0,0l0,0c0.1-0.3,0.1-0.5,0-0.7c0,0,0,0,0-0.1c-0.1-0.1-0.2-0.3-0.4-0.3
				c0.1,0.1,0.2,0.2,0.2,0.3C154.5,21.1,154.5,21.4,154.3,21.5 M151.9,19.2c0,0,0.4,0.1,0.5,0.5c0,0.2-0.1,0.3-0.1,0.3l0,0
				c0.1-0.2,0-0.4-0.1-0.6C152.1,19.2,151.9,19.2,151.9,19.2 M151.6,23.3c-0.1-0.2,0.1-0.4,0.2-0.5
				C152.1,22.7,151.8,23.2,151.6,23.3 M151.7,23.7c-0.1,0-0.1-0.2-0.1-0.2c0-0.2,0.2-0.2,0.3-0.3C151.9,23.2,151.9,23.4,151.7,23.7
				 M151.7,21.9c0.2,0.1-0.1,0.5-0.1,0.6c0,0,0.2-0.2,0.3-0.1s-0.2,0.5-0.3,0.5C151.1,22.3,151.7,22.1,151.7,21.9 M151.4,23.9
				c-0.1,0,0-0.1,0-0.2c0-0.3,0-0.6-0.1-0.9c0-0.1-0.1-0.6-0.4-1.1c0.1,0.1,0.5,0.8,0.6,1.3C151.5,23.2,151.5,23.6,151.4,23.9
				 M151.1,23.7c-0.2,0-0.2-0.1-0.3-0.3c0.1,0.1,0.2,0.2,0.2,0c-0.1-0.1-0.6-0.2-0.4-0.4c0.1-0.1,0.3,0.3,0.4,0.2
				c0-0.3-0.9-0.4-0.9-0.7c0-0.1,0.8,0.4,0.9,0.4c0-0.2-1.1-0.6-1.5-1.2v-0.1l0,0c0.2,0.3,0.8,0.8,1.5,1
				C151.2,22.5,151.3,23.3,151.1,23.7 M148.7,22.1c0.1-0.3,0.2-0.8-0.3-0.9c-0.4-0.1-0.7,0.2-0.9,0.3c0.1-0.3,0.5-0.6,1-0.5
				c-0.1-0.3-0.5-0.4-0.9-0.2c-0.1,0.1-0.2,0.1-0.2,0.2c0.1-0.2,0.3-0.4,0.5-0.4c0.3-0.1,0.7,0,0.8,0.2
				C149.2,21.3,148.9,22.1,148.7,22.1 M147.8,22.4c0.3-0.1,0.5-0.2,0.4-0.5c0-0.1-0.1-0.1-0.2-0.1c-0.1,0-0.2,0.1-0.3,0.2
				c0-0.2,0.2-0.4,0.4-0.4c0.1,0,0.3,0.1,0.3,0.3C148.5,22.2,148.1,22.4,147.8,22.4 M154.4,22.4c0.1,0,0.1,0,0.2,0
				c0.7-0.2,0.7-1.1,0.6-1.1l0,0c0,0.1,0,0.1-0.1,0.2c0,0.1-0.1,0.1-0.1,0.1l0,0c0.2-0.3,0.2-0.5,0.1-0.7c-0.1-0.1-0.1-0.3-0.3-0.4
				c-0.4-0.2-1.1-0.3-1.5,0c-0.1-0.1-0.3-0.2-0.5-0.3c0,0.2-0.3,0.5-0.5,0.7l-0.2,0.1l0,0c0.4-0.2,0.6-0.5,0.6-0.9l0,0
				c0-0.2-0.1-0.5-0.3-0.8c-0.3-0.4-1.3-0.4-1.7-0.1c-0.1,0.1-0.2,0.3-0.2,0.4c0-0.1,0.1-0.3,0.3-0.3c0.2-0.1,0.5,0,0.6,0.2
				c-0.3-0.3-0.9-0.1-1,0.5l0,0l0,0l0,0c0,0,0,0,0-0.3c0-0.2,0.1-0.3,0.1-0.5c-0.7-0.1-1.6,0.2-1.6,1.3c0,0.1,0.1,0.3,0.2,0.4l0,0
				c0,0-0.1,0-0.2-0.1c-0.1-0.1-0.1-0.2-0.2-0.4c-0.4-0.2-0.7-0.2-1-0.1c-0.3,0-0.6,0.3-0.7,0.4c-0.1,0.1-0.1,0.2-0.2,0.3
				c-0.1,0.2-0.2,0.4-0.1,0.6c0,0.4,0.2,0.8,0.5,0.9c0.4,0.2,0.9,0.2,1.1,0.2c0.1,0,0.2-0.1,0.3-0.1l0,0l0,0
				c0.2-0.1,0.3-0.4,0.3-0.7l0,0c0,0,0,0.1,0,0.2s0,0.2-0.1,0.4c0,0,0,0,0,0.1v0.1c0.1,0.1,0.3,0.1,0.4,0.1l0,0c0,0-0.1,0.1-0.3,0.1
				h-0.1c0.1,0.2,0.4,0.3,0.7,0.3l0,0c0,0-0.1,0-0.2,0c-0.1,0-0.3,0-0.4-0.1c0.1,0.2,0.4,0.3,0.8,0.4c0,0-0.3,0-0.4,0
				c0.2,0.8,0.6,0.7,0.6,0.7c-0.1,0-0.2,0.2-0.1,0.4c0.4-0.2,0.8-0.2,0.9-0.2c0.1,0,0.4,0,0.9,0.2c0-0.1,0-0.1,0-0.2
				c-0.1-0.2-0.7-0.3-1.2-0.2c0,0,0,0-0.1,0l0,0l0,0l0,0h0.1c0.2-0.1,0.7-0.2,1,0l0,0c0.2,0.1,0.4-0.2,0.4-0.3
				c0.2,0,0.3-0.1,0.3-0.3H152l0,0c-0.1,0-0.1,0-0.1,0l0,0l0,0l0,0l0,0h0.1c0.3-0.2,0.5-0.6,0.4-0.7c0,0.1-0.1,0.1-0.2,0.1
				c-0.1,0-0.1,0-0.1,0l0,0h0.1c0.1-0.1,0.2-0.2,0.3-0.4c-0.2-0.2-0.3-0.4-0.4-0.7c0-0.1-0.1-0.2-0.3-0.2c0,0,0,0-0.1,0l0,0l0,0
				c0.2-0.1,0.3,0,0.4,0.1c0-0.3,0.1-0.4,0.1-0.4l0,0c-0.2,0.6,0.2,1.1,0.5,1.3c0.4,0.2,1.1,0.3,1.6-0.2l0,0c-0.1,0-0.2,0-0.3,0
				C154.5,22.5,154.4,22.4,154.4,22.4L154.4,22.4"/>
		</g>
		<g>
			<defs>
				<rect id="SVGID_160_" x="136.5" y="15.5" width="65.2" height="65.2"/>
			</defs>
			<clipPath id="SVGID_161_">
				<use xlink:href="#SVGID_160_"  style="overflow:visible;"/>
			</clipPath>
			<path class="st82" d="M160.3,30.5c0,0.2-0.1,0.7-0.2,0.7c0.4-4,0.2-5,0.1-5c-0.1,0-0.1,0.5-0.4,0.4c-0.2-0.1,0.5-1,0.2-1.5
				c-0.1-0.1-0.1,0.1-0.2,0.1c-0.3-0.1,0.2-0.9,0.1-0.9c-0.1-0.1-0.3-0.1-0.3-0.4c0-0.1,0.1-0.2,0-0.3c-0.1-0.1-0.1,0.1-0.2,0
				c-0.1-0.1,0-0.3-0.1-0.4c0,0-0.1,0.1-0.2,0c-0.1-0.1,0-0.2-0.1-0.2s-0.3,0.2-0.3,0.4c0,0.1,0.2,0.2,0.1,0.3
				c0,0.1-0.1,0.2-0.2,0.3c-0.2,0.4,0.1,0.5,0.1,0.7c0,0.1-0.2,0.1-0.2,0.1c-0.1,0-0.1-0.4-0.1-0.6s0.3-0.4,0.3-0.5
				s-0.1-0.2-0.1-0.4c0-0.2,0.2-0.5,0.4-0.4c0.1,0,0.2,0.2,0.3,0.3l0.1,0.1c0.3,0.3,0.5,0.9,0.6,1.4
				C160.6,25.9,160.8,28.1,160.3,30.5 M158.3,24.8c-0.1,0.1-0.2,0.1-0.3,0.2c-0.2,0.1-0.4,0-0.5-0.2c0.2,0,0.3,0.1,0.5,0
				c0.1,0,0.1,0,0.2,0C158.3,24.8,158.3,24.8,158.3,24.8C158.4,24.8,158.4,24.8,158.3,24.8 M156.1,31.5L156.1,31.5L156.1,31.5
				c-0.1,0-0.4-0.1-0.4-0.1s-0.1-0.1-0.2-0.1l0,0c-0.1,0-0.1,0.1-0.2,0.2c0,0,0,0,0-0.1l0,0l0,0l0,0l0,0l0,0l0,0l0,0l0,0l0,0l0,0
				c0.1,0,0.1,0,0.2,0c0.1,0,0.2,0,0.3,0.1s0.2,0.1,0.3,0.1C156.2,31.3,156.2,31.4,156.1,31.5 M147,30.9C147,31,147,31,147,30.9
				C147,31,147,31,147,30.9C147,31,147,31,147,30.9c-0.1,0.1-0.1,0.1-0.1,0.1c-0.1,0-0.1,0-0.2,0v0.1l0,0l0,0l0,0c0,0,0,0,0.1,0
				c0,0.1-0.1,0.1-0.1,0.1c-0.1,0-0.2-0.1-0.2-0.2l0,0l0,0c-0.1,0-0.2-0.1-0.3-0.1c0-0.2,0.6-0.1,0.6-0.1
				C146.9,30.9,146.9,30.9,147,30.9L147,30.9 M156.4,29.4c-0.5,0-0.8-0.4-0.8-0.4s0.2,0.2,0.3,0.2c0.2,0.1,0.6,0,0.7-0.1l0,0
				C156.7,29.2,156.7,29.4,156.4,29.4 M154.6,29.1L154.6,29.1C154.6,29.1,154.5,29.1,154.6,29.1C154.5,29.1,154.5,29.1,154.6,29.1
				L154.6,29.1C154.5,29.2,154.5,29.2,154.6,29.1L154.6,29.1c-0.1,0.1-0.1,0.1-0.1,0.1l0,0l0,0l0,0l0,0l0,0l0,0l0,0l0,0l0,0
				c0,0-0.1-0.1,0-0.1l0,0l0,0l0,0l0,0l0,0l0,0l0,0l0,0l0,0l0,0l0,0l0,0l0,0l0,0l0,0c0-0.2,0-0.4,0.1-0.5l0,0l0,0l0,0l0,0l0,0l0,0
				l0,0l0,0l0,0l0,0l0,0l0,0l0,0c0,0,0,0.1,0,0.2l0,0l0,0v0.1C154.6,28.9,154.6,29,154.6,29.1 M153.9,29.7c0,0.1-0.4,0.6-1.4,0.6
				c-0.1,0-0.9,0-1.1,0.5l0,0c0,0.1-0.1,0.2-0.2,0.3l0,0l0,0c0-0.1-0.1-0.2-0.2-0.3l0,0c-0.3-0.5-1-0.5-1.1-0.5
				c-1,0-1.3-0.6-1.4-0.6c-0.5-0.7,0-1.5,0-1.5c0.4-0.7,0.4-1.2,0.3-1.2c0-0.8-0.5-1.3-0.5-1.4c-0.1-0.1-0.1-0.1-0.1-0.2
				s0.1-0.1,0.1-0.1c0.1-0.1,0.3-0.2,0.4-0.3l0,0l0,0c0,0,0.1,0,0.1,0.1c0.1,0.1,0.3,0.2,0.6,0.2c0.1,0,0.1,0,0.2,0
				c0.2,0,0.4-0.2,0.4-0.2c0.1,0,0.2-0.1,0.2-0.1l0,0c0.4-0.2,0.8-0.2,0.9-0.2c0.1,0,0.5,0,0.9,0.2l0,0c0,0,0.1,0.1,0.2,0.1
				c0,0,0.3,0.1,0.4,0.2c0.1,0,0.1,0,0.2,0c0.3,0,0.5-0.1,0.6-0.2l0.1-0.1l0,0l0,0c0.1,0.1,0.3,0.2,0.4,0.3c0,0,0.1,0,0.1,0.1
				c0,0,0,0.1-0.1,0.2s-0.5,0.6-0.5,1.4c0,0.1-0.1,0.6,0.3,1.3C153.9,28.2,154.3,29,153.9,29.7 M148.1,28.4L148.1,28.4L148.1,28.4
				c0,0.1,0,0.1,0,0.1l0,0l0,0l0,0l0,0l0,0l0,0l0,0l0,0c0,0,0,0-0.1,0l0,0c0,0,0,0-0.1,0l0,0l0,0c0-0.1,0.1-0.1,0.1-0.2
				s0-0.1,0.1-0.2c0.1,0,0.1,0,0.1,0c-0.1-0.1-0.1-0.2,0-0.4c0.2-0.2,0-0.6,0-0.6c0.1,0,0.1,0.2,0.1,0.3l0,0c0,0,0,0,0,0.1l0,0l0,0
				l0,0c0,0,0,0,0,0.1l0,0l0,0l0,0c0,0,0,0,0,0.1l0,0l0,0l0,0l0,0C148.2,28.3,148.2,28.3,148.1,28.4
				C148.2,28.3,148.2,28.3,148.1,28.4L148.1,28.4 M154.2,27.6L154.2,27.6L154.2,27.6c0.1,0,0.1,0,0.2,0c0,0,0.1,0.1,0.1,0.2l0.1,0.2
				c0.1,0.1,0,0.2-0.1,0.1l0,0c-0.1,0-0.3-0.2-0.2-0.5L154.2,27.6L154.2,27.6c0,0,0,0-0.1,0l0,0l0,0l0,0c0,0,0,0.1-0.1,0.1
				c0-0.1,0.1-0.2,0.1-0.2l0,0C154,27.6,154.1,27.6,154.2,27.6 M148.1,26.7c-0.1,0-0.1-0.3-0.5-0.2c-0.2,0.1-0.4,0-0.5,0
				C147.6,26.1,148.1,26.4,148.1,26.7 M146,24.3c-0.3-0.1-0.6-0.1-0.7-0.4c0.4,0,0.8,0,1,0.2l0,0c0.1,0.1,0.3,0.2,0.4,0.5
				C146.4,24.5,146.3,24.4,146,24.3 M145.1,23c-0.1,0-0.2-0.1-0.3,0c0,0-0.1,0.1-0.1,0.2s-0.1,0.1-0.2,0.1c-0.1-0.2,0.2-0.5,0.3-0.5
				c0.2-0.1,0.3,0,0.5,0.1c0.1,0,0.3,0,0.4,0c0.2,0,0.2,0.2,0.1,0.2c-0.2,0.1-0.3-0.1-0.5-0.1C145.4,22.9,145.3,23,145.1,23
				 M144.8,23.3c0.3,0.1,0.3-0.2,0.3-0.2C145.2,23.3,145,23.5,144.8,23.3 M143.3,32.6L143.3,32.6L143.3,32.6L143.3,32.6l0.1,0.1l0,0
				L143.3,32.6L143.3,32.6c-0.1,0.1-0.1,0-0.1,0c0,0.1,0,0.1,0.1,0.2c0,0,0,0-0.1,0l0,0h-0.1l0,0l0,0c-0.1,0-0.1-0.2-0.1-0.2
				c0-0.1,0-0.2-0.1-0.2C143,32.3,143.3,32.6,143.3,32.6 M155.4,24.8c-0.1,0.1-0.2,0.3-0.3,0.3c-0.3,0.1-0.6-0.2-0.6-0.2
				s0.2,0.1,0.5,0.1C155.2,25,155.3,24.8,155.4,24.8C155.4,24.7,155.5,24.7,155.4,24.8 M154.3,23.4L154.3,23.4
				c-0.2-0.1-0.5-0.1-0.8,0c-0.2,0.1-0.3,0.3-0.3,0.3s0.3-0.4,0.8-0.5C154.3,23.2,154.4,23.3,154.3,23.4 M160.8,27.3
				c-0.1-1.1-0.2-2.1-0.4-3c-0.2-0.6-0.5-1.7-1.2-1.9c-0.3-0.1-0.6,0.2-0.6,0.5s0.2,0.4,0.1,0.6c-0.1,0.2-0.2,0.3-0.2,0.5
				s0.1,0.3,0.1,0.4c-0.2,0-0.3,0.2-0.7,0.1c-0.3,0.1-0.6,0.1-0.6,0.1l0,0c0.3,0,0.6-0.1,0.7-0.3c0.1-0.2,0-0.6-0.1-0.7
				c-0.2,0-0.3,0.2-0.9,0.2c-0.5,0-0.7,0.1-0.8,0.4c0-0.1,0-0.1,0-0.2c0-0.2,0.2-0.3,0.4-0.3c0-0.1,0.1-0.1,0.1-0.2
				c-0.1,0-0.1,0-0.3,0c-0.3,0-0.6,0.2-0.7,0.4V24v0.1v0.1c0.1,0.2,0.3,0.3,0.7,0.3l0,0c0,0-0.1,0-0.2,0c0,0-0.4,0-0.6-0.2l0,0
				c-0.1,0.1-0.3,0.2-0.5,0.2s-0.4-0.1-0.5-0.2c-0.3-0.4,0.1-1,0.1-1.2c0-0.6-0.8-0.3-1.1-0.2c-0.4,0.2-0.6,0.5-0.9,0.8
				c-0.1,0.2-0.3,0.4-0.3,0.5c0.1,0,0.4,0.2,0.7,0.2l0,0c0,0,0,0,0.1,0s0.4,0,0.5-0.2c0,0,0.1-0.1,0.2-0.1c0.1,0,0.1,0,0.2,0.1
				c0,0,0.6,0.5,0.7,0.6l0.1,0.1c0,0,0,0.1-0.1,0.2c0,0-0.3,0.4-0.5,0.8l0,0c0,0.1,0,0.1-0.1,0.2c-0.1,0.2-0.1,0.6,0.2,0.7
				c0,0,0.3,0.1,0.3-0.5c0,0,0.1,0.4,0.3,0.4c0.1,0,0.2-0.1,0.2-0.4l0,0c0-0.2,0-0.5,0-0.8l0,0c0,0,0,0,0,0.1s-0.1,1.5,1,2.3
				c0,0-0.5-0.2-0.8-0.8c-0.2,0.1-0.4,0.3-0.3,0.8c0.1,0.2,0.2,0.3,0.3,0.4l0,0c0,0-0.1,0.1-0.2,0l0,0c0,0,0,0,0-0.1
				s-0.1-0.1-0.1-0.2c-0.1-0.1-0.2-0.2-0.4-0.3l0,0c-0.1-0.2,0-0.7-0.6-0.7l0,0l0,0H154l0,0c-0.1-0.5-0.1-0.8-0.1-0.8
				c0.1-0.7,0.6-1.2,0.6-1.3v-0.1l0,0l0,0c-0.2-0.1-0.7-0.5-0.7-0.6l0,0l-0.1-0.1c-0.1,0-0.1,0-0.1,0c-0.2,0.2-0.5,0.2-0.6,0.2h-0.1
				l0,0c-0.3,0-0.7-0.2-0.7-0.2c-0.5-0.2-0.9-0.2-1-0.2s-0.5,0-1,0.2c-0.1,0-0.4,0.2-0.7,0.2l0,0h-0.1c-0.1,0-0.4,0-0.6-0.2l0,0
				c0,0,0,0-0.1,0c0,0-0.1,0-0.1,0.1l0,0c-0.1,0-0.6,0.5-0.7,0.6l0,0l0,0v0.1c0.1,0.1,0.5,0.6,0.6,1.3c0,0,0,0.1,0,0.3
				c0-0.1-0.1-0.3-0.1-0.4s0-0.1-0.1-0.2l0,0c-0.1-0.1-0.2-0.2-0.3-0.3c-0.1-0.1-0.2-0.1-0.3-0.1c-0.1-0.1-0.3-0.2-0.4-0.4
				c0-0.3-0.2-0.6-0.2-0.6s0.3,0.1,0.3,0.5c0.2-0.3,0.4-0.6,0.5-1c0.2-0.3,0.7-0.2,0.9-0.1c0.1,0,0.1,0,0.2,0.1
				c0.1,0,0.1,0.1,0.1,0.2c0.1,0,0.2,0,0.3,0c0,0,0,0.1,0.1,0.1h0.1l0,0l0,0c0.3,0,0.7-0.2,0.7-0.2l0,0l0,0
				c-0.1-0.1-0.3-0.2-0.4-0.2c-0.2,0-0.3-0.2-0.5-0.2c0,0-0.2,0-0.3,0c-0.4,0.1-0.7-0.1-1.1-0.1c-0.4,0-0.4,0.2-0.5,0.4
				c-0.1,0.1-0.1,0.2-0.2,0.2c-0.1,0.1-0.2,0.1-0.3,0.2l0,0c0-0.1-0.1-0.3-0.2-0.5l0,0l0,0c-0.2-0.3-0.4-0.5-0.9-0.7
				c-0.1,0-0.1,0-0.2-0.1c-0.1-0.1,0-0.1,0-0.1c0.1-0.1,0.3,0,0.5-0.1c0.3-0.2,0.2-0.5,0.1-0.5c-0.2,0-0.5-0.1-0.6-0.2
				s-0.1-0.2-0.3-0.2c-0.1,0-0.2,0-0.3,0s-0.1,0.1-0.2,0.1c0.1-0.1,0.2-0.2,0.4-0.2c-0.2,0-0.1-0.3-0.2-0.3c-0.1,0-0.1,0-0.2,0.1
				c0-0.1-0.1-0.3-0.2-0.4c-0.1-0.1-0.2,0-0.2,0.1s0.2,0.1,0.2,0.4c0,0-0.1,0-0.1,0.1c0-0.1-0.1-0.3-0.2-0.3c-0.1-0.1-0.2,0-0.2,0.1
				s0.2,0.1,0.2,0.4l-0.1,0.1c-0.2-0.1-0.3-0.2-0.3-0.2c-0.1,0-0.2,0-0.1,0.1c0.1,0.1,0.2,0.2,0.3,0.2l-0.1,0.1
				c-0.3-0.1-0.3-0.2-0.4-0.2c-0.1,0-0.2,0-0.1,0.1c0.1,0.2,0.3,0.2,0.4,0.2c0,0.1-0.1,0.1-0.1,0.2c-0.2,0-0.6,0.1-0.5,0.3
				c0.1,0.1,0.3-0.2,0.5,0s0.4,0.2,0.5,0.3c0.1,0.1,0.1,0.2,0.1,0.3c0.1,0.2,0.2,0.4,0.3,0.5c0.1,0.2,0.3,0.4,0.4,0.6
				c0,0,0,0.1,0,0.2c-0.2,0.2-0.6,0.5-0.8,0.7s-2,1.6-2.2,2.2c-0.1,0.1-0.1,0.3-0.1,0.5c-0.1,0.1-0.3,0-0.4,0
				c-0.1-0.1,0.1-0.3,0.1-0.5c0-0.1-0.1-0.1-0.2-0.1c-0.1,0-0.2,0.3-0.1,0.5c0,0,0.1,0.1,0,0.1s-0.1,0-0.1-0.1c0,0-0.1,0.1-0.1,0.2
				s0.2,0.1,0.2,0.2s-0.1,0.1-0.2,0c-0.1,0.1,0,0.2,0,0.2c0.1,0,0.2-0.1,0.3-0.1c0,0.1,0,0.1-0.1,0.1c0.2,0.2,0.3-0.2,0.5-0.1
				c0.1,0,0.6,0.5,0.5,1v0.1c-0.1,0.2-0.3,0.3-0.5,0.4c-0.3,0.2,0.3,1.4,0.2,2c0,0.2,0.2,0.2,0.3,0.6c-0.1,0-0.3,0-0.4,0.1l0,0l0,0
				V33c0,0.2,0.1,0.3,0.3,0.3s0.3-0.1,0.3-0.3l0,0c0.1,0,0.2,0,0.2,0.1l0.3,0.1c0,0-0.9,0.8-2.4,0.3c0,0-0.7-0.2-0.5-0.8
				c0,0,0-0.1,0.1-0.2c0,0.1,0.1,0.2,0.1,0.2c0.1,0,0.1,0.1,0.2,0.1c0.2,0,0.3-0.2,0.3-0.3s0-0.2-0.1-0.2l0,0l0,0l0,0
				c-0.1-0.1-0.3-0.1-0.5-0.1c0,0-0.7,0.2-0.4,0.9c0,0-0.4-0.1-0.6,0.1c0,0-0.1,0.1-0.1,0.2l0,0l0,0v0.1c0,0.1,0.1,0.1,0.2,0.1
				c0.1,0,0.2,0,0.2-0.1l0,0c0,0,0.1,0,0.2,0c0,0,0.6,0.7,1.5,0.6c0,0,0,0.5,0.3,0.6l0,0c0.1,0,0.2-0.1,0.2-0.2
				c0-0.1-0.1-0.2-0.2-0.2l0,0c0,0,0-0.2,0-0.3c0,0,1-0.1,1.7-0.7c0,0,0.5,0.1,0.8,0.1c0,0,0,0.1-0.2,0.1c0,0-0.3,0-0.3,0.1
				c0,0,0,0.1,0.2,0.1c0,0,0,0.1,0.1,0.2l0.1,0.1c0,0-0.2,0.1-0.1,0.2c0,0,0.1,0.2,0.3,0.1c0,0,0.1,0,0,0.1c0,0-0.1,0.1,0.1,0.3
				c0,0,0.2,0.1,0.3-0.1c0,0,0-0.1,0.1,0c0,0,0.6,0.3,0.9-0.2c0,0,0-0.1,0.1,0c0,0,0.3,0.4,1.1,0.4c0.1,0.1,0.2,0.2,0.3,0.2
				c0.2,0,0.3-0.1,0.3-0.3c0.1,0,0.5,0,0.9-0.3c0,0,0.1-0.1,0.3-0.2c0,0.2,0.2,0.4,0.4,0.4s0.4-0.2,0.4-0.4s-0.2-0.4-0.4-0.4
				c0,0-0.3-0.1-0.7,0.2c0,0-0.3,0.2-0.4,0.2c0,0,0.1-0.4,0.1-0.8c-0.1,0-0.1,0-0.2,0c0,0.4-0.1,0.8-0.3,0.8h-0.2v-0.1
				c0-0.1-0.1-0.1-0.2-0.1l0,0c-0.1,0-0.2,0.1-0.2,0.2c0,0-0.4,0.1-0.6-0.1c0,0,0.4-0.1,0.4-0.3c0,0,0.1-0.2-0.3-0.4
				c0,0-0.3-0.2-0.3,0c0,0,0,0.1,0.1,0.2c0,0,0.1,0.1-0.1,0.1c0,0-0.2,0-0.2-0.1c0,0,0-0.5,0.2-0.8c-0.1,0-0.2,0-0.3-0.1
				c0,0.1-0.1,0.2-0.1,0.3c0,0,0,0.3-0.1,0.3c0,0-0.4-0.3-0.2-0.8c-0.1,0-0.2-0.1-0.3-0.1c0,0.2,0,0.6,0.4,1.2c0,0-0.3,0.4-0.6,0.2
				c0,0-0.4-0.3-0.2-0.5c0,0,0.2-0.2,0.3,0c-0.1,0-0.2,0.1-0.2,0.2c0,0.1,0.1,0.2,0.2,0.2c0.1,0,0.2-0.1,0.2-0.2
				c0-0.1,0-0.3-0.1-0.4c0,0-0.2-0.2-0.4-0.1c0,0,0.2-0.3,0.3-0.6c0,0,0,0,0-0.1c-0.1,0-0.1-0.1-0.2-0.1c0,0.3-0.1,0.7-0.4,0.6
				c0,0,0.2-0.4,0.4-0.6c-0.1-0.1-0.3-0.1-0.4-0.2l0,0c0,0.1,0.1,0.4-0.1,0.5c0,0-0.2,0.2-0.5-0.1c0,0,0.4-0.3,0.5-0.5
				c-0.1,0-0.2-0.1-0.3-0.1H144l0,0c0,0-0.3,0.2-0.4,0.3h-0.1c0,0-0.3-0.4-0.1-0.8c0,0,0.1-0.4,0.5-0.3c0,0,0.1,0,0.1,0.1
				c0,0-0.3,0-0.3,0.2c0,0,0,0.2,0.3,0.2c0,0,0.4,0,0.3-0.5c0,0-0.1-0.3-0.3-0.3c0,0,0.1-0.2,0-0.2c0,0-0.1-0.1-0.3,0.1
				c0,0-0.1,0.1-0.3,0c0,0-0.2-0.1-0.3,0.1c0,0,0,0,0,0.2c0,0,0,0.1-0.1,0.3c0,0-0.1,0.1-0.1,0.3c-0.1-0.1-0.2-0.1-0.3-0.1
				c-0.1-0.1-0.1-0.7-0.3-1c0-0.1,0.1-0.4,0.1-0.7c0.9-0.2,1.3-0.9,1.4-1.2c0.1-0.5,0-1-0.1-1.2l0,0c0,0.1,0.1,0.2,0.1,0.2
				c0.4,0,0.7,0,1-0.1l0,0l0,0c0,0,0.1,0,0.1-0.1l0,0c0.6-0.3,0.9-0.9,1.1-1.2c-0.1,0-0.4-0.1-0.5-0.2c0.2,0,0.4,0.1,0.7,0.1
				s0.6-0.2,1-0.1c0,0,0,0.2,0.3,0.3c0,0.2,0,0.4,0.1,0.6c0,0.1,0,0.1,0,0.1s-0.3,0.2-0.2,0.4c0,0.1,0,0.1,0.1,0.1l0,0
				c0,0-0.1,0.1-0.2,0.2c0,0.1-0.2,0.4-0.1,0.4c0,0,0,0,0.1,0c-0.1,0.3-0.1,0.8,0.2,1.1l0,0c0,0,0.4,0.7,1.5,0.7l0,0
				c0.1,0,1.1,0,1.4,0.7c0,0,0.1,0.1,0.2,0.1c0.1,0,0.2-0.1,0.2-0.1c0.4-0.7,1.3-0.7,1.4-0.7l0,0c1.1,0,1.5-0.7,1.5-0.7l0,0
				c0.1-0.2,0.2-0.4,0.2-0.6c0.2-0.1,0.2-0.6,0.2-0.7c0.1,0.1,0.2,0.3,0.5,0.4c0,0.2,0,0.6,0.2,0.7c0.1,0,0.1-0.1,0.1-0.2
				c0.2,0.6,0,1,0.2,1s0.2-0.4,0.2-0.4s0.1,0.1,0.1,0.3s0,0.4,0.1,0.4c0.3,0,0.1-0.8,0.4-0.7c-0.1,0.4,0,0.6,0.2,0.6
				c0,0.2,0,0.3-0.1,0.3c-0.4,0.1-0.8-0.2-1.2-0.1l0,0c-0.7-0.4-1.1-0.1-1.1-0.1c-0.2-0.2-0.3,0.1-0.3,0.1c-0.3-0.2-0.5,0.1-0.6,0.2
				c-0.1,0-0.2-0.2-0.4,0.2c-0.1,0.2-0.5,0.2-0.5,0.3c-0.2,0-0.2-0.1-0.2-0.1v-0.1c0,0,0-0.1-0.1-0.1s-0.1-0.1-0.2-0.1
				c-0.1,0-0.2,0.1-0.2,0.2c0,0.1,0,0.1,0,0.1s0,0,0.1,0s0.2,0.1,0.2,0.2l0,0c0,0.2-0.3,0.4-0.3,0.4c-0.2,0.1-0.4-0.1-0.4-0.1
				c-0.1-0.1-0.2-0.1-0.2-0.1c-0.1,0-0.2,0.1-0.2,0.1s-0.1-0.1-0.2-0.1c0,0-0.1,0-0.2,0.1c0,0-0.2,0.2-0.3,0.1c0,0-0.3-0.2-0.3-0.4
				l0,0c0-0.1,0.1-0.1,0.2-0.2c0.1,0,0.1,0,0.1,0v-0.1c0-0.1-0.1-0.2-0.2-0.2c0,0-0.1,0-0.2,0.1c0,0,0,0-0.1,0.1v0.1
				c0,0,0,0.1-0.2,0.1c0,0-0.4-0.1-0.5-0.3c-0.2-0.4-0.3-0.2-0.4-0.2c-0.1,0-0.3-0.3-0.6-0.2c-0.1,0-0.1-0.2-0.3-0.1
				c0,0-0.4-0.2-0.9,0c0-0.1-0.2-0.1-0.2-0.1c-0.1,0-0.2-0.1-0.3-0.2c-0.1-0.1-0.4,0-0.6,0c-0.1,0-0.2,0-0.2-0.1
				c-0.2-0.1-0.5-0.3-0.6-0.5l-0.1-0.1c-0.1-0.1-0.1-0.1-0.2-0.3c-0.1-0.3,0-0.6,0.1-0.8c0-0.1,0-0.2,0-0.3c-0.2,0.1-0.5,0.1-0.8,0
				c0.1,0.3,0.1,0.6,0.1,0.8c0.1,0.1,0.2,0.3,0.2,0.3c0,0.1,0,0.3,0,0.4c0.1,0.2,0.4,0.3,0.5,0.4c0.1,0,0.8,0.6,0.9,0.6
				c0.1,0,0.2-0.1,0.3,0h0.1c0,0,0.1,0.1,0.2,0.1c-0.2,0.1-0.5,0.3-0.7,0.4c0,0-0.3,0.2-0.2,0.2c0,0,0.2,0,0.3,0c0,0-0.1,0-0.3,0.1
				c0.4,0.1,0.7,0.2,1.1,0.3c0.2-0.2,0.5-0.5,0.8-0.6c0,0,0.4,0,0.6-0.3c0-0.1,0.2,0.2,0.6,0c0,0,0.1,0.1,0.2,0.1c0,0-0.2,0-0.1,0.2
				c0,0-0.3,0-0.4,0.2c0,0.1-0.7,0-1.3,0.5c0.1,0,0.2,0.1,0.3,0.1c0.2-0.1,0.4-0.2,0.7-0.2c0,0,0.4,0,0.5,0.4c0.2,0,0.4,0.1,0.7,0.1
				l0,0c0.1,0,0.4-0.2,0.2-0.4c0,0-0.1-0.1-0.2,0c0,0-0.1,0.1-0.1,0v-0.1c0,0-0.1-0.1,0.1,0c0,0,0.1,0,0.2,0c0.1,0,0.2-0.1,0.2-0.2
				c0-0.1-0.1-0.2-0.2-0.2l0,0c0,0,0,0,0,0.1c0,0,0,0.1-0.1,0.1s-0.1-0.3,0.1-0.3c0,0,0.2,0,0.3,0.2c0,0,0.3,0.4,0.6,0.5
				c0,0,0,0.2,0.1,0.2c0,0,0,0.1,0.2,0.1c0,0,0,0.1,0.1,0.2c0.2,0,0.3,0,0.5,0s0.3,0,0.5,0c0-0.1,0.1-0.2,0.1-0.2
				c0.2,0,0.2-0.1,0.2-0.1c0.2-0.1,0.1-0.2,0.1-0.2c0.3-0.1,0.6-0.5,0.6-0.5c0.7,0.8,0.8,0.8,0.8,0.8c0.2,0,0.2,0.3,0.1,0.3
				c0,0-0.1,0-0.1-0.1c0,0,0,0,0-0.1l0,0c-0.1,0-0.2,0.1-0.2,0.2c0,0.1,0.1,0.2,0.2,0.2c0.1,0,0.2,0,0.2,0c0.1,0,0.1,0,0.1,0
				c0,0.1,0,0.1,0,0.1c0,0.1-0.1,0-0.1,0c-0.1-0.1-0.2,0-0.2,0c-0.1,0.2,0.2,0.3,0.2,0.4l0,0c0.2,0,0.5-0.1,0.7-0.1
				c0.2-0.4,0.5-0.4,0.5-0.4c0.3,0,0.5,0.1,0.7,0.2c0.1,0,0.2,0,0.3-0.1c-0.6-0.5-1.2-0.5-1.3-0.5c-0.1-0.2-0.4-0.2-0.4-0.2
				c0-0.2-0.1-0.2-0.1-0.2c0.1,0,0.2-0.1,0.2-0.1c0.4,0.2,0.5-0.1,0.6,0c0.1,0.3,0.6,0.3,0.6,0.3c0.3,0.1,0.6,0.4,0.8,0.6
				c0.3-0.1,0.7-0.2,1-0.3l0,0c0,0,0,0,0-0.1l0,0l0,0v-0.1l0,0c-0.1-0.1-0.2-0.3-0.2-0.3l0,0l0,0c0,0,0.2-0.4,0.4-0.1
				c0,0,0,0.1-0.2,0.1c0,0,0.2,0.3,0.2,0.5l0,0c0.1,0,0.1,0,0.2-0.1l0,0c-0.1-0.2-0.2-0.3-0.2-0.4c0,0,0.2,0,0.2-0.1
				c0,0,0-0.2,0.1-0.3c0.1,0.1,0.2,0.1,0.2,0.1c0.2,0,0.3-0.4,0.3-0.5l0.2-0.1c0.1,0.2,0.5,0.4,0.4,0c0.1,0.2,0.1,0.4,0.3,0.4
				s0.1-0.3,0.1-0.3c0,0.1,0.1,0.4,0.4,0.3c0.1,0,0.1-0.1,0.1-0.2c0-0.3-0.9-1.9-1-2.6l0,0c-0.1,0-0.1-0.2-0.1-0.3l0,0
				c-0.1,0-0.3-0.1-0.3-0.4s0.1-0.4,0.1-0.4l0,0c-0.1,0.2-0.1,0.5,0,0.6c0,0,0.1,0.1,0.2,0.1c0-0.1,0.1-0.1,0.1-0.1l0,0
				c-0.1,0.1-0.1,0.3,0,0.4c0,0,0.1,0.1,0.2,0.1c0.2-0.1,0.4-0.6,0.4-0.7c0.2,0-0.3,1,0.1,1.2c0.1,0,0.2-0.2,0.3-0.3
				c0.1,0.3-0.3,0.9,0,1c0.2,0.1,0.3-0.5,0.3-0.4c0.1,0.8-0.4,1.2-0.1,1.3c0.2,0.1,0.3-0.5,0.3-0.5c0,0.8-0.4,1.1-0.2,1.2
				c0.2,0.1,0.4-0.4,0.4-0.3c0,0.8-0.4,1-0.2,1.2c0.2,0.3,0.6-0.5,0.6-0.3s-0.4,1-0.2,1.1s0.3-0.2,0.3-0.3
				C160.8,30.1,160.8,28,160.8,27.3"/>
		</g>
	</g>
	<g>
		<polygon class="st2" points="-27.7,100.9 -27.6,100.8 -27.8,100.8 		"/>
		<path class="st2" d="M-28.1,100.2L-28.1,100.2l0.4,0.4C-27.6,100.4-28.2,100.4-28.1,100.2"/>
		<path class="st2" d="M-28.1,100.1c0-0.2-0.1-0.2-0.2-0.3C-28.2,99.8-28.2,100.1-28.1,100.1"/>
		<path class="st2" d="M-29.7,84.2L-29.7,84.2L-29.7,84.2"/>
		<path class="st2" d="M-30.1,88.7L-30.1,88.7C-30.1,88.6-30.1,88.6-30.1,88.7"/>
		<path class="st2" d="M6.9,28.4C6.9,28.5,6.9,28.5,6.9,28.4C6.9,28.5,6.9,28.5,6.9,28.4"/>
		<path class="st2" d="M11.4,21.7v-0.1V21.7z"/>
		<path class="st2" d="M11.4,21.9L11.4,21.9v-0.2C11.4,21.5,11.4,22,11.4,21.9"/>
		<path class="st2" d="M11.4,21.9c0-0.1,0,0.1,0,0.1C11.4,21.9,11.4,22,11.4,21.9"/>
		<path class="st2" d="M10,22.1L10,22.1L10,22.1"/>
		<path class="st2" d="M10.5,22.4L10.5,22.4C10.4,22.4,10.4,22.4,10.5,22.4"/>
	</g>
</g>
</svg>
