<?xml version="1.0" encoding="utf-8"?>
<!-- Generator: Adobe Illustrator 21.0.0, SVG Export Plug-In . SVG Version: 6.00 Build 0)  -->
<svg version="1.1" id="Capa_1" xmlns="http://www.w3.org/2000/svg" xmlns:xlink="http://www.w3.org/1999/xlink" x="0px" y="0px"
	 viewBox="0 0 210 92" style="enable-background:new 0 0 210 92;" xml:space="preserve">
<style type="text/css">
	.st0{clip-path:url(#SVGID_2_);fill:url(#SVGID_3_);}
	.st1{fill:#314E60;}
	.st2{clip-path:url(#SVGID_5_);fill:#FFFFFF;}
	.st3{fill:#FFFFFF;}
	.st4{font-family:'gobCL-Light';}
	.st5{font-size:10.351px;}
	.st6{clip-path:url(#SVGID_9_);fill:#314E60;}
	.st7{clip-path:url(#SVGID_9_);fill:#0C64AE;}
	.st8{clip-path:url(#SVGID_9_);fill:#E73439;}
	.st9{clip-path:url(#SVGID_11_);fill:#FFFFFF;}
	.st10{clip-path:url(#SVGID_13_);fill:#FFFFFF;}
	.st11{clip-path:url(#SVGID_15_);fill:#FFFFFF;}
	.st12{clip-path:url(#SVGID_17_);fill:#FFFFFF;}
	.st13{clip-path:url(#SVGID_19_);fill:#FFFFFF;}
	.st14{clip-path:url(#SVGID_21_);fill:#FFFFFF;}
	.st15{clip-path:url(#SVGID_23_);fill:#FFFFFF;}
	.st16{clip-path:url(#SVGID_25_);fill:#FFFFFF;}
	.st17{clip-path:url(#SVGID_27_);fill:#FFFFFF;}
	.st18{clip-path:url(#SVGID_29_);fill:#FFFFFF;}
	.st19{clip-path:url(#SVGID_31_);fill:#FFFFFF;}
	.st20{clip-path:url(#SVGID_33_);fill:#FFFFFF;}
</style>
<g>
	<g>
		<defs>
			<path id="SVGID_1_" d="M-94-222.9V174V-222.9z"/>
		</defs>
		<clipPath id="SVGID_2_">
			<use xlink:href="#SVGID_1_"  style="overflow:visible;"/>
		</clipPath>
		
			<radialGradient id="SVGID_3_" cx="-93" cy="174" r="0.7071" gradientTransform="matrix(198.4248 0 0 -198.4248 18359.5078 34501.4922)" gradientUnits="userSpaceOnUse">
			<stop  offset="0" style="stop-color:#FFFFFF"/>
			<stop  offset="0.4824" style="stop-color:#FCFDFE"/>
			<stop  offset="0.853" style="stop-color:#F2F8FA"/>
			<stop  offset="1" style="stop-color:#ECF4F8"/>
		</radialGradient>
		<polygon class="st0" points="-94,-222.9 -94,-222.9 -94,174 		"/>
	</g>
	<text transform="matrix(1 0 0 1.0101 267.4414 -53.4775)" class="st1 st4" style="font-size:8.91px;">.</text>
	<g>
		<defs>
			<rect id="SVGID_4_" x="-94" y="-222.9" width="396.9" height="396.9"/>
		</defs>
		<clipPath id="SVGID_5_">
			<use xlink:href="#SVGID_4_"  style="overflow:visible;"/>
		</clipPath>
		<path class="st2" d="M100.6,62.1c4.4-0.3,8.2-1.9,11.2-4.9c3.4-3.3,5-7.5,5-12.6c0-4.6-1.3-8.6-4.1-11.7c-0.1-0.1-0.2-0.2-0.4-0.2
			c-0.3,0-0.5,0.2-0.5,0.5c0,0,0,0.1,0,0.1c2.1,5.6,0.9,11.2-2.8,12.7c-2.6,1-5.7-0.2-8.1-2.9c-0.2-0.2-0.5-0.2-0.7,0
			c-0.2,0.2-0.2,0.4,0,0.6c0,0,0,0.1,0.1,0.1c2.1,2.4,3.2,5.4,3.2,8.8c0,3.5-1.1,6.4-3.2,8.8c-0.1,0.1-0.1,0.2-0.1,0.3
			C100.1,61.8,100.3,62.1,100.6,62.1"/>
		<path class="st2" d="M66.2,60.5c-0.4-0.5-0.9-1.3-1.5-2.4c-1-1.7-1.7-2.9-2.3-3.6c-0.5-0.7-1.1-1.2-1.7-1.6c1-0.4,1.9-1,2.4-1.8
			c0.5-0.8,0.8-1.7,0.8-2.8c0-1.6-0.5-2.9-1.6-3.8c-1-0.9-2.6-1.4-4.4-1.4h-4.4v18.7h2.7v-8.2h0.2c0.8,0,1.4,0.1,1.8,0.3
			c0.3,0.2,0.7,0.5,1.2,1c0.4,0.5,0.9,1.1,1.4,1.8l0.8,1.5l0.8,1.4l0.5,0.7c0.1,0.1,0.1,0.2,0.2,0.2l0.8,1.2h3.2L66.2,60.5z
			 M59.7,50.7c-0.4,0.2-1.4,0.3-2.6,0.3h-0.9v-5.4H57c1.1,0,2.1,0.1,2.6,0.3c0.5,0.2,0.9,0.5,1.1,0.9c0.3,0.4,0.4,0.9,0.4,1.5
			c0,0.5-0.1,1-0.4,1.5C60.5,50.2,60.2,50.5,59.7,50.7"/>
		<polygon class="st2" points="69.4,43.1 78.8,43.1 78.8,45.7 72.2,45.7 72.2,50.5 78.8,50.5 78.8,53.1 72.2,53.1 72.2,61.8 
			69.4,61.8 		"/>
		<path class="st2" d="M47.9,45.6c-1.8-1.8-4.1-2.8-6.8-2.8c-2.7,0-5,0.9-6.8,2.8c-1.8,1.8-2.7,4.2-2.7,7c0,2.7,0.9,5,2.7,6.8
			c1.8,1.8,4,2.7,6.6,2.7c2.8,0,5.1-0.9,6.9-2.7c1.8-1.8,2.7-4.1,2.7-6.9C50.6,49.7,49.7,47.4,47.9,45.6 M45.9,57.5
			c-1.3,1.4-2.8,2.1-4.7,2.1c-1.9,0-3.4-0.7-4.7-2c-1.2-1.3-1.9-3-1.9-5.1c0-2.1,0.6-3.8,1.9-5.2c1.2-1.3,2.8-2,4.8-2
			c1.8,0,3.4,0.7,4.7,2c1.3,1.4,1.9,3,1.9,5C47.8,54.5,47.1,56.2,45.9,57.5"/>
		<path class="st2" d="M97.6,45.6c-1.8-1.8-4.1-2.8-6.8-2.8c-2.7,0-5,0.9-6.8,2.8c-1.8,1.8-2.7,4.2-2.7,7c0,2.7,0.9,5,2.7,6.8
			c1.8,1.8,4,2.7,6.6,2.7c2.8,0,5.1-0.9,6.9-2.7c1.8-1.8,2.7-4.1,2.7-6.9C100.3,49.7,99.4,47.4,97.6,45.6 M95.6,57.5
			c-1.3,1.4-2.8,2.1-4.7,2.1c-1.9,0-3.4-0.7-4.7-2c-1.2-1.3-1.9-3-1.9-5.1c0-2.1,0.6-3.8,1.9-5.2c1.2-1.3,2.8-2,4.8-2
			c1.8,0,3.4,0.7,4.7,2c1.3,1.4,1.9,3,1.9,5C97.5,54.5,96.8,56.2,95.6,57.5"/>
		<path class="st2" d="M29.1,57.5c-1.4,1.4-3.2,2.1-5.4,2.1c-2.1,0-3.9-0.7-5.3-2c-1.4-1.3-2.1-3-2.1-5.1c0-2.1,0.7-3.8,2.1-5.2
			c1.4-1.3,3.2-2,5.4-2c2.1,0,3.9,0.7,5.3,2c0,0,0,0,0,0v-0.2v-2.6v-0.3c-2.3-1-4.3-1.5-6.2-1.5c-2.7,0-4.9,0.9-6.8,2.8
			c-1.8,1.9-2.7,4.2-2.7,6.9c0,1.7,0.4,3.3,1.2,4.8c0.8,1.5,1.9,2.6,3.3,3.5c1.4,0.8,3,1.3,5,1.3c2.4,0,4.6-0.5,6.4-1.6v-0.3v-2.7
			v-0.2c0,0,0,0,0,0C29.2,57.4,29.2,57.5,29.1,57.5"/>
		<path class="st2" d="M109.8,38.9c-0.6-0.7-1.5-1-2.4-1c-1,0-1.8,0.3-2.4,1c-0.6,0.7-0.9,1.5-0.9,2.5c0,1,0.3,1.8,0.9,2.4
			c0.6,0.6,1.4,1,2.4,1c1,0,1.8-0.3,2.5-1c0.6-0.6,1-1.5,1-2.4C110.7,40.3,110.4,39.5,109.8,38.9"/>
	</g>
	<text transform="matrix(1 0 0 1 13.7207 24.7158)"><tspan x="0" y="0" class="st3 st4 st5">P</tspan><tspan x="5" y="0" class="st3 st4 st5">r</tspan><tspan x="8" y="0" class="st3 st4 st5">o</tspan><tspan x="13.1" y="0" class="st3 st4 st5">yec</tspan><tspan x="27.3" y="0" class="st3 st4 st5">t</tspan><tspan x="30.6" y="0" class="st3 st4 st5">o</tspan><tspan x="35.7" y="0" class="st3 st4 st5"> ap</tspan><tspan x="47.7" y="0" class="st3 st4 st5">o</tspan><tspan x="52.9" y="0" class="st3 st4 st5">y</tspan><tspan x="57.3" y="0" class="st3 st4 st5">ad</tspan><tspan x="67.2" y="0" class="st3 st4 st5">o</tspan><tspan x="72.3" y="0" class="st3 st4 st5"> p</tspan><tspan x="79.5" y="0" class="st3 st4 st5">o</tspan><tspan x="84.7" y="0" class="st3 st4 st5">r</tspan></text>
	<g>
		<defs>
			<rect id="SVGID_6_" x="-94" y="-222.9" width="396.9" height="396.9"/>
		</defs>
		<clipPath id="SVGID_7_">
			<use xlink:href="#SVGID_6_"  style="overflow:visible;"/>
		</clipPath>
	</g>
	<g>
		<defs>
			<rect id="SVGID_8_" x="-94" y="-222.9" width="396.9" height="396.9"/>
		</defs>
		<clipPath id="SVGID_9_">
			<use xlink:href="#SVGID_8_"  style="overflow:visible;"/>
		</clipPath>
		<polygon class="st6" points="-65.9,-64.3 -65.9,-64.3 -65.8,-64.4 		"/>
		<path class="st6" d="M-65.4-64.6C-65.4-64.6-65.4-64.7-65.4-64.6l-0.3,0.2C-65.6-64.2-65.5-64.7-65.4-64.6"/>
		<path class="st6" d="M-65.3-64.6c0.1,0.1,0.2-0.1,0.2-0.1C-65.2-64.6-65.4-64.7-65.3-64.6"/>
		<path class="st6" d="M-54.8-62.5C-54.8-62.5-54.8-62.5-54.8-62.5C-54.8-62.5-54.8-62.5-54.8-62.5"/>
		<path class="st6" d="M-57.4-64.1L-57.4-64.1C-57.4-64.1-57.4-64.1-57.4-64.1"/>
		<path class="st6" d="M-55.3-65.1C-55.3-65.1-55.3-65.1-55.3-65.1C-55.3-65.1-55.3-65.1-55.3-65.1"/>
		<polygon class="st6" points="-69.9,-31.2 -69.9,-31.2 -70,-31.3 		"/>
		<path class="st6" d="M-70-31.8C-70-31.8-70-31.8-70-31.8l0.1,0.4C-69.7-31.5-70.1-31.7-70-31.8"/>
		<path class="st6" d="M-69.9-31.9c0.1-0.1,0-0.2,0-0.2C-69.9-32-70.1-31.9-69.9-31.9"/>
		<path class="st6" d="M-63.7-40.6C-63.7-40.6-63.7-40.6-63.7-40.6C-63.7-40.6-63.7-40.6-63.7-40.6"/>
		<path class="st6" d="M-66.2-38.8L-66.2-38.8C-66.2-38.9-66.2-38.8-66.2-38.8"/>
		<path class="st6" d="M-66.2-41.2C-66.2-41.2-66.2-41.2-66.2-41.2C-66.2-41.2-66.2-41.2-66.2-41.2"/>
		<rect x="134.7" y="17.8" class="st7" width="29.3" height="65.2"/>
		<rect x="164" y="17.8" class="st8" width="35.9" height="65.2"/>
	</g>
	<g>
		<defs>
			<rect id="SVGID_10_" x="134.7" y="17.8" width="65.2" height="65.2"/>
		</defs>
		<clipPath id="SVGID_11_">
			<use xlink:href="#SVGID_10_"  style="overflow:visible;"/>
		</clipPath>
		<path class="st9" d="M171.4,27.9c-0.7,0.3-1.2,0.4-1.8,0.4c-1.5,0-2.3-1-2.3-2.6c0-1.5,0.8-2.5,2.3-2.5c0.8,0,1.3,0.2,1.6,0.4
			l-0.4,0.7c-0.3-0.2-0.7-0.3-1.2-0.3c-0.9,0-1.3,0.7-1.3,1.7c0,1.2,0.4,1.8,1.3,1.8c0.3,0,0.6,0,0.8-0.2v-0.9h-0.7l-0.1-0.7h1.6
			V27.9z"/>
		<path class="st9" d="M174.5,26.4c0-0.9-0.3-1.2-0.7-1.2c-0.5,0-0.7,0.3-0.7,1.2c0,0.8,0.2,1.2,0.7,1.2
			C174.2,27.6,174.5,27.3,174.5,26.4 M175.5,26.4c0,1.2-0.6,1.9-1.7,1.9c-1.1,0-1.7-0.7-1.7-1.9c0-1.1,0.6-1.9,1.7-1.9
			C174.8,24.6,175.5,25.4,175.5,26.4"/>
		<path class="st9" d="M177.1,27.3c0.1,0.2,0.4,0.4,0.7,0.4c0.4,0,0.7-0.3,0.7-1.2c0-0.9-0.3-1.2-0.7-1.2c-0.2,0-0.5,0.1-0.7,0.3
			V27.3z M177.1,25c0.2-0.2,0.6-0.4,1-0.4c0.9,0,1.5,0.6,1.5,1.9c0,1.3-0.7,1.9-1.6,1.9c-0.5,0-0.8-0.2-1.1-0.5l-0.2,0.4h-0.5v-5.1
			h1v1.3L177.1,25z"/>
	</g>
	<g>
		<defs>
			<rect id="SVGID_12_" x="-94" y="-222.9" width="396.9" height="396.9"/>
		</defs>
		<clipPath id="SVGID_13_">
			<use xlink:href="#SVGID_12_"  style="overflow:visible;"/>
		</clipPath>
		<path class="st10" d="M180.5,23.2h1V24h-1V23.2z M180.5,28.3v-2.9l-0.4-0.1v-0.6h1.4v3.6H180.5z"/>
	</g>
	<g>
		<defs>
			<rect id="SVGID_14_" x="134.7" y="17.8" width="65.2" height="65.2"/>
		</defs>
		<clipPath id="SVGID_15_">
			<use xlink:href="#SVGID_14_"  style="overflow:visible;"/>
		</clipPath>
		<path class="st11" d="M183.9,25.3c-0.5,0-0.7,0.4-0.7,0.9h1.3C184.5,25.7,184.4,25.3,183.9,25.3 M183.2,26.7
			c0,0.6,0.3,0.9,0.9,0.9c0.4,0,0.7-0.1,1.1-0.3l0.2,0.7c-0.3,0.2-0.8,0.4-1.4,0.4c-1.1,0-1.8-0.7-1.8-1.9c0-1.1,0.5-1.9,1.7-1.9
			c1.1,0,1.5,0.8,1.5,1.7v0.4H183.2z"/>
		<path class="st11" d="M188.3,25.4c-0.1,0-0.3-0.1-0.5-0.1c-0.3,0-0.5,0.1-0.7,0.2v2.6h-1v-3.6h0.7l0.1,0.5h0
			c0.1-0.3,0.4-0.6,0.9-0.6c0.2,0,0.3,0,0.4,0.1L188.3,25.4z"/>
		<path class="st11" d="M191.1,28.3v-2.2c0-0.5-0.2-0.8-0.7-0.8c-0.3,0-0.5,0.1-0.6,0.2v2.7h-1v-3.6h0.7l0.1,0.4
			c0.2-0.2,0.6-0.5,1.1-0.5c0.9,0,1.3,0.5,1.3,1.5v2.2H191.1z"/>
		<path class="st11" d="M195.2,26.4c0-0.9-0.3-1.2-0.7-1.2c-0.5,0-0.7,0.3-0.7,1.2c0,0.8,0.2,1.2,0.7,1.2
			C194.9,27.6,195.2,27.3,195.2,26.4 M196.1,26.4c0,1.2-0.6,1.9-1.7,1.9c-1.1,0-1.7-0.7-1.7-1.9c0-1.1,0.6-1.9,1.7-1.9
			C195.5,24.6,196.1,25.4,196.1,26.4"/>
		<path class="st11" d="M169.7,32c-0.1-0.1-0.4-0.2-0.7-0.2c-0.5,0-0.7,0.3-0.7,1.2c0,0.9,0.3,1.2,0.7,1.2c0.2,0,0.5-0.1,0.7-0.3V32
			z M169.8,31.5c-0.1-0.2-0.1-0.4-0.1-0.7v-1.1h1v5.1h-0.8l-0.1-0.4c-0.2,0.2-0.5,0.5-1,0.5c-0.8,0-1.5-0.6-1.5-1.9
			c0-1.2,0.7-1.9,1.6-1.9C169.3,31.1,169.6,31.3,169.8,31.5"/>
		<path class="st11" d="M173.1,31.9c-0.5,0-0.7,0.4-0.7,0.9h1.3C173.7,32.3,173.6,31.9,173.1,31.9 M172.4,33.3
			c0,0.6,0.3,0.9,0.9,0.9c0.4,0,0.7-0.1,1.1-0.3l0.2,0.7c-0.3,0.2-0.8,0.4-1.4,0.4c-1.1,0-1.8-0.7-1.8-1.9c0-1.1,0.5-1.9,1.7-1.9
			c1.1,0,1.5,0.8,1.5,1.7v0.4H172.4z"/>
		<path class="st11" d="M179.1,34.9c-1.4,0-2.2-0.9-2.2-2.6c0-1.6,0.7-2.5,2.2-2.5c0.7,0,1.3,0.1,1.7,0.4l-0.4,0.8
			c-0.3-0.2-0.7-0.3-1.2-0.3c-0.8,0-1.2,0.6-1.2,1.7c0,1.2,0.4,1.7,1.2,1.7c0.5,0,1-0.2,1.3-0.5l0.3,0.8
			C180.3,34.7,179.7,34.9,179.1,34.9"/>
		<path class="st11" d="M181.4,34.8v-5.1h1v1.3c0,0.3-0.1,0.5-0.1,0.6c0.2-0.3,0.5-0.5,1-0.5c1,0,1.3,0.5,1.3,1.5v2.2h-1v-2.2
			c0-0.5-0.2-0.8-0.6-0.8c-0.3,0-0.5,0.1-0.6,0.2v2.7H181.4z"/>
	</g>
	<g>
		<defs>
			<rect id="SVGID_16_" x="-94" y="-222.9" width="396.9" height="396.9"/>
		</defs>
		<clipPath id="SVGID_17_">
			<use xlink:href="#SVGID_16_"  style="overflow:visible;"/>
		</clipPath>
		<path class="st12" d="M185.7,29.7h1v0.9h-1V29.7z M185.8,34.8v-2.9l-0.4-0.1v-0.6h1.4v3.6H185.8z"/>
	</g>
	<g>
		<defs>
			<rect id="SVGID_18_" x="134.7" y="17.8" width="65.2" height="65.2"/>
		</defs>
		<clipPath id="SVGID_19_">
			<use xlink:href="#SVGID_18_"  style="overflow:visible;"/>
		</clipPath>
		<path class="st13" d="M187.6,33.9v-4.1h1v4.1c0,0.3,0.2,0.3,0.6,0.3v0.7c0,0-0.3,0.1-0.5,0.1C187.9,34.9,187.6,34.5,187.6,33.9"/>
		<path class="st13" d="M191.3,31.9c-0.5,0-0.7,0.4-0.7,0.9h1.3C191.9,32.3,191.8,31.9,191.3,31.9 M190.6,33.3
			c0,0.6,0.3,0.9,0.9,0.9c0.4,0,0.7-0.1,1.1-0.3l0.2,0.7c-0.3,0.2-0.8,0.4-1.4,0.4c-1.1,0-1.8-0.7-1.8-1.9c0-1.1,0.5-1.9,1.7-1.9
			c1.1,0,1.5,0.8,1.5,1.7v0.4H190.6z"/>
		<path class="st13" d="M169,77.9c0-0.3-0.3-0.4-0.5-0.4c-0.2,0-0.5,0.1-0.5,0.4c0,0.3,0.3,0.4,0.5,0.4
			C168.8,78.3,169,78.2,169,77.9 M168.4,79.6c-0.3,0-0.4,0.2-0.4,0.4c0,0.2,0.2,0.4,0.5,0.4c0.3,0,0.6-0.2,0.6-0.5
			C169.1,79.7,168.9,79.6,168.4,79.6 M169.9,77l0,0.5c-0.1,0-0.3,0-0.5-0.1c0.1,0.1,0.3,0.3,0.3,0.4c0,0.7-0.7,0.9-1.1,0.9
			c-0.1,0-0.2,0-0.4-0.1c-0.1,0-0.1,0.1-0.1,0.2c0,0.3,1.8-0.1,1.8,1c0,0.6-0.6,1-1.3,1c-0.6,0-1.2-0.3-1.2-0.8
			c0-0.4,0.3-0.5,0.7-0.6c-0.3,0-0.7-0.1-0.7-0.5c0-0.2,0.2-0.4,0.5-0.4c-0.3-0.2-0.5-0.4-0.5-0.8c0-0.7,0.7-0.9,1.1-0.9
			C168.8,76.9,169.5,77,169.9,77"/>
		<path class="st13" d="M172.1,78.4c0-0.7-0.2-0.9-0.5-0.9c-0.3,0-0.5,0.2-0.5,0.9c0,0.6,0.2,0.9,0.5,0.9
			C172,79.3,172.1,79,172.1,78.4 M172.9,78.4c0,0.9-0.5,1.4-1.3,1.4c-0.8,0-1.3-0.5-1.3-1.4c0-0.8,0.4-1.4,1.3-1.4
			C172.4,76.9,172.9,77.5,172.9,78.4"/>
		<path class="st13" d="M174.2,79c0.1,0.2,0.3,0.3,0.5,0.3c0.3,0,0.6-0.2,0.6-0.9c0-0.7-0.2-0.9-0.5-0.9c-0.2,0-0.4,0.1-0.5,0.2V79z
			 M174.1,77.3c0.1-0.2,0.4-0.3,0.7-0.3c0.6,0,1.1,0.5,1.1,1.4c0,1-0.6,1.4-1.2,1.4c-0.4,0-0.6-0.2-0.8-0.4l-0.1,0.3h-0.4v-3.9h0.7
			v1L174.1,77.3z"/>
	</g>
	<g>
		<defs>
			<rect id="SVGID_20_" x="-94" y="-222.9" width="396.9" height="396.9"/>
		</defs>
		<clipPath id="SVGID_21_">
			<use xlink:href="#SVGID_20_"  style="overflow:visible;"/>
		</clipPath>
		<rect x="176.4" y="78.9" class="st14" width="0.7" height="0.8"/>
	</g>
	<g>
		<defs>
			<rect id="SVGID_22_" x="134.7" y="17.8" width="65.2" height="65.2"/>
		</defs>
		<clipPath id="SVGID_23_">
			<use xlink:href="#SVGID_22_"  style="overflow:visible;"/>
		</clipPath>
		<path class="st15" d="M180,79.5c-0.2,0.1-0.5,0.2-0.9,0.2c-0.8,0-1.3-0.5-1.3-1.4c0-0.9,0.5-1.4,1.3-1.4c0.4,0,0.7,0.1,0.9,0.2
			l-0.2,0.5c-0.2-0.1-0.4-0.2-0.7-0.2c-0.4,0-0.6,0.3-0.6,0.9c0,0.6,0.2,0.9,0.6,0.9c0.3,0,0.6-0.1,0.7-0.2L180,79.5z"/>
		<path class="st15" d="M180.5,79v-3.2h0.7V79c0,0.2,0.1,0.3,0.4,0.3v0.5c0,0-0.2,0-0.4,0C180.7,79.8,180.5,79.5,180.5,79"/>
		<path class="st15" d="M152,30.8v1C152.2,31.4,152.1,31,152,30.8"/>
		<path class="st15" d="M154.2,24.8c0,0.1-0.2,0.1-0.2,0.2C153.9,24.9,154.1,24.7,154.2,24.8 M154.9,24.8c0.1-0.1,0.2-0.3,0.3-0.2
			c0.1,0,0.1,0.1,0.2,0.2s0.2,0.1,0.2,0.2c0,0.1-0.1,0.3-0.2,0.1c-0.1-0.1-0.2-0.4-0.4-0.3c-0.2,0.1-0.3,0.2-0.3,0.1
			C154.7,24.8,154.8,24.8,154.9,24.8 M154.9,24.9c0.1-0.1,0.1,0.2,0.3,0.2C155,25.3,154.8,25.1,154.9,24.9 M154,25.3
			c0,0,0-0.1,0.1-0.2c0.1,0,0.3,0.1,0.3,0.2c0,0.1-0.1,0.4,0.3,0.5c0,0,0,0.1,0,0.1c0,0.1,0,0.1-0.1,0.2c0,0,0,0,0.1,0
			c0.6,0,0.9,0,1-0.2c0,0,0.1-0.1,0.1-0.2c0.1-0.3,0.2-0.5,0.1-0.8h0c0,0,0,0,0,0c0,0,0-0.1,0-0.1c-0.1-0.2-0.4-0.5-0.8-0.6
			c0,0-0.1,0-0.1,0c0,0,0,0,0,0s0,0,0,0h0h0c0,0,0.1,0,0.1,0c0.3,0,0.8,0.3,0.9,0.6c0.1-0.1,0.2-0.2,0.2-0.4h0c0,0,0-0.2,0.1-0.4
			c0,0,0-0.1,0-0.1c0,0-0.1,0-0.1,0c-0.1,0.2-0.2,0.1-0.2-0.1c0,0,0-0.1,0-0.1c0,0-0.1,0-0.1,0c-0.1,0.1-0.2,0.1-0.2-0.1
			c0,0,0-0.1,0-0.1c0,0-0.1,0-0.1,0c-0.1,0.2-0.2,0.1-0.2-0.1c0,0,0-0.1,0-0.1c0,0-0.1,0-0.1,0c-0.1,0.1-0.1,0.2-0.1,0.2
			c0.3,0.1,0.7,0.2,0.9,0.5c0,0,0.1,0.1,0.1,0.1h0h0c0,0,0,0,0,0c0,0,0,0,0,0c0,0-0.1-0.1-0.1-0.1c-0.4-0.3-0.7-0.4-1-0.5
			c-0.2,0-0.1,0.2-0.1,0.3c-0.3-0.1-0.5,0.2-0.5,0.4c0,0.1,0,0.2,0.1,0.2c0,0,0,0,0,0c0,0-0.1,0-0.1-0.1c0,0,0-0.1,0-0.2
			c-0.2,0-0.5,0.1-0.4,0.4C153.8,25.1,154,25.3,154,25.3"/>
		<path class="st15" d="M160.7,35.6c-0.2-0.2-0.6-0.1-0.6-0.1c0.2-0.7-0.4-0.9-0.4-0.9c-0.2-0.1-0.4,0-0.5,0.1c0,0,0,0,0,0
			c0,0,0,0,0,0c0,0,0,0,0,0c-0.1,0.1-0.1,0.1-0.1,0.2c0,0.2,0.2,0.3,0.3,0.3c0.1,0,0.1,0,0.2-0.1c0.1,0,0.1-0.1,0.1-0.2
			c0.1,0.1,0.1,0.2,0.1,0.2c0.2,0.6-0.5,0.8-0.5,0.8c-1.5,0.5-2.4-0.3-2.4-0.3l0.3-0.1c0.1,0,0.2-0.1,0.2-0.1c0,0,0,0,0,0
			c0,0.2,0.1,0.3,0.3,0.3c0.2,0,0.3-0.1,0.3-0.3c0-0.1,0-0.1,0-0.1l0,0c0,0,0,0,0,0c-0.2-0.3-0.8-0.1-0.8-0.1c0.2-0.5,0-0.9,0-0.9
			c-0.1-0.2-0.1-0.3-0.1-0.3c0-0.2,0-0.2,0-0.2c-0.1-0.1-0.3-0.1-0.3-0.1c-0.2,0.1-0.3,0-0.3,0c-0.2-0.1-0.3-0.1-0.3-0.1
			c-0.1,0.1,0,0.2,0,0.2c-0.2,0-0.3,0.3-0.3,0.3c-0.1,0.5,0.3,0.5,0.3,0.5c0.3,0,0.3-0.2,0.3-0.2c0-0.2-0.3-0.2-0.3-0.2
			c0.1-0.1,0.1-0.1,0.1-0.1c0.3-0.1,0.5,0.3,0.5,0.3c0.3,0.4-0.1,0.8-0.1,0.8c-0.1,0.1-0.1,0-0.1,0c-0.2-0.1-0.4-0.3-0.4-0.3
			c0,0,0,0,0,0h-0.1c-0.1,0-0.2,0-0.3,0.1c0.1,0.1,0.5,0.5,0.5,0.5c-0.3,0.2-0.5,0.1-0.5,0.1c-0.1-0.2-0.1-0.4-0.1-0.5c0,0,0,0,0,0
			c-0.1,0.1-0.3,0.1-0.4,0.2c0.1,0.2,0.4,0.6,0.4,0.6c-0.3,0.1-0.4-0.3-0.4-0.6c-0.1,0-0.1,0.1-0.2,0.1c0,0.1,0,0.1,0,0.1
			c0,0.3,0.3,0.6,0.3,0.6c-0.2-0.1-0.4,0.1-0.4,0.1c-0.2,0.1-0.2,0.3-0.1,0.4c0,0.1,0.1,0.2,0.2,0.2c0.1,0,0.2-0.1,0.2-0.2
			c0-0.1-0.1-0.2-0.2-0.2c0.1-0.2,0.3,0,0.3,0c0.3,0.2-0.2,0.5-0.2,0.5c-0.3,0.2-0.6-0.2-0.6-0.2c0.3-0.6,0.4-0.9,0.4-1.2
			c-0.1,0-0.2,0.1-0.3,0.1c0.1,0.5-0.2,0.8-0.2,0.8c-0.1-0.1-0.1-0.3-0.1-0.3c0-0.1-0.1-0.2-0.1-0.3c-0.1,0-0.2,0.1-0.3,0.1
			c0.1,0.3,0.2,0.8,0.2,0.8c-0.1,0.1-0.2,0.1-0.2,0.1c-0.2,0-0.1-0.1-0.1-0.1c0.1-0.1,0.1-0.2,0.1-0.2c-0.1-0.2-0.3,0-0.3,0
			c-0.4,0.2-0.3,0.4-0.3,0.4c0,0.1,0.4,0.3,0.4,0.3c-0.2,0.1-0.6,0.1-0.6,0.1c0-0.1-0.1-0.2-0.2-0.2c0,0,0,0,0,0
			c-0.1,0-0.2,0-0.2,0.1c0,0,0,0.1,0,0.1l-0.2,0c-0.2,0-0.2-0.5-0.3-0.9c-0.1,0-0.1,0-0.2,0c0.1,0.4,0.1,0.8,0.1,0.8
			c-0.1,0-0.4-0.2-0.4-0.2c-0.4-0.2-0.7-0.2-0.7-0.2c-0.2,0-0.4,0.2-0.4,0.4c0,0.2,0.2,0.4,0.4,0.4c0.2,0,0.4-0.2,0.4-0.4
			c0.2,0.1,0.3,0.2,0.3,0.2c0.4,0.3,0.8,0.3,0.9,0.3c0,0.1,0.2,0.3,0.3,0.3c0.1,0,0.2-0.1,0.3-0.2c0.8,0,1.1-0.4,1.1-0.4
			c0.1-0.1,0.1,0,0.1,0c0.3,0.4,0.9,0.2,0.9,0.2c0.1-0.1,0.1,0,0.1,0c0.1,0.2,0.3,0.1,0.3,0.1c0.2-0.1,0.1-0.3,0.1-0.3
			c-0.1-0.1,0-0.1,0-0.1c0.3,0,0.3-0.1,0.3-0.1c0.1-0.1-0.1-0.2-0.1-0.2c-0.1-0.1,0.1-0.1,0.1-0.1c0.2-0.1,0.1-0.2,0.1-0.2
			c0.2,0,0.2-0.1,0.2-0.1c0-0.1-0.3-0.1-0.3-0.1c-0.2,0-0.2-0.1-0.2-0.1c0.3,0,0.8-0.1,0.8-0.1c0.7,0.5,1.7,0.7,1.7,0.7
			c0,0.1,0,0.2,0,0.3c0,0,0,0,0,0c-0.1,0-0.2,0.1-0.2,0.2c0,0.1,0.1,0.2,0.2,0.2c0,0,0,0,0,0c0.3-0.1,0.3-0.6,0.3-0.6
			c0.9,0.1,1.5-0.6,1.5-0.6c0.1-0.1,0.1-0.1,0.2,0c0,0,0,0,0,0c0,0.1,0.1,0.1,0.2,0.1c0.1,0,0.2,0,0.2-0.1c0-0.1,0-0.1,0-0.1v0v0
			C160.7,35.7,160.7,35.6,160.7,35.6"/>
		<path class="st15" d="M149.7,36.8c0.1,0,0.1-0.1,0.1-0.1c0-0.2-0.2-0.4-0.2-0.4c-0.1,0-0.2,0-0.3,0c-0.1,0-0.2,0-0.3,0
			c0,0-0.2,0.1-0.2,0.4c0,0,0,0.1,0.1,0.1c0,0-0.2,0.1-0.2,0.3c0,0,0,0.1,0.2,0.3c0,0,0.1,0.2,0.2,0.3c0,0,0,0.2,0.3,0.2
			c0.2,0,0.3-0.2,0.3-0.2c0-0.1,0.2-0.3,0.2-0.3C150,37.1,150,37,150,37C150,36.9,149.7,36.8,149.7,36.8"/>
	</g>
	<g>
		<defs>
			<rect id="SVGID_24_" x="-94" y="-222.9" width="396.9" height="396.9"/>
		</defs>
		<clipPath id="SVGID_25_">
			<use xlink:href="#SVGID_24_"  style="overflow:visible;"/>
		</clipPath>
		<polygon class="st16" points="151.4,35.8 151.5,35.7 151.5,35.6 		"/>
		<polygon class="st16" points="147.4,35.8 147.5,35.8 147.5,35.6 		"/>
	</g>
	<g>
		<defs>
			<rect id="SVGID_26_" x="134.7" y="17.8" width="65.2" height="65.2"/>
		</defs>
		<clipPath id="SVGID_27_">
			<use xlink:href="#SVGID_26_"  style="overflow:visible;"/>
		</clipPath>
		<path class="st17" d="M146.9,35.4C146.9,35.4,146.9,35.4,146.9,35.4l0,0.2c0,0,0.1,0,0.1,0c0,0,0,0,0,0c0,0,0,0,0-0.1
			C147,35.5,147,35.5,146.9,35.4C147,35.4,147,35.4,146.9,35.4"/>
		<path class="st17" d="M148.7,35.6C148.6,35.6,148.6,35.6,148.7,35.6c-0.1,0.1-0.1,0.1-0.1,0.2c0,0.1,0,0.1,0,0.2
			c0,0,0.1,0.1,0.1,0.1c0,0,0.1,0,0.1,0c0,0,0-0.1,0-0.2C148.8,35.7,148.8,35.7,148.7,35.6C148.7,35.6,148.7,35.6,148.7,35.6"/>
		<path class="st17" d="M150.2,35.6C150.1,35.6,150.1,35.6,150.2,35.6c-0.1,0.1-0.1,0.1-0.1,0.2c0,0.1,0,0.1,0,0.2
			c0,0,0.1,0.1,0.1,0c0,0,0.1,0,0.1-0.1c0,0,0-0.1,0-0.2C150.3,35.7,150.3,35.6,150.2,35.6C150.3,35.6,150.2,35.6,150.2,35.6"/>
	</g>
	<g>
		<polygon class="st3" points="146.1,35.6 146.2,35.6 146.1,35.4 		"/>
	</g>
	<g>
		<defs>
			<rect id="SVGID_28_" x="134.7" y="17.8" width="65.2" height="65.2"/>
		</defs>
		<clipPath id="SVGID_29_">
			<use xlink:href="#SVGID_28_"  style="overflow:visible;"/>
		</clipPath>
		<path class="st18" d="M143.8,34.7l-0.1,0.2l0,0c0,0,0.1,0,0.1,0c0,0,0,0,0-0.1C143.9,34.8,143.9,34.7,143.8,34.7
			C143.8,34.7,143.8,34.7,143.8,34.7C143.8,34.7,143.8,34.7,143.8,34.7"/>
		<path class="st18" d="M144.3,34.8c0,0-0.1,0-0.1,0c0,0-0.1,0.1-0.1,0.1c0,0.1,0,0.1,0,0.2c0,0,0,0.1,0.1,0.1c0,0,0.1,0,0.1,0
			c0,0,0.1-0.1,0.1-0.1C144.4,35,144.4,35,144.3,34.8C144.4,34.9,144.4,34.9,144.3,34.8"/>
		<path class="st18" d="M144.9,35C144.9,35,144.9,35,144.9,35l-0.1,0.2c0,0,0.1,0,0.1,0c0,0,0,0,0,0c0,0,0,0,0-0.1
			C145,35.1,145,35.1,144.9,35C145,35,144.9,35,144.9,35"/>
		<path class="st18" d="M153.9,35C153.9,35,153.9,35,153.9,35c-0.1,0-0.1,0-0.1,0l0,0.2c0,0,0.1,0,0.1,0c0,0,0,0,0,0
			C154,35.1,154,35.1,153.9,35C153.9,35.1,153.9,35,153.9,35"/>
	</g>
	<g>
		<polygon class="st3" points="154.9,35 155,34.9 154.9,34.8 		"/>
	</g>
	<g>
		<defs>
			<rect id="SVGID_30_" x="134.7" y="17.8" width="65.2" height="65.2"/>
		</defs>
		<clipPath id="SVGID_31_">
			<use xlink:href="#SVGID_30_"  style="overflow:visible;"/>
		</clipPath>
		<path class="st19" d="M155.1,35.1L155.1,35.1C155.1,35,155.1,35,155.1,35.1C155.1,35,155.1,35,155.1,35.1
			C155.1,35,155.1,35,155.1,35.1l0-0.1l0,0l-0.1,0.1l0,0c0,0,0,0,0,0c0,0,0,0,0,0c0,0,0,0,0,0L155.1,35.1l-0.2,0.1l0,0
			c0,0,0,0,0-0.1l0-0.4l0,0l0.3,0.3c0,0,0,0,0.1,0.1c0,0,0,0,0,0l0,0L155.1,35.1z M154.3,35.3L154.3,35.3l0.1-0.5l-0.1,0
			c0,0-0.1,0-0.1,0c0,0,0,0,0,0.1l0,0l0-0.1l0.4-0.1l0,0l-0.1,0.5l0.1,0c0,0,0.1,0,0.1,0c0,0,0,0,0,0c0,0,0,0,0-0.1l0,0l0,0.1
			L154.3,35.3z M154.1,35.4c0,0-0.1,0-0.1-0.1c0,0,0,0-0.1-0.1c0,0,0,0,0,0c0,0,0,0-0.1,0l0,0.1c0,0,0,0,0,0c0,0,0,0,0,0l0,0l0,0
			l-0.3,0.1l0,0l0,0c0,0,0,0,0,0c0,0,0,0,0,0l-0.1-0.3c0,0,0,0,0,0c0,0,0,0,0,0l0,0l0,0l0.2,0l0,0c0,0,0.1,0,0.1,0c0,0,0,0,0.1,0
			c0,0,0,0,0.1,0c0,0,0,0,0,0.1c0,0.1,0,0.1-0.1,0.1c0,0,0.1,0,0.1,0.1C154.2,35.3,154.2,35.3,154.1,35.4c0.1-0.1,0.1-0.1,0.1-0.1
			l0,0L154.1,35.4z M153.2,35.6L153.2,35.6L153.2,35.6C153.2,35.6,153.2,35.6,153.2,35.6c0.1-0.1,0.1-0.1,0-0.1l-0.1-0.3
			c0,0,0,0,0,0c0,0,0,0-0.1,0l0,0l0,0l0.4-0.1l0,0.1l0,0c0,0,0,0,0,0c0,0,0,0,0,0c0,0,0,0,0,0l-0.1,0l0,0.2l0,0c0,0,0,0,0,0
			c0,0,0,0,0,0l0,0l0,0.2l0,0c0,0,0,0,0,0c0,0,0,0,0,0c0,0,0,0,0,0l0,0l0,0.1c0,0,0,0,0,0c0,0,0,0,0,0c0,0,0,0,0.1,0
			c0,0,0.1,0,0.1,0c0,0,0,0,0-0.1c0,0,0,0,0-0.1l0,0l0,0.2L153.2,35.6z M153,35.3l0,0.2c0,0,0,0.1,0,0.1s0,0,0,0.1c0,0,0,0-0.1,0.1
			c0,0-0.1,0-0.1,0c0,0-0.1,0-0.1,0c0,0-0.1,0-0.1,0c0,0,0,0,0-0.1c0,0,0,0,0-0.1l0-0.2c0,0,0,0,0,0c0,0,0,0-0.1,0l0,0l0.3-0.1l0,0
			l0,0c0,0,0,0,0,0c0,0,0,0,0,0l0,0.2c0,0,0,0.1,0,0.1c0,0,0,0,0,0c0,0,0,0,0.1,0c0,0,0.1,0,0.1,0c0,0,0,0,0-0.1c0,0,0-0.1,0-0.1
			L153,35.3c-0.1,0-0.1-0.1-0.1-0.1l0,0l0.2,0L153,35.3C153,35.2,153,35.2,153,35.3C153,35.2,153,35.3,153,35.3
			C153,35.3,153,35.3,153,35.3 M152.4,35.4C152.4,35.4,152.4,35.4,152.4,35.4C152.4,35.4,152.4,35.4,152.4,35.4
			c-0.1-0.1-0.1-0.1-0.1-0.1l-0.1,0l0,0.2l0,0C152.3,35.5,152.3,35.5,152.4,35.4C152.3,35.5,152.3,35.5,152.4,35.4L152.4,35.4l0,0.2
			l0,0c0,0,0,0,0,0c0,0,0,0,0,0l0,0l0,0.1c0,0,0,0,0,0c0,0,0,0,0.1,0l0,0l0,0l-0.3,0l0,0l0,0c0,0,0,0,0,0c0,0,0,0,0,0l0-0.3
			c0,0,0,0,0,0c0,0,0,0-0.1,0l0,0l0,0l0.4-0.1L152.4,35.4L152.4,35.4z M151.6,35.9L151.6,35.9C151.6,35.9,151.6,35.9,151.6,35.9
			C151.6,35.9,151.6,35.9,151.6,35.9C151.6,35.8,151.6,35.8,151.6,35.9L151.6,35.9l0-0.1l-0.2,0l0,0c0,0,0,0,0,0c0,0,0,0,0,0
			c0,0,0,0,0,0L151.6,35.9l-0.3,0l0,0c0,0,0.1,0,0.1-0.1l0.1-0.4l0,0l0.2,0.4c0,0,0,0.1,0,0.1c0,0,0,0,0,0l0,0L151.6,35.9z
			 M150.8,36L150.8,36L150.8,36C150.8,35.9,150.9,35.9,150.8,36c0.1-0.1,0.1-0.1,0.1-0.1l0-0.3c0,0,0,0,0,0c0,0,0,0,0,0l0,0l0,0
			l0.3,0l0,0l0,0c0,0,0,0,0,0c0,0,0,0,0,0l0,0.3c0,0,0,0,0,0c0,0,0,0,0,0c0,0,0,0,0.1,0c0,0,0.1,0,0.1,0c0,0,0-0.1,0-0.1l0,0l0,0.2
			L150.8,36z M150.4,35.9c0,0.1-0.1,0.1-0.2,0.1c-0.1,0-0.1,0-0.2,0c0,0-0.1-0.1-0.1-0.1c0,0,0-0.1,0-0.1c0,0,0-0.1,0-0.1
			c0,0,0.1-0.1,0.1-0.1c0,0,0.1,0,0.1,0c0.1,0,0.2,0,0.2,0.1c0.1,0,0.1,0.1,0.1,0.2C150.5,35.8,150.4,35.9,150.4,35.9 M149.6,35.6
			C149.6,35.6,149.6,35.6,149.6,35.6C149.5,35.6,149.5,35.6,149.6,35.6C149.5,35.6,149.5,35.6,149.6,35.6l-0.1,0.5h0l-0.3-0.4v0.2
			c0,0,0,0.1,0,0.1c0,0,0,0,0.1,0v0H149v0c0,0,0,0,0,0c0,0,0,0,0,0c0,0,0,0,0,0l0-0.2c0-0.1,0-0.1-0.1-0.1v0l0.2,0l0.3,0.3v-0.2
			c0-0.1,0-0.1-0.1-0.1v0L149.6,35.6L149.6,35.6z M148.9,36c-0.1,0-0.1,0.1-0.2,0.1c-0.1,0-0.1,0-0.2,0c0,0-0.1-0.1-0.1-0.1
			c0,0,0-0.1,0-0.1c0,0,0-0.1,0-0.1c0,0,0.1-0.1,0.1-0.1c0,0,0.1,0,0.1,0c0.1,0,0.2,0,0.2,0.1c0,0.1,0.1,0.1,0.1,0.2
			C148.9,35.9,148.9,35.9,148.9,36 M148.3,35.5l-0.3,0.4l0.1,0c0,0,0.1,0,0.1,0c0,0,0,0,0,0c0,0,0,0,0-0.1l0,0l0,0.1l-0.4,0l0,0
			l0.3-0.4l-0.1,0c-0.1,0-0.1,0-0.1,0c0,0,0,0,0,0.1l0,0l0-0.1L148.3,35.5L148.3,35.5z M147.7,36l-0.2,0l0,0c0,0,0,0,0,0
			c0,0,0,0,0,0c0,0,0,0,0,0l0,0l0,0l-0.2,0l0,0c0,0,0,0,0,0c0,0,0,0,0,0c0,0,0,0,0,0l0,0l-0.2,0l0,0c0,0,0.1,0,0.1-0.1l0.2-0.4l0,0
			l0.1,0.4C147.7,35.9,147.7,35.9,147.7,36C147.7,35.9,147.7,35.9,147.7,36L147.7,36z M147.2,35.9l-0.2,0c0,0,0-0.1-0.1-0.1
			c0,0,0-0.1,0-0.1c0,0,0,0,0,0c0,0,0,0-0.1,0l0,0.1c0,0,0,0,0,0c0,0,0,0,0,0h0l0,0l-0.3,0l0,0l0,0c0,0,0,0,0,0c0,0,0,0,0,0l0-0.3
			c0,0,0,0,0,0c0,0,0,0,0,0l0,0l0,0l0.2,0l0,0c0,0,0.1,0,0.1,0c0,0,0,0,0.1,0c0,0,0,0,0,0c0,0,0,0,0,0.1c0,0.1,0,0.1-0.1,0.1
			c0,0,0,0.1,0.1,0.1C147.1,35.8,147.2,35.8,147.2,35.9C147.2,35.9,147.2,35.9,147.2,35.9L147.2,35.9z M146.4,35.8l-0.2,0l0,0
			c0,0,0,0,0,0c0,0,0,0,0,0c0,0,0,0,0,0l0,0l0,0l-0.1,0l0,0c0,0,0,0,0,0c0,0,0,0,0,0c0,0,0,0,0,0l0,0l-0.2,0l0,0c0,0,0.1,0,0.1-0.1
			l0.2-0.3l0,0l0.1,0.4C146.3,35.7,146.3,35.7,146.4,35.8C146.4,35.7,146.4,35.8,146.4,35.8L146.4,35.8z M145.8,35.7l-0.4-0.1l0,0h0
			c0,0,0,0,0,0c0,0,0,0,0,0l0.1-0.3c0,0,0,0,0-0.1c0,0,0,0,0,0l0,0l0,0l0.3,0.1l0,0l0,0c0,0,0,0-0.1,0c0,0,0,0,0,0l-0.1,0.3
			c0,0,0,0,0,0c0,0,0,0,0,0c0,0,0,0,0.1,0C145.7,35.6,145.8,35.6,145.8,35.7c0-0.1,0-0.1,0-0.2l0,0L145.8,35.7z M145,35.4
			C145.1,35.4,145.1,35.5,145,35.4c0,0.1,0.1,0.1,0.1,0.1l0,0l-0.1,0c0,0,0-0.1,0-0.1c0,0,0-0.1,0-0.1c0,0,0,0,0,0c0,0,0,0-0.1,0
			l0,0.1c0,0,0,0,0,0c0,0,0,0,0,0l0,0l0,0l-0.3-0.1l0,0l0,0c0,0,0,0,0,0c0,0,0,0,0,0l0.1-0.3c0,0,0,0,0,0c0,0,0,0,0,0l0,0l0,0
			l0.2,0.1l0,0c0,0,0.1,0,0.1,0c0,0,0,0,0.1,0c0,0,0,0,0,0.1c0,0,0,0,0,0.1c0,0.1-0.1,0.1-0.1,0.1C145,35.3,145,35.3,145,35.4
			 M144.5,35.1c0,0.1-0.1,0.1-0.1,0.1c-0.1,0-0.1,0-0.2,0c-0.1,0-0.1,0-0.1-0.1c0,0-0.1-0.1-0.1-0.1c0,0,0-0.1,0-0.1
			c0,0,0-0.1,0.1-0.1c0,0,0.1-0.1,0.1-0.1c0,0,0.1,0,0.1,0c0.1,0,0.1,0.1,0.2,0.1C144.6,35,144.6,35.1,144.5,35.1 M144,34.8
			C144,34.9,143.9,34.9,144,34.8c-0.1,0.1-0.1,0.1-0.1,0.1c0,0-0.1,0-0.1,0l0,0l0,0.1c0,0,0,0,0,0c0,0,0,0,0,0l0,0l0,0l-0.2-0.1l0,0
			l0,0c0,0,0,0,0.1,0c0,0,0,0,0,0l0.1-0.3c0,0,0,0,0,0c0,0,0,0,0,0l0,0l0,0l0.2,0.1c0,0,0.1,0,0.1,0c0,0,0,0,0.1,0
			C144,34.7,144,34.7,144,34.8C144,34.8,144,34.8,144,34.8 M148.7,35.4l0.1,0l-0.2,0.1h0L148.7,35.4z M155.4,34.3
			c0,0-0.1-0.1-0.2-0.1c-0.1,0-0.1,0-0.1,0c-0.2,0.1-2.3,1-5.7,1c-3.4,0-5.5-0.9-5.7-1c0,0,0,0-0.1,0c-0.1,0-0.1,0-0.2,0.1l-0.7,0.6
			h0c0.2,0,0.4,0.1,0.4,0.1c1.8,0.8,3.9,1.1,6.3,1.2c2.4,0,4.5-0.4,6.3-1.2c0,0,0.2-0.1,0.4-0.1h0L155.4,34.3z"/>
		<path class="st19" d="M147.1,27.5c-0.1-0.1-0.2-0.1-0.3-0.2c-0.1,0-0.2,0.1-0.3,0.2H147.1z"/>
		<path class="st19" d="M148.4,27.4c0,0-0.1,0.1-0.2,0.1c0,0,0,0,0,0h2.2c0,0,0,0,0,0c-0.1,0-0.2-0.1-0.2-0.1c0,0,0,0,0,0
			c-0.1,0-0.2-0.1-0.3-0.1h-1.1C148.6,27.3,148.5,27.3,148.4,27.4C148.4,27.4,148.4,27.4,148.4,27.4"/>
		<path class="st19" d="M151.7,27.4C151.7,27.4,151.7,27.4,151.7,27.4c-0.1,0-0.1,0.1-0.2,0.2h0.5C151.9,27.5,151.8,27.4,151.7,27.4
			C151.7,27.4,151.7,27.4,151.7,27.4"/>
		<path class="st19" d="M146.6,31.8v-1.1C146.5,30.9,146.4,31.3,146.6,31.8"/>
	</g>
	<g>
		<polygon class="st3" points="149.2,29.9 147.1,29.2 148.8,29.2 		"/>
	</g>
	<g>
		<defs>
			<rect id="SVGID_32_" x="134.7" y="17.8" width="65.2" height="65.2"/>
		</defs>
		<clipPath id="SVGID_33_">
			<use xlink:href="#SVGID_32_"  style="overflow:visible;"/>
		</clipPath>
		<path class="st20" d="M149.2,27.7h-2.8l0,0c0,0,0,0.1,0,0.1c0,0,0.1,0.1,0.1,0.1h2.6L149.2,27.7z"/>
		<path class="st20" d="M149.1,28h-2.5c0,0.1,0.1,0.1,0.1,0.2h2.3L149.1,28z"/>
		<path class="st20" d="M149,28.4h-2.2c0,0.1,0.1,0.1,0.1,0.2h2L149,28.4z"/>
		<path class="st20" d="M148.9,28.8H147c0,0.1,0,0.1,0,0.2h1.8L148.9,28.8z"/>
		<path class="st20" d="M147.7,29.6H147c0,0.1,0,0.1,0,0.2h1L147.7,29.6z"/>
		<path class="st20" d="M147.4,29.4l-0.3-0.2H147v0c0,0,0,0.1,0,0.2H147.4z"/>
		<path class="st20" d="M149.3,27.7L149.3,27.7L149.3,27.7l0,0.2V28v0.2v0.2v0.2v0.2V29v0.8l2.1-0.7h-1.7l0-0.1h1.9
			c0-0.1,0-0.2,0-0.2h-2l0-0.2h2.1c0-0.1,0.1-0.2,0.1-0.2h-2.2l0-0.2h2.3c0-0.1,0.1-0.2,0.1-0.2h-2.5l0-0.1h2.7
			c0.1-0.1,0.1-0.2,0.2-0.2c0,0,0,0,0,0H149.3z"/>
		<path class="st20" d="M149.8,31.1v1.7c0.1,0,0.1-0.1,0.2-0.1v-1.4L149.8,31.1z"/>
		<path class="st20" d="M149.4,30.8v2.5c0-0.1,0.1-0.1,0.1-0.1l0,0c0-0.1,0.1-0.1,0.1-0.2v-2L149.4,30.8z"/>
		<path class="st20" d="M149,30.9v2c0.1,0.1,0.1,0.1,0.2,0.2l0,0c0,0,0,0,0,0.1v-2.5L149,30.9z"/>
		<path class="st20" d="M148.6,31.2v1.5c0.1,0,0.2,0.1,0.2,0.1V31L148.6,31.2z"/>
		<path class="st20" d="M150.1,32.6c0.1,0,0.2,0,0.2-0.1v-1l-0.2-0.2V32.6z"/>
		<path class="st20" d="M148.2,32.5c0.1,0,0.1,0,0.2,0v-1.3l-0.2,0.2V32.5z"/>
		<path class="st20" d="M148.1,30.2h0.1v0.7l-0.1,0.4V30.2z M149.2,29.9l-0.8,0.3l-0.3-0.2h-1.3c0,0.1-0.1,0.1-0.1,0.2
			c0,0.1-0.1,0.1-0.1,0.2V32c0,0.1,0.1,0.1,0.2,0.2v-2.1h0.1v2.2c0.1,0,0.1,0.1,0.2,0.1v-2.3h0.2v2.3c0.1,0,0.1,0,0.2,0v-2.3h0.2
			v2.4c0,0,0.1,0,0.1,0c0,0,0.1,0,0.1,0v-1l-0.1,0.1L149.2,29.9z"/>
		<path class="st20" d="M150.5,31.6l-0.2-0.4v-1h0.2V31.6z M151.7,30.2L151.7,30.2c0-0.1-0.1-0.2-0.1-0.2h-1.3l-0.3,0.2l-0.6-0.2
			l-0.2-0.1l1.3,1.8v0.9c0.1,0,0.2,0,0.2,0c0,0,0,0,0,0v-2.4h0.2v2.3c0.1,0,0.2,0,0.2,0v-2.3h0.1v2.3c0.1,0,0.2-0.1,0.2-0.1v-2.2
			H151.7l-0.1,2.1c0.1-0.1,0.2-0.1,0.2-0.2c0,0,0,0,0,0v-1.6C151.8,30.4,151.7,30.3,151.7,30.2"/>
		<path class="st20" d="M150.5,29.8h1c0-0.1,0-0.2,0-0.2h-0.7L150.5,29.8z"/>
		<path class="st20" d="M151.4,29.2l-0.3,0.2h0.5c0-0.1,0-0.1,0-0.2c0,0,0,0,0-0.1H151.4z"/>
		<path class="st20" d="M152.5,23.8C152.5,23.8,152.5,23.8,152.5,23.8C152.5,23.8,152.5,23.8,152.5,23.8c0,0,0-0.1,0-0.1
			c0-0.1,0-0.2,0-0.3c-0.1-0.5-0.5-0.6-0.8-0.4c0,0,0.3-0.6,1-0.4c0.2,0.1,0.3,0.2,0.4,0.4c0.1,0.2,0,0.4,0,0.5c0,0,0,0,0,0
			c0,0,0,0,0,0c0-0.1,0-0.3-0.1-0.4c0-0.1-0.1-0.2-0.2-0.2c0.1,0.1,0.1,0.2,0.1,0.2c0,0.1,0,0.2,0,0.2c0,0.2-0.1,0.4-0.2,0.5
			c0,0,0,0,0,0c0,0,0,0,0,0c0.1-0.3,0.1-0.5,0-0.7c0,0,0,0,0-0.1c-0.1-0.1-0.2-0.3-0.4-0.3c0.1,0.1,0.2,0.2,0.2,0.3
			C152.7,23.4,152.7,23.7,152.5,23.8 M150.1,21.5c0,0,0.4,0.1,0.5,0.5c0,0.2-0.1,0.3-0.1,0.3c0,0,0,0,0,0c0.1-0.2,0-0.4-0.1-0.6
			C150.3,21.5,150.1,21.5,150.1,21.5 M149.8,25.6c-0.1-0.2,0.1-0.4,0.2-0.5C150.3,25,150,25.5,149.8,25.6 M149.9,26
			c-0.1,0-0.1-0.2-0.1-0.2c0-0.2,0.2-0.2,0.3-0.3C150.1,25.5,150.1,25.7,149.9,26 M149.9,24.2c0.2,0.1-0.1,0.5-0.1,0.6
			c0,0,0.2-0.2,0.3-0.1c0.1,0.1-0.2,0.5-0.3,0.5C149.3,24.6,149.9,24.4,149.9,24.2 M149.6,26.2c-0.1,0,0-0.1,0-0.2
			c0-0.3,0-0.6-0.1-0.9c0-0.1-0.1-0.6-0.4-1.1c0.1,0.1,0.5,0.8,0.6,1.3C149.7,25.5,149.7,25.9,149.6,26.2 M149.3,26
			c-0.2,0-0.2-0.1-0.3-0.3c0.1,0.1,0.2,0.2,0.2,0c-0.1-0.1-0.6-0.2-0.4-0.4c0.1-0.1,0.3,0.3,0.4,0.2c0-0.3-0.9-0.4-0.9-0.7
			c0-0.1,0.8,0.4,0.9,0.4c0-0.2-1.1-0.6-1.5-1.2c0,0,0-0.1,0-0.1c0,0,0,0,0,0c0.2,0.3,0.8,0.8,1.5,1C149.4,24.8,149.5,25.6,149.3,26
			 M146.9,24.4c0.1-0.3,0.2-0.8-0.3-0.9c-0.4-0.1-0.7,0.2-0.9,0.3c0.1-0.3,0.5-0.6,1-0.5c-0.1-0.3-0.5-0.4-0.9-0.2
			c-0.1,0.1-0.2,0.1-0.2,0.2c0.1-0.2,0.3-0.4,0.5-0.4c0.3-0.1,0.7,0,0.8,0.2C147.4,23.6,147.1,24.4,146.9,24.4 M146,24.7
			c0.3-0.1,0.5-0.2,0.4-0.5c0-0.1-0.1-0.1-0.2-0.1c-0.1,0-0.2,0.1-0.3,0.2c0-0.2,0.2-0.4,0.4-0.4c0.1,0,0.3,0.1,0.3,0.3
			C146.7,24.5,146.3,24.7,146,24.7 M152.6,24.7c0.1,0,0.1,0,0.2,0c0.7-0.2,0.7-1.1,0.6-1.1c0,0,0,0,0,0c0,0.1,0,0.1-0.1,0.2
			c0,0.1-0.1,0.1-0.1,0.1c0,0,0,0,0,0c0.2-0.3,0.2-0.5,0.1-0.7c-0.1-0.1-0.1-0.3-0.3-0.4c-0.4-0.2-1.1-0.3-1.5,0
			c-0.1-0.1-0.3-0.2-0.5-0.3c0,0.2-0.3,0.5-0.5,0.7c0,0-0.2,0.1-0.2,0.1c0,0,0,0,0,0c0.4-0.2,0.6-0.5,0.6-0.9v0
			c0-0.2-0.1-0.5-0.3-0.8c-0.3-0.4-1.3-0.4-1.7-0.1c-0.1,0.1-0.2,0.3-0.2,0.4c0-0.1,0.1-0.3,0.3-0.3c0.2-0.1,0.5,0,0.6,0.2
			c-0.3-0.3-0.9-0.1-1,0.5v0c0,0,0,0,0,0h0c0,0,0,0,0-0.3c0-0.2,0.1-0.3,0.1-0.5c-0.7-0.1-1.6,0.2-1.6,1.3c0,0.1,0.1,0.3,0.2,0.4
			c0,0,0,0,0,0c0,0-0.1,0-0.2-0.1c-0.1-0.1-0.1-0.2-0.2-0.4c-0.4-0.2-0.7-0.2-1-0.1c-0.3,0-0.6,0.3-0.7,0.4
			c-0.1,0.1-0.1,0.2-0.2,0.3c-0.1,0.2-0.2,0.4-0.1,0.6c0,0.4,0.2,0.8,0.5,0.9c0.4,0.2,0.9,0.2,1.1,0.2c0.1,0,0.2-0.1,0.3-0.1
			c0,0,0,0,0,0c0,0,0,0,0,0c0.2-0.1,0.3-0.4,0.3-0.7c0,0,0,0,0,0c0,0,0,0.1,0,0.2c0,0.1,0,0.2-0.1,0.4c0,0,0,0,0,0.1
			c0,0,0,0.1,0,0.1c0.1,0.1,0.3,0.1,0.4,0.1c0,0,0,0,0,0c0,0-0.1,0.1-0.3,0.1c0,0-0.1,0-0.1,0c0.1,0.2,0.4,0.3,0.7,0.3c0,0,0,0,0,0
			c0,0-0.1,0-0.2,0c-0.1,0-0.3,0-0.4-0.1c0.1,0.2,0.4,0.3,0.8,0.4c0,0-0.3,0-0.4,0c0.2,0.8,0.6,0.7,0.6,0.7c-0.1,0-0.2,0.2-0.1,0.4
			c0.4-0.2,0.8-0.2,0.9-0.2c0.1,0,0.4,0,0.9,0.2c0-0.1,0-0.1,0-0.2c-0.1-0.2-0.7-0.3-1.2-0.2c0,0,0,0-0.1,0c0,0,0,0,0,0c0,0,0,0,0,0
			v0c0,0,0.1,0,0.1,0c0.2-0.1,0.7-0.2,1,0c0,0,0,0,0,0c0.2,0.1,0.4-0.2,0.4-0.3c0.2,0,0.3-0.1,0.3-0.3c0,0-0.1,0-0.1,0v0
			c-0.1,0-0.1,0-0.1,0c0,0,0,0,0,0h0l0,0l0,0c0,0,0.1,0,0.1,0c0.3-0.2,0.5-0.6,0.4-0.7c0,0.1-0.1,0.1-0.2,0.1c-0.1,0-0.1,0-0.1,0
			c0,0,0,0,0,0c0,0,0.1,0,0.1,0c0.1-0.1,0.2-0.2,0.3-0.4c-0.2-0.2-0.3-0.4-0.4-0.7c0-0.1-0.1-0.2-0.3-0.2c0,0,0,0-0.1,0c0,0,0,0,0,0
			c0,0,0,0,0,0c0.2-0.1,0.3,0,0.4,0.1c0-0.3,0.1-0.4,0.1-0.4c0,0,0,0,0,0c-0.2,0.6,0.2,1.1,0.5,1.3c0.4,0.2,1.1,0.3,1.6-0.2h0
			c-0.1,0-0.2,0-0.3,0C152.7,24.8,152.6,24.7,152.6,24.7C152.6,24.7,152.6,24.7,152.6,24.7"/>
		<path class="st20" d="M158.5,32.8c0,0.2-0.1,0.7-0.2,0.7c0.4-4,0.2-5,0.1-5c-0.1,0-0.1,0.5-0.4,0.4c-0.2-0.1,0.5-1,0.2-1.5
			c-0.1-0.1-0.1,0.1-0.2,0.1c-0.3-0.1,0.2-0.9,0.1-0.9c-0.1-0.1-0.3-0.1-0.3-0.4c0-0.1,0.1-0.2,0-0.3c-0.1-0.1-0.1,0.1-0.2,0
			c-0.1-0.1,0-0.3-0.1-0.4c0,0-0.1,0.1-0.2,0c-0.1-0.1,0-0.2-0.1-0.2c-0.1,0-0.3,0.2-0.3,0.4c0,0.1,0.2,0.2,0.1,0.3
			c0,0.1-0.1,0.2-0.2,0.3c-0.2,0.4,0.1,0.5,0.1,0.7c0,0.1-0.2,0.1-0.2,0.1c-0.1,0-0.1-0.4-0.1-0.6c0-0.2,0.3-0.4,0.3-0.5
			c0-0.1-0.1-0.2-0.1-0.4c0-0.2,0.2-0.5,0.4-0.4c0.1,0,0.2,0.2,0.3,0.3c0,0,0.1,0.1,0.1,0.1c0.3,0.3,0.5,0.9,0.6,1.4
			C158.8,28.2,159,30.4,158.5,32.8 M156.5,27.1c-0.1,0.1-0.2,0.1-0.3,0.2c-0.2,0.1-0.4,0-0.5-0.2c0.2,0,0.3,0.1,0.5,0
			c0.1,0,0.1,0,0.2,0C156.5,27.1,156.5,27.1,156.5,27.1C156.6,27.1,156.6,27.1,156.5,27.1 M154.3,33.8L154.3,33.8
			C154.3,33.8,154.3,33.8,154.3,33.8c-0.1,0-0.4-0.1-0.4-0.1c0,0-0.1-0.1-0.2-0.1v0c-0.1,0-0.1,0.1-0.2,0.2c0,0,0,0,0-0.1
			c0,0,0,0,0,0c0,0,0,0,0,0v0c0,0,0,0,0,0c0,0,0,0,0,0c0,0,0,0,0,0c0,0,0,0,0,0c0,0,0,0,0,0c0,0,0,0,0,0c0,0,0,0,0,0
			c0.1,0,0.1,0,0.2,0c0.1,0,0.2,0,0.3,0.1c0.1,0.1,0.2,0.1,0.3,0.1C154.4,33.6,154.4,33.7,154.3,33.8 M145.2,33.2
			C145.2,33.3,145.2,33.3,145.2,33.2C145.2,33.3,145.2,33.3,145.2,33.2C145.2,33.3,145.2,33.3,145.2,33.2c-0.1,0.1-0.1,0.1-0.1,0.1
			c-0.1,0-0.1,0-0.2,0c0,0,0,0.1,0,0.1v0c0,0,0,0,0,0c0,0,0,0,0,0c0,0,0,0,0.1,0c0,0.1-0.1,0.1-0.1,0.1c-0.1,0-0.2-0.1-0.2-0.2
			c0,0,0,0,0,0c0,0,0,0,0,0c-0.1,0-0.2-0.1-0.3-0.1c0-0.2,0.6-0.1,0.6-0.1C145.1,33.2,145.1,33.2,145.2,33.2
			C145.2,33.2,145.2,33.2,145.2,33.2 M154.6,31.7c-0.5,0-0.8-0.4-0.8-0.4c0,0,0.2,0.2,0.3,0.2c0.2,0.1,0.6,0,0.7-0.1c0,0,0,0,0,0
			C154.9,31.5,154.9,31.7,154.6,31.7 M152.8,31.4L152.8,31.4C152.8,31.4,152.7,31.4,152.8,31.4C152.7,31.4,152.7,31.4,152.8,31.4
			L152.8,31.4C152.7,31.5,152.7,31.5,152.8,31.4L152.8,31.4c-0.1,0.1-0.1,0.1-0.1,0.1c0,0,0,0,0,0c0,0,0,0,0,0h0c0,0,0,0,0,0
			c0,0,0,0,0,0c0,0,0,0,0,0c0,0,0,0,0,0c0,0,0,0,0,0c0,0,0,0,0,0c0,0-0.1-0.1,0-0.1c0,0,0,0,0,0c0,0,0,0,0,0c0,0,0,0,0,0
			c0,0,0,0,0,0c0,0,0,0,0,0l0,0c0,0,0,0,0,0c0,0,0,0,0,0c0,0,0,0,0,0c0,0,0,0,0,0c0,0,0,0,0,0c0,0,0,0,0,0c0,0,0,0,0,0c0,0,0,0,0,0
			c0,0,0,0,0,0c0-0.2,0-0.4,0.1-0.5c0,0,0,0,0,0c0,0,0,0,0,0c0,0,0,0,0,0h0h0c0,0,0,0,0,0c0,0,0,0,0,0c0,0,0,0,0,0c0,0,0,0,0,0
			c0,0,0,0,0,0c0,0,0,0,0,0v0v0c0,0,0,0.1,0,0.2v0v0c0,0,0,0.1,0,0.1C152.8,31.2,152.8,31.3,152.8,31.4 M152.1,32
			c0,0.1-0.4,0.6-1.4,0.6c-0.1,0-0.9,0-1.1,0.5c0,0,0,0,0,0c0,0.1-0.1,0.2-0.2,0.3c0,0,0,0,0,0c0,0,0,0,0,0c0-0.1-0.1-0.2-0.2-0.3
			c0,0,0,0,0,0c-0.3-0.5-1-0.5-1.1-0.5c-1,0-1.3-0.6-1.4-0.6c-0.5-0.7,0-1.5,0-1.5c0.4-0.7,0.4-1.2,0.3-1.2c0-0.8-0.5-1.3-0.5-1.4
			c-0.1-0.1-0.1-0.1-0.1-0.2c0-0.1,0.1-0.1,0.1-0.1c0.1-0.1,0.3-0.2,0.4-0.3l0,0c0,0,0,0,0,0c0,0,0.1,0,0.1,0.1
			c0.1,0.1,0.3,0.2,0.6,0.2c0.1,0,0.1,0,0.2,0c0.2,0,0.4-0.2,0.4-0.2c0.1,0,0.2-0.1,0.2-0.1l0,0c0.4-0.2,0.8-0.2,0.9-0.2
			c0.1,0,0.5,0,0.9,0.2l0,0c0,0,0.1,0.1,0.2,0.1c0,0,0.3,0.1,0.4,0.2c0.1,0,0.1,0,0.2,0c0.3,0,0.5-0.1,0.6-0.2c0,0,0.1-0.1,0.1-0.1
			c0,0,0,0,0,0c0,0,0,0,0,0c0.1,0.1,0.3,0.2,0.4,0.3c0,0,0.1,0,0.1,0.1c0,0,0,0.1-0.1,0.2c-0.1,0.1-0.5,0.6-0.5,1.4
			c0,0.1-0.1,0.6,0.3,1.3C152.1,30.5,152.5,31.3,152.1,32 M146.3,30.7C146.3,30.7,146.3,30.7,146.3,30.7
			C146.3,30.7,146.3,30.7,146.3,30.7c0,0.1,0,0.1,0,0.1c0,0,0,0,0,0c0,0,0,0,0,0c0,0,0,0,0,0c0,0,0,0,0,0c0,0,0,0,0,0c0,0,0,0,0,0
			c0,0,0,0,0,0c0,0,0,0,0,0c0,0,0,0-0.1,0c0,0,0,0,0,0c0,0,0,0-0.1,0c0,0,0,0,0,0v0c0-0.1,0.1-0.1,0.1-0.2c0-0.1,0-0.1,0.1-0.2
			c0.1,0,0.1,0,0.1,0c-0.1-0.1-0.1-0.2,0-0.4c0.2-0.2,0-0.6,0-0.6c0.1,0,0.1,0.2,0.1,0.3c0,0,0,0,0,0c0,0,0,0,0,0.1c0,0,0,0,0,0v0v0
			c0,0,0,0,0,0.1c0,0,0,0,0,0c0,0,0,0,0,0c0,0,0,0,0,0c0,0,0,0,0,0.1c0,0,0,0,0,0c0,0,0,0,0,0c0,0,0,0,0,0c0,0,0,0,0,0
			C146.4,30.6,146.4,30.6,146.3,30.7C146.4,30.6,146.4,30.6,146.3,30.7C146.3,30.7,146.3,30.7,146.3,30.7 M152.4,29.9
			C152.4,29.9,152.4,29.9,152.4,29.9L152.4,29.9c0.1,0,0.1,0,0.2,0c0,0,0.1,0.1,0.1,0.2c0,0,0.1,0.2,0.1,0.2c0.1,0.1,0,0.2-0.1,0.1
			h0c-0.1,0-0.3-0.2-0.2-0.5c0,0-0.1,0-0.1,0h0c0,0,0,0-0.1,0c0,0,0,0,0,0c0,0,0,0,0,0c0,0,0,0,0,0c0,0,0,0.1-0.1,0.1
			c0-0.1,0.1-0.2,0.1-0.2l0,0C152.2,29.9,152.3,29.9,152.4,29.9 M146.3,29c-0.1,0-0.1-0.3-0.5-0.2c-0.2,0.1-0.4,0-0.5,0
			C145.8,28.4,146.3,28.7,146.3,29 M144.2,26.6c-0.3-0.1-0.6-0.1-0.7-0.4c0.4,0,0.8,0,1,0.2c0,0,0,0,0,0c0.1,0.1,0.3,0.2,0.4,0.5
			C144.6,26.8,144.5,26.7,144.2,26.6 M143.3,25.3c-0.1,0-0.2-0.1-0.3,0c0,0-0.1,0.1-0.1,0.2c0,0.1-0.1,0.1-0.2,0.1
			c-0.1-0.2,0.2-0.5,0.3-0.5c0.2-0.1,0.3,0,0.5,0.1c0.1,0,0.3,0,0.4,0c0.2,0,0.2,0.2,0.1,0.2c-0.2,0.1-0.3-0.1-0.5-0.1
			C143.6,25.2,143.5,25.3,143.3,25.3 M143,25.6c0.3,0.1,0.3-0.2,0.3-0.2C143.4,25.6,143.2,25.8,143,25.6 M141.5,34.9L141.5,34.9
			L141.5,34.9L141.5,34.9c0,0,0.1,0.1,0.1,0.1c0,0,0,0,0,0c0,0-0.1,0-0.1,0c0,0,0,0,0,0c-0.1,0-0.1-0.1-0.1-0.1c0,0.1,0,0.1,0.1,0.2
			c0,0,0,0-0.1,0h0c0,0-0.1,0-0.1,0h0l0,0c-0.1,0-0.1-0.2-0.1-0.2c0-0.1,0-0.2-0.1-0.2C141.2,34.6,141.5,34.9,141.5,34.9
			 M153.6,27.1c-0.1,0.1-0.2,0.3-0.3,0.3c-0.3,0.1-0.6-0.2-0.6-0.2c0,0,0.2,0.1,0.5,0.1C153.4,27.3,153.5,27.1,153.6,27.1
			C153.6,27,153.7,27,153.6,27.1 M152.5,25.7C152.5,25.7,152.5,25.7,152.5,25.7c-0.2-0.1-0.5-0.1-0.8,0c-0.2,0.1-0.3,0.3-0.3,0.3
			c0,0,0.3-0.4,0.8-0.5C152.5,25.5,152.6,25.6,152.5,25.7 M159,29.6c-0.1-1.1-0.2-2.1-0.4-3c-0.2-0.6-0.5-1.7-1.2-1.9
			c-0.3-0.1-0.6,0.2-0.6,0.5c0,0.3,0.2,0.4,0.1,0.6c-0.1,0.2-0.2,0.3-0.2,0.5c0,0.2,0.1,0.3,0.1,0.4c-0.2,0-0.3,0.2-0.7,0.1
			c-0.3,0.1-0.6,0.1-0.6,0.1c0,0,0,0,0,0c0.3,0,0.6-0.1,0.7-0.3c0.1-0.2,0-0.6-0.1-0.7c-0.2,0-0.3,0.2-0.9,0.2
			c-0.5,0-0.7,0.1-0.8,0.4c0-0.1,0-0.1,0-0.2c0-0.2,0.2-0.3,0.4-0.3c0-0.1,0.1-0.1,0.1-0.2c-0.1,0-0.1,0-0.3,0
			c-0.3,0-0.6,0.2-0.7,0.4c0,0,0,0.1,0,0.1c0,0,0,0.1,0,0.1c0,0,0,0.1,0,0.1c0.1,0.2,0.3,0.3,0.7,0.3c0,0,0,0,0,0c0,0-0.1,0-0.2,0
			c0,0-0.4,0-0.6-0.2c0,0,0,0,0,0c-0.1,0.1-0.3,0.2-0.5,0.2c-0.2,0-0.4-0.1-0.5-0.2c-0.3-0.4,0.1-1,0.1-1.2c0-0.6-0.8-0.3-1.1-0.2
			c-0.4,0.2-0.6,0.5-0.9,0.8c-0.1,0.2-0.3,0.4-0.3,0.5c0.1,0,0.4,0.2,0.7,0.2l0,0c0,0,0,0,0.1,0c0.1,0,0.4,0,0.5-0.2
			c0,0,0.1-0.1,0.2-0.1c0.1,0,0.1,0,0.2,0.1c0,0,0.6,0.5,0.7,0.6c0,0,0.1,0.1,0.1,0.1c0,0,0,0.1-0.1,0.2c0,0-0.3,0.4-0.5,0.8v0
			c0,0.1,0,0.1-0.1,0.2c-0.1,0.2-0.1,0.6,0.2,0.7c0,0,0.3,0.1,0.3-0.5c0,0,0.1,0.4,0.3,0.4c0.1,0,0.2-0.1,0.2-0.4l0,0
			c0-0.2,0-0.5,0-0.8c0,0,0,0,0,0c0,0,0,0,0,0.1c0,0.1-0.1,1.5,1,2.3c0,0-0.5-0.2-0.8-0.8c-0.2,0.1-0.4,0.3-0.3,0.8
			c0.1,0.2,0.2,0.3,0.3,0.4c0,0,0,0,0,0c0,0-0.1,0.1-0.2,0v0c0,0,0,0,0-0.1c0-0.1-0.1-0.1-0.1-0.2c-0.1-0.1-0.2-0.2-0.4-0.3l0,0
			c-0.1-0.2,0-0.7-0.6-0.7c0,0,0,0,0,0h0c0,0-0.1,0-0.1,0c0,0,0,0,0,0c-0.1-0.5-0.1-0.8-0.1-0.8c0.1-0.7,0.6-1.2,0.6-1.3
			c0,0,0-0.1,0-0.1c0,0,0,0,0,0l0,0c-0.2-0.1-0.7-0.5-0.7-0.6l0,0c0,0-0.1-0.1-0.1-0.1c-0.1,0-0.1,0-0.1,0c-0.2,0.2-0.5,0.2-0.6,0.2
			c0,0-0.1,0-0.1,0h0c-0.3,0-0.7-0.2-0.7-0.2c-0.5-0.2-0.9-0.2-1-0.2c-0.1,0-0.5,0-1,0.2c-0.1,0-0.4,0.2-0.7,0.2h0c0,0-0.1,0-0.1,0
			c-0.1,0-0.4,0-0.6-0.2l0,0c0,0,0,0-0.1,0c0,0-0.1,0-0.1,0.1l0,0c-0.1,0-0.6,0.5-0.7,0.6l0,0c0,0,0,0,0,0c0,0,0,0.1,0,0.1
			c0.1,0.1,0.5,0.6,0.6,1.3c0,0,0,0.1,0,0.3c0-0.1-0.1-0.3-0.1-0.4c0-0.1,0-0.1-0.1-0.2l0,0c-0.1-0.1-0.2-0.2-0.3-0.3
			c-0.1-0.1-0.2-0.1-0.3-0.1c-0.1-0.1-0.3-0.2-0.4-0.4c0-0.3-0.2-0.6-0.2-0.6c0,0,0.3,0.1,0.3,0.5c0.2-0.3,0.4-0.6,0.5-1
			c0.2-0.3,0.7-0.2,0.9-0.1c0.1,0,0.1,0,0.2,0.1c0.1,0,0.1,0.1,0.1,0.2c0.1,0,0.2,0,0.3,0c0,0,0,0.1,0.1,0.1c0,0,0.1,0,0.1,0l0,0h0
			c0.3,0,0.7-0.2,0.7-0.2l0,0c0,0,0,0,0,0c-0.1-0.1-0.3-0.2-0.4-0.2c-0.2,0-0.3-0.2-0.5-0.2c0,0-0.2,0-0.3,0
			c-0.4,0.1-0.7-0.1-1.1-0.1c-0.4,0-0.4,0.2-0.5,0.4c-0.1,0.1-0.1,0.2-0.2,0.2c-0.1,0.1-0.2,0.1-0.3,0.2c0,0,0,0,0,0
			c0-0.1-0.1-0.3-0.2-0.5c0,0,0,0,0,0c0,0,0,0,0,0c-0.2-0.3-0.4-0.5-0.9-0.7c-0.1,0-0.1,0-0.2-0.1c-0.1-0.1,0-0.1,0-0.1
			c0.1-0.1,0.3,0,0.5-0.1c0.3-0.2,0.2-0.5,0.1-0.5c-0.2,0-0.5-0.1-0.6-0.2c-0.1-0.1-0.1-0.2-0.3-0.2c-0.1,0-0.2,0-0.3,0
			c-0.1,0-0.1,0.1-0.2,0.1c0.1-0.1,0.2-0.2,0.4-0.2c-0.2,0-0.1-0.3-0.2-0.3c-0.1,0-0.1,0-0.2,0.1c0-0.1-0.1-0.3-0.2-0.4
			c-0.1-0.1-0.2,0-0.2,0.1c0,0.1,0.2,0.1,0.2,0.4c0,0-0.1,0-0.1,0.1c0-0.1-0.1-0.3-0.2-0.3c-0.1-0.1-0.2,0-0.2,0.1
			c0,0.1,0.2,0.1,0.2,0.4c0,0-0.1,0.1-0.1,0.1c-0.2-0.1-0.3-0.2-0.3-0.2c-0.1,0-0.2,0-0.1,0.1c0.1,0.1,0.2,0.2,0.3,0.2
			c0,0-0.1,0.1-0.1,0.1c-0.3-0.1-0.3-0.2-0.4-0.2c-0.1,0-0.2,0-0.1,0.1c0.1,0.2,0.3,0.2,0.4,0.2c0,0.1-0.1,0.1-0.1,0.2
			c-0.2,0-0.6,0.1-0.5,0.3c0.1,0.1,0.3-0.2,0.5,0c0.2,0.2,0.4,0.2,0.5,0.3c0.1,0.1,0.1,0.2,0.1,0.3c0.1,0.2,0.2,0.4,0.3,0.5
			c0.1,0.2,0.3,0.4,0.4,0.6c0,0,0,0.1,0,0.2c-0.2,0.2-0.6,0.5-0.8,0.7c-0.2,0.2-2,1.6-2.2,2.2c-0.1,0.1-0.1,0.3-0.1,0.5
			c-0.1,0.1-0.3,0-0.4,0c-0.1-0.1,0.1-0.3,0.1-0.5c0-0.1-0.1-0.1-0.2-0.1c-0.1,0-0.2,0.3-0.1,0.5c0,0,0.1,0.1,0,0.1
			c-0.1,0-0.1,0-0.1-0.1c0,0-0.1,0.1-0.1,0.2c0,0.1,0.2,0.1,0.2,0.2c0,0.1-0.1,0.1-0.2,0c-0.1,0.1,0,0.2,0,0.2
			c0.1,0,0.2-0.1,0.3-0.1c0,0.1,0,0.1-0.1,0.1c0.2,0.2,0.3-0.2,0.5-0.1c0.1,0,0.6,0.5,0.5,1c0,0,0,0.1,0,0.1
			c-0.1,0.2-0.3,0.3-0.5,0.4c-0.3,0.2,0.3,1.4,0.2,2c0,0.2,0.2,0.2,0.3,0.6c-0.1,0-0.3,0-0.4,0.1c0,0,0,0,0,0l0,0c0,0,0,0.1,0,0.1
			c0,0.2,0.1,0.3,0.3,0.3c0.2,0,0.3-0.1,0.3-0.3c0,0,0,0,0,0c0.1,0,0.2,0,0.2,0.1l0.3,0.1c0,0-0.9,0.8-2.4,0.3c0,0-0.7-0.2-0.5-0.8
			c0,0,0-0.1,0.1-0.2c0,0.1,0.1,0.2,0.1,0.2c0.1,0,0.1,0.1,0.2,0.1c0.2,0,0.3-0.2,0.3-0.3c0-0.1,0-0.2-0.1-0.2c0,0,0,0,0,0
			c0,0,0,0,0,0c0,0,0,0,0,0c-0.1-0.1-0.3-0.1-0.5-0.1c0,0-0.7,0.2-0.4,0.9c0,0-0.4-0.1-0.6,0.1c0,0-0.1,0.1-0.1,0.2v0v0
			c0,0,0,0.1,0,0.1c0,0.1,0.1,0.1,0.2,0.1c0.1,0,0.2,0,0.2-0.1v0c0,0,0.1,0,0.2,0c0,0,0.6,0.7,1.5,0.6c0,0,0,0.5,0.3,0.6
			c0,0,0,0,0,0c0.1,0,0.2-0.1,0.2-0.2c0-0.1-0.1-0.2-0.2-0.2c0,0,0,0,0,0c0,0,0-0.2,0-0.3c0,0,1-0.1,1.7-0.7c0,0,0.5,0.1,0.8,0.1
			c0,0,0,0.1-0.2,0.1c0,0-0.3,0-0.3,0.1c0,0,0,0.1,0.2,0.1c0,0,0,0.1,0.1,0.2c0,0,0.1,0.1,0.1,0.1c0,0-0.2,0.1-0.1,0.2
			c0,0,0.1,0.2,0.3,0.1c0,0,0.1,0,0,0.1c0,0-0.1,0.1,0.1,0.3c0,0,0.2,0.1,0.3-0.1c0,0,0-0.1,0.1,0c0,0,0.6,0.3,0.9-0.2
			c0,0,0-0.1,0.1,0c0,0,0.3,0.4,1.1,0.4c0.1,0.1,0.2,0.2,0.3,0.2c0.2,0,0.3-0.1,0.3-0.3c0.1,0,0.5,0,0.9-0.3c0,0,0.1-0.1,0.3-0.2
			c0,0.2,0.2,0.4,0.4,0.4c0.2,0,0.4-0.2,0.4-0.4c0-0.2-0.2-0.4-0.4-0.4c0,0-0.3-0.1-0.7,0.2c0,0-0.3,0.2-0.4,0.2
			c0,0,0.1-0.4,0.1-0.8c-0.1,0-0.1,0-0.2,0c0,0.4-0.1,0.8-0.3,0.8l-0.2,0c0,0,0-0.1,0-0.1c0-0.1-0.1-0.1-0.2-0.1c0,0,0,0,0,0
			c-0.1,0-0.2,0.1-0.2,0.2c0,0-0.4,0.1-0.6-0.1c0,0,0.4-0.1,0.4-0.3c0,0,0.1-0.2-0.3-0.4c0,0-0.3-0.2-0.3,0c0,0,0,0.1,0.1,0.2
			c0,0,0.1,0.1-0.1,0.1c0,0-0.2,0-0.2-0.1c0,0,0-0.5,0.2-0.8c-0.1,0-0.2,0-0.3-0.1c0,0.1-0.1,0.2-0.1,0.3c0,0,0,0.3-0.1,0.3
			c0,0-0.4-0.3-0.2-0.8c-0.1,0-0.2-0.1-0.3-0.1c0,0.2,0,0.6,0.4,1.2c0,0-0.3,0.4-0.6,0.2c0,0-0.4-0.3-0.2-0.5c0,0,0.2-0.2,0.3,0
			c-0.1,0-0.2,0.1-0.2,0.2c0,0.1,0.1,0.2,0.2,0.2c0.1,0,0.2-0.1,0.2-0.2c0-0.1,0-0.3-0.1-0.4c0,0-0.2-0.2-0.4-0.1
			c0,0,0.2-0.3,0.3-0.6c0,0,0,0,0-0.1c-0.1,0-0.1-0.1-0.2-0.1c0,0.3-0.1,0.7-0.4,0.6c0,0,0.2-0.4,0.4-0.6c-0.1-0.1-0.3-0.1-0.4-0.2
			c0,0,0,0,0,0c0,0.1,0.1,0.4-0.1,0.5c0,0-0.2,0.2-0.5-0.1c0,0,0.4-0.3,0.5-0.5c-0.1,0-0.2-0.1-0.3-0.1h-0.1c0,0,0,0,0,0
			c0,0-0.3,0.2-0.4,0.3c0,0-0.1,0-0.1,0c0,0-0.3-0.4-0.1-0.8c0,0,0.1-0.4,0.5-0.3c0,0,0.1,0,0.1,0.1c0,0-0.3,0-0.3,0.2
			c0,0,0,0.2,0.3,0.2c0,0,0.4,0,0.3-0.5c0,0-0.1-0.3-0.3-0.3c0,0,0.1-0.2,0-0.2c0,0-0.1-0.1-0.3,0.1c0,0-0.1,0.1-0.3,0
			c0,0-0.2-0.1-0.3,0.1c0,0,0,0,0,0.2c0,0,0,0.1-0.1,0.3c0,0-0.1,0.1-0.1,0.3c-0.1-0.1-0.2-0.1-0.3-0.1c-0.1-0.1-0.1-0.7-0.3-1
			c0-0.1,0.1-0.4,0.1-0.7c0.9-0.2,1.3-0.9,1.4-1.2c0.1-0.5,0-1-0.1-1.2c0,0,0,0,0,0c0,0.1,0.1,0.2,0.1,0.2c0.4,0,0.7,0,1-0.1
			c0,0,0,0,0,0c0,0,0,0,0,0c0,0,0.1,0,0.1-0.1c0,0,0,0,0,0c0.6-0.3,0.9-0.9,1.1-1.2c-0.1,0-0.4-0.1-0.5-0.2c0.2,0,0.4,0.1,0.7,0.1
			c0.3,0,0.6-0.2,1-0.1c0,0,0,0.2,0.3,0.3c0,0.2,0,0.4,0.1,0.6c0,0.1,0,0.1,0,0.1s-0.3,0.2-0.2,0.4c0,0.1,0,0.1,0.1,0.1c0,0,0,0,0,0
			c0,0-0.1,0.1-0.2,0.2c0,0.1-0.2,0.4-0.1,0.4c0,0,0,0,0.1,0c-0.1,0.3-0.1,0.8,0.2,1.1l0,0c0,0,0.4,0.7,1.5,0.7h0
			c0.1,0,1.1,0,1.4,0.7c0,0,0.1,0.1,0.2,0.1c0.1,0,0.2-0.1,0.2-0.1c0.4-0.7,1.3-0.7,1.4-0.7h0c1.1,0,1.5-0.7,1.5-0.7l0,0
			c0.1-0.2,0.2-0.4,0.2-0.6c0.2-0.1,0.2-0.6,0.2-0.7c0.1,0.1,0.2,0.3,0.5,0.4c0,0.2,0,0.6,0.2,0.7c0.1,0,0.1-0.1,0.1-0.2
			c0.2,0.6,0,1,0.2,1c0.2,0,0.2-0.4,0.2-0.4c0,0,0.1,0.1,0.1,0.3c0,0.2,0,0.4,0.1,0.4c0.3,0,0.1-0.8,0.4-0.7c-0.1,0.4,0,0.6,0.2,0.6
			c0,0.2,0,0.3-0.1,0.3c-0.4,0.1-0.8-0.2-1.2-0.1c0,0,0,0,0,0c-0.7-0.4-1.1-0.1-1.1-0.1c-0.2-0.2-0.3,0.1-0.3,0.1
			c-0.3-0.2-0.5,0.1-0.6,0.2c-0.1,0-0.2-0.2-0.4,0.2c-0.1,0.2-0.5,0.2-0.5,0.3c-0.2,0-0.2-0.1-0.2-0.1c0,0,0-0.1,0-0.1
			c0,0,0-0.1-0.1-0.1c-0.1,0-0.1-0.1-0.2-0.1c-0.1,0-0.2,0.1-0.2,0.2c0,0.1,0,0.1,0,0.1c0,0,0,0,0.1,0c0.1,0,0.2,0.1,0.2,0.2v0
			c0,0.2-0.3,0.4-0.3,0.4c-0.2,0.1-0.4-0.1-0.4-0.1c-0.1-0.1-0.2-0.1-0.2-0.1c-0.1,0-0.2,0.1-0.2,0.1s-0.1-0.1-0.2-0.1
			c0,0-0.1,0-0.2,0.1c0,0-0.2,0.2-0.3,0.1c0,0-0.3-0.2-0.3-0.4v0c0-0.1,0.1-0.1,0.2-0.2c0.1,0,0.1,0,0.1,0c0,0,0-0.1,0-0.1
			c0-0.1-0.1-0.2-0.2-0.2c0,0-0.1,0-0.2,0.1c0,0,0,0-0.1,0.1c0,0,0,0.1,0,0.1c0,0,0,0.1-0.2,0.1c0,0-0.4-0.1-0.5-0.3
			c-0.2-0.4-0.3-0.2-0.4-0.2c-0.1,0-0.3-0.3-0.6-0.2c-0.1,0-0.1-0.2-0.3-0.1c0,0-0.4-0.2-0.9,0c0-0.1-0.2-0.1-0.2-0.1
			c-0.1,0-0.2-0.1-0.3-0.2c-0.1-0.1-0.4,0-0.6,0c-0.1,0-0.2,0-0.2-0.1c-0.2-0.1-0.5-0.3-0.6-0.5c0,0-0.1-0.1-0.1-0.1
			c-0.1-0.1-0.1-0.1-0.2-0.3c-0.1-0.3,0-0.6,0.1-0.8c0-0.1,0-0.2,0-0.3c-0.2,0.1-0.5,0.1-0.8,0c0.1,0.3,0.1,0.6,0.1,0.8
			c0.1,0.1,0.2,0.3,0.2,0.3c0,0.1,0,0.3,0,0.4c0.1,0.2,0.4,0.3,0.5,0.4c0.1,0,0.8,0.6,0.9,0.6c0.1,0,0.2-0.1,0.3,0c0,0,0.1,0,0.1,0
			c0,0,0.1,0.1,0.2,0.1c-0.2,0.1-0.5,0.3-0.7,0.4c0,0-0.3,0.2-0.2,0.2c0,0,0.2,0,0.3,0c0,0-0.1,0-0.3,0.1c0.4,0.1,0.7,0.2,1.1,0.3
			c0.2-0.2,0.5-0.5,0.8-0.6c0,0,0.4,0,0.6-0.3c0-0.1,0.2,0.2,0.6,0c0,0,0.1,0.1,0.2,0.1c0,0-0.2,0-0.1,0.2c0,0-0.3,0-0.4,0.2
			c0,0.1-0.7,0-1.3,0.5c0.1,0,0.2,0.1,0.3,0.1c0.2-0.1,0.4-0.2,0.7-0.2c0,0,0.4,0,0.5,0.4c0.2,0,0.4,0.1,0.7,0.1c0,0,0,0,0,0
			c0.1,0,0.4-0.2,0.2-0.4c0,0-0.1-0.1-0.2,0c0,0-0.1,0.1-0.1,0c0,0,0-0.1,0-0.1c0,0-0.1-0.1,0.1,0c0,0,0.1,0,0.2,0
			c0.1,0,0.2-0.1,0.2-0.2c0-0.1-0.1-0.2-0.2-0.2c0,0,0,0,0,0c0,0,0,0,0,0.1c0,0,0,0.1-0.1,0.1c-0.1,0-0.1-0.3,0.1-0.3
			c0,0,0.2,0,0.3,0.2c0,0,0.3,0.4,0.6,0.5c0,0,0,0.2,0.1,0.2c0,0,0,0.1,0.2,0.1c0,0,0,0.1,0.1,0.2c0.2,0,0.3,0,0.5,0
			c0.2,0,0.3,0,0.5,0c0-0.1,0.1-0.2,0.1-0.2c0.2,0,0.2-0.1,0.2-0.1c0.2-0.1,0.1-0.2,0.1-0.2c0.3-0.1,0.6-0.5,0.6-0.5
			C150.9,34,151,34,151,34c0.2,0,0.2,0.3,0.1,0.3c0,0-0.1,0-0.1-0.1c0,0,0,0,0-0.1c0,0,0,0,0,0c-0.1,0-0.2,0.1-0.2,0.2
			c0,0.1,0.1,0.2,0.2,0.2c0.1,0,0.2,0,0.2,0c0.1,0,0.1,0,0.1,0c0,0.1,0,0.1,0,0.1c0,0.1-0.1,0-0.1,0c-0.1-0.1-0.2,0-0.2,0
			c-0.1,0.2,0.2,0.3,0.2,0.4c0,0,0,0,0,0c0.2,0,0.5-0.1,0.7-0.1c0.2-0.4,0.5-0.4,0.5-0.4c0.3,0,0.5,0.1,0.7,0.2c0.1,0,0.2,0,0.3-0.1
			c-0.6-0.5-1.2-0.5-1.3-0.5c-0.1-0.2-0.4-0.2-0.4-0.2c0-0.2-0.1-0.2-0.1-0.2c0.1,0,0.2-0.1,0.2-0.1c0.4,0.2,0.5-0.1,0.6,0
			c0.1,0.3,0.6,0.3,0.6,0.3c0.3,0.1,0.6,0.4,0.8,0.6c0.3-0.1,0.7-0.2,1-0.3c0,0,0,0,0,0c0,0,0,0,0-0.1c0,0,0,0,0,0l0,0
			c0,0,0-0.1,0-0.1h0c-0.1-0.1-0.2-0.3-0.2-0.3l0,0c0,0,0,0,0,0c0,0,0.2-0.4,0.4-0.1c0,0,0,0.1-0.2,0.1c0,0,0.2,0.3,0.2,0.5
			c0,0,0,0,0,0c0.1,0,0.1,0,0.2-0.1c0,0,0,0,0,0c-0.1-0.2-0.2-0.3-0.2-0.4c0,0,0.2,0,0.2-0.1c0,0,0-0.2,0.1-0.3
			c0.1,0.1,0.2,0.1,0.2,0.1c0.2,0,0.3-0.4,0.3-0.5c0,0,0.2-0.1,0.2-0.1c0.1,0.2,0.5,0.4,0.4,0c0.1,0.2,0.1,0.4,0.3,0.4
			c0.2,0,0.1-0.3,0.1-0.3c0,0.1,0.1,0.4,0.4,0.3c0.1,0,0.1-0.1,0.1-0.2c0-0.3-0.9-1.9-1-2.6c0,0,0,0,0,0c-0.1,0-0.1-0.2-0.1-0.3
			c0,0,0,0,0,0c-0.1,0-0.3-0.1-0.3-0.4c0-0.3,0.1-0.4,0.1-0.4c0,0,0,0,0,0c-0.1,0.2-0.1,0.5,0,0.6c0,0,0.1,0.1,0.2,0.1
			c0-0.1,0.1-0.1,0.1-0.1c0,0,0,0,0,0c-0.1,0.1-0.1,0.3,0,0.4c0,0,0.1,0.1,0.2,0.1c0.2-0.1,0.4-0.6,0.4-0.7c0.2,0-0.3,1,0.1,1.2
			c0.1,0,0.2-0.2,0.3-0.3c0.1,0.3-0.3,0.9,0,1c0.2,0.1,0.3-0.5,0.3-0.4c0.1,0.8-0.4,1.2-0.1,1.3c0.2,0.1,0.3-0.5,0.3-0.5
			c0,0.8-0.4,1.1-0.2,1.2c0.2,0.1,0.4-0.4,0.4-0.3c0,0.8-0.4,1-0.2,1.2c0.2,0.3,0.6-0.5,0.6-0.3c0,0.2-0.4,1-0.2,1.1
			c0.2,0.1,0.3-0.2,0.3-0.3C159,32.4,159,30.3,159,29.6"/>
	</g>
	<g>
		<polygon class="st1" points="-29.5,103.2 -29.4,103.1 -29.6,103.1 		"/>
		<path class="st1" d="M-29.9,102.5C-29.9,102.5-29.9,102.5-29.9,102.5l0.4,0.4C-29.4,102.7-30,102.7-29.9,102.5"/>
		<path class="st1" d="M-29.9,102.4c0-0.2-0.1-0.2-0.2-0.3C-30,102.1-30,102.4-29.9,102.4"/>
		<path class="st1" d="M-31.5,86.5C-31.5,86.5-31.5,86.5-31.5,86.5C-31.5,86.5-31.5,86.5-31.5,86.5"/>
		<path class="st1" d="M-31.9,91L-31.9,91C-31.9,90.9-31.9,90.9-31.9,91"/>
		<path class="st1" d="M5.1,30.7C5.1,30.8,5.1,30.8,5.1,30.7C5.1,30.8,5.1,30.8,5.1,30.7"/>
		<polygon class="st1" points="9.6,24 9.6,23.9 9.6,24 		"/>
		<path class="st1" d="M9.6,24.2C9.6,24.2,9.6,24.2,9.6,24.2l0-0.2C9.6,23.8,9.6,24.3,9.6,24.2"/>
		<path class="st1" d="M9.6,24.2c0-0.1,0,0.1,0,0.1C9.6,24.2,9.6,24.3,9.6,24.2"/>
		<path class="st1" d="M8.2,24.4C8.2,24.4,8.2,24.4,8.2,24.4C8.2,24.4,8.2,24.4,8.2,24.4"/>
		<path class="st1" d="M8.7,24.7L8.7,24.7C8.6,24.7,8.6,24.7,8.7,24.7"/>
	</g>
</g>
</svg>
