<?xml version="1.0" encoding="utf-8"?>
<!-- Generator: Adobe Illustrator 21.0.0, SVG Export Plug-In . SVG Version: 6.00 Build 0)  -->
<svg version="1.1" xmlns="http://www.w3.org/2000/svg" xmlns:xlink="http://www.w3.org/1999/xlink" x="0px" y="0px"
	 viewBox="0 0 150.2 136.1" style="enable-background:new 0 0 150.2 136.1;" xml:space="preserve">
<style type="text/css">
	.st0{fill:#EB3C46;}
	.st1{fill:#0F69B4;}
	.st2{fill:#FFFFFF;}
	.st3{display:none;}
	.st4{display:inline;}
</style>
<g id="Todos_por_Chile">
</g>
<g id="Gobierno_de_Chile">
	<g>
		<rect x="61.3" y="0" class="st0" width="88.9" height="136.1"/>
		<rect x="0" y="0" class="st1" width="61.3" height="136.1"/>
		<g>
			<path class="st2" d="M36.3,26.5v2.1C36.7,27.7,36.5,27,36.3,26.5"/>
			<path class="st2" d="M40.7,14.1c-0.1,0.2-0.4,0.2-0.4,0.4C40.1,14.3,40.5,13.8,40.7,14.1 M42.2,14c0.2-0.1,0.4-0.5,0.7-0.3
				c0.1,0.1,0.3,0.2,0.4,0.3c0.2,0.1,0.3,0.2,0.4,0.4c0.1,0.2-0.2,0.6-0.4,0.2c-0.2-0.3-0.4-0.8-0.8-0.6c-0.3,0.2-0.6,0.4-0.6,0.2
				C41.8,14,42.1,14,42.2,14 M42.2,14.3c0.1-0.2,0.2,0.5,0.7,0.3C42.5,15.1,42,14.6,42.2,14.3 M40.4,15c0.1,0,0-0.3,0.2-0.3
				c0.2,0,0.6,0.2,0.7,0.4c0.1,0.3-0.2,0.9,0.7,1c0,0,0,0.1,0,0.3h0c0,0.2-0.1,0.3-0.1,0.5c0.1,0,0.1,0,0.2,0c1.1,0.1,1.8,0,2.1-0.4
				c0,0,0.2-0.2,0.3-0.4c0.3-0.6,0.3-1.1,0.2-1.6h0c0,0,0-0.1,0-0.1c0-0.1,0-0.1-0.1-0.2c-0.3-0.5-0.9-1-1.8-1.3c-0.1,0-0.1,0-0.2,0
				c0,0,0,0,0,0c0,0,0,0,0,0l0,0h0c0,0,0.2,0,0.2,0c0.6,0.1,1.7,0.7,1.9,1.3c0.2-0.1,0.4-0.5,0.4-0.8h0c0-0.1,0-0.4,0.1-0.8
				c0-0.1,0-0.2-0.1-0.3c-0.1,0-0.2,0-0.2,0.1c-0.2,0.3-0.5,0.1-0.4-0.2c0-0.1,0-0.2-0.1-0.3c-0.1,0-0.2,0-0.3,0.1
				c-0.1,0.3-0.5,0.1-0.4-0.2c0.1-0.1,0-0.2-0.1-0.3c-0.1,0-0.2,0-0.3,0.1c-0.1,0.3-0.5,0.1-0.4-0.2c0-0.1,0-0.2-0.1-0.3
				c-0.1,0-0.2,0-0.2,0.1c-0.1,0.2-0.2,0.4-0.3,0.5c0.7,0.1,1.4,0.5,1.9,1c0,0,0.2,0.2,0.2,0.3c0,0,0,0,0,0c0,0,0,0,0,0
				c0,0,0,0.1,0,0.1c0,0,0,0,0,0c-0.1-0.1-0.1-0.2-0.2-0.2c-0.8-0.6-1.4-0.9-2-1c-0.4,0-0.3,0.5-0.2,0.7c-0.6-0.1-1.1,0.3-1.1,0.8
				c0,0.2,0,0.3,0.1,0.5c0,0,0,0,0,0c0,0-0.1-0.1-0.2-0.2c0-0.1-0.1-0.2-0.1-0.3c-0.5,0-1,0.3-0.9,0.8C40,14.7,40.3,15,40.4,15"/>
			<path class="st2" d="M54.4,36.6c-0.4-0.4-1.3-0.2-1.3-0.2c0.5-1.5-0.9-1.9-0.9-1.9c-0.5-0.1-0.8,0-1,0.1c0,0,0,0,0,0c0,0,0,0,0,0
				c0,0-0.1,0-0.1,0.1c-0.1,0.1-0.2,0.3-0.2,0.5c0,0.4,0.3,0.7,0.7,0.7c0.2,0,0.3,0,0.4-0.1c0.1-0.1,0.2-0.3,0.3-0.4
				c0.2,0.1,0.3,0.3,0.3,0.3c0.4,1.3-1,1.7-1,1.7c-3.2,0.9-5.1-0.7-5.1-0.7l0.6-0.3c0.2-0.1,0.4-0.1,0.5-0.1c0,0,0,0.1,0,0.1
				c0,0.3,0.3,0.6,0.6,0.6c0.3,0,0.6-0.3,0.6-0.6c0-0.1,0-0.2-0.1-0.3l0,0c0,0,0-0.1,0-0.1c-0.4-0.6-1.7-0.2-1.7-0.2
				c0.4-1,0-1.8,0-1.8c-0.2-0.4-0.2-0.5-0.2-0.5c0-0.4-0.1-0.4-0.1-0.4c-0.2-0.3-0.5-0.1-0.5-0.1c-0.5,0.1-0.6-0.1-0.6-0.1
				c-0.4-0.3-0.6-0.1-0.6-0.1c-0.2,0.1,0.1,0.4,0.1,0.4c-0.5,0-0.6,0.6-0.6,0.6c-0.2,1,0.6,1,0.6,1c0.6,0,0.6-0.4,0.6-0.4
				c0.1-0.4-0.6-0.5-0.6-0.5c0.1-0.3,0.3-0.3,0.3-0.3c0.7-0.2,1,0.6,1,0.6c0.5,0.8-0.1,1.6-0.1,1.6c-0.1,0.1-0.2,0-0.2,0
				c-0.4-0.2-0.9-0.6-0.9-0.6c0,0,0,0,0,0h-0.2c-0.2,0-0.5,0.1-0.7,0.2c0.3,0.3,1.1,1,1.1,1c-0.6,0.5-1,0.2-1,0.2
				c-0.3-0.3-0.2-0.9-0.2-1.1c0,0,0,0-0.1,0c-0.3,0.1-0.6,0.2-0.9,0.4c0.3,0.5,0.8,1.3,0.8,1.3c-0.7,0.3-0.9-0.7-0.9-1.2
				c-0.1,0.1-0.3,0.1-0.4,0.2c0,0.1,0,0.2,0,0.2c0,0.5,0.5,1.2,0.5,1.2c-0.5-0.1-0.8,0.2-0.8,0.2c-0.3,0.3-0.3,0.7-0.3,0.8
				c0,0.2,0.2,0.3,0.4,0.3c0.2,0,0.4-0.2,0.4-0.4c0-0.2-0.2-0.4-0.3-0.4c0.2-0.4,0.5-0.1,0.5-0.1c0.6,0.5-0.3,1.1-0.3,1.1
				c-0.6,0.4-1.2-0.4-1.2-0.4c0.7-1.2,0.8-2,0.8-2.5c-0.2,0.1-0.5,0.2-0.7,0.2c0.3,1.1-0.4,1.7-0.4,1.7c-0.2-0.1-0.2-0.7-0.2-0.7
				c-0.1-0.2-0.1-0.5-0.2-0.7c-0.2,0.1-0.4,0.1-0.6,0.2c0.2,0.7,0.3,1.6,0.3,1.6c-0.1,0.1-0.5,0.2-0.5,0.2c-0.5,0-0.2-0.2-0.2-0.2
				c0.3-0.2,0.2-0.4,0.2-0.4c-0.2-0.4-0.7,0-0.7,0c-0.8,0.4-0.5,0.9-0.5,0.9c0.1,0.3,0.9,0.5,0.9,0.5c-0.4,0.3-1.2,0.2-1.3,0.2
				c0-0.2-0.2-0.4-0.4-0.5c0,0,0,0,0,0c-0.3,0-0.4,0.1-0.5,0.2c0,0-0.1,0.1-0.1,0.2l-0.5-0.1c-0.3,0-0.5-1-0.6-1.8
				c-0.1,0-0.3,0-0.4,0c0.1,0.9,0.3,1.6,0.3,1.6c-0.2,0-0.8-0.5-0.8-0.5c-0.8-0.5-1.4-0.4-1.4-0.3c-0.4,0.1-0.7,0.4-0.7,0.9
				c0,0.5,0.4,0.9,0.9,0.9c0.5,0,0.9-0.4,0.9-0.9c0.3,0.2,0.6,0.3,0.6,0.3c0.8,0.5,1.6,0.6,1.8,0.6c0.1,0.3,0.3,0.5,0.6,0.5
				c0.2,0,0.5-0.1,0.6-0.3c1.7-0.1,2.4-0.8,2.4-0.8c0.2-0.2,0.2-0.1,0.2-0.1c0.6,0.9,1.9,0.4,1.9,0.4c0.2-0.1,0.3,0,0.3,0
				c0.3,0.4,0.6,0.2,0.6,0.2c0.5-0.3,0.2-0.6,0.2-0.6c-0.2-0.2,0-0.2,0-0.2c0.6,0.1,0.7-0.2,0.7-0.2c0.1-0.3-0.3-0.5-0.3-0.5
				c-0.1-0.1,0.1-0.3,0.1-0.3c0.3-0.2,0.3-0.4,0.3-0.4c0.4,0,0.4-0.2,0.4-0.2c0-0.2-0.5-0.2-0.5-0.2c-0.4,0-0.3-0.3-0.3-0.3
				c0.6,0,1.6-0.3,1.6-0.3c1.4,1.1,3.5,1.4,3.5,1.4c0,0.2,0,0.5,0,0.5c0,0,0,0,0,0c-0.2,0-0.3,0.1-0.3,0.3c0,0.2,0.2,0.3,0.3,0.3
				c0,0,0.1,0,0.1,0c0.7-0.2,0.7-1.2,0.7-1.2c1.9,0.2,3.2-1.2,3.2-1.2c0.2-0.2,0.3-0.1,0.3-0.1c0,0,0,0,0,0c0.1,0.1,0.2,0.2,0.4,0.2
				c0.2,0,0.3-0.1,0.4-0.2c0.1-0.1,0.1-0.2,0.1-0.3v0v0C54.5,36.7,54.4,36.6,54.4,36.6"/>
			<path class="st2" d="M31.5,39c0.2-0.1,0.2-0.3,0.2-0.3c0-0.5-0.3-0.8-0.4-0.8c-0.2,0-0.5,0-0.7,0h0c-0.2,0-0.5,0-0.7,0
				c0,0-0.4,0.2-0.3,0.8c0,0,0,0.2,0.2,0.3c0,0-0.5,0.2-0.5,0.5c0,0-0.1,0.2,0.4,0.6c0,0,0.3,0.3,0.4,0.6c0,0,0,0.4,0.5,0.4
				c0.5,0,0.5-0.4,0.5-0.4c0.1-0.3,0.4-0.6,0.4-0.6c0.4-0.3,0.4-0.6,0.4-0.6C32,39.2,31.5,39,31.5,39"/>
			<polygon class="st2" points="35,36.9 35.3,36.9 35.1,36.6 			"/>
			<polygon class="st2" points="26.6,36.9 26.9,37 26.8,36.6 			"/>
			<path class="st2" d="M25.7,36.2C25.6,36.2,25.6,36.2,25.7,36.2l-0.1,0.4c0.1,0,0.1,0,0.2,0c0,0,0.1,0,0.1-0.1c0,0,0-0.1,0-0.1
				c0-0.1,0-0.1,0-0.2C25.8,36.3,25.7,36.3,25.7,36.2"/>
			<path class="st2" d="M29.3,36.5c-0.1,0-0.2,0-0.2,0.1c0,0.1-0.1,0.2-0.1,0.3c0,0.2,0,0.3,0.1,0.3c0,0.1,0.1,0.1,0.2,0.1
				c0.1,0,0.2,0,0.2-0.1c0-0.1,0.1-0.2,0.1-0.3c0-0.1,0-0.3-0.1-0.3C29.4,36.6,29.4,36.5,29.3,36.5"/>
			<path class="st2" d="M32.4,36.5c-0.1,0-0.1,0-0.2,0.1c0,0.1-0.1,0.2,0,0.3c0,0.2,0,0.3,0.1,0.3c0,0.1,0.1,0.1,0.2,0.1
				c0.1,0,0.2,0,0.2-0.1c0-0.1,0.1-0.2,0.1-0.3c0-0.1,0-0.3-0.1-0.3C32.6,36.6,32.5,36.5,32.4,36.5"/>
			<polygon class="st2" points="23.8,36.5 24.1,36.6 24,36.2 			"/>
			<path class="st2" d="M19,34.6L18.9,35l0,0c0.1,0,0.1,0,0.2,0c0,0,0.1-0.1,0.1-0.1c0-0.1,0-0.1,0-0.1c0,0,0-0.1-0.1-0.1
				C19.1,34.7,19.1,34.6,19,34.6"/>
			<path class="st2" d="M20,35.1c-0.1,0.1-0.1,0.1-0.2,0.3c0,0.2-0.1,0.3,0,0.3c0,0.1,0.1,0.1,0.2,0.2c0.1,0,0.2,0,0.2,0
				c0.1,0,0.1-0.1,0.2-0.3c0-0.1,0.1-0.3,0-0.3c0-0.1-0.1-0.1-0.2-0.2C20.1,35,20.1,35,20,35.1"/>
			<path class="st2" d="M21.4,35.4C21.4,35.4,21.4,35.4,21.4,35.4l-0.1,0.4c0.1,0,0.1,0,0.2,0c0,0,0.1,0,0.1,0c0,0,0-0.1,0.1-0.1
				c0-0.1,0-0.1,0-0.2C21.5,35.4,21.5,35.4,21.4,35.4"/>
			<path class="st2" d="M40.2,35.4c0,0-0.1,0-0.2,0c0,0,0,0,0,0l0.1,0.4c0.1,0,0.1,0,0.2-0.1c0,0,0,0,0.1-0.1c0,0,0-0.1,0-0.1
				C40.3,35.5,40.2,35.4,40.2,35.4"/>
			<polygon class="st2" points="42.3,35.3 42.5,35.2 42.3,35 			"/>
			<path class="st2" d="M42.6,35.5L42.6,35.5c0-0.1,0-0.1,0-0.1c0,0,0,0,0,0c0,0,0,0,0,0l0,0l-0.1-0.1l-0.3,0.1l0,0.1
				c0,0,0,0.1,0,0.1c0,0,0,0,0,0c0,0,0,0,0.1,0l0,0.1l-0.3,0.1l0-0.1c0.1,0,0.1-0.1,0.1-0.2l0-0.9l0.1,0l0.6,0.6
				c0.1,0.1,0.1,0.1,0.1,0.1c0,0,0.1,0,0.1,0l0,0.1L42.6,35.5z M41.1,36.1L41.1,36.1l0.3-1.1l-0.2,0.1c-0.1,0-0.2,0.1-0.2,0.1
				c0,0,0,0.1,0,0.2l-0.1,0l-0.1-0.3l0.8-0.3l0,0.1l-0.3,1l0.2-0.1c0.1,0,0.1,0,0.1-0.1c0,0,0-0.1,0.1-0.1c0,0,0-0.1,0-0.1l0.1,0
				l0.1,0.3L41.1,36.1z M40.6,36.2c0,0-0.1-0.1-0.2-0.2c-0.1-0.1-0.1-0.1-0.1-0.1c0,0,0,0-0.1,0c0,0-0.1,0-0.1,0l0.1,0.2
				c0,0,0,0.1,0,0.1c0,0,0.1,0,0.1,0l0,0l0,0.1l-0.5,0.1l0-0.1l0,0c0,0,0.1,0,0.1-0.1c0,0,0-0.1,0-0.1l-0.2-0.6c0,0,0-0.1,0-0.1
				c0,0-0.1,0-0.1,0l0,0l0-0.1l0.4-0.1l0.1,0c0.1,0,0.2,0,0.2,0c0,0,0.1,0,0.1,0c0,0,0.1,0,0.1,0.1c0,0,0.1,0.1,0.1,0.1
				c0,0.1,0,0.2-0.1,0.3c0,0,0.1,0.1,0.2,0.2c0.1,0.1,0.1,0.1,0.2,0.1c0,0,0.1,0,0.1,0l0,0.1L40.6,36.2z M38.7,36.7L38.7,36.7
				L38.7,36.7c0-0.1,0.1-0.1,0.1-0.1c0,0,0-0.1,0-0.1l-0.1-0.6c0,0,0-0.1,0-0.1c0,0-0.1,0-0.1,0l0,0l0-0.1l0.8-0.2l0.1,0.3l-0.1,0
				c0,0-0.1-0.1-0.1-0.1c0,0,0,0-0.1,0c0,0-0.1,0-0.1,0l-0.2,0L39,36l0.1,0c0,0,0.1,0,0.1,0c0,0,0-0.1,0-0.1l0.1,0l0.1,0.3l-0.1,0
				c0,0,0,0,0,0c0,0,0-0.1,0-0.1c0,0-0.1,0-0.1,0l-0.1,0l0.1,0.2c0,0,0,0.1,0,0.1c0,0,0,0,0.1,0c0,0,0.1,0,0.1,0
				c0.1,0,0.1,0,0.1-0.1c0,0,0-0.1,0.1-0.1c0,0,0-0.1,0-0.1l0.1,0l0.1,0.3L38.7,36.7z M38.3,36l0.1,0.3c0,0.1,0,0.1,0,0.2
				c0,0,0,0.1,0,0.1c0,0-0.1,0.1-0.1,0.1c-0.1,0-0.1,0.1-0.2,0.1c-0.1,0-0.2,0-0.2,0c-0.1,0-0.1,0-0.2-0.1c0,0-0.1-0.1-0.1-0.1
				c0,0,0-0.1,0-0.2l-0.1-0.4c0,0,0-0.1,0-0.1c0,0-0.1,0-0.1,0l0-0.1l0.5-0.1l0,0.1l0,0c-0.1,0-0.1,0-0.1,0c0,0,0,0.1,0,0.1l0.1,0.4
				c0,0.1,0,0.1,0.1,0.2c0,0,0,0.1,0.1,0.1c0,0,0.1,0,0.2,0c0.1,0,0.1,0,0.1-0.1c0,0,0.1-0.1,0.1-0.1c0,0,0-0.1,0-0.2L38.3,36
				c-0.1-0.1-0.2-0.1-0.3-0.1l0-0.1l0.4-0.1l0,0.1c0,0,0,0-0.1,0C38.3,35.9,38.3,35.9,38.3,36C38.2,35.9,38.2,36,38.3,36 M37.1,36.2
				c0,0,0-0.1-0.1-0.1c0,0,0,0-0.1,0c0,0-0.1,0-0.1,0l-0.2,0l0.1,0.4l0.1,0c0,0,0.1,0,0.1,0c0,0,0-0.1,0-0.1L37.1,36.2l0,0.4l-0.1,0
				c0-0.1,0-0.1,0-0.1c0,0,0,0-0.1,0l-0.1,0l0,0.3c0,0,0,0.1,0,0.1c0,0,0.1,0,0.1,0l0,0l0,0.1l-0.5,0.1l0-0.1l0,0c0.1,0,0.1,0,0.1,0
				c0,0,0-0.1,0-0.1l-0.1-0.6c0,0,0-0.1,0-0.1c0,0-0.1,0-0.1,0l0,0l0-0.1l0.8-0.1L37.1,36.2L37.1,36.2z M35.3,37.3L35.3,37.3
				c0-0.1,0.1-0.1,0.1-0.1c0,0,0,0,0,0c0,0,0,0,0,0l0,0l0-0.1L35,37l0,0.1c0,0,0,0.1,0,0.1c0,0,0,0,0,0c0,0,0,0,0.1,0l0,0.1l-0.3,0
				l0-0.1c0.1,0,0.1-0.1,0.1-0.2l0.2-0.8l0.1,0l0.4,0.8c0,0.1,0.1,0.1,0.1,0.1c0,0,0.1,0,0.1,0l0,0.1L35.3,37.3z M33.7,37.4
				L33.7,37.4L33.7,37.4c0.1-0.1,0.1-0.1,0.1-0.1c0,0,0-0.1,0-0.1l-0.1-0.6c0,0,0-0.1,0-0.1c0,0-0.1,0-0.1,0l0,0l0-0.1l0.5,0l0,0.1
				l0,0c0,0-0.1,0-0.1,0c0,0,0,0.1,0,0.1l0,0.6c0,0,0,0.1,0,0.1c0,0,0,0,0,0c0,0,0.1,0,0.1,0c0.1,0,0.2,0,0.2-0.1
				c0,0,0.1-0.1,0.1-0.2l0.1,0l0,0.3L33.7,37.4z M32.9,37.3c-0.1,0.1-0.2,0.2-0.4,0.2c-0.1,0-0.2,0-0.3-0.1c-0.1,0-0.2-0.1-0.2-0.2
				c0-0.1-0.1-0.2-0.1-0.3c0-0.1,0-0.2,0.1-0.3c0-0.1,0.1-0.2,0.2-0.2c0.1-0.1,0.2-0.1,0.3-0.1c0.2,0,0.3,0,0.4,0.1
				c0.1,0.1,0.2,0.2,0.2,0.4C33,37.1,33,37.2,32.9,37.3 M31.2,36.6C31.1,36.6,31.1,36.6,31.2,36.6c-0.1,0-0.1,0.1-0.1,0.1
				c0,0,0,0.1,0,0.1l0,0.8h-0.1l-0.7-0.8l0,0.5c0,0.1,0,0.1,0,0.1c0,0,0.1,0,0.1,0v0.1H30v-0.1c0,0,0.1,0,0.1,0c0,0,0,0,0-0.1
				c0,0,0-0.1,0-0.1l0-0.5c0-0.1,0-0.2-0.1-0.2v-0.1l0.3,0l0.6,0.6l0-0.4c0-0.1,0-0.2-0.1-0.2v-0.1L31.2,36.6L31.2,36.6z M29.7,37.4
				c-0.1,0.1-0.2,0.1-0.4,0.1c-0.1,0-0.2,0-0.3-0.1c-0.1-0.1-0.2-0.1-0.2-0.2c0-0.1-0.1-0.2,0-0.3c0-0.1,0-0.2,0.1-0.3
				c0.1-0.1,0.1-0.2,0.2-0.2c0.1,0,0.2-0.1,0.3-0.1c0.2,0,0.3,0.1,0.4,0.2c0.1,0.1,0.1,0.2,0.1,0.4C29.8,37.1,29.8,37.3,29.7,37.4
				 M28.4,36.5l-0.6,0.8l0.2,0c0.1,0,0.1,0,0.1,0c0,0,0.1,0,0.1-0.1c0,0,0.1-0.1,0.1-0.1l0.1,0l0,0.3l-0.9-0.1l0-0.1l0.6-0.8l-0.2,0
				c-0.1,0-0.2,0-0.2,0c0,0-0.1,0.1-0.1,0.1l-0.1,0l0-0.3L28.4,36.5L28.4,36.5z M27.3,37.4l-0.5,0l0-0.1c0,0,0.1,0,0.1,0
				c0,0,0,0,0,0c0,0,0,0,0-0.1l0,0l0-0.1l-0.3,0l0,0c0,0,0,0.1,0,0.1c0,0,0,0,0,0.1c0,0,0,0,0.1,0l0,0.1l-0.3,0l0-0.1
				c0.1,0,0.1,0,0.2-0.1l0.4-0.8l0.1,0l0.2,0.8c0,0.1,0,0.1,0.1,0.1C27.3,37.3,27.3,37.3,27.3,37.4L27.3,37.4z M26.2,37.3l-0.3,0
				c0,0-0.1-0.1-0.1-0.3c0-0.1-0.1-0.1-0.1-0.1c0,0,0,0,0,0c0,0-0.1,0-0.1,0l0,0.2c0,0,0,0.1,0,0.1c0,0,0,0,0.1,0h0l0,0.1l-0.5-0.1
				l0-0.1l0,0c0,0,0.1,0,0.1,0c0,0,0,0,0-0.1l0.1-0.6c0,0,0-0.1,0-0.1c0,0,0,0-0.1,0l0,0l0-0.1l0.4,0.1l0.1,0c0.1,0,0.2,0,0.2,0
				c0,0,0.1,0,0.1,0.1c0,0,0.1,0.1,0.1,0.1c0,0,0,0.1,0,0.1c0,0.1-0.1,0.2-0.2,0.2c0,0,0.1,0.1,0.1,0.2c0,0.1,0.1,0.2,0.1,0.2
				C26.2,37.2,26.2,37.2,26.2,37.3L26.2,37.3z M24.5,37L24,36.9l0-0.1c0,0,0.1,0,0.1,0c0,0,0,0,0,0c0,0,0,0,0-0.1l0,0l0-0.1
				l-0.3-0.1l0,0c0,0,0,0.1,0,0.1c0,0,0,0,0,0.1c0,0,0,0,0.1,0l0,0.1l-0.3-0.1l0-0.1c0.1,0,0.1,0,0.2-0.1l0.4-0.7l0.1,0l0.2,0.8
				c0,0.1,0,0.1,0.1,0.2C24.5,36.9,24.5,36.9,24.5,37L24.5,37z M23.4,36.8l-0.9-0.2l0-0.1h0c0,0,0.1,0,0.1,0c0,0,0,0,0-0.1l0.1-0.6
				c0,0,0-0.1,0-0.1c0,0,0,0-0.1,0l0,0l0-0.1l0.5,0.1l0,0.1l0,0c-0.1,0-0.1,0-0.1,0c0,0,0,0,0,0.1l-0.1,0.6c0,0,0,0.1,0,0.1
				c0,0,0,0,0,0c0,0,0.1,0,0.1,0c0.1,0,0.2,0,0.2,0c0.1,0,0.1-0.1,0.1-0.2l0.1,0L23.4,36.8z M21.7,36.1c0,0.1,0.1,0.2,0.1,0.2
				c0,0,0,0,0.1,0l0,0.1l-0.3-0.1c0,0,0-0.1-0.1-0.3c0-0.1,0-0.1,0-0.2c0,0,0,0,0-0.1c0,0,0,0-0.1,0l-0.1,0.2c0,0,0,0.1,0,0.1
				c0,0,0,0,0.1,0.1l0,0l0,0.1l-0.5-0.1l0-0.1l0,0c0,0,0.1,0,0.1,0c0,0,0,0,0-0.1l0.2-0.6c0,0,0-0.1,0-0.1c0,0,0,0-0.1,0l0,0l0-0.1
				l0.4,0.1l0.1,0c0.1,0,0.1,0,0.2,0.1c0,0,0.1,0,0.1,0.1c0,0,0.1,0.1,0.1,0.1c0,0,0,0.1,0,0.1c0,0.1-0.1,0.2-0.3,0.2
				C21.6,35.9,21.6,36,21.7,36.1 M20.6,35.6c0,0.1-0.1,0.2-0.3,0.3c-0.1,0.1-0.3,0.1-0.4,0c-0.1,0-0.2-0.1-0.3-0.2
				c-0.1-0.1-0.1-0.2-0.1-0.3c0-0.1,0-0.2,0-0.3c0-0.1,0.1-0.2,0.2-0.2c0.1-0.1,0.2-0.1,0.3-0.1c0.1,0,0.2,0,0.3,0
				c0.2,0.1,0.3,0.1,0.4,0.3C20.7,35.3,20.7,35.5,20.6,35.6 M19.5,35c0,0.1-0.1,0.1-0.1,0.1c-0.1,0-0.1,0-0.2,0
				c-0.1,0-0.1,0-0.2-0.1l-0.1,0l-0.1,0.2c0,0,0,0.1,0,0.1c0,0,0,0,0.1,0.1l0,0l0,0.1l-0.5-0.2l0-0.1l0,0c0,0,0.1,0,0.1,0
				c0,0,0,0,0.1-0.1l0.2-0.6c0,0,0-0.1,0-0.1c0,0,0,0-0.1-0.1l0,0l0-0.1l0.4,0.1c0.1,0,0.2,0.1,0.2,0.1c0.1,0,0.1,0.1,0.1,0.1
				c0,0,0.1,0.1,0.1,0.1C19.5,34.9,19.5,35,19.5,35 M29.3,36.1l0.3,0l-0.4,0.2h-0.1L29.3,36.1z M42.9,33.9c-0.1,0-0.2,0-0.2,0
				c-0.5,0.1-4.8,2-12,2c-7.2,0-11.5-1.9-12-2c0,0-0.1,0-0.2,0c-0.1,0-0.3,0-0.4,0.1l-1.5,1.2h0c0.4,0,0.9,0.2,0.9,0.2
				c3.8,1.7,8.2,2.4,13.1,2.4c4.9,0,9.3-0.7,13.1-2.4c0,0,0.5-0.2,0.9-0.2h0L43.3,34C43.2,33.9,43,33.9,42.9,33.9"/>
			<path class="st2" d="M25.5,19.4c-0.1,0.1-0.3,0.2-0.5,0.3h1.1C25.8,19.6,25.6,19.5,25.5,19.4"/>
			<path class="st2" d="M32.7,19.7c-0.2-0.1-0.4-0.2-0.5-0.2c0,0,0,0-0.1,0c-0.2-0.1-0.4-0.2-0.6-0.2h-2.3c-0.2,0.1-0.4,0.1-0.6,0.2
				c0,0,0,0-0.1,0c-0.1,0-0.3,0.1-0.5,0.2c0,0,0,0-0.1,0L32.7,19.7C32.8,19.7,32.7,19.7,32.7,19.7"/>
			<path class="st2" d="M35.7,19.4C35.7,19.4,35.7,19.4,35.7,19.4C35.6,19.4,35.6,19.4,35.7,19.4c-0.1,0.1-0.3,0.2-0.5,0.3h1
				C36,19.6,35.8,19.5,35.7,19.4"/>
			<path class="st2" d="M24.9,28.6v-2.4C24.7,26.7,24.4,27.7,24.9,28.6"/>
			<path class="st2" d="M30.5,20h-5.9c0,0,0,0,0,0c0,0.1,0,0.1,0.1,0.2c0,0,0.1,0.1,0.2,0.3h5.5L30.5,20z"/>
			<path class="st2" d="M30.2,20.8h-5.2c0.1,0.1,0.2,0.3,0.3,0.5h4.8L30.2,20.8z"/>
			<path class="st2" d="M29.8,22.1l0.1-0.5h-4.5c0.1,0.2,0.1,0.3,0.2,0.5H29.8z"/>
			<path class="st2" d="M29.7,22.4h-4.1c0,0.2,0.1,0.3,0.1,0.5h3.8L29.7,22.4z"/>
			<path class="st2" d="M25.7,24.5h2.2L27.2,24h-1.4C25.7,24.1,25.7,24.3,25.7,24.5"/>
			<path class="st2" d="M25.8,23.2C25.8,23.2,25.8,23.2,25.8,23.2c0,0.1,0,0.3,0,0.5h0.9L26,23.2H25.8z"/>
			<path class="st2" d="M32.8,25.2h0.3v3l-0.3-0.9V25.2z M30.5,24.6l2.6,3.7v1.9c0.2,0,0.3,0,0.4,0c0,0,0.1,0,0.1,0v-4.9h0.3v4.9
				c0.2,0,0.3,0,0.5-0.1v-4.8h0.3V30c0.2-0.1,0.3-0.1,0.5-0.2v-4.6h0.3v4.4c0.2-0.1,0.3-0.2,0.4-0.4c0,0,0,0,0-0.1V26
				c-0.2-0.3-0.3-0.5-0.4-0.7h0c-0.1-0.2-0.1-0.3-0.2-0.5h-2.7l-0.6,0.4l-1.2-0.4L30.5,24.6l4.4-1.4h-3.5l-0.1-0.3h3.9
				c0-0.2,0.1-0.3,0.1-0.5h-4.1l-0.1-0.3h4.3c0.1-0.2,0.1-0.3,0.2-0.5H31l-0.1-0.3h4.9c0.1-0.2,0.2-0.3,0.3-0.5h-5.3l-0.1-0.3h5.6
				c0.2-0.2,0.3-0.4,0.3-0.4c0,0,0-0.1,0-0.1h-6.1l0-0.1V20v0.5v0.3v0.5v0.3v0.5v0.3v0.5V24.6L30.5,24.6z"/>
			<path class="st2" d="M31.5,30.7c0.2-0.1,0.3-0.2,0.5-0.2v-2.9l-0.5-0.4V30.7z"/>
			<path class="st2" d="M30.7,31.7c0.1-0.1,0.1-0.2,0.2-0.3l0,0c0.1-0.1,0.2-0.3,0.3-0.4v-4.1l-0.5-0.4V31.7z"/>
			<path class="st2" d="M29.9,30.9c0.1,0.1,0.3,0.3,0.4,0.5l0,0c0,0,0,0.1,0.1,0.1v-5.1l-0.5,0.4V30.9z"/>
			<path class="st2" d="M29.2,30.4c0.2,0.1,0.3,0.1,0.5,0.2V27l-0.5,0.4V30.4z"/>
			<path class="st2" d="M32.3,30.3c0.2,0,0.3-0.1,0.5-0.1v-2.1l-0.5-0.4V30.3z"/>
			<path class="st2" d="M28.4,30.2c0.1,0,0.3,0.1,0.5,0.1v-2.7l-0.5,0.4V30.2z"/>
			<path class="st2" d="M28.1,25.2h0.3v1.4l-0.3,0.9V25.2z M25.7,29.5v-4.3H26v4.5c0.1,0.1,0.3,0.1,0.5,0.2v-4.7h0.3v4.8
				c0.1,0,0.3,0.1,0.5,0.1v-4.9h0.3v4.9c0.1,0,0.1,0,0.2,0c0,0,0.1,0,0.3,0v-2l-0.3,0.2l2.7-3.8h0l0,0h0h0l-1-1.4H26l4.4,1.4
				l-1.6,0.6l-0.6-0.4h-2.7c0,0.1-0.1,0.3-0.2,0.5c0,0.1-0.1,0.2-0.2,0.4v3.5C25.3,29.2,25.5,29.4,25.7,29.5"/>
			<path class="st2" d="M33.1,24.5h2.2c0-0.2-0.1-0.3-0.1-0.5h-1.4L33.1,24.5z"/>
			<path class="st2" d="M35.2,23.2h-0.3l-0.7,0.5h1c0-0.2,0-0.3,0-0.3C35.2,23.3,35.2,23.2,35.2,23.2"/>
			<path class="st2" d="M23.7,10.2c0.7-0.2,1.4,0,1.7,0.4c1.1,1.1,0.5,2.6,0.2,2.7c0.2-0.6,0.3-1.6-0.6-1.8
				c-0.8-0.2-1.5,0.4-1.8,0.7c0.2-0.7,1-1.2,2-1c-0.2-0.6-1-0.8-1.9-0.4c-0.2,0.1-0.4,0.3-0.5,0.4C22.9,10.7,23.3,10.3,23.7,10.2
				 M23.6,13.8c0.5-0.1,1-0.4,0.9-0.9c0-0.1-0.2-0.3-0.4-0.3c-0.3,0-0.5,0.2-0.7,0.4c0-0.5,0.3-0.8,0.8-0.7c0.3,0,0.6,0.3,0.7,0.5
				C25.1,13.5,24.4,13.8,23.6,13.8 M27.3,12c0.4,0.7,1.6,1.6,3,2c0.5,0.1,0.7,1.7,0.3,2.5c-0.5,0-0.5-0.3-0.6-0.7
				c0.2,0.2,0.5,0.4,0.5,0c-0.2-0.1-1.2-0.4-0.9-0.9c0.2-0.2,0.7,0.7,0.9,0.4c0.1-0.7-2-0.9-1.9-1.4c0-0.3,1.6,0.8,1.8,0.8
				c0-0.3-2.4-1.3-3.1-2.6C27.3,12,27.2,12,27.3,12C27.3,11.9,27.3,11.9,27.3,12 M31.3,15c0.1,0.6,0.2,1.4-0.1,1.9
				c-0.2,0-0.1-0.3-0.1-0.4c0-0.7,0-1.3-0.2-1.9c-0.1-0.3-0.3-1.2-0.9-2.3C30.3,12.5,31.2,13.9,31.3,15 M31.9,12.8
				c0.4,0.2-0.2,1-0.3,1.2c0.1,0,0.4-0.4,0.6-0.3c0.2,0.2-0.5,1.1-0.6,1.1C30.7,13.6,31.9,13.3,31.9,12.8 M33.3,8
				c0,0.5-0.2,0.6-0.3,0.6c0,0,0,0,0-0.1c0.1-0.3,0.1-0.9-0.2-1.2c-0.2-0.2-0.5-0.3-0.5-0.4C32.2,7,33.1,7.2,33.3,8 M31.7,15.6
				c-0.2-0.3,0.3-0.7,0.4-1.1C32.7,14.5,32,15.5,31.7,15.6 M31.8,16.5c-0.1-0.1-0.1-0.3-0.1-0.4c0-0.3,0.4-0.5,0.6-0.6
				C32.3,15.4,32.3,16,31.8,16.5 M37.7,9.7c0.3,0.1,0.6,0.4,0.8,0.8c0.2,0.4,0.1,0.8,0,1c0,0,0,0,0,0c0,0,0,0,0,0
				c0-0.2,0-0.6-0.2-0.9c-0.1-0.2-0.2-0.4-0.5-0.5c0.1,0.2,0.2,0.4,0.3,0.5c0.1,0.2,0.1,0.3,0.1,0.4c0,0.4-0.2,0.9-0.4,1.1
				c0,0,0,0,0,0c0,0,0,0,0,0c0.2-0.5,0.2-1,0.1-1.4c0,0,0-0.1-0.1-0.1c-0.2-0.3-0.4-0.6-0.9-0.6c0.2,0.1,0.4,0.4,0.5,0.6
				c0.2,0.5,0.2,1.2-0.1,1.4c0,0,0,0,0,0c0,0,0,0,0,0c0-0.1,0-0.2,0-0.2c0-0.2,0-0.4,0-0.6c-0.2-1-1-1.3-1.6-0.7
				C35.7,10.4,36.3,9.2,37.7,9.7 M22.9,14.2c0.9,0.5,2,0.4,2.4,0.3c0.2,0,0.4-0.1,0.7-0.3c0,0,0.1,0,0.1-0.1c0,0,0,0,0,0
				c0.3-0.3,0.6-0.8,0.5-1.4c0,0,0,0,0,0c0,0,0.1,0.2,0.1,0.4c0,0.2-0.1,0.5-0.2,0.7c0,0,0,0.1,0,0.1c0,0.1,0,0.2,0.1,0.2
				c0.2,0.2,0.6,0.2,0.9,0.1c0,0,0,0,0,0c0,0-0.2,0.3-0.6,0.3c-0.1,0-0.2,0-0.2,0c0.2,0.4,0.8,0.6,1.5,0.6c0,0,0,0,0,0
				c0,0-0.2,0.1-0.4,0.1c-0.3,0-0.6-0.1-0.9-0.2c0.3,0.4,0.8,0.7,1.7,0.8c0,0.1-0.7,0-0.9,0c0.4,1.6,1.3,1.4,1.3,1.5
				c-0.3,0.1-0.4,0.4-0.3,0.7c0.9-0.3,1.6-0.4,1.8-0.4c0.2,0,0.9,0,1.8,0.4c0.1-0.1,0.1-0.3,0.1-0.4c-0.1-0.4-1.4-0.7-2.5-0.4
				c0,0-0.1,0-0.2,0.1c0,0,0,0,0,0c0,0,0,0,0,0l0,0c0,0,0.2-0.1,0.2-0.1c0.5-0.3,1.6-0.4,2.1-0.1c0,0,0,0,0,0
				c0.5,0.2,0.9-0.4,0.8-0.7c0.4,0,0.6-0.2,0.7-0.6c-0.1,0-0.1,0.1-0.2,0.1l0,0c-0.1,0.1-0.3,0.1-0.3,0.1c0,0,0,0,0,0h0c0,0,0,0,0,0
				c0,0,0,0,0,0c0.1,0,0.1-0.1,0.2-0.1c0.7-0.4,1-1.2,0.9-1.4c-0.1,0.1-0.3,0.3-0.5,0.3c-0.1,0-0.2,0-0.2,0c0,0,0,0,0,0
				c0.1,0,0.2,0,0.2-0.1c0.2-0.2,0.5-0.5,0.6-0.7c-0.4-0.4-0.6-0.9-0.8-1.5C33.5,12.3,33.3,12,33,12c0,0-0.1,0-0.1,0
				c0,0-0.1,0-0.1,0c0,0,0,0,0,0c0.3-0.3,0.7,0,0.9,0.1c0-0.6,0.2-0.7,0.3-0.7c0,0,0,0,0,0c-0.4,1.2,0.4,2.4,1,2.8
				c0.9,0.5,2.4,0.5,3.4-0.3h0c-0.2,0.1-0.4,0.1-0.6,0.1c-0.2,0-0.4,0-0.4-0.1c0,0,0,0,0,0c0.1,0,0.3,0,0.4,0
				c1.5-0.4,1.5-2.2,1.3-2.3c0,0,0,0,0,0c0,0.1-0.1,0.2-0.1,0.3c-0.1,0.2-0.2,0.3-0.2,0.3c0,0,0,0,0,0c0.3-0.6,0.3-1,0.1-1.6
				c-0.1-0.3-0.3-0.6-0.6-0.8c-0.7-0.5-2.2-0.6-3,0c-0.3-0.3-0.6-0.5-1.1-0.6c-0.1,0.5-0.6,1.1-1,1.4c-0.1,0.1-0.3,0.2-0.4,0.2
				c0,0-0.1,0,0-0.1c0.8-0.5,1.2-1.1,1.2-1.8v0c0-0.4-0.1-1.1-0.6-1.6c-0.7-0.8-2.7-0.9-3.5-0.1c-0.2,0.2-0.4,0.5-0.5,0.9
				c0.1-0.3,0.3-0.5,0.7-0.7c0.4-0.1,1.1,0,1.3,0.4c-0.7-0.7-1.9-0.2-2,1v0c0,0.1-0.1,0.1-0.1,0.1h0c0,0-0.1,0-0.1-0.5
				c0-0.3,0.1-0.7,0.3-1.1c-1.5-0.3-3.3,0.5-3.2,2.7c0,0.3,0.1,0.6,0.4,0.9c0.1,0.1,0,0.1,0,0.1c0,0-0.2-0.1-0.3-0.3
				c-0.1-0.2-0.3-0.5-0.3-0.7c-0.9-0.3-1.5-0.3-2-0.3c-0.5,0.1-1.3,0.5-1.5,0.9c-0.1,0.1-0.2,0.4-0.3,0.5c-0.2,0.4-0.3,0.8-0.3,1.3
				C21.8,13.1,22.3,13.9,22.9,14.2"/>
			<path class="st2" d="M14.3,35.5C14.3,35.5,14.3,35.4,14.3,35.5c-0.1-0.1-0.2-0.1-0.3-0.2c-0.1,0.1,0.1,0.3,0.2,0.4
				c0,0-0.1,0.1-0.1,0.1l0,0c-0.1,0-0.1,0-0.2,0h0c0,0,0,0,0,0c-0.2-0.1-0.2-0.3-0.2-0.5c0-0.1-0.1-0.4-0.3-0.5
				c0.4-0.2,0.9,0.3,0.9,0.4l0,0h0v0c0.1,0.1,0.2,0.1,0.3,0.2c0,0,0,0,0.1,0.1C14.5,35.5,14.4,35.5,14.3,35.5 M18.5,17.1
				c0.8,0.1,1.7,0.1,2.2,0.4c0,0,0,0,0.1,0c0.2,0.1,0.6,0.5,0.8,1.1c-0.7-0.4-1-0.5-1.5-0.8C19.4,17.7,18.7,17.6,18.5,17.1
				 M17.5,15.6c0.5,0.2,0.6-0.5,0.7-0.3C18.4,15.6,17.8,16.1,17.5,15.6 M17,15.7c-0.2-0.4,0.5-1,0.7-1.1c0.4-0.1,0.7,0.1,1.1,0.2
				c0.3,0,0.5,0,0.7,0c0.5,0,0.3,0.4,0.3,0.4c-0.4,0.1-0.6-0.2-1-0.2c-0.2,0-0.5,0.1-0.7,0.1c-0.2,0-0.4-0.2-0.6,0
				c0,0-0.3,0.2-0.2,0.5C17.3,15.7,17.1,15.8,17,15.7 M24.2,22.8c-0.2,0-0.2-0.7-1.1-0.5c-0.5,0.2-0.8,0.1-1.1,0
				C23.3,21.6,24.3,22.3,24.2,22.8 M24.3,24.1c0.1,0.1,0.2,0.4,0.2,0.7c0,0,0,0.1,0,0.1c0,0,0,0.1,0,0.1c0,0,0,0.1,0,0.1
				c0,0,0,0.1,0,0.1v0.1c0,0,0,0.1,0,0.1c0,0,0,0.1,0,0.1c0,0,0,0.1,0,0.1c0,0,0,0,0,0.1c0,0,0,0.1,0,0.1c0,0,0,0.1,0,0.1
				c0,0,0,0.1,0,0.1c0,0,0,0,0,0.1c0,0,0,0.1,0,0.1c0,0,0,0.1,0,0.1c0,0,0,0,0,0.1c0,0,0,0,0,0.1c0,0,0,0,0,0.1c0,0,0,0.1-0.1,0.1
				c0,0,0,0,0,0.1c0,0,0,0,0,0.1c0,0,0,0,0,0c0,0,0,0.1-0.1,0.1c0,0,0,0,0,0c0,0,0,0-0.1,0.1c0,0,0,0,0,0c0,0-0.1,0-0.1,0.1
				c0,0,0,0,0,0c0,0-0.1,0-0.1,0c0,0,0,0,0,0c0,0-0.1,0-0.1,0c0,0,0-0.1,0-0.1c0-0.1,0.1-0.2,0.2-0.4c0.1-0.1,0-0.2,0.1-0.3
				c0.1,0,0.2,0,0.3-0.1c-0.2-0.2-0.2-0.5,0-0.8C24.6,25,24.3,24.2,24.3,24.1 M24.8,25.9c0.8-1.4,0.7-2.4,0.7-2.6
				c0-1.6-1-2.8-1.1-2.9c-0.1-0.1-0.1-0.2-0.1-0.3c0-0.1,0.1-0.2,0.2-0.2c0.2-0.2,0.7-0.5,0.9-0.6l0.1-0.1c0,0,0.1,0,0.1,0
				c0.1,0,0.1,0,0.2,0.1c0.2,0.2,0.6,0.4,1.2,0.4c0.1,0,0.2,0,0.3,0c0.3,0,0.9-0.3,0.9-0.3c0.2-0.1,0.4-0.2,0.5-0.2l0,0
				c0.9-0.4,1.7-0.4,1.9-0.4c0.2,0,1,0,1.9,0.4l0.1,0c0.1,0,0.3,0.1,0.5,0.2c0,0,0.6,0.3,0.9,0.3c0.1,0,0.2,0,0.4,0
				c0.6,0,1-0.3,1.2-0.4c0.1-0.1,0.1-0.1,0.2-0.1c0,0,0.1,0,0.1,0c0,0,0,0,0.1,0.1c0.2,0.1,0.7,0.4,0.9,0.6c0,0,0.1,0.1,0.1,0.2
				c0,0.1,0,0.2-0.1,0.3c-0.1,0.1-1.1,1.3-1.1,2.9c0,0.2-0.1,1.2,0.7,2.6c0,0.1,0.9,1.7-0.1,3.2c-0.1,0.1-0.9,1.3-2.9,1.3
				c-0.2,0-1.8,0-2.4,1.1c0,0,0,0,0,0c-0.1,0.1-0.3,0.4-0.4,0.6c0,0-0.1,0.1-0.1,0.1c0,0-0.1,0-0.1-0.1c-0.1-0.2-0.3-0.5-0.4-0.6
				c0,0,0,0,0,0c-0.6-1-2.2-1.1-2.4-1.1c-2,0-2.8-1.2-2.9-1.3C23.9,27.5,24.8,25.9,24.8,25.9 M36.6,24.8
				C36.6,24.8,36.6,24.8,36.6,24.8c0.1-0.1,0.2-0.1,0.3-0.1c0.1,0,0.1,0,0.2,0h0c0.1,0,0.1,0,0.2,0c0,0,0.2,0.2,0.2,0.5l0,0
				c0,0.1,0.1,0.4,0.2,0.5c0.1,0.1,0.1,0.3-0.2,0.3h0c-0.3-0.1-0.6-0.5-0.5-1c-0.1,0-0.2,0-0.2,0h0c0,0-0.1,0-0.1,0c0,0,0,0,0,0
				c0,0,0,0-0.1,0c0,0,0,0,0,0c-0.1,0.1-0.1,0.2-0.2,0.2C36.4,25.1,36.5,24.9,36.6,24.8 M37.9,26.3C37.9,26.3,37.9,26.3,37.9,26.3
				C37.9,26.3,37.9,26.3,37.9,26.3c0,0.1,0,0.1,0,0.1c0,0,0,0,0,0c0,0,0,0,0,0.1v0c0,0.1,0,0.2,0,0.4c0,0,0,0,0,0.1c0,0,0,0,0,0
				c0,0.1,0,0.2,0,0.3c0,0.2,0,0.5-0.1,0.6c0,0,0,0,0,0.1c0,0,0,0-0.1,0.1c0,0,0,0,0,0c0,0,0,0-0.1,0c0,0,0,0,0,0c0,0,0,0-0.1,0
				c0,0,0,0,0,0c0,0,0,0-0.1,0h0c0,0,0,0-0.1,0c0,0,0,0,0,0c0,0,0,0-0.1,0c0,0,0,0,0,0c0,0,0,0-0.1-0.1c0,0,0,0,0,0
				c0,0-0.1-0.2,0.1-0.3c0,0,0.1,0.1,0.1,0.1c0,0,0,0,0,0c0,0,0,0,0.1,0c0,0,0,0,0,0c0,0,0,0,0.1,0c0,0,0,0,0,0c0,0,0,0,0,0
				c0,0,0,0,0,0c0,0,0,0,0,0c0,0,0,0,0,0c0,0,0-0.1,0-0.1c0,0,0,0,0,0c0,0,0,0,0-0.1c0,0,0,0,0,0c0,0,0,0,0-0.1c0-0.4,0-0.8,0.1-1
				c0,0,0,0,0,0c0,0,0,0,0,0C37.8,26.2,37.8,26.2,37.9,26.3L37.9,26.3L37.9,26.3C37.8,26.2,37.8,26.2,37.9,26.3
				C37.9,26.2,37.9,26.3,37.9,26.3 M40.6,28.2c0.5,0.2,1.2,0.1,1.5-0.2c0,0,0.1,0,0.1,0c0.1,0.1,0,0.4-0.6,0.5
				c-1.1,0.1-1.8-0.9-1.7-0.9C39.9,27.7,40.2,28,40.6,28.2 M39.6,18.8c-0.1,0.3-0.4,0.6-0.7,0.6c-0.6,0.1-1.2-0.3-1.2-0.4
				c0-0.1,0.5,0.2,1,0.2C39.1,19.2,39.4,18.9,39.6,18.8C39.6,18.7,39.7,18.7,39.6,18.8 M37.4,15.8C37.3,15.9,37.3,15.9,37.4,15.8
				c-0.4-0.2-1.1-0.2-1.6,0.1c-0.4,0.2-0.6,0.5-0.7,0.6c-0.1,0,0.6-0.9,1.6-1C37.3,15.5,37.4,15.8,37.4,15.8 M45,19
				c0.1,0,0.3,0,0.4-0.1c0.1,0,0.2-0.2,0.4-0.2c0.1,0.1-0.1,0.1-0.1,0.2c-0.1,0.1-0.5,0.3-0.7,0.3c-0.4,0.1-0.8,0-1-0.3
				C44.3,18.8,44.6,19.1,45,19 M46.3,17.2c0.1-0.4,0.6-0.8,0.6-1c0-0.2-0.3-0.5-0.3-0.8c0-0.5,0.3-1,0.8-0.9
				c0.3,0.1,0.5,0.3,0.7,0.6c0.1,0.1,0.2,0.2,0.2,0.2c0.6,0.7,1,1.9,1.3,2.9c0.8,2.9,1.2,7.5,0.2,12.6c-0.1,0.4-0.3,1.5-0.3,1.5
				c0.9-8.4,0.4-10.5,0.3-10.4c-0.1,0-0.3,1-0.7,0.7c-0.5-0.3,1-2.1,0.4-3.2c-0.1-0.2-0.3,0.2-0.5,0.2c-0.6-0.2,0.3-1.8,0.2-2
				c-0.1-0.1-0.6-0.2-0.6-0.8c0-0.3,0.2-0.5,0-0.7c-0.2-0.2-0.1,0.2-0.3,0.1c-0.3-0.3,0-0.7-0.2-0.9c-0.1-0.1-0.3,0.2-0.4,0.1
				c-0.2-0.1,0.1-0.4-0.1-0.5c-0.3,0-0.7,0.3-0.6,0.8c0,0.2,0.3,0.4,0.3,0.6c0,0.2-0.3,0.5-0.3,0.6c-0.4,0.9,0.3,1.1,0.2,1.4
				c0,0.2-0.3,0.2-0.5,0.2C46.2,18.4,46.2,17.5,46.3,17.2 M41.1,32.8L41.1,32.8C41.1,32.8,41.1,32.8,41.1,32.8
				c-0.3,0.1-0.8-0.3-0.8-0.3c-0.1,0-0.3-0.2-0.5-0.1h0l0,0c-0.2,0.1-0.3,0.3-0.4,0.4c0,0,0-0.1,0-0.1c0,0,0,0,0,0c0,0,0-0.1,0-0.1
				v0c0,0,0-0.1,0-0.1c0,0,0,0,0,0c0,0,0-0.1,0-0.1c0,0,0,0,0,0c0,0,0,0,0,0c0,0,0,0,0.1,0c0,0,0,0,0,0c0.1-0.1,0.2-0.1,0.4-0.1l0,0
				c0.2,0,0.4,0.1,0.5,0.2c0.2,0.2,0.5,0.2,0.7,0.2C41.2,32.5,41.1,32.7,41.1,32.8 M22,31.7C22,31.7,22,31.7,22,31.7
				C22,31.7,22,31.7,22,31.7C22,31.8,22,31.8,22,31.7c-0.1,0.1-0.2,0.1-0.2,0.1c-0.1,0-0.2,0-0.3,0c0,0.1,0,0.1,0.1,0.2v0
				c0,0,0,0,0,0c0,0,0.1,0,0.1,0c0.1,0,0.1,0,0.1,0.1c0,0.1-0.2,0.2-0.3,0.2c-0.2,0-0.3-0.2-0.4-0.4c0,0,0,0-0.1,0c0,0,0,0,0,0
				c-0.2-0.1-0.4-0.1-0.7-0.1c0-0.5,1.3-0.1,1.3-0.1C21.7,31.6,21.9,31.6,22,31.7C22,31.7,22,31.7,22,31.7 M27.8,38.5
				c0,0-0.6-0.2-1.4,0.3c0,0-0.7,0.5-0.8,0.5c0,0,0.2-0.8,0.3-1.6c-0.1,0-0.3,0-0.4,0c-0.1,0.8-0.3,1.7-0.6,1.8l-0.5,0.1
				c0-0.1,0-0.1-0.1-0.2c-0.1-0.1-0.2-0.2-0.5-0.2c0,0,0,0,0,0c-0.2,0.1-0.4,0.2-0.4,0.5c-0.1,0-0.9,0.1-1.3-0.2
				c0,0,0.8-0.3,0.8-0.5c0,0,0.2-0.4-0.5-0.9c0,0-0.6-0.3-0.7,0c0,0-0.1,0.2,0.2,0.4c0,0,0.3,0.3-0.2,0.2c0,0-0.4,0-0.5-0.2
				c0,0,0.1-1,0.3-1.6c-0.2-0.1-0.4-0.1-0.6-0.2c-0.1,0.2-0.2,0.4-0.2,0.7c0,0,0,0.6-0.2,0.7c0,0-0.7-0.6-0.4-1.7
				c-0.2-0.1-0.5-0.1-0.7-0.2c0,0.5,0.1,1.3,0.8,2.5c0,0-0.6,0.8-1.2,0.4c0,0-0.9-0.6-0.3-1.1c0,0,0.4-0.3,0.5,0.1
				c-0.2,0-0.4,0.2-0.4,0.4c0,0.2,0.2,0.4,0.4,0.4c0.2,0,0.4-0.2,0.4-0.3c0-0.1,0-0.5-0.3-0.8c0,0-0.3-0.3-0.8-0.2
				c0,0,0.5-0.6,0.5-1.2c0,0,0-0.1,0-0.2c-0.1-0.1-0.3-0.1-0.4-0.2c0,0.5-0.2,1.5-0.9,1.2c0,0,0.5-0.8,0.8-1.3
				c-0.3-0.1-0.6-0.2-0.9-0.4c0,0,0,0-0.1,0c0,0.2,0.1,0.8-0.2,1.1c0,0-0.4,0.3-1-0.2c0,0,0.8-0.7,1.1-1c-0.2-0.1-0.4-0.1-0.7-0.1
				h-0.2c0,0,0,0,0,0c0,0-0.5,0.4-0.9,0.6c0,0-0.1,0.1-0.2,0c0,0-0.7-0.8-0.2-1.6c0,0,0.3-0.7,1-0.6c0,0,0.2,0,0.3,0.3
				c0,0-0.6,0-0.6,0.5c0,0,0,0.5,0.6,0.4c0,0,0.8-0.1,0.6-1c0,0-0.1-0.6-0.6-0.6c0,0,0.3-0.3,0.1-0.4c0,0-0.2-0.2-0.6,0.1
				c0,0-0.1,0.2-0.6,0.1c0,0-0.3-0.1-0.5,0.1c0,0-0.1,0-0.1,0.4c0,0,0,0.1-0.2,0.5c0,0-0.1,0.3-0.2,0.7c-0.2-0.1-0.3-0.2-0.5-0.2
				c-0.3-0.3-0.3-1.5-0.6-2.2c-0.1-0.1,0.1-0.8,0.1-1.5c1.9-0.4,2.6-1.9,2.8-2.5c0.3-1.1-0.1-2.1-0.1-2.4c0,0,0,0,0,0
				c0.1,0.2,0.2,0.3,0.2,0.5c0.9,0.1,1.6-0.1,2-0.2c0,0,0,0,0.1,0c0,0,0.1,0,0.1,0c0.1,0,0.2-0.1,0.2-0.1c0,0,0.1,0,0.1,0
				c1.3-0.7,1.9-1.8,2.3-2.4c-0.2,0-0.8-0.2-1-0.5c0.5,0,0.9,0.2,1.4,0.2c0.7,0,1.2-0.4,2-0.3c0,0,0.1,0.4,0.6,0.6
				c0,0.5,0,0.8,0.2,1.2c0,0.1,0.1,0.1,0.1,0.1s-0.6,0.5-0.4,0.9c0,0.1,0.1,0.2,0.1,0.3c0,0-0.1,0-0.1,0c-0.1,0-0.2,0.1-0.3,0.3
				c-0.1,0.1-0.4,0.8-0.1,0.8c0.1,0,0.1,0,0.1,0c-0.1,0.7-0.1,1.6,0.4,2.4l0,0c0,0.1,0.9,1.5,3.2,1.5h0c0.2,0,2.3,0,3,1.4
				c0,0.1,0.2,0.3,0.4,0.3c0.2,0,0.3-0.2,0.4-0.3c0.7-1.4,2.8-1.4,3-1.4h0c2.3,0,3.2-1.4,3.2-1.5l0,0c0.3-0.4,0.4-0.8,0.5-1.3
				c0.5-0.3,0.4-1.3,0.4-1.5c0.1,0.2,0.4,0.7,1,0.8c-0.1,0.5-0.1,1.3,0.5,1.4c0.2,0,0.3-0.2,0.3-0.4c0.5,1.3,0.1,2.1,0.4,2.2
				c0.4,0,0.5-0.8,0.5-0.8c0,0.1,0.2,0.3,0.2,0.6c0,0.4-0.1,0.8,0.1,0.9c0.6,0.1,0.3-1.7,0.8-1.5c-0.1,0.8,0,1.2,0.3,1.3
				c0,0.4,0,0.7-0.2,0.7c-0.9,0.2-1.7-0.5-2.4-0.3c-0.1,0-0.1-0.1-0.1-0.1c-1.4-0.7-2.3-0.2-2.3-0.3c-0.4-0.4-0.5,0.2-0.7,0.1
				c-0.7-0.4-1.1,0.3-1.3,0.3c-0.2,0-0.5-0.4-0.8,0.5c-0.2,0.4-1,0.5-1,0.5c-0.3,0-0.4-0.2-0.4-0.2c0-0.1-0.1-0.2-0.1-0.2
				c0-0.1-0.1-0.1-0.1-0.2c-0.1-0.1-0.2-0.1-0.3-0.1c-0.2,0-0.4,0.2-0.4,0.5c0,0.1,0,0.2,0.1,0.3c0,0,0.1-0.1,0.2-0.1
				c0.2,0,0.3,0.1,0.3,0.3v0c0,0.4-0.5,0.7-0.5,0.7c-0.3,0.3-0.7-0.1-0.7-0.1c-0.2-0.2-0.4-0.2-0.4-0.2c-0.2,0-0.3,0.3-0.3,0.3
				s-0.1-0.3-0.3-0.3c0,0-0.2,0-0.4,0.2c0,0-0.4,0.4-0.7,0.1c0,0-0.6-0.4-0.5-0.7v0c0-0.2,0.1-0.3,0.3-0.3c0.1,0,0.2,0.1,0.2,0.1
				c0.1-0.1,0.1-0.2,0.1-0.3c0-0.2-0.2-0.4-0.4-0.5c-0.1,0-0.2,0-0.3,0.1c0,0-0.1,0.1-0.1,0.2c0,0.1-0.1,0.1-0.1,0.2
				c0,0-0.1,0.2-0.4,0.2c-0.1,0-0.9-0.2-1-0.5C26.5,31.6,26.2,32,26,32c-0.2,0-0.6-0.7-1.3-0.3c-0.1,0.1-0.3-0.5-0.7-0.1
				c-0.1,0.1-0.8-0.4-1.9,0c-0.1-0.1-0.4-0.2-0.5-0.2c-0.2-0.1-0.4-0.2-0.6-0.3c-0.3-0.2-0.8-0.1-1.2-0.1c-0.1,0-0.3-0.1-0.5-0.2
				c-0.5-0.3-1-0.6-1.3-1c-0.1-0.1-0.2-0.2-0.2-0.2c-0.1-0.2-0.2-0.3-0.3-0.6c-0.2-0.6,0.1-1.2,0.2-1.7c0-0.3,0-0.4,0.1-0.5
				c-0.4,0.1-1,0.1-1.7-0.1c0.2,0.6,0.2,1.2,0.1,1.7c0.3,0.2,0.4,0.6,0.5,0.7c0,0.3-0.1,0.6,0.1,0.8c0.2,0.3,0.8,0.7,1.1,0.9
				c0.1,0.1,1.7,1.3,1.9,1.3c0.2,0,0.4-0.1,0.6-0.1c0.1,0,0.1,0.1,0.2,0.1c0,0,0.1,0.1,0.3,0.3c-0.5,0.3-1.1,0.7-1.5,0.9
				c0,0-0.7,0.4-0.4,0.4c0,0,0.5,0,0.5,0.1c0,0-0.2,0.1-0.5,0.2c0.7,0.3,1.5,0.5,2.3,0.7c0.5-0.5,1.1-1,1.7-1.2c0,0,0.9,0,1.2-0.6
				c0.1-0.2,0.5,0.4,1.2-0.1c0.1,0,0.2,0.2,0.4,0.2c0.1,0-0.3,0.1-0.2,0.4c0,0-0.6,0-0.8,0.4c-0.1,0.1-1.4,0.1-2.6,1.1
				c0.2,0.1,0.5,0.1,0.7,0.2c0.4-0.3,0.9-0.5,1.4-0.5c0,0,0.7,0,1.1,0.9c0.5,0.1,0.9,0.1,1.4,0.2c0,0,0,0,0,0
				c0.1-0.1,0.8-0.4,0.5-0.8c0,0-0.2-0.2-0.4,0.1c0,0-0.2,0.2-0.2-0.1c0,0,0-0.1-0.1-0.3c0,0-0.1-0.2,0.1-0.1c0,0,0.2,0.1,0.5,0
				c0.2,0,0.4-0.2,0.4-0.4c0-0.2-0.2-0.5-0.4-0.5c0,0-0.1,0-0.1,0c0,0,0.1,0.1,0.1,0.1c0,0.1-0.1,0.2-0.2,0.2
				c-0.3-0.1-0.2-0.6,0.2-0.6c0,0,0.3,0,0.6,0.3c0,0,0.6,0.9,1.2,1.1c0,0-0.1,0.3,0.3,0.4c0,0,0,0.3,0.4,0.3c0,0,0.1,0.1,0.2,0.3
				c0.3,0,0.6,0,1,0c0.3,0,0.7,0,1,0c0.1-0.2,0.2-0.3,0.2-0.3c0.4,0,0.3-0.3,0.4-0.3c0.4-0.1,0.2-0.4,0.3-0.4
				c0.6-0.2,1.2-1.1,1.2-1.1c0.3-0.3,0.6-0.3,0.6-0.3c0.4,0,0.4,0.5,0.2,0.6c-0.1,0-0.2-0.1-0.2-0.2c0-0.1,0-0.1,0.1-0.1
				c0,0,0,0-0.1,0c-0.2,0-0.4,0.2-0.4,0.5c0,0.2,0.2,0.4,0.4,0.4c0.2,0,0.5,0,0.5,0c0.3-0.1,0.1,0.1,0.1,0.1
				c-0.1,0.1-0.1,0.3-0.1,0.3c-0.1,0.2-0.2,0.1-0.2,0.1c-0.3-0.3-0.4-0.1-0.4-0.1c-0.3,0.4,0.4,0.7,0.5,0.8c0,0,0,0,0,0
				c0.5,0,0.9-0.1,1.4-0.2c0.3-0.9,1.1-0.9,1.1-0.9c0.6,0,1,0.2,1.4,0.5c0.2,0,0.5-0.1,0.7-0.2c-1.2-1-2.6-1-2.6-1.1
				c-0.2-0.4-0.9-0.3-0.8-0.4c0.1-0.3-0.3-0.4-0.2-0.4c0.2-0.1,0.3-0.3,0.4-0.2c0.8,0.4,1.1-0.1,1.2,0.1c0.3,0.6,1.2,0.6,1.2,0.6
				c0.6,0.2,1.2,0.7,1.7,1.2c0.7-0.2,1.4-0.4,2.1-0.6c0,0,0,0,0,0c0,0,0-0.1,0-0.1c0,0,0,0,0,0l0,0c0-0.1-0.1-0.1-0.1-0.2
				c-0.2-0.3-0.4-0.6-0.5-0.7c0,0,0,0,0,0c0,0,0,0,0,0c0,0,0.5-0.8,0.8-0.2c0,0.1,0,0.3-0.3,0.3c0,0,0.4,0.6,0.5,1c0,0,0,0,0,0
				c0.2-0.1,0.3-0.1,0.3-0.1c0,0,0.1,0,0.1,0c-0.2-0.4-0.5-0.6-0.4-0.7c0.1,0,0.4,0.1,0.5-0.1c0-0.1,0.1-0.3,0.1-0.6
				c0.2,0.1,0.4,0.1,0.5,0.1c0.5,0,0.7-0.8,0.6-1.1c0.1,0,0.4-0.3,0.4-0.2c0.2,0.4,1,0.8,0.9-0.1c0.1,0.4,0.2,0.9,0.7,0.8
				c0.3-0.1,0.1-0.7,0.2-0.7c0.1,0.2,0.2,0.8,0.8,0.7c0.2-0.1,0.3-0.2,0.3-0.4c0-0.6-1.8-4-2-5.5c0,0-0.1,0-0.1,0
				C45,25.8,45,25.5,45,25.3c0,0,0,0,0,0c-0.2,0-0.6-0.2-0.6-0.9c0-0.6,0.2-0.8,0.3-0.8c0,0,0,0,0,0.1c-0.1,0.4-0.2,1,0.1,1.2
				c0.1,0.1,0.2,0.1,0.3,0.1c0.1-0.2,0.2-0.3,0.3-0.3c0,0,0,0,0,0c-0.2,0.3-0.2,0.7,0,0.9c0.1,0.1,0.2,0.1,0.3,0.1
				c0.5-0.2,0.8-1.2,0.9-1.5c0.3,0.1-0.6,2.1,0.1,2.5c0.3,0,0.4-0.4,0.6-0.6c0.2,0.6-0.7,1.8,0,2.1c0.4,0.1,0.6-1,0.6-0.8
				c0.1,1.6-0.7,2.4-0.2,2.7c0.5,0.2,0.6-1.1,0.6-1c0,1.8-0.9,2.2-0.5,2.5c0.4,0.2,0.7-0.9,0.7-0.6c0,1.6-0.8,2-0.5,2.5
				c0.4,0.6,1.2-1,1.2-0.7c0,0.4-0.9,2.2-0.3,2.3c0.4,0.1,0.6-0.5,0.6-0.6c1.4-4.5,1.4-8.9,1.3-10.4c-0.1-2.3-0.3-4.4-0.9-6.3
				c-0.3-1.2-1-3.6-2.5-3.9c-0.7-0.2-1.3,0.5-1.3,1.1c0,0.5,0.4,0.8,0.2,1.3c-0.2,0.3-0.4,0.7-0.5,1.1c-0.1,0.4,0.2,0.5,0.1,0.9
				c-0.5-0.1-0.7,0.3-1.4,0.2c-0.6,0.3-1.3,0.1-1.3,0.1c0,0,0,0,0,0c0.7,0,1.3-0.2,1.5-0.6c0.1-0.5,0.1-1.2-0.3-1.4
				c-0.4,0.1-0.6,0.4-2,0.3c-1.1-0.1-1.4,0.1-1.6,0.8c-0.1-0.1-0.1-0.2-0.1-0.3c0-0.4,0.4-0.6,0.9-0.7c0.1-0.2,0.1-0.3,0.1-0.5
				c-0.2,0-0.3,0-0.6,0c-0.5,0.1-1.3,0.4-1.5,0.9c0,0.1,0,0.2,0,0.3c0,0.1,0,0.2,0,0.2c0,0.1,0,0.1,0.1,0.2c0.2,0.4,0.6,0.6,1.5,0.6
				c0,0,0,0,0,0c0,0-0.2,0.1-0.4,0c0,0-0.8,0-1.2-0.4c0,0-0.1,0.1-0.1,0.1c-0.2,0.2-0.7,0.5-1,0.5c-0.4,0-0.9-0.2-1-0.5
				c-0.5-0.7,0.2-2,0.2-2.5c0-1.3-1.8-0.7-2.4-0.4c-0.8,0.4-1.4,1-1.9,1.7c-0.3,0.3-0.6,0.7-0.7,1.1c0.2,0.1,0.9,0.4,1.4,0.4l0,0
				c0,0,0.1,0,0.2,0c0.3,0,0.8,0,1.1-0.3c0,0,0.2-0.2,0.4-0.2c0.2,0,0.3,0.1,0.4,0.2c0.1,0.1,1.2,0.9,1.5,1.2c0,0,0.2,0.1,0.2,0.3
				c0,0.1,0,0.2-0.1,0.4c-0.1,0.1-0.6,0.7-1,1.6c-0.1,0.1-0.1,0.3-0.1,0.4c-0.1,0.5-0.2,1.2,0.4,1.4c0,0,0.7,0.2,0.7-1
				c0,0,0.1,0.8,0.7,0.7c0.2,0,0.4-0.2,0.4-0.8c0,0,0,0,0,0c-0.1-0.5,0-1,0-1.7c0,0,0,0,0-0.1c0,0,0,0.1,0.1,0.3
				c0,0.3-0.2,3,2.1,4.9c0,0-0.9-0.5-1.6-1.6c-0.4,0.2-0.9,0.7-0.7,1.7c0.1,0.4,0.4,0.7,0.6,0.8c0,0,0,0,0,0c0,0-0.1,0.1-0.3-0.1h0
				c0,0-0.1-0.1-0.1-0.1c-0.1-0.1-0.1-0.2-0.2-0.3c-0.3-0.2-0.5-0.5-0.7-0.7l0,0c-0.2-0.4-0.1-1.5-1.2-1.5c0,0,0,0-0.1,0h0
				c-0.1,0-0.1,0-0.2,0c0,0,0,0,0,0c-0.3-1-0.2-1.6-0.2-1.7c0.2-1.4,1.2-2.5,1.3-2.7c0,0,0.1-0.1,0.1-0.2c0-0.1,0-0.1-0.1-0.1l0,0
				c-0.4-0.2-1.4-1.1-1.6-1.2l0,0c-0.1-0.1-0.2-0.1-0.3-0.1c-0.1,0-0.2,0.1-0.2,0.1c-0.4,0.4-1,0.4-1.3,0.4c-0.1,0-0.2,0-0.2,0h0
				c-0.6,0-1.4-0.4-1.5-0.5c-1.1-0.4-1.9-0.5-2-0.5c-0.1,0-1,0-2,0.5c-0.2,0.1-0.9,0.4-1.5,0.5h0c0,0-0.1,0-0.2,0
				c-0.3,0-0.8-0.1-1.3-0.4l0,0c0,0-0.1-0.1-0.2-0.1c-0.1,0-0.2,0-0.3,0.1l0,0c-0.1,0.1-1.2,0.9-1.6,1.2l0,0c0,0-0.1,0-0.1,0.1
				c0,0.1,0,0.1,0.1,0.2c0.1,0.1,1.1,1.3,1.3,2.7c0,0.1,0,0.3,0,0.6c-0.1-0.3-0.2-0.5-0.2-0.7c0-0.2-0.1-0.3-0.2-0.4l0,0
				c-0.1-0.2-0.4-0.4-0.6-0.5c-0.2-0.1-0.4-0.1-0.6-0.3c-0.3-0.2-0.6-0.4-0.8-0.8c0-0.7-0.4-1.2-0.4-1.2c0.1,0,0.5,0.3,0.6,1
				c0.5-0.5,0.8-1.3,0.9-2.2c0.4-0.5,1.5-0.3,1.9-0.3c0.1,0,0.3,0.1,0.4,0.1c0.1,0.1,0.1,0.3,0.3,0.3c0.2,0.1,0.4,0,0.6,0
				c0.1,0.1,0.1,0.2,0.2,0.3c0.1,0,0.1,0,0.1,0l0,0h0c0.6,0,1.4-0.4,1.5-0.4l0,0c0,0,0.1,0,0.1,0c-0.2-0.3-0.6-0.4-0.9-0.4
				c-0.4-0.1-0.6-0.4-1-0.5c-0.1,0-0.4-0.1-0.5,0c-0.9,0.1-1.5-0.2-2.2-0.3c-0.8-0.1-0.8,0.5-1.1,0.9c-0.1,0.2-0.2,0.3-0.4,0.5
				c-0.2,0.2-0.5,0.2-0.7,0.4c0,0,0,0,0,0c-0.1-0.3-0.2-0.7-0.4-1c0,0,0,0,0,0c0,0,0-0.1-0.1-0.1c-0.4-0.6-0.9-1.1-1.8-1.4
				c-0.2-0.1-0.2-0.1-0.3-0.2c-0.1-0.1,0-0.3,0-0.3c0.3-0.1,0.7-0.1,1-0.2c0.7-0.3,0.5-1,0.2-1c-0.4-0.1-1-0.2-1.2-0.3
				c-0.2-0.1-0.3-0.4-0.6-0.5c-0.2-0.1-0.4-0.1-0.6,0c-0.2,0-0.3,0.2-0.4,0.1c0.2-0.2,0.5-0.3,0.8-0.4c-0.3-0.1-0.2-0.6-0.5-0.7
				c-0.1,0-0.3,0-0.5,0.1c0-0.2-0.1-0.7-0.4-0.9c-0.2-0.1-0.3,0.1-0.3,0.2c0,0.1,0.4,0.3,0.4,0.8c-0.1,0-0.1,0.1-0.2,0.1
				c0-0.2-0.2-0.6-0.4-0.7c-0.2-0.1-0.3,0.1-0.3,0.2c0,0.1,0.3,0.3,0.4,0.7c-0.1,0.1-0.2,0.1-0.2,0.2c-0.5-0.1-0.6-0.5-0.7-0.5
				c-0.1,0-0.4,0-0.2,0.3c0.1,0.3,0.5,0.4,0.7,0.5c-0.1,0.1-0.1,0.1-0.2,0.2c-0.6-0.1-0.7-0.5-0.8-0.5c-0.1,0-0.4,0-0.2,0.3
				c0.2,0.3,0.7,0.5,0.9,0.5c-0.1,0.2-0.1,0.3-0.1,0.4c-0.4-0.1-1.2,0.2-1.1,0.7c0.1,0.1,0.7-0.3,1.1-0.1c0.3,0.5,0.8,0.5,0.9,0.6
				c0.2,0.1,0.2,0.4,0.3,0.6c0.1,0.4,0.4,0.8,0.7,1.1c0.3,0.4,0.6,0.8,0.8,1.2c0,0.1,0.1,0.2,0,0.4c-0.3,0.5-1.3,1.1-1.7,1.5
				c-0.4,0.4-4.2,3.3-4.7,4.5c-0.1,0.3-0.2,0.6-0.2,1c-0.2,0.1-0.6,0-0.8-0.1c-0.3-0.3,0.3-0.6,0.1-1c-0.1-0.2-0.3-0.2-0.4-0.2
				c-0.3,0.1-0.3,0.7-0.2,1c0,0.1,0.2,0.2,0.1,0.3c-0.1,0.1-0.2-0.1-0.2-0.3c-0.1,0.1-0.2,0.2-0.1,0.3c0.1,0.3,0.4,0.3,0.5,0.4
				c0,0.1-0.2,0.2-0.3,0.1c-0.2,0.3,0,0.4,0.1,0.4c0.2,0,0.5-0.2,0.6-0.2c0.1,0.2,0,0.2-0.3,0.3c0.4,0.5,0.7-0.3,1.1-0.2
				c0.1,0,1.3,1.1,1.1,2c0,0-0.1,0.2-0.1,0.2c-0.3,0.3-0.7,0.6-1,0.9c-0.6,0.4,0.6,2.9,0.5,4.2c-0.1,0.5,0.4,0.4,0.7,1.2
				c-0.3,0-0.6,0.1-0.8,0.3c0,0,0,0,0,0.1l0,0c-0.1,0.1-0.1,0.2-0.1,0.3c0,0.3,0.3,0.6,0.6,0.6c0.3,0,0.6-0.3,0.6-0.6
				c0,0,0-0.1,0-0.1c0.1,0,0.3,0,0.5,0.1l0.6,0.3c0,0-1.9,1.6-5.1,0.7c0,0-1.4-0.5-1-1.7c0,0,0.1-0.2,0.3-0.3c0,0.2,0.1,0.3,0.3,0.4
				c0.1,0.1,0.3,0.1,0.4,0.1c0.4,0,0.7-0.3,0.7-0.7c0-0.2-0.1-0.4-0.2-0.5c0,0-0.1-0.1-0.1-0.1c0,0,0,0,0,0c0,0,0,0,0,0
				c-0.2-0.1-0.5-0.2-1-0.1c0,0-1.4,0.4-0.9,1.9c0,0-0.9-0.2-1.3,0.2c0,0-0.1,0.1-0.1,0.4v0v0c0,0.1,0,0.2,0.1,0.3
				c0.1,0.1,0.3,0.2,0.4,0.2c0.2,0,0.3-0.1,0.4-0.2c0,0,0,0,0,0c0-0.1,0.1-0.1,0.3,0.1c0,0,1.3,1.4,3.2,1.2c0,0,0.1,1,0.7,1.2
				c0,0,0.1,0,0.1,0c0.2,0,0.3-0.2,0.3-0.3c0-0.2-0.1-0.3-0.3-0.3c0,0,0,0,0,0c0,0-0.1-0.3,0-0.5c0,0,2.1-0.3,3.5-1.4
				c0,0,1,0.3,1.6,0.3c0,0,0.1,0.2-0.3,0.3c0,0-0.5,0-0.5,0.2c0,0,0,0.2,0.4,0.2c0,0-0.1,0.2,0.3,0.4c0,0,0.2,0.1,0.1,0.3
				c0,0-0.4,0.2-0.3,0.5c0,0,0.1,0.3,0.7,0.2c0,0,0.2,0,0,0.2c0,0-0.3,0.3,0.2,0.6c0,0,0.4,0.2,0.6-0.2c0,0,0.1-0.2,0.3,0
				c0,0,1.2,0.6,1.9-0.4c0,0,0-0.1,0.2,0.1c0,0,0.6,0.8,2.4,0.8c0.1,0.2,0.3,0.3,0.6,0.3c0.3,0,0.6-0.2,0.6-0.5c0.2,0,1-0.1,1.8-0.6
				c0,0,0.3-0.2,0.6-0.3c0,0.5,0.4,0.9,0.9,0.9c0.5,0,0.9-0.4,0.9-0.9C28.6,39,28.2,38.6,27.8,38.5"/>
			<path class="st2" d="M36.3,26.5v2.1C36.7,27.7,36.5,27,36.3,26.5"/>
			<path class="st2" d="M40.4,15c0.1,0,0-0.3,0.2-0.3c0.2,0,0.6,0.2,0.7,0.4c0.1,0.3-0.2,0.9,0.7,1c0,0,0,0.1,0,0.3h0
				c0,0.2-0.1,0.3-0.1,0.5c0.1,0,0.1,0,0.2,0c1.1,0.1,1.8,0,2.1-0.4c0,0,0.2-0.2,0.3-0.4c0.3-0.6,0.3-1.1,0.2-1.6h0c0,0,0-0.1,0-0.1
				c0-0.1,0-0.1-0.1-0.2c-0.3-0.5-0.9-1-1.8-1.3c-0.1,0-0.1,0-0.2,0c0,0,0,0,0,0c0,0,0,0,0,0l0,0h0c0,0,0.2,0,0.2,0
				c0.6,0.1,1.7,0.7,1.9,1.3c0.2-0.1,0.4-0.5,0.4-0.8c0-0.1,0-0.4,0.1-0.8c0-0.1,0-0.2-0.1-0.3c-0.1,0-0.2,0-0.3,0.1
				c-0.2,0.3-0.5,0.1-0.4-0.2c0-0.1,0-0.2-0.1-0.3c-0.1,0-0.2,0-0.3,0.1c-0.1,0.3-0.5,0.1-0.4-0.2c0-0.1,0-0.2-0.1-0.3
				c-0.1,0-0.2,0-0.3,0.1c-0.2,0.3-0.5,0.1-0.4-0.2c0-0.1,0-0.2-0.1-0.3c-0.1,0-0.2,0-0.2,0.1c-0.1,0.2-0.2,0.4-0.3,0.5
				c0.7,0.1,1.4,0.5,1.9,1c0,0,0.2,0.2,0.2,0.3l0,0h0c0,0,0,0.1,0,0.1c0,0,0,0,0,0c-0.1-0.1-0.1-0.2-0.2-0.2c-0.8-0.6-1.4-0.9-2-1
				c-0.4,0-0.3,0.5-0.2,0.7c-0.6-0.1-1.1,0.3-1.1,0.8c0,0.2,0,0.3,0.1,0.5c0,0,0,0,0,0c0,0-0.1-0.1-0.2-0.2c0-0.1-0.1-0.2-0.1-0.3
				c-0.5,0-1,0.3-0.9,0.8C40,14.7,40.3,15,40.4,15 M42.2,14.3c0.1-0.2,0.2,0.5,0.7,0.3C42.5,15.1,42,14.6,42.2,14.3 M42.2,14
				c0.2-0.1,0.4-0.5,0.7-0.3c0.1,0.1,0.3,0.2,0.4,0.3c0.2,0.1,0.3,0.2,0.4,0.4c0.1,0.2-0.2,0.6-0.4,0.2c-0.2-0.3-0.4-0.8-0.8-0.6
				c-0.3,0.2-0.6,0.4-0.6,0.2C41.8,14,42.1,14,42.2,14 M40.7,14.1c-0.1,0.2-0.4,0.2-0.4,0.4C40.1,14.3,40.5,13.8,40.7,14.1"/>
			<path class="st2" d="M54.4,36.6c-0.4-0.4-1.3-0.2-1.3-0.2c0.5-1.5-0.9-1.9-0.9-1.9c-0.5-0.1-0.8,0-1,0.1c0,0,0,0,0,0c0,0,0,0,0,0
				c0,0-0.1,0.1-0.1,0.1c-0.1,0.1-0.2,0.3-0.2,0.5c0,0.4,0.3,0.7,0.7,0.7c0.2,0,0.3,0,0.4-0.1c0.1-0.1,0.2-0.3,0.3-0.4
				c0.2,0.1,0.3,0.3,0.3,0.3c0.4,1.3-1,1.7-1,1.7c-3.2,0.9-5.1-0.7-5.1-0.7l0.6-0.3c0.2-0.1,0.4-0.1,0.5-0.1c0,0,0,0.1,0,0.1
				c0,0.3,0.3,0.6,0.6,0.6c0.3,0,0.6-0.3,0.6-0.6c0-0.1,0-0.2-0.1-0.3l0,0c0,0,0-0.1,0-0.1c-0.4-0.6-1.6-0.2-1.6-0.2
				c0.4-1,0-1.8,0-1.8c-0.2-0.4-0.2-0.5-0.2-0.5c0-0.4-0.1-0.4-0.1-0.4c-0.2-0.3-0.5-0.1-0.5-0.1c-0.5,0.1-0.6-0.1-0.6-0.1
				c-0.4-0.3-0.6-0.1-0.6-0.1c-0.2,0.1,0.1,0.4,0.1,0.4c-0.5,0-0.6,0.6-0.6,0.6c-0.2,1,0.6,1,0.6,1c0.6,0,0.6-0.4,0.6-0.4
				c0.1-0.4-0.6-0.5-0.6-0.5c0.1-0.3,0.3-0.3,0.3-0.3c0.7-0.2,1,0.6,1,0.6c0.5,0.8-0.2,1.6-0.2,1.6c-0.1,0.1-0.2,0-0.2,0
				c-0.4-0.2-0.9-0.6-0.9-0.6c0,0,0,0,0,0h-0.2c-0.2,0-0.5,0.1-0.7,0.1c0.3,0.3,1.1,1,1.1,1c-0.6,0.5-1,0.2-1,0.2
				c-0.3-0.3-0.2-0.9-0.2-1.1c0,0,0,0-0.1,0c-0.3,0.1-0.6,0.2-0.9,0.4c0.3,0.5,0.8,1.3,0.8,1.3c-0.7,0.3-0.9-0.7-0.9-1.2
				c-0.1,0.1-0.3,0.1-0.4,0.2c0,0.1,0,0.2,0,0.2c0,0.5,0.5,1.2,0.5,1.2c-0.5-0.1-0.8,0.2-0.8,0.2c-0.3,0.3-0.3,0.7-0.3,0.8
				c0,0.2,0.2,0.3,0.4,0.3c0.2,0,0.4-0.2,0.4-0.4c0-0.2-0.2-0.4-0.3-0.4c0.2-0.4,0.5-0.1,0.5-0.1c0.6,0.5-0.3,1.1-0.3,1.1
				c-0.6,0.4-1.2-0.4-1.2-0.4c0.7-1.2,0.8-2,0.8-2.5c-0.2,0.1-0.5,0.2-0.7,0.2c0.3,1.1-0.4,1.7-0.4,1.7c-0.2-0.1-0.2-0.7-0.2-0.7
				c-0.1-0.2-0.1-0.5-0.2-0.7c-0.2,0.1-0.4,0.1-0.6,0.2c0.2,0.7,0.3,1.6,0.3,1.6c-0.1,0.1-0.5,0.2-0.5,0.2c-0.5,0-0.2-0.2-0.2-0.2
				c0.3-0.2,0.2-0.4,0.2-0.4c-0.2-0.4-0.7,0-0.7,0c-0.8,0.4-0.5,0.9-0.5,0.9c0.1,0.3,0.9,0.5,0.9,0.5c-0.4,0.3-1.2,0.2-1.3,0.2
				c0-0.2-0.2-0.4-0.4-0.4c0,0,0,0,0,0c-0.3,0-0.4,0.1-0.5,0.2c0,0-0.1,0.1-0.1,0.2l-0.5-0.1c-0.3,0-0.5-1-0.6-1.8
				c-0.1,0-0.3,0-0.4,0c0.1,0.9,0.3,1.6,0.3,1.6c-0.2,0-0.8-0.5-0.8-0.5c-0.8-0.5-1.4-0.4-1.5-0.3c-0.4,0.1-0.8,0.4-0.8,0.9
				c0,0.5,0.4,0.9,0.9,0.9c0.5,0,0.9-0.4,0.9-0.9c0.3,0.2,0.6,0.3,0.6,0.3c0.8,0.5,1.6,0.6,1.8,0.6c0.1,0.3,0.3,0.5,0.6,0.5
				c0.2,0,0.5-0.1,0.6-0.3c1.7-0.1,2.4-0.8,2.4-0.8c0.2-0.2,0.2-0.1,0.2-0.1c0.6,0.9,1.9,0.4,1.9,0.4c0.2-0.1,0.3,0,0.3,0
				c0.3,0.4,0.6,0.2,0.6,0.2c0.5-0.3,0.2-0.6,0.2-0.6c-0.2-0.2,0-0.2,0-0.2c0.6,0.1,0.7-0.2,0.7-0.2c0.1-0.3-0.3-0.5-0.3-0.5
				c-0.1-0.1,0.1-0.3,0.1-0.3c0.3-0.2,0.3-0.4,0.3-0.4c0.4,0,0.4-0.2,0.4-0.2c0-0.2-0.5-0.2-0.5-0.2c-0.4,0-0.3-0.3-0.3-0.3
				c0.6,0,1.6-0.3,1.6-0.3c1.4,1.1,3.5,1.4,3.5,1.4c0,0.2,0,0.5,0,0.5c0,0,0,0,0,0c-0.2,0-0.3,0.1-0.3,0.3c0,0.2,0.2,0.3,0.3,0.3
				c0,0,0.1,0,0.1,0c0.7-0.2,0.7-1.2,0.7-1.2c1.9,0.2,3.2-1.2,3.2-1.2c0.2-0.2,0.3-0.1,0.3-0.1c0,0,0,0,0,0c0.1,0.1,0.2,0.2,0.4,0.2
				c0.2,0,0.3-0.1,0.4-0.2c0.1-0.1,0.1-0.2,0.1-0.3v0v0C54.5,36.7,54.4,36.6,54.4,36.6"/>
			<path class="st2" d="M31.5,39c0.2-0.1,0.2-0.3,0.2-0.3c0-0.5-0.3-0.8-0.4-0.8c-0.2,0-0.5,0-0.7,0h0c-0.2,0-0.5,0-0.7,0
				c0,0-0.4,0.2-0.4,0.8c0,0,0,0.2,0.2,0.3c0,0-0.5,0.2-0.5,0.5c0,0-0.1,0.2,0.4,0.6c0,0,0.3,0.3,0.4,0.6c0,0,0,0.4,0.5,0.4
				c0.5,0,0.5-0.4,0.5-0.4c0.1-0.3,0.4-0.6,0.4-0.6c0.4-0.3,0.4-0.6,0.4-0.6C32,39.2,31.5,39,31.5,39"/>
			<polygon class="st2" points="35,36.9 35.3,36.9 35.1,36.6 			"/>
			<polygon class="st2" points="26.6,36.9 26.9,37 26.8,36.6 			"/>
			<path class="st2" d="M25.7,36.2C25.6,36.2,25.6,36.2,25.7,36.2l-0.1,0.4c0.1,0,0.1,0,0.2,0c0,0,0.1,0,0.1-0.1c0,0,0-0.1,0-0.1
				c0-0.1,0-0.1,0-0.2C25.8,36.3,25.7,36.3,25.7,36.2"/>
			<path class="st2" d="M29.3,36.5c-0.1,0-0.2,0-0.2,0.1c0,0.1-0.1,0.2-0.1,0.3c0,0.2,0,0.3,0.1,0.3c0,0.1,0.1,0.1,0.2,0.1
				c0.1,0,0.2,0,0.2-0.1c0-0.1,0.1-0.2,0.1-0.3c0-0.1,0-0.3-0.1-0.3C29.4,36.6,29.4,36.5,29.3,36.5"/>
			<path class="st2" d="M32.4,36.5c-0.1,0-0.1,0-0.2,0.1c0,0.1-0.1,0.2,0,0.3c0,0.2,0,0.3,0.1,0.3c0,0.1,0.1,0.1,0.2,0.1
				c0.1,0,0.2,0,0.2-0.1c0-0.1,0.1-0.2,0.1-0.3c0-0.1,0-0.3-0.1-0.3C32.6,36.6,32.5,36.5,32.4,36.5"/>
			<polygon class="st2" points="23.8,36.5 24.1,36.6 24,36.2 			"/>
			<path class="st2" d="M19,34.6L18.9,35l0,0c0.1,0,0.1,0,0.2,0c0,0,0.1-0.1,0.1-0.1c0-0.1,0-0.1,0-0.1c0,0,0-0.1-0.1-0.1
				C19.1,34.7,19.1,34.6,19,34.6"/>
			<path class="st2" d="M20.2,35c-0.1,0-0.2,0-0.2,0c-0.1,0.1-0.1,0.1-0.2,0.3c0,0.2-0.1,0.3,0,0.3c0,0.1,0.1,0.1,0.2,0.2
				c0.1,0,0.2,0,0.2,0c0.1,0,0.1-0.1,0.2-0.3c0-0.1,0.1-0.2,0-0.3C20.4,35.1,20.3,35.1,20.2,35"/>
			<path class="st2" d="M21.4,35.4C21.4,35.4,21.4,35.4,21.4,35.4l-0.1,0.4c0.1,0,0.1,0,0.2,0c0,0,0.1,0,0.1,0c0,0,0-0.1,0.1-0.1
				c0-0.1,0-0.1,0-0.2C21.5,35.4,21.5,35.4,21.4,35.4"/>
			<path class="st2" d="M40.2,35.4c0,0-0.1,0-0.2,0c0,0,0,0,0,0l0.1,0.4c0.1,0,0.1,0,0.2-0.1c0,0,0,0,0.1-0.1c0,0,0-0.1,0-0.1
				C40.3,35.5,40.2,35.4,40.2,35.4"/>
			<polygon class="st2" points="42.3,35.3 42.5,35.2 42.3,35 			"/>
			<path class="st2" d="M43.3,34c-0.1-0.1-0.2-0.1-0.4-0.1c-0.1,0-0.2,0-0.2,0c-0.5,0.1-4.8,2-12,2c-7.2,0-11.5-1.9-12-2
				c0,0-0.1,0-0.2,0c-0.1,0-0.3,0-0.3,0.1l-1.5,1.2h0c0.4,0,0.9,0.2,0.9,0.2c3.8,1.7,8.2,2.4,13.1,2.4c4.9,0,9.3-0.7,13.1-2.4
				c0,0,0.5-0.2,0.9-0.2h0L43.3,34z M29.3,36.1l0.3,0l-0.4,0.2h-0.1L29.3,36.1z M19.5,35c0,0.1-0.1,0.1-0.1,0.1c-0.1,0-0.1,0-0.2,0
				c-0.1,0-0.1,0-0.2-0.1l-0.1,0l-0.1,0.2c0,0,0,0.1,0,0.1c0,0,0,0,0.1,0.1l0,0l0,0.1l-0.5-0.2l0-0.1l0,0c0.1,0,0.1,0,0.1,0
				c0,0,0,0,0.1-0.1l0.2-0.6c0,0,0-0.1,0-0.1c0,0,0,0-0.1-0.1l0,0l0-0.1l0.4,0.1c0.1,0,0.2,0.1,0.2,0.1c0.1,0,0.1,0.1,0.1,0.1
				c0,0,0.1,0.1,0.1,0.1C19.5,34.9,19.5,35,19.5,35 M20.6,35.6c0,0.1-0.1,0.2-0.3,0.3c-0.1,0.1-0.3,0.1-0.4,0
				c-0.1,0-0.2-0.1-0.3-0.2c-0.1-0.1-0.1-0.2-0.1-0.3c0-0.1,0-0.2,0-0.3c0-0.1,0.1-0.2,0.2-0.2c0.1-0.1,0.2-0.1,0.3-0.1
				c0.1,0,0.2,0,0.3,0c0.2,0.1,0.3,0.1,0.4,0.3C20.7,35.3,20.7,35.5,20.6,35.6 M21.7,36.1c0,0.1,0.1,0.2,0.1,0.2c0,0,0,0,0.1,0
				l0,0.1l-0.3-0.1c0,0,0-0.1-0.1-0.3c0-0.1,0-0.1,0-0.2c0,0,0,0,0-0.1c0,0,0,0-0.1,0l-0.1,0.2c0,0,0,0.1,0,0.1c0,0,0,0,0.1,0.1l0,0
				l0,0.1l-0.5-0.1l0-0.1l0,0c0.1,0,0.1,0,0.1,0c0,0,0,0,0-0.1l0.2-0.6c0,0,0-0.1,0-0.1c0,0,0,0-0.1-0.1l0,0l0-0.1l0.4,0.1l0.1,0
				c0.1,0,0.2,0,0.2,0.1c0,0,0.1,0,0.1,0.1c0,0,0.1,0.1,0.1,0.1c0,0,0,0.1,0,0.1c0,0.1-0.1,0.2-0.3,0.2C21.6,35.9,21.6,36,21.7,36.1
				 M23.4,36.8l-0.9-0.2l0-0.1h0c0,0,0.1,0,0.1,0c0,0,0,0,0-0.1l0.1-0.6c0,0,0-0.1,0-0.1c0,0,0,0-0.1,0l0,0l0-0.1l0.5,0.1l0,0.1l0,0
				c0,0-0.1,0-0.1,0c0,0,0,0,0,0.1l-0.1,0.6c0,0,0,0.1,0,0.1c0,0,0,0,0,0c0,0,0.1,0,0.1,0c0.1,0,0.2,0,0.2,0c0.1,0,0.1-0.1,0.1-0.2
				l0.1,0L23.4,36.8z M24.5,37L24,36.9l0-0.1c0,0,0.1,0,0.1,0c0,0,0,0,0,0c0,0,0,0,0-0.1l0,0l0-0.1l-0.3-0.1l0,0c0,0,0,0.1,0,0.1
				c0,0,0,0,0,0.1c0,0,0,0,0.1,0l0,0.1l-0.3-0.1l0-0.1c0.1,0,0.1,0,0.2-0.1l0.5-0.7l0.1,0l0.2,0.8c0,0.1,0,0.1,0.1,0.2
				C24.5,36.9,24.5,36.9,24.5,37L24.5,37z M26.2,37.3l-0.3,0c0,0-0.1-0.1-0.1-0.3c0-0.1-0.1-0.1-0.1-0.1c0,0,0,0,0,0
				c0,0-0.1,0-0.1,0l0,0.2c0,0,0,0.1,0,0.1c0,0,0,0,0.1,0h0l0,0.1l-0.6-0.1l0-0.1l0,0c0.1,0,0.1,0,0.1,0c0,0,0,0,0-0.1l0.1-0.6
				c0,0,0-0.1,0-0.1c0,0,0,0-0.1,0l0,0l0-0.1l0.4,0.1l0.1,0c0.1,0,0.2,0,0.2,0c0,0,0.1,0,0.1,0.1c0,0,0.1,0.1,0.1,0.1
				c0,0,0,0.1,0,0.1c0,0.1-0.1,0.2-0.2,0.2c0,0,0.1,0.1,0.1,0.2c0,0.1,0.1,0.2,0.1,0.2C26.2,37.2,26.2,37.2,26.2,37.3L26.2,37.3z
				 M27.3,37.4l-0.5,0l0-0.1c0,0,0.1,0,0.1,0c0,0,0,0,0,0c0,0,0,0,0-0.1l0,0l0-0.1l-0.3,0l0,0c0,0,0,0.1,0,0.1c0,0,0,0,0,0.1
				c0,0,0,0,0.1,0l0,0.1l-0.3,0l0-0.1c0.1,0,0.1,0,0.2-0.1l0.4-0.8l0.1,0l0.2,0.8c0,0.1,0,0.1,0.1,0.1
				C27.3,37.3,27.3,37.3,27.3,37.4L27.3,37.4z M28.4,36.5l-0.6,0.8l0.2,0c0.1,0,0.1,0,0.1,0c0,0,0.1,0,0.1-0.1c0,0,0.1-0.1,0.1-0.1
				l0.1,0l0,0.3l-0.9-0.1l0-0.1l0.6-0.8l-0.2,0c-0.1,0-0.2,0-0.2,0c0,0-0.1,0.1-0.1,0.1l-0.1,0l0-0.3L28.4,36.5L28.4,36.5z
				 M29.7,37.4c-0.1,0.1-0.2,0.1-0.4,0.1c-0.1,0-0.2,0-0.3-0.1c-0.1-0.1-0.2-0.1-0.2-0.2c0-0.1-0.1-0.2,0-0.3c0-0.1,0-0.2,0.1-0.3
				c0.1-0.1,0.1-0.1,0.2-0.2c0.1,0,0.2-0.1,0.3-0.1c0.2,0,0.3,0.1,0.4,0.2c0.1,0.1,0.1,0.2,0.1,0.4C29.8,37.1,29.8,37.3,29.7,37.4
				 M31.2,36.6C31.1,36.6,31.1,36.6,31.2,36.6c-0.1,0-0.1,0.1-0.1,0.1c0,0,0,0.1,0,0.1l0,0.8h-0.1l-0.7-0.8v0.5c0,0.1,0,0.1,0,0.1
				c0,0,0.1,0,0.1,0v0.1H30v-0.1c0,0,0.1,0,0.1,0c0,0,0,0,0-0.1c0,0,0-0.1,0-0.1l0-0.5c0-0.1,0-0.2-0.1-0.2v-0.1l0.3,0l0.6,0.6
				l0-0.4c0-0.1-0.1-0.2-0.1-0.2v-0.1L31.2,36.6L31.2,36.6z M32.9,37.3c-0.1,0.1-0.2,0.2-0.4,0.2c-0.1,0-0.2,0-0.3-0.1
				c-0.1,0-0.2-0.1-0.2-0.2c0-0.1-0.1-0.2-0.1-0.3c0-0.1,0-0.2,0.1-0.3c0-0.1,0.1-0.2,0.2-0.2c0.1,0,0.2-0.1,0.3-0.1
				c0.2,0,0.3,0,0.4,0.1c0.1,0.1,0.2,0.2,0.2,0.4C33,37.1,33,37.2,32.9,37.3 M33.7,37.4L33.7,37.4L33.7,37.4
				c0.1-0.1,0.1-0.1,0.1-0.1c0,0,0-0.1,0-0.1l0-0.6c0,0,0-0.1,0-0.1c0,0,0,0-0.1,0l0,0l0-0.1l0.5,0l0,0.1l0,0c-0.1,0-0.1,0-0.1,0
				c0,0,0,0.1,0,0.1l0.1,0.6c0,0,0,0.1,0,0.1c0,0,0,0,0,0c0,0,0.1,0,0.1,0c0.1,0,0.2,0,0.2-0.1c0,0,0.1-0.1,0.1-0.2l0.1,0l0,0.3
				L33.7,37.4z M35.3,37.3L35.3,37.3c0-0.1,0.1-0.1,0.1-0.1c0,0,0,0,0,0c0,0,0,0,0,0l0,0l0-0.1L35,37l0,0.1c0,0,0,0.1,0,0.1
				c0,0,0,0,0,0c0,0,0,0,0.1,0l0,0.1l-0.3,0l0-0.1c0.1,0,0.1-0.1,0.1-0.2l0.2-0.8l0.1,0l0.4,0.8c0,0.1,0.1,0.1,0.1,0.1
				c0,0,0.1,0,0.1,0l0,0.1L35.3,37.3z M37.1,36.2c0,0,0-0.1-0.1-0.1c0,0,0,0-0.1,0c0,0-0.1,0-0.1,0l-0.2,0l0.1,0.4l0.1,0
				c0,0,0.1,0,0.1,0c0,0,0-0.1,0-0.1L37.1,36.2l0,0.4l-0.1,0c0-0.1,0-0.1,0-0.1c0,0,0,0-0.1,0l-0.1,0l0,0.3c0,0,0,0.1,0,0.1
				c0,0,0.1,0,0.1,0l0,0l0,0.1l-0.5,0.1l0-0.1l0,0c0.1,0,0.1,0,0.1,0c0,0,0-0.1,0-0.1l-0.1-0.6c0,0,0-0.1,0-0.1c0,0-0.1,0-0.1,0l0,0
				l0-0.1l0.8-0.1L37.1,36.2L37.1,36.2z M38.3,36l0.1,0.3c0,0.1,0,0.1,0,0.2c0,0,0,0.1,0,0.1c0,0.1-0.1,0.1-0.1,0.1
				c-0.1,0-0.1,0.1-0.2,0.1c-0.1,0-0.1,0-0.2,0c-0.1,0-0.1,0-0.2-0.1c0,0-0.1-0.1-0.1-0.1c0,0,0-0.1,0-0.2l-0.1-0.4c0,0,0-0.1,0-0.1
				c0,0-0.1,0-0.1,0l0-0.1l0.5-0.1l0,0.1l0,0c0,0-0.1,0-0.1,0c0,0,0,0.1,0,0.1l0.1,0.4c0,0.1,0,0.1,0.1,0.2c0,0,0,0.1,0.1,0.1
				c0.1,0,0.1,0,0.2,0c0.1,0,0.1,0,0.1-0.1c0,0,0.1-0.1,0.1-0.1c0,0,0-0.1,0-0.2L38.3,36c-0.1-0.1-0.2-0.1-0.3-0.1l0-0.1l0.4-0.1
				l0,0.1c0,0,0,0-0.1,0C38.3,35.9,38.3,35.9,38.3,36C38.2,35.9,38.2,36,38.3,36 M38.7,36.7L38.7,36.7L38.7,36.7
				c0-0.1,0.1-0.1,0.1-0.1c0,0,0-0.1,0-0.1l-0.1-0.6c0,0,0-0.1,0-0.1c0,0,0,0-0.1,0l0,0l0-0.1l0.9-0.2l0.1,0.3l-0.1,0
				c0,0-0.1-0.1-0.1-0.1c0,0,0,0-0.1,0c0,0-0.1,0-0.1,0l-0.2,0L39,36l0.1,0c0,0,0.1,0,0.1,0c0,0,0-0.1,0-0.1l0.1,0l0.1,0.3l-0.1,0
				c0,0,0,0,0,0c0,0,0-0.1,0-0.1c0,0-0.1,0-0.1,0l-0.1,0l0.1,0.2c0,0.1,0,0.1,0,0.1c0,0,0,0,0.1,0c0,0,0.1,0,0.1,0
				c0.1,0,0.1,0,0.1-0.1c0,0,0-0.1,0.1-0.1c0,0,0-0.1,0-0.1l0.1,0l0.1,0.3L38.7,36.7z M40.6,36.2c0,0-0.1-0.1-0.2-0.2
				c-0.1-0.1-0.1-0.1-0.1-0.1c0,0,0,0-0.1,0c0,0-0.1,0-0.1,0l0.1,0.2c0,0,0,0.1,0,0.1c0,0,0.1,0,0.1,0l0,0l0,0.1l-0.5,0.1l0-0.1l0,0
				c0,0,0.1,0,0.1-0.1c0,0,0-0.1,0-0.1l-0.2-0.6c0,0,0-0.1,0-0.1c0,0-0.1,0-0.1,0l0,0l0-0.1l0.4-0.1l0.1,0c0.1,0,0.2,0,0.2,0
				c0,0,0.1,0,0.1,0c0.1,0,0.1,0,0.1,0.1c0,0,0.1,0.1,0.1,0.1c0,0.1,0,0.2-0.1,0.3c0,0,0.1,0.1,0.2,0.2c0.1,0.1,0.1,0.1,0.2,0.1
				c0,0,0.1,0,0.1,0l0,0.1L40.6,36.2z M41.1,36.1L41.1,36.1l0.3-1.1l-0.2,0.1c-0.1,0-0.2,0.1-0.2,0.1c0,0,0,0.1,0,0.2l-0.1,0
				l-0.1-0.3l0.8-0.3l0,0.1l-0.3,1l0.2-0.1c0.1,0,0.1,0,0.1-0.1c0,0,0-0.1,0.1-0.1c0,0,0-0.1,0-0.1l0.1,0l0.1,0.3L41.1,36.1z
				 M42.6,35.5L42.6,35.5c0-0.1,0-0.1,0-0.1c0,0,0,0,0,0c0,0,0,0,0,0l0,0l-0.1-0.1l-0.3,0.1l0,0.1c0,0,0,0.1,0,0.1c0,0,0,0,0,0
				c0,0,0,0,0.1,0l0,0.1l-0.3,0.1l0-0.1c0.1,0,0.1-0.1,0.1-0.2l0-0.9l0.1,0l0.6,0.6c0.1,0.1,0.1,0.1,0.1,0.1c0,0,0.1,0,0.1,0l0,0.1
				L42.6,35.5z"/>
			<path class="st2" d="M26.1,19.7c-0.2-0.1-0.4-0.3-0.6-0.3c-0.1,0.1-0.3,0.2-0.5,0.3H26.1z"/>
			<path class="st2" d="M28.7,19.5c-0.1,0-0.3,0.1-0.5,0.2c0,0,0,0-0.1,0h4.6c0,0-0.1,0-0.1,0c-0.2-0.1-0.4-0.2-0.5-0.2
				c0,0,0,0-0.1,0c-0.2-0.1-0.4-0.2-0.6-0.2h-2.3C29.2,19.3,29,19.4,28.7,19.5C28.7,19.5,28.7,19.5,28.7,19.5"/>
			<path class="st2" d="M35.6,19.4C35.6,19.4,35.6,19.4,35.6,19.4c-0.1,0.1-0.3,0.2-0.5,0.3h1C36,19.6,35.8,19.5,35.6,19.4
				C35.7,19.4,35.7,19.4,35.6,19.4"/>
			<path class="st2" d="M24.9,28.6v-2.4C24.7,26.7,24.4,27.7,24.9,28.6"/>
			<polygon class="st2" points="30.5,24.6 26,23.2 29.5,23.2 			"/>
			<path class="st2" d="M30.5,20h-5.9c0,0,0,0,0,0c0,0.1,0,0.1,0.1,0.2c0,0,0.1,0.1,0.2,0.3h5.5L30.5,20z"/>
			<path class="st2" d="M30.2,20.8h-5.2c0.1,0.1,0.2,0.3,0.3,0.5h4.8L30.2,20.8z"/>
			<path class="st2" d="M30,21.6h-4.5c0.1,0.2,0.1,0.3,0.2,0.5h4.2L30,21.6z"/>
			<path class="st2" d="M29.7,22.4h-4.1c0,0.2,0.1,0.3,0.1,0.5h3.8L29.7,22.4z"/>
			<path class="st2" d="M27.1,24h-1.4c0,0.1-0.1,0.3-0.1,0.5h2.2L27.1,24z"/>
			<path class="st2" d="M26.7,23.7L26,23.2h-0.3v0c0,0.1,0,0.2,0,0.4H26.7z"/>
			<path class="st2" d="M30.5,20L30.5,20L30.5,20l0,0.5v0.3v0.5v0.3v0.5v0.3v0.5v1.7l4.4-1.4h-3.5l-0.1-0.3h3.9c0-0.2,0-0.3,0.1-0.5
				h-4.1l-0.1-0.3h4.3c0.1-0.2,0.1-0.3,0.2-0.5H31l-0.1-0.3h4.9c0.1-0.2,0.2-0.3,0.3-0.5h-5.3l-0.1-0.3h5.6c0.2-0.2,0.3-0.4,0.3-0.4
				c0,0,0,0,0-0.1H30.5z"/>
			<path class="st2" d="M31.5,27.1v3.6c0.2-0.1,0.3-0.2,0.5-0.2v-2.9L31.5,27.1z"/>
			<path class="st2" d="M30.7,26.5v5.1c0.1-0.1,0.1-0.2,0.2-0.3l0,0c0.1-0.1,0.2-0.3,0.3-0.4v-4.1L30.7,26.5z"/>
			<path class="st2" d="M29.9,26.7v4.1c0.2,0.1,0.3,0.3,0.4,0.5l0,0c0,0,0,0.1,0.1,0.1v-5.1L29.9,26.7z"/>
			<path class="st2" d="M29.2,27.3v3.1c0.2,0.1,0.3,0.1,0.5,0.2V27L29.2,27.3z"/>
			<path class="st2" d="M32.3,30.3c0.2,0,0.3-0.1,0.5-0.1v-2.1l-0.5-0.4V30.3z"/>
			<path class="st2" d="M28.4,30.2c0.1,0,0.3,0.1,0.5,0.1v-2.7l-0.5,0.4V30.2z"/>
			<path class="st2" d="M30.5,24.6l-1.6,0.6l-0.6-0.4h-2.7c0,0.2-0.1,0.3-0.2,0.5h0h0c0,0.1-0.1,0.2-0.2,0.4v3.5
				c0.1,0.1,0.3,0.3,0.5,0.4v-4.3H26v4.5c0.1,0.1,0.3,0.1,0.5,0.2v-4.7h0.3V30c0.1,0,0.3,0.1,0.5,0.1v-4.9h0.3v4.9
				c0.1,0,0.1,0,0.2,0c0,0,0.1,0,0.3,0v-2l-0.3,0.2L30.5,24.6z M28.1,25.2h0.3v1.4l-0.3,0.9V25.2z"/>
			<path class="st2" d="M35.6,25.2L35.6,25.2c-0.1-0.2-0.1-0.3-0.2-0.5h-2.7l-0.6,0.4l-1.2-0.4l-0.4-0.2l2.6,3.7v1.8
				c0.2,0,0.3,0,0.4,0c0,0,0.1,0,0.1,0v-4.9h0.3v4.9c0.2,0,0.3,0,0.5-0.1v-4.8h0.3V30c0.2-0.1,0.3-0.1,0.5-0.2v-4.6h0.3v4.4
				c0.2-0.1,0.3-0.2,0.4-0.4c0,0,0,0,0-0.1V26C35.8,25.7,35.7,25.5,35.6,25.2 M33.1,28.2l-0.3-0.9v-2h0.3V28.2z"/>
			<path class="st2" d="M33.1,24.5h2.2c0-0.2-0.1-0.3-0.1-0.5h-1.4L33.1,24.5z"/>
			<path class="st2" d="M34.9,23.2l-0.7,0.5h1c0-0.2,0-0.3,0-0.3c0,0,0-0.1,0-0.1H34.9z"/>
			<path class="st2" d="M37.5,13.8c0.1,0,0.3,0,0.4,0c1.5-0.4,1.5-2.2,1.3-2.3c0,0,0,0,0,0c0,0.1-0.1,0.2-0.1,0.3
				c-0.1,0.2-0.2,0.3-0.2,0.3c0,0,0,0,0,0c0.3-0.6,0.3-1,0.1-1.6c-0.1-0.3-0.3-0.6-0.6-0.8c-0.7-0.5-2.2-0.6-3,0
				c-0.3-0.3-0.6-0.5-1.1-0.6c-0.1,0.5-0.6,1.1-1,1.4c-0.1,0.1-0.3,0.2-0.4,0.2c0,0-0.1,0,0-0.1c0.8-0.5,1.2-1.1,1.2-1.8v0
				c0-0.4-0.1-1.1-0.6-1.6c-0.7-0.8-2.7-0.9-3.5-0.2c-0.2,0.2-0.4,0.5-0.5,0.9c0.1-0.3,0.3-0.5,0.7-0.7c0.4-0.1,1.1,0,1.3,0.4
				c-0.7-0.7-1.9-0.2-2,1v0c0,0.1-0.1,0.1-0.1,0.1h0c0,0-0.1,0-0.1-0.5c0-0.3,0.1-0.7,0.3-1.1c-1.5-0.3-3.3,0.5-3.2,2.7
				c0,0.3,0.1,0.6,0.4,0.9c0.1,0.1,0,0.1,0,0.1c0,0-0.2-0.1-0.3-0.3c-0.1-0.2-0.3-0.5-0.3-0.7c-0.9-0.3-1.5-0.3-2-0.3
				c-0.5,0.1-1.3,0.5-1.5,0.9c-0.1,0.1-0.2,0.4-0.3,0.5c-0.2,0.4-0.3,0.8-0.3,1.3c0.1,0.9,0.5,1.6,1.1,1.9c0.9,0.5,2,0.4,2.4,0.4
				c0.2,0,0.4-0.1,0.7-0.3c0,0,0.1,0,0.1-0.1c0,0,0,0,0,0c0.3-0.3,0.6-0.8,0.5-1.4c0,0,0,0,0,0c0,0,0.1,0.2,0.1,0.4
				c0,0.2-0.1,0.5-0.2,0.7c0,0,0,0.1,0,0.1c0,0.1,0,0.2,0.1,0.2c0.2,0.2,0.6,0.2,0.9,0.1c0,0,0,0,0,0c0,0-0.2,0.3-0.6,0.3
				c-0.1,0-0.2,0-0.2,0c0.2,0.4,0.8,0.6,1.5,0.6c0,0,0,0,0,0c0,0-0.2,0.1-0.4,0.1c-0.3,0-0.6-0.1-0.9-0.2c0.3,0.4,0.8,0.7,1.7,0.8
				c0,0.1-0.7,0-0.9,0c0.4,1.6,1.3,1.4,1.3,1.5c-0.3,0.1-0.4,0.4-0.3,0.7c0.9-0.3,1.6-0.4,1.8-0.4c0.2,0,0.9,0,1.8,0.4
				c0.1-0.1,0.1-0.3,0.1-0.4c-0.1-0.4-1.4-0.7-2.5-0.4c0,0-0.1,0-0.2,0.1c0,0,0,0,0,0c0,0,0,0,0,0l0,0l0,0c0,0,0.2-0.1,0.2-0.1
				c0.5-0.3,1.6-0.4,2.1-0.1c0,0,0,0,0,0c0.5,0.2,0.9-0.4,0.8-0.7c0.4,0,0.6-0.2,0.7-0.6c-0.1,0-0.1,0.1-0.2,0.1l0,0
				c-0.1,0.1-0.3,0.1-0.3,0.1c0,0,0,0,0,0l0,0c0,0,0,0,0,0c0,0,0,0,0,0c0.1,0,0.1-0.1,0.2-0.1c0.7-0.4,1-1.2,0.9-1.4
				c-0.1,0.1-0.3,0.3-0.5,0.3c-0.1,0-0.2,0-0.2,0c0,0,0,0,0,0c0.1,0,0.2,0,0.2-0.1c0.2-0.2,0.5-0.5,0.6-0.7
				c-0.4-0.4-0.6-0.9-0.8-1.5C33.5,12.3,33.3,12,33,12c0,0-0.1,0-0.1,0c0,0-0.1,0-0.1,0c0,0,0,0,0,0c0.3-0.3,0.7,0,0.9,0.1
				c0-0.6,0.2-0.8,0.3-0.7c0,0,0,0,0,0c-0.4,1.2,0.4,2.4,1,2.8c0.9,0.5,2.4,0.5,3.4-0.3c-0.2,0.1-0.4,0.1-0.6,0.1
				C37.6,13.9,37.5,13.9,37.5,13.8C37.5,13.8,37.5,13.8,37.5,13.8 M23.6,13.8c0.5-0.1,1-0.4,0.9-0.9c0-0.1-0.2-0.3-0.4-0.3
				c-0.3,0-0.5,0.2-0.7,0.4c0-0.5,0.3-0.8,0.8-0.7c0.3,0,0.6,0.3,0.7,0.5C25.1,13.5,24.4,13.8,23.6,13.8 M25.6,13.2
				c0.2-0.6,0.3-1.6-0.6-1.8c-0.8-0.2-1.5,0.4-1.8,0.7c0.2-0.7,1-1.2,2-1c-0.2-0.6-1-0.8-1.9-0.4c-0.2,0.1-0.4,0.3-0.5,0.4
				c0.2-0.5,0.5-0.8,1-0.9c0.7-0.2,1.4,0,1.7,0.4C26.5,11.6,25.9,13.1,25.6,13.2 M30.7,16.5c-0.5,0-0.5-0.3-0.6-0.7
				c0.2,0.2,0.5,0.4,0.5,0c-0.2-0.1-1.2-0.4-0.9-0.9c0.2-0.2,0.7,0.7,0.9,0.4c0.1-0.7-2-0.9-1.9-1.4c0-0.3,1.6,0.8,1.8,0.8
				c0-0.3-2.4-1.3-3.1-2.6c-0.1-0.1-0.1-0.2-0.1-0.2c0,0,0,0,0,0c0.4,0.7,1.6,1.6,3,2C30.8,14.1,31.1,15.7,30.7,16.5 M31.2,16.9
				c-0.2,0-0.1-0.3-0.1-0.4c0-0.7,0-1.3-0.2-1.9c-0.1-0.3-0.3-1.2-0.9-2.3c0.2,0.3,1.1,1.7,1.3,2.7C31.4,15.6,31.5,16.4,31.2,16.9
				 M31.9,12.8c0.4,0.2-0.2,1-0.3,1.2c0.1,0,0.4-0.4,0.6-0.3c0.2,0.2-0.5,1.1-0.6,1.1C30.7,13.6,31.9,13.3,31.9,12.8 M31.8,16.5
				c-0.1-0.1-0.1-0.3-0.1-0.4c0-0.3,0.4-0.5,0.6-0.6C32.3,15.4,32.3,16,31.8,16.5 M31.7,15.6c-0.2-0.3,0.3-0.7,0.4-1.1
				C32.7,14.5,32,15.5,31.7,15.6 M32.2,7.1c0,0,0.9,0.2,1,1c0,0.5-0.2,0.6-0.3,0.6c0,0,0,0,0-0.1c0.1-0.3,0.1-0.9-0.2-1.2
				C32.6,7.2,32.3,7.1,32.2,7.1 M37.3,12C37.3,12,37.3,12,37.3,12C37.3,11.9,37.3,11.9,37.3,12c0-0.1,0-0.2,0-0.2c0-0.2,0-0.4,0-0.6
				c-0.2-1-1-1.3-1.6-0.7c0,0,0.6-1.2,2-0.7c0.3,0.1,0.6,0.4,0.8,0.8c0.2,0.4,0.1,0.8,0,1c0,0,0,0,0,0c0,0,0,0,0,0
				c0-0.2,0-0.6-0.2-0.9c-0.1-0.2-0.2-0.4-0.5-0.5c0.1,0.2,0.2,0.4,0.3,0.5c0.1,0.2,0.1,0.3,0.1,0.4c0,0.4-0.2,0.9-0.4,1.1
				c0,0,0,0,0,0c0,0,0,0,0,0c0.2-0.5,0.2-1,0.1-1.4c0,0,0-0.1-0.1-0.1c-0.2-0.3-0.4-0.6-0.9-0.6c0.2,0.1,0.4,0.4,0.5,0.6
				C37.6,11.1,37.6,11.7,37.3,12"/>
			<path class="st2" d="M50.8,24.1c-0.1-2.3-0.3-4.4-0.9-6.3c-0.3-1.2-1-3.6-2.5-3.9c-0.7-0.2-1.3,0.5-1.3,1.1
				c0,0.5,0.4,0.8,0.2,1.3c-0.2,0.3-0.4,0.7-0.5,1.1c-0.1,0.4,0.2,0.5,0.1,0.9c-0.5-0.1-0.7,0.3-1.4,0.2c-0.6,0.3-1.3,0.1-1.3,0.1
				c0,0,0,0,0,0c0.7,0,1.3-0.2,1.5-0.6c0.1-0.5,0.1-1.2-0.3-1.4c-0.4,0.1-0.6,0.4-2,0.3c-1.1-0.1-1.4,0.1-1.6,0.8
				c-0.1-0.1-0.1-0.2-0.1-0.3c0-0.4,0.4-0.6,0.9-0.7c0.1-0.2,0.1-0.3,0.1-0.5c-0.2,0-0.3,0-0.6,0c-0.5,0.1-1.3,0.4-1.5,0.9
				c0,0.1,0,0.2,0,0.3c0,0.1,0,0.2,0,0.2c0,0.1,0,0.1,0.1,0.2c0.2,0.4,0.6,0.6,1.5,0.6c0,0,0,0,0,0c0,0-0.2,0.1-0.4,0
				c0,0-0.8,0-1.2-0.4c0,0-0.1,0.1-0.1,0.1c-0.2,0.2-0.7,0.5-1,0.5c-0.4,0-0.9-0.2-1-0.5c-0.5-0.7,0.2-2,0.2-2.5
				c0-1.3-1.8-0.7-2.4-0.4c-0.8,0.4-1.4,1-1.9,1.7c-0.3,0.3-0.6,0.7-0.7,1.1c0.2,0.1,0.9,0.4,1.4,0.4l0,0c0,0,0.1,0,0.2,0
				c0.3,0,0.8,0,1.1-0.3c0,0,0.2-0.1,0.4-0.1c0.2,0,0.3,0.1,0.4,0.2c0.1,0.1,1.2,0.9,1.5,1.2c0,0,0.2,0.1,0.2,0.3
				c0,0.1,0,0.2-0.1,0.4c-0.1,0.1-0.6,0.7-1,1.6c0,0.1-0.1,0.3-0.1,0.4c-0.1,0.5-0.2,1.2,0.4,1.4c0,0,0.7,0.2,0.7-1
				c0,0,0.1,0.8,0.7,0.7c0.2,0,0.4-0.2,0.4-0.8l0,0c-0.1-0.5,0-1,0.1-1.7c0,0,0,0,0-0.1c0,0,0,0.1,0.1,0.3c0,0.3-0.2,3,2.1,4.9
				c0,0-1-0.5-1.6-1.6c-0.4,0.2-0.9,0.7-0.7,1.7c0.1,0.4,0.4,0.7,0.6,0.8c0,0,0,0,0,0c0,0-0.1,0.1-0.3-0.1h0c0,0-0.1-0.1-0.1-0.1
				c-0.1-0.1-0.1-0.2-0.2-0.3c-0.3-0.2-0.5-0.5-0.7-0.7l0,0c-0.2-0.4-0.1-1.5-1.2-1.5c0,0,0,0-0.1,0h0c0,0-0.1,0-0.2,0c0,0,0,0,0,0
				c-0.3-1-0.2-1.6-0.2-1.7c0.2-1.4,1.2-2.5,1.3-2.7c0,0,0.1-0.1,0.1-0.2c0-0.1,0-0.1-0.1-0.1l0,0c-0.4-0.2-1.4-1.1-1.6-1.2l0,0
				c-0.1-0.1-0.2-0.1-0.3-0.1c-0.1,0-0.2,0.1-0.2,0.1c-0.4,0.4-1,0.4-1.3,0.4c-0.1,0-0.2,0-0.2,0h0c-0.6,0-1.4-0.4-1.5-0.5
				c-1.1-0.4-1.9-0.5-2-0.5c-0.2,0-1,0-2,0.5c-0.2,0.1-0.9,0.4-1.5,0.5h0c0,0-0.1,0-0.2,0c-0.3,0-0.8-0.1-1.3-0.4l0,0
				c0,0-0.1-0.1-0.2-0.1c-0.1,0-0.2,0-0.3,0.1l0,0c-0.1,0.1-1.2,0.9-1.6,1.2l0,0c0,0-0.1,0-0.1,0.1c0,0.1,0,0.1,0.1,0.2
				c0.1,0.1,1.1,1.3,1.3,2.7c0,0.1,0,0.3,0,0.6c-0.1-0.3-0.2-0.5-0.2-0.7c0-0.2-0.1-0.3-0.2-0.4c-0.1-0.2-0.4-0.4-0.6-0.5
				c-0.2-0.1-0.4-0.1-0.6-0.3c-0.3-0.2-0.6-0.4-0.8-0.8c0-0.7-0.4-1.2-0.4-1.2c0.1,0,0.5,0.3,0.6,1c0.5-0.5,0.8-1.3,0.9-2.2
				c0.4-0.5,1.5-0.3,1.9-0.3c0.1,0,0.3,0.1,0.4,0.1c0.1,0.1,0.1,0.3,0.3,0.3c0.2,0.1,0.4,0,0.6,0c0.1,0.1,0.1,0.2,0.2,0.3
				c0.1,0,0.1,0,0.1,0l0,0h0c0.6,0,1.4-0.4,1.5-0.4l0,0c0,0,0.1,0,0.1,0c-0.2-0.3-0.6-0.4-0.9-0.4c-0.4-0.1-0.6-0.4-1-0.5
				c-0.1,0-0.4-0.1-0.6,0c-0.9,0.1-1.5-0.2-2.2-0.3c-0.8-0.1-0.8,0.5-1.1,0.9c-0.1,0.2-0.2,0.3-0.4,0.5c-0.2,0.2-0.5,0.2-0.7,0.4
				c0,0,0,0,0,0c0-0.3-0.2-0.7-0.3-1c0,0,0,0,0,0c0,0,0-0.1-0.1-0.1c-0.4-0.6-0.9-1.1-1.8-1.4c-0.2-0.1-0.2-0.1-0.3-0.2
				c-0.1-0.1,0-0.3,0-0.3c0.3-0.1,0.7-0.1,1-0.2c0.7-0.3,0.5-1,0.2-1c-0.4-0.1-1-0.2-1.2-0.3c-0.2-0.1-0.3-0.4-0.6-0.5
				c-0.2-0.1-0.4-0.1-0.6,0c-0.2,0-0.3,0.2-0.4,0.1c0.2-0.2,0.5-0.3,0.8-0.4c-0.3-0.1-0.2-0.6-0.5-0.7c-0.1,0-0.3,0-0.5,0.1
				c0-0.2-0.1-0.7-0.4-0.9c-0.2-0.1-0.3,0.1-0.3,0.2c0,0.1,0.4,0.3,0.4,0.8c-0.1,0-0.1,0.1-0.2,0.1c0-0.2-0.2-0.6-0.4-0.7
				c-0.2-0.1-0.3,0.1-0.3,0.2c0,0.1,0.3,0.3,0.4,0.7c-0.1,0.1-0.2,0.1-0.2,0.2c-0.5-0.1-0.6-0.5-0.7-0.5c-0.1,0-0.4,0-0.2,0.3
				c0.1,0.3,0.5,0.4,0.7,0.5c0,0.1-0.1,0.1-0.1,0.2c-0.6-0.1-0.7-0.5-0.8-0.5c-0.1,0-0.4,0-0.2,0.3c0.2,0.3,0.7,0.5,0.9,0.5
				c-0.1,0.2-0.1,0.3-0.1,0.4c-0.4-0.1-1.2,0.2-1.1,0.7c0.1,0.1,0.7-0.3,1.1-0.1c0.3,0.5,0.8,0.5,0.9,0.6c0.2,0.1,0.2,0.4,0.3,0.6
				c0.1,0.4,0.4,0.8,0.7,1.1c0.3,0.4,0.5,0.8,0.8,1.2c0,0.1,0.1,0.2,0.1,0.4c-0.3,0.5-1.3,1.1-1.7,1.5c-0.4,0.4-4.2,3.3-4.7,4.5
				c-0.1,0.3-0.2,0.6-0.2,1c-0.2,0.1-0.6,0.1-0.8-0.1c-0.3-0.3,0.3-0.6,0.1-1c-0.1-0.2-0.3-0.2-0.4-0.2c-0.3,0.1-0.3,0.7-0.2,1
				c0,0.1,0.2,0.2,0.1,0.3c-0.1,0.1-0.2-0.1-0.2-0.3c-0.1,0.1-0.2,0.2-0.1,0.3c0.1,0.3,0.4,0.3,0.5,0.4c0,0.1-0.2,0.2-0.3,0.1
				c-0.2,0.3,0,0.4,0.1,0.4c0.2,0,0.5-0.2,0.6-0.2c0.1,0.2,0,0.2-0.3,0.3c0.4,0.5,0.7-0.3,1.1-0.2c0.1,0,1.3,1.1,1.1,2
				c0,0-0.1,0.2-0.1,0.2c-0.3,0.3-0.7,0.6-1,0.9c-0.6,0.4,0.6,2.9,0.5,4.2c-0.1,0.5,0.4,0.4,0.7,1.2c-0.3,0-0.6,0.1-0.8,0.3
				c0,0,0,0,0,0.1l0,0c0,0.1-0.1,0.2-0.1,0.3c0,0.3,0.3,0.6,0.6,0.6c0.3,0,0.6-0.3,0.6-0.6c0,0,0-0.1,0-0.1c0.1,0,0.3,0,0.5,0.1
				l0.6,0.3c0,0-1.9,1.6-5.1,0.7c0,0-1.4-0.5-1-1.7c0,0,0.1-0.2,0.3-0.3c0,0.2,0.1,0.3,0.3,0.4c0.1,0.1,0.3,0.1,0.4,0.1
				c0.4,0,0.7-0.3,0.7-0.7c0-0.2-0.1-0.4-0.2-0.5c0,0-0.1-0.1-0.1-0.1c0,0,0,0,0,0c0,0,0,0,0,0c-0.2-0.1-0.5-0.2-1-0.1
				c0,0-1.4,0.4-0.9,1.9c0,0-0.9-0.2-1.3,0.2c0,0-0.1,0.1-0.1,0.4v0v0c0,0.1,0,0.2,0.1,0.3c0.1,0.1,0.3,0.2,0.4,0.2
				c0.2,0,0.3-0.1,0.4-0.2c0,0,0,0,0,0c0-0.1,0.1-0.1,0.3,0.1c0,0,1.3,1.4,3.2,1.2c0,0,0.1,1,0.7,1.2c0,0,0.1,0,0.1,0
				c0.2,0,0.3-0.2,0.3-0.3c0-0.2-0.1-0.3-0.3-0.3c0,0,0,0,0,0c0,0-0.1-0.3,0-0.5c0,0,2.1-0.3,3.5-1.4c0,0,1,0.3,1.6,0.3
				c0,0,0.1,0.2-0.3,0.3c0,0-0.5,0-0.5,0.2c0,0,0,0.2,0.4,0.2c0,0-0.1,0.2,0.3,0.4c0,0,0.2,0.1,0.1,0.3c0,0-0.4,0.2-0.3,0.5
				c0,0,0.1,0.3,0.7,0.2c0,0,0.2,0,0,0.2c0,0-0.3,0.3,0.2,0.6c0,0,0.4,0.2,0.6-0.2c0,0,0.1-0.2,0.3,0c0,0,1.2,0.6,1.9-0.4
				c0,0,0-0.1,0.2,0.1c0,0,0.6,0.8,2.4,0.8c0.1,0.2,0.3,0.3,0.6,0.3c0.3,0,0.6-0.2,0.6-0.5c0.2,0,1-0.1,1.8-0.6c0,0,0.3-0.2,0.6-0.3
				c0,0.5,0.4,0.9,0.9,0.9c0.5,0,0.9-0.4,0.9-0.9c0-0.4-0.3-0.8-0.8-0.9c0,0-0.6-0.2-1.4,0.3c0,0-0.7,0.5-0.8,0.5
				c0,0,0.2-0.8,0.3-1.6c-0.1,0-0.3,0-0.4,0c-0.1,0.8-0.3,1.7-0.6,1.8l-0.5,0.1c0-0.1,0-0.1-0.1-0.2c-0.1-0.1-0.2-0.2-0.5-0.2
				c0,0,0,0,0,0c-0.2,0.1-0.4,0.2-0.4,0.4c-0.1,0-0.9,0.2-1.3-0.2c0,0,0.8-0.3,0.9-0.5c0,0,0.2-0.4-0.5-0.9c0,0-0.6-0.3-0.7,0
				c0,0-0.1,0.2,0.2,0.4c0,0,0.3,0.3-0.2,0.2c0,0-0.4,0-0.5-0.2c0,0,0.1-1,0.3-1.6c-0.2-0.1-0.4-0.1-0.6-0.2
				c-0.1,0.2-0.2,0.4-0.2,0.7c0,0,0,0.6-0.2,0.7c0,0-0.7-0.6-0.4-1.7c-0.2-0.1-0.5-0.1-0.7-0.2c0,0.5,0.1,1.3,0.8,2.5
				c0,0-0.6,0.8-1.2,0.4c0,0-0.9-0.6-0.3-1.1c0,0,0.4-0.3,0.5,0.1c-0.2,0-0.4,0.2-0.4,0.4c0,0.2,0.2,0.4,0.4,0.4
				c0.2,0,0.4-0.2,0.4-0.3c0-0.1,0-0.5-0.3-0.8c0,0-0.3-0.3-0.8-0.2c0,0,0.5-0.6,0.5-1.2c0,0,0-0.1,0-0.2c-0.1-0.1-0.3-0.1-0.4-0.2
				c0,0.5-0.2,1.5-0.9,1.2c0,0,0.5-0.8,0.8-1.3c-0.3-0.1-0.6-0.2-0.9-0.4c0,0,0,0-0.1,0c0,0.2,0.1,0.8-0.2,1.1c0,0-0.4,0.3-1-0.2
				c0,0,0.8-0.7,1.1-1c-0.2-0.1-0.4-0.1-0.7-0.1h-0.2c0,0,0,0,0,0c0,0-0.5,0.4-0.9,0.6c0,0-0.1,0.1-0.2,0c0,0-0.7-0.8-0.2-1.6
				c0,0,0.3-0.7,1-0.6c0,0,0.2,0,0.3,0.3c0,0-0.6,0-0.6,0.5c0,0,0,0.5,0.6,0.4c0,0,0.8-0.1,0.6-1c0,0-0.1-0.6-0.6-0.6
				c0,0,0.3-0.3,0.1-0.4c0,0-0.2-0.2-0.6,0.1c0,0-0.1,0.2-0.6,0.1c0,0-0.3-0.1-0.5,0.1c0,0-0.1,0-0.1,0.4c0,0,0,0.1-0.2,0.5
				c0,0-0.1,0.3-0.1,0.7c-0.2-0.1-0.3-0.2-0.5-0.2c-0.3-0.3-0.3-1.5-0.6-2.2c-0.1-0.1,0.1-0.8,0.1-1.5c1.9-0.4,2.6-1.9,2.8-2.5
				c0.3-1.1-0.1-2.1-0.1-2.4c0,0,0,0,0,0c0.1,0.2,0.2,0.3,0.2,0.5c0.9,0.1,1.6-0.1,2-0.2c0,0,0,0,0.1,0c0,0,0.1,0,0.1,0
				c0.1,0,0.2-0.1,0.2-0.1c0,0,0.1,0,0.1,0c1.3-0.7,1.9-1.8,2.3-2.4c-0.2,0-0.8-0.2-1-0.5c0.5,0,0.9,0.2,1.4,0.3
				c0.7,0,1.2-0.4,2-0.3c0,0,0.1,0.4,0.6,0.6c0,0.5,0,0.8,0.2,1.2c0,0.1,0.1,0.2,0.1,0.2s-0.6,0.5-0.4,0.9c0,0.1,0.1,0.2,0.1,0.3
				c0,0-0.1,0-0.1,0c-0.1,0-0.2,0.1-0.3,0.3c-0.1,0.1-0.4,0.8-0.1,0.8c0.1,0,0.1,0,0.2,0c-0.1,0.7-0.1,1.6,0.4,2.4l0,0
				c0,0.1,0.9,1.5,3.2,1.5h0c0.2,0,2.3,0,3,1.4c0,0.1,0.2,0.3,0.4,0.3c0.2,0,0.3-0.2,0.4-0.3c0.7-1.4,2.8-1.4,3-1.4h0
				c2.3,0,3.2-1.4,3.2-1.5l0,0c0.3-0.4,0.4-0.8,0.5-1.3c0.5-0.3,0.4-1.3,0.4-1.5c0.1,0.2,0.4,0.7,1,0.8c-0.1,0.5-0.1,1.3,0.5,1.4
				c0.2,0,0.3-0.2,0.2-0.4c0.5,1.3,0.1,2.1,0.4,2.2c0.4,0,0.5-0.8,0.5-0.8c0,0.1,0.2,0.3,0.2,0.6c0,0.4-0.1,0.8,0.1,0.9
				c0.6,0.1,0.3-1.7,0.8-1.5c-0.1,0.8,0,1.2,0.3,1.3c0,0.4,0,0.7-0.2,0.7c-0.9,0.2-1.6-0.5-2.4-0.3c-0.1,0-0.1-0.1-0.1-0.1
				c-1.4-0.7-2.3-0.2-2.3-0.3c-0.4-0.4-0.5,0.2-0.6,0.1c-0.7-0.4-1.1,0.3-1.3,0.3c-0.2,0-0.5-0.4-0.8,0.5c-0.2,0.4-1,0.5-1,0.5
				c-0.3,0-0.4-0.2-0.4-0.2c0-0.1-0.1-0.2-0.1-0.2c0-0.1-0.1-0.1-0.1-0.2c-0.1-0.1-0.2-0.1-0.3-0.1c-0.2,0-0.4,0.2-0.4,0.5
				c0,0.1,0,0.2,0.1,0.3c0,0,0.1-0.1,0.2-0.1c0.2,0,0.3,0.1,0.3,0.3v0c0,0.4-0.5,0.7-0.5,0.7c-0.3,0.3-0.7-0.1-0.7-0.1
				c-0.2-0.2-0.4-0.2-0.4-0.2c-0.2,0-0.3,0.3-0.3,0.3s-0.1-0.3-0.3-0.3c0,0-0.2,0-0.4,0.2c0,0-0.4,0.4-0.7,0.1c0,0-0.6-0.4-0.5-0.7
				v0c0-0.2,0.1-0.3,0.3-0.3c0.1,0,0.2,0.1,0.2,0.1c0.1-0.1,0.1-0.2,0.1-0.3c0-0.2-0.2-0.4-0.4-0.5c-0.1,0-0.2,0-0.3,0.1
				c0,0.1-0.1,0.1-0.1,0.2c0,0.1-0.1,0.1-0.1,0.2c0,0-0.1,0.2-0.4,0.2c-0.1,0-0.9-0.2-1-0.5C26.5,31.6,26.2,32,26,32
				c-0.2,0-0.6-0.7-1.3-0.3c-0.1,0.1-0.3-0.5-0.7-0.1c-0.1,0.1-0.8-0.4-1.9,0c-0.1-0.1-0.4-0.2-0.5-0.2c-0.2-0.1-0.4-0.2-0.6-0.3
				c-0.3-0.2-0.8-0.1-1.2-0.1c-0.1,0-0.3-0.1-0.5-0.2c-0.5-0.3-1-0.6-1.3-1c0-0.1-0.2-0.2-0.2-0.3c-0.1-0.2-0.2-0.3-0.3-0.6
				c-0.2-0.6,0.1-1.2,0.2-1.7c0-0.3,0-0.4,0.1-0.5c-0.4,0.1-1,0.1-1.7-0.1c0.2,0.6,0.2,1.2,0.1,1.7c0.3,0.2,0.4,0.6,0.5,0.7
				c0,0.3-0.1,0.6,0.1,0.8c0.2,0.3,0.8,0.7,1.1,0.9c0.1,0.1,1.7,1.3,1.9,1.3c0.2,0,0.4-0.1,0.6-0.1c0.1,0,0.1,0.1,0.2,0.1
				c0,0,0.1,0.1,0.3,0.3c-0.5,0.3-1.1,0.7-1.5,0.9c0,0-0.7,0.4-0.4,0.4c0,0,0.5,0,0.5,0.1c0,0-0.2,0.1-0.5,0.2
				c0.7,0.3,1.5,0.5,2.3,0.7c0.5-0.5,1.1-1,1.7-1.2c0,0,0.9,0,1.2-0.6c0.1-0.2,0.5,0.4,1.2-0.1c0.1,0,0.2,0.2,0.4,0.2
				c0.1,0-0.3,0.1-0.2,0.4c0,0-0.6,0-0.8,0.4c-0.1,0.1-1.4,0.1-2.6,1.1c0.2,0.1,0.5,0.1,0.7,0.2c0.4-0.3,0.9-0.5,1.4-0.5
				c0,0,0.7,0,1.1,0.9c0.5,0.1,0.9,0.1,1.4,0.2c0,0,0,0,0,0c0.1-0.1,0.8-0.4,0.5-0.8c0,0-0.2-0.2-0.4,0.1c0,0-0.2,0.2-0.2-0.1
				c0,0,0-0.1-0.1-0.3c0,0-0.1-0.2,0.1-0.1c0,0,0.2,0.1,0.5,0c0.2,0,0.4-0.2,0.4-0.4c0-0.2-0.2-0.5-0.4-0.5c0,0-0.1,0-0.1,0
				c0,0,0.1,0.1,0.1,0.1c0,0.1-0.1,0.2-0.2,0.2c-0.3-0.1-0.2-0.6,0.2-0.6c0,0,0.3,0,0.6,0.3c0,0,0.6,0.9,1.2,1.1
				c0,0-0.1,0.3,0.3,0.4c0,0,0,0.3,0.4,0.3c0,0,0.1,0.1,0.2,0.3c0.3,0,0.7,0,1,0c0.3,0,0.7,0,1,0c0.1-0.2,0.2-0.3,0.2-0.3
				c0.4,0,0.3-0.2,0.4-0.3c0.4-0.1,0.2-0.4,0.3-0.4c0.6-0.2,1.2-1.1,1.2-1.1c0.3-0.3,0.6-0.3,0.6-0.3c0.4,0,0.4,0.5,0.2,0.6
				c-0.1,0-0.2-0.1-0.2-0.2c0-0.1,0-0.1,0.1-0.1c0,0,0,0-0.1,0c-0.2,0-0.4,0.2-0.4,0.5c0,0.2,0.2,0.4,0.4,0.4c0.2,0,0.5,0,0.5,0
				c0.3-0.1,0.1,0.1,0.1,0.1c-0.1,0.1-0.1,0.3-0.1,0.3c-0.1,0.2-0.2,0.1-0.2,0.1c-0.3-0.3-0.4-0.1-0.4-0.1c-0.3,0.4,0.4,0.7,0.5,0.8
				c0,0,0,0,0,0c0.5,0,0.9-0.1,1.4-0.2c0.3-0.9,1.1-0.9,1.1-0.9c0.6,0,1,0.2,1.4,0.5c0.2,0,0.5-0.1,0.7-0.2c-1.2-1-2.6-1-2.6-1.1
				c-0.2-0.4-0.9-0.3-0.8-0.4c0.1-0.3-0.3-0.4-0.2-0.4c0.2-0.1,0.3-0.3,0.4-0.2c0.8,0.4,1.1-0.1,1.2,0.1c0.3,0.6,1.2,0.6,1.2,0.6
				c0.6,0.2,1.2,0.7,1.7,1.2c0.7-0.2,1.4-0.4,2.1-0.6c0,0,0,0,0,0c0,0,0-0.1,0-0.1c0,0,0,0,0,0l0,0c0-0.1-0.1-0.1-0.1-0.2h0
				c-0.2-0.3-0.4-0.6-0.5-0.7c0,0,0,0,0,0c0,0,0,0,0,0c0,0,0.5-0.8,0.8-0.2c0,0.1,0,0.3-0.3,0.3c0,0,0.4,0.6,0.5,1c0,0,0,0,0,0
				c0.2-0.1,0.3-0.1,0.3-0.1c0,0,0.1,0,0.1,0c-0.2-0.4-0.5-0.6-0.4-0.7c0.1,0,0.4,0.1,0.5-0.1c0-0.1,0.1-0.3,0.1-0.6
				c0.2,0.1,0.4,0.1,0.5,0.1c0.5,0,0.7-0.8,0.6-1.1c0.1,0,0.4-0.3,0.4-0.2c0.2,0.4,1,0.8,0.9-0.1c0.1,0.4,0.2,0.9,0.7,0.8
				c0.3-0.1,0.1-0.7,0.2-0.7c0.1,0.2,0.2,0.8,0.8,0.7c0.2-0.1,0.3-0.2,0.3-0.4c0-0.6-1.8-4-2-5.5c0,0-0.1,0-0.1,0
				C45,25.8,45,25.5,45,25.3c0,0,0,0,0,0c-0.2,0-0.6-0.2-0.6-0.9c0-0.6,0.2-0.8,0.3-0.8c0,0,0,0,0,0.1c-0.1,0.4-0.2,1,0.1,1.2
				c0.1,0.1,0.2,0.1,0.3,0.1c0.1-0.2,0.2-0.3,0.3-0.3c0,0,0,0,0,0c-0.2,0.3-0.2,0.7,0,0.9c0.1,0.1,0.2,0.1,0.3,0.1
				c0.5-0.2,0.8-1.2,0.9-1.5c0.3,0.1-0.6,2.1,0.1,2.5c0.3,0,0.4-0.3,0.6-0.6c0.2,0.6-0.7,1.8,0,2.1c0.4,0.1,0.6-1,0.6-0.8
				c0.1,1.6-0.7,2.4-0.2,2.7c0.5,0.2,0.6-1.1,0.6-1c0,1.8-0.9,2.2-0.5,2.5c0.4,0.2,0.7-0.9,0.7-0.6c0,1.6-0.8,2-0.5,2.5
				c0.4,0.6,1.2-1,1.2-0.7c0,0.4-0.9,2.2-0.3,2.3c0.4,0.1,0.6-0.5,0.6-0.6C50.8,30,50.9,25.6,50.8,24.1 M37.4,15.8
				C37.3,15.9,37.3,15.9,37.4,15.8c-0.4-0.2-1.1-0.2-1.6,0.1c-0.4,0.2-0.6,0.5-0.7,0.6c-0.1,0,0.6-0.9,1.6-1
				C37.3,15.5,37.4,15.8,37.4,15.8 M39.6,18.8c-0.1,0.3-0.4,0.6-0.7,0.6c-0.6,0.1-1.2-0.3-1.2-0.4c0-0.1,0.5,0.2,1,0.2
				C39.1,19.2,39.4,18.9,39.6,18.8C39.6,18.7,39.7,18.7,39.6,18.8 M14.2,35.2L14.2,35.2L14.2,35.2L14.2,35.2L14.2,35.2
				c0.1,0.1,0.2,0.1,0.3,0.2c0,0,0,0,0.1,0.1c0,0.1-0.1,0.1-0.3,0c0,0,0,0,0,0c-0.1-0.1-0.2-0.1-0.3-0.2c-0.1,0.1,0.1,0.3,0.2,0.4
				c0,0-0.1,0.1-0.1,0.1l0,0c-0.1,0-0.1,0-0.2,0h0c0,0,0,0,0,0c-0.2-0.1-0.2-0.3-0.2-0.5c0-0.1-0.1-0.4-0.3-0.5
				C13.6,34.5,14.2,35.1,14.2,35.2 M17.5,15.6c0.5,0.2,0.6-0.5,0.7-0.3C18.4,15.6,17.8,16.1,17.5,15.6 M18.1,15.1
				c-0.2,0-0.4-0.2-0.6,0c0,0-0.3,0.2-0.2,0.5c0,0.2-0.2,0.3-0.3,0.1c-0.2-0.4,0.5-1,0.7-1.1c0.4-0.1,0.7,0.1,1.1,0.2
				c0.3,0,0.5,0,0.7,0c0.5,0,0.3,0.4,0.3,0.4c-0.4,0.1-0.6-0.2-1-0.2C18.6,15,18.4,15.1,18.1,15.1 M19.9,17.9
				c-0.6-0.2-1.2-0.3-1.5-0.8c0.8,0.1,1.7,0.1,2.2,0.4c0,0,0,0,0.1,0c0.2,0.1,0.6,0.5,0.8,1.1C20.8,18.2,20.5,18.1,19.9,17.9
				 M24.2,22.8c-0.2,0-0.2-0.7-1.1-0.5c-0.5,0.2-0.8,0.1-1.1,0C23.3,21.6,24.3,22.3,24.2,22.8 M37,24.7c0.1,0,0.1,0,0.2,0h0
				c0.1,0,0.1,0,0.2,0c0,0,0.2,0.2,0.2,0.5c0,0.1,0.1,0.4,0.2,0.5c0.1,0.1,0.1,0.3-0.2,0.3h0c-0.3-0.1-0.6-0.5-0.5-1
				c-0.1,0-0.2,0-0.2,0h0c0,0-0.1,0-0.1,0c0,0,0,0,0,0c0,0,0,0-0.1,0c0,0,0,0,0,0c-0.1,0.1-0.1,0.2-0.2,0.2c0-0.2,0.1-0.3,0.3-0.4
				c0,0,0,0,0,0C36.7,24.7,36.8,24.7,37,24.7 M24.4,26.3C24.4,26.3,24.4,26.4,24.4,26.3c0,0.1-0.1,0.1-0.1,0.2c0,0,0,0,0,0
				c0,0,0,0,0,0.1c0,0,0,0,0,0c0,0,0,0.1-0.1,0.1c0,0,0,0,0,0c0,0,0,0-0.1,0.1c0,0,0,0,0,0c0,0-0.1,0-0.1,0.1c0,0,0,0,0,0
				c0,0-0.1,0-0.1,0c0,0,0,0,0,0c0,0-0.1,0-0.1,0c0,0,0-0.1,0-0.1c0-0.1,0.1-0.2,0.2-0.4c0.1-0.1,0-0.2,0.1-0.3c0.1,0,0.2,0,0.3-0.1
				c-0.2-0.2-0.2-0.5,0-0.8c0.4-0.4,0-1.2,0.1-1.3c0.1,0.1,0.2,0.4,0.2,0.7c0,0,0,0.1,0,0.1c0,0,0,0.1,0,0.1c0,0,0,0.1,0,0.1
				c0,0,0,0.1,0,0.1v0.1c0,0,0,0.1,0,0.1c0,0,0,0.1,0,0.1c0,0,0,0.1,0,0.1c0,0,0,0,0,0.1c0,0,0,0.1,0,0.1c0,0,0,0.1,0,0.1
				c0,0,0,0.1,0,0.1c0,0,0,0,0,0.1c0,0,0,0.1,0,0.1c0,0,0,0.1,0,0.1C24.4,26.2,24.4,26.2,24.4,26.3C24.4,26.3,24.4,26.3,24.4,26.3
				 M36.4,29c-0.1,0.1-0.9,1.3-2.9,1.3c-0.2,0-1.8,0-2.4,1.1c0,0,0,0,0,0c-0.1,0.1-0.3,0.4-0.4,0.6c0,0-0.1,0.1-0.1,0.1
				c0,0-0.1,0-0.1-0.1c-0.1-0.2-0.3-0.5-0.4-0.6c0,0,0,0,0,0c-0.6-1-2.2-1.1-2.4-1.1c-2,0-2.8-1.2-2.9-1.3c-1-1.5-0.1-3.2,0-3.2
				c0.8-1.4,0.7-2.4,0.7-2.6c0-1.6-1-2.8-1.1-2.9c-0.1-0.1-0.1-0.2-0.1-0.3c0-0.1,0.1-0.2,0.2-0.2c0.2-0.2,0.7-0.5,0.9-0.6l0.1-0.1
				c0,0,0.1,0,0.1,0c0.1,0,0.1,0,0.2,0.1c0.2,0.2,0.6,0.4,1.2,0.4c0.1,0,0.2,0,0.3,0c0.3,0,0.9-0.3,0.9-0.3c0.2-0.1,0.4-0.2,0.5-0.2
				l0,0c0.9-0.4,1.7-0.4,1.9-0.4c0.2,0,1,0,1.9,0.4l0.1,0c0.1,0,0.3,0.1,0.5,0.2c0,0,0.6,0.3,0.9,0.3c0.1,0,0.2,0,0.4,0
				c0.6,0,1-0.3,1.2-0.4c0.1-0.1,0.1-0.1,0.2-0.1c0,0,0.1,0,0.1,0c0,0,0,0,0.1,0.1c0.2,0.1,0.7,0.4,0.9,0.6c0,0,0.1,0.1,0.1,0.2
				c0,0.1,0,0.2-0.1,0.3c-0.1,0.1-1.1,1.3-1.1,2.9c0,0.2-0.1,1.2,0.7,2.6C36.5,25.9,37.4,27.6,36.4,29 M37.8,27.8L37.8,27.8
				C37.8,27.8,37.8,27.9,37.8,27.8c-0.1,0.1-0.1,0.1-0.1,0.1c0,0,0,0,0,0c0,0,0,0-0.1,0c0,0,0,0,0,0c0,0,0,0-0.1,0c0,0,0,0,0,0
				c0,0,0,0-0.1,0h0c0,0,0,0-0.1,0c0,0,0,0,0,0c0,0,0,0-0.1,0c0,0,0,0,0,0c0,0,0,0-0.1-0.1c0,0,0,0,0,0c0,0-0.1-0.2,0.1-0.3
				c0,0,0.1,0.1,0.1,0.1c0,0,0,0,0,0c0,0,0,0,0.1,0c0,0,0,0,0,0c0,0,0,0,0.1,0c0,0,0,0,0,0c0,0,0,0,0,0c0,0,0,0,0,0c0,0,0,0,0,0
				c0,0,0,0,0,0c0,0,0,0,0-0.1c0,0,0,0,0,0c0,0,0,0,0-0.1c0,0,0,0,0-0.1c0,0,0,0,0-0.1c0-0.4,0-0.8,0.1-1c0,0,0,0,0,0c0,0,0,0,0,0
				c0,0,0,0,0,0h0c0,0,0,0,0.1,0c0,0,0,0,0,0c0,0,0,0,0,0c0,0,0,0,0,0c0,0,0,0,0,0c0,0,0,0,0,0c0,0,0,0,0,0.1v0c0,0.1,0,0.2,0,0.4
				c0,0,0,0,0,0.1v0c0,0.1,0,0.2,0,0.3C38,27.4,37.9,27.6,37.8,27.8 M41.6,28.5c-1.1,0.1-1.8-0.9-1.7-0.9c0.1,0,0.4,0.4,0.7,0.5
				c0.5,0.2,1.2,0.1,1.5-0.2c0,0,0.1,0,0.1,0C42.2,28,42.2,28.4,41.6,28.5 M22,31.7C22,31.7,22,31.7,22,31.7
				C22,31.7,22,31.7,22,31.7C22,31.8,22,31.8,22,31.7c-0.1,0.1-0.2,0.1-0.2,0.1c-0.1,0-0.3,0-0.3,0c0,0.1,0,0.1,0.1,0.2v0
				c0,0,0,0,0,0c0,0,0.1,0,0.1,0.1c0.1,0,0.1,0,0.1,0.1c0,0.1-0.2,0.2-0.3,0.2c-0.2,0-0.3-0.2-0.4-0.4c0,0,0,0-0.1,0c0,0,0,0,0,0
				c-0.2-0.1-0.4-0.1-0.7-0.1c0-0.5,1.3-0.1,1.3-0.1C21.7,31.6,21.9,31.6,22,31.7C22,31.7,22,31.7,22,31.7 M41.1,32.8L41.1,32.8
				C41.1,32.8,41.1,32.8,41.1,32.8c-0.3,0.1-0.8-0.3-0.8-0.3c-0.1,0-0.3-0.2-0.5-0.1h0l0,0c-0.2,0.1-0.3,0.3-0.4,0.4
				c0,0,0-0.1,0-0.1c0,0,0,0,0,0c0,0,0-0.1,0-0.1v0c0,0,0-0.1,0-0.1c0,0,0,0,0,0c0,0,0-0.1,0-0.1c0,0,0,0,0-0.1c0,0,0,0,0,0
				c0,0,0,0,0.1,0c0,0,0,0,0,0c0.1-0.1,0.2-0.1,0.4-0.1c0.2,0,0.4,0.1,0.5,0.2c0.2,0.2,0.5,0.2,0.7,0.2
				C41.2,32.5,41.1,32.7,41.1,32.8 M45.7,18.9c-0.1,0.1-0.5,0.3-0.7,0.3c-0.4,0.1-0.8,0-1-0.3c0.3-0.1,0.6,0.1,1,0.1
				c0.1,0,0.3,0,0.4-0.1c0.1,0,0.2-0.2,0.4-0.2C45.9,18.8,45.8,18.9,45.7,18.9 M49.9,30.8c-0.1,0.4-0.3,1.5-0.3,1.5
				c0.9-8.4,0.4-10.5,0.3-10.4c-0.1,0-0.3,1-0.7,0.7c-0.5-0.3,1-2.1,0.4-3.2c-0.1-0.2-0.3,0.2-0.5,0.2c-0.6-0.2,0.3-1.8,0.2-2
				c-0.1-0.1-0.6-0.2-0.6-0.8c0-0.3,0.2-0.5,0-0.7c-0.2-0.2-0.1,0.2-0.3,0.1c-0.3-0.3,0-0.7-0.2-0.9c-0.1-0.1-0.3,0.2-0.4,0.1
				c-0.2-0.1,0.1-0.4-0.1-0.5c-0.3,0-0.7,0.3-0.6,0.8c0,0.2,0.3,0.4,0.3,0.6c0,0.2-0.3,0.5-0.3,0.6c-0.4,0.9,0.3,1.1,0.2,1.4
				c0,0.2-0.3,0.2-0.5,0.2c-0.2-0.1-0.3-0.9-0.2-1.2c0.1-0.4,0.6-0.8,0.6-1.1c0-0.2-0.3-0.5-0.3-0.8c0-0.5,0.3-1,0.8-0.9
				c0.3,0.1,0.5,0.3,0.7,0.6c0.1,0.1,0.2,0.2,0.2,0.2c0.6,0.7,1,1.9,1.3,2.9C50.4,21.1,50.8,25.7,49.9,30.8"/>
		</g>
		<g>
			<path class="st2" d="M75.9,15.2c-0.1-2.2-0.1-4.4-0.2-6.6h0c-0.2,1-0.4,1.9-0.6,2.6l-1,4h-2.1l-1.2-5.1c-0.1-0.5-0.2-1-0.3-1.5
				h-0.1l-0.1,6.6h-1.5l0.3-8.3h2.7c0.2,0.6,1,4.1,1.5,6.7h0.1c0.5-2.6,1.5-6.1,1.7-6.7h2.5l0.3,8.3H75.9z"/>
			<path class="st2" d="M79.5,15.2v-4.8l-0.7-0.1v-1h2.3v5.9H79.5z M79.5,6.8h1.6v1.4h-1.6V6.8z"/>
			<path class="st2" d="M86.2,15.2v-3.5c0-0.9-0.3-1.3-1.1-1.3c-0.4,0-0.8,0.2-1,0.4v4.5h-1.6V9.2h1.1l0.2,0.7
				c0.3-0.4,1-0.8,1.9-0.8c1.5,0,2.1,0.9,2.1,2.4v3.7H86.2z"/>
			<path class="st2" d="M89.6,15.2v-4.8L89,10.2v-1h2.3v5.9H89.6z M89.6,6.8h1.6v1.4h-1.6V6.8z"/>
			<path class="st2" d="M94,10.8c0,0.9,2.6,0.6,2.6,2.6c0,1.1-0.8,1.9-2.3,1.9c-0.7,0-1.4-0.2-1.8-0.4l0.3-1.1
				c0.3,0.2,0.9,0.4,1.4,0.4c0.5,0,0.9-0.3,0.9-0.7c0-1.1-2.5-0.7-2.5-2.7c0-0.9,0.7-1.7,2.3-1.7c0.6,0,1.3,0.1,1.7,0.3l-0.2,1.2
				c-0.4-0.2-0.9-0.3-1.4-0.3C94.3,10.2,94,10.5,94,10.8z"/>
			<path class="st2" d="M100.1,15.3c-1.1,0-1.8-0.6-1.8-2.1v-2.8h-0.9V9.2h0.9v-1l1.6-0.5v1.5h1.6v1.1h-1.6v2.9
				c0,0.4,0.2,0.7,0.6,0.7c0.3,0,0.7-0.1,0.9-0.3l0.2,1.2C101.3,15.1,100.7,15.3,100.1,15.3z"/>
			<path class="st2" d="M103.7,12.6c0,0.9,0.5,1.5,1.5,1.5c0.6,0,1.2-0.3,1.7-0.5l0.3,1.1c-0.5,0.3-1.3,0.6-2.2,0.6
				c-1.9,0-2.9-1.1-2.9-3.1c0-1.8,0.9-3.1,2.8-3.1c1.8,0,2.5,1.3,2.5,2.8v0.7H103.7z M104.8,10.3c-0.8,0-1.1,0.7-1.1,1.4h2.2
				C105.9,10.9,105.7,10.3,104.8,10.3z"/>
			<path class="st2" d="M112,10.6c-0.2-0.1-0.5-0.1-0.7-0.1c-0.4,0-0.8,0.2-1.1,0.4v4.3h-1.6V9.2h1.1c0.1,0.3,0.1,0.5,0.2,0.8h0
				c0.2-0.4,0.7-0.9,1.4-0.9c0.3,0,0.5,0,0.7,0.1C112,9.7,112,10.1,112,10.6z"/>
			<path class="st2" d="M113.5,15.2v-4.8l-0.7-0.1v-1h2.3v5.9H113.5z M113.4,6.8h1.6v1.4h-1.6V6.8z"/>
			<path class="st2" d="M121.8,12.2c0,2-1,3.1-2.8,3.1c-1.8,0-2.8-1.1-2.8-3.1c0-1.7,1-3.1,2.8-3.1C120.8,9.1,121.8,10.4,121.8,12.2
				z M120.2,12.2c0-1.4-0.4-1.9-1.2-1.9c-0.7,0-1.2,0.5-1.2,1.9c0,1.4,0.4,1.9,1.2,1.9C119.8,14.1,120.2,13.6,120.2,12.2z"/>
			<path class="st2" d="M129.5,9.7c-0.1-0.3-0.1-0.6-0.1-1.1V6.8h1.6v8.4h-1.3l-0.2-0.7c-0.2,0.4-0.8,0.8-1.6,0.8
				c-1.3,0-2.4-1-2.4-3.1c0-2,1.1-3.1,2.6-3.1C128.7,9.1,129.2,9.3,129.5,9.7z M129.4,10.6c-0.2-0.1-0.6-0.3-1.1-0.3
				c-0.8,0-1.2,0.5-1.2,1.9c0,1.4,0.4,2,1.2,2c0.4,0,0.8-0.2,1.1-0.5V10.6z"/>
			<path class="st2" d="M133.8,12.6c0,0.9,0.5,1.5,1.5,1.5c0.6,0,1.2-0.3,1.7-0.5l0.3,1.1c-0.5,0.3-1.3,0.6-2.2,0.6
				c-1.9,0-2.9-1.1-2.9-3.1c0-1.8,0.9-3.1,2.8-3.1c1.8,0,2.5,1.3,2.5,2.8v0.7H133.8z M134.9,10.3c-0.8,0-1.1,0.7-1.1,1.4h2.2
				C135.9,10.9,135.7,10.3,134.9,10.3z"/>
			<path class="st2" d="M68.8,27.3v-8.3h5v1.3h-3.4v2.1H73l-0.1,1.4h-2.5V26h3.4v1.3H68.8z"/>
			<path class="st2" d="M79.8,26.9c-0.3,0.2-1.1,0.5-2,0.5c-1.8,0-2.8-1-2.8-3.1c0-1.9,1.1-3.1,2.8-3.1c0.8,0,1.5,0.2,2,0.5
				l-0.4,1.1c-0.4-0.3-1-0.4-1.5-0.4c-0.8,0-1.3,0.6-1.3,1.9c0,1.3,0.5,1.9,1.4,1.9c0.6,0,1.2-0.2,1.6-0.4L79.8,26.9z"/>
			<path class="st2" d="M86.1,24.3c0,2-1,3.1-2.8,3.1c-1.8,0-2.8-1.1-2.8-3.1c0-1.7,1-3.1,2.8-3.1C85.2,21.2,86.1,22.6,86.1,24.3z
				 M84.5,24.3c0-1.4-0.4-1.9-1.2-1.9c-0.7,0-1.2,0.5-1.2,1.9c0,1.4,0.4,1.9,1.2,1.9C84.1,26.3,84.5,25.8,84.5,24.3z"/>
			<path class="st2" d="M91,27.3v-3.5c0-0.9-0.3-1.3-1.1-1.3c-0.4,0-0.8,0.2-1,0.4v4.5h-1.6v-5.9h1.1l0.2,0.7c0.3-0.4,1-0.8,1.9-0.8
				c1.5,0,2.1,0.9,2.1,2.4v3.7H91z"/>
			<path class="st2" d="M99.3,24.3c0,2-1,3.1-2.8,3.1c-1.8,0-2.8-1.1-2.8-3.1c0-1.7,1-3.1,2.8-3.1C98.3,21.2,99.3,22.6,99.3,24.3z
				 M97.7,24.3c0-1.4-0.4-1.9-1.2-1.9c-0.7,0-1.2,0.5-1.2,1.9c0,1.4,0.4,1.9,1.2,1.9C97.3,26.3,97.7,25.8,97.7,24.3z"/>
			<path class="st2" d="M105.7,23.6v3.7h-1.6v-3.5c0-0.9-0.3-1.3-1.1-1.3c-0.4,0-0.7,0.2-1,0.4v4.5h-1.6v-5.9h1.1l0.3,0.7
				c0.3-0.4,0.9-0.8,1.8-0.8c1,0,1.6,0.3,1.9,0.8c0.4-0.4,1-0.8,1.8-0.8c1.7,0,2.2,0.9,2.2,2.4v3.7h-1.6v-3.5c0-0.9-0.4-1.3-1.1-1.3
				c-0.4,0-0.7,0.2-1,0.4C105.7,23.1,105.7,23.3,105.7,23.6z"/>
			<path class="st2" d="M110.5,20.4l-0.2-0.9l3.1-0.9c0,0.2,0.2,1,0.2,1.2L110.5,20.4z M111.2,27.3v-4.8l-0.7-0.1v-1h2.3v5.9H111.2z
				"/>
			<path class="st2" d="M117.9,27.3l-0.2-0.7c-0.3,0.4-0.9,0.8-1.7,0.8c-1.2,0-2-0.8-2-1.9c0-1.1,0.8-1.8,2.3-1.8h1.2v-0.3
				c0-0.8-0.4-1-1.1-1c-0.7,0-1.3,0.2-1.8,0.4l-0.4-1.1c0.6-0.3,1.4-0.5,2.4-0.5c1.7,0,2.4,0.8,2.4,2.3v3.8H117.9z M117.5,24.7h-1
				c-0.7,0-1,0.3-1,0.8c0,0.5,0.3,0.9,0.9,0.9c0.4,0,0.8-0.2,1.1-0.4V24.7z"/>
			<path class="st2" d="M120.2,25.6h1.6v1.8c0,1-0.6,1.4-1.6,1.6v-0.8c0.2,0,0.4-0.3,0.4-0.8l-0.4-0.2V25.6z"/>
			<path class="st2" d="M70.4,32.6v2.3H73l-0.1,1.4h-2.5v3.2h-1.6v-8.3h5v1.3H70.4z"/>
			<path class="st2" d="M79.7,36.5c0,2-1,3.1-2.8,3.1c-1.8,0-2.8-1.1-2.8-3.1c0-1.7,1-3.1,2.8-3.1C78.7,33.4,79.7,34.7,79.7,36.5z
				 M78.1,36.5c0-1.4-0.4-1.9-1.2-1.9c-0.7,0-1.2,0.5-1.2,1.9c0,1.4,0.4,1.9,1.2,1.9C77.7,38.4,78.1,37.9,78.1,36.5z"/>
			<path class="st2" d="M86.2,35.8v3.7h-1.6v-3.5c0-0.9-0.3-1.3-1.1-1.3c-0.4,0-0.7,0.2-1,0.4v4.5h-1.6v-5.9H82l0.3,0.7
				c0.3-0.4,0.9-0.8,1.8-0.8c1,0,1.6,0.3,1.9,0.8c0.4-0.4,1-0.8,1.8-0.8c1.7,0,2.2,0.9,2.2,2.4v3.7h-1.6v-3.5c0-0.9-0.4-1.3-1.1-1.3
				c-0.4,0-0.7,0.2-1,0.4C86.2,35.2,86.2,35.5,86.2,35.8z"/>
			<path class="st2" d="M92.5,36.9c0,0.9,0.5,1.5,1.5,1.5c0.6,0,1.2-0.3,1.7-0.5l0.3,1.1c-0.5,0.3-1.3,0.6-2.2,0.6
				c-1.9,0-2.9-1.1-2.9-3.1c0-1.8,0.9-3.1,2.8-3.1c1.8,0,2.5,1.3,2.5,2.8v0.7H92.5z M93.6,34.6c-0.8,0-1.1,0.7-1.1,1.4h2.2
				C94.7,35.2,94.4,34.6,93.6,34.6z"/>
			<path class="st2" d="M101.1,39.5v-3.5c0-0.9-0.3-1.3-1.1-1.3c-0.4,0-0.8,0.2-1,0.4v4.5h-1.6v-5.9h1.1l0.2,0.7
				c0.3-0.4,1-0.8,1.9-0.8c1.5,0,2.1,0.9,2.1,2.4v3.7H101.1z"/>
			<path class="st2" d="M106.2,39.6c-1.1,0-1.8-0.6-1.8-2.1v-2.8h-0.9v-1.1h0.9v-1L106,32v1.5h1.6v1.1H106v2.9
				c0,0.4,0.2,0.7,0.6,0.7c0.3,0,0.7-0.1,0.9-0.3l0.2,1.2C107.5,39.3,106.9,39.6,106.2,39.6z"/>
			<path class="st2" d="M114.2,36.5c0,2-1,3.1-2.8,3.1c-1.8,0-2.8-1.1-2.8-3.1c0-1.7,1-3.1,2.8-3.1
				C113.2,33.4,114.2,34.7,114.2,36.5z M112.5,36.5c0-1.4-0.4-1.9-1.2-1.9c-0.7,0-1.2,0.5-1.2,1.9c0,1.4,0.4,1.9,1.2,1.9
				C112.2,38.4,112.5,37.9,112.5,36.5z"/>
			<path class="st2" d="M120.4,39.3l-1,0.2l-1.8-6h1.8l1.3,5h0c0.2-0.9,1-4.1,1.3-5h1.6l-1.8,6.1c-0.5,1.7-1.4,2.3-2.6,2.3
				c-0.7,0-1.4-0.4-1.7-0.6l0.5-1.1h0.1c0,0,0.5,0.4,1.1,0.4c0.6,0,1.1-0.4,1.3-1.2L120.4,39.3z"/>
			<path class="st2" d="M71.8,44.7v6.9h-1.7v-6.9h-2v-1.3h5.7v1.3H71.8z"/>
			<path class="st2" d="M78.4,51.6l-0.2-0.7c-0.3,0.4-0.9,0.8-1.9,0.8c-1.5,0-2.2-0.8-2.2-2.5v-3.6h1.6v3.6c0,0.9,0.3,1.2,1.1,1.2
				c0.4,0,0.8-0.2,1.1-0.4v-4.5h1.6v5.9H78.4z"/>
			<path class="st2" d="M84.1,47c-0.2-0.1-0.5-0.1-0.7-0.1c-0.4,0-0.8,0.2-1.1,0.4v4.3h-1.6v-5.9h1.1c0.1,0.3,0.1,0.5,0.2,0.8h0
				c0.2-0.4,0.7-0.9,1.4-0.9c0.3,0,0.5,0,0.7,0.1C84.1,46.1,84.1,46.5,84.1,47z"/>
			<path class="st2" d="M85.6,51.6v-4.8l-0.7-0.1v-1h2.3v5.9H85.6z M85.5,43.2h1.6v1.4h-1.6V43.2z"/>
			<path class="st2" d="M89.9,47.2c0,0.9,2.6,0.6,2.6,2.6c0,1.1-0.8,1.9-2.3,1.9c-0.7,0-1.4-0.2-1.8-0.4l0.3-1.1
				c0.3,0.2,0.9,0.4,1.4,0.4c0.5,0,0.9-0.3,0.9-0.7c0-1.1-2.5-0.7-2.5-2.7c0-0.9,0.7-1.7,2.3-1.7c0.6,0,1.3,0.1,1.7,0.3L92.2,47
				c-0.4-0.2-0.9-0.3-1.4-0.3C90.2,46.7,89.9,46.9,89.9,47.2z"/>
			<path class="st2" d="M99,47.9v3.7h-1.6v-3.5c0-0.9-0.3-1.3-1.1-1.3c-0.4,0-0.7,0.2-1,0.4v4.5h-1.6v-5.9h1.1l0.3,0.7
				c0.3-0.4,0.9-0.8,1.8-0.8c1,0,1.6,0.3,1.9,0.8c0.4-0.4,1-0.8,1.8-0.8c1.7,0,2.2,0.9,2.2,2.4v3.7h-1.6v-3.5c0-0.9-0.4-1.3-1.1-1.3
				c-0.4,0-0.7,0.2-1,0.4C99,47.4,99,47.6,99,47.9z"/>
			<path class="st2" d="M109.3,48.6c0,2-1,3.1-2.8,3.1c-1.8,0-2.8-1.1-2.8-3.1c0-1.7,1-3.1,2.8-3.1
				C108.3,45.5,109.3,46.9,109.3,48.6z M107.7,48.6c0-1.4-0.4-1.9-1.2-1.9c-0.7,0-1.2,0.5-1.2,1.9c0,1.4,0.4,1.9,1.2,1.9
				C107.3,50.6,107.7,50,107.7,48.6z"/>
		</g>
		<g>
			<path class="st2" d="M73.5,128.6c-0.9,0.4-1.6,0.6-2.4,0.6c-2,0-3-1.4-3-3.5c0-2,1-3.3,3.1-3.3c1,0,1.7,0.2,2.2,0.6l-0.5,1
				c-0.4-0.3-1-0.4-1.6-0.4c-1.2,0-1.7,0.9-1.7,2.2c0,1.6,0.6,2.4,1.7,2.4c0.4,0,0.8-0.1,1.1-0.2v-1.2h-0.9l-0.1-1h2.2V128.6z"/>
			<path class="st2" d="M78.9,126.7c0,1.6-0.8,2.5-2.3,2.5c-1.4,0-2.3-0.9-2.3-2.5c0-1.4,0.8-2.5,2.3-2.5
				C78.1,124.2,78.9,125.3,78.9,126.7z M77.6,126.7c0-1.2-0.3-1.6-0.9-1.6c-0.6,0-0.9,0.4-0.9,1.6c0,1.1,0.3,1.6,0.9,1.6
				C77.3,128.3,77.6,127.9,77.6,126.7z"/>
			<path class="st2" d="M81,124.8c0.2-0.3,0.7-0.6,1.3-0.6c1.1,0,1.9,0.8,1.9,2.5c0,1.7-1,2.5-2.1,2.5c-0.7,0-1.1-0.3-1.4-0.7
				l-0.2,0.6h-0.7v-6.8h1.3v1.7L81,124.8z M81.1,127.8c0.2,0.3,0.5,0.5,0.9,0.5c0.6,0,1-0.4,1-1.6c0-1.1-0.4-1.6-1-1.6
				c-0.3,0-0.7,0.2-0.9,0.4V127.8z"/>
			<path class="st2" d="M85.6,129.1v-3.9l-0.6-0.1v-0.8h1.8v4.8H85.6z M85.6,122.4h1.3v1.2h-1.3V122.4z"/>
			<path class="st2" d="M89.2,127.1c0,0.8,0.4,1.2,1.2,1.2c0.5,0,1-0.2,1.4-0.4l0.2,0.9c-0.4,0.2-1.1,0.5-1.8,0.5
				c-1.5,0-2.4-0.9-2.4-2.5c0-1.5,0.7-2.5,2.3-2.5c1.5,0,2,1.1,2,2.3v0.6H89.2z M90.1,125.2c-0.6,0-0.9,0.6-0.9,1.1h1.8
				C90.9,125.7,90.7,125.2,90.1,125.2z"/>
			<path class="st2" d="M95.9,125.4c-0.2,0-0.4-0.1-0.6-0.1c-0.3,0-0.6,0.1-0.9,0.3v3.5h-1.3v-4.8H94l0.1,0.6h0
				c0.1-0.3,0.6-0.7,1.1-0.7c0.3,0,0.5,0,0.6,0.1L95.9,125.4z"/>
			<path class="st2" d="M99.6,129.1v-2.9c0-0.7-0.3-1.1-0.9-1.1c-0.3,0-0.6,0.1-0.8,0.3v3.6h-1.3v-4.8h0.9l0.2,0.6
				c0.3-0.3,0.8-0.6,1.5-0.6c1.2,0,1.7,0.7,1.7,1.9v3H99.6z"/>
			<path class="st2" d="M106.3,126.7c0,1.6-0.8,2.5-2.3,2.5c-1.4,0-2.3-0.9-2.3-2.5c0-1.4,0.8-2.5,2.3-2.5
				C105.5,124.2,106.3,125.3,106.3,126.7z M105,126.7c0-1.2-0.3-1.6-0.9-1.6c-0.6,0-0.9,0.4-0.9,1.6c0,1.1,0.3,1.6,0.9,1.6
				C104.7,128.3,105,127.9,105,126.7z"/>
			<path class="st2" d="M112.5,124.7c-0.1-0.3-0.1-0.5-0.1-0.9v-1.5h1.3v6.8h-1l-0.1-0.5c-0.2,0.3-0.7,0.6-1.3,0.6
				c-1.1,0-2-0.8-2-2.5c0-1.6,0.9-2.5,2.1-2.5C111.8,124.2,112.3,124.4,112.5,124.7z M112.4,125.4c-0.2-0.1-0.5-0.2-0.9-0.2
				c-0.6,0-1,0.4-1,1.5c0,1.1,0.4,1.6,1,1.6c0.3,0,0.6-0.2,0.9-0.4V125.4z"/>
			<path class="st2" d="M115.9,127.1c0,0.8,0.4,1.2,1.2,1.2c0.5,0,1-0.2,1.4-0.4l0.2,0.9c-0.4,0.2-1.1,0.5-1.8,0.5
				c-1.5,0-2.4-0.9-2.4-2.5c0-1.5,0.7-2.5,2.3-2.5c1.5,0,2,1.1,2,2.3v0.6H115.9z M116.8,125.2c-0.6,0-0.9,0.6-0.9,1.1h1.8
				C117.7,125.7,117.5,125.2,116.8,125.2z"/>
			<path class="st2" d="M124.8,129.2c-1.9,0-2.9-1.2-2.9-3.4c0-2.1,1-3.4,2.9-3.4c0.9,0,1.7,0.2,2.3,0.6l-0.5,1
				c-0.3-0.3-0.9-0.5-1.6-0.5c-1.1,0-1.7,0.8-1.7,2.2c0,1.5,0.6,2.3,1.6,2.3c0.6,0,1.3-0.3,1.7-0.6l0.4,1
				C126.4,129,125.7,129.2,124.8,129.2z"/>
			<path class="st2" d="M127.9,129.1v-6.8h1.3v1.8c0,0.3-0.1,0.6-0.1,0.7c0.3-0.3,0.7-0.7,1.4-0.7c1.4,0,1.8,0.7,1.8,1.9v3h-1.3
				v-2.9c0-0.7-0.3-1.1-0.9-1.1c-0.3,0-0.6,0.1-0.9,0.3v3.6H127.9z"/>
			<path class="st2" d="M133.7,129.1v-3.9l-0.6-0.1v-0.8h1.8v4.8H133.7z M133.6,122.4h1.3v1.2h-1.3V122.4z"/>
			<path class="st2" d="M136.1,127.9v-5.5h1.3v5.4c0,0.4,0.2,0.5,0.8,0.5v0.9c0,0-0.4,0.1-0.7,0.1
				C136.5,129.2,136.1,128.7,136.1,127.9z"/>
			<path class="st2" d="M140.1,127.1c0,0.8,0.4,1.2,1.2,1.2c0.5,0,1-0.2,1.4-0.4l0.2,0.9c-0.4,0.2-1.1,0.5-1.8,0.5
				c-1.5,0-2.4-0.9-2.4-2.5c0-1.5,0.7-2.5,2.3-2.5c1.5,0,2,1.1,2,2.3v0.6H140.1z M141,125.2c-0.6,0-0.9,0.6-0.9,1.1h1.8
				C141.8,125.7,141.7,125.2,141,125.2z"/>
		</g>
	</g>
</g>
<g id="Guias" class="st3">
	<g class="st4">
	</g>
</g>
</svg>
