<svg id="Capa_1" xmlns="http://www.w3.org/2000/svg" viewBox="0 0 49 49"><style>.st0{fill:#0071bc}.st1{fill:#f1f2f2}</style><circle class="st0" cx="24.4" cy="24.1" r="18.6"/><path class="st1" d="M35.8 18.9c-.8.4-1.7.6-2.6.7.9-.6 1.6-1.4 2-2.5-.9.5-1.8.9-2.8 1.1-.8-.9-2-1.4-3.2-1.4-2.5 0-4.4 2-4.4 4.4 0 .3 0 .7.1 1-3.7-.2-7-2-9.2-4.6-.4.6-.7 1.4-.7 2.2 0 1.5.8 2.9 2 3.7-.7 0-1.4-.2-2-.6v.1c0 2.2 1.5 4 3.6 4.4-.4.1-.8.2-1.2.2-.3 0-.6 0-.8-.1.6 1.8 2.2 3.1 4.2 3.1-1.5 1.2-3.4 1.9-5.5 1.9-.4 0-.7 0-1.1-.1 2 1.3 4.3 2 6.8 2 8.2 0 12.7-6.8 12.7-12.7v-.6c.8-.6 1.5-1.3 2.1-2.2z"/></svg>