<svg id="Capa_1" xmlns="http://www.w3.org/2000/svg" viewBox="0 0 49 49"><style>.st0{fill:#0071bc}.st1{fill:#fff}</style><circle class="st0" cx="24.4" cy="24.1" r="18.6"/><path class="st1" d="M14.3 34.2l2-5.9c-1-1.7-1.6-3.6-1.6-5.7 0-6.2 5-11.2 11.2-11.2s11.2 5 11.2 11.2-5 11.2-11.2 11.2c-1.9 0-3.6-.5-5.2-1.3l-6.4 1.7z"/><path class="st0" d="M33 26.3c-.5-1-2.4-2.1-2.4-2.1-.4-.2-.9-.3-1.2.2 0 0-.6.7-.8.8-.7.5-1.4.5-2.1-.2L25 23.5l-1.6-1.6c-.7-.7-.7-1.3-.2-2.1.1-.2.8-.8.8-.8.4-.2.4-.8.2-1.2 0 0-1.1-1.9-2.1-2.4-.4-.2-.9-.1-1.3.2l-.7.7c-2.2 2.2-1.1 4.7 1.1 6.8l2 2 2 2c2.2 2.2 4.7 3.3 6.8 1.1l.7-.7c.5-.2.6-.7.3-1.2z"/></svg>