<svg width="1301" height="181" viewBox="0 0 1301 181" xmlns="http://www.w3.org/2000/svg"><title>landscape-chile</title><g fill="none" fill-rule="evenodd"><path fill="#1B2E44" d="M0 145h1301v36H0z"/><path fill="#253A59" fill-rule="nonzero" d="M0 145.5V60.4L43.915 38l123.122 26.9 133.85-40.4 187.69 50.1 177.764-44 104.173 11.7 131.443-22.2 95.85 9L1180.888 0 1300.7 62.3l.301 83.2z"/><g transform="translate(241 82)"><path d="M13.2 58.8c-4-6-6.4-13.3-6.4-21.1C6.8 16.9 23.5 0 44.1 0c20.6 0 37.3 16.9 37.3 37.7 0 7.4-2.1 14.3-5.7 20.1" fill="#2E3C59" fill-rule="nonzero"/><path d="M39.7 56.6c-2.8-3.8-4.5-8.5-4.5-13.5 0-12.6 10.2-22.8 22.8-22.8 12.6 0 22.8 10.2 22.8 22.8 0 5.5-2 10.6-5.3 14.6" stroke="#4979B2" stroke-width=".5" opacity=".31" stroke-dasharray="2"/><path d="M44 56c0-7.9 6.4-14.3 14.4-14.3 7.9 0 14.3 6.4 14.3 14.3" stroke="#A2CBED" stroke-width=".5" opacity=".31" stroke-dasharray="2"/><circle fill="#8D8CD1" fill-rule="nonzero" cx="44" cy="19.3" r="1"/><circle fill="#8D8CD1" fill-rule="nonzero" cx="72.6" cy="32.5" r="1"/><circle fill="#8D8CD1" fill-rule="nonzero" cx="44.3" cy="30.4" r="1"/><circle fill="#9587B1" fill-rule="nonzero" cx="74.9" cy="44.4" r="1"/><circle fill="#8D8CD1" fill-rule="nonzero" cx="60.5" cy="37.1" r="1"/><circle fill="#9587B1" fill-rule="nonzero" cx="48.9" cy="38.8" r="1"/><circle fill="#8D8CD1" fill-rule="nonzero" cx="68.5" cy="36.4" r="1"/><circle fill="#FFF" fill-rule="nonzero" cx="62.5" cy="26.5" r="1"/><circle fill="#9587B1" fill-rule="nonzero" cx="40.8" cy="40.2" r="1"/><circle fill="#8D8CD1" fill-rule="nonzero" cx="54.5" cy="30.8" r="1"/><circle fill="#8D8CD1" fill-rule="nonzero" cx="67.6" cy="48.2" r="1"/><g transform="translate(9 27)" fill-rule="nonzero"><path d="M2.2 11.9C2.2 5.6 7.3.4 13.7.4c6.3 0 11.5 5.1 11.5 11.5v4.6H2.3v-4.6h-.1z" fill="#386895"/><path d="M25.1 11.9C25.1 5.6 20 .4 13.7.4v16.1h11.4v-4.6z" fill="#273B7A"/><path d="M13.2.4c-.7 0-1.3.1-1.9.2 4.4 1.1 7.6 5.7 7.6 11.2v4.6h3.8v-4.6C22.8 5.6 18.5.4 13.2.4z" fill="#719EBC"/><circle fill="#FFF" cx="19.7" cy="6.5" r="1.5"/><path fill="#4979B2" d="M2.2 18.8h22.9V28H2.2z"/><path fill="#121149" d="M13.6 18.8H25V28H13.6z"/><path fill="#719EBC" d="M15.9 21.1h6.9V28h-6.9z"/><path d="M2.1 19.2h23c.7 0 1.3-.6 1.3-1.3v-.6c0-.7-.6-1.3-1.3-1.3h-23c-.7 0-1.3.6-1.3 1.3v.6c0 .7.6 1.3 1.3 1.3z" fill="#121149"/><path d="M25.1 16H13.6v3.2h11.5c.7 0 1.3-.6 1.3-1.3v-.6c0-.7-.6-1.3-1.3-1.3z" fill="#4979B2"/></g><path fill="#263351" fill-rule="nonzero" d="M8.3 55.9l14.4-5.6L34 54l8.8-2 8.9 3.9 12.9-7.8 11.3 10L.7 60.3z"/><circle fill="#FFF" fill-rule="nonzero" cx="52.7" cy="48.9" r="1"/><circle fill="#5A5B81" fill-rule="nonzero" cx="58.7" cy="45.4" r="1"/><circle fill="#FFF" fill-rule="nonzero" cx="22.6" cy="22.7" r="1"/><circle fill="#9587B1" fill-rule="nonzero" cx="32.1" cy="16.7" r="1"/><circle fill="#5A5B81" fill-rule="nonzero" cx="33.8" cy="29.3" r="1"/><circle fill="#5A5B81" fill-rule="nonzero" cx="19.5" cy="15" r="1"/><circle fill="#5A5B81" fill-rule="nonzero" cx="55.5" cy="15.3" r="1"/><circle fill="#FFF" fill-rule="nonzero" cx="54.5" cy="8.3" r="1"/><circle fill="#FFF" fill-rule="nonzero" cx="69.5" cy="17.4" r="1"/><circle fill="#FFF" fill-rule="nonzero" cx="33.8" cy="7.3" r="1"/><circle fill="#8D8CD1" fill-rule="nonzero" cx="46" cy="5.5" r="1"/></g><path fill="#191928" fill-rule="nonzero" d="M233.4 146.2l30.7-11.9 20.4 6.3 22.4-3.5 30.7 8.4z"/><g fill-rule="nonzero"><path d="M856.7 111.1s.1 0 .1-.1v.2c0 .1-.1.1-.1.2-.1.1.1.3.2.2h.1v.3c0 .2.2.2.3 0h.1c.1 0 .1-.1.1-.1v-.1.1c-.1.1-.1.1-.1.2-.1.1.1.2.3.1l.1-.1h.2v.1c0 .1-.1.2-.1.4s.2.3.3.1c.1-.1.1-.3.1-.4.1-.2.2-.3.3-.4l.2.2c.1.2.4 0 .3-.1 0-.1-.1-.2-.1-.4.1 0 .1-.1.2-.1s.1-.1.1-.1c1.5.5 3.1.6 4.6-.5 0 0-.1.1-.1.2-.1.2.1.5.3.3.2-.1.4-.3.5-.4v-.1.1c0 .1.1.1.1.1v.2c0 .2.2.3.3.2.1 0 .1-.1.2-.1 0 .1 0 .1.1.2 0 .1.1.1.1.1 0 .2.2.3.3.2.1.1.3 0 .4-.1.1-.2.1-.4.1-.6.1 0 .2.1.2.1s.1.1.2.1h.1c.1.1.2.2.3.2.2.1.4 0 .3-.2 0-.2-.1-.3-.1-.5.1.1.2.2.4.3l-.3 22.8h2l-.2-23.1.3-.3h.2v.1c0 .1.1.2.2.2l.1-.1c-.1 0-.1.1-.2.1-.2.1 0 .3.1.3h.3c.1 0 .1.1.2 0h.1l-.1.1c-.2.1-.1.3.1.3h.2l-.1.1c-.1.1 0 .4.2.3.2-.1.3-.2.4-.3 0 0 0 .1 0 0v.1s0-.1.1 0v.1c0 .1.1.2.2.2l.1-.1v.2c0 .1.1.1.1.1 0 .1.2.3.3.2.1.1.3 0 .3-.1 0-.2.1-.3.1-.5.1 0 .1.1.2.1 0 0 .1 0 .1.1h.1l.2.2c.1.1.3 0 .3-.2 0-.1-.1-.3-.1-.4l.3.3c.1.1.3 0 .3-.2-.1-.3-.3-.5-.4-.7.1.1.2.1.3.2.2.1.3-.1.2-.3-.2-.2-.5-.4-.7-.6.2.1.5.1.7.2.2 0 .3-.2.1-.3-.2-.1-.3-.2-.5-.2.2 0 .4-.1.6-.1.2 0 .1-.3-.1-.3h-.5c.1 0 .1-.1.2-.1s.1-.1.1-.2c.1-.1.1-.3-.1-.3s-.4 0-.5.1c.1-.1.1-.2.2-.3 0-.1 0-.2-.1-.2 1.3-.3 2.5-.9 3.4-1.9 0 0 .1.1.2.1h.3c.1.2.1.4.1.5 0 .3.4.3.4 0 0-.1 0-.3.1-.4l.6.3c.1.1.2.3.4.4.2.2.4-.1.3-.3-.1-.1-.2-.3-.4-.4l-.1-.1h.1s.1 0 .1-.1h.3c.2 0 .4-.2.2-.3-.1-.1-.2-.2-.3-.2v-.1l.1.1c.1.1.1.1.2.1h.1c.1.1.4 0 .3-.2-.1-.1-.1-.3-.2-.4h.3c.2.1.4-.3.1-.4-.1 0-.2-.1-.3-.1l-.1-.1v-.2h.2c.2 0 .3-.3.1-.4-.3-.1-.5-.1-.8-.1 0-.1.1-.2.1-.3.1-.2-.2-.4-.3-.2v.1c-.1-.1-.1-.1-.3-.2h-.1l-.1-.1v-.2c0-.1-.2-.2-.3-.2v-.1c.1-.2-.3-.3-.4-.1-.1.2-.1.3-.2.5 0-.2-.3-.2-.4 0-.1-.1-.4 0-.3.2 0 .1.1.3.1.4-.1-.1-.2-.2-.2-.3-.1-.1-.3-.1-.3 0-.2-.1-.4.1-.3.3 0 0 0 .1.1.1-.1 0-.1.1-.1.2 0 .2.1.3.1.4-.1 0-.2.2-.1.3.1.2.2.3.3.5-.1 0-.2-.1-.2-.1-.2-.1-.4.2-.2.3.1.1.2.3.3.4-.1.1-.2.1-.2.2-.1.1 0 .3.1.3h.3c-.9.8-2 1.3-3.1 1.6-.1 0-.1-.1-.2-.2.1 0 .2 0 .2-.1h.2c.2 0 .3-.2.1-.3-.2-.1-.3-.2-.5-.2.2 0 .4-.1.6-.1.2 0 .1-.3-.1-.3h-.2v-.1c.1 0 .1-.1.1-.2.1-.1.1-.3-.1-.3s-.3 0-.5.1c0-.1.1-.1.1-.2.1 0 .3.1.4.1.2 0 .3-.2.1-.4-.1 0-.2-.1-.2-.1v-.3c.1 0 .2 0 .3-.1.1 0 .1 0 .1-.1h.1l.2.2c.1.1.3 0 .3-.2 0-.1-.1-.3-.1-.4l.3.3c.1.1.3 0 .3-.2-.1-.2-.3-.5-.4-.7.1.1.2.1.3.2.2.1.3-.1.2-.3-.2-.2-.5-.4-.7-.6.2.1.5.1.7.2.2 0 .3-.2.1-.3-.2-.1-.3-.2-.5-.2.2 0 .4-.1.6-.1.2 0 .1-.3-.1-.3h-.5c.1 0 .1-.1.2-.1s.1-.1.1-.2c.1-.1.1-.3-.1-.3s-.4 0-.5.1c.1-.1.1-.2.2-.3.1-.2-.1-.3-.2-.2-.2.3-.6.6-1.3.8.7 0 .7-.1.7-.1h-.7s.4-.2.4 0h.2v.2h-.1c0-.1-.1-.2-.2-.3-.1-.1-.3-.1-.3.1v.3c0-.1-.1-.1-.1-.2s0-.2-.1-.2c-.2-.1-.3-.2-.5-.2.2 0 .4-.1.6-.1.2 0 .1-.3-.1-.3h-.5c.1 0 .1-.1.2-.1s.1-.1.1-.2c.1-.1.1-.3-.1-.3s-.4 0-.5.1c.1-.1.1-.2.2-.4s-.2-.3-.3-.2c-.2.3-.4.6-.7.9v-.6c0-.2-.1-.2-.2 0h.2v.1s-.1 0-.1.1h-.1c0-.1-.1-.2-.2-.3-.1-.1-.3-.1-.3.1v.2c-.1-.1-.2-.3-.3-.4-.1-.1-.3-.1-.3.1-.1-.1-.3 0-.3.1s.1.1.1.2c-.1 0-.2.1-.2.2s0 .1.1.2l-.1-.1c-.1-.1-.3 0-.3.1s0 .1.1.2c-.1 0-.2.1-.2.2l.3.3.1.1c-.1-.1-.2 0-.2.1-.1 0-.1.1-.2.1 0 0 0-.1-.1-.1-.1-.1-.2-.1-.3 0-.1 0-.2-.1-.3-.1.2 0 .4-.1.6-.1.2 0 .1-.3-.1-.3h-.5c.1 0 .1-.1.2-.1s.1-.1.1-.2c.1-.1.1-.3-.1-.3s-.4 0-.5.1c.1-.1.1-.2.2-.3.1-.2-.1-.3-.2-.2-.2.3-.3.5-.6.8v-.6c0-.2-.2-.2-.2 0h.3v.1s-.2 0-.2.1h-.3c0-.1-.1-.2-.2-.3 0-.1-.1-.1-.2-.1 0-.1-.1-.1-.2-.1h-.4.1c.1 0 .1-.1.1-.2.1-.1.1-.3-.1-.3s-.4 0-.5.1c.1-.1.1-.2.2-.4s-.1-.3-.2-.2c-.2.3-.2.6-.6.9v-.6s-.6-.2-.6 0h-.1.1v.1c-.3 0-.1 0-.2.1h.1c0-.1-.1-.2-.2-.3-.1-.1-.3-.1-.3.1v.2c-.1-.2-.2-.3-.3-.4-.1-.1-.3-.1-.3.1-.1-.1-.3 0-.3.1s.1.2.1.2c-.1 0-.2.1-.2.2s0 .1.1.2l-.1-.1c-.1-.1-.3 0-.3.1s0 .1.1.2c-.1 0-.2.1-.2.2l.3.3.1.1c-.3.1-.6.2-.9.4-.2.1 0 .3.1.3h.7c-.1 0-.1.1-.2.1-.2.1-.1.3.1.3h.2l-.1.1c-.1.1 0 .4.2.3.2-.1.3-.2.4-.3v.1h.1v.1c0 .1.1.2.2.2l.1-.1v.2c-.1 0-.2.1-.2.2l.3.3.1.2h-.3c-.3.1-.7.3-1 .4-.2.1 0 .4.1.3h.7c-.1 0-.1.1-.2.1-.2.1-.1.3.1.3h.2l-.1.1c-.1.1 0 .3.2.3v.2c-.1 0-.3.1-.2.3.1.1.2.3.3.3l.1.1c-.3.1-.7.3-1 .4-.2.1 0 .4.1.3h.7s-.1 0-.1.1c-.8-.1-1.6-.3-2.4-.7.1 0 .2 0 .3-.1.2-.1.2-.3.1-.4-.1-.1-.2-.1-.3-.2 0-.2.1-.4.2-.5.2-.2-.2-.4-.3-.2-.1.1-.2.1-.2.2.1-.2.1-.4.2-.6.1-.1 0-.2-.2-.2v-.4c0-.1-.1-.2-.2-.2v-.2c.1-.2-.2-.3-.4-.2-.1-.1-.3-.1-.4.1 0 .1-.1.2-.2.4v-.4c0-.2-.3-.3-.4-.1-.1-.2-.4-.1-.4.1-.1-.1-.2-.3-.4-.4-.2-.2-.5 0-.4.2v.1c-.1 0-.3.1-.2.3v.2l-.1.2h-.1c-.2.2-.2.2-.2.3l-.1-.1c-.2-.2-.5.1-.3.3.1.1.1.2.2.2-.3 0-.6.1-.8.3-.2.2 0 .4.2.4h.2v.4c-.1.1-.2.1-.3.2-.2.2 0 .5.2.3l.1-.1h.2c0 .1 0 .3-.1.4 0 .2.3.3.4.1h.1c.1 0 .2 0 .2-.1s.1-.1.1-.2v.1l-.3.3c-.1.2.1.4.3.3.1 0 .1-.1.2-.1h.3v.1c-.1.1-.2.3-.3.5-.1.2.2.4.4.2.1-.2.2-.3.3-.5.1-.2.3-.4.5-.5.1.1.1.2.2.4.1.3.5.1.4-.1v-.5c.1 0 .2 0 .3-.1.1 0 .1-.1.1-.1.9.6 2 .9 3.1 1-.1.1 0 .2 0 .2-.1 0-.2.2-.2.3.1.2.2.3.4.4 0 .1.1.1.1.2-.4.1-.8.3-1.1.5-.2.1 0 .4.2.4h.8c-.1 0-.1.1-.2.1s-.2.2-.1.3c-1.2.5-2.6.7-3.8.4.1 0 .1-.1.2-.1.1-.1.1-.2 0-.3-.1 0-.2 0-.2-.1s0-.3.1-.4c.1-.2-.2-.2-.3-.1 0 .1-.1.1-.1.2 0-.1 0-.3.1-.4 0-.1-.1-.1-.1-.1 0-.1 0-.2-.1-.3 0-.1-.1-.1-.1-.1v-.1c0-.1-.2-.2-.3-.1-.1 0-.2 0-.2.1s0 .2-.1.3c0-.1-.1-.2-.1-.3 0-.2-.3-.1-.3 0-.1-.1-.3 0-.3.1-.1-.1-.2-.2-.3-.2-.1-.1-.4.1-.2.2v.1c-.1 0-.2.1-.1.2l.1.1v.1c-.1.1-.1.2-.1.2h-.1c-.2-.1-.3.2-.2.3.1 0 .1.1.2.1l-.6.3c.2.6.3.7.5.6zm16.5-1.9l-.1-.1h.2s-.1 0-.1.1zm-.3.3c0 .1 0 .1 0 0-.1 0-.1 0-.1-.1 0 .1.1.1.1.1zm-8.7-3.6s0-.1 0 0c.1 0 .1.1.1.1 0-.1-.1-.1-.1-.1zm2-4.2c-.1 0 0 0 0 0zm5.5 1.1s.1 0 0 0c.1 0 .1.1.1.1l-.1-.1zm.9 3.9c-.1 0-.1-.1 0 0-.1-.1 0-.1 0 0 0-.1 0 0 0 0z" fill="#191928"/><path d="M884.8 117.8s.1 0 .1-.1v.2c0 .1-.1.1-.1.2-.1.1.1.3.2.2h.1v.3c0 .2.2.2.3 0h.1c.1 0 .1-.1.1-.1v-.1.1c-.1.1-.1.1-.1.2-.1.1.1.2.3.1l.1-.1h.2v.1c0 .1-.1.2-.1.4s.2.3.3.1c.1-.1.1-.3.1-.4.1-.2.2-.3.3-.4l.2.2c.1.2.4 0 .3-.1 0-.1-.1-.2-.1-.4.1 0 .1-.1.2-.1s.1-.1.1-.1c1.5.5 3.1.6 4.6-.5 0 0-.1.1-.1.2-.1.2.1.5.3.3.2-.1.4-.3.5-.4v-.1.1c0 .1.1.1.1.1v.2c0 .2.2.3.3.2.1 0 .1-.1.2-.1 0 .1 0 .1.1.2 0 .1.1.1.1.1 0 .2.2.3.3.2.1.1.3 0 .4-.1.1-.2.1-.4.1-.6.1 0 .2.1.2.1s.1.1.2.1h.1c.1.1.2.2.3.2.2.1.4 0 .3-.2 0-.2-.1-.3-.1-.5.1.1.2.2.4.3l-.3 22.8h2l-.2-23.1.3-.3h.2v.1c0 .1.1.2.2.2l.1-.1c-.1 0-.1.1-.2.1-.2.1 0 .3.1.3h.3c.1 0 .1.1.2 0h.1l-.1.1c-.2.1-.1.3.1.3h.2l-.1.1c-.1.1 0 .4.2.3.2-.1.3-.2.4-.3 0 0 0 .1 0 0v.1s0-.1.1 0v.1c0 .1.1.2.2.2l.1-.1v.2c0 .1.1.1.1.1 0 .1.2.3.3.2.1.1.3 0 .3-.1 0-.2.1-.3.1-.5.1 0 .1.1.2.1 0 0 .1 0 .1.1h.1l.2.2c.1.1.3 0 .3-.2 0-.1-.1-.3-.1-.4l.3.3c.1.1.3 0 .3-.2-.1-.3-.3-.5-.4-.7.1.1.2.1.3.2.2.1.3-.1.2-.3-.2-.2-.5-.4-.7-.6.2.1.5.1.7.2.2 0 .3-.2.1-.3-.2-.1-.3-.2-.5-.2.2 0 .4-.1.6-.1.2 0 .1-.3-.1-.3h-.5c.1 0 .1-.1.2-.1s.1-.1.1-.2c.1-.1.1-.3-.1-.3s-.4 0-.5.1c.1-.1.1-.2.2-.3 0-.1 0-.2-.1-.2 1.3-.3 2.5-.9 3.4-1.9 0 0 .1.1.2.1h.3c.1.2.1.4.1.5 0 .3.4.3.4 0 0-.1 0-.3.1-.4l.6.3c.1.1.2.3.4.4.2.2.4-.1.3-.3-.1-.1-.2-.3-.4-.4l-.1-.1h.1s.1 0 .1-.1h.3c.2 0 .4-.2.2-.3-.1-.1-.2-.2-.3-.2v-.1l.1.1c.1.1.1.1.2.1h.1c.1.1.4 0 .3-.2-.1-.1-.1-.3-.2-.4h.3c.2.1.4-.3.1-.4-.1 0-.2-.1-.3-.1l-.1-.1v-.2h.2c.2 0 .3-.3.1-.4-.3-.1-.5-.1-.8-.1 0-.1.1-.2.1-.3.1-.2-.2-.4-.3-.2v.1c-.1-.1-.1-.1-.3-.2h-.1l-.1-.1v-.2c0-.1-.2-.2-.3-.2v-.1c.1-.2-.3-.3-.4-.1-.1.2-.1.3-.2.5 0-.2-.3-.2-.4 0-.1-.1-.4 0-.3.2 0 .1.1.3.1.4-.1-.1-.2-.2-.2-.3-.1-.1-.3-.1-.3 0-.2-.1-.4.1-.3.3 0 0 0 .1.1.1-.1 0-.1.1-.1.2 0 .2.1.3.1.4-.1 0-.2.2-.1.3.1.2.2.3.3.5-.1 0-.2-.1-.2-.1-.2-.1-.4.2-.2.3.1.1.2.3.3.4-.1.1-.2.1-.2.2-.1.1 0 .3.1.3h.3c-.9.8-2 1.3-3.1 1.6-.1 0-.1-.1-.2-.2.1 0 .2 0 .2-.1h.2c.2 0 .3-.2.1-.3-.2-.1-.3-.2-.5-.2.2 0 .4-.1.6-.1.2 0 .1-.3-.1-.3h-.2v-.1c.1 0 .1-.1.1-.2.1-.1.1-.3-.1-.3s-.3 0-.5.1c0-.1.1-.1.1-.2.1 0 .3.1.4.1.2 0 .3-.2.1-.4-.1 0-.2-.1-.2-.1v-.3c.1 0 .2 0 .3-.1.1 0 .1 0 .1-.1h.1l.2.2c.1.1.3 0 .3-.2 0-.1-.1-.3-.1-.4l.3.3c.1.1.3 0 .3-.2-.1-.2-.3-.5-.4-.7.1.1.2.1.3.2.2.1.3-.1.2-.3-.2-.2-.5-.4-.7-.6.2.1.5.1.7.2.2 0 .3-.2.1-.3-.2-.1-.3-.2-.5-.2.2 0 .4-.1.6-.1.2 0 .1-.3-.1-.3h-.5c.1 0 .1-.1.2-.1s.1-.1.1-.2c.1-.1.1-.3-.1-.3s-.4 0-.5.1c.1-.1.1-.2.2-.3.1-.2-.1-.3-.2-.2-.2.3-.6.6-1.3.8v-.5c.7 0 .7-.1.7-.1h-.7s.4-.2.4 0h.2v.2h-.1c0-.1-.1-.2-.2-.3-.1-.1-.3-.1-.3.1v.3c0-.1-.1-.1-.1-.2s0-.2-.1-.2c-.2-.1-.3-.2-.5-.2.2 0 .4-.1.6-.1.2 0 .1-.3-.1-.3h-.5c.1 0 .1-.1.2-.1s.1-.1.1-.2c.1-.1.1-.3-.1-.3s-.4 0-.5.1c.1-.1.1-.2.2-.4s-.2-.3-.3-.2c-.2.3-.4.6-.7.9v-.6c0-.2-.1-.2-.2 0h.2v.1s-.1 0-.1.1h-.1c0-.1-.1-.2-.2-.3-.1-.1-.3-.1-.3.1v.2c-.1-.1-.2-.3-.3-.4-.1-.1-.3-.1-.3.1-.1-.1-.3 0-.3.1s.1.1.1.2c-.1 0-.2.1-.2.2s0 .1.1.2l-.1-.1c-.1-.1-.3 0-.3.1s0 .1.1.2c-.1 0-.2.1-.2.2l.3.3.1.1c-.1-.1-.2 0-.2.1-.1 0-.1.1-.2.1 0 0 0-.1-.1-.1-.1-.1-.2-.1-.3 0-.1 0-.2-.1-.3-.1.2 0 .4-.1.6-.1.2 0 .1-.3-.1-.3h-.5c.1 0 .1-.1.2-.1s.1-.1.1-.2c.1-.1.1-.3-.1-.3s-.4 0-.5.1c.1-.1.1-.2.2-.3.1-.2-.1-.3-.2-.2-.2.3-.3.5-.6.8v-.6c0-.2-.2-.2-.2 0h.3v.1s-.2 0-.2.1h-.3c0-.1-.1-.2-.2-.3 0-.1-.1-.1-.2-.1 0-.1-.1-.1-.2-.1h-.4.1c.1 0 .1-.1.1-.2.1-.1.1-.3-.1-.3s-.4 0-.5.1c.1-.1.1-.2.2-.4s-.1-.3-.2-.2c-.2.3-.2.6-.6.9v-.6s-.6-.2-.6 0h-.1.1v.1c-.3 0-.1 0-.2.1h.1c0-.1-.1-.2-.2-.3-.1-.1-.3-.1-.3.1v.2c-.1-.2-.2-.3-.3-.4-.1-.1-.3-.1-.3.1-.1-.1-.3 0-.3.1s.1.2.1.2c-.1 0-.2.1-.2.2s0 .1.1.2l-.1-.1c-.1-.1-.3 0-.3.1s0 .1.1.2c-.1 0-.2.1-.2.2l.3.3.1.1c-.3.1-.6.2-.9.4-.2.1 0 .3.1.3h.7c-.1 0-.1.1-.2.1-.2.1-.1.3.1.3h.2l-.1.1c-.1.1 0 .4.2.3.2-.1.3-.2.4-.3v.1h.1v.1c0 .1.1.2.2.2l.1-.1v.2c-.1 0-.2.1-.2.2l.3.3.1.2h-.3c-.3.1-.7.3-1 .4-.2.1 0 .4.1.3h.7c-.1 0-.1.1-.2.1-.2.1-.1.3.1.3h.2l-.1.1c-.1.1 0 .3.2.3v.2c-.1 0-.3.1-.2.3.1.1.2.3.3.3l.1.1c-.3.1-.7.3-1 .4-.2.1 0 .4.1.3h.7s-.1 0-.1.1c-.8-.1-1.6-.3-2.4-.7.1 0 .2 0 .3-.1.2-.1.2-.3.1-.4-.1-.1-.2-.1-.3-.2 0-.2.1-.4.2-.5.2-.2-.2-.4-.3-.2-.1.1-.2.1-.2.2.1-.2.1-.4.2-.6.1-.1 0-.2-.2-.2v-.4c0-.1-.1-.2-.2-.2v-.2c.1-.2-.2-.3-.4-.2-.1-.1-.3-.1-.4.1 0 .1-.1.2-.2.4v-.4c0-.2-.3-.3-.4-.1-.1-.2-.4-.1-.4.1-.1-.1-.2-.3-.4-.4-.2-.2-.5 0-.4.2v.1c-.1 0-.3.1-.2.3v.2l-.1.2h-.1c-.2.2-.2.2-.2.3l-.1-.1c-.2-.2-.5.1-.3.3.1.1.1.2.2.2-.3 0-.6.1-.8.3-.2.2 0 .4.2.4h.2v.4c-.1.1-.2.1-.3.2-.2.2 0 .5.2.3l.1-.1h.2c0 .1 0 .3-.1.4 0 .2.3.3.4.1h.1c.1 0 .2 0 .2-.1s.1-.1.1-.2v.1l-.3.3c-.1.2.1.4.3.3.1 0 .1-.1.2-.1h.3v.1c-.1.1-.2.3-.3.5-.1.2.2.4.4.2.1-.2.2-.3.3-.5.1-.2.3-.4.5-.5.1.1.1.2.2.4.1.3.5.1.4-.1v-.5c.1 0 .2 0 .3-.1.1 0 .1-.1.1-.1.9.6 2 .9 3.1 1-.1.1 0 .2 0 .2-.1 0-.2.2-.2.3.1.2.2.3.4.4 0 .1.1.1.1.2-.4.1-.8.3-1.1.5-.2.1 0 .4.2.4h.8c-.1 0-.1.1-.2.1s-.2.2-.1.3c-1.2.5-2.6.7-3.8.4.1 0 .1-.1.2-.1.1-.1.1-.2 0-.3-.1 0-.2 0-.2-.1s0-.3.1-.4c.1-.2-.2-.2-.3-.1 0 .1-.1.1-.1.2 0-.1 0-.3.1-.4 0-.1-.1-.1-.1-.1 0-.1 0-.2-.1-.3 0-.1-.1-.1-.1-.1v-.1c0-.1-.2-.2-.3-.1-.1 0-.2 0-.2.1s0 .2-.1.3c0-.1-.1-.2-.1-.3 0-.2-.3-.1-.3 0-.1-.1-.3 0-.3.1-.1-.1-.2-.2-.3-.2-.1-.1-.4.1-.2.2v.1c-.1 0-.2.1-.1.2l.1.1v.1c-.1.1-.1.2-.1.2h-.1c-.2-.1-.3.2-.2.3.1 0 .1.1.2.1l-.6.3c.2 1.1.4 1.2.5 1.1zm16.5-1.9l-.1-.1h.2l-.1.1zm-.2.4c-.1 0-.1 0 0 0-.1 0-.1 0-.1-.1l.1.1zm-8.7-3.7c.1 0 .1.1.1.1-.1 0-.1-.1-.1-.1zm1.9-4.2zm5.5 1.1c.1 0 .1 0 0 0 .1 0 .1.1.1.1s0-.1-.1-.1zm.9 3.9s0-.1 0 0c0-.1 0-.1 0 0z" fill="#4979B2"/><path fill="#273B7A" d="M847 145l13.2-24 4.7 12.8 5.2-1.1 21.5 10.7 2.5 1-47.1.6"/><path fill="#273B7A" d="M858.3 144.9L871 133l47 12z"/></g><g fill-rule="nonzero"><path d="M828.5 119.9v2.2c0 .2.4.2.4.2V120c-.1 0-.3-.1-.4-.1z" fill="#4979B2"/><path d="M828.9 122.3s.4 0 .4-.2v-2.2h-.4v2.4z" fill="#191928"/><path d="M829.3 106.5c0-.1-.1-.2-.1-.3 0 .1.1.2.1.3zm-.1-.3z" fill="#7CDAAF"/><path d="M828.9 117.5V106c-.1 0-.3.1-.3.3-.8 2.6-2.5 9-2.5 10.9 0 1.5 1.1 2.6 2.5 2.8h.4v-2.5h-.1z" fill="#4979B2"/><path d="M831.7 116.8c-.1-2.1-1.6-7.6-2.4-10.3 0-.1-.1-.2-.1-.3 0-.1-.1-.2-.2-.2h-.3v14h.5c.4-.1.7-.2 1-.4 0 0 .1 0 .1-.1.3-.2.6-.5.8-.9.1-.1.1-.2.2-.4 0-.1.1-.2.1-.3.1-.3.1-.6.1-.8.2-.1.2-.2.2-.3zm10-7.6l.1 3.8-1.7 2.2c-.8.6-1.9 1-3 1-2.8 0-5.1-2.3-5.1-5.1s2.3-5.1 5.1-5.1c2 .1 3.8 1.4 4.6 3.2z" fill="#386895"/><path d="M834.2 111.2c0-2.4 1.7-4.4 4-4.9-.4-.1-.7-.1-1.1-.1-2.8 0-5.1 2.3-5.1 5.1s2.3 5.1 5.1 5.1c.4 0 .7 0 1.1-.1-2.3-.7-4-2.7-4-5.1z" fill="#4979B2"/><path fill="#29293A" d="M838.3 114.7l-.9.7v-1.9l1.2-.8-.3-.4-.9.6v-1.1h-.7v2.2l-1.6-1-.3.4 1.9 1.2v3.2l-.9-.6-.3.4 1.2.8v4.6h.7v-7.1l1.2-.8z"/><g transform="translate(760 120)"><path d="M20.9 24.9L65 8.4l-1.1-1.7C53.2 6.7 34.7-.9.9 1.8c0 8.3 4.4 15.9 11.5 21.7 4.6.7 8.5 1.4 8.5 1.4z" fill="#3D3D5B"/><path d="M64.3 6.6C57.4 6.6 46 .2 25.9 1.2c17.8 0 28.7 8 34.3 8l1.6-.6 2.5-1.9v-.1z" fill="#6C91CC"/><path d="M5 15.4C11.7 27 26.7 35 44.1 35 67.8 35 87 20.1 87 1.7v-1C60.5.8 48.5 15.3 5.1 15.3v.1H5z" fill="#344C68"/><path d="M87 4.1c-18.8-.1-45.8 20-72.1 21.5 7.6 5.7 17.9 9.3 29.3 9.4 22.6.1 41.2-13.5 42.8-30.9z" fill="#4979B2"/><circle fill="#3D3D5B" cx="45.6" cy="26.7" r="1"/><circle fill="#3D3D5B" cx="49.8" cy="16.6" r="1"/><circle fill="#3D3D5B" cx="73.3" cy="5.2" r="1"/><circle fill="#3D3D5B" cx="58.6" cy="28.1" r="1"/><circle fill="#3D3D5B" cx="63.3" cy="22.8" r="1"/><circle fill="#3D3D5B" cx="53.4" cy="24" r="1"/><circle fill="#3D3D5B" cx="38.9" cy="27.6" r="1"/><circle fill="#3D3D5B" cx="39.8" cy="20.3" r="1"/><circle fill="#3D3D5B" cx="54.5" cy="13.4" r="1"/><circle fill="#3D3D5B" cx="32.7" cy="19.9" r="1"/><circle fill="#3D3D5B" cx="69.3" cy="19" r="1"/><circle fill="#3D3D5B" cx="61.7" cy="18.1" r="1"/><circle fill="#3D3D5B" cx="69.3" cy="24.8" r="1"/><circle fill="#3D3D5B" cx="72.2" cy="14.2" r="1"/><circle fill="#3D3D5B" cx="78" cy="9.2" r="1"/><circle fill="#3D3D5B" cx="78" cy="16.6" r="1"/></g><path d="M788.3 122.1h-5.2c-2.7 0-4.8-2.5-4.2-5.1l.7-3.5c.6-2.8 3.1-4.9 6.1-4.9 2.9 0 5.5 2 6.1 4.9l.7 3.5c.5 2.6-1.5 5.1-4.2 5.1zm-2.1 3.4c0 .3-.2.5-.5.5h-5.8c-.3 0-.5-.2-.5-.5s.2-.5.5-.5h5.8c.3 0 .5.2.5.5zm3.7 2.3h-2.1c-.3 0-.5.2-.5.5s.2.5.5.5h2.1c.3 0 .5-.2.5-.5s-.2-.5-.5-.5zm-7.2.7h-2.1c-.3 0-.5.2-.5.5s.2.5.5.5h2.1c.3 0 .5-.2.5-.5s-.2-.5-.5-.5zm-2.1 3.5h-2.1c-.3 0-.5.2-.5.5s.2.5.5.5h2.1c.3 0 .5-.2.5-.5s-.2-.5-.5-.5zm12.8-7.7h-2.1c-.3 0-.5.2-.5.5s.2.5.5.5h2.1c.3 0 .5-.2.5-.5s-.2-.5-.5-.5z" fill="#4979B2"/><path d="M786.2 117.1v8.4c0 .3-.2.5-.5.5s-.5-.2-.5-.5v-8.4c0-.3.2-.5.5-.5s.5.2.5.5z" fill="#191928"/><path fill="#4979B2" d="M847 124.1V145l-12.2-.1"/><path fill="#4979B2" d="M846.9 120.7l13.1.3-13 24z"/></g><g fill-rule="nonzero"><path fill="#6C91CC" d="M992 106.5l19-6.6 66.4 45.2-43.1-1.5z"/><path fill="#3D3D5B" d="M946 145.1l42.3-42.3 85.4 42.3z"/><g fill="#191928"><path d="M998.3 133.738c-.8 0-1.5.7-1.5 1.5v9.6c0 .2.2.4.4.4h2.1s.4-.1.2-.4v-1.8c1.3 0 2.1-.7 2.4-1.4h5.6v3.2c.2.2.7.4.7.4h2.5c.2 0 .4-.2.4-.4v-3.1c0-.4.2-.8.5-1.1l2.6-2.5.6.6c.1.1.3.1.5 0l1.4-1c.3-.2.4-.6.2-.9l-1.5-2.5c-.3-.4-.8-.7-1.3-.7h-15.8v.1zm.2.8h15.1c.3 0 .6.2.7.4l1.4 2.2-.9.6-.3-.3c-.3-.3-.9-.3-1.2 0l-2.5 2.4c-.5.5-.8 1.2-.8 1.9v2.4h-1.8v-3.5c.2-.2-.2-.1-.2-.1h-6.6s-.4-.2-.4.1c0 .7-.6 1.3-1.5 1.3v-1.4h-.9v3.5h-.9v-8.8c0-.3.4-.7.8-.7z"/><path d="M1015.3 131.938c0 .1-.8 1.4-1.5 1.8h-.2v.9h.4c1.2 0 2.2-1 2.2-2.2v-.4h-.9v-.1zm-18.7 3.1c0 .7-.6 1.3-1.3 1.3h-.3v.9h.2c1.2 0 2.2-1 2.2-2.2h-.8z"/><path d="M1012.4 134.5c.6 0 1.2 0 1.8.3 1 .5 1.5 1.7 2 2.7-.1.4-.7.5-1.2.4-.4-.1-.9-.4-1.3-.3-.5.1-.8.5-1.1.9-.7.8-1.4 1.4-2 2.3-.5.9.1 3.4 0 3.7-.1.2-.3.3-.5.3-.7.2-1.4.3-2.1.2-.3-.8-.3-1.6-.2-2.4.1-.4.2-1-.1-1.3-.2-.1-.4-.1-.6-.1-1.8-.1-3.6-.1-5.4-.2-.5.9-1.4 1.5-2.4 1.5 0-.5-.1-1.1-.3-1.5v4c-.6.1-1.1-.3-1.4-.8-.3-.5-.3-1.1-.3-1.7v-6.3c0-2 1.5-1.6 3.1-1.6 4-.1 8-.1 12-.1z"/></g></g><path fill="#719EBC" fill-rule="nonzero" d="M932.3 126l-23.1 19h31.1zm31.7 2.1l20.8 16.9h-23.7"/><path d="M937.9 139h1v6.9h-1zm40.1 0h1v6.9h-1z"/><path d="M966.7 139v-8.3L949.3 115c-1.5-1.4-3.8-1.4-5.3 0l-17.4 15.7v15.2h40.1V139z" fill="#719EBC" fill-rule="nonzero"/><path d="M986 141c-.1-.1-.3-.1-.4-.2-2.6-1.2-6.2-.1-7.5 2.3-.9-.5-2.2-.1-2.6.8-.3-.7-1.5-.8-1.9-.2-.4-.6-1.1-.9-1.8-.9s-1.4.5-1.6 1.1c.2-1.4-1.1-2.9-2.7-3-1.6 0-3 1.4-2.9 2.8-.2-.4-.8-.6-1.3-.5-.5.1-.8.6-.8 1.1-.4-.6-1.6-.3-1.8.4-.1-.6-.7-1.1-1.3-1.1-.6 0-1.2.5-1.3 1.1-.7-.4-1.7-.5-2.5-.1.2-.8-.7-1.6-1.6-1.4-.1-.9-1.6-1.4-2.3-.7-.5-.8-2-.9-2.6-.2 0-1.2-1.3-2.3-2.7-2.3-1.4 0-2.5 1.2-2.5 2.5-.6-.5-1.6-.3-1.9.4-.2-.7-.9-1.2-1.6-1.2v4.1H986V141z" fill="#3C5A75" fill-rule="nonzero"/><path d="M959.2 123.8l-9.8-8.9c-1.5-1.4-3.8-1.4-5.3 0l-11.7 10.6c.2.1.4.1.6.1.3 0 .6-.2.9-.4 1.5-.9 2.9-1.7 4.4-2.6.4-.3.9-.5 1.4-.6.5-.1 1.1.1 1.4.5.4.6.2 1.6.8 2 .3.3.8.2 1.2 0 .4-.2.7-.5 1.1-.6 1.3-.6 2.8-.1 4.2.3 3.4 1.1 7.3.9 10.8-.4z" fill="#FFF" fill-rule="nonzero"/><path d="M943.5 141c-.1-.1-.2-.1-.3-.2-2-1.2-4.7-.1-5.7 2.3-.7-.5-1.6-.1-2 .8-.2-.7-1.2-.8-1.5-.2-.3-.6-.8-.9-1.4-.9-.5 0-1 .5-1.2 1.1.2-1.4-.8-2.9-2-3-1.2 0-2.3 1.4-2.2 2.8-.2-.4-.6-.6-1-.5-.4.1-.6.6-.6 1.1-.3-.6-1.2-.3-1.3.4-.1-.6-.5-1.1-1-1.1s-.9.5-1 1.1c-.6-.4-1.3-.5-1.9-.1.1-.8-.6-1.6-1.2-1.4-.1-.9-1.2-1.4-1.7-.7-.4-.8-1.5-.9-2-.2 0-1.2-1-2.3-2-2.3s-1.9 1.2-1.9 2.5c-.4-.5-1.2-.3-1.4.4-.2-.7-.7-1.2-1.2-1.2v4.1h34.5V141z" fill="#3C5A75" fill-rule="nonzero"/><path d="M928 144.138c-1 0-2.1.1-2.9.2l-5.7 1.2c-.6.1-1.6.1-2.2 0l-7.5-1.3c-.6-.1-1.5-.1-1.9 0-.5.1-.4.3.2.4l7.5 1.3c1.7.3 4.2.3 5.8 0l5.7-1.2c.5-.1 1.5-.1 2 0l5.7 1.2c1.6.3 4.1.3 5.7 0l5.7-1.2c.5-.1 1.5-.1 2 0l5.7 1.2c1.6.3 4.1.3 5.7 0l5.7-1.2c.5-.1 1.5-.1 2 0l5.7 1.2c1.6.3 4.1.3 5.8 0l7.5-1.3c.6-.1.7-.3.3-.4-.5-.1-1.3-.2-1.9-.1h-.1l-7.5 1.3c-.6.1-1.7.1-2.2 0l-5.7-1.2c-1.6-.3-4.1-.3-5.7 0l-5.7 1.2c-.5.1-1.5.1-2 0l-5.7-1.2c-1.6-.3-4.1-.3-5.7 0l-5.7 1.2c-.5.1-1.5.1-2 0l-5.7-1.2c-.9 0-1.9-.1-2.9-.1zm0 2.8c-1 0-2.1.1-2.9.2l-5.7 1.2c-.6.1-1.6.1-2.2 0l-7.5-1.3c-.6-.1-1.5-.1-1.9 0-.4.1-.4.3.2.4l7.5 1.3c1.7.3 4.2.3 5.8 0l5.7-1.2c.5-.1 1.5-.1 2 0l5.7 1.2c1.6.3 4.1.3 5.7 0l5.7-1.2c.5-.1 1.5-.1 2 0l5.7 1.2c1.6.3 4.1.3 5.7 0l5.7-1.2c.5-.1 1.5-.1 2 0l5.7 1.2c1.6.3 4.1.3 5.8 0l7.5-1.3c.6-.1.7-.3.3-.4-.5-.1-1.3-.2-1.9-.1h-.1l-7.5 1.3c-.6.1-1.7.1-2.2 0l-5.7-1.2c-1.6-.3-4.1-.3-5.7 0l-5.7 1.2c-.5.1-1.5.1-2 0l-5.7-1.2c-1.6-.3-4.1-.3-5.7 0l-5.7 1.2c-.5.1-1.5.1-2 0l-5.7-1.2c-.9-.1-1.9-.1-2.9-.1zm0 2.7c-1 0-2.1.1-2.9.2l-5.7 1.2c-.6.1-1.6.1-2.2 0l-7.5-1.3c-.6-.1-1.5-.1-1.9 0-.5.1-.4.3.2.4l7.5 1.3c1.7.3 4.2.3 5.8 0l5.7-1.2c.5-.1 1.5-.1 2 0l5.7 1.2c1.6.3 4.1.3 5.7 0l5.7-1.2c.5-.1 1.5-.1 2 0l5.7 1.2c1.6.3 4.1.3 5.7 0l5.7-1.2c.5-.1 1.5-.1 2 0l5.7 1.2c1.6.3 4.1.3 5.8 0l7.5-1.3c.6-.1.7-.3.3-.4-.5-.1-1.3-.2-1.9-.1h-.1l-7.5 1.3c-.6.1-1.7.1-2.2 0l-5.7-1.2c-1.6-.3-4.1-.3-5.7 0l-5.7 1.2c-.5.1-1.5.1-2 0l-5.7-1.2c-1.6-.3-4.1-.3-5.7 0l-5.7 1.2c-.5.1-1.5.1-2 0l-5.7-1.2c-.9-.1-1.9-.1-2.9-.1zm0 2.7c-1 0-2.1.1-2.9.2l-5.7 1.2c-.6.1-1.6.1-2.2 0l-7.5-1.3c-.6-.1-1.5-.1-1.9 0-.4.1-.4.3.2.4l7.5 1.3c1.7.3 4.2.3 5.8 0l5.7-1.2c.5-.1 1.5-.1 2 0l5.7 1.2c1.6.3 4.1.3 5.7 0l5.7-1.2c.5-.1 1.5-.1 2 0l5.7 1.2c1.6.3 4.1.3 5.7 0l5.7-1.2c.5-.1 1.5-.1 2 0l5.7 1.2c1.6.3 4.1.3 5.8 0l7.5-1.3c.6-.1.7-.3.3-.4-.5-.1-1.3-.2-1.9-.1h-.1l-7.5 1.3c-.6.1-1.7.1-2.2 0l-5.7-1.2c-1.6-.3-4.1-.3-5.7 0l-5.7 1.2c-.5.1-1.5.1-2 0l-5.7-1.2c-1.6-.3-4.1-.3-5.7 0l-5.7 1.2c-.5.1-1.5.1-2 0l-5.7-1.2c-.9 0-1.9-.1-2.9-.1zm109.3-22.138c1.4 0 2.5-1.1 2.5-2.5v-1h-1c-1.4 0-2.5 1.1-2.5 2.5h-.4c0-1.4-1.1-2.5-2.5-2.5h-1v1c0 1.4 1.1 2.5 2.5 2.5h.8v1.7c-.3-1-1.3-1.7-2.4-1.7h-1v1c0 1.4 1.1 2.5 2.5 2.5h.8v1.7c-.3-1-1.3-1.7-2.4-1.7h-1v1c0 1.4 1.1 2.5 2.5 2.5h.8v1.7c-.3-1-1.3-1.7-2.4-1.7h-1v1c0 1.4 1.1 2.5 2.5 2.5h.8v4.7h.6v-4.7h.8c1.4 0 2.5-1.1 2.5-2.5v-1h-1c-1.1 0-2 .7-2.4 1.7v-1.7h.8c1.4 0 2.5-1.1 2.5-2.5v-1h-1c-1.1 0-2 .7-2.4 1.7v-1.7h.8c1.4 0 2.5-1.1 2.5-2.5v-1h-1c-1.1 0-2 .7-2.4 1.7v-1.7h1.6z" fill-rule="nonzero" fill="#4979B2"/><path d="M1037.3 130.2c1.4 0 2.5-1.1 2.5-2.5v-1h-1c-1.4 0-2.5 1.1-2.5 2.5h-.2v16h.3v-4.7h.8c1.4 0 2.5-1.1 2.5-2.5v-1h-1c-1.1 0-2 .7-2.4 1.7V137h.8c1.4 0 2.5-1.1 2.5-2.5v-1h-1c-1.1 0-2 .7-2.4 1.7v-1.7h.8c1.4 0 2.5-1.1 2.5-2.5v-1h-1c-1.1 0-2 .7-2.4 1.7V130l1.2.2z" fill="#292935" fill-rule="nonzero"/><path d="M1026.7 130.3c1.4 0 2.5-1.1 2.5-2.5v-1h-1c-1.4 0-2.5 1.1-2.5 2.5h-.4c0-1.4-1.1-2.5-2.5-2.5h-1v1c0 1.4 1.1 2.5 2.5 2.5h.8v1.7c-.3-1-1.3-1.7-2.3-1.7h-1v1c0 1.4 1.1 2.5 2.5 2.5h.8v1.7c-.3-1-1.3-1.7-2.3-1.7h-1v1c0 1.4 1.1 2.5 2.5 2.5h.8v1.7c-.3-1-1.3-1.7-2.3-1.7h-1v1c0 1.4 1.1 2.5 2.5 2.5h.8v4.7h.6v-4.7h.8c1.4 0 2.5-1.1 2.5-2.5v-1h-1c-1.1 0-2 .7-2.3 1.7v-1.7h.8c1.4 0 2.5-1.1 2.5-2.5v-1h-1c-1.1 0-2 .7-2.3 1.7v-1.7h.8c1.4 0 2.5-1.1 2.5-2.5v-1h-1c-1.1 0-2 .7-2.3 1.7v-1.7h1z" fill="#435D82" fill-rule="nonzero"/><path d="M1047.5 130.2c1.4 0 2.5-1.1 2.5-2.5v-1h-1c-1.4 0-2.5 1.1-2.5 2.5h-.4c0-1.4-1.1-2.5-2.5-2.5h-1v1c0 1.4 1.1 2.5 2.5 2.5h.8v1.7c-.3-1-1.3-1.7-2.4-1.7h-1v1c0 1.4 1.1 2.5 2.5 2.5h.8v1.7c-.3-1-1.3-1.7-2.4-1.7h-1v1c0 1.4 1.1 2.5 2.5 2.5h.8v1.7c-.3-1-1.3-1.7-2.4-1.7h-1v1c0 1.4 1.1 2.5 2.5 2.5h.8v4.7h.6v-4.7h.8c1.4 0 2.5-1.1 2.5-2.5v-1h-1c-1.1 0-2 .7-2.4 1.7v-1.7h.8c1.4 0 2.5-1.1 2.5-2.5v-1h-1c-1.1 0-2 .7-2.4 1.7v-1.7h.8c1.4 0 2.5-1.1 2.5-2.5v-1h-1c-1.1 0-2 .7-2.4 1.7v-1.7h1.6z" fill="#292935" fill-rule="nonzero"/><g fill-rule="nonzero"><path fill="#292935" d="M1097.4 116.8l16.9.1-5.3 1.8h-10.3z"/><path fill="#435D82" d="M1107.6 118.6l10.4-4.8 11 4.8V131h-21.4z"/><path fill="#253A59" d="M1096.6 118.7h11v11h-11z"/><path fill="#435D82" d="M1075.7 118.1h10.4v12.2h-10.4z"/><path fill="#435D82" d="M1086.1 118.1h10.4v12.2h-10.4z"/><path fill="#292935" d="M1078.2 120h5.5v5.5h-5.5z"/><path fill="#435D82" d="M1078.8 120.6h1.8v1.8h-1.8zm2.5 0h1.8v1.8h-1.8zm-2.5 2.4h1.8v1.8h-1.8zm2.5 0h1.8v1.8h-1.8z"/><path fill="#292935" d="M1088 120.6h8v4.9h-8z"/><path fill="#4979B2" d="M1088.6 121.2h3.1v8.6h-3.1zm3.1 0h3.7v8.6h-3.7z"/><path fill="#292935" d="M1086.1 125.5h10.4v1h-10.4z"/><path fill="#292935" d="M1086.1 126.1h1v4.3h-1zm1.9 0h1v3.7h-1zm1.8 0h1v3.7h-1zm1.9 0h1v3.7h-1zm1.8 0h1v3.7h-1z"/><path stroke="#7A9DC1" fill="#7A9DC1" d="M1075.7 130.4h11v1h-11zm41.7.6h1.2v14.7h-1.2zm-10.4 0h1.2v12.9h-1.2zm-10.4 0h1.2v13.5h-1.2z"/><path fill="#292935" d="M1086.1 131h1.2v13.5h-1.2z"/><path stroke="#7A9DC1" fill="#7A9DC1" d="M1086.1 131h1.2v15.3h-1.2zm-10.4-.6h1.2v14.1h-1.2zm.7.6l10.4 10.4m-.7-10.4l-9.7 10.4"/><path fill="#292935" d="M1095.3 126.1h1v3.7h-1z"/><path fill="#4979B2" d="M1077.6 112l-3.7 6.7h24.5l-3.7-6.7z"/><path d="M1086.8 131l10.4 10.4m-.6-10.4l-9.8 10.4m9.5-11.7h11.6v1.2h-11.6zm.9 1.3l10.4 10.4m-.6-10.4l-9.8 10.4m10.4-10.4l10.4 10.4m-.6-10.4l-9.8 10.4M1118 131l10.4 10.4m-.6-10.4l-9.8 10.4m9.8-10.4h1.2v13.5h-1.2z" stroke="#7A9DC1" fill="#7A9DC1"/><path fill="#292935" d="M1099.6 121.2h5.5v5.5h-5.5z"/><path fill="#435D82" d="M1100.2 121.8h1.8v1.8h-1.8zm2.5 0h1.8v1.8h-1.8zm-2.5 2.4h1.8v1.8h-1.8zm2.5 0h1.8v1.8h-1.8z"/><path stroke="#7A9DC1" fill="#7A9DC1" d="M1107.6 129.7h21.4v1.2h-21.4z"/><path fill="#292935" d="M1110.6 121.2h5.5v5.5h-5.5z"/><path fill="#435D82" d="M1111.2 121.8h1.8v1.8h-1.8zm2.5 0h1.8v1.8h-1.8zm-2.5 2.4h1.8v1.8h-1.8zm2.5 0h1.8v1.8h-1.8z"/><path fill="#292935" d="M1119.8 121.2h5.5v5.5h-5.5z"/><path fill="#435D82" d="M1120.4 121.8h1.8v1.8h-1.8zm2.5 0h1.8v1.8h-1.8zm-2.5 2.4h1.8v1.8h-1.8zm2.5 0h1.8v1.8h-1.8z"/><path fill="#4979B2" d="M1107.3 118.7l11-5.8 11 5.8zm-18.7 25.438c-.7 0-1.5.1-2.1.2l-4.1 1.2c-.4.1-1.2.1-1.6 0l-5.5-1.3c-.4-.1-1.1-.1-1.4 0-.3.1-.3.3.2.4l5.5 1.3c1.3.3 3.1.3 4.2 0l4.1-1.2c.4-.1 1.1-.1 1.5 0l4.2 1.2c1.2.3 3 .3 4.2 0l4.1-1.2c.4-.1 1.1-.1 1.5 0l4.2 1.2c1.2.3 3 .3 4.2 0l4.1-1.2c.4-.1 1.1-.1 1.5 0l4.2 1.2c1.2.3 3 .4 4.2 0l5.5-1.3c.4-.1.5-.3.2-.4-.3-.1-1-.2-1.4-.1h-.1l-5.5 1.3c-.5.1-1.2.1-1.6 0l-4.2-1.2c-1.2-.3-3-.3-4.2 0l-4.1 1.2c-.4.1-1.1.1-1.5 0l-4.2-1.2c-1.2-.3-3-.3-4.2 0l-4.1 1.2c-.4.1-1.1.1-1.5 0l-4.2-1.2c-.6 0-1.4-.1-2.1-.1zm0 2.8c-.7 0-1.5.1-2.1.2l-4.1 1.2c-.4.1-1.2.1-1.6 0l-5.5-1.3c-.4-.1-1.1-.1-1.4 0-.3.1-.3.3.2.4l5.5 1.3c1.3.3 3.1.3 4.2 0l4.1-1.2c.4-.1 1.1-.1 1.5 0l4.2 1.2c1.2.3 3 .3 4.2 0l4.1-1.2c.4-.1 1.1-.1 1.5 0l4.2 1.2c1.2.3 3 .3 4.2 0l4.1-1.2c.4-.1 1.1-.1 1.5 0l4.2 1.2c1.2.3 3 .4 4.2 0l5.5-1.3c.4-.1.5-.3.2-.4-.3-.1-1-.2-1.4-.1h-.1l-5.5 1.3c-.5.1-1.2.1-1.6 0l-4.2-1.2c-1.2-.3-3-.3-4.2 0l-4.1 1.2c-.4.1-1.1.1-1.5 0l-4.2-1.2c-1.2-.3-3-.3-4.2 0l-4.1 1.2c-.4.1-1.1.1-1.5 0l-4.2-1.2c-.6 0-1.4-.1-2.1-.1zm0 2.7c-.7 0-1.5.1-2.1.2l-4.1 1.2c-.4.1-1.2.1-1.6 0l-5.5-1.3c-.4-.1-1.1-.1-1.4 0-.3.1-.3.3.2.4l5.5 1.3c1.3.3 3.1.3 4.2 0l4.1-1.2c.4-.1 1.1-.1 1.5 0l4.2 1.2c1.2.3 3 .3 4.2 0l4.1-1.2c.4-.1 1.1-.1 1.5 0l4.2 1.2c1.2.3 3 .3 4.2 0l4.1-1.2c.4-.1 1.1-.1 1.5 0l4.2 1.2c1.2.3 3 .4 4.2 0l5.5-1.3c.4-.1.5-.3.2-.4-.3-.1-1-.2-1.4-.1h-.1l-5.5 1.3c-.5.1-1.2.1-1.6 0l-4.2-1.2c-1.2-.3-3-.3-4.2 0l-4.1 1.2c-.4.1-1.1.1-1.5 0l-4.2-1.2c-1.2-.3-3-.3-4.2 0l-4.1 1.2c-.4.1-1.1.1-1.5 0l-4.2-1.2c-.6 0-1.4-.1-2.1-.1zm0 2.8c-.7 0-1.5.1-2.1.2l-4.1 1.2c-.4.1-1.2.1-1.6 0l-5.5-1.3c-.4-.1-1.1-.1-1.4 0-.3.1-.3.3.2.4l5.5 1.3c1.3.3 3.1.3 4.2 0l4.1-1.2c.4-.1 1.1-.1 1.5 0l4.2 1.2c1.2.3 3 .3 4.2 0l4.1-1.2c.4-.1 1.1-.1 1.5 0l4.2 1.2c1.2.3 3 .3 4.2 0l4.1-1.2c.4-.1 1.1-.1 1.5 0l4.2 1.2c1.2.3 3 .4 4.2 0l5.5-1.3c.4-.1.5-.3.2-.4-.3-.1-1-.2-1.4-.1h-.1l-5.5 1.3c-.5.1-1.2.1-1.6 0l-4.2-1.2c-1.2-.3-3-.3-4.2 0l-4.1 1.2c-.4.1-1.1.1-1.5 0l-4.2-1.2c-1.2-.3-3-.3-4.2 0l-4.1 1.2c-.4.1-1.1.1-1.5 0l-4.2-1.2c-.6 0-1.4-.1-2.1-.1z"/><path d="M1121.9 105.8h-9.8c-1.1 0-2-.9-2-2s.9-2 2-2h9.8c1.1 0 2 .9 2 2s-.9 2-2 2z" fill="#FFF"/><path d="M1130.7 103.8h-9.8c-1.1 0-2-.9-2-2s.9-2 2-2h9.8c1.1 0 2 .9 2 2s-.9 2-2 2z" fill="#FFF" opacity=".65"/><path fill="#7A9DC1" d="M1086 129.6h10.6v1.2H1086z"/></g><g fill-rule="nonzero"><path d="M1133.4 142.4l31.7-16.9 3 1 11.9-12.2h3.6l8.3-4.6h5.6l5.3-5.6 15.9 7.6 4-1.3s14.9 5.3 24.8 24.1 6 11.2 6 11.2l-122.7 1.7 2.6-5z" fill="#7A9DC1"/><path fill="#FFF" d="M1182 123.2l4.9 2.5 10.8 5.7 4.1 5.3 5.6 3.6-1.5 5-6 1.4-3.7.7h-8.6l-5.6-3.2-2.6-8.9 2.6-1.4-1.1-6.4z"/><path stroke="#F9F9F9" fill="#F2F2F2" opacity=".65" d="M1195.6 130.8l3.3-4.6 1-2.3 5.6-6.3v3.6l1.7 3 4.6 6.6-11.2 5.9-1.4 1.1zm2 14.9h49.9l-1-4-.3-2.6.3-4.7-1.3-2.3-.7-2-1-2.6h-2.9l-3-1-3.3-1.6h-1.7l-.6 1.3-1.4 2.6-3.6 1.3-1.3 1.7-1.3 2.6-5.7 1.4-1.3 2-3.6 1.3-.3 2.3-6.3.6-3.5-1.2z"/><path fill="#FFF" d="M1207.3 122.5l5.2-5.9h5.9v3l2.7-3 1.3-3.3 3.3 2.3 4.9 5.3 3.7 4 3.3 1.6 2.6 3.6-9.6 7.7-10.5 5.2-9.3 1.4-7.9-.7-2.7-2-2.6-3.9 1.6-5.7z"/><path fill="#191928" d="M1141.9 143.9h1.3v2.3h-1.3z"/><path fill="#3D3D5B" d="M1143.3 144.6h5.6v1.7h-5.6z"/><path fill="#4979B2" d="M1148.9 143.9h1.3v2.3h-1.3z"/><path fill="#6C91CC" d="M1150.2 143.9l2.6.7 19.2-.3.7-.7 3.3-.3-1.7 3.3-24.1-.4z"/><path fill="#3D3D5B" d="M1148.9 146.2h25.5v1h-25.5z"/><path fill="#344C68" d="M1141.9 146.2l2 1h4.3l.7-.3v-.7z"/><path fill="#4979B2" d="M1147.2 141.6h1.7v.7h-1.3zm2.7 0h1.3v.7h-.7z"/><path fill="#191928" d="M1147.6 142.3h1.3v2h-1.3zm2.6 0h1v2h-1z"/><path fill="#191928" d="M1150.2 142.3l-.7.4v1.5h1.4"/><path fill="#4979B2" d="M1143.3 144.3h5.6v1h-5.6z"/><path fill="#3D3D5B" d="M1152.2 138.6h.3l1.3 5.3h-.3z"/><path fill="#3D3D5B" d="M1151.2 143.3h1.3l.3.6h10l-.4.5-9.6.2-1.6-.3z"/><path fill="#4979B2" d="M1162.8 143.9l2.3-3h2.3l-2.7 3zm-.4 0h10.2v1h-10.2z"/><path fill="#4979B2" d="M1161.1 140.9v1.7h2.9l1.1-1.7v-.9l-1.7-.4v1h-2.3m.5 2v1.3h1.2l1.3-1.3zm11.1-1.7v2.7l-.7.7h-7.7l3.1-3.4z"/><path fill="#4979B2" d="M1169 139h1v2h-1z"/><path fill="#3D3D5B" d="M1169.7 139.6h1v1.3h-1z"/><path fill="#344C68" d="M1169.1 142.3h1v1h-1z"/><path fill="#344C68" d="M1169.9 142.3h1v1h-1z"/><path fill="#344C68" d="M1170.7 142.3h1v1h-1z"/><path fill="#344C68" d="M1171.4 142.3h1v1h-1zm-8.5 0h1v1h-1z"/><path fill="#344C68" d="M1163.6 142.3h1v1h-1z"/><path fill="#344C68" d="M1164.4 142.3h1v1h-1z"/><path fill="#344C68" d="M1165.1 142.3h1v1h-1z"/><path d="M1154.5 147.8c-.5 0-1 .1-1.4.2l-2.7 1.2c-.3.1-.8.1-1.1 0l-3.6-1.3c-.3-.1-.7-.1-.9 0-.2.1-.2.3.1.4l3.6 1.3c.8.3 2 .3 2.8 0l2.7-1.2c.3-.1.7-.1 1 0l2.8 1.2c.8.3 2 .3 2.8 0l2.7-1.2c.3-.1.7-.1 1 0l2.8 1.2c.8.3 2 .3 2.8 0l2.7-1.2c.3-.1.7-.1 1 0l2.8 1.2c.8.3 2 .4 2.8 0l3.6-1.3c.3-.1.4-.3.1-.4-.2-.1-.6-.2-.9-.1l-3.6 1.3c-.3.1-.8.1-1.1 0l-2.8-1.2c-.8-.3-2-.3-2.8 0l-2.7 1.2c-.3.1-.7.1-1 0l-2.8-1.2c-.8-.3-2-.3-2.8 0l-2.7 1.2c-.3.1-.7.1-1 0l-2.8-1.2c-.4 0-.9-.1-1.4-.1zm9.2 2.4c-.5 0-1 .1-1.4.2l-2.7 1.2c-.3.1-.8.1-1.1 0l-3.6-1.3c-.3-.1-.7-.1-.9 0-.2.1-.2.3.1.4l3.6 1.3c.8.3 2 .3 2.8 0l2.7-1.2c.3-.1.7-.1 1 0l2.8 1.2c.8.3 2 .3 2.8 0l2.7-1.2c.3-.1.7-.1 1 0l2.8 1.2c.8.3 2 .3 2.8 0l2.7-1.2c.3-.1.7-.1 1 0l2.8 1.2c.8.3 2 .4 2.8 0l3.6-1.3c.3-.1.4-.3.1-.4-.2-.1-.6-.2-.9-.1l-3.6 1.3c-.3.1-.8.1-1.1 0l-2.8-1.2c-.8-.3-2-.3-2.8 0l-2.7 1.2c-.3.1-.7.1-1 0l-2.8-1.2c-.8-.3-2-.3-2.8 0l-2.7 1.2c-.3.1-.7.1-1 0l-2.8-1.2c-.4 0-.9-.1-1.4-.1z" fill="#4979B2"/></g><g fill-rule="nonzero"><path fill="#191928" d="M139.8 146.6l15.3-20.1 15.9 20.2zm-12.7.1H94l18.8-19.6 23.7 19.6"/><path fill="#6C91CC" d="M107.5 143.1l25.3-13.3 38.2 16.9-63.5-.1z"/></g><g transform="translate(122 96)" fill-rule="nonzero"><path fill="#4979B2" d="M12 11.2l3.7-5.8h3l3 5.8z"/><path fill="#273B7A" d="M18.7 5.4l1 .7 3.4 5.8-1.4-.7zm-2.6-.7h2.5v1h-2.5z"/><path fill="#191928" d="M16.8.1h1V5h-1z"/><path fill="#191928" d="M15.7 1.4h2.8v1h-2.8z"/><path fill="#273B7A" d="M10.6 12.3h11.1v-1.1H10.6"/><path fill="#4979B2" d="M10.6 12.3h11.1v6.2H10.6z"/><path fill="#273B7A" d="M8 18.6h15.5v1H8z"/><path fill="#273B7A" d="M8.5 19.3h14.8v1.2H8.5z"/><path fill="#4979B2" d="M21.7 11.2l3.4 1.8v1.4l-3.4-2.1z"/><path fill="#273B7A" d="M21.7 12.3l3.4 2.1v5.3l-1.8-.4-1.6-.7z"/><path fill="#4979B2" d="M21.7 18.6l3.4 1.1v1.6l-3.4-.9zM8.5 29.9h13.2v-9.5H8.5"/><path fill="#273B7A" d="M14.7 14.4h2.5v4.2h-2.5zm7 6l3.4.9v9.3l-3.4-.7z"/><path fill="#273B7A" d="M6.4 29.9h15.3v1.4H8z"/><path fill="#4979B2" d="M21.7 29.9l4.6.7-1.2 1.2-3.4-.5z"/><path fill="#273B7A" d="M21.7 31.3l3.4.5v12.7h-3.4z"/><path fill="#4979B2" d="M8 31.3v13.2h6v-2.1h2.8v2.1h4.9V31.3z"/><path fill="#273B7A" d="M5.7 44.5H14v1H5.7zm9.7 0h13.2v1H15.4z"/><path fill="#273B7A" d="M2.9 45.2H14v1.4H2.9zm12.5 0H30v1.4H15.4z"/><path fill="#273B7A" d="M16.772 50.713h-4.9v-10h4.9z"/><path fill="#263351" d="M.8 46.6h12.3v4.2H.8zm14.6 0h15.7v4.2H15.4z"/><path fill="#FFF" d="M11.923 36.642h-1.4v-1.4h1.4zM18 35.2h1.4v1.4H18zm-7.4-12.7H12v1.4h-1.4zm8.3 0h1.4v1.4h-1.4zm-7.2-8.8h1.4v1.4h-1.4zm7.2 0h1.4v1.4h-1.4z"/><circle fill="#273B7A" cx="14.4" cy="40.7" r="2.4"/><path fill="#273B7A" d="M12.4 26.9h5.1v3.2h-5.1z"/><circle fill="#273B7A" transform="rotate(-21.04 14.892 27.207)" cx="14.892" cy="27.207" r="2.5"/></g><g fill-rule="nonzero"><path d="M19.6 145.6l3.8-28.6 3.1-9.1 4.3-3.6 7.4-3.9 1.4-1.7h1.7l2.6-2.3H55l8.9-1.8 10.4.6 6.3 1.2 9.4 3 3.1 5 1.2 6.5 4.8 1.5 1.4 4.1 6.5 14.1.9 7.9 1.9 5.8 2.4 2.4H89.8l-11.5-1s-17.1.7-17.1 0-21.1 1-21.1 1l-20.5-1.1z" fill="#435D82"/><path fill="#4B6687" d="M63.9 94.5l13.2 13.3 6.8 5.2-1.9 10.9 1.9 22.7-6.5-.9h-17l8.1-25.1L55 96.4zM94.2 111l4.8 1.2 7.9 18.3v7.7l2.7 6.6 2.4 1.8H94.2l4.8-15.8-4.8-14.6z"/><path fill="#435D82" d="M40.2 98.6l7.7 13.6 2.4 10v9.3l-5 12.1-1.8 3-3.3-10.3-2.9-13.7-4.8-2 1.7-9-3.9-7.3"/><path fill="#6C91CC" d="M63.3 82.2h1v12.3h-1z"/><path d="M65 84.2c.4.5.7 1 1.1 1.4.4.4 1.1.7 1.6.6 0 1.3-.1 2.6-.1 3.8-.7-.7-1.3-1.3-2.2-1.7-.5-.2-1.1-.3-1.5-.7-.5-.5-.5-1.4-.5-2.1 0-.3-.1-2 .2-2.2.4-.2 1.2.6 1.4.9z" fill="#273B7A"/></g><g fill-rule="nonzero" fill="#2E3C59"><path d="M37.5 114.5l1.7-1-1 32.3-.7.7h-1.3z"/><path d="M37.8 110.9c.5-1.2 1.4-2.4 2.7-2.7 1.3-.3 2.8.3 3.2 1.6-.9-.5-2.1-.6-3.1-.2-1 .4-1.8 1.3-2.1 2.3 1-.9 2.6-1.1 3.9-.5 1.2.6 2 2 1.9 3.4-1.2-1.5-3.3-2.1-5.1-1.4.9-.2 1.9.2 2.6.9.6.7.9 1.7.6 2.6 0 .1-.1.2-.2.3-.2.1-.4 0-.6-.1-.7-.5-1.2-1.3-1.8-1.9-.6-.6-1.6-1-2.4-.6-.4.2-.7.7-.9 1.1-.8 1.3-1.9 2.3-3.2 3.1.7-1.7 1.7-3.3 2.9-4.6-1-.4-2.1.5-2.7 1.4-.6.9-1.3 2-2.4 2.2.6-1.4 1.4-2.7 2.4-3.9.3-.4.7-.9 1.2-1.1.5-.2 1.2-.2 1.6.2-.4-.8-1.4-1.1-2.3-1-.9.1-1.6.6-2.4 1.1-.7.5-1.5 1-2.4 1.2.4-.9.9-1.8 1.5-2.6.7-.7 1.6-1.3 2.6-1.2 1.6.1 2.7 1.5 4.3 1.8-.2 0-1.4-2.9-1.6-3.3-.3-.5-2-2.6-1.3-2.8.7-.2 2 1.2 2.3 1.7.6 1 .9 2 .8 3z"/></g><g fill-rule="nonzero" fill="#2E3C59"><path d="M51.8 113.8l1.4-.6 1 32.3-.7 1h-1.3z"/><path d="M50.8 106.2c.9.1 1.6.8 1.9 1.7.3.9.2 1.8.1 2.7 1.6-1.7 3.4-3.5 5.7-3.7-2.1.8-3.7 2.7-4.3 4.8.7-.7 1.6-1.3 2.5-1.1.7.1 1.3.8 1.6 1.5.3.7.3 1.5.3 2.2-.4-.9-1.3-1.7-2.3-1.9-1-.2-2.1 0-2.9.7 2 .6 3.2 3 2.6 5-.3-.6-.6-1.1-.9-1.7-.3-.6-.6-1.1-1-1.5-.5-.4-1.1-.7-1.7-.5 0 .4-.2.7-.4 1-.9 1.1-1.7 2.2-2.6 3.4-.4-1.9.8-4.1 2.6-4.8-1-.6-2.3-.2-3.1.6-.8.8-1.3 1.8-1.8 2.8-.7-1-.5-2.5.3-3.4.8-1 2-1.5 3.2-1.7-1-.6-2.2-.3-3.1.4-.9.7-1.4 1.7-2 2.7-.5-1.4.5-2.9 1.8-3.6 1.3-.7 2.8-.6 4.2-.4-.8-.8-2.1-1.1-3.2-.9-1.2.2-2.2.7-3.3 1.2.5-1.1 1.4-2 2.4-2.6.8-.5 1.9-.9 2.8-.6.8.3 1.4 1.1 1.3 2 .5-1.4-.1-3.2-.7-4.3z"/></g><g fill-rule="nonzero"><path fill="#719EBC" d="M178.9 143l9-5.7v-11.4l9-5.7 10.6 3.3 13-.8 4.9 4v13.9l7.4 4-12.3 2.5-5.7-3.3 3.3-4.9-3.3-8.1-7.3.8-4.9-3.2-1.6 5.7 1.6 8.9-5.7 1.6-9 1.6z"/><path fill="#2E3C59" d="M202.7 128.6l5.2 1.6 7.2.3-8.9 2.9z"/><path fill="#4979B2" d="M218.7 142.5l14.4 3.1-14.1 2.6z"/><path fill="#4979B2" d="M225.5 140.6l9.4 4.8-8.6 1.5z"/><path fill="#2E3C59" d="M215 130.5l4.2 9.2-2.1 1.3-3.6-10.5z"/><path fill="#4979B2" d="M199.2 133.3l3.5-6 5.3 2.8 7 .3-9.1 3.5-2.8-2.7-1.8 5.4 2.5 7.5-9-3.1z"/><path fill="#4979B2" d="M187.6 137.5l16.2 6.6-16.5 2.5-10.5-3.5zm20.4-7.4l7-1.4 4.2 9.5-2.5 2.8-4.2-10.2-6.3 2.6zm17.9 14l9 1.4-9.4-4.9z"/><path fill="#4979B2" d="M214.5 130.5l4.7 7.8v10l-4.7-4.5 2.8-4.4zm-26.8 7l7.7 2.5-3.2 5.8-4.9.8-10.5-3.5z"/></g><path d="M189.4 143.038c-.9 0-1.8.1-2.6.3l-5.1 1.2c-.5.1-1.4.1-2 0l-6.7-1.3c-.5-.1-1.3-.1-1.7 0-.4.1-.3.3.2.4l6.7 1.3c1.5.3 3.7.3 5.2 0l5.1-1.2c.5-.1 1.3-.1 1.8 0l5.1 1.2c1.4.3 3.7.3 5.1 0l5.1-1.2c.5-.1 1.3-.1 1.8 0l5.1 1.2c1.4.3 3.7.3 5.1 0l5.1-1.2c.5-.1 1.3-.1 1.8 0l5.1 1.2c1.4.3 3.6.4 5.2 0l6.7-1.3c.5-.1.7-.3.3-.4-.4-.1-1.2-.2-1.7-.1h-.1l-6.7 1.3c-.6.1-1.5.1-2 0l-5.1-1.2c-1.4-.3-3.7-.3-5.1 0l-5.1 1.2c-.5.1-1.3.1-1.8 0l-5.1-1.2c-1.4-.3-3.7-.3-5.1 0l-5.1 1.2c-.5.1-1.3.1-1.8 0l-5.1-1.2c-.8-.2-1.7-.2-2.6-.2zm0 2.7c-.9 0-1.8.1-2.6.3l-5.1 1.2c-.5.1-1.4.1-2 0l-6.7-1.3c-.5-.1-1.3-.1-1.7 0-.4.1-.3.3.2.4l6.7 1.3c1.5.3 3.7.3 5.2 0l5.1-1.2c.5-.1 1.3-.1 1.8 0l5.1 1.2c1.4.3 3.7.3 5.1 0l5.1-1.2c.5-.1 1.3-.1 1.8 0l5.1 1.2c1.4.3 3.7.3 5.1 0l5.1-1.2c.5-.1 1.3-.1 1.8 0l5.1 1.2c1.4.3 3.6.4 5.2 0l6.7-1.3c.5-.1.7-.3.3-.4-.4-.1-1.2-.2-1.7-.1h-.1l-6.7 1.3c-.6.1-1.5.1-2 0l-5.1-1.2c-1.4-.3-3.7-.3-5.1 0l-5.1 1.2c-.5.1-1.3.1-1.8 0l-5.1-1.2c-1.4-.3-3.7-.3-5.1 0l-5.1 1.2c-.5.1-1.3.1-1.8 0l-5.1-1.2c-.8-.1-1.7-.2-2.6-.2zm0 2.8c-.9 0-1.8.1-2.6.3l-5.1 1.2c-.5.1-1.4.1-2 0l-6.7-1.3c-.5-.1-1.3-.1-1.7 0-.4.1-.3.3.2.4l6.7 1.3c1.5.3 3.7.3 5.2 0l5.1-1.2c.5-.1 1.3-.1 1.8 0l5.1 1.2c1.4.3 3.7.3 5.1 0l5.1-1.2c.5-.1 1.3-.1 1.8 0l5.1 1.2c1.4.3 3.7.3 5.1 0l5.1-1.2c.5-.1 1.3-.1 1.8 0l5.1 1.2c1.4.3 3.6.4 5.2 0l6.7-1.3c.5-.1.7-.3.3-.4-.4-.1-1.2-.2-1.7-.1h-.1l-6.7 1.3c-.6.1-1.5.1-2 0l-5.1-1.2c-1.4-.3-3.7-.3-5.1 0l-5.1 1.2c-.5.1-1.3.1-1.8 0l-5.1-1.2c-1.4-.3-3.7-.3-5.1 0l-5.1 1.2c-.5.1-1.3.1-1.8 0l-5.1-1.2c-.8-.1-1.7-.2-2.6-.2zm0 2.7c-.9 0-1.8.1-2.6.3l-5.1 1.2c-.5.1-1.4.1-2 0l-6.7-1.3c-.5-.1-1.3-.1-1.7 0-.4.1-.3.3.2.4l6.7 1.3c1.5.3 3.7.3 5.2 0l5.1-1.2c.5-.1 1.3-.1 1.8 0l5.1 1.2c1.4.3 3.7.3 5.1 0l5.1-1.2c.5-.1 1.3-.1 1.8 0l5.1 1.2c1.4.3 3.7.3 5.1 0l5.1-1.2c.5-.1 1.3-.1 1.8 0l5.1 1.2c1.4.3 3.6.4 5.2 0l6.7-1.3c.5-.1.7-.3.3-.4-.4-.1-1.2-.2-1.7-.1h-.1l-6.7 1.3c-.6.1-1.5.1-2 0l-5.1-1.2c-1.4-.3-3.7-.3-5.1 0l-5.1 1.2c-.5.1-1.3.1-1.8 0l-5.1-1.2c-1.4-.3-3.7-.3-5.1 0l-5.1 1.2c-.5.1-1.3.1-1.8 0l-5.1-1.2c-.8-.1-1.7-.2-2.6-.2z" fill-rule="nonzero" fill="#4979B2"/><g transform="translate(319 67)"><path d="M90 59.6l.5.8 5.6-.1.2-.8z"/><circle fill="#3D3D5B" fill-rule="nonzero" transform="rotate(-.966 93.318 60.105)" cx="93.318" cy="60.105" r="2.8"/><path fill="#3D3D5B" fill-rule="nonzero" d="M93.01 56.511l1-.016.017 1-1 .016z"/><path fill="#29293A" fill-rule="nonzero" d="M90.5 60.4l5.6-.1v3l.1 4.1-5.6.1z"/><path fill="#4979B2" fill-rule="nonzero" d="M92.804 61.615l1-.017.026 1.5-1 .016zM64.3 58.3l29.6 7.9.1 4.5-30.3-7.3z"/><path fill="#273B7A" fill-rule="nonzero" d="M18.8 65.6l.1 6.3 42.7-.7-.1-6.3v-1.8z"/><path fill="#273B7A" fill-rule="nonzero" d="M61 64.9l3.4-1.8L94 70.7v1.5l-32.9-1z"/><path fill="#3D3D5B" fill-rule="nonzero" d="M44.1 8.3l9.8-3.7 6.4 5 .1 3.2-7.2-5.4-9 4.2z"/><path fill="#191928" fill-rule="nonzero" d="M44.2 11.6l2.3 1.5 6.8-1.7 4.8 3 2.3-1.6-7.2-5.4z"/><path fill="#2E3C59" fill-rule="nonzero" d="M46.5 13.1L45 59.6l10.6-.2-2.3-48.5z"/><path fill="#435D82" fill-rule="nonzero" d="M53.3 10.9l4.8 3.5 3.3 42.9-5.8 2.1z"/><path fill="#719EBC" fill-rule="nonzero" d="M51.199 2.693L50.984.704 52.973.49l.214 1.988z"/><path fill="#FFF" fill-rule="nonzero" d="M55.9 20.5l1.3 1v-3.8l-1.3-1zm.2 10.9l1.8.9-.1-4.2-1.7-.8zm.5 10.8l1.7 1v-4.3l-1.8-.7z"/><path fill="#4979B2" fill-rule="nonzero" d="M18.5 62.1l40.2-3.8-.3 5.1-39.9 2.2z"/><path d="M21.3 71.9c-.2-.7-.3-1.4-.3-2.1 0-.5.1-1.1.4-1.5.6-.7 1.9-.3 2.3.5.5.8.4 1.8.4 2.7 0 .1 0 .3-.1.3-.1.1-.2.1-.3.1H21m7.4-.2c-.1-.8-.1-1.6.1-2.3.1-.3.1-.7.3-1 .2-.3.6-.5.9-.4.5.1.8.7.9 1.2.2.8.4 1.6.5 2.4-1 .1-1.9.1-2.9 0m7.2-.1c-.4-.9-.4-2 0-2.9.2-.4.5-.8.9-1 .4-.2.9-.2 1.3.1.3.2.4.6.5 1 .2.9.3 1.9.2 2.8-1 .1-2.1.2-3.1.1m8.4-.1c-.4-.9-.5-1.9-.4-2.9.1-.7.4-1.5 1-1.7.5-.2 1.1.1 1.4.5.3.4.5.9.6 1.5.2.8.2 1.7.2 2.5-.8 0-1.8 0-2.8.1m7.6-4.5c.4-.6 1.3-.6 1.9-.1.6.5.9 1.1 1 1.8.2.7.2 1.4.2 2.1 0 .2 0 .4-.2.6-.2.2-.5.2-.8.2-.9 0-1.8.3-2.2-.4-.4-.6-.2-3.9.1-4.2z" fill="#435D82" fill-rule="nonzero"/><path fill="#4979B2" fill-rule="nonzero" d="M15.2 65.7l3.6 2.7v-2.8z"/><path d="M14.6 57.9l.5.7 5.6-.1.2-.7z"/><circle fill="#3D3D5B" fill-rule="nonzero" transform="rotate(-.966 17.914 58.305)" cx="17.914" cy="58.305" r="2.8"/><path fill="#3D3D5B" fill-rule="nonzero" d="M17.609 54.811l1-.016.016 1-1 .016z"/><path fill="#29293A" fill-rule="nonzero" d="M15.1 58.6l5.6-.1v3l.1 4.1-5.6.1z"/><path fill="#4979B2" fill-rule="nonzero" d="M17.4 59.815l1-.017.026 1.5-1 .016z"/><path d="M57.1 54.6l.7.9 6.6-.1.3-.9z"/><circle fill="#3D3D5B" fill-rule="nonzero" transform="rotate(-.966 61.116 55.205)" cx="61.116" cy="55.205" r="3.3"/><path fill="#3D3D5B" fill-rule="nonzero" d="M60.708 50.914l1-.017.016 1-1 .016z"/><path fill="#29293A" fill-rule="nonzero" d="M57.8 55.5l6.6-.1.1 3.7.1 4.8-6.7.1z"/><path fill="#4979B2" fill-rule="nonzero" d="M60.5 57.016l1.2-.02.031 1.8-1.2.02zM57.9 64l3.6 2.7v-2.8zm3.6 2.7l3-2.9-3 .1z"/><path fill="#4979B2" fill-rule="nonzero" d="M61.266 66.41l1-.016.098 5.8-1 .016zm34.934.99l-3.5 2.8-.1-2.8z"/><path d="M66.2 71.3c-.2-.7-.3-1.4-.1-2.1.2-.7.6-1.4 1.2-1.7.6-.3 1.5-.2 2 .4.4.4.4 1 .5 1.6.1.9.1 1.7.2 2.6.1-.1-.1-.2-.3-.2-1.2 0-2.3-.1-3.5-.1m8.2-.3c0-.7 0-1.5.3-2.1.3-.6 1.1-1.1 1.8-.8.6.3.8 1 .9 1.6.1.6.1 1.3.5 1.8-1.2.1-2.4.1-3.6.1m7.6-.1c-.2-.6-.3-1.3-.1-1.8.2-.6 1-1 1.5-.7.3.2.4.6.5 1 .1.6.2 1.2.4 1.8-.8.1-1.7.1-2.5-.1" fill="#435D82" fill-rule="nonzero"/><path fill="#4979B2" fill-rule="nonzero" d="M61.6 71.2l.1 7.5 43.3-.1-1.8-1.5h-2.3l-1.4-5z"/><path fill="#3D3D5B" fill-rule="nonzero" d="M23 61.7v1.8h1v-1.9zm2.8-.3v1.8h1v-1.9zm2.5-.3v1.8h1V61zm2.5-.3l.1 1.8h1l-.1-1.9zm3-.3v1.8h.9l-.1-1.9zm2.8-.3l.1 1.8h1l-.1-1.9zm3.1-.3v1.8h1v-1.9zm2.7-.3l.1 1.8h1v-1.9zm3.1-.3v1.8h1v-1.9zm3.3-.3v1.8h1v-1.9zm3.7-.4l.1 1.9h1l-.1-2zm3.1-.3v1.9h1v-2zm24.1 4.2l1.1.3-.9 1.5-1-.2zm3.1.7l1.1.3-.9 1.6-1-.3zm2.5.7l1.1.3-.9 1.6-1-.3zm2.8.7l1.1.3-.9 1.6-1-.3zm-11.4-3.1l1.1.3-.9 1.6-1-.3zm-3.3-.7l1.1.3-.9 1.6-1-.3zm-3.1-1l1.1.3-.9 1.6-1-.2zm-3-.7l1.1.3-.9 1.6-1-.2zm23.6 6.2l1.1.3-.9 1.6-1-.2z"/><path fill="#435D82" fill-rule="nonzero" d="M44.6 8.1v1.7l.5-.2V7.9zm1.1-.5l-.1 1.7.5-.3V7.4zm1-.3L46.6 9l.5-.2V7.1zm1.2-.5v1.7l.5-.3V6.6zm1.3-.5V8l.5-.3-.1-1.6zm1.2-.6v1.7l.5-.2V5.6zm1.3-.5v1.7l.5-.2-.1-1.7zm2.8-.1l-.3 1.5.2.3.4-1.6zm1 .7l-.3 1.6.3.2.3-1.6zm1.1.8l-.4 1.5.3.3.4-1.6zm1 .7l-.3 1.5.2.3.4-1.6zm1 1l-.3 1.5.2.3.4-1.6zm1.3 1l-.3 1.5.2.3.4-1.6z"/><path fill="#273B7A" fill-rule="nonzero" d="M48.3 3.2l4-1.9 3.3.7.9 4.6-2.6-2-5.4 2z"/><path fill="#435D82" fill-rule="nonzero" d="M.8 78.8l2.5-2.3h2.8l7-5.2 48.5-.1 37.9.9 1.4 5h2.3l1.8 1.5z"/></g><g fill-rule="nonzero"><g transform="translate(546 78)"><path fill="#6C91CC" d="M0 15.4L26.1.9l5.7 6.8 4.9-1.5 88.6 55.9 9.6 5-133.5-.3z"/><path fill="#253A59" d="M16.7 17.4l9.5-3.6 8.2 3.6z"/><path fill="#273B7A" d="M17.7 18.2v25h3.9l12 4.1L33 18"/><path fill="#435D82" d="M20.3 18.1h2.5v3.4h-2.5zm7.4 0h2.5v3.4h-2.5zm-7.2 5.4H23v3.4h-2.5zm7.2 0h2.5v3.4h-2.5zm-7.2 5.8H23v3.4h-2.5zm7.2-.1h2.5v3.4h-2.5zm-7.2 6H23v3.4h-2.5zm7.2 0h2.5v3.4h-2.5z"/><path fill="#000" d="M20.7 18.9h1v1h-1z"/><path fill="#000" d="M20.7 19.8h1v1h-1zm1-.9h1v1h-1zm0 1h1v1h-1zm6.5-1h1v1h-1z"/><path fill="#000" d="M28.2 19.8h1v1h-1zm1-.9h1v1h-1zm0 1h1v1h-1zm-8.3 4.4h1v1h-1z"/><path fill="#000" d="M20.9 25.2h1v1h-1z"/><path fill="#000" d="M21.8 24.3h1v1h-1zm0 1h1v1h-1zm6.4-1h1v1h-1z"/><path fill="#000" d="M28.2 25.2h1v1h-1zm1-.9h1v1h-1zm0 1h1v1h-1zm-8.3 4.9h1v1h-1z"/><path fill="#000" d="M20.9 31.1h1v1h-1z"/><path fill="#000" d="M21.8 30.2h1v1h-1zm0 1h1v1h-1zm6.3-1.2h1v1h-1z"/><path fill="#000" d="M28.1 30.8h1v1h-1zm1-.8h1v1h-1zm0 1h1v1h-1zm-8.2 5h1v1h-1z"/><path fill="#000" d="M20.9 36.8h1v1h-1z"/><path fill="#000" d="M21.8 36h1v1h-1zm0 1h1v1h-1zm6.4-.9h1v1h-1z"/><path fill="#000" d="M28.2 37h1v1h-1zm1-.9h1v1h-1zm0 1h1v1h-1z"/><path fill="#14141E" d="M22.2 40.3l1.3-1.4 1.4 1.4V44l-2.7-.3z"/><path fill="#435D82" d="M27.7 40.9h2.5v3.4h-2.5z"/><path fill="#000" d="M28.2 41.9h1v1h-1z"/><path fill="#000" d="M28.2 42.7h1v1h-1zm1-.8h1v1h-1z"/><path fill="#000" d="M29.2 42.8h1v1h-1z"/><path fill="#253A59" d="M22.2 40.4H25v3.3h-2.8z"/><path fill="#14141E" d="M16.7 17.5h17.7v1H16.7z"/><path fill="#263351" d="M.6 34.2l82.8 32.7H1.3z"/><path fill="#3D3D5B" d="M70.3 43.4l3.4-2.4 29.5-1-10.5 11.3-22.5-2.6z"/><path fill="#253A59" d="M90.1 44.8l.9-2 1.6 2v1.9h-2.5z"/><path fill="#435D82" d="M92.6 51.3V67l-21.4-8.4-.5-9.9z"/><path fill="#253A59" d="M103.2 40l6.4 11.3V67h-17V51.3zm-21.1 4.7l.9-2.1 1.6 2.1v1.9h-2.5zm-7.9-.6L75 42l1.6 2.1V46h-2.4z"/><path fill="#435D82" d="M95.7 52.8l.2 5.2h3.6v-5.2z"/><path fill="#000" d="M96.3 53.3h1v1h-1z"/><path fill="#000" d="M97.1 53.3h1v1h-1zm1 0h1v1h-1z"/><path fill="#000" d="M96.3 54.2h1v1h-1z"/><path fill="#000" d="M97.1 54.2h1v1h-1zm1 0h1v1h-1z"/><path fill="#000" d="M96.3 55.1h1v1h-1z"/><path fill="#000" d="M97.1 55.1h1v1h-1zm-.8 1h1v1h-1z"/><path fill="#000" d="M97.1 56.1h1v1h-1zm1 0h1v1h-1zm-2.2 1.6h3.6v1h-3.6zm2.2-2.6h1v1h-1z"/><path fill="#435D82" d="M102.5 52.8l.2 5.2h3.5v-5.2z"/><path fill="#000" d="M103 53.3h1v1h-1z"/><path fill="#000" d="M103.9 53.3h1v1h-1zm1 0h1v1h-1z"/><path fill="#000" d="M103 54.2h1v1h-1z"/><path fill="#000" d="M103.9 54.2h1v1h-1zm1 0h1v1h-1z"/><path fill="#000" d="M103 55.1h1v1h-1z"/><path fill="#000" d="M103.9 55.1h1v1h-1zm-.9 1h1v1h-1z"/><path fill="#000" d="M103.9 56.1h1v1h-1zm1 0h1v1h-1zm-2.2 1.6h3.6v1h-3.6zm2.2-2.6h1v1h-1z"/><path fill="#435D82" d="M95.9 59.5l.1 5.3h3.6v-5.3z"/><path fill="#000" d="M96.4 60.1h1v1h-1z"/><path fill="#000" d="M97.3 60.1h1v1h-1z"/><path fill="#000" d="M98.2 60.1h1v1h-1zm-1.8.8h1v1h-1z"/><path fill="#000" d="M97.3 60.9h1v1h-1z"/><path fill="#000" d="M98.2 60.9h1v1h-1zm-1.8 1h1v1h-1z"/><path fill="#000" d="M97.3 61.9h1v1h-1z"/><path fill="#000" d="M96.4 62.8h1v1h-1z"/><path fill="#000" d="M97.3 62.8h1v1h-1z"/><path fill="#000" d="M98.2 62.8h1v1h-1zM96 64.4h3.6v1H96z"/><path fill="#000" d="M98.2 61.9h1v1h-1z"/><path fill="#435D82" d="M102.5 59.8h3.7V67h-3.7z"/><path fill="#000" d="M75 44h1v1h-1zm8 .3h1v1h-1zm7.9.4h1v1h-1z"/><path fill="#435D82" d="M90.9 42.8l3.3-.2 1.8 1.6-3.4.6z"/><path fill="#000" d="M92.6 46.7l3.4-2.5-3.4.6z"/><path fill="#435D82" d="M83 42.6l3.3-.1 1.9 1.6-3.5.6z"/><path fill="#000" d="M84.7 46.6l3.5-2.5-3.5.6z"/><path fill="#435D82" d="M74.8 42l3.3-.1 1.8 1.6-3.4.6z"/><path fill="#000" d="M76.5 46l3.4-2.5-3.4.6zm25.2 1h1.4v1.7h-1.4z"/><path fill="#435D82" d="M100.2 46.3l2.1-1.6 2.5 1.6z"/><path fill="#4979B2" d="M100.2 46.3h4.5v1h-4.5z"/><path fill="#435D82" d="M100.7 46.5h3.4v2.9h-3.4z"/><path fill="#253A59" d="M101.4 46.7h2.2v2.2h-2.2z"/><path fill="#292935" d="M74.2 52.7l3.2.6v3.9l-3.2-.9zm5 1.1l3.2.6v3.9l-3.2-.9zm4.8 1.1l3.2.6v3.8l-3.2-.8z"/><path fill="#4979B2" d="M74.9 54.5v-.6l.6.1v.6zm1.1.2v-.6l.6.1v.6zm-1.1.9V55l.6.1v.6zm1.1.2v-.6l.6.1v.6zm3.9-.2l.1-.6.6.1-.1.6zm1.1.2l.1-.6.6.1-.1.6zm-1.1.9l.1-.6h.6l-.1.6zm1.1.2l.1-.6.6.1-.1.6zm3.7-.2l.1-.6h.6l-.1.6zm1.1.2l.1-.6.6.1-.1.6zm-1.1.8l.1-.5h.6l-.1.6zm1.1.3l.1-.6.6.1-.1.6z"/><path fill="#344C68" d="M48.6 25.3l1 28.2-5.1-2.2-.4-17.8z"/><path fill="#253A59" d="M48.6 25.3l23-.4.5 37.9-22.7-9.3z"/><path fill="#000" d="M23 43.2h1V45h-1zm36.5-21.7h1.4v1.7h-1.4z"/><path fill="#3D3D5B" d="M48.2 24.9l10.5-5.4L72.9 25z"/><path fill="#4979B2" d="M54.4 18.9h2v1h-2z"/><path fill="#292935" d="M54.6 21.8l.1-2.6h1.4V21z"/><path fill="#435D82" d="M58 20.7l2.1-1.5 2.5 1.5z"/><path fill="#4979B2" d="M58 20.7h4.5v1H58z"/><path fill="#435D82" d="M58.5 21h3.4v2.9h-3.4zm-5 4.7l.2 5.3h3.5v-5.3z"/><path fill="#000" d="M54 26.3h1v1h-1z"/><path fill="#000" d="M54.9 26.3h1v1h-1zm1 0h1v1h-1z"/><path fill="#000" d="M54 27.1h1v1h-1z"/><path fill="#000" d="M54.9 27.1h1v1h-1zm1 0h1v1h-1zm-1.9 1h1v1h-1z"/><path fill="#000" d="M54.9 28.1h1v1h-1z"/><path fill="#000" d="M54 29h1v1h-1z"/><path fill="#000" d="M54.9 29h1v1h-1zm1 0h1v1h-1z"/><path fill="#4979B2" d="M53.7 30.6h3.6v1h-3.6z"/><path fill="#435D82" d="M64.1 25.6l.1 5.2h3.6v-5.2z"/><path fill="#000" d="M64.6 26.1h1v1h-1z"/><path fill="#000" d="M65.5 26.1h1v1h-1zm1 0h1v1h-1z"/><path fill="#000" d="M64.6 27h1v1h-1z"/><path fill="#000" d="M65.5 27h1v1h-1zm1 0h1v1h-1zm-1.9 1h1v1h-1z"/><path fill="#000" d="M65.5 28h1v1h-1z"/><path fill="#000" d="M64.6 28.9h1v1h-1z"/><path fill="#000" d="M65.5 28.9h1v1h-1zm1 0h1v1h-1z"/><path fill="#4979B2" d="M64.2 30.5h3.6v1h-3.6z"/><path fill="#435D82" d="M53.4 33.9l.2 5.2h3.5v-5.2z"/><path fill="#000" d="M53.9 34.4h1v1h-1z"/><path fill="#000" d="M54.8 34.4h1v1h-1zm1 0h1v1h-1z"/><path fill="#000" d="M53.9 35.3h1v1h-1z"/><path fill="#000" d="M54.8 35.3h1v1h-1zm1 0h1v1h-1z"/><path fill="#000" d="M53.9 36.2h1v1h-1z"/><path fill="#000" d="M54.8 36.2h1v1h-1zm-.9 1h1v1h-1z"/><path fill="#000" d="M54.8 37.2h1v1h-1zm1 0h1v1h-1z"/><path fill="#4979B2" d="M53.6 38.8h3.6v1h-3.6z"/><path fill="#435D82" d="M64.2 33.6l.2 5.3h3.5v-5.3z"/><path fill="#000" d="M64.7 34.2h1v1h-1z"/><path fill="#000" d="M65.6 34.2h1v1h-1zm1 0h1v1h-1z"/><path fill="#000" d="M64.7 35h1v1h-1z"/><path fill="#000" d="M65.6 35h1v1h-1zm1 0h1v1h-1zm-1.9 1h1v1h-1z"/><path fill="#000" d="M65.6 36h1v1h-1zm-.9 1h1v1h-1z"/><path fill="#000" d="M65.6 37h1v1h-1zm1 0h1v1h-1z"/><path fill="#4979B2" d="M64.4 38.5H68v1h-3.6z"/><path fill="#435D82" d="M53.9 42l.1 5.3h3.6V42z"/><path fill="#000" d="M54.4 42.6h1v1h-1z"/><path fill="#000" d="M55.3 42.6h1v1h-1zm1 0h1v1h-1z"/><path fill="#000" d="M54.4 43.4h1v1h-1z"/><path fill="#000" d="M55.3 43.4h1v1h-1zm1 0h1v1h-1zm-1.9 1h1v1h-1z"/><path fill="#000" d="M55.3 44.4h1v1h-1zm-.9 1h1v1h-1z"/><path fill="#000" d="M55.3 45.4h1v1h-1zm1 0h1v1h-1z"/><path fill="#4979B2" d="M54 46.9h3.6v1H54z"/><path fill="#435D82" d="M64.9 42l.2 5.3h3.6V42z"/><path fill="#000" d="M65.5 42.6h1v1h-1z"/><path fill="#000" d="M66.3 42.6h1v1h-1zm1 0h1v1h-1z"/><path fill="#000" d="M65.5 43.4h1v1h-1z"/><path fill="#000" d="M66.3 43.4h1v1h-1zm1 0h1v1h-1zm-1.8 1h1v1h-1z"/><path fill="#000" d="M66.3 44.4h1v1h-1zm-.8 1h1v1h-1z"/><path fill="#000" d="M66.3 45.4h1v1h-1zm1 0h1v1h-1z"/><path fill="#4979B2" d="M65.1 46.9h3.6v1h-3.6z"/><path fill="#435D82" d="M65.2 50.5l.2 5.2h3.5v-5.2z"/><path fill="#000" d="M65.7 51h1v1h-1z"/><path fill="#000" d="M66.6 51h1v1h-1zm1 0h1v1h-1z"/><path fill="#000" d="M65.7 51.9h1v1h-1z"/><path fill="#000" d="M66.6 51.9h1v1h-1zm1 0h1v1h-1z"/><path fill="#000" d="M65.7 52.8h1v1h-1z"/><path fill="#000" d="M66.6 52.8h1v1h-1zm-.9 1h1v1h-1z"/><path fill="#000" d="M66.6 53.8h1v1h-1zm1 0h1v1h-1zm-2.2 1.5H69v1h-3.6z"/><path fill="#435D82" d="M58.3 50.8l.2 5.3H62v-5.3z"/><path fill="#000" d="M58.8 51.4h1v1h-1z"/><path fill="#000" d="M59.7 51.4h1v1h-1zm1 0h1v1h-1z"/><path fill="#000" d="M58.8 52.2h1v1h-1z"/><path fill="#000" d="M59.7 52.2h1v1h-1zm1 0h1v1h-1zm-1.9 1h1v1h-1z"/><path fill="#000" d="M59.7 53.2h1v1h-1z"/><path fill="#000" d="M58.8 54.1h1v1h-1z"/><path fill="#000" d="M59.7 54.1h1v1h-1zm1 0h1v1h-1zm-2.2 1.6h3.6v1h-3.6z"/><path fill="#14141E" d="M58 35.9h1v21.4h-1z"/><path d="M58 35.8l2.6-1.3" stroke="#292935" fill="#292935"/><ellipse fill="#14141E" cx="61.7" cy="34.4" rx="1" ry="1"/><path fill="#000" d="M25.4 43.7h1v2.5h-1zm3.4 1.4h1v2.7h-1zm2 1.2h1v1.8h-1zm2.7 1h1v1.8h-1zm3.1 1.2h1v1.8h-1zm3.3 1.4h1v1.8h-1zm2.7 1.1h1v1.8h-1zm3.6 1.3h1v1.8h-1zm3.2 1.2h1v1.8h-1zm2.7 1.1h1v1.8h-1zm2.4 1.1h1v1.8h-1zm3 1.2h1v1.8h-1zm2.7 1.1h1v1.8h-1zm2.9 1.2h1V61h-1zm6.3 2.6h1v1.8h-1zm2.5 1h1v1.8h-1z"/><path fill="#253A59" d="M59.2 21.2h2.2v2.2h-2.2z"/><path fill="#000" d="M67.6 52.8h1v1h-1zm-1-16.8h1v1h-1zm-.1-8h1v1h-1zm-10.6.1h1v1h-1zm-.1 8.1h1v1h-1zm.5 8.2h1v1h-1zm11 0h1v1h-1zm-6.5 8.8h1v1h-1zm5.8 7.3h1v1.8h-1z"/><path d="M71.6 65H15.9m52.2-1.5H14.5m50.8-1.4H13.8M62.5 61l-49.4-.4m46.7-1.2H12.4M57 58.3H11.7M53.5 57H11m38.3-1.4H9.6m36.2-1.3H8.2m34.1-1.4H7.5m32.1-1.4H6.8m29.3-1.3h-30m27.2-1.4H4.7m25.1-1.3H4m22.3-1.4h-23m19.5-1.4H2.6" stroke="#000" stroke-width=".75" fill="#000"/><path fill="#14141E" d="M21.7 42l50.9 20.8v.5L21.5 42.6z"/><path fill="#000" d="M22.3 42.3h1v2.5h-1z"/><path fill="#14141E" d="M43.7 33.5l4.2-8.9h25.8l-1.4.7-23.8.2-4.4 8.1zm9.1 17H57v6.1L52.8 55z"/></g><path fill="#263351" d="M545.9 118.4l27.3 27.6h-26.6z"/><path fill="#263351" d="M547 112l-23 33 23 1z"/><path fill="#6C91CC" d="M518.2 130.5L546 93l3.3-1.5-.7 21.5-2.1-.1-17.5 24.2"/></g><g fill-rule="nonzero"><path fill="#4979B2" d="M674.4 96.6v1.6l.5 5.9h7.5l.5-5.9v-1.6z"/><path fill="#435D82" d="M677.8 104.7h1.8v26.2h-1.8z"/><path d="M677.9 88.6V87c0-.2.1-.3.2-.3h.9c.1 0 .2.1.2.3v1.7h-1.3v-.1z" fill="#3D3D5B"/><path d="M674.4 96.6v1.6l.5 5.9h1.6v-7.5zm4.2 0h2v7.6h-2z" fill="#FFF" opacity=".5"/><path d="M680.8 103.9v1.7c0 .2-.1.3-.2.3h-3.8c-.1 0-.2-.1-.2-.3v-1.7h4.2z" fill="#435D82"/><path d="M679 86.8v-2.1c0-.2-.1-.3-.2-.3h-.3c-.1 0-.2.1-.2.3v2.1h.7z" fill="#253A59"/><path fill="#719EBC" d="M674.4 96.6h8.4v1.7h-8.4z"/><path fill="#435D82" d="M674.8 102.7l.1 1.4h7.5l.1-1.4z"/><path d="M676.5 104.1h4.2v1h-4.2zm1.3 1.8h1.8v1h-1.8z" fill="#2E3C59"/><path fill="#435D82" d="M674.4 88.9v1.6l.5 5.9h7.5l.5-5.9v-1.6z"/><path d="M674.4 88.9v1.6l.5 5.9h1.6v-7.5zm4.2 0h2v7.6h-2z" fill="#435D82" opacity=".5"/><path fill="#719EBC" d="M674.4 88.9h8.4v1.7h-8.4z"/><path fill="#344C68" opacity=".68" d="M712.3 109.8h14v25h-14z"/><path fill="#4979B2" opacity=".45" d="M690 105h22v25h-22zm38.2-.2h14v25h-14z"/><path fill="#4979B2" d="M678.1 129.5h94.1v2.9h-94.1z"/><path fill="#253A59" d="M676.6 133.1h95.5v11.8h-95.5z"/><path fill="#344C68" d="M696.3 108.3h1.4v2.8h-1.4zm2.8 0h1.4v2.8h-1.4zm2.8 0h1.4v2.8h-1.4zm2.9 0h1.4v2.8h-1.4zm-8.5 6.1h1.4v2.8h-1.4zm2.8 0h1.4v2.8h-1.4zm2.8 0h1.4v2.8h-1.4zm2.9 0h1.4v2.8h-1.4zm-8.5 6.1h1.4v2.8h-1.4zm2.8 0h1.4v2.8h-1.4zm2.8 0h1.4v2.8h-1.4zm2.9 0h1.4v2.8h-1.4zm25.8-11h1.3v2.5h-1.3zm2.5 0h1.3v2.5h-1.3zm2.5 0h1.3v2.5h-1.3zm2.6 0h1.3v2.5h-1.3zm-7.6 5.5h1.3v2.5h-1.3zm2.5 0h1.3v2.5h-1.3zm2.5 0h1.3v2.5h-1.3zm2.6 0h1.3v2.5h-1.3zm-22.2-1.4h1v1.7h-1zm1.7 0h1v1.7h-1zm1.7 0h1v1.7h-1zm1.7 0h1v1.7h-1zm-5.1 3.7h1v1.7h-1zm1.7 0h1v1.7h-1zm1.7 0h1v1.7h-1zm1.7 0h1v1.7h-1zM716 121h1v1.7h-1zm1.7 0h1v1.7h-1zm1.7 0h1v1.7h-1zm1.7 0h1v1.7h-1z"/><path fill="#546C86" d="M760 55.8l2.6.6 1.1 84.4H756l.5-21.3L758 60l1.9-.4z"/><path fill="#7A9DC1" d="M762.6 56.4l2.2.6 2.9 30.3 1.3 38.6v14.9h-5.3z"/><path fill="#273B7A" d="M755.8 58.5l2.2-2.4-.5 3.7-1.4 81-4.7-.4.9-30 2.1-40.6zm9.1.2l.9-1 1.4 14.5.5 7.3.4 10.8.5 12.3.4 14.7v6.9z"/><path d="M770.9 128.4v2.1h-5.3v-2.1h-1.1v2.1h-5.3v-2.1h-1.1v2.1h-5.3v-2.1h-1.1v2.1h-5.3v-2.1h-1.1v2.1H740v-2.1h-1.1v2.1h-4.2v-7.4h-1.1v2.1h-5.3v-2.1h-1.1v2.1h-6.4v-2.1h-.8v2.1h-5.3v-2.1h-1.1v7.4h-4.2v-2.1h-1.1v2.1H703v-2.1h-1v2.1h-5.3v-2.1h-1.1v2.1h-5.3v-2.1h-1.1v2.1H684v-2.1h-1v2.1h-5.3v-2.1h-1.1v16.9h45.6v-5.1c0-.9.5-1.8 1.4-2.1 1.5-.5 2.8.6 2.8 2v5.2H772v-16.9h-1.1zm-90.1 15.9h-2.1v-3.2h2.1v3.2zm0-5.3h-2.1v-3.2h2.1v3.2zm1.1-6.3h-4.2v-1.1h4.2v1.1zm5.3 11.6h-2.1v-3.2h2.1v3.2zm0-5.3h-2.1v-3.2h2.1v3.2zm1-6.3H684v-1.1h4.2v1.1zm5.3 11.6h-2.1v-3.2h2.1v3.2zm0-5.3h-2.1v-3.2h2.1v3.2zm1.1-6.3h-4.2v-1.1h4.2v1.1zm5.3 11.6h-2.1v-3.2h2.1v3.2zm0-5.3h-2.1v-3.2h2.1v3.2zm1.1-6.3h-4.2v-1.1h4.2v1.1zm5.3 11.6h-2.1v-3.2h2.1v3.2zm0-5.3h-2.1v-3.2h2.1v3.2zm1-6.3h-4.2v-1.1h4.2v1.1zm5.3 11.6h-2.1v-3.2h2.1v3.2zm0-5.3h-2.1v-3.2h2.1v3.2zm1.1-6.3h-4.2v-1.1h4.2v1.1zm5.3 11.6h-2.1v-3.2h2.1v3.2zm0-5.3h-2.1v-3.2h2.1v3.2zm0-5.3h-2.1v-3.2h2.1v3.2zm1-6.3h-4.2v-1.1h4.2v1.1zm5.3 6.3h-2.1v-3.2h2.1v3.2zm6.4 10.6h-2.1v-3.2h2.1v3.2zm0-5.3h-2.1v-3.2h2.1v3.2zm0-5.3h-2.1v-3.2h2.1v3.2zm1.1-6.3h-4.2v-1.1h4.2v1.1zm5.3 16.9H736v-3.2h2.1v3.2zm0-5.3H736v-3.2h2.1v3.2zm1-6.3h-4.2v-1.1h4.2v1.1zm5.3 11.6h-2.1v-3.2h2.1v3.2zm0-5.3h-2.1v-3.2h2.1v3.2zm1.1-6.3h-4.2v-1.1h4.2v1.1zm5.3 11.6h-2.1v-3.2h2.1v3.2zm0-5.3h-2.1v-3.2h2.1v3.2zm1-6.3h-4.2v-1.1h4.2v1.1zm5.3 11.6H755v-3.2h2.1v3.2zm0-5.3H755v-3.2h2.1v3.2zm1.1-6.3H754v-1.1h4.2v1.1zm5.3 11.6h-2.1v-3.2h2.1v3.2zm0-5.3h-2.1v-3.2h2.1v3.2zm1.1-6.3h-4.2v-1.1h4.2v1.1zm5.3 11.6h-2.1v-3.2h2.1v3.2zm0-5.3h-2.1v-3.2h2.1v3.5-.3zm1-6.3h-4.2v-1.1h4.2v1.1z" fill="#6C91CC"/></g><path fill="#4979B2" fill-rule="nonzero" opacity=".45" d="M1286.9 145.1l-9.8-21.1-3.6 11.3-3.8-1-16.1 9.4-1.8.9 35.1.5"/><path fill="#4979B2" fill-rule="nonzero" d="M1256.5 127.9l3.1.1 1 1.7v3.4h.4l4.6 6.4-6-3.5.9.8v7.6l-.8.4h-1.6l1.3-.6-2.5-6-.9-2.6 1-2.7 1.7-3.5z"/><path fill="#6C91CC" fill-rule="nonzero" d="M1259.6 135.3v-2.5h1.2l4.7 6.6-5.9-3.4zm-3.2-7.5l3.2.3-1 1.3z"/><path d="M1259.4 136.2v-3.5h1m-2.6-4.7c.6 0 1.2 0 1.7.1-.3.5-.6.9-.9 1.4" stroke="#FFF" stroke-width=".5"/><path fill="#191928" fill-rule="nonzero" d="M1297.6 145.5l-9.8-21-3.6 11.2-3.9-.9-16 9.3-1.8 1 35.1.4m-825.1.5l33-27 38.2 27z"/><path fill="#191928" fill-rule="nonzero" d="M418.5 145.7l33-26.2 38.2 26.2z"/><path fill="#4979B2" fill-rule="nonzero" d="M462.8 125.2h7.6l-32.6 41.3H429z"/><path fill="#191928" fill-rule="nonzero" d="M468.4 101.6h6.8l4.6 8.9h-6.7l-4.7-8.9"/><path d="M470 106.5l-7 .4" fill="#2C2C42" fill-rule="nonzero"/><path fill="#191928" fill-rule="nonzero" d="M474.7 101.6h8.4l5.2 8.9h-8.5zm5.1 8.9h8.5v35h-8.5z"/><path fill="#435D82" fill-rule="nonzero" d="M475.9 125.9h4.2v19.6h-4.2z"/><path fill="#435D82" fill-rule="nonzero" d="M460.6 128.7v-4.5h19.2v1.7h-16.9z"/><path d="M461.7 126.8h7.1m-8.2 1.9h7m-9.2 1.8h7.1m-8.2 1.9h7m-8.4 1.9h7m-8.9 1.9h7m-8.2 1.9h7m-9.8 1.8h7m-8.9 2.4h7.1m-9 1.9h7.1" stroke="#292935"/><path fill="#435D82" fill-rule="nonzero" d="M443.9 139h7.1v5.2h-7.1z"/><path fill="#4979B2" fill-rule="nonzero" d="M437.3 139h6.6v5.2h-6.6z"/><path fill="#292935" fill-rule="nonzero" d="M443.9 144.2h7.1v3.8h-7.1zm-6.6 3.7h1v8.5h-1z"/><path fill="#292935" fill-rule="nonzero" d="M443.9 147.9h1v8.5h-1zm6.1 0h1v8.5h-1z"/><path d="M438.2 147.9l5.7 8.5m.2-8.3l-6.1 8.1" stroke="#292935"/><path d="M447.2 136.4c.8 0 1.7 0 2.4.4.9.6 1.1 1.7 1.9 2.4h-8.6c.5 0-2.1-2.6-2.4-2.7 2.1-.1 4.4-.1 6.7-.1z" fill="#273B7A" fill-rule="nonzero"/><path fill="#121149" fill-rule="nonzero" d="M439.2 139h2.8v5.2h-2.8z"/><path fill="#4979B2" fill-rule="nonzero" d="M444.8 139.5h1v4.7h-1zm2.4 0h1v4.7h-1z"/><path d="M437.4 138.7c.5-1.4 2-2.5 3.5-2.4 1.5.1 2.9 1.4 3.1 2.8h-7" fill="#273B7A" fill-rule="nonzero"/><path fill="#4979B2" fill-rule="nonzero" d="M449.5 139.5h1v4.7h-1z"/><path d="M450.5 148.2h-13.2" fill="#2C2C42" fill-rule="nonzero"/><path d="M437.3 156.9h7m-8.9 1.8h7m-8.4 1.9h7m-8.2 1.9h7.1m-8.6 1.9h7.1" stroke="#292935"/><path fill="#4979B2" fill-rule="nonzero" d="M460.5 110.5h19.6v15.4h-19.6z"/><path fill="#273B7A" fill-rule="nonzero" d="M460.5 110.5l7.7-9.1 11.9 9.1z"/><path fill="#292935" fill-rule="nonzero" d="M473.3 117.6h4.2v4.2h-4.2z"/><path fill="#FFF" fill-rule="nonzero" d="M473.7 118.1h1.4v1.4h-1.4zm1.9 0h1.4v1.4h-1.4zm-1.9 1.9h1.4v1.4h-1.4zm1.9 0h1.4v1.4h-1.4z"/><path fill="#121149" fill-rule="nonzero" d="M462.9 116.2h8.5v8h-8.5z"/><path fill="#435D82" fill-rule="nonzero" d="M431.8 166.5h9.1l39.2-40.6h-11z"/><path fill="#253A59" fill-rule="nonzero" d="M437.3 144.2h6.6v3.8h-6.6z"/><g fill-rule="nonzero"><path d="M485.4 143v1.8c0 .2.3.2.3.2v-2h-.3z" fill="#4979B2"/><path d="M485.7 145s.3 0 .3-.2V143h-.3v2z" fill="#191928"/><path d="M486.1 131.8c0-.1-.1-.2-.1-.3 0 .2.1.2.1.3zm-.1-.3c0-.1-.1-.1-.1-.2 0 .1.1.2.1.2z" fill="#7CDAAF"/><path d="M485.7 141v-9.6c-.1 0-.2.1-.3.2-.6 2.2-2.1 7.5-2.1 9.1 0 1.2.9 2.2 2.1 2.4h.3V141z" fill="#4979B2"/><path d="M488.1 140.4c-.1-1.8-1.4-6.4-2-8.6 0-.1-.1-.2-.1-.3 0-.1-.1-.1-.1-.2V143h.4c.3 0 .6-.2.9-.3 0 0 .1 0 .1-.1.3-.2.5-.4.7-.7.1-.1.1-.2.2-.3 0-.1.1-.1.1-.2.1-.2.1-.5.1-.7-.3-.1-.3-.2-.3-.3zm8.3-6.3l.1 3.2-1.4 1.8c-.7.5-1.6.8-2.5.8-2.3 0-4.2-1.9-4.2-4.2 0-2.3 1.9-4.2 4.2-4.2 1.7 0 3.2 1.1 3.8 2.6z" fill="#386895"/><path fill="#29293A" d="M497.5 137.4h1v8.1h-1z"/><path d="M505 143.2c0 .5-.1 1-.3 1.5-.2.4-.6.6-1 .6h-3.4c-.4 0-.8-.2-1-.6-.2-.4-.3-.8-.3-1.3 0-.7.3-1.4.7-1.9h1c.2 0 .3-.2.3-.4l-.1-.5c.4-.2.8-.3 1.3-.2 1.4-.1 2.7 1.2 2.8 2.8z" fill="#4979B2"/><path d="M500.6 144.6c-.2-.4-.3-.9-.3-1.5.1-1.4 1.1-2.5 2.4-2.8-.2-.1-.5-.1-.7-.1-1.6 0-2.9 1.3-3 2.9 0 .5.1 1 .3 1.5.2.4.6.6 1 .6h1.3c-.5.1-.9-.2-1-.6z" fill="#4979B2"/><path d="M496.4 134.1l1-3.9c.1-.3.5-.3.6 0l2.8 10.3.1.5c.1.2-.1.4-.3.4h-5.8c-.2 0-.3-.2-.3-.4l.5-1.9 1.4-5z" fill="#386895"/><path d="M497.7 130.1c-.1 0-.1.1-.1.2l-.5 3.9-.6 5-.2 1.9c0 .2 0 .4.1.4h-1.5c-.2 0-.3-.2-.3-.4l.5-1.9 1.3-5 1-3.9c.1-.2.2-.2.3-.2zm-7.6 5.6c0-2 1.4-3.7 3.3-4.1-.3-.1-.6-.1-.9-.1-2.3 0-4.2 1.9-4.2 4.2 0 2.3 1.9 4.2 4.2 4.2.3 0 .6 0 .9-.1-1.9-.4-3.3-2-3.3-4.1z" fill="#4979B2"/><path fill="#29293A" d="M493.6 138.7l-.8.5v-1.5l1-.7-.2-.4-.8.6v-1h-.6v1.9l-1.3-.9-.2.4 1.5 1v2.7l-.7-.5-.2.3.9.7v3.8h.6v-5.9l1-.7z"/><path fill="#435D82" d="M488.9 145.2h16.6v1h-16.6z"/></g><g fill-rule="nonzero"><path d="M425.8 143.7v1.3c0 .1.2.1.2.1v-1.4h-.2z" fill="#4979B2"/><path d="M426 145s.2 0 .2-.1v-1.3h-.2v1.4z" fill="#191928"/><path d="M426.2 135.8c0-.1 0-.1-.1-.2.1.1.1.2.1.2zm0-.2c0-.1-.1-.1-.1-.1s0 .1.1.1z" fill="#7CDAAF"/><path d="M426 142.2v-6.7c-.1 0-.2.1-.2.2-.4 1.5-1.5 5.2-1.5 6.4 0 .8.6 1.5 1.5 1.6h.2v-1.5z" fill="#4979B2"/><path d="M427.6 141.8c-.1-1.3-1-4.4-1.4-6 0-.1 0-.1-.1-.2 0-.1-.1-.1-.1-.1v8.2h.2c.2 0 .4-.1.6-.2h.1c.2-.1.4-.3.5-.5 0-.1.1-.1.1-.2 0 0 0-.1.1-.2 0-.2.1-.3.1-.5-.1-.1-.1-.2-.1-.3zm5.9-4.4l.1 2.2-1 1.3c-.5.4-1.1.6-1.8.6-1.6 0-2.9-1.3-2.9-2.9 0-1.6 1.3-2.9 2.9-2.9 1.2-.1 2.2.6 2.7 1.7z" fill="#386895"/><path d="M429.1 138.6c0-1.4 1-2.6 2.3-2.9-.2 0-.4-.1-.6-.1-1.6 0-2.9 1.3-2.9 2.9 0 1.6 1.3 2.9 2.9 2.9.2 0 .4 0 .6-.1-1.3-.2-2.3-1.3-2.3-2.7z" fill="#4979B2"/><path fill="#29293A" d="M431.5 140.6l-.5.4v-1.1l.6-.5-.1-.2-.5.4v-.7h-.5v1.3l-.9-.6-.2.2 1.1.8v1.8l-.5-.3-.1.2.6.5v2.6h.5v-4.1l.6-.5z"/></g></g></svg>