<?xml version="1.0" encoding="utf-8"?>
<!-- Generator: Adobe Illustrator 21.0.0, SVG Export Plug-In . SVG Version: 6.00 Build 0)  -->
<svg version="1.1" id="Capa_1" xmlns="http://www.w3.org/2000/svg" xmlns:xlink="http://www.w3.org/1999/xlink" x="0px" y="0px"
	 viewBox="0 0 49 49" style="enable-background:new 0 0 49 49;" xml:space="preserve">
<style type="text/css">
	.st0{fill:#0071BC;}
	.st1{fill:#FFFFFF;}
</style>
<g>
	<g>
		<circle class="st0" cx="24.4" cy="24.1" r="18.6"/>
	</g>
	<g>
		<g>
			<path class="st1" d="M14.3,34.2l2-5.9c-1-1.7-1.6-3.6-1.6-5.7c0-6.2,5-11.2,11.2-11.2s11.2,5,11.2,11.2s-5,11.2-11.2,11.2
				c-1.9,0-3.6-0.5-5.2-1.3L14.3,34.2z"/>
			<path class="st0" d="M33,26.3c-0.5-1-2.4-2.1-2.4-2.1c-0.4-0.2-0.9-0.3-1.2,0.2c0,0-0.6,0.7-0.8,0.8c-0.7,0.5-1.4,0.5-2.1-0.2
				L25,23.5l-1.6-1.6c-0.7-0.7-0.7-1.3-0.2-2.1c0.1-0.2,0.8-0.8,0.8-0.8c0.4-0.2,0.4-0.8,0.2-1.2c0,0-1.1-1.9-2.1-2.4
				c-0.4-0.2-0.9-0.1-1.3,0.2l-0.7,0.7c-2.2,2.2-1.1,4.7,1.1,6.8l2,2l2,2c2.2,2.2,4.7,3.3,6.8,1.1l0.7-0.7
				C33.2,27.3,33.3,26.8,33,26.3z"/>
		</g>
	</g>
</g>
</svg>
