<?xml version="1.0" encoding="utf-8"?>
<!-- Generator: Adobe Illustrator 21.0.0, SVG Export Plug-In . SVG Version: 6.00 Build 0)  -->
<svg version="1.1" id="Capa_1" xmlns="http://www.w3.org/2000/svg" xmlns:xlink="http://www.w3.org/1999/xlink" x="0px" y="0px"
	 viewBox="0 0 49 49" style="enable-background:new 0 0 49 49;" xml:space="preserve">
<style type="text/css">
	.st0{fill:#0071BC;}
	.st1{fill:#F1F2F2;}
</style>
<g>
	<circle class="st0" cx="24.4" cy="24.1" r="18.6"/>
	<g>
		<path class="st1" d="M35.8,18.9c-0.8,0.4-1.7,0.6-2.6,0.7c0.9-0.6,1.6-1.4,2-2.5c-0.9,0.5-1.8,0.9-2.8,1.1c-0.8-0.9-2-1.4-3.2-1.4
			c-2.5,0-4.4,2-4.4,4.4c0,0.3,0,0.7,0.1,1c-3.7-0.2-7-2-9.2-4.6C15.3,18.2,15,19,15,19.8c0,1.5,0.8,2.9,2,3.7c-0.7,0-1.4-0.2-2-0.6
			c0,0,0,0,0,0.1c0,2.2,1.5,4,3.6,4.4c-0.4,0.1-0.8,0.2-1.2,0.2c-0.3,0-0.6,0-0.8-0.1c0.6,1.8,2.2,3.1,4.2,3.1
			c-1.5,1.2-3.4,1.9-5.5,1.9c-0.4,0-0.7,0-1.1-0.1c2,1.3,4.3,2,6.8,2c8.2,0,12.7-6.8,12.7-12.7c0-0.2,0-0.4,0-0.6
			C34.5,20.5,35.2,19.8,35.8,18.9L35.8,18.9z"/>
	</g>
</g>
</svg>
